<svg width="391" height="391" viewBox="0 0 391 391" fill="none" xmlns="http://www.w3.org/2000/svg">
<path d="M225.435 360.656C316.721 344.047 377.258 256.581 360.649 165.295C344.04 74.0098 256.574 13.4726 165.288 30.0817C74.0026 46.6908 13.4653 134.157 30.0744 225.442C46.6836 316.728 134.149 377.265 225.435 360.656Z" fill="#FCF9CA"/>
<path d="M123.385 293.247L111.304 306.903C110.702 307.584 109.663 307.645 108.982 307.043L106.611 304.947C105.93 304.346 105.869 303.307 106.47 302.625L106.717 302.341C104.567 302.63 102.33 301.97 100.172 300.057C95.948 296.318 95.7466 289.532 99.994 284.721C104.243 279.918 111.009 279.285 115.233 283.024C117.391 284.937 118.317 287.074 118.303 289.245L118.55 288.961C119.152 288.279 120.191 288.218 120.872 288.82L123.243 290.916C123.924 291.518 123.985 292.557 123.384 293.238L123.385 293.247ZM112.509 295.789C114.647 293.368 114.377 290.429 112.149 288.461C109.921 286.492 106.975 286.584 104.828 288.999C102.68 291.413 102.96 294.359 105.188 296.327C107.416 298.295 110.37 298.202 112.509 295.789Z" fill="#FF6533"/>
<path d="M135.404 286.944L138.077 288.635C138.848 289.118 139.077 290.144 138.584 290.908L123.508 314.663C123.025 315.434 121.999 315.663 121.235 315.17L118.563 313.479C117.792 312.996 117.562 311.971 118.055 311.207L133.131 287.452C133.614 286.681 134.64 286.452 135.404 286.944Z" fill="#FF6533"/>
<path d="M144.674 310.299C143.852 309.911 142.872 310.252 142.476 311.075L139.895 316.462C139.263 317.773 139.972 318.574 141.588 319.382C142.404 319.788 142.76 320.757 142.363 321.58L141.225 323.956C140.847 324.742 139.923 325.106 139.12 324.774C132.455 322.025 131.63 318.76 134.069 313.672L136.649 308.285C137.045 307.461 136.697 306.483 135.873 306.086L135.733 306.018C134.909 305.621 134.569 304.642 134.957 303.82L136.214 301.2C136.61 300.377 137.59 300.037 138.412 300.425L138.552 300.493C139.374 300.882 140.354 300.541 140.751 299.718L141.277 298.623C141.593 297.968 142.302 297.591 143.015 297.709L146.275 298.217C147.364 298.386 147.98 299.563 147.503 300.555L146.569 302.509C146.173 303.333 146.521 304.311 147.345 304.708L148.374 305.204C149.198 305.6 149.538 306.58 149.15 307.402L147.893 310.021C147.497 310.845 146.517 311.185 145.695 310.797L144.666 310.301L144.674 310.299Z" fill="#FF6533"/>
<path d="M173.59 314.934L168.692 332.5C168.45 333.372 167.536 333.888 166.664 333.646L163.614 332.792C162.742 332.549 162.225 331.636 162.468 330.763L162.573 330.403C160.766 331.594 158.464 331.987 155.685 331.212C150.253 329.699 147.1 323.681 148.828 317.501C150.555 311.321 156.36 307.798 161.794 309.319C164.573 310.094 166.336 311.618 167.264 313.575L167.369 313.214C167.612 312.342 168.525 311.826 169.397 312.068L172.446 312.914C173.318 313.156 173.834 314.07 173.592 314.942L173.59 314.934ZM164.918 321.985C165.786 318.873 164.25 316.343 161.39 315.549C158.531 314.754 155.91 316.119 155.042 319.231C154.174 322.343 155.702 324.874 158.57 325.667C161.429 326.461 164.05 325.097 164.918 321.985Z" fill="#FF6533"/>
<path d="M211.784 315.754L212.622 333.967C212.667 334.872 211.963 335.649 211.048 335.687L207.89 335.835C206.985 335.88 206.208 335.176 206.17 334.261L206.153 333.889C204.805 335.585 202.75 336.676 199.863 336.809C194.231 337.065 189.358 332.334 189.062 325.924C188.767 319.515 193.182 314.357 198.821 314.1C201.7 313.969 203.86 314.856 205.35 316.43L205.333 316.057C205.288 315.152 205.992 314.375 206.907 314.336L210.065 314.188C210.97 314.143 211.747 314.847 211.786 315.762L211.784 315.754ZM205.75 325.151C205.599 321.925 203.362 320.002 200.39 320.141C197.427 320.279 195.362 322.396 195.513 325.622C195.665 328.847 197.902 330.771 200.873 330.632C203.845 330.492 205.901 328.376 205.75 325.151Z" fill="#FF6533"/>
<path d="M217.804 323.922C216.22 317.705 219.706 311.709 226.054 310.093C229.415 309.233 232.845 309.924 235.401 311.773C236.227 312.366 236.291 313.566 235.575 314.277L233.257 316.552C232.706 317.087 231.874 317.162 231.22 316.76C230.2 316.126 228.905 315.952 227.549 316.292C224.84 316.982 223.335 319.458 224.071 322.33C224.809 325.209 227.309 326.658 230.019 325.969C231.397 325.616 232.48 324.812 233.064 323.75C233.423 323.095 234.226 322.813 234.944 323.007L238.018 323.856C238.997 324.122 239.512 325.215 239.081 326.13C237.734 329.005 235.077 331.247 231.676 332.122C225.336 333.737 219.398 330.147 217.814 323.929L217.804 323.922Z" fill="#FF6533"/>
<path d="M249.477 308.751C248.647 309.115 248.269 310.089 248.634 310.919L251.038 316.39C251.621 317.718 252.695 317.711 254.352 317.008C255.193 316.659 256.164 317.02 256.529 317.85L257.591 320.261C257.941 321.059 257.616 321.998 256.834 322.388C250.409 325.649 247.395 324.148 245.122 318.978L242.718 313.507C242.354 312.677 241.38 312.299 240.55 312.663L240.415 312.722C239.585 313.086 238.611 312.709 238.247 311.879L237.079 309.214C236.714 308.384 237.092 307.41 237.922 307.045L238.057 306.987C238.887 306.622 239.265 305.648 238.9 304.818L238.407 303.704C238.116 303.04 238.289 302.257 238.844 301.789L241.358 299.65C242.201 298.933 243.492 299.227 243.933 300.24L244.806 302.224C245.171 303.054 246.144 303.432 246.975 303.067L248.017 302.604C248.848 302.24 249.821 302.618 250.186 303.448L251.354 306.113C251.718 306.943 251.34 307.917 250.51 308.281L249.467 308.744L249.477 308.751Z" fill="#FF6533"/>
<path d="M251.632 297.08C247.151 295.214 248.793 288.939 253.616 289.496C253.772 289.51 253.934 289.558 254.081 289.616C258.602 291.466 256.954 297.802 252.097 297.2C251.94 297.178 251.779 297.139 251.64 297.079L251.632 297.08ZM254.42 299.126L257.152 297.527C257.939 297.068 258.943 297.329 259.41 298.115L268.641 313.845C269.1 314.632 268.839 315.636 268.053 316.103L265.322 317.702C264.534 318.161 263.531 317.899 263.063 317.114L253.832 301.384C253.373 300.597 253.634 299.593 254.42 299.126Z" fill="#FF6533"/>
<path d="M274.419 293.002C273.691 293.553 273.555 294.585 274.106 295.313L277.728 300.067C278.613 301.221 279.642 300.966 281.094 299.89C281.824 299.348 282.855 299.476 283.405 300.204L285 302.305C285.527 302.994 285.425 303.986 284.768 304.549C279.284 309.227 276.005 308.475 272.584 303.983L268.961 299.229C268.41 298.501 267.378 298.365 266.65 298.915L266.53 299.005C265.802 299.556 264.769 299.42 264.219 298.692L262.458 296.382C261.907 295.654 262.044 294.622 262.772 294.071L262.892 293.981C263.62 293.43 263.757 292.398 263.206 291.67L262.466 290.703C262.028 290.125 262.019 289.325 262.441 288.735L264.379 286.06C265.028 285.166 266.357 285.154 267.021 286.032L268.334 287.757C268.885 288.485 269.917 288.622 270.645 288.071L271.552 287.377C272.28 286.826 273.312 286.962 273.863 287.69L275.623 290C276.174 290.728 276.038 291.76 275.31 292.311L274.403 293.005L274.419 293.002Z" fill="#FF6533"/>
<path d="M291.145 270.006L304.545 282.373C305.213 282.994 305.256 284.028 304.636 284.704L302.49 287.032C301.869 287.7 300.835 287.743 300.159 287.124L299.882 286.867C300.268 288.803 299.564 291.082 297.64 293.174C294.694 296.366 289.899 296.991 285.629 293.046L277.124 285.202C276.456 284.58 276.413 283.547 277.033 282.87L279.179 280.542C279.8 279.874 280.834 279.831 281.51 280.451L289.318 287.653C291.279 289.465 293.333 289.074 294.739 287.555C296.343 285.812 296.441 283.676 294.195 281.609L286.766 274.756C286.098 274.134 286.056 273.1 286.675 272.424L288.822 270.096C289.443 269.428 290.477 269.385 291.153 270.004L291.145 270.006Z" fill="#FF6533"/>
<path d="M297.876 242.758L321.012 256.358C321.797 256.822 322.058 257.833 321.594 258.617L319.99 261.343C319.526 262.127 318.515 262.388 317.73 261.925L317.406 261.736C318.095 263.788 317.877 266.107 316.418 268.601C313.562 273.458 306.937 274.962 301.402 271.709C295.875 268.454 293.963 261.937 296.819 257.08C297.621 255.714 298.564 254.705 299.598 254.005C300.632 253.305 300.561 251.84 299.511 251.229L294.587 248.334C293.803 247.87 293.542 246.859 293.997 246.076L295.602 243.351C296.065 242.566 297.076 242.306 297.861 242.769L297.876 242.758ZM309.881 257.308C307.098 255.671 304.262 256.503 302.755 259.065C301.249 261.628 301.901 264.506 304.683 266.143C307.466 267.779 310.303 266.947 311.809 264.385C313.315 261.823 312.663 258.945 309.881 257.308Z" fill="#FF6533"/>
<path d="M224.971 113.294C222.683 112.634 220.381 112.088 218.065 111.656C204.09 107.351 189.05 106.382 174.643 109.132C143.874 115.011 119.795 138.552 110.721 168.224C109.736 171.443 108.933 174.723 108.306 178.038C103.081 196.338 104.923 215.802 113.621 232.824C132.38 269.573 175.632 288.052 215.482 279.623C234.605 275.58 251.701 265.46 264.286 250.492C276.499 235.966 284.13 217.323 285.35 198.36C287.794 160.177 261.677 123.905 224.97 113.285L224.971 113.294Z" fill="#FAB31B"/>
<path d="M257.753 184.273C259.348 183.983 258.897 181.504 257.302 181.794C255.707 182.084 256.158 184.563 257.753 184.273Z" fill="#FAB31B"/>
<path d="M129.632 217.164C128.517 214.976 127.554 212.735 126.731 210.46C95.4866 219.825 64.2508 229.188 33.0083 238.561C36.9305 253.361 47.9311 275.342 57.4666 291.383C59.9051 294.884 62.4788 298.283 65.1697 301.576C88.6254 278.593 111.438 256.3 140.772 232.87C136.399 228.262 132.618 223.016 129.634 217.172L129.632 217.164Z" fill="#FAB31B"/>
<path d="M32.8179 152.772C62.5356 163.971 93.0824 172.97 124.126 179.677C124.473 177.786 124.908 175.906 125.44 174.042C125.93 171.434 126.563 168.86 127.339 166.319C128.604 162.196 130.238 158.227 132.197 154.447C109.237 133.463 86.2769 112.479 63.3169 91.4955C62.4373 92.6203 61.5674 93.7519 60.7088 94.8986C60.7088 94.8986 60.7088 94.8985 60.702 94.9083C47.867 112.117 38.333 131.747 32.8081 152.765L32.8179 152.772Z" fill="#FAB31B"/>
<path d="M162.971 124.566C167.59 122.411 172.504 120.791 177.66 119.802C186.76 118.06 196.172 118.218 205.223 120.097C208.164 89.5255 211.096 58.9471 214.037 28.3754C211.118 28.0527 208.187 27.8006 205.235 27.6289C205.14 27.6207 205.046 27.6207 204.951 27.6124C204.003 27.563 203.054 27.5135 202.108 27.4723C202.014 27.4723 201.927 27.4625 201.833 27.4626C200.01 27.3929 198.177 27.3593 196.347 27.3423C196.21 27.3415 196.065 27.3423 195.928 27.3416C195.142 27.3394 194.35 27.347 193.557 27.3546C193.122 27.357 192.68 27.369 192.245 27.3713C191.522 27.3834 190.8 27.4038 190.069 27.4257C189.39 27.4468 188.704 27.4777 188.018 27.5086C187.103 27.547 186.199 27.6005 185.287 27.6555C184.57 27.7006 183.86 27.7443 183.144 27.7977C182.605 27.8361 182.059 27.8843 181.511 27.9241C180.686 27.9889 179.856 28.0716 179.026 28.1544C178.615 28.195 178.212 28.2341 177.801 28.2747C176.594 28.4003 175.383 28.544 174.174 28.7042C173.807 28.7538 173.44 28.8034 173.074 28.8531C172.124 28.9832 171.183 29.1118 170.228 29.2599C169.846 29.3208 169.471 29.3719 169.09 29.4328C167.821 29.6381 166.552 29.8434 165.279 30.0749C163.742 30.3546 162.217 30.6576 160.696 30.9771C160.22 31.0808 159.752 31.1831 159.285 31.2936C158.235 31.5274 157.184 31.7612 156.145 32.01C155.614 32.1408 155.083 32.2716 154.552 32.4024C153.572 32.6489 152.584 32.897 151.616 33.1586C151.086 33.2976 150.566 33.4435 150.046 33.5893C149.055 33.8636 148.066 34.1545 147.085 34.4439C146.6 34.592 146.113 34.7318 145.636 34.8783C144.586 35.206 143.537 35.542 142.498 35.8848C142.104 36.0163 141.699 36.1411 141.307 36.2808C140.083 36.6912 138.873 37.1249 137.664 37.5668C137.455 37.639 137.247 37.7111 137.039 37.7915C134.087 38.8836 131.174 40.0455 128.318 41.2908C139.874 69.0454 151.423 96.8099 162.979 124.565L162.971 124.566Z" fill="#FAB31B"/>
<path d="M257.459 156.374C284.441 139.87 312.436 125.034 341.251 111.988C337.306 105.09 332.9 98.5147 328.075 92.3146C328.073 92.3063 328.054 92.2928 328.052 92.2845C327.127 91.0953 326.187 89.9174 325.234 88.7589C325.158 88.6703 325.08 88.5734 325.005 88.4847C324.086 87.3797 323.161 86.2843 322.221 85.2003C322.145 85.1117 322.069 85.023 321.994 84.9344C317.949 80.3 313.647 75.9 309.136 71.7518C308.962 71.5955 308.789 71.4393 308.615 71.283C307.694 70.4431 306.756 69.6063 305.822 68.7859C305.568 68.5673 305.315 68.3487 305.062 68.1301C304.18 67.3684 303.284 66.6179 302.379 65.869C302.108 65.6451 301.837 65.4213 301.566 65.1974C300.623 64.4297 299.684 63.6785 298.73 62.9385C298.51 62.765 298.291 62.5915 298.063 62.4195C295.659 60.5602 293.207 58.7694 290.698 57.0401C272.771 82.253 254.852 107.464 236.926 132.685C245.52 138.857 252.578 147.05 257.46 156.382L257.459 156.374Z" fill="#FAB31B"/>
<path d="M264.727 181.356C264.95 184.227 264.982 187.124 264.796 190.044C264.431 195.686 263.351 201.295 261.621 206.707C295.071 226.875 319.299 239.953 350.734 258.993C358.929 236.371 365.001 205.17 362.65 179.958C330.009 180.424 297.368 180.89 264.728 181.365L264.727 181.356Z" fill="#FAB31B"/>
<path d="M172.668 178.008C175.515 184.696 182.424 189.253 189.628 189.667C196.833 190.081 203.754 185.842 207.165 179.39C209.07 175.782 209.892 171.713 209.307 167.653C209.075 166.048 206.595 166.499 206.828 168.104C207.716 174.346 204.653 180.692 199.595 184.336C194.538 187.98 187.317 187.945 181.878 184.708C178.796 182.878 176.348 180.216 174.934 176.904C174.296 175.415 172.027 176.502 172.666 178L172.668 178.008Z" fill="#342E2E"/>
<path d="M175.438 172.911C173.332 175.275 171.235 177.637 169.129 180.001C168.69 180.499 168.918 181.423 169.448 181.753C170.083 182.15 170.733 181.963 171.2 181.434C173.305 179.07 175.403 176.708 177.509 174.344C177.947 173.846 177.719 172.923 177.19 172.592C176.554 172.195 175.905 172.382 175.438 172.911Z" fill="#342E2E"/>
<path d="M205.316 167.961L212.774 170.753C213.388 170.983 214.188 170.641 214.387 169.999C214.586 169.357 214.293 168.633 213.633 168.386L206.175 165.593C205.561 165.364 204.761 165.706 204.562 166.348C204.363 166.99 204.657 167.714 205.316 167.961Z" fill="#342E2E"/>
<path d="M222.131 168.12C227.638 168.92 233.352 168.179 238.476 166.026C240.172 165.307 241.837 164.415 243.127 163.105C244.417 161.795 245.31 159.993 245.223 158.156C245.102 155.659 243.193 153.522 240.921 152.484C238.649 151.446 236.074 151.325 233.577 151.395C229.899 151.501 226.205 151.985 222.629 152.884C219.584 153.651 215.486 157.265 214.981 160.499C214.249 165.157 218.072 167.536 222.123 168.122L222.131 168.12Z" fill="#FFB9CD"/>
<path d="M164.044 173.592C164.277 176.47 161.686 178.743 159.165 180.14C154.292 182.829 148.684 184.148 143.13 183.937C141.289 183.862 139.417 183.614 137.748 182.842C136.079 182.07 134.609 180.698 134.043 178.948C133.277 176.569 134.311 173.896 136.071 172.124C137.832 170.353 140.2 169.333 142.562 168.519C145.423 167.537 148.588 166.492 151.622 166.461C154.179 166.439 157.664 166.633 159.889 168.073C161.67 169.226 163.879 171.419 164.054 173.599L164.044 173.592Z" fill="#FFB9CD"/>
<path d="M273.134 138.307C272.104 136.069 271.057 133.835 270.018 131.599C267.573 126.324 265.129 121.057 262.684 115.781C262.584 115.56 262.45 115.388 262.306 115.252C261.445 113.573 259.74 112.321 257.359 112.609C208.382 118.455 159.877 127.742 112.207 140.394C109.454 141.125 108.341 143.547 108.526 145.785C108.155 150.787 107.778 155.799 107.407 160.802C107.223 163.26 107.038 165.718 106.854 168.177C106.683 170.428 106.253 172.897 107.171 175.035C108.966 179.225 114.089 178.378 115.941 174.762C116.93 172.832 117.186 170.532 117.623 168.429C118.137 165.996 118.642 163.564 119.156 161.132C120.088 156.684 121.021 152.237 121.952 147.782C123.51 147.379 125.07 146.992 126.629 146.598C127.494 151.964 128.832 157.296 131.729 161.909C135.313 167.626 141.002 171.347 147.611 172.62C161.177 175.241 174.164 165.86 178.282 153.114C180.198 147.173 180.284 140.84 178.906 134.815C182.4 134.12 185.898 133.449 189.397 132.787C191.158 144.761 198.646 155.651 210.695 159.418C217.022 161.391 223.871 161.067 229.856 158.16C235.715 155.309 240.472 150.201 242.387 143.927C244.358 137.489 243.551 130.754 242.178 124.242C245.186 123.832 248.196 123.437 251.216 123.05L257.11 132.309C258.448 134.405 259.777 136.502 261.115 138.598C262.37 140.573 263.537 142.666 264.959 144.524C266.124 146.046 267.77 147.257 269.749 147.341C271.694 147.423 273.421 146.263 274.067 144.421C274.809 142.305 274.019 140.212 273.138 138.28L273.134 138.307Z" fill="#342E2E"/>
<path d="M211.922 134.255C214.858 135.565 217.795 136.875 220.73 138.177C221.333 138.443 222.147 138.038 222.343 137.422C222.559 136.734 222.237 136.092 221.588 135.809C218.652 134.499 215.715 133.189 212.781 131.888C212.177 131.622 211.363 132.026 211.168 132.642C210.951 133.33 211.273 133.972 211.922 134.255Z" fill="#FCF9CA"/>
<path d="M219.587 131.896C222.524 133.206 225.46 134.516 228.395 135.817C228.998 136.083 229.812 135.679 230.008 135.063C230.224 134.374 229.902 133.733 229.253 133.45C226.317 132.14 223.381 130.83 220.446 129.528C219.842 129.262 219.028 129.667 218.833 130.283C218.616 130.971 218.938 131.612 219.587 131.896Z" fill="#FCF9CA"/>
<path d="M154.205 145.235C157.142 146.545 160.078 147.854 163.013 149.156C163.616 149.422 164.431 149.018 164.626 148.402C164.842 147.713 164.521 147.072 163.871 146.789C160.935 145.479 157.999 144.169 155.064 142.867C154.46 142.601 153.646 143.006 153.451 143.622C153.235 144.31 153.556 144.951 154.205 145.235Z" fill="#FCF9CA"/>
<path d="M161.869 142.875C164.806 144.185 167.742 145.495 170.677 146.797C171.28 147.063 172.095 146.658 172.29 146.042C172.506 145.354 172.185 144.712 171.535 144.429C168.599 143.119 165.663 141.809 162.728 140.508C162.125 140.242 161.31 140.646 161.115 141.262C160.899 141.95 161.22 142.592 161.869 142.875Z" fill="#FCF9CA"/>
</svg>
