<svg width="174" height="38" viewBox="0 0 174 38" fill="none" xmlns="http://www.w3.org/2000/svg">
<g clip-path="url(#clip0_19_110)">
<path d="M83.3108 0.0692348H65.801V15.9718H83.3108V0.0692348Z" fill="#FAF53B"/>
<path d="M31.1737 0H27.9148V7.69329H31.1737V0Z" fill="#FAF53B"/>
<path d="M48.8115 9.2007L42.2345 13.1918L43.9251 15.9779L50.5022 11.9868L48.8115 9.2007Z" fill="#FAF53B"/>
<path d="M52.9069 28.0516H45.2152V31.3122H52.9069V28.0516Z" fill="#FAF53B"/>
<path d="M3.25898 29.3143C4.83324 30.943 6.66466 31.754 8.75324 31.754C11.2309 31.754 13.3442 30.8787 15.0932 29.1247C16.8405 27.3724 17.7125 25.2558 17.7125 22.7799C17.7125 20.3039 16.8389 18.1889 15.0932 16.435C13.3442 14.6827 11.2309 13.8057 8.75324 13.8057C6.66631 13.8057 4.83324 14.6184 3.25898 16.2454V0.398924H0V31.3304H3.25898V29.3143ZM3.25898 21.5205C3.45844 20.5231 3.96286 19.6198 4.7706 18.8121C5.87341 17.7109 7.20206 17.1587 8.75324 17.1587C10.3044 17.1587 11.6347 17.7092 12.7293 18.8121C13.8272 19.9149 14.3761 21.2369 14.3761 22.7799C14.3761 24.3228 13.8272 25.6548 12.7293 26.7477C11.6347 27.8389 10.3094 28.3862 8.75324 28.3862C7.19711 28.3862 5.87341 27.8406 4.7706 26.7477C3.96286 25.9399 3.45844 25.0415 3.25898 24.0558V21.5205Z" fill="black"/>
<path d="M30.1583 31.754C32.6343 31.754 34.7476 30.8787 36.5032 29.1247C36.8592 28.7687 37.4362 28.0384 38.2357 26.9356L34.9767 25.7718C34.558 26.2746 34.2794 26.601 34.141 26.7477C33.0398 27.8389 31.7111 28.3862 30.1583 28.3862C28.7209 28.3862 27.7285 28.1439 27.1829 27.6609L35.763 19.0808L37.3999 17.4274C36.907 16.8718 36.607 16.5405 36.5032 16.4366C36.2493 16.1844 35.9938 15.9471 35.7317 15.7278C34.136 14.447 32.2782 13.8074 30.1583 13.8074C27.6922 13.8074 25.5822 14.6844 23.8299 16.4366C22.076 18.1906 21.199 20.3039 21.199 22.7815C21.199 25.2591 22.076 27.3741 23.8299 29.1264C25.5822 30.8787 27.6922 31.7557 30.1583 31.7557M26.2004 18.8055C27.295 17.7076 28.617 17.1603 30.1583 17.1603C31.4391 17.1603 32.2617 17.3021 32.6293 17.5856L24.9789 25.2525C24.6954 24.875 24.5536 24.0508 24.5536 22.7799C24.5536 21.227 25.1025 19.9017 26.2004 18.8055Z" fill="black"/>
<path d="M68.5077 2.14957H66.6615V1.2726H71.3975V2.14957H69.5512V7.13282H68.5077V2.14957Z" fill="black"/>
<path d="M72.3569 1.2726H73.4053V3.62328H75.4098V1.2726H76.4582V7.13282H75.4098V4.53652H73.4053V7.13282H72.3569V1.2726Z" fill="black"/>
<path d="M78.0193 1.2726H81.7777V2.14957H79.0627V3.64801H81.3623V4.52498H79.0627V6.2575H81.8667V7.13282H78.0193V1.2726Z" fill="black"/>
<path d="M67.0027 9.0137H68.0973L69.6468 12.3056L70.1793 13.5585H70.2023C70.1595 12.9584 70.0622 12.2166 70.0622 11.5622V9.01535H71.0546V14.8756H69.96L68.4105 11.5803L67.878 10.3308H67.8533C67.8962 10.9539 67.9951 11.6611 67.9951 12.3106V14.8756H67.0011V9.01535L67.0027 9.0137Z" fill="black"/>
<path d="M72.6404 9.0137H76.3988V9.89067H73.6839V11.3891H75.9834V12.2661H73.6839V13.9986H76.4895V14.8739H72.6404V9.0137Z" fill="black"/>
<path d="M77.1588 9.00711H78.2715L78.5698 12.4046C78.6045 12.9007 78.6275 13.2667 78.644 13.8206H78.6753C78.7693 13.2667 78.855 12.8974 78.9622 12.4111L79.4435 10.5072H80.2265L80.6864 12.4111C80.7952 12.8908 80.876 13.2601 80.9733 13.8206H81.0095C81.031 13.2601 81.0425 12.8941 81.0771 12.4111L81.364 9.00711H82.414L81.6228 14.8739H80.4474L79.9892 12.7903C79.9084 12.426 79.8408 12.0584 79.8029 11.704H79.7765C79.7271 12.0584 79.6759 12.426 79.5968 12.7903L79.1451 14.8739H77.9945L77.1604 9.00711H77.1588Z" fill="black"/>
<path d="M88.4688 9.3335H90.9332C94.474 9.3335 95.745 7.24162 95.745 5.3047C95.745 3.09578 94.1608 1.25611 90.9332 1.25611H86.2401V14.8492H88.4704V9.3335H88.4688ZM88.4688 3.076H90.9332C92.6739 3.076 93.457 3.89692 93.457 5.30635C93.457 6.71577 92.6739 7.51526 90.9332 7.51526H88.4688V3.076Z" fill="black"/>
<path d="M102.51 15.0256C105.151 15.0256 106.852 13.5205 107.459 11.643H105.054C104.643 12.4837 103.88 13.1496 102.512 13.1496C100.868 13.1496 99.5974 12.0732 99.4408 10.2945H107.675C107.734 9.92364 107.754 9.57087 107.754 9.19997C107.754 6.03166 105.583 3.89857 102.512 3.89857C99.4408 3.89857 97.133 6.06958 97.133 9.45219C97.133 12.8348 99.421 15.0256 102.512 15.0256M102.411 5.7745C104.073 5.7745 105.383 6.83116 105.423 8.49279H99.4573C99.6914 6.79159 100.905 5.7745 102.411 5.7745Z" fill="black"/>
<path d="M114.712 3.89692C111.641 3.89692 109.216 6.06793 109.216 9.45054C109.216 12.8331 111.544 15.0239 114.615 15.0239C117.686 15.0239 120.208 12.8331 120.208 9.45054C120.208 6.06793 117.783 3.89692 114.712 3.89692ZM114.615 13.0887C112.933 13.0887 111.486 11.8952 111.486 9.45054C111.486 7.00589 112.991 5.8322 114.674 5.8322C116.357 5.8322 117.92 7.00589 117.92 9.45054C117.92 11.8952 116.276 13.0887 114.615 13.0887Z" fill="black"/>
<path d="M137.906 0.375846H135.675V14.8492H137.906V0.375846Z" fill="black"/>
<path d="M145.474 3.89692C142.286 3.89692 140.095 6.06793 140.095 9.45054C140.095 12.8331 142.383 15.0239 145.474 15.0239C148.114 15.0239 149.816 13.5189 150.422 11.6413H148.017C147.607 12.482 146.844 13.148 145.475 13.148C143.832 13.148 142.561 12.0716 142.404 10.2929H150.638C150.698 9.92034 150.717 9.56923 150.717 9.19833C150.717 6.03001 148.546 3.89692 145.475 3.89692M142.422 8.49279C142.656 6.7916 143.87 5.7745 145.376 5.7745C147.04 5.7745 148.349 6.82951 148.388 8.49279H142.422Z" fill="black"/>
<path d="M66.8923 32.087H74.4026V30.2671H69.1226V26.1015H73.8157V24.2832H69.1226V20.2924H74.4026V18.4741H66.8923V32.087Z" fill="black"/>
<path d="M83.6916 21.3095L81.5008 24.9674L79.1732 21.3095H76.6511L80.1309 26.7856L76.6511 32.087H78.977L81.1678 28.4291L83.4954 32.087H86.0192L82.5377 26.6306L86.0192 21.3095H83.6916Z" fill="black"/>
<path d="M94.0553 21.1331C92.2948 21.1331 90.9843 21.9936 90.3002 22.8936V21.3095H88.0715V37.2104H90.3002V30.5226C91.0041 31.3633 92.275 32.2617 94.0553 32.2617C96.8907 32.2617 99.121 29.9737 99.121 26.6488C99.121 23.3239 96.8907 21.1331 94.0553 21.1331ZM93.5674 30.3265C91.9041 30.3265 90.3018 29.0159 90.3018 26.6883C90.3018 24.3607 91.9058 23.07 93.5674 23.07C95.229 23.07 96.8527 24.3212 96.8527 26.6488C96.8527 28.9764 95.2488 30.3265 93.5674 30.3265Z" fill="black"/>
<path d="M106.356 21.1331C103.168 21.1331 100.977 23.3041 100.977 26.6867C100.977 30.0693 103.265 32.2601 106.356 32.2601C108.997 32.2601 110.698 30.755 111.305 28.8775H108.9C108.489 29.7182 107.726 30.3841 106.358 30.3841C104.714 30.3841 103.443 29.3077 103.287 27.529H111.521C111.58 27.1565 111.6 26.8054 111.6 26.4345C111.6 23.2662 109.429 21.1331 106.358 21.1331M103.305 25.7306C103.539 24.0294 104.752 23.0123 106.259 23.0123C107.922 23.0123 109.231 24.0673 109.27 25.7306H103.305Z" fill="black"/>
<path d="M116.408 22.8755V21.3111H114.178V32.0886H116.408V26.4163C116.408 24.1283 117.425 23.4442 119.069 23.4442H119.636V21.1364C118.111 21.1364 117.035 21.8023 116.41 22.8771" fill="black"/>
<path d="M132.268 21.1331C129.08 21.1331 126.889 23.3041 126.889 26.6867C126.889 30.0693 129.177 32.2601 132.268 32.2601C134.909 32.2601 136.61 30.755 137.217 28.8775H134.811C134.401 29.7182 133.638 30.3841 132.27 30.3841C130.626 30.3841 129.355 29.3077 129.199 27.529H137.433C137.492 27.1565 137.512 26.8054 137.512 26.4345C137.512 23.2662 135.341 21.1331 132.27 21.1331M129.217 25.7306C129.451 24.0294 130.664 23.0123 132.171 23.0123C133.834 23.0123 135.143 24.0673 135.182 25.7306H129.217Z" fill="black"/>
<path d="M145.136 21.1331C143.845 21.1331 142.652 21.6622 141.929 22.5408V21.3078H139.699V32.0853H141.929V26.0619C141.929 24.0871 143.004 23.0683 144.648 23.0683C146.291 23.0683 147.346 24.0871 147.346 26.0619V32.0853H149.555V25.7289C149.555 22.7172 147.658 21.1331 145.136 21.1331Z" fill="black"/>
<path d="M156.929 23.0123C158.259 23.0123 159.119 23.6766 159.49 24.7135H161.897C161.29 22.4452 159.57 21.1347 156.929 21.1347C153.838 21.1347 151.649 23.3255 151.649 26.6883C151.649 30.0512 153.84 32.2617 156.929 32.2617C159.57 32.2617 161.29 30.7963 161.897 28.683H159.49C159.08 29.7973 158.259 30.3841 156.929 30.3841C155.13 30.3841 153.937 29.0539 153.937 26.6867C153.937 24.3195 155.13 23.0106 156.929 23.0106" fill="black"/>
<path d="M174 26.4345C174 23.2662 171.829 21.1331 168.758 21.1331C165.687 21.1331 163.379 23.3041 163.379 26.6867C163.379 30.0693 165.667 32.2601 168.758 32.2601C171.399 32.2601 173.1 30.755 173.707 28.8775H171.301C170.891 29.7182 170.128 30.3841 168.76 30.3841C167.116 30.3841 165.845 29.3077 165.689 27.529H173.923C173.982 27.1565 174.002 26.8054 174.002 26.4345M165.708 25.7306C165.942 24.0294 167.156 23.0123 168.662 23.0123C170.326 23.0123 171.634 24.0673 171.674 25.7306H165.708Z" fill="black"/>
<path d="M122.417 22.3991V32.087H124.647V22.3991C124.316 22.5524 123.943 22.648 123.543 22.648C123.142 22.648 122.753 22.554 122.417 22.3991Z" fill="black"/>
<path d="M124.646 18.4956V13.2848C125.349 14.1255 126.62 15.0256 128.401 15.0256C131.236 15.0256 133.466 12.7375 133.466 9.41262C133.466 6.08771 131.236 3.89692 128.401 3.89692C126.64 3.89692 125.33 4.75741 124.646 5.65746V4.07331H122.417V18.4956C122.753 18.3423 123.131 18.2466 123.541 18.2466C123.952 18.2466 124.314 18.3423 124.646 18.4956ZM127.913 5.8322C129.594 5.8322 131.198 7.08337 131.198 9.41097C131.198 11.7386 129.594 13.087 127.913 13.087C126.231 13.087 124.647 11.7765 124.647 9.44889C124.647 7.12128 126.251 5.83055 127.913 5.83055" fill="black"/>
<path d="M123.534 19.0198C122.733 19.0198 122.107 19.6445 122.107 20.4473C122.107 21.2501 122.733 21.8749 123.534 21.8749C124.336 21.8749 124.942 21.2501 124.942 20.4473C124.942 19.6445 124.316 19.0198 123.534 19.0198Z" fill="black"/>
</g>
<defs>
<clipPath id="clip0_19_110">
<rect width="174" height="37.2104" fill="white"/>
</clipPath>
</defs>
</svg>
