<svg width="624" height="141" viewBox="0 0 624 141" fill="none" xmlns="http://www.w3.org/2000/svg">
<path d="M28.793 27.3516C31.2773 28.3594 33.2344 29.9531 34.6641 32.1328C36.0938 34.2891 36.8086 36.8789 36.8086 39.9023C36.8086 43.9805 35.4258 47.3555 32.6602 50.0273C29.8945 52.6758 26.4023 54 22.1836 54H4.46484V3.58594H20.8125C25.1719 3.58594 28.6875 4.81641 31.3594 7.27734C34.0312 9.71484 35.3672 12.9258 35.3672 16.9102C35.3672 21.4805 33.1758 24.8438 28.793 27V27.3516ZM19.9336 42.8555C21.082 42.8555 22.0078 42.4102 22.7109 41.5195C23.4141 40.6289 23.7656 39.4805 23.7656 38.0742C23.7656 36.6445 23.4141 35.4844 22.7109 34.5938C22.0078 33.7031 21.082 33.2578 19.9336 33.2578H17.3672V42.8555H19.9336ZM17.3672 14.8359V24.3984H19.3008C20.3086 24.3984 21.1172 23.9414 21.7266 23.0273C22.3594 22.1133 22.6758 20.9648 22.6758 19.582C22.6758 18.1992 22.3594 17.0625 21.7266 16.1719C21.1172 15.2813 20.3086 14.8359 19.3008 14.8359H17.3672ZM56.9531 34.9102V42.2578H73.5117V54H44.0508V3.58594H73.0547V15.3281H56.9531V24.3281H71.4727V34.9102H56.9531ZM99.4922 23.6953V3.58594H112.359V54H104.027L93.7266 33.9961H93.5859V54H80.6133V3.58594H88.9805L99.2461 23.6953H99.4922ZM134.227 34.9102V42.2578H150.785V54H121.324V3.58594H150.328V15.3281H134.227V24.3281H148.746V34.9102H134.227ZM157.887 54V3.58594H185.836V15.3281H170.789V26.8594H183.727V37.4414H170.789V54H157.887ZM191.355 54V3.58594H204.258V54H191.355ZM232.875 43.3477C234.984 43.3477 237.387 42.3164 240.082 40.2539L242.543 52.0664C239.613 54.082 235.676 55.0898 230.73 55.0898C224.73 55.0898 219.996 53.0039 216.527 48.832C213.082 44.6367 211.359 37.957 211.359 28.793C211.359 19.6289 213.082 12.9727 216.527 8.82422C219.996 4.67578 224.73 2.60156 230.73 2.60156C236.098 2.60156 239.789 3.24609 241.805 4.53516L238.711 15.9961C237.234 14.8945 235.289 14.3438 232.875 14.3438C230.18 14.3438 228.07 15.3984 226.547 17.5078C225.047 19.6172 224.297 23.3789 224.297 28.793C224.297 34.2539 225.047 38.0508 226.547 40.1836C228.07 42.293 230.18 43.3477 232.875 43.3477ZM247.746 54V3.58594H260.648V54H247.746ZM272.672 8.78906C275.953 4.61719 280.453 2.53125 286.172 2.53125C291.891 2.53125 296.391 4.61719 299.672 8.78906C302.953 12.9609 304.594 19.6289 304.594 28.793C304.594 38.0039 302.953 44.6953 299.672 48.8672C296.391 53.0156 291.891 55.0898 286.172 55.0898C280.453 55.0898 275.953 53.0156 272.672 48.8672C269.391 44.6953 267.75 38.0039 267.75 28.793C267.75 19.6289 269.391 12.9609 272.672 8.78906ZM282.094 40.2188C283.031 42.3047 284.391 43.3477 286.172 43.3477C287.953 43.3477 289.312 42.3047 290.25 40.2188C291.188 38.1328 291.656 34.3242 291.656 28.793C291.656 23.332 291.188 19.5469 290.25 17.4375C289.312 15.3281 287.953 14.2734 286.172 14.2734C284.391 14.2734 283.031 15.3281 282.094 17.4375C281.156 19.5469 280.688 23.332 280.688 28.793C280.688 34.3242 281.156 38.1328 282.094 40.2188ZM329.941 24.2578C334.301 26.9062 337.254 29.4258 338.801 31.8164C340.348 34.1836 341.121 36.9727 341.121 40.1836C341.121 44.707 339.609 48.3281 336.586 51.0469C333.562 53.7422 329.426 55.0898 324.176 55.0898C318.035 55.0898 312.996 53.6484 309.059 50.7656L311.59 39.7266C315.48 42.5156 319.172 43.9102 322.664 43.9102C326.367 43.9102 328.219 42.668 328.219 40.1836C328.219 39.1758 327.773 38.168 326.883 37.1602C325.992 36.1523 324.234 34.875 321.609 33.3281C317.484 30.9844 314.52 28.5234 312.715 25.9453C310.91 23.3438 310.008 20.3086 310.008 16.8398C310.008 12.5273 311.531 9.07031 314.578 6.46875C317.625 3.84375 321.668 2.53125 326.707 2.53125C331.746 2.53125 336.094 3.44531 339.75 5.27344L338.309 16.4883C337.254 15.8086 335.766 15.1523 333.844 14.5195C331.922 13.8633 330.164 13.5352 328.57 13.5352C324.914 13.5352 323.098 14.7539 323.121 17.1914C323.121 18.3398 323.684 19.4648 324.809 20.5664C325.934 21.6445 327.645 22.875 329.941 24.2578Z" fill="black"/>
<mask id="path-2-outside-1_13_959" maskUnits="userSpaceOnUse" x="1" y="66" width="552" height="56" fill="black">
<rect fill="white" x="1" y="66" width="552" height="56"/>
<path d="M24.1875 108.348C26.2969 108.348 28.6992 107.316 31.3945 105.254L33.8555 117.066C30.9258 119.082 26.9883 120.09 22.043 120.09C16.043 120.09 11.3086 118.004 7.83984 113.832C4.39453 109.637 2.67188 102.957 2.67188 93.793C2.67188 84.6289 4.39453 77.9727 7.83984 73.8242C11.3086 69.6758 16.043 67.6016 22.043 67.6016C27.4102 67.6016 31.1016 68.2461 33.1172 69.5352L30.0234 80.9961C28.5469 79.8945 26.6016 79.3438 24.1875 79.3438C21.4922 79.3438 19.3828 80.3984 17.8594 82.5078C16.3594 84.6172 15.6094 88.3789 15.6094 93.793C15.6094 99.2539 16.3594 103.051 17.8594 105.184C19.3828 107.293 21.4922 108.348 24.1875 108.348ZM40.0078 73.7891C43.2891 69.6172 47.7891 67.5312 53.5078 67.5312C59.2266 67.5312 63.7266 69.6172 67.0078 73.7891C70.2891 77.9609 71.9297 84.6289 71.9297 93.793C71.9297 103.004 70.2891 109.695 67.0078 113.867C63.7266 118.016 59.2266 120.09 53.5078 120.09C47.7891 120.09 43.2891 118.016 40.0078 113.867C36.7266 109.695 35.0859 103.004 35.0859 93.793C35.0859 84.6289 36.7266 77.9609 40.0078 73.7891ZM49.4297 105.219C50.3672 107.305 51.7266 108.348 53.5078 108.348C55.2891 108.348 56.6484 107.305 57.5859 105.219C58.5234 103.133 58.9922 99.3242 58.9922 93.793C58.9922 88.332 58.5234 84.5469 57.5859 82.4375C56.6484 80.3281 55.2891 79.2734 53.5078 79.2734C51.7266 79.2734 50.3672 80.3281 49.4297 82.4375C48.4922 84.5469 48.0234 88.332 48.0234 93.793C48.0234 99.3242 48.4922 103.133 49.4297 105.219ZM97.9453 88.6953V68.5859H110.812V119H102.48L92.1797 98.9961H92.0391V119H79.0664V68.5859H87.4336L97.6992 88.6953H97.9453ZM138.41 119V68.5859H151.312V119H138.41ZM181.16 93.2305L188.93 68.5859H202.184V119H189.668V97.8359H189.352L182.602 119H179.508L172.793 97.8359H172.512V119H159.996V68.5859H173.25L181.02 93.2305H181.16ZM230.484 68.5859C234.609 68.5859 238.055 70.3555 240.82 73.8945C243.586 77.4102 244.969 81.7461 244.969 86.9023C244.969 92.1758 243.609 96.4531 240.891 99.7344C238.172 103.016 234.703 104.656 230.484 104.656H223.805V119H210.902V68.5859H230.484ZM226.652 93.1602C228.293 93.1602 229.582 92.5391 230.52 91.2969C231.457 90.0312 231.926 88.543 231.926 86.832C231.926 85.0508 231.457 83.5391 230.52 82.2969C229.582 81.0312 228.293 80.3984 226.652 80.3984H223.805V93.1602H226.652ZM252.176 68.5859H268.383L279.316 119H266.344L265.148 111.441H255.48L254.25 119H241.312L252.176 68.5859ZM257.203 101.141H263.391L260.438 83.8789H260.086L257.203 101.141ZM301.219 108.348C303.328 108.348 305.73 107.316 308.426 105.254L310.887 117.066C307.957 119.082 304.02 120.09 299.074 120.09C293.074 120.09 288.34 118.004 284.871 113.832C281.426 109.637 279.703 102.957 279.703 93.793C279.703 84.6289 281.426 77.9727 284.871 73.8242C288.34 69.6758 293.074 67.6016 299.074 67.6016C304.441 67.6016 308.133 68.2461 310.148 69.5352L307.055 80.9961C305.578 79.8945 303.633 79.3438 301.219 79.3438C298.523 79.3438 296.414 80.3984 294.891 82.5078C293.391 84.6172 292.641 88.3789 292.641 93.793C292.641 99.2539 293.391 103.051 294.891 105.184C296.414 107.293 298.523 108.348 301.219 108.348ZM313.699 80.3281V68.5859H345.023V80.3281H335.777V119H322.91V80.3281H313.699ZM351.492 73.7891C354.773 69.6172 359.273 67.5312 364.992 67.5312C370.711 67.5312 375.211 69.6172 378.492 73.7891C381.773 77.9609 383.414 84.6289 383.414 93.793C383.414 103.004 381.773 109.695 378.492 113.867C375.211 118.016 370.711 120.09 364.992 120.09C359.273 120.09 354.773 118.016 351.492 113.867C348.211 109.695 346.57 103.004 346.57 93.793C346.57 84.6289 348.211 77.9609 351.492 73.7891ZM360.914 105.219C361.852 107.305 363.211 108.348 364.992 108.348C366.773 108.348 368.133 107.305 369.07 105.219C370.008 103.133 370.477 99.3242 370.477 93.793C370.477 88.332 370.008 84.5469 369.07 82.4375C368.133 80.3281 366.773 79.2734 364.992 79.2734C363.211 79.2734 361.852 80.3281 360.914 82.4375C359.977 84.5469 359.508 88.332 359.508 93.793C359.508 99.3242 359.977 103.133 360.914 105.219ZM435.305 97.0273C437.742 97.8008 439.312 100.109 440.016 103.953L442.723 119H429.188L426.832 105.043C426.363 102.699 424.992 101.516 422.719 101.492H422.086V119H409.184V68.5859H426.832C431.191 68.5859 434.742 69.9805 437.484 72.7695C440.227 75.5586 441.598 79.332 441.598 84.0898C441.598 89.7617 439.5 93.957 435.305 96.6758V97.0273ZM423.949 91.3672C425.379 91.3672 426.551 90.8516 427.465 89.8203C428.379 88.7891 428.836 87.4766 428.836 85.8828C428.836 84.2422 428.379 82.9062 427.465 81.875C426.551 80.8438 425.379 80.3281 423.949 80.3281H422.086V91.3672H423.949ZM462.234 99.9102V107.258H478.793V119H449.332V68.5859H478.336V80.3281H462.234V89.3281H476.754V99.9102H462.234ZM491.871 68.5859H508.078L519.012 119H506.039L504.844 111.441H495.176L493.945 119H481.008L491.871 68.5859ZM496.898 101.141H503.086L500.133 83.8789H499.781L496.898 101.141ZM535.922 68.5859V107.258H550.582V119H523.02V68.5859H535.922Z"/>
</mask>
<path d="M31.3945 105.254L32.863 104.948L32.3767 102.614L30.483 104.063L31.3945 105.254ZM33.8555 117.066L34.7057 118.302L35.5274 117.737L35.3239 116.76L33.8555 117.066ZM7.83984 113.832L6.68062 114.784L6.68645 114.791L7.83984 113.832ZM7.83984 73.8242L6.68911 72.862L6.68591 72.8659L7.83984 73.8242ZM33.1172 69.5352L34.5654 69.9261L34.852 68.8641L33.9254 68.2715L33.1172 69.5352ZM30.0234 80.9961L29.1265 82.1984L30.8962 83.5186L31.4716 81.387L30.0234 80.9961ZM17.8594 82.5078L16.6433 81.6296L16.6369 81.6385L17.8594 82.5078ZM17.8594 105.184L16.6324 106.046L16.6378 106.054L16.6434 106.062L17.8594 105.184ZM24.1875 109.848C26.7734 109.848 29.4967 108.595 32.3061 106.445L30.483 104.063C27.9018 106.038 25.8203 106.848 24.1875 106.848V109.848ZM29.9261 105.56L32.387 117.372L35.3239 116.76L32.863 104.948L29.9261 105.56ZM33.0053 115.831C30.4061 117.619 26.7996 118.59 22.043 118.59V121.59C27.177 121.59 31.4455 120.545 34.7057 118.302L33.0053 115.831ZM22.043 118.59C16.4353 118.59 12.1445 116.663 8.99324 112.873L6.68645 114.791C10.4726 119.345 15.6506 121.59 22.043 121.59V118.59ZM8.99905 112.88C5.8814 109.084 4.17188 102.828 4.17188 93.793H1.17188C1.17188 103.086 2.90766 110.19 6.68064 114.784L8.99905 112.88ZM4.17188 93.793C4.17188 84.7553 5.8823 78.529 8.99378 74.7826L6.68591 72.8659C2.90676 77.4163 1.17188 84.5025 1.17188 93.793H4.17188ZM8.99058 74.7864C12.1409 71.0188 16.4323 69.1016 22.043 69.1016V66.1016C15.6536 66.1016 10.4763 68.3327 6.68911 72.862L8.99058 74.7864ZM22.043 69.1016C24.6737 69.1016 26.8461 69.2601 28.5789 69.5626C30.3276 69.8679 31.5363 70.3046 32.309 70.7988L33.9254 68.2715C32.6825 67.4766 31.0377 66.9465 29.0949 66.6073C27.1363 66.2653 24.7794 66.1016 22.043 66.1016V69.1016ZM31.669 69.1442L28.5753 80.6052L31.4716 81.387L34.5654 69.9261L31.669 69.1442ZM30.9204 79.7938C29.1145 78.4466 26.8246 77.8438 24.1875 77.8438V80.8438C26.3785 80.8438 27.9792 81.3425 29.1265 82.1984L30.9204 79.7938ZM24.1875 77.8438C21.0309 77.8438 18.4605 79.1135 16.6434 81.6296L19.0754 83.386C20.3051 81.6834 21.9534 80.8438 24.1875 80.8438V77.8438ZM16.6369 81.6385C14.8441 84.1598 14.1094 88.344 14.1094 93.793H17.1094C17.1094 88.4138 17.8747 85.0746 19.0818 83.3771L16.6369 81.6385ZM14.1094 93.793C14.1094 99.2884 14.8442 103.504 16.6324 106.046L19.0863 104.321C17.8746 102.598 17.1094 99.2194 17.1094 93.793H14.1094ZM16.6434 106.062C18.4605 108.578 21.0309 109.848 24.1875 109.848V106.848C21.9534 106.848 20.3051 106.008 19.0754 104.305L16.6434 106.062ZM67.0078 113.867L68.1843 114.798L68.1868 114.795L67.0078 113.867ZM40.0078 113.867L38.8288 114.795L38.8313 114.798L40.0078 113.867ZM41.1868 74.7164C44.1593 70.9371 48.2081 69.0312 53.5078 69.0312V66.0312C47.37 66.0312 42.4189 68.2972 38.8288 72.8617L41.1868 74.7164ZM53.5078 69.0312C58.8075 69.0312 62.8564 70.9371 65.8288 74.7164L68.1868 72.8617C64.5968 68.2972 59.6456 66.0312 53.5078 66.0312V69.0312ZM65.8288 74.7164C68.7979 78.4914 70.4297 84.745 70.4297 93.793H73.4297C73.4297 84.5128 71.7802 77.4305 68.1868 72.8617L65.8288 74.7164ZM70.4297 93.793C70.4297 102.89 68.7971 109.166 65.8288 112.94L68.1868 114.795C71.781 110.225 73.4297 103.118 73.4297 93.793H70.4297ZM65.8313 112.937C62.8601 116.693 58.8107 118.59 53.5078 118.59V121.59C59.6424 121.59 64.593 119.338 68.1843 114.798L65.8313 112.937ZM53.5078 118.59C48.2049 118.59 44.1555 116.693 41.1843 112.937L38.8313 114.798C42.4226 119.338 47.3732 121.59 53.5078 121.59V118.59ZM41.1868 112.94C38.2185 109.166 36.5859 102.89 36.5859 93.793H33.5859C33.5859 103.118 35.2346 110.225 38.8288 114.795L41.1868 112.94ZM36.5859 93.793C36.5859 84.745 38.2177 78.4914 41.1868 74.7164L38.8288 72.8617C35.2354 77.4305 33.5859 84.5128 33.5859 93.793H36.5859ZM48.0615 105.834C48.5993 107.03 49.3077 108.041 50.2393 108.756C51.1918 109.486 52.3011 109.848 53.5078 109.848V106.848C52.9333 106.848 52.4722 106.687 52.0654 106.375C51.6376 106.047 51.1976 105.493 50.7979 104.604L48.0615 105.834ZM53.5078 109.848C54.7146 109.848 55.8238 109.486 56.7764 108.756C57.7079 108.041 58.4163 107.03 58.9541 105.834L56.2178 104.604C55.818 105.493 55.3781 106.047 54.9502 106.375C54.5434 106.687 54.0823 106.848 53.5078 106.848V109.848ZM58.9541 105.834C60.0374 103.423 60.4922 99.3174 60.4922 93.793H57.4922C57.4922 99.331 57.0095 102.842 56.2178 104.604L58.9541 105.834ZM60.4922 93.793C60.4922 88.3331 60.0362 84.2573 58.9567 81.8283L56.2152 83.0467C57.0107 84.8365 57.4922 88.331 57.4922 93.793H60.4922ZM58.9567 81.8283C58.4203 80.6215 57.7135 79.6014 56.7828 78.8793C55.8302 78.1403 54.7187 77.7734 53.5078 77.7734V80.7734C54.0781 80.7734 54.537 80.934 54.9438 81.2496C55.3725 81.5822 55.8141 82.1442 56.2152 83.0467L58.9567 81.8283ZM53.5078 77.7734C52.2969 77.7734 51.1854 78.1403 50.2328 78.8793C49.3021 79.6014 48.5953 80.6215 48.059 81.8283L50.8004 83.0467C51.2015 82.1442 51.6432 81.5822 52.0718 81.2496C52.4786 80.934 52.9375 80.7734 53.5078 80.7734V77.7734ZM48.059 81.8283C46.9794 84.2573 46.5234 88.3331 46.5234 93.793H49.5234C49.5234 88.331 50.005 84.8365 50.8004 83.0467L48.059 81.8283ZM46.5234 93.793C46.5234 99.3174 46.9782 103.423 48.0615 105.834L50.7979 104.604C50.0062 102.842 49.5234 99.331 49.5234 93.793H46.5234ZM97.9453 88.6953V90.1953H99.4453V88.6953H97.9453ZM97.9453 68.5859V67.0859H96.4453V68.5859H97.9453ZM110.812 68.5859H112.312V67.0859H110.812V68.5859ZM110.812 119V120.5H112.312V119H110.812ZM102.48 119L101.147 119.687L101.566 120.5H102.48V119ZM92.1797 98.9961L93.5133 98.3094L93.0945 97.4961H92.1797V98.9961ZM92.0391 98.9961V97.4961H90.5391V98.9961H92.0391ZM92.0391 119V120.5H93.5391V119H92.0391ZM79.0664 119H77.5664V120.5H79.0664V119ZM79.0664 68.5859V67.0859H77.5664V68.5859H79.0664ZM87.4336 68.5859L88.7696 67.9039L88.352 67.0859H87.4336V68.5859ZM97.6992 88.6953L96.3632 89.3773L96.7808 90.1953H97.6992V88.6953ZM99.4453 88.6953V68.5859H96.4453V88.6953H99.4453ZM97.9453 70.0859H110.812V67.0859H97.9453V70.0859ZM109.312 68.5859V119H112.312V68.5859H109.312ZM110.812 117.5H102.48V120.5H110.812V117.5ZM103.814 118.313L93.5133 98.3094L90.8461 99.6828L101.147 119.687L103.814 118.313ZM92.1797 97.4961H92.0391V100.496H92.1797V97.4961ZM90.5391 98.9961V119H93.5391V98.9961H90.5391ZM92.0391 117.5H79.0664V120.5H92.0391V117.5ZM80.5664 119V68.5859H77.5664V119H80.5664ZM79.0664 70.0859H87.4336V67.0859H79.0664V70.0859ZM86.0976 69.2679L96.3632 89.3773L99.0352 88.0133L88.7696 67.9039L86.0976 69.2679ZM97.6992 90.1953H97.9453V87.1953H97.6992V90.1953ZM138.41 119H136.91V120.5H138.41V119ZM138.41 68.5859V67.0859H136.91V68.5859H138.41ZM151.312 68.5859H152.812V67.0859H151.312V68.5859ZM151.312 119V120.5H152.812V119H151.312ZM139.91 119V68.5859H136.91V119H139.91ZM138.41 70.0859H151.312V67.0859H138.41V70.0859ZM149.812 68.5859V119H152.812V68.5859H149.812ZM151.312 117.5H138.41V120.5H151.312V117.5ZM181.16 93.2305V94.7305H182.26L182.591 93.6815L181.16 93.2305ZM188.93 68.5859V67.0859H187.83L187.499 68.1349L188.93 68.5859ZM202.184 68.5859H203.684V67.0859H202.184V68.5859ZM202.184 119V120.5H203.684V119H202.184ZM189.668 119H188.168V120.5H189.668V119ZM189.668 97.8359H191.168V96.3359H189.668V97.8359ZM189.352 97.8359V96.3359H188.256L187.922 97.3802L189.352 97.8359ZM182.602 119V120.5H183.698L184.031 119.456L182.602 119ZM179.508 119L178.078 119.454L178.41 120.5H179.508V119ZM172.793 97.8359L174.223 97.3823L173.891 96.3359H172.793V97.8359ZM172.512 97.8359V96.3359H171.012V97.8359H172.512ZM172.512 119V120.5H174.012V119H172.512ZM159.996 119H158.496V120.5H159.996V119ZM159.996 68.5859V67.0859H158.496V68.5859H159.996ZM173.25 68.5859L174.681 68.1349L174.35 67.0859H173.25V68.5859ZM181.02 93.2305L179.589 93.6815L179.92 94.7305H181.02V93.2305ZM182.591 93.6815L190.36 69.037L187.499 68.1349L179.73 92.7795L182.591 93.6815ZM188.93 70.0859H202.184V67.0859H188.93V70.0859ZM200.684 68.5859V119H203.684V68.5859H200.684ZM202.184 117.5H189.668V120.5H202.184V117.5ZM191.168 119V97.8359H188.168V119H191.168ZM189.668 96.3359H189.352V99.3359H189.668V96.3359ZM187.922 97.3802L181.172 118.544L184.031 119.456L190.781 98.2917L187.922 97.3802ZM182.602 117.5H179.508V120.5H182.602V117.5ZM180.938 118.546L174.223 97.3823L171.363 98.2896L178.078 119.454L180.938 118.546ZM172.793 96.3359H172.512V99.3359H172.793V96.3359ZM171.012 97.8359V119H174.012V97.8359H171.012ZM172.512 117.5H159.996V120.5H172.512V117.5ZM161.496 119V68.5859H158.496V119H161.496ZM159.996 70.0859H173.25V67.0859H159.996V70.0859ZM171.819 69.037L179.589 93.6815L182.45 92.7795L174.681 68.1349L171.819 69.037ZM181.02 94.7305H181.16V91.7305H181.02V94.7305ZM240.82 73.8945L239.638 74.8182L239.641 74.822L240.82 73.8945ZM223.805 104.656V103.156H222.305V104.656H223.805ZM223.805 119V120.5H225.305V119H223.805ZM210.902 119H209.402V120.5H210.902V119ZM210.902 68.5859V67.0859H209.402V68.5859H210.902ZM230.52 91.2969L231.717 92.2005L231.725 92.1897L230.52 91.2969ZM230.52 82.2969L229.314 83.1898L229.322 83.2005L230.52 82.2969ZM223.805 80.3984V78.8984H222.305V80.3984H223.805ZM223.805 93.1602H222.305V94.6602H223.805V93.1602ZM230.484 70.0859C234.103 70.0859 237.128 71.6057 239.638 74.8181L242.002 72.9709C238.981 69.1052 235.116 67.0859 230.484 67.0859V70.0859ZM239.641 74.822C242.168 78.0338 243.469 82.0287 243.469 86.9023H246.469C246.469 81.4635 245.004 76.7865 241.999 72.9671L239.641 74.822ZM243.469 86.9023C243.469 91.9119 242.182 95.8245 239.736 98.7773L242.046 100.691C245.036 97.0818 246.469 92.4396 246.469 86.9023H243.469ZM239.736 98.7773C237.298 101.719 234.251 103.156 230.484 103.156V106.156C235.155 106.156 239.045 104.313 242.046 100.691L239.736 98.7773ZM230.484 103.156H223.805V106.156H230.484V103.156ZM222.305 104.656V119H225.305V104.656H222.305ZM223.805 117.5H210.902V120.5H223.805V117.5ZM212.402 119V68.5859H209.402V119H212.402ZM210.902 70.0859H230.484V67.0859H210.902V70.0859ZM226.652 94.6602C228.734 94.6602 230.478 93.8414 231.717 92.2005L229.322 90.3933C228.686 91.2367 227.852 91.6602 226.652 91.6602V94.6602ZM231.725 92.1897C232.87 90.6431 233.426 88.8351 233.426 86.832H230.426C230.426 88.2508 230.044 89.4194 229.314 90.404L231.725 92.1897ZM233.426 86.832C233.426 84.7739 232.878 82.9325 231.717 81.3933L229.322 83.2005C230.036 84.1457 230.426 85.3277 230.426 86.832H233.426ZM231.725 81.404C230.491 79.7382 228.745 78.8984 226.652 78.8984V81.8984C227.841 81.8984 228.673 82.3243 229.314 83.1897L231.725 81.404ZM226.652 78.8984H223.805V81.8984H226.652V78.8984ZM222.305 80.3984V93.1602H225.305V80.3984H222.305ZM223.805 94.6602H226.652V91.6602H223.805V94.6602ZM252.176 68.5859V67.0859H250.965L250.709 68.27L252.176 68.5859ZM268.383 68.5859L269.849 68.268L269.592 67.0859H268.383V68.5859ZM279.316 119V120.5H281.177L280.782 118.682L279.316 119ZM266.344 119L264.862 119.234L265.062 120.5H266.344V119ZM265.148 111.441L266.63 111.207L266.43 109.941H265.148V111.441ZM255.48 111.441V109.941H254.205L254 111.2L255.48 111.441ZM254.25 119V120.5H255.526L255.731 119.241L254.25 119ZM241.312 119L239.846 118.684L239.455 120.5H241.312V119ZM257.203 101.141L255.724 100.894L255.432 102.641H257.203V101.141ZM263.391 101.141V102.641H265.169L264.869 100.888L263.391 101.141ZM260.438 83.8789L261.916 83.626L261.703 82.3789H260.438V83.8789ZM260.086 83.8789V82.3789H258.816L258.606 83.6318L260.086 83.8789ZM252.176 70.0859H268.383V67.0859H252.176V70.0859ZM266.917 68.9039L277.85 119.318L280.782 118.682L269.849 68.268L266.917 68.9039ZM279.316 117.5H266.344V120.5H279.316V117.5ZM267.825 118.766L266.63 111.207L263.667 111.676L264.862 119.234L267.825 118.766ZM265.148 109.941H255.48V112.941H265.148V109.941ZM254 111.2L252.769 118.759L255.731 119.241L256.961 111.682L254 111.2ZM254.25 117.5H241.312V120.5H254.25V117.5ZM242.779 119.316L253.642 68.9019L250.709 68.27L239.846 118.684L242.779 119.316ZM257.203 102.641H263.391V99.6406H257.203V102.641ZM264.869 100.888L261.916 83.626L258.959 84.1319L261.912 101.394L264.869 100.888ZM260.438 82.3789H260.086V85.3789H260.438V82.3789ZM258.606 83.6318L255.724 100.894L258.683 101.388L261.565 84.126L258.606 83.6318ZM308.426 105.254L309.894 104.948L309.408 102.614L307.514 104.063L308.426 105.254ZM310.887 117.066L311.737 118.302L312.559 117.737L312.355 116.76L310.887 117.066ZM284.871 113.832L283.712 114.784L283.718 114.791L284.871 113.832ZM284.871 73.8242L283.72 72.862L283.717 72.8659L284.871 73.8242ZM310.148 69.5352L311.597 69.9261L311.883 68.8641L310.957 68.2715L310.148 69.5352ZM307.055 80.9961L306.158 82.1984L307.927 83.5186L308.503 81.387L307.055 80.9961ZM294.891 82.5078L293.675 81.6296L293.668 81.6385L294.891 82.5078ZM294.891 105.184L293.664 106.046L293.669 106.054L293.675 106.062L294.891 105.184ZM301.219 109.848C303.805 109.848 306.528 108.595 309.337 106.445L307.514 104.063C304.933 106.038 302.852 106.848 301.219 106.848V109.848ZM306.957 105.56L309.418 117.372L312.355 116.76L309.894 104.948L306.957 105.56ZM310.037 115.831C307.437 117.619 303.831 118.59 299.074 118.59V121.59C304.208 121.59 308.477 120.545 311.737 118.302L310.037 115.831ZM299.074 118.59C293.467 118.59 289.176 116.663 286.024 112.873L283.718 114.791C287.504 119.345 292.682 121.59 299.074 121.59V118.59ZM286.03 112.88C282.913 109.084 281.203 102.828 281.203 93.793H278.203C278.203 103.086 279.939 110.19 283.712 114.784L286.03 112.88ZM281.203 93.793C281.203 84.7553 282.914 78.529 286.025 74.7826L283.717 72.8659C279.938 77.4163 278.203 84.5025 278.203 93.793H281.203ZM286.022 74.7864C289.172 71.0188 293.464 69.1016 299.074 69.1016V66.1016C292.685 66.1016 287.508 68.3327 283.72 72.862L286.022 74.7864ZM299.074 69.1016C301.705 69.1016 303.877 69.2601 305.61 69.5626C307.359 69.8679 308.568 70.3046 309.34 70.7988L310.957 68.2715C309.714 67.4766 308.069 66.9465 306.126 66.6073C304.168 66.2653 301.811 66.1016 299.074 66.1016V69.1016ZM308.7 69.1442L305.607 80.6052L308.503 81.387L311.597 69.9261L308.7 69.1442ZM307.952 79.7938C306.146 78.4466 303.856 77.8438 301.219 77.8438V80.8438C303.41 80.8438 305.01 81.3425 306.158 82.1984L307.952 79.7938ZM301.219 77.8438C298.062 77.8438 295.492 79.1135 293.675 81.6296L296.107 83.386C297.336 81.6834 298.985 80.8438 301.219 80.8438V77.8438ZM293.668 81.6385C291.875 84.1598 291.141 88.344 291.141 93.793H294.141C294.141 88.4138 294.906 85.0746 296.113 83.3771L293.668 81.6385ZM291.141 93.793C291.141 99.2884 291.875 103.504 293.664 106.046L296.118 104.321C294.906 102.598 294.141 99.2194 294.141 93.793H291.141ZM293.675 106.062C295.492 108.578 298.062 109.848 301.219 109.848V106.848C298.985 106.848 297.336 106.008 296.107 104.305L293.675 106.062ZM313.699 80.3281H312.199V81.8281H313.699V80.3281ZM313.699 68.5859V67.0859H312.199V68.5859H313.699ZM345.023 68.5859H346.523V67.0859H345.023V68.5859ZM345.023 80.3281V81.8281H346.523V80.3281H345.023ZM335.777 80.3281V78.8281H334.277V80.3281H335.777ZM335.777 119V120.5H337.277V119H335.777ZM322.91 119H321.41V120.5H322.91V119ZM322.91 80.3281H324.41V78.8281H322.91V80.3281ZM315.199 80.3281V68.5859H312.199V80.3281H315.199ZM313.699 70.0859H345.023V67.0859H313.699V70.0859ZM343.523 68.5859V80.3281H346.523V68.5859H343.523ZM345.023 78.8281H335.777V81.8281H345.023V78.8281ZM334.277 80.3281V119H337.277V80.3281H334.277ZM335.777 117.5H322.91V120.5H335.777V117.5ZM324.41 119V80.3281H321.41V119H324.41ZM322.91 78.8281H313.699V81.8281H322.91V78.8281ZM378.492 113.867L379.669 114.798L379.671 114.795L378.492 113.867ZM351.492 113.867L350.313 114.795L350.316 114.798L351.492 113.867ZM352.671 74.7164C355.644 70.9371 359.692 69.0312 364.992 69.0312V66.0312C358.854 66.0312 353.903 68.2972 350.313 72.8617L352.671 74.7164ZM364.992 69.0312C370.292 69.0312 374.341 70.9371 377.313 74.7164L379.671 72.8617C376.081 68.2972 371.13 66.0312 364.992 66.0312V69.0312ZM377.313 74.7164C380.282 78.4914 381.914 84.745 381.914 93.793H384.914C384.914 84.5128 383.265 77.4305 379.671 72.8617L377.313 74.7164ZM381.914 93.793C381.914 102.89 380.282 109.166 377.313 112.94L379.671 114.795C383.265 110.225 384.914 103.118 384.914 93.793H381.914ZM377.316 112.937C374.344 116.693 370.295 118.59 364.992 118.59V121.59C371.127 121.59 376.077 119.338 379.669 114.798L377.316 112.937ZM364.992 118.59C359.689 118.59 355.64 116.693 352.669 112.937L350.316 114.798C353.907 119.338 358.858 121.59 364.992 121.59V118.59ZM352.671 112.94C349.703 109.166 348.07 102.89 348.07 93.793H345.07C345.07 103.118 346.719 110.225 350.313 114.795L352.671 112.94ZM348.07 93.793C348.07 84.745 349.702 78.4914 352.671 74.7164L350.313 72.8617C346.72 77.4305 345.07 84.5128 345.07 93.793H348.07ZM359.546 105.834C360.084 107.03 360.792 108.041 361.724 108.756C362.676 109.486 363.785 109.848 364.992 109.848V106.848C364.418 106.848 363.957 106.687 363.55 106.375C363.122 106.047 362.682 105.493 362.282 104.604L359.546 105.834ZM364.992 109.848C366.199 109.848 367.308 109.486 368.261 108.756C369.192 108.041 369.901 107.03 370.438 105.834L367.702 104.604C367.302 105.493 366.862 106.047 366.435 106.375C366.028 106.687 365.567 106.848 364.992 106.848V109.848ZM370.438 105.834C371.522 103.423 371.977 99.3174 371.977 93.793H368.977C368.977 99.331 368.494 102.842 367.702 104.604L370.438 105.834ZM371.977 93.793C371.977 88.3331 371.521 84.2573 370.441 81.8283L367.7 83.0467C368.495 84.8365 368.977 88.331 368.977 93.793H371.977ZM370.441 81.8283C369.905 80.6215 369.198 79.6014 368.267 78.8793C367.315 78.1403 366.203 77.7734 364.992 77.7734V80.7734C365.563 80.7734 366.021 80.934 366.428 81.2496C366.857 81.5822 367.298 82.1442 367.7 83.0467L370.441 81.8283ZM364.992 77.7734C363.781 77.7734 362.67 78.1403 361.717 78.8793C360.787 79.6014 360.08 80.6215 359.543 81.8283L362.285 83.0467C362.686 82.1442 363.128 81.5822 363.556 81.2496C363.963 80.934 364.422 80.7734 364.992 80.7734V77.7734ZM359.543 81.8283C358.464 84.2573 358.008 88.3331 358.008 93.793H361.008C361.008 88.331 361.489 84.8365 362.285 83.0467L359.543 81.8283ZM358.008 93.793C358.008 99.3174 358.463 103.423 359.546 105.834L362.282 104.604C361.491 102.842 361.008 99.331 361.008 93.793H358.008ZM435.305 97.0273H433.805V98.1251L434.851 98.4571L435.305 97.0273ZM440.016 103.953L441.492 103.688L441.491 103.683L440.016 103.953ZM442.723 119V120.5H444.517L444.199 118.734L442.723 119ZM429.188 119L427.708 119.25L427.919 120.5H429.188V119ZM426.832 105.043L428.311 104.793L428.307 104.771L428.303 104.749L426.832 105.043ZM422.719 101.492L422.734 99.9923L422.726 99.9922H422.719V101.492ZM422.086 101.492V99.9922H420.586V101.492H422.086ZM422.086 119V120.5H423.586V119H422.086ZM409.184 119H407.684V120.5H409.184V119ZM409.184 68.5859V67.0859H407.684V68.5859H409.184ZM435.305 96.6758L434.489 95.417L433.805 95.8604V96.6758H435.305ZM422.086 80.3281V78.8281H420.586V80.3281H422.086ZM422.086 91.3672H420.586V92.8672H422.086V91.3672ZM434.851 98.4571C436.511 98.9839 437.879 100.609 438.54 104.223L441.491 103.683C440.746 99.6094 438.973 96.6177 435.758 95.5976L434.851 98.4571ZM438.539 104.219L441.246 119.266L444.199 118.734L441.492 103.688L438.539 104.219ZM442.723 117.5H429.188V120.5H442.723V117.5ZM430.667 118.75L428.311 104.793L425.353 105.293L427.708 119.25L430.667 118.75ZM428.303 104.749C428.024 103.354 427.441 102.133 426.432 101.262C425.415 100.384 424.132 100.007 422.734 99.9923L422.703 102.992C423.579 103.001 424.118 103.227 424.472 103.533C424.835 103.846 425.171 104.388 425.361 105.337L428.303 104.749ZM422.719 99.9922H422.086V102.992H422.719V99.9922ZM420.586 101.492V119H423.586V101.492H420.586ZM422.086 117.5H409.184V120.5H422.086V117.5ZM410.684 119V68.5859H407.684V119H410.684ZM409.184 70.0859H426.832V67.0859H409.184V70.0859ZM426.832 70.0859C430.84 70.0859 433.988 71.3531 436.415 73.8212L438.554 71.7179C435.496 68.6079 431.543 67.0859 426.832 67.0859V70.0859ZM436.415 73.8212C438.824 76.2712 440.098 79.635 440.098 84.0898H443.098C443.098 79.0291 441.63 74.846 438.554 71.7179L436.415 73.8212ZM440.098 84.0898C440.098 89.3337 438.194 93.0158 434.489 95.417L436.12 97.9346C440.806 94.8983 443.098 90.1898 443.098 84.0898H440.098ZM433.805 96.6758V97.0273H436.805V96.6758H433.805ZM423.949 92.8672C425.79 92.8672 427.377 92.1812 428.587 90.8153L426.342 88.8254C425.725 89.522 424.968 89.8672 423.949 89.8672V92.8672ZM428.587 90.8153C429.782 89.4672 430.336 87.7822 430.336 85.8828H427.336C427.336 87.1709 426.976 88.1109 426.342 88.8254L428.587 90.8153ZM430.336 85.8828C430.336 83.9492 429.789 82.2362 428.587 80.88L426.342 82.87C426.968 83.5763 427.336 84.5352 427.336 85.8828H430.336ZM428.587 80.88C427.377 79.5141 425.79 78.8281 423.949 78.8281V81.8281C424.968 81.8281 425.725 82.1734 426.342 82.87L428.587 80.88ZM423.949 78.8281H422.086V81.8281H423.949V78.8281ZM420.586 80.3281V91.3672H423.586V80.3281H420.586ZM422.086 92.8672H423.949V89.8672H422.086V92.8672ZM462.234 99.9102V98.4102H460.734V99.9102H462.234ZM462.234 107.258H460.734V108.758H462.234V107.258ZM478.793 107.258H480.293V105.758H478.793V107.258ZM478.793 119V120.5H480.293V119H478.793ZM449.332 119H447.832V120.5H449.332V119ZM449.332 68.5859V67.0859H447.832V68.5859H449.332ZM478.336 68.5859H479.836V67.0859H478.336V68.5859ZM478.336 80.3281V81.8281H479.836V80.3281H478.336ZM462.234 80.3281V78.8281H460.734V80.3281H462.234ZM462.234 89.3281H460.734V90.8281H462.234V89.3281ZM476.754 89.3281H478.254V87.8281H476.754V89.3281ZM476.754 99.9102V101.41H478.254V99.9102H476.754ZM460.734 99.9102V107.258H463.734V99.9102H460.734ZM462.234 108.758H478.793V105.758H462.234V108.758ZM477.293 107.258V119H480.293V107.258H477.293ZM478.793 117.5H449.332V120.5H478.793V117.5ZM450.832 119V68.5859H447.832V119H450.832ZM449.332 70.0859H478.336V67.0859H449.332V70.0859ZM476.836 68.5859V80.3281H479.836V68.5859H476.836ZM478.336 78.8281H462.234V81.8281H478.336V78.8281ZM460.734 80.3281V89.3281H463.734V80.3281H460.734ZM462.234 90.8281H476.754V87.8281H462.234V90.8281ZM475.254 89.3281V99.9102H478.254V89.3281H475.254ZM476.754 98.4102H462.234V101.41H476.754V98.4102ZM491.871 68.5859V67.0859H490.66L490.405 68.27L491.871 68.5859ZM508.078 68.5859L509.544 68.268L509.288 67.0859H508.078V68.5859ZM519.012 119V120.5H520.872L520.478 118.682L519.012 119ZM506.039 119L504.557 119.234L504.758 120.5H506.039V119ZM504.844 111.441L506.325 111.207L506.125 109.941H504.844V111.441ZM495.176 111.441V109.941H493.9L493.695 111.2L495.176 111.441ZM493.945 119V120.5H495.221L495.426 119.241L493.945 119ZM481.008 119L479.541 118.684L479.15 120.5H481.008V119ZM496.898 101.141L495.419 100.894L495.127 102.641H496.898V101.141ZM503.086 101.141V102.641H504.864L504.564 100.888L503.086 101.141ZM500.133 83.8789L501.611 83.626L501.398 82.3789H500.133V83.8789ZM499.781 83.8789V82.3789H498.511L498.302 83.6318L499.781 83.8789ZM491.871 70.0859H508.078V67.0859H491.871V70.0859ZM506.612 68.9039L517.546 119.318L520.478 118.682L509.544 68.268L506.612 68.9039ZM519.012 117.5H506.039V120.5H519.012V117.5ZM507.521 118.766L506.325 111.207L503.362 111.676L504.557 119.234L507.521 118.766ZM504.844 109.941H495.176V112.941H504.844V109.941ZM493.695 111.2L492.465 118.759L495.426 119.241L496.656 111.682L493.695 111.2ZM493.945 117.5H481.008V120.5H493.945V117.5ZM482.474 119.316L493.337 68.9019L490.405 68.27L479.541 118.684L482.474 119.316ZM496.898 102.641H503.086V99.6406H496.898V102.641ZM504.564 100.888L501.611 83.626L498.654 84.1319L501.607 101.394L504.564 100.888ZM500.133 82.3789H499.781V85.3789H500.133V82.3789ZM498.302 83.6318L495.419 100.894L498.378 101.388L501.261 84.126L498.302 83.6318ZM535.922 68.5859H537.422V67.0859H535.922V68.5859ZM535.922 107.258H534.422V108.758H535.922V107.258ZM550.582 107.258H552.082V105.758H550.582V107.258ZM550.582 119V120.5H552.082V119H550.582ZM523.02 119H521.52V120.5H523.02V119ZM523.02 68.5859V67.0859H521.52V68.5859H523.02ZM534.422 68.5859V107.258H537.422V68.5859H534.422ZM535.922 108.758H550.582V105.758H535.922V108.758ZM549.082 107.258V119H552.082V107.258H549.082ZM550.582 117.5H523.02V120.5H550.582V117.5ZM524.52 119V68.5859H521.52V119H524.52ZM523.02 70.0859H535.922V67.0859H523.02V70.0859Z" fill="black" mask="url(#path-2-outside-1_13_959)"/>
</svg>
