<svg width="1736" height="942" viewBox="0 0 1736 942" fill="none" xmlns="http://www.w3.org/2000/svg">
<g clip-path="url(#clip0_16_516)">
<rect width="1736" height="942" fill="white"/>
<rect width="1736" height="942" fill="#FAFAF8"/>
<path d="M30 541.881L37.9229 520L38.6884 543.258L52.9906 524.899L46.5348 547.252L65.8 534.213L52.7609 553.478L75.1135 547.022L56.7543 561.312L80 562.09L58.1322 570L80 577.923L56.7543 578.688L75.1135 592.991L52.7609 586.535L65.8 605.8L46.5348 592.761L52.9906 615.114L38.6884 596.754L37.9229 620L30 598.132L22.0898 620L21.3116 596.754L7.0222 615.114L13.4779 592.761L-5.78719 605.8L7.25185 586.535L-15.1008 592.991L3.25849 578.688L-20 577.923L1.88059 570L-20 562.09L3.25849 561.312L-15.1008 547.022L7.25185 553.478L-5.78719 534.213L13.4779 547.252L7.0222 524.899L21.3116 543.258L22.0898 520L30 541.881Z" stroke="#1D1D1B" stroke-width="0.88" stroke-miterlimit="10"/>
<path d="M1554.09 380.655L1397.24 704L1398.74 74.7653L1554.09 380.655Z" fill="#FFFF7A"/>
<path d="M1367.09 380.194L1210.24 703.539L1211.74 74.3044L1367.09 380.194Z" fill="#FFFF7A"/>
<path d="M1711.65 380.194L1554.79 703.539L1556.3 74.3044L1711.65 380.194Z" fill="#FFFF7A"/>
</g>
<defs>
<clipPath id="clip0_16_516">
<rect width="1736" height="942" fill="white"/>
</clipPath>
</defs>
</svg>
