<?xml version="1.0" encoding="utf-8"?>
<!-- Generator: Adobe Illustrator 24.3.0, SVG Export Plug-In . SVG Version: 6.00 Build 0)  -->
<svg version="1.1" id="Capa_1" xmlns="http://www.w3.org/2000/svg" xmlns:xlink="http://www.w3.org/1999/xlink" x="0px" y="0px"
	 viewBox="0 0 1280 1354" style="enable-background:new 0 0 1280 1354;" xml:space="preserve">
<style type="text/css">
	.st0{fill:#FAFAF8;}
	.st1{fill:none;}
	.st2{fill:#FFFF5F;}
	.st3{fill:none;stroke:#000000;stroke-width:2;stroke-miterlimit:10;}
	.st4{fill:#FFFFFF;}
</style>
<rect x="-1325.8" y="-23.7" class="st0" width="1316.5" height="1401.3"/>
<g>
	<g>
		<rect x="-1280" y="-4362.6" class="st0" width="2560" height="1233.5"/>
	</g>
	<g>
		<polygon class="st1" points="-1089.2,-3512.9 -1210.2,-3762.1 -1210.2,-3513 -1210.2,-3512.9 -1210.2,-3512.7 -1210.2,-3263.6 		
			"/>
		<polygon class="st1" points="503.7,-4320.2 503.7,-4040.6 610,-4040.6 624.8,-4070.9 		"/>
		<polygon class="st1" points="-1211.6,-3512.9 -1280,-3653.6 -1280,-3372.1 		"/>
		<polygon class="st1" points="858.6,-4040.6 873.3,-4070.9 752.2,-4320.2 752.2,-4071.1 752.3,-4070.9 752.2,-4070.7 
			752.2,-4040.6 		"/>
		<polygon class="st1" points="972.6,-4040.6 978.3,-4034.9 995.8,-4070.9 874.7,-4320.2 874.7,-4071.1 874.8,-4070.9 
			874.7,-4070.7 874.7,-4040.6 		"/>
		<polygon class="st1" points="860.1,-4040.6 873.4,-4040.6 873.4,-4068 		"/>
		<polygon class="st1" points="737.6,-4040.6 750.9,-4040.6 750.9,-4068 		"/>
		<polygon class="st1" points="629.8,-4320.2 629.8,-4040.6 736.1,-4040.6 750.8,-4070.9 		"/>
		<polygon class="st2" points="752.2,-3821.6 858.6,-4040.6 752.2,-4040.6 		"/>
		<polygon class="st2" points="874.7,-4040.6 874.7,-3821.6 978.3,-4034.9 972.6,-4040.6 		"/>
		<polygon class="st2" points="629.8,-3821.6 736.1,-4040.6 629.8,-4040.6 		"/>
		<polygon class="st2" points="503.7,-3821.6 610,-4040.6 503.7,-4040.6 		"/>
		<polygon class="st2" points="873.4,-3815.8 873.4,-4040.6 860.1,-4040.6 750.9,-3815.8 750.9,-4040.6 737.6,-4040.6 
			628.4,-3815.8 628.4,-4040.6 611.5,-4040.6 502.4,-3815.8 502.4,-4040.6 217.9,-4040.6 949.8,-3306.3 1280,-3306.3 1280,-3732.2 
			979.3,-4033.9 		"/>
		<polygon class="st2" points="936.2,-3306.3 181.5,-3306.3 358.1,-3129.1 1112.8,-3129.1 		"/>
		<polygon class="st2" points="-1257.3,-4462.6 -1380,-4462.6 -1380,-3955.5 -751.8,-3955.5 		"/>
		<polygon points="-1210.2,-3513 -1210.2,-3512.7 -1210.2,-3512.9 		"/>
		<polygon points="-1211.6,-3515.8 -1280,-3656.7 -1280,-3653.6 -1211.6,-3512.9 -1280,-3372.1 -1280,-3369.1 -1211.6,-3510 		"/>
		<polygon points="-1210.2,-3762.1 -1089.2,-3512.9 -1210.2,-3263.6 -1210.2,-3512.7 -1210.3,-3512.6 -1211.6,-3510 
			-1211.6,-3257.8 -1087.8,-3512.6 -1087.7,-3512.9 -1211.6,-3767.9 -1211.6,-3515.8 -1210.2,-3513 		"/>
		<polygon points="-1210.3,-3512.6 -1210.2,-3512.7 -1210.2,-3513 -1211.6,-3515.8 -1211.6,-3510 		"/>
		<polygon points="503.7,-4320.2 624.8,-4070.9 610,-4040.6 611.5,-4040.6 626.1,-4070.6 626.2,-4070.9 502.4,-4326 502.4,-4040.6 
			503.7,-4040.6 		"/>
		<polygon points="611.5,-4040.6 610,-4040.6 503.7,-3821.6 503.7,-4040.6 502.4,-4040.6 502.4,-3815.8 		"/>
		<polygon points="752.2,-4071.1 752.2,-4070.7 752.3,-4070.9 		"/>
		<polygon points="629.8,-4320.2 750.8,-4070.9 736.1,-4040.6 737.6,-4040.6 750.9,-4068 750.9,-4073.8 628.4,-4326 628.4,-4040.6 
			629.8,-4040.6 		"/>
		<polygon points="737.6,-4040.6 736.1,-4040.6 629.8,-3821.6 629.8,-4040.6 628.4,-4040.6 628.4,-3815.8 		"/>
		<polygon points="874.7,-4071.1 874.7,-4070.7 874.8,-4070.9 		"/>
		<polygon points="752.2,-4070.7 752.2,-4070.6 750.9,-4068 750.9,-4040.6 752.2,-4040.6 		"/>
		<polygon points="752.2,-4320.2 873.3,-4070.9 858.6,-4040.6 860.1,-4040.6 873.4,-4068 873.4,-4073.8 750.9,-4326 750.9,-4073.8 
			752.2,-4071.1 		"/>
		<polygon points="752.2,-3821.6 752.2,-4040.6 750.9,-4040.6 750.9,-3815.8 860.1,-4040.6 858.6,-4040.6 		"/>
		<polygon points="752.2,-4070.6 752.2,-4070.7 752.2,-4071.1 750.9,-4073.8 750.9,-4068 		"/>
		<polygon points="874.7,-4070.7 874.7,-4070.6 873.4,-4068 873.4,-4040.6 874.7,-4040.6 		"/>
		<polygon points="874.7,-4320.2 995.8,-4070.9 978.3,-4034.9 979.3,-4033.9 997.1,-4070.6 997.3,-4070.9 873.4,-4326 
			873.4,-4073.8 874.7,-4071.1 		"/>
		<polygon points="874.7,-3821.6 874.7,-4040.6 873.4,-4040.6 873.4,-3815.8 979.3,-4033.9 978.3,-4034.9 		"/>
		<polygon points="874.7,-4070.6 874.7,-4070.7 874.7,-4071.1 873.4,-4073.8 873.4,-4068 		"/>
	</g>
</g>
<g>
	<g>
		<polygon class="st2" points="917.6,-2967 917.6,-2223.3 1098.8,-2595.1 		"/>
	</g>
	<g>
		<polygon class="st2" points="1098.8,-2967 1098.8,-2223.3 1280,-2595.1 		"/>
	</g>
</g>
<g>
	<g>
		<g>
			<polygon class="st2" points="352.5,-1362.5 352.5,-420.9 584.4,-891.7 			"/>
		</g>
		<g>
			<polygon class="st2" points="584.4,-1362.5 584.4,-420.9 816.3,-891.7 			"/>
		</g>
	</g>
	<g>
		<g>
			<polygon class="st2" points="816.3,-1362.5 816.3,-420.9 1048.1,-891.7 			"/>
		</g>
		<g>
			<polygon class="st2" points="1048.1,-1362.5 1048.1,-420.9 1280,-891.7 			"/>
		</g>
	</g>
</g>
<polygon class="st3" points="928.2,-1167.7 906.6,-1207.9 894,-1164 893.5,-1209.7 862,-1176.6 882.8,-1217.3 839.5,-1202.7 
	876.9,-1229 831.7,-1236.2 877.1,-1242.2 840.4,-1269.5 883.3,-1253.7 863.6,-1295 894.3,-1261.1 895.9,-1306.7 907.3,-1262.5 
	930,-1302.1 919.5,-1257.6 958.1,-1282.2 928.1,-1247.7 973.7,-1251.5 931.1,-1234.9 973.2,-1217.1 927.8,-1222.2 956.8,-1186.8 
	918.9,-1212.4 "/>
<polygon class="st3" points="466.4,-312.7 455.5,-332.5 448.2,-311.1 448.6,-333.7 431.6,-318.9 443.3,-338.1 421.2,-333.8 
	440.9,-344.7 419.6,-352 442.1,-351.6 427.3,-368.6 446.6,-356.9 442.3,-379 453.1,-359.3 460.4,-380.6 460,-358.1 477,-372.9 
	465.3,-353.6 487.5,-357.9 467.7,-347 489,-339.7 466.5,-340.2 481.3,-323.2 462,-334.8 "/>
<circle class="st4" cx="-704.6" cy="677" r="677"/>
<rect x="-18.2" y="-23.7" class="st0" width="1316.5" height="1401.3"/>
<circle class="st4" cx="603" cy="677" r="677"/>
<g>
	<g>
		<path d="M0,310.3V136.8l42.1,86.8l-0.2,0.4L0,310.3z M2,145.4v156.3l38-78.1L2,145.4z"/>
	</g>
	<g>
		<path d="M41.2,310.3V136.8l42.1,86.8l-0.2,0.4L41.2,310.3z M43.2,145.4v156.3l37.9-78.1L43.2,145.4z"/>
	</g>
	<g>
		<path d="M81.3,310.3V136.8l42.1,86.8l-0.2,0.4L81.3,310.3z M83.3,145.4v156.3l37.9-78.1L83.3,145.4z"/>
	</g>
	<g>
		<path d="M121.3,310.3V136.8l42.1,86.8l-0.2,0.4L121.3,310.3z M123.3,145.4v156.3l38-78.1L123.3,145.4z"/>
	</g>
</g>
</svg>
