<svg width="640" height="226" viewBox="0 0 640 226" fill="none" xmlns="http://www.w3.org/2000/svg">
<path d="M15.33 0.859863L8.49 11.1099L16.42 25.9499H13.52L6.52 13.3699H6.42L2.62 18.6399V25.9499H0V0.859863H2.61V14.9099H2.71L12.46 0.859863H15.33Z" fill="black"/>
<path d="M20.1001 0.54C20.4401 0.18 20.8801 0 21.4001 0C21.9201 0 22.3601 0.18 22.7101 0.54C23.0601 0.9 23.2301 1.33 23.2301 1.83C23.2301 2.33 23.0501 2.75 22.7101 3.1C22.3601 3.44 21.9201 3.62 21.4001 3.62C20.8801 3.62 20.4401 3.45 20.1001 3.1C19.7601 2.76 19.5801 2.33 19.5801 1.83C19.5801 1.33 19.7501 0.9 20.1001 0.54ZM20.1601 25.95V7.93H22.6301V25.95H20.1601Z" fill="black"/>
<path d="M34.7299 24.1299C35.5699 24.1299 36.3999 23.8899 37.2299 23.4099L37.4899 25.6299C36.3699 26.1299 35.3699 26.3799 34.4799 26.3799C30.9699 26.3799 29.2099 24.4199 29.2099 20.4999V10.0699H25.9399V7.91986H29.2499L29.8499 2.10986H31.6899V7.91986H37.4599V10.0699H31.6899V20.0899C31.6899 22.7699 32.6999 24.1099 34.7299 24.1099V24.1299Z" fill="black"/>
<path d="M50.4498 21.4302C50.4498 22.9302 49.9398 24.1402 48.9298 25.0302C47.9198 25.9302 46.6098 26.3802 45.0098 26.3802C42.9098 26.3802 41.1698 25.7302 39.7798 24.4402L40.3698 22.4302C40.8898 22.9802 41.5698 23.4302 42.3798 23.7802C43.1898 24.1302 43.9798 24.3002 44.7398 24.3002C45.7698 24.3002 46.5898 24.0502 47.2198 23.5502C47.8398 23.0502 48.1598 22.3702 48.1598 21.5002C48.1598 21.0702 48.0598 20.6602 47.8698 20.2802C47.6798 19.9002 47.3398 19.5102 46.8598 19.1202C46.3798 18.7202 45.9998 18.4202 45.7098 18.2002C45.4198 17.9802 44.9498 17.6602 44.2798 17.2302C43.4198 16.6602 42.7498 16.1902 42.2898 15.8402C41.8198 15.4802 41.3598 14.9502 40.9098 14.2502C40.4498 13.5402 40.2298 12.7802 40.2298 11.9702C40.2298 10.6302 40.7198 9.55023 41.6998 8.72023C42.6798 7.89023 43.9498 7.49023 45.4998 7.49023C47.2998 7.49023 48.8098 7.93023 50.0498 8.82023L49.3998 10.6902C48.4398 9.90023 47.2298 9.50023 45.7598 9.50023C44.8498 9.50023 44.0898 9.73023 43.4898 10.1802C42.8898 10.6402 42.5898 11.2202 42.5898 11.9302C42.5898 12.4102 42.7798 12.8802 43.1498 13.3502C43.5198 13.8202 43.8998 14.1902 44.2798 14.4802C44.6598 14.7702 45.2298 15.1602 45.9998 15.6602C46.6698 16.0902 47.1998 16.4602 47.6098 16.7502C48.0198 17.0502 48.4698 17.4402 48.9698 17.9302C49.4698 18.4202 49.8398 18.9502 50.0798 19.5302C50.3198 20.1102 50.4398 20.7402 50.4398 21.4302H50.4498Z" fill="black"/>
<path d="M70.79 7.49023C72.84 7.49023 74.52 8.33023 75.82 10.0002C77.12 11.6702 77.77 13.9902 77.77 16.9502C77.77 19.9102 77.11 22.2202 75.8 23.8902C74.49 25.5602 72.82 26.3802 70.79 26.3802C68.76 26.3802 67.09 25.5402 65.77 23.8702C64.45 22.2002 63.79 19.8802 63.79 16.9202C63.79 13.9602 64.45 11.6502 65.77 9.98023C67.09 8.32023 68.76 7.49023 70.79 7.49023ZM70.79 24.0902C72.13 24.0902 73.23 23.4502 74.07 22.1702C74.92 20.8902 75.34 19.1502 75.34 16.9602C75.34 14.7702 74.91 13.0002 74.06 11.7302C73.21 10.4602 72.11 9.82023 70.78 9.82023C69.45 9.82023 68.36 10.4502 67.53 11.7202C66.7 12.9902 66.28 14.7302 66.28 16.9602C66.28 19.1902 66.7 20.8802 67.53 22.1602C68.36 23.4302 69.45 24.0802 70.79 24.1002V24.0902Z" fill="black"/>
<path d="M90.2098 7.49023C91.9198 7.49023 93.3498 8.17024 94.4898 9.52024C95.6298 10.8702 96.1998 12.6902 96.1998 14.9802V25.9502H93.7298V15.2802C93.7298 13.6602 93.3198 12.3402 92.5098 11.3302C91.6898 10.3202 90.6598 9.82023 89.4198 9.82023C88.1798 9.82023 87.1298 10.3202 86.2698 11.3202C85.4098 12.3202 84.9798 13.6402 84.9798 15.2702V25.9402H82.5098V7.93023H84.1198L84.6998 11.3602H84.8398C85.2898 10.1202 85.9898 9.17023 86.9398 8.50023C87.8798 7.83023 88.9798 7.49023 90.2098 7.49023Z" fill="black"/>
<path d="M109.55 7.49004C111.35 7.49004 112.84 8.36004 114.03 10.09C115.22 11.82 115.81 14.11 115.81 16.96C115.81 19.81 115.21 22.06 114 23.79C112.79 25.52 111.3 26.39 109.51 26.39C108.41 26.39 107.4 26.04 106.48 25.35C105.56 24.66 104.82 23.67 104.28 22.4H104.14L103.53 25.95H101.92V0.0400391H104.42V10.94H104.52C105.72 8.64004 107.4 7.49004 109.54 7.49004H109.55ZM108.87 24.04C110.16 24.06 111.23 23.41 112.08 22.07C112.93 20.73 113.35 19.03 113.35 16.95C113.35 14.87 112.93 13.14 112.08 11.81C111.23 10.48 110.16 9.82004 108.87 9.82004C107.58 9.82004 106.51 10.49 105.68 11.81C104.85 13.14 104.43 14.85 104.43 16.95C104.43 19.05 104.85 20.73 105.68 22.05C106.51 23.37 107.58 24.04 108.87 24.04Z" fill="black"/>
<path d="M126.67 7.49023C128.72 7.49023 130.4 8.33023 131.7 10.0002C133 11.6702 133.65 13.9902 133.65 16.9502C133.65 19.9102 132.99 22.2202 131.68 23.8902C130.37 25.5602 128.7 26.3802 126.67 26.3802C124.64 26.3802 122.97 25.5402 121.65 23.8702C120.33 22.2002 119.67 19.8802 119.67 16.9202C119.67 13.9602 120.33 11.6502 121.65 9.98023C122.97 8.32023 124.64 7.49023 126.67 7.49023ZM126.67 24.0902C128.01 24.0902 129.11 23.4502 129.95 22.1702C130.8 20.8902 131.22 19.1502 131.22 16.9602C131.22 14.7702 130.79 13.0002 129.94 11.7302C129.09 10.4602 127.99 9.82023 126.66 9.82023C125.33 9.82023 124.24 10.4502 123.41 11.7202C122.58 12.9902 122.16 14.7302 122.16 16.9602C122.16 19.1902 122.58 20.8802 123.41 22.1602C124.24 23.4302 125.33 24.0802 126.67 24.1002V24.0902Z" fill="black"/>
<path d="M143.28 7.48998C145.36 7.48998 146.93 8.01998 148.01 9.08998C149.09 10.16 149.63 11.93 149.63 14.42V25.95H148.02L147.48 22.77H147.34C146.36 25.18 144.72 26.39 142.42 26.39C140.96 26.39 139.73 25.83 138.73 24.72C137.73 23.61 137.23 22.23 137.23 20.58C137.23 18.78 137.76 17.33 138.83 16.21C139.9 15.09 141.45 14.53 143.48 14.53C144.8 14.53 146.03 14.85 147.17 15.49V14.37C147.17 12.84 146.85 11.7 146.2 10.93C145.55 10.17 144.5 9.77998 143.04 9.77998C142.38 9.77998 141.71 9.88998 141.04 10.12C140.37 10.35 139.87 10.57 139.53 10.79L139.04 11.1L138.25 8.94998C139.23 8.46998 139.82 8.18998 140.03 8.08998C141.13 7.67998 142.21 7.47998 143.28 7.47998V7.48998ZM147.16 18.09V17.39C146.23 16.77 145.12 16.46 143.85 16.45C142.49 16.45 141.44 16.84 140.7 17.61C139.97 18.39 139.6 19.37 139.6 20.58C139.6 21.79 139.9 22.66 140.49 23.39C141.08 24.12 141.9 24.48 142.92 24.48C144.16 24.48 145.17 23.85 145.95 22.6C146.73 21.35 147.13 19.84 147.16 18.1V18.09Z" fill="black"/>
<path d="M157.79 11.9702C158.29 10.5602 159.01 9.46023 159.94 8.67023C160.87 7.88023 161.93 7.49023 163.12 7.49023V9.82023C161.66 9.82023 160.42 10.5102 159.39 11.8802C158.36 13.2502 157.85 15.1202 157.85 17.4602H157.81V25.9502H155.34V7.93023H156.95L157.63 11.9702H157.77H157.79Z" fill="black"/>
<path d="M171.69 7.49004C173.84 7.49004 175.5 8.64004 176.69 10.94H176.81V0.0400391H179.31V25.95H177.7L177.09 22.4H176.95C176.4 23.67 175.67 24.65 174.75 25.35C173.83 26.04 172.82 26.39 171.72 26.39C169.92 26.39 168.42 25.52 167.21 23.79C166 22.06 165.4 19.78 165.4 16.96C165.4 14.14 166 11.82 167.19 10.09C168.39 8.36004 169.88 7.49004 171.68 7.49004H171.69ZM172.37 24.04C173.66 24.04 174.73 23.38 175.56 22.05C176.39 20.72 176.81 19.03 176.81 16.95C176.81 14.87 176.39 13.14 175.55 11.81C174.71 10.48 173.65 9.82004 172.36 9.82004C171.07 9.82004 170 10.49 169.16 11.81C168.31 13.14 167.89 14.85 167.89 16.95C167.89 19.05 168.31 20.73 169.16 22.07C170.01 23.41 171.08 24.06 172.37 24.04Z" fill="black"/>
<path d="M185.06 0.54C185.4 0.18 185.84 0 186.36 0C186.88 0 187.32 0.18 187.67 0.54C188.02 0.9 188.19 1.33 188.19 1.83C188.19 2.33 188.01 2.75 187.67 3.1C187.32 3.44 186.88 3.62 186.36 3.62C185.84 3.62 185.4 3.45 185.06 3.1C184.72 2.76 184.54 2.33 184.54 1.83C184.54 1.33 184.71 0.9 185.06 0.54ZM185.12 25.95V7.93H187.59V25.95H185.12Z" fill="black"/>
<path d="M201.12 7.49023C202.83 7.49023 204.26 8.17024 205.4 9.52024C206.54 10.8702 207.11 12.6902 207.11 14.9802V25.9502H204.64V15.2802C204.64 13.6602 204.23 12.3402 203.42 11.3302C202.6 10.3202 201.57 9.82023 200.33 9.82023C199.09 9.82023 198.04 10.3202 197.18 11.3202C196.32 12.3202 195.89 13.6402 195.89 15.2702V25.9402H193.42V7.93023H195.03L195.61 11.3602H195.75C196.2 10.1202 196.9 9.17023 197.85 8.50023C198.79 7.83023 199.89 7.49023 201.12 7.49023Z" fill="black"/>
<path d="M221.63 8.20983C222.09 7.47983 222.69 6.91983 223.44 6.52983C224.19 6.14983 224.96 5.99983 225.76 6.08983V8.16983C224.62 8.09983 223.71 8.41983 223.03 9.12983V9.28983C224.15 10.4598 224.72 11.9698 224.73 13.8398C224.73 15.7298 224.18 17.2298 223.08 18.3498C221.98 19.4698 220.52 20.0298 218.7 20.0298C217.15 20.0298 215.84 19.5598 214.76 18.6298C214.28 19.1998 214.04 19.7898 214.04 20.3998C214.04 21.9498 214.95 22.7298 216.77 22.7298H221.14C222.57 22.7498 223.69 23.1798 224.47 23.9998C225.26 24.8198 225.65 25.9898 225.65 27.4898C225.65 29.3598 224.99 30.9698 223.66 32.3298C222.33 33.6898 220.57 34.3698 218.38 34.3698C216.61 34.3698 215.11 33.8998 213.9 32.9498C212.69 32.0098 212.08 30.6598 212.08 28.9298C212.08 27.1998 212.71 25.7298 213.97 24.6598V24.5598C212.51 23.9398 211.78 22.7598 211.78 21.0098C211.78 19.4798 212.37 18.2198 213.55 17.2098C212.98 16.2098 212.69 15.0798 212.68 13.8198C212.68 11.9298 213.24 10.4098 214.35 9.23983C215.46 8.07983 216.91 7.49983 218.7 7.49983C219.77 7.49983 220.75 7.73983 221.64 8.21983L221.63 8.20983ZM215.84 24.9498C214.77 25.8098 214.22 26.9998 214.21 28.5198C214.21 29.8098 214.65 30.7798 215.52 31.4198C216.39 32.0598 217.38 32.3698 218.48 32.3698C219.96 32.3698 221.15 31.9198 222.03 31.0198C222.92 30.1198 223.36 29.0498 223.36 27.7998C223.36 25.8898 222.39 24.9398 220.46 24.9498H215.84ZM218.69 18.0598C219.83 18.0598 220.75 17.6798 221.44 16.9098C222.13 16.1498 222.47 15.1298 222.47 13.8698C222.47 12.6098 222.12 11.6098 221.43 10.8098C220.74 10.0098 219.82 9.59983 218.69 9.59983C217.56 9.59983 216.63 9.98983 215.95 10.7798C215.27 11.5698 214.93 12.5898 214.93 13.8598C214.93 15.1298 215.28 16.1398 215.97 16.8998C216.66 17.6598 217.57 18.0498 218.69 18.0498V18.0598Z" fill="black"/>
<path d="M255.798 226C280.642 225.686 305.474 225.403 330.318 225.173C355.162 224.943 380.006 224.755 404.85 224.608C429.694 224.462 454.34 224.357 479.091 224.294C503.935 224.232 528.779 224.211 553.623 224.242C578.467 224.273 603.124 224.336 627.863 224.441C630.975 224.451 634.074 224.472 637.186 224.483C640.938 224.504 640.938 219.273 637.186 219.252C612.342 219.126 587.498 219.053 562.654 219.021C537.81 218.99 512.966 218.99 488.122 219.042C463.371 219.095 438.62 219.189 413.881 219.325C389.037 219.461 364.193 219.639 339.349 219.858C314.61 220.078 289.86 220.34 265.12 220.653C262.021 220.695 258.909 220.727 255.81 220.769C252.069 220.821 252.058 226.052 255.81 226H255.798Z" fill="#FFFF5F"/>
<path d="M1.29004 147.47V130.84H45.66V147.47H32.56V202.25H14.34V147.47H1.29004Z" fill="black"/>
<path d="M71.6501 175.2V185.61H95.1001V202.24H53.3701V130.83H94.4501V147.46H71.6401V160.21H92.2101V175.2H71.6401H71.6501Z" fill="black"/>
<path d="M113.63 130.83H136.59L152.08 202.24H133.71L132.02 191.53H118.33L116.59 202.24H98.27L113.66 130.83H113.63ZM120.75 176.94H129.51L125.33 152.49H124.83L120.75 176.94Z" fill="black"/>
<path d="M187.43 165.74L198.43 130.83H217.2V202.24H199.47V172.26H199.02L189.46 202.24H185.08L175.57 172.26H175.17V202.24H157.44V130.83H176.21L187.21 165.74H187.41H187.43Z" fill="black"/>
<path d="M278.35 130.83C285.82 130.83 291.95 134.18 296.75 140.89C301.55 147.6 303.95 156.15 303.95 166.56C303.95 176.97 301.55 185.52 296.75 192.21C291.95 198.9 285.82 202.24 278.35 202.24H255.89V130.83H278.35ZM275.66 185.61C278.58 185.61 280.96 183.83 282.81 180.26C284.65 176.69 285.57 172.12 285.57 166.54C285.57 160.96 284.65 156.39 282.81 152.82C280.97 149.25 278.58 147.47 275.66 147.47H274.17V185.61H275.66Z" fill="black"/>
<path d="M332.38 175.2V185.61H355.83V202.24H314.1V130.83H355.18V147.46H332.37V160.21H352.94V175.2H332.37H332.38Z" fill="black"/>
<path d="M393.63 130.83C399.47 130.83 404.35 133.33 408.27 138.32C412.19 143.32 414.15 149.47 414.15 156.77C414.15 164.07 412.22 170.3 408.37 174.95C404.52 179.6 399.61 181.92 393.63 181.92H384.17V202.24H365.9V130.83H393.64H393.63ZM388.2 165.64C390.52 165.64 392.35 164.75 393.68 162.98C395.01 161.2 395.67 159.1 395.67 156.68C395.67 154.26 395.01 152.01 393.68 150.23C392.35 148.45 390.53 147.57 388.2 147.57H384.17V165.65H388.2V165.64Z" fill="black"/>
<path d="M426.5 138.2C431.15 132.29 437.52 129.34 445.62 129.34C453.72 129.34 460.09 132.3 464.74 138.2C469.39 144.11 471.71 153.55 471.71 166.53C471.71 179.51 469.39 189.05 464.74 194.94C460.09 200.83 453.72 203.78 445.62 203.78C437.52 203.78 431.15 200.83 426.5 194.94C421.85 189.05 419.53 179.58 419.53 166.53C419.53 153.48 421.85 144.11 426.5 138.2ZM439.84 182.72C441.17 185.68 443.09 187.15 445.62 187.15C448.15 187.15 450.07 185.67 451.4 182.72C452.73 179.77 453.39 174.37 453.39 166.54C453.39 158.71 452.73 153.44 451.4 150.46C450.07 147.47 448.15 145.98 445.62 145.98C443.09 145.98 441.17 147.47 439.84 150.46C438.51 153.45 437.85 158.81 437.85 166.54C437.85 174.27 438.51 179.77 439.84 182.72Z" fill="black"/>
<path d="M518.82 171.12C522.27 172.22 524.5 175.49 525.49 180.93L529.32 202.24H510.15L506.81 182.47C506.15 179.15 504.2 177.47 500.98 177.44H500.08V202.24H481.81V130.83H506.81C512.98 130.83 518.01 132.81 521.9 136.76C525.78 140.71 527.73 146.06 527.73 152.79C527.73 160.82 524.76 166.77 518.82 170.62V171.12ZM502.73 163.1C504.75 163.1 506.42 162.37 507.71 160.91C509 159.45 509.65 157.59 509.65 155.33C509.65 153.07 509 151.11 507.71 149.65C506.42 148.19 504.75 147.46 502.73 147.46H500.09V163.1H502.73Z" fill="black"/>
<path d="M533.8 147.47V130.84H578.17V147.47H565.07V202.25H546.84V147.47H533.79H533.8Z" fill="black"/>
<path d="M604.17 175.2V185.61H627.62V202.24H585.89V130.83H626.97V147.46H604.16V160.21H624.73V175.2H604.16H604.17Z" fill="black"/>
<path d="M30.44 88.4001C33.29 89.5601 35.54 91.3801 37.18 93.8701C38.82 96.3601 39.64 99.3401 39.64 102.81C39.64 107.49 38.05 111.36 34.88 114.42C31.7 117.48 27.69 119 22.85 119H2.5V61.1001H21.27C26.28 61.1001 30.31 62.5101 33.38 65.3201C36.45 68.1301 37.98 71.8301 37.98 76.4001C37.98 81.6501 35.46 85.5101 30.43 87.9901V88.3901L30.44 88.4001ZM17.32 74.0301V85.0101H19.54C20.7 85.0101 21.63 84.4901 22.35 83.4401C23.06 82.3901 23.42 81.0701 23.42 79.4801C23.42 77.8901 23.06 76.5901 22.35 75.5601C21.64 74.5401 20.7 74.0301 19.54 74.0301H17.32ZM20.26 106.21C21.58 106.21 22.64 105.7 23.45 104.68C24.26 103.66 24.66 102.34 24.66 100.72C24.66 99.1001 24.26 97.7501 23.45 96.7201C22.64 95.7001 21.58 95.1901 20.26 95.1901H17.31V106.21H20.26Z" stroke="black"/>
<path d="M51.5499 67.0899C55.3199 62.2999 60.4899 59.8999 67.0499 59.8999C73.6099 59.8999 78.7799 62.2999 82.5499 67.0899C86.3199 71.8799 88.1999 79.5399 88.1999 90.0599C88.1999 100.58 86.3199 108.32 82.5499 113.09C78.7799 117.87 73.6099 120.26 67.0499 120.26C60.4899 120.26 55.3099 117.87 51.5499 113.09C47.7799 108.31 45.8999 100.63 45.8999 90.0599C45.8999 79.4899 47.7799 71.8799 51.5499 67.0899ZM62.3699 103.18C63.4499 105.58 65.0099 106.77 67.0499 106.77C69.0899 106.77 70.6599 105.57 71.7299 103.18C72.8099 100.78 73.3499 96.4099 73.3499 90.0599C73.3499 83.7099 72.8099 79.4399 71.7299 77.0199C70.6499 74.5999 69.0899 73.3899 67.0499 73.3899C65.0099 73.3899 63.4399 74.5999 62.3699 77.0199C61.2899 79.4399 60.7499 83.7899 60.7499 90.0599C60.7499 96.3299 61.2899 100.79 62.3699 103.18Z" stroke="black"/>
<path d="M111.23 61.1104V105.52H128.07V119.01H96.4199V61.1104H111.24H111.23Z" stroke="black"/>
<path d="M155.76 84.8501C160.77 87.8901 164.16 90.7801 165.93 93.5101C167.7 96.2401 168.59 99.4501 168.59 103.14C168.59 108.33 166.85 112.49 163.38 115.6C159.91 118.71 155.16 120.26 149.13 120.26C142.08 120.26 136.29 118.6 131.77 115.29L134.68 102.61C139.15 105.81 143.39 107.41 147.4 107.41C151.65 107.41 153.78 105.98 153.78 103.13C153.78 101.97 153.27 100.82 152.25 99.6601C151.23 98.5001 149.21 97.0401 146.19 95.2601C141.45 92.5701 138.05 89.7401 135.98 86.7601C133.91 83.7901 132.87 80.3101 132.87 76.3201C132.87 71.3701 134.62 67.3901 138.12 64.3901C141.62 61.3901 146.26 59.8901 152.05 59.8901C157.84 59.8901 162.83 60.9401 167.03 63.0401L165.37 75.9201C164.16 75.1401 162.45 74.3801 160.24 73.6401C158.03 72.9001 156.01 72.5301 154.18 72.5301C149.98 72.5301 147.89 73.9301 147.92 76.7301C147.92 78.0501 148.57 79.3301 149.86 80.5901C151.15 81.8401 153.12 83.2601 155.76 84.8501Z" stroke="black"/>
<path d="M180.03 67.0899C183.8 62.2999 188.97 59.8999 195.53 59.8999C202.09 59.8999 207.26 62.2999 211.03 67.0899C214.8 71.8799 216.68 79.5399 216.68 90.0599C216.68 100.58 214.8 108.32 211.03 113.09C207.26 117.87 202.09 120.26 195.53 120.26C188.97 120.26 183.79 117.87 180.03 113.09C176.26 108.31 174.38 100.63 174.38 90.0599C174.38 79.4899 176.26 71.8799 180.03 67.0899ZM190.85 103.18C191.93 105.58 193.49 106.77 195.53 106.77C197.57 106.77 199.14 105.57 200.21 103.18C201.29 100.78 201.83 96.4099 201.83 90.0599C201.83 83.7099 201.29 79.4399 200.21 77.0199C199.13 74.5999 197.57 73.3899 195.53 73.3899C193.49 73.3899 191.92 74.5999 190.85 77.0199C189.77 79.4399 189.23 83.7899 189.23 90.0599C189.23 96.3299 189.77 100.79 190.85 103.18Z" stroke="black"/>
</svg>
