<svg width="1681" height="1004" viewBox="0 0 1681 1004" fill="none" xmlns="http://www.w3.org/2000/svg">
<rect width="1681" height="1004" fill="white"/>
<path d="M1157 0V878L1419 439.005L1157 0Z" fill="#FFFF7A"/>
<path d="M1419 0V878L1681 439.005L1419 0Z" fill="#FFFF7A"/>
<path d="M1012.5 219.921L1025.57 196L1026.71 222.634L1049.44 205.562L1038.45 230.311L1066.93 223.063L1045.72 241.636L1075 245.436L1047.23 254.646L1072.28 268.852L1042.74 267.074L1059.21 289.233L1033.02 276.79L1038.08 303.056L1019.77 282.107L1012.5 307.96L1005.25 282.107L986.942 303.056L991.979 276.79L965.808 289.233L982.262 267.074L952.74 268.852L977.787 254.646L950 245.436L979.302 241.636L958.083 223.063L986.568 230.311L975.575 205.562L998.309 222.634L999.432 196L1012.5 219.921Z" stroke="black" stroke-width="2" stroke-miterlimit="10"/>
<path d="M1467 885.494L1481.43 859L1482.69 888.498L1507.78 869.591L1495.65 897.001L1527.1 888.973L1503.67 909.544L1536 913.753L1505.34 923.953L1532.99 939.687L1500.38 937.718L1518.57 962.26L1489.66 948.478L1495.23 977.569L1475.02 954.368L1467 983L1459 954.368L1438.78 977.569L1444.34 948.478L1415.45 962.26L1433.62 937.718L1401.02 939.687L1428.68 923.953L1398 913.753L1430.35 909.544L1406.92 888.973L1438.37 897.001L1426.23 869.591L1451.33 888.498L1452.57 859L1467 885.494Z" stroke="black" stroke-width="2" stroke-miterlimit="10"/>
</svg>
