<svg width="1756" height="940" viewBox="0 0 1756 940" fill="none" xmlns="http://www.w3.org/2000/svg">
<g clip-path="url(#clip0_12_56)">
<rect width="1756" height="940" fill="white"/>
<rect x="17" width="1756" height="940" fill="#FAFAF8" fill-opacity="0.6"/>
<path d="M1107 23V917.82L1324.31 470.41L1107 23Z" fill="#FFFF7A"/>
<path d="M1324.31 23V917.82L1541.63 470.41L1324.31 23Z" fill="#FFFF7A"/>
<path d="M1541.63 23V917.82L1758.94 470.41L1541.63 23Z" fill="#FFFF7A"/>
<path d="M1466.5 112.906L1476.24 86L1477.19 114.602L1494.77 92.017L1486.84 119.514L1510.53 103.474L1494.49 127.171L1521.98 119.229L1499.4 136.81L1528 137.758L1501.09 147.504L1528 157.242L1499.4 158.19L1521.98 175.771L1494.49 167.836L1510.53 191.533L1486.84 175.486L1494.77 202.983L1477.19 180.398L1476.24 209L1466.5 182.094L1456.76 209L1455.81 180.398L1438.24 202.983L1446.17 175.486L1422.47 191.533L1438.51 167.836L1411.02 175.771L1433.6 158.19L1405 157.242L1431.91 147.504L1405 137.758L1433.6 136.81L1411.02 119.229L1438.51 127.171L1422.47 103.474L1446.17 119.514L1438.24 92.017L1455.81 114.602L1456.76 86L1466.5 112.906Z" stroke="black" stroke-width="0.88" stroke-miterlimit="10"/>
<path d="M86.27 749.24L99.93 711.5L101.26 751.62L125.92 719.94L114.79 758.51L148.03 736.01L125.52 769.25L164.09 758.11L132.42 782.77L172.53 784.1L134.79 797.77L172.53 811.43L132.42 812.76L164.09 837.42L125.52 826.29L148.03 859.53L114.79 837.02L125.92 875.59L101.26 843.91L99.93 884.03L86.27 846.29L72.6 884.03L71.27 843.91L46.62 875.59L57.75 837.02L24.51 859.53L47.01 826.29L8.45001 837.42L40.12 812.76L0 811.43L37.74 797.77L0 784.1L40.12 782.77L8.45001 758.11L47.01 769.25L24.51 736.01L57.75 758.51L46.62 719.94L71.27 751.62L72.6 711.5L86.27 749.24Z" stroke="black" stroke-width="0.88" stroke-miterlimit="10"/>
</g>
<defs>
<clipPath id="clip0_12_56">
<rect width="1756" height="940" fill="white"/>
</clipPath>
</defs>
</svg>
