<svg width="120" height="81" viewBox="0 0 120 81" fill="none" xmlns="http://www.w3.org/2000/svg">
<g clip-path="url(#clip0_19_32)">
<path d="M19.3711 39.0894H0V56.6838H19.3711V39.0894Z" fill="#FAF53B"/>
<path d="M35.4494 0H31.8726V8.44352H35.4494V0Z" fill="#FAF53B"/>
<path d="M54.8086 10.0982L47.5901 14.4785L49.4456 17.5364L56.6641 13.1561L54.8086 10.0982Z" fill="#FAF53B"/>
<path d="M59.3037 30.7871H50.862V34.3657H59.3037V30.7871Z" fill="#FAF53B"/>
<path d="M4.81246 32.1731C6.54024 33.9606 8.55026 34.8507 10.8425 34.8507C13.5617 34.8507 15.8811 33.89 17.8007 31.9651C19.7184 30.0419 20.6755 27.7189 20.6755 25.0015C20.6755 22.284 19.7166 19.9628 17.8007 18.0379C15.8811 16.1147 13.5617 15.1522 10.8425 15.1522C8.55207 15.1522 6.54024 16.0441 4.81246 17.8298V0.437988H1.23749V34.3858H4.81427V32.1731H4.81246ZM4.81246 23.6192C5.03137 22.5247 5.58499 21.5332 6.47149 20.6467C7.68185 19.4382 9.14006 18.8321 10.8425 18.8321C12.545 18.8321 14.005 19.4364 15.2063 20.6467C16.4112 21.8571 17.0137 23.3081 17.0137 25.0015C17.0137 26.6949 16.4112 28.1567 15.2063 29.3562C14.005 30.5539 12.5504 31.1545 10.8425 31.1545C9.13463 31.1545 7.68185 30.5557 6.47149 29.3562C5.58499 28.4697 5.03137 27.4837 4.81246 26.4018V23.6192Z" fill="black"/>
<path d="M34.3368 34.8505C37.0542 34.8505 39.3736 33.8899 41.3004 31.9649C41.6911 31.5741 42.3244 30.7726 43.2018 29.5623L39.625 28.285C39.1655 28.8368 38.8597 29.195 38.7078 29.356C37.4992 30.5537 36.041 31.1543 34.3368 31.1543C32.7591 31.1543 31.67 30.8884 31.0712 30.3583L40.488 20.9414L42.2846 19.1268C41.7436 18.5171 41.4143 18.1535 41.3004 18.0395C41.0217 17.7627 40.7413 17.5021 40.4536 17.2615C38.7023 15.8558 36.6634 15.1538 34.3368 15.1538C31.6302 15.1538 29.3144 16.1163 27.3912 18.0395C25.4663 19.9645 24.5038 22.2839 24.5038 25.0031C24.5038 27.7223 25.4663 30.0435 27.3912 31.9667C29.3144 33.8899 31.6302 34.8523 34.3368 34.8523M29.9911 20.6393C31.1924 19.4344 32.6433 18.8337 34.3349 18.8337C35.7407 18.8337 36.6435 18.9893 37.0469 19.3005L28.6504 27.7151C28.3393 27.3008 28.1837 26.3962 28.1837 25.0013C28.1837 23.297 28.7861 21.8424 29.9911 20.6393Z" fill="black"/>
<path d="M2.99422 41.3906H0.951637V40.4209H6.19107V41.3906H4.14849V46.9051H2.99422V41.3906Z" fill="black"/>
<path d="M7.25307 40.4209H8.41276V43.0225H10.629V40.4209H11.7887V46.9051H10.629V44.0321H8.41276V46.9051H7.25307V40.4209Z" fill="black"/>
<path d="M13.5165 40.4209H17.674V41.3906H14.6708V43.0497H17.2163V44.0194H14.6708V45.9353H17.7736V46.9051H13.5165V40.4209Z" fill="black"/>
<path d="M1.32976 48.9857H2.54011L4.25523 52.6276L4.84322 54.0135H4.87036C4.82332 53.3495 4.71477 52.5299 4.71477 51.8044V48.9857H5.81295V55.4699H4.60259L2.88748 51.8243L2.29949 50.4421H2.27235C2.3212 51.1314 2.42975 51.913 2.42975 52.6312V55.468H1.32976V48.9839V48.9857Z" fill="black"/>
<path d="M7.56787 48.9858H11.7254V49.9556H8.72033V51.6128H11.2659V52.5825H8.72033V54.5003H11.8249V55.47H7.56787V48.9858Z" fill="black"/>
<path d="M12.5649 48.9785H13.7951L14.1262 52.738C14.1642 53.2862 14.1895 53.6915 14.2076 54.303H14.242C14.3469 53.6915 14.441 53.2826 14.5586 52.7435L15.0923 50.6376H15.9589L16.4673 52.7435C16.5885 53.2754 16.6772 53.6842 16.7857 54.303H16.8255C16.8509 53.6842 16.8617 53.279 16.8997 52.7435L17.2181 48.9785H18.3814L17.5058 55.4699H16.205L15.6984 53.165C15.6098 52.7615 15.5338 52.3545 15.4922 51.9619H15.4614C15.4071 52.3545 15.351 52.7615 15.2624 53.165L14.7612 55.4699H13.4876L12.5649 48.9785Z" fill="black"/>
<path d="M25.0773 49.3404H27.8037C31.7206 49.3404 33.1264 47.0246 33.1264 44.8844C33.1264 42.4401 31.3733 40.4048 27.8037 40.4048H22.6113V55.4428H25.0791V49.3404H25.0773ZM25.0773 42.4166H27.8037C29.7305 42.4166 30.5953 43.3248 30.5953 44.8844C30.5953 46.4439 29.7305 47.3286 27.8037 47.3286H25.0773V42.4166Z" fill="black"/>
<path d="M40.611 55.6364C43.5329 55.6364 45.4145 53.972 46.0857 51.8932H43.4243C42.9702 52.8231 42.1272 53.5595 40.611 53.5595C38.7928 53.5595 37.3871 52.369 37.2134 50.4006H46.3227C46.3878 49.9899 46.4095 49.601 46.4095 49.1903C46.4095 45.684 44.0069 43.3267 40.611 43.3267C37.2152 43.3267 34.6606 45.7293 34.6606 49.4707C34.6606 53.2121 37.1917 55.6364 40.611 55.6364ZM40.5025 45.4018C42.3406 45.4018 43.7916 46.5706 43.835 48.4087H37.2351C37.4938 46.5271 38.8362 45.4018 40.5025 45.4018Z" fill="black"/>
<path d="M54.1113 43.3247C50.7136 43.3247 48.0306 45.7273 48.0306 49.4687C48.0306 53.2102 50.605 55.6345 54.0027 55.6345C57.4004 55.6345 60.1902 53.2102 60.1902 49.4687C60.1902 45.7273 57.5071 43.3247 54.1095 43.3247M54.0027 53.4942C52.1429 53.4942 50.5417 52.1753 50.5417 49.4687C50.5417 46.7622 52.208 45.4668 54.0679 45.4668C55.9277 45.4668 57.6591 46.7658 57.6591 49.4687C57.6591 52.1717 55.8409 53.4942 54.0027 53.4942Z" fill="black"/>
<path d="M79.7711 39.4297H77.3034V55.4411H79.7711V39.4297Z" fill="black"/>
<path d="M88.1441 43.3247C84.618 43.3247 82.1936 45.7273 82.1936 49.4687C82.1936 53.2102 84.7247 55.6345 88.1441 55.6345C91.0659 55.6345 92.9475 53.97 93.6187 51.8913H90.9574C90.5033 52.8212 89.6602 53.5575 88.1441 53.5575C86.3258 53.5575 84.9201 52.3671 84.7464 50.3987H93.8557C93.9209 49.988 93.9426 49.599 93.9426 49.1883C93.9426 45.6821 91.5399 43.3247 88.1441 43.3247ZM84.7681 48.4086C85.0268 46.527 86.3693 45.4017 88.0355 45.4017C89.8755 45.4017 91.3246 46.5686 91.3681 48.4086H84.7681Z" fill="black"/>
<path d="M1.20673 74.5119H9.51638V72.4983H3.67448V67.8902H8.86687V65.8784H3.67448V61.464H9.51638V59.4521H1.20673V74.5119Z" fill="black"/>
<path d="M19.7926 62.5894L17.3683 66.6365L14.7938 62.5894H12.0022L15.854 68.6484L12.0022 74.512H14.5767L17.001 70.4648L19.5755 74.512H22.3671L18.5153 68.4747L22.3671 62.5894H19.7926Z" fill="black"/>
<path d="M31.2593 62.3936C29.3108 62.3936 27.8616 63.347 27.1054 64.3421V62.589H24.6395V80.1798H27.1054V72.7802C27.8833 73.7101 29.2909 74.7051 31.2593 74.7051C34.3964 74.7051 36.8642 72.1741 36.8642 68.496C36.8642 64.8179 34.3964 62.3936 31.2593 62.3936ZM30.7183 72.563C28.8784 72.563 27.1054 71.1139 27.1054 68.5376C27.1054 65.9613 28.8802 64.5356 30.7183 64.5356C32.5565 64.5356 34.353 65.9197 34.353 68.4942C34.353 71.0687 32.5782 72.563 30.7183 72.563Z" fill="black"/>
<path d="M44.8663 62.3936C41.3402 62.3936 38.9158 64.7962 38.9158 68.5376C38.9158 72.279 41.4469 74.7033 44.8663 74.7033C47.7881 74.7033 49.6697 73.0389 50.3409 70.9601H47.6796C47.2255 71.89 46.3824 72.6264 44.8663 72.6264C43.048 72.6264 41.6423 71.4359 41.4686 69.4675H50.5779C50.643 69.0568 50.6648 68.6679 50.6648 68.2572C50.6648 64.7509 48.2621 62.3936 44.8663 62.3936ZM41.4921 67.4792C41.7508 65.5976 43.0933 64.4723 44.7595 64.4723C46.5995 64.4723 48.0487 65.6393 48.0921 67.4792H41.4921Z" fill="black"/>
<path d="M55.9874 64.3205V62.5891H53.5197V74.5117H55.9874V68.2374C55.9874 65.7063 57.1127 64.9483 58.931 64.9483H59.5588V62.3955C57.8708 62.3955 56.6821 63.1318 55.9892 64.3223" fill="black"/>
<path d="M73.533 62.3936C70.0069 62.3936 67.5826 64.7962 67.5826 68.5376C67.5826 72.279 70.1136 74.7033 73.533 74.7033C76.4549 74.7033 78.3364 73.0389 79.0076 70.9601H76.3463C75.8922 71.89 75.0491 72.6264 73.533 72.6264C71.7148 72.6264 70.309 71.4359 70.1353 69.4675H79.2446C79.3098 69.0568 79.3315 68.6679 79.3315 68.2572C79.3315 64.7509 76.9289 62.3936 73.533 62.3936ZM70.157 67.4792C70.4158 65.5976 71.7582 64.4723 73.4244 64.4723C75.2644 64.4723 76.7136 65.6393 76.757 67.4792H70.157Z" fill="black"/>
<path d="M87.7696 62.3939C86.3421 62.3939 85.0214 62.9783 84.2217 63.9516V62.5875H81.754V74.5101H84.2217V67.8468C84.2217 65.6613 85.4104 64.536 87.2286 64.536C89.0469 64.536 90.2138 65.6613 90.2138 67.8468V74.5101H92.658V67.4777C92.658 64.1452 90.5594 62.3921 87.7678 62.3921" fill="black"/>
<path d="M100.816 64.4723C102.287 64.4723 103.238 65.2069 103.651 66.3539H106.312C105.641 63.8445 103.738 62.3936 100.816 62.3936C97.3963 62.3936 94.9738 64.8179 94.9738 68.5376C94.9738 72.2573 97.3963 74.7033 100.816 74.7033C103.738 74.7033 105.641 73.0823 106.312 70.7448H103.651C103.197 71.9787 102.288 72.6282 100.816 72.6282C98.8256 72.6282 97.5048 71.1555 97.5048 68.5376C97.5048 65.9197 98.8256 64.4705 100.816 64.4705" fill="black"/>
<path d="M119.702 68.2591C119.702 64.7529 117.299 62.3955 113.903 62.3955C110.508 62.3955 107.953 64.7981 107.953 68.5395C107.953 72.281 110.484 74.7053 113.903 74.7053C116.825 74.7053 118.707 73.0408 119.378 70.9621H116.717C116.263 71.892 115.42 72.6283 113.903 72.6283C112.085 72.6283 110.679 71.4379 110.506 69.4695H119.615C119.68 69.0588 119.702 68.6698 119.702 68.2591ZM110.527 67.4794C110.786 65.5978 112.129 64.4725 113.795 64.4725C115.635 64.4725 117.084 65.6394 117.127 67.4794H110.527Z" fill="black"/>
<path d="M62.6344 63.7939V74.5116H65.1021V63.7939C64.7349 63.964 64.3242 64.0689 63.8809 64.0689C63.4377 64.0689 63.0071 63.964 62.6362 63.7939" fill="black"/>
<path d="M65.1021 59.4757V53.7098C65.8801 54.6398 67.2876 55.6348 69.2561 55.6348C72.3932 55.6348 74.8609 53.1038 74.8609 49.4257C74.8609 45.7476 72.3932 43.3232 69.2561 43.3232C67.3075 43.3232 65.8584 44.2749 65.1021 45.2699V43.5168H62.6362V59.4721C63.0089 59.3021 63.4268 59.1971 63.8809 59.1971C64.335 59.1971 64.7367 59.3021 65.1021 59.4739M68.7151 45.4671C70.575 45.4671 72.3498 46.8512 72.3498 49.4275C72.3498 52.0038 70.575 53.4945 68.7151 53.4945C66.8552 53.4945 65.1021 52.0454 65.1021 49.4691C65.1021 46.8928 66.877 45.4671 68.7151 45.4671Z" fill="black"/>
<path d="M63.8719 60.0547C62.9854 60.0547 62.2924 60.7476 62.2924 61.6341C62.2924 62.5206 62.9854 63.2135 63.8719 63.2135C64.7584 63.2135 65.4296 62.5224 65.4296 61.6341C65.4296 60.7458 64.7367 60.0547 63.8719 60.0547Z" fill="black"/>
</g>
<defs>
<clipPath id="clip0_19_32">
<rect width="119.702" height="80.18" fill="white"/>
</clipPath>
</defs>
</svg>
