<svg width="696" height="230" viewBox="0 0 696 230" fill="none" xmlns="http://www.w3.org/2000/svg">
<path d="M18.5291 35.8001V43.9211H38.3528V56.9022H3.08398V1.16309H37.813V14.1442H18.5366V24.0929H35.9236V35.7932H18.5366L18.5291 35.8001Z" fill="#FCF9CA"/>
<path d="M61.0174 1.16309V43.9142H78.5693V56.8953H45.5723V1.16309H61.0174Z" fill="#FCF9CA"/>
<path d="M136.631 32.6085C139.548 33.46 141.429 36.0147 142.269 40.2656L145.508 56.9022H129.306L126.487 41.4703C125.924 38.881 124.282 37.5725 121.561 37.5448H120.803V56.9022H105.358V1.16309H126.487C131.705 1.16309 135.956 2.70697 139.24 5.78782C142.524 8.86866 144.166 13.0434 144.166 18.3051C144.166 24.5775 141.654 29.2161 136.631 32.2208V32.6085ZM123.038 26.3499C124.747 26.3499 126.149 25.7822 127.244 24.6398C128.339 23.4975 128.886 22.0505 128.886 20.2851C128.886 18.5197 128.339 16.9966 127.244 15.8542C126.149 14.7119 124.747 14.1442 123.038 14.1442H120.803V26.3499H123.038Z" fill="#FCF9CA"/>
<path d="M167.582 35.8001V43.9211H187.405V56.9022H152.129V1.16309H186.858V14.1442H167.582V24.0929H184.968V35.7932H167.582V35.8001Z" fill="#FCF9CA"/>
<path d="M218.235 45.126C220.761 45.126 223.633 43.9837 226.865 41.7059L229.811 54.7632C226.302 56.9925 221.586 58.1071 215.671 58.1071C208.488 58.1071 202.827 55.7948 198.689 51.17C194.55 46.5453 192.48 39.1651 192.48 29.0364C192.48 18.9077 194.55 11.5482 198.689 6.95813C202.827 2.37494 208.488 0.076416 215.671 0.076416C222.096 0.076416 226.512 0.789511 228.926 2.2157L225.223 14.8853C223.453 13.6668 221.121 13.0575 218.235 13.0575C215.011 13.0575 212.492 14.2206 210.677 16.5538C208.87 18.8869 207.963 23.0478 207.963 29.0295C207.963 35.0111 208.87 39.2551 210.677 41.6021C212.484 43.9491 215.003 45.1191 218.235 45.1191V45.126Z" fill="#FCF9CA"/>
<path d="M235.884 6.91633C239.813 2.30544 245.204 0 252.049 0C258.895 0 264.285 2.30544 268.214 6.91633C272.143 11.5272 274.107 18.9005 274.107 29.0292C274.107 39.1579 272.143 46.6073 268.214 51.2044C264.285 55.8014 258.895 58.0999 252.049 58.0999C245.204 58.0999 239.813 55.8014 235.884 51.2044C231.956 46.6073 229.991 39.2133 229.991 29.0292C229.991 18.8451 231.956 11.5272 235.884 6.91633ZM247.161 41.6641C248.285 43.9696 249.912 45.1257 252.042 45.1257C254.171 45.1257 255.798 43.9696 256.923 41.6641C258.047 39.3587 258.61 35.1493 258.61 29.0292C258.61 22.909 258.047 18.8035 256.923 16.4773C255.798 14.1442 254.171 12.9811 252.042 12.9811C249.912 12.9811 248.278 14.1442 247.161 16.4773C246.036 18.8105 245.474 22.9921 245.474 29.0292C245.474 35.0663 246.036 39.3587 247.161 41.6641Z" fill="#FCF9CA"/>
<path d="M303.956 23.4006V1.16309H319.364V56.9022H309.384L297.051 34.7893H296.886V56.9022H281.351V1.16309H291.367L303.656 23.3936H303.948L303.956 23.4006Z" fill="#FCF9CA"/>
<path d="M332.506 6.91633C336.435 2.30544 341.826 0 348.671 0C355.517 0 360.907 2.30544 364.836 6.91633C368.765 11.5272 370.729 18.9005 370.729 29.0292C370.729 39.1579 368.765 46.6073 364.836 51.2044C360.907 55.8014 355.517 58.0999 348.671 58.0999C341.826 58.0999 336.435 55.8014 332.506 51.2044C328.578 46.6073 326.613 39.2133 326.613 29.0292C326.613 18.8451 328.578 11.5272 332.506 6.91633ZM343.79 41.6641C344.915 43.9696 346.542 45.1257 348.671 45.1257C350.801 45.1257 352.428 43.9696 353.552 41.6641C354.677 39.3587 355.239 35.1493 355.239 29.0292C355.239 22.909 354.677 18.8035 353.552 16.4773C352.428 14.1442 350.801 12.9811 348.671 12.9811C346.542 12.9811 344.907 14.1442 343.79 16.4773C342.666 18.8105 342.103 22.9921 342.103 29.0292C342.103 35.0663 342.666 39.3587 343.79 41.6641Z" fill="#FCF9CA"/>
<path d="M401.589 45.126C404.116 45.126 406.988 43.9837 410.219 41.7059L413.166 54.7632C409.657 56.9925 404.941 58.1071 399.025 58.1071C391.842 58.1071 386.182 55.7948 382.043 51.17C377.904 46.5453 375.835 39.1651 375.835 29.0364C375.835 18.9077 377.904 11.5482 382.043 6.95813C386.182 2.37494 391.842 0.076416 399.025 0.076416C405.451 0.076416 409.867 0.789511 412.281 2.2157L408.577 14.8853C406.808 13.6668 404.476 13.0575 401.589 13.0575C398.365 13.0575 395.846 14.2206 394.032 16.5538C392.225 18.8869 391.318 23.0478 391.318 29.0295C391.318 35.0111 392.225 39.2551 394.032 41.6021C395.839 43.9491 398.358 45.1191 401.589 45.1191V45.126Z" fill="#FCF9CA"/>
<path d="M418.062 56.9022V1.16309H433.507V56.9022H418.062Z" fill="#FCF9CA"/>
<path d="M467.95 28.413L477.255 1.17001H493.127V56.9091H478.14V33.5085H477.757L469.675 56.9091H465.971L457.934 33.5085H457.596V56.9091H442.608V1.16309H458.481L467.785 28.4061H467.95V28.413Z" fill="#FCF9CA"/>
<path d="M502.229 56.9022V1.16309H517.675V56.9022H502.229Z" fill="#FCF9CA"/>
<path d="M542.478 35.8001V43.9211H562.302V56.9022H527.025V1.16309H561.754V14.1442H542.478V24.0929H559.865V35.7932H542.478V35.8001Z" fill="#FCF9CA"/>
<path d="M592.119 23.4006V1.16309H607.527V56.9022H597.547L585.214 34.7893H585.049V56.9022H569.514V1.16309H579.531L591.819 23.3936H592.112L592.119 23.4006Z" fill="#FCF9CA"/>
<path d="M612.798 14.1511V1.16309H650.301V14.1442H639.227V56.8953H623.819V14.1511H612.79H612.798Z" fill="#FCF9CA"/>
<path d="M656.794 6.91633C660.722 2.30544 666.113 0 672.958 0C679.804 0 685.194 2.30544 689.123 6.91633C693.052 11.5272 695.016 18.9005 695.016 29.0292C695.016 39.1579 693.052 46.6073 689.123 51.2044C685.194 55.8014 679.804 58.0999 672.958 58.0999C666.113 58.0999 660.722 55.8014 656.794 51.2044C652.865 46.6073 650.9 39.2133 650.9 29.0292C650.9 18.8451 652.865 11.5272 656.794 6.91633ZM668.077 41.6641C669.202 43.9696 670.829 45.1257 672.958 45.1257C675.088 45.1257 676.715 43.9696 677.839 41.6641C678.964 39.3587 679.526 35.1493 679.526 29.0292C679.526 22.909 678.964 18.8035 677.839 16.4773C676.715 14.1442 675.088 12.9811 672.958 12.9811C670.829 12.9811 669.195 14.1442 668.077 16.4773C666.953 18.8105 666.39 22.9921 666.39 29.0292C666.39 35.0663 666.953 39.3587 668.077 41.6641Z" fill="#FCF9CA"/>
<path d="M25.6893 106.48V84.249H41.0969V139.988H31.1176L18.784 117.875H18.6191V139.988H3.08398V84.249H13.1008L25.3894 106.48H25.6818H25.6893Z" fill="#FCF9CA"/>
<path d="M55.5289 89.9954C59.4576 85.3845 64.8484 83.0791 71.6937 83.0791C78.5391 83.0791 83.9299 85.3845 87.8586 89.9954C91.7874 94.6063 93.7517 101.98 93.7517 112.108C93.7517 122.237 91.7874 129.686 87.8586 134.283C83.9299 138.881 78.5391 141.179 71.6937 141.179C64.8484 141.179 59.4576 138.881 55.5289 134.283C51.6001 129.686 49.6357 122.292 49.6357 112.108C49.6357 101.924 51.6001 94.6063 55.5289 89.9954ZM66.8128 124.743C67.9374 127.049 69.5644 128.205 71.6937 128.205C73.8231 128.205 75.4501 127.049 76.5747 124.743C77.6993 122.438 78.2617 118.228 78.2617 112.108C78.2617 105.988 77.6993 101.883 76.5747 99.5564C75.4501 97.2233 73.8231 96.0602 71.6937 96.0602C69.5644 96.0602 67.9299 97.2233 66.8128 99.5564C65.6882 101.89 65.1258 106.071 65.1258 112.108C65.1258 118.145 65.6882 122.438 66.8128 124.743Z" fill="#FCF9CA"/>
<path d="M140.05 118.879V127H159.874V139.981H124.598V84.2422H159.327V97.2233H140.05V107.172H157.437V118.872H140.05V118.879Z" fill="#FCF9CA"/>
<path d="M190.187 107.096C195.405 110.024 198.944 112.8 200.796 115.431C202.648 118.062 203.577 121.15 203.577 124.701C203.577 129.7 201.77 133.702 198.149 136.692C194.528 139.683 189.579 141.179 183.289 141.179C175.934 141.179 169.905 139.586 165.189 136.395L168.218 124.189C172.875 127.27 177.298 128.814 181.474 128.814C185.905 128.814 188.125 127.443 188.125 124.694C188.125 123.58 187.592 122.465 186.528 121.351C185.463 120.236 183.356 118.824 180.215 117.113C175.274 114.524 171.727 111.796 169.568 108.93C167.409 106.064 166.329 102.72 166.329 98.8846C166.329 94.1145 168.151 90.2859 171.802 87.3989C175.446 84.5119 180.29 83.0649 186.325 83.0649C192.361 83.0649 197.564 84.0757 201.943 86.0973L200.218 98.4969C198.959 97.7422 197.174 97.0153 194.873 96.3022C192.571 95.5891 190.464 95.236 188.56 95.236C184.181 95.236 182.007 96.586 182.037 99.2792C182.037 100.546 182.711 101.785 184.053 102.99C185.403 104.195 187.45 105.559 190.202 107.089L190.187 107.096Z" fill="#FCF9CA"/>
<path d="M17.06 205.544V213.659H37.0311V226.631H1.5V170.933H36.4873V183.905H17.0675V193.846H34.5838V205.538H17.0675L17.06 205.544Z" stroke="#FCF9CA" stroke-width="3" stroke-miterlimit="10"/>
<path d="M67.8058 193.235C73.0274 196.187 76.5685 198.986 78.4216 201.638C80.2747 204.289 81.205 207.402 81.205 210.982C81.205 216.021 79.3969 220.054 75.7733 223.069C72.1497 226.084 67.1981 227.591 60.9036 227.591C53.5438 227.591 47.5119 225.986 42.793 222.769L45.8239 210.466C50.4829 213.571 54.9093 215.127 59.0881 215.127C63.522 215.127 65.7427 213.745 65.7427 210.975C65.7427 209.851 65.21 208.728 64.1446 207.604C63.0793 206.481 60.9712 205.057 57.8277 203.333C52.8836 200.723 49.335 197.974 47.1743 195.085C45.0137 192.196 43.9333 188.825 43.9333 184.959C43.9333 180.151 45.7564 176.291 49.41 173.381C53.0562 170.471 57.9027 169.013 63.9421 169.013C69.9815 169.013 75.1881 170.032 79.5695 172.069L77.8439 184.568C76.5835 183.807 74.798 183.075 72.4948 182.356C70.1915 181.637 68.0834 181.281 66.1778 181.281C61.7964 181.281 59.6207 182.642 59.6507 185.357C59.6507 186.634 60.326 187.883 61.6689 189.097C63.0193 190.311 65.0674 191.686 67.8208 193.228L67.8058 193.235Z" stroke="#FCF9CA" stroke-width="3" stroke-miterlimit="10"/>
<path d="M142.508 197.187C145.535 198.301 147.913 200.058 149.659 202.452C151.398 204.846 152.267 207.717 152.267 211.058C152.267 215.562 150.582 219.284 147.22 222.224C143.85 225.164 139.603 226.631 134.464 226.631H112.895V170.933H132.802C138.108 170.933 142.393 172.289 145.641 174.994C148.897 177.699 150.521 181.255 150.521 185.655C150.521 190.705 147.852 194.42 142.515 196.8V197.187H142.508ZM128.601 183.358V193.922H130.957C132.184 193.922 133.175 193.417 133.93 192.407C134.685 191.397 135.066 190.131 135.066 188.602C135.066 187.073 134.685 185.821 133.93 184.832C133.175 183.849 132.184 183.358 130.957 183.358H128.601ZM131.727 214.31C133.122 214.31 134.25 213.818 135.112 212.836C135.966 211.854 136.393 210.581 136.393 209.031C136.393 207.482 135.966 206.167 135.112 205.185C134.258 204.202 133.13 203.711 131.727 203.711H128.601V214.317H131.727V214.31Z" stroke="#FCF9CA" stroke-width="3" stroke-miterlimit="10"/>
<path d="M183.402 210.692V170.933H198.362V209.996C198.362 215.335 196.648 219.599 193.227 222.796C189.8 225.993 185.421 227.591 180.076 227.591C174.731 227.591 170.367 225.993 166.968 222.796C163.569 219.599 161.87 215.335 161.87 209.996V170.933H176.83V210.692C176.83 211.849 177.135 212.807 177.745 213.551C178.355 214.302 179.132 214.674 180.069 214.674C181.005 214.674 181.797 214.302 182.436 213.551C183.075 212.807 183.395 211.849 183.395 210.692H183.402Z" stroke="#FCF9CA" stroke-width="3" stroke-miterlimit="10"/>
<path d="M225.449 205.544V213.659H245.416V226.631H209.885V170.933H244.865V183.905H225.449V193.846H242.962V205.538H225.449V205.544Z" stroke="#FCF9CA" stroke-width="3" stroke-miterlimit="10"/>
<path d="M277.861 193.147V170.933H293.431V226.631H283.346L270.883 204.534H270.717V226.631H255.019V170.933H265.141L277.558 193.147H277.854H277.861Z" stroke="#FCF9CA" stroke-width="3" stroke-miterlimit="10"/>
<path d="M312.101 170.933H331.344L344.327 226.631H328.92L327.5 218.281H316.019L314.554 226.631H299.192L312.093 170.933H312.101ZM318.071 206.9H325.418L321.908 187.834H321.492L318.071 206.9Z" stroke="#FCF9CA" stroke-width="3" stroke-miterlimit="10"/>
<path d="M387.367 214.062C389.893 214.062 392.765 212.92 395.996 210.642L398.943 223.699C395.434 225.929 390.718 227.043 384.802 227.043C377.62 227.043 371.959 224.731 367.82 220.106C363.682 215.482 361.612 208.101 361.612 197.973C361.612 187.844 363.682 180.485 367.82 175.894C371.959 171.311 377.62 169.013 384.802 169.013C391.228 169.013 395.644 169.726 398.058 171.152L394.354 183.822C392.585 182.603 390.253 181.994 387.367 181.994C384.143 181.994 381.623 183.157 379.809 185.49C378.002 187.823 377.095 191.984 377.095 197.966C377.095 203.947 378.002 208.191 379.809 210.538C381.616 212.885 384.135 214.055 387.367 214.055V214.062Z" fill="#FCF9CA"/>
<path d="M428.221 210.061V170.107H443.666V209.362C443.666 214.727 441.896 219.013 438.365 222.225C434.826 225.437 430.305 227.043 424.787 227.043C419.269 227.043 414.762 225.437 411.254 222.225C407.745 219.013 405.99 214.727 405.99 209.362V170.107H421.435V210.061C421.435 211.224 421.75 212.186 422.38 212.934C423.01 213.689 423.812 214.062 424.779 214.062C425.746 214.062 426.564 213.689 427.224 212.934C427.883 212.186 428.213 211.224 428.213 210.061H428.221Z" fill="#FCF9CA"/>
<path d="M470.628 170.1V212.851H488.18V225.832H455.183V170.093H470.628V170.1Z" fill="#FCF9CA"/>
<path d="M483.022 183.088V170.107H520.525V183.088H509.451V225.839H494.044V183.088H483.015H483.022Z" fill="#FCF9CA"/>
<path d="M550.133 210.061V170.107H565.578V209.362C565.578 214.727 563.808 219.013 560.277 222.225C556.738 225.437 552.217 227.043 546.699 227.043C541.181 227.043 536.675 225.437 533.166 222.225C529.657 219.013 527.902 214.727 527.902 209.362V170.107H543.347V210.061C543.347 211.224 543.662 212.186 544.292 212.934C544.922 213.689 545.724 214.062 546.691 214.062C547.659 214.062 548.476 213.689 549.136 212.934C549.795 212.186 550.125 211.224 550.125 210.061H550.133Z" fill="#FCF9CA"/>
<path d="M608.366 201.545C611.283 202.397 613.165 204.952 614.005 209.202L617.244 225.839H601.041L598.222 210.407C597.66 207.818 596.018 206.509 593.296 206.482H592.539V225.839H577.094V170.1H598.222C603.44 170.1 607.692 171.644 610.976 174.725C614.259 177.805 615.901 181.98 615.901 187.242C615.901 193.514 613.39 198.153 608.366 201.158V201.545ZM594.773 195.287C596.483 195.287 597.885 194.719 598.979 193.577C600.074 192.434 600.621 190.987 600.621 189.222C600.621 187.456 600.074 185.933 598.979 184.791C597.885 183.649 596.483 183.081 594.773 183.081H592.539V195.287H594.773Z" fill="#FCF9CA"/>
<path d="M633.941 170.1H653.345L666.436 225.839H650.901L649.469 217.483H637.892L636.423 225.839H620.933L633.941 170.1ZM639.962 206.094H647.369L643.83 187.013H643.41L639.962 206.094Z" fill="#FCF9CA"/>
<path d="M685.082 224.69C683.388 226.254 681.386 227.044 679.084 227.044C676.783 227.044 674.781 226.248 673.086 224.655C671.392 223.063 670.537 221.2 670.537 219.075C670.537 216.95 671.384 215.115 673.086 213.578C674.781 212.034 676.783 211.266 679.084 211.266C681.386 211.266 683.455 212.034 685.127 213.578C686.799 215.122 687.632 216.957 687.632 219.075C687.632 221.194 686.784 223.125 685.082 224.69Z" fill="#FCF9CA"/>
<path d="M259.172 110.029C262.148 111.144 264.487 112.903 266.204 115.298C267.914 117.693 268.769 120.567 268.769 123.91C268.769 128.418 267.112 132.142 263.805 135.085C260.491 138.027 256.315 139.495 251.262 139.495H230.051V83.7556H249.627C254.845 83.7556 259.059 85.1126 262.253 87.8196C265.455 90.5266 267.052 94.0851 267.052 98.4883C267.052 103.542 264.427 107.26 259.179 109.642V110.029H259.172ZM245.496 96.1898V106.762H247.813C249.02 106.762 249.994 106.256 250.737 105.245C251.479 104.235 251.854 102.968 251.854 101.438C251.854 99.9076 251.479 98.6545 250.737 97.6644C249.994 96.6813 249.02 96.1898 247.813 96.1898H245.496ZM248.57 127.164C249.942 127.164 251.052 126.673 251.899 125.69C252.739 124.707 253.158 123.433 253.158 121.882C253.158 120.331 252.739 119.016 251.899 118.033C251.059 117.05 249.949 116.558 248.57 116.558H245.496V127.171H248.57V127.164Z" fill="#FCF9CA"/>
<path d="M299.666 123.71V83.7556H315.111V123.01C315.111 128.376 313.342 132.661 309.81 135.874C306.271 139.086 301.75 140.692 296.232 140.692C290.714 140.692 286.208 139.086 282.699 135.874C279.19 132.661 277.436 128.376 277.436 123.01V83.7556H292.881V123.71C292.881 124.873 293.196 125.835 293.825 126.583C294.455 127.337 295.257 127.711 296.225 127.711C297.192 127.711 298.009 127.337 298.669 126.583C299.329 125.835 299.659 124.873 299.659 123.71H299.666Z" fill="#FCF9CA"/>
<path d="M341.212 118.386V126.507H361.036V139.488H325.76V83.7485H360.489V96.7296H341.212V106.678H358.599V118.379H341.212V118.386Z" fill="#FCF9CA"/>
<path d="M392.143 105.986V83.7556H407.551V139.495H397.572L385.238 117.382H385.073V139.495H369.538V83.7556H379.555L391.844 105.986H392.136H392.143Z" fill="#FCF9CA"/>
<path d="M425.395 83.7485H444.799L457.889 139.488H442.354L440.922 131.131H429.346L427.869 139.488H412.379L425.387 83.7485H425.395ZM431.415 119.743H438.823L435.284 100.662H434.864L431.415 119.743Z" fill="#FCF9CA"/>
<path d="M488.742 89.502C492.671 84.8911 498.061 82.5857 504.907 82.5857C511.752 82.5857 517.143 84.8911 521.072 89.502C525 94.1129 526.965 101.486 526.965 111.615C526.965 121.744 525 129.193 521.072 133.79C517.143 138.387 511.752 140.686 504.907 140.686C498.061 140.686 492.671 138.387 488.742 133.79C484.813 129.193 482.849 121.799 482.849 111.615C482.849 101.431 484.813 94.1129 488.742 89.502ZM500.026 124.25C501.15 126.555 502.777 127.711 504.907 127.711C507.036 127.711 508.663 126.555 509.788 124.25C510.912 121.944 511.475 117.735 511.475 111.615C511.475 105.495 510.912 101.389 509.788 99.063C508.663 96.7299 507.036 95.5668 504.907 95.5668C502.777 95.5668 501.143 96.7299 500.026 99.063C498.901 101.396 498.339 105.578 498.339 111.615C498.339 117.652 498.901 121.944 500.026 124.25Z" fill="#FCF9CA"/>
<path d="M558.11 105.986V83.7556H573.518V139.495H563.539L551.205 117.382H551.04V139.495H535.505V83.7556H545.522L557.81 105.986H558.103H558.11Z" fill="#FCF9CA"/>
<path d="M603.193 83.7486C609.506 83.7486 614.694 86.3656 618.743 91.5996C622.799 96.8336 624.824 103.515 624.824 111.635C624.824 119.756 622.799 126.43 618.743 131.651C614.687 136.871 609.506 139.481 603.193 139.481H584.209V83.7417H603.193V83.7486ZM600.921 126.507C603.388 126.507 605.405 125.115 606.964 122.325C608.524 119.542 609.304 115.969 609.304 111.615C609.304 107.26 608.524 103.695 606.964 100.904C605.405 98.1213 603.395 96.7228 600.921 96.7228H599.662V126.493H600.921V126.507Z" fill="#FCF9CA"/>
<path d="M639.181 83.7485H658.585L671.676 139.488H656.141L654.709 131.131H643.132L641.663 139.488H626.173L639.181 83.7485ZM645.202 119.743H652.609L649.071 100.662H648.651L645.202 119.743Z" fill="#FCF9CA"/>
<path d="M682.659 126.043C685.238 126.043 687.428 126.915 689.227 128.667C691.019 130.418 691.919 132.779 691.919 135.763C691.919 139.107 690.989 142.236 689.137 145.151C687.285 148.066 684.759 150.558 681.557 152.635L675.791 148.322C677.336 147.622 678.88 146.494 680.425 144.943C681.969 143.385 683.004 141.869 683.537 140.395C682.832 140.602 682.119 140.706 681.392 140.706C679.375 140.706 677.688 140.062 676.339 138.782C674.989 137.501 674.314 135.832 674.314 133.79C674.314 131.747 675.139 129.844 676.796 128.327C678.453 126.811 680.403 126.057 682.644 126.057L682.659 126.043Z" fill="#FCF9CA"/>
</svg>
