<svg width="1728" height="834" viewBox="0 0 1728 834" fill="none" xmlns="http://www.w3.org/2000/svg">
<g clip-path="url(#clip0_14_253)">
<rect width="1728" height="834" fill="white"/>
<rect x="728.5" y="630.5" width="342" height="98" rx="49" stroke="black" stroke-linejoin="round"/>
<path d="M827.429 690.624H827.566L830.94 666.091H839.271L833.992 699H820.98L815.725 666.091H824.032L827.429 690.624ZM859.81 686.539H850.332V691.335H861.141V699H841.91V666.091H860.843V673.756H850.332V679.631H859.81V686.539ZM882.828 684.427V684.657C884.419 685.162 885.444 686.669 885.903 689.178L887.67 699H878.835L877.297 689.889C877.007 688.375 876.112 687.602 874.612 687.571H874.199V699H865.777V666.091H877.297C880.143 666.091 882.461 667.001 884.251 668.822C886.041 670.627 886.936 673.09 886.936 676.211C886.936 679.914 885.567 682.653 882.828 684.427ZM874.199 680.962H875.416C876.349 680.962 877.114 680.625 877.71 679.952C878.307 679.279 878.605 678.422 878.605 677.382C878.605 676.311 878.307 675.439 877.71 674.766C877.114 674.092 876.349 673.756 875.416 673.756H874.199V680.962ZM917.734 682.178H917.826L922.897 666.091H931.549V699H923.379V685.185H923.173L918.767 699H916.747L912.364 685.185H912.18V699H904.01V666.091H912.662L917.734 682.178ZM933.913 699L941.004 666.091H951.584L958.721 699H950.253L949.473 694.066H943.162L942.358 699H933.913ZM946.168 676.074L944.286 687.342H948.325L946.397 676.074H946.168ZM943.345 663.291L947.637 654.915H954.774L948.669 663.291H943.345ZM973.225 679.585C976.056 681.299 977.983 682.936 979.008 684.496C980.018 686.057 980.523 687.885 980.523 689.981C980.523 692.934 979.536 695.29 977.562 697.049C975.574 698.824 972.873 699.711 969.461 699.711C965.453 699.711 962.164 698.771 959.593 696.889L961.246 689.683C963.801 691.503 966.21 692.414 968.475 692.414C970.892 692.414 972.101 691.603 972.101 689.981C972.101 689.338 971.81 688.681 971.229 688.007C970.662 687.365 969.515 686.531 967.786 685.506C965.063 683.945 963.127 682.331 961.98 680.664C960.802 678.981 960.213 677.007 960.213 674.743C960.213 671.928 961.207 669.663 963.196 667.95C965.185 666.251 967.824 665.402 971.114 665.402C974.403 665.402 977.241 665.999 979.628 667.192L978.687 674.513C977.983 674.069 977.012 673.633 975.772 673.205C974.518 672.792 973.37 672.585 972.33 672.585C971.137 672.585 970.242 672.784 969.645 673.182C969.048 673.58 968.758 674.177 968.773 674.972C968.773 675.691 969.125 676.403 969.829 677.106C970.532 677.81 971.665 678.636 973.225 679.585Z" fill="black"/>
<rect width="1728" height="834" fill="#FFFF7A"/>
<path d="M31.5041 694.843L42.6677 664L43.7546 696.788L63.908 670.898L54.812 702.419L81.9774 684.031L63.5811 711.196L95.1024 702.092L69.2201 722.245L102 723.332L71.157 734.504L102 745.668L69.2201 746.755L95.1024 766.908L63.5811 757.812L81.9774 784.977L54.812 766.581L63.908 798.102L43.7546 772.212L42.6677 805L31.5041 774.157L20.3323 805L19.2453 772.212L-0.899838 798.102L8.19615 766.581L-18.9692 784.977L-0.581123 757.812L-32.0942 766.908L-6.21196 746.755L-39 745.668L-8.15701 734.504L-39 723.332L-6.21196 722.245L-32.0942 702.092L-0.581123 711.196L-18.9692 684.031L8.19615 702.419L-0.899838 670.898L19.2453 696.788L20.3323 664L31.5041 694.843Z" stroke="black" stroke-width="0.88" stroke-miterlimit="10"/>
<path d="M2006 441H1784.16L1569 225H1790.84L1898.42 333L2006 441Z" stroke="#1A1A1A" stroke-miterlimit="10"/>
</g>
<defs>
<clipPath id="clip0_14_253">
<rect width="1728" height="834" fill="white"/>
</clipPath>
</defs>
</svg>
