<svg width="812" height="306" viewBox="0 0 812 306" fill="none" xmlns="http://www.w3.org/2000/svg">
<g clip-path="url(#clip0_379_4)">
<path d="M19.2684 41.6311V51.0748H42.3209V66.1702H1.30762V1.35254H41.6931V16.448H19.2771V28.0171H39.496V41.6231H19.2771L19.2684 41.6311Z" fill="#1A1A1A"/>
<path d="M68.6785 1.35254V51.0668H89.0892V66.1622H50.7178V1.35254H68.6785Z" fill="#1A1A1A"/>
<path d="M156.607 37.9197C159.999 38.9099 162.187 41.8807 163.164 46.8239L166.93 66.1702H148.089L144.811 48.2248C144.157 45.2138 142.247 43.6922 139.083 43.6599H138.202V66.1702H120.241V1.35254H144.811C150.879 1.35254 155.823 3.14789 159.642 6.73053C163.46 10.3132 165.37 15.1679 165.37 21.2865C165.37 28.5806 162.449 33.9747 156.607 37.4688V37.9197ZM140.8 30.6417C142.788 30.6417 144.418 29.9815 145.691 28.6531C146.964 27.3247 147.601 25.6421 147.601 23.5891C147.601 21.5361 146.964 19.7649 145.691 18.4365C144.418 17.1081 142.788 16.448 140.8 16.448H138.202V30.6417H140.8Z" fill="#1A1A1A"/>
<path d="M192.598 41.6311V51.0748H215.651V66.1702H174.629V1.35254H215.014V16.448H192.598V28.0171H212.817V41.6231H192.598V41.6311Z" fill="#1A1A1A"/>
<path d="M251.503 52.476C254.441 52.476 257.78 51.1476 261.538 48.4989L264.965 63.6828C260.884 66.2752 255.4 67.5714 248.521 67.5714C240.168 67.5714 233.586 64.8824 228.773 59.5044C223.96 54.1264 221.554 45.5442 221.554 33.7657C221.554 21.9873 223.96 13.4292 228.773 8.09145C233.586 2.76176 240.168 0.0888672 248.521 0.0888672C255.993 0.0888672 261.128 0.918109 263.936 2.57659L259.629 17.3097C257.571 15.8928 254.86 15.1843 251.503 15.1843C247.754 15.1843 244.824 16.5368 242.714 19.25C240.613 21.9631 239.558 26.8017 239.558 33.7577C239.558 40.7136 240.613 45.6488 242.714 48.3781C244.815 51.1073 247.745 52.4679 251.503 52.4679V52.476Z" fill="#1A1A1A"/>
<path d="M272.027 8.04283C276.595 2.68094 282.864 0 290.825 0C298.785 0 305.054 2.68094 309.622 8.04283C314.191 13.4047 316.475 21.9789 316.475 33.7574C316.475 45.5358 314.191 54.1986 309.622 59.5443C305.054 64.8901 298.785 67.563 290.825 67.563C282.864 67.563 276.595 64.8901 272.027 59.5443C267.458 54.1986 265.174 45.6002 265.174 33.7574C265.174 21.9145 267.458 13.4047 272.027 8.04283ZM285.14 48.4502C286.448 51.1312 288.34 52.4757 290.816 52.4757C293.292 52.4757 295.184 51.1312 296.492 48.4502C297.8 45.7693 298.454 40.8743 298.454 33.7574C298.454 26.6404 297.8 21.8662 296.492 19.1611C295.184 16.448 293.292 15.0954 290.816 15.0954C288.34 15.0954 286.439 16.448 285.14 19.1611C283.832 21.8743 283.178 26.737 283.178 33.7574C283.178 40.7777 283.832 45.7693 285.14 48.4502Z" fill="#1A1A1A"/>
<path d="M351.185 27.212V1.35254H369.102V66.1702H357.497L343.155 40.4557H342.963V66.1702H324.897V1.35254H336.546L350.836 27.2039H351.176L351.185 27.212Z" fill="#1A1A1A"/>
<path d="M384.386 8.04283C388.955 2.68094 395.224 0 403.184 0C411.144 0 417.413 2.68094 421.982 8.04283C426.55 13.4047 428.835 21.9789 428.835 33.7574C428.835 45.5358 426.55 54.1986 421.982 59.5443C417.413 64.8901 411.144 67.563 403.184 67.563C395.224 67.563 388.955 64.8901 384.386 59.5443C379.818 54.1986 377.533 45.6002 377.533 33.7574C377.533 21.9145 379.818 13.4047 384.386 8.04283ZM397.508 48.4502C398.816 51.1312 400.708 52.4757 403.184 52.4757C405.66 52.4757 407.552 51.1312 408.86 48.4502C410.168 45.7693 410.822 40.8743 410.822 33.7574C410.822 26.6404 410.168 21.8662 408.86 19.1611C407.552 16.448 405.66 15.0954 403.184 15.0954C400.708 15.0954 398.807 16.448 397.508 19.1611C396.2 21.8743 395.546 26.737 395.546 33.7574C395.546 40.7777 396.2 45.7693 397.508 48.4502Z" fill="#1A1A1A"/>
<path d="M464.722 52.476C467.66 52.476 470.999 51.1476 474.757 48.4989L478.183 63.6828C474.103 66.2752 468.619 67.5714 461.74 67.5714C453.387 67.5714 446.804 64.8824 441.992 59.5044C437.179 54.1264 434.772 45.5442 434.772 33.7657C434.772 21.9873 437.179 13.4292 441.992 8.09145C446.804 2.76176 453.387 0.0888672 461.74 0.0888672C469.212 0.0888672 474.347 0.918109 477.155 2.57659L472.848 17.3097C470.79 15.8928 468.078 15.1843 464.722 15.1843C460.972 15.1843 458.043 16.5368 455.933 19.25C453.832 21.9631 452.777 26.8017 452.777 33.7577C452.777 40.7136 453.832 45.6488 455.933 48.3781C458.034 51.1073 460.964 52.4679 464.722 52.4679V52.476Z" fill="#1A1A1A"/>
<path d="M483.876 66.1702V1.35254H501.837V66.1702H483.876Z" fill="#1A1A1A"/>
<path d="M541.891 33.0408L552.712 1.36059H571.169V66.1783H553.74V38.9663H553.296L543.897 66.1783H539.59L530.243 38.9663H529.851V66.1783H512.422V1.35254H530.88L541.7 33.0328H541.891V33.0408Z" fill="#1A1A1A"/>
<path d="M581.754 66.1702V1.35254H599.715V66.1702H581.754Z" fill="#1A1A1A"/>
<path d="M628.556 41.6311V51.0748H651.609V66.1702H610.587V1.35254H650.972V16.448H628.556V28.0171H648.775V41.6231H628.556V41.6311Z" fill="#1A1A1A"/>
<path d="M686.283 27.212V1.35254H704.2V66.1702H692.596L678.253 40.4557H678.061V66.1702H659.996V1.35254H671.644L685.935 27.2039H686.275L686.283 27.212Z" fill="#1A1A1A"/>
<path d="M710.33 16.456V1.35254H753.941V16.448H741.064V66.1622H723.147V16.456H710.321H710.33Z" fill="#1A1A1A"/>
<path d="M761.492 8.04283C766.06 2.68094 772.329 0 780.289 0C788.25 0 794.518 2.68094 799.087 8.04283C803.656 13.4047 805.94 21.9789 805.94 33.7574C805.94 45.5358 803.656 54.1986 799.087 59.5443C794.518 64.8901 788.25 67.563 780.289 67.563C772.329 67.563 766.06 64.8901 761.492 59.5443C756.923 54.1986 754.639 45.6002 754.639 33.7574C754.639 21.9145 756.923 13.4047 761.492 8.04283ZM774.613 48.4502C775.921 51.1312 777.813 52.4757 780.289 52.4757C782.766 52.4757 784.658 51.1312 785.965 48.4502C787.273 45.7693 787.927 40.8743 787.927 33.7574C787.927 26.6404 787.273 21.8662 785.965 19.1611C784.658 16.448 782.766 15.0954 780.289 15.0954C777.813 15.0954 775.913 16.448 774.613 19.1611C773.306 21.8743 772.652 26.737 772.652 33.7574C772.652 40.7777 773.306 45.7693 774.613 48.4502Z" fill="#1A1A1A"/>
<path d="M27.5948 123.823V97.9712H45.512V162.789H33.9072L19.5648 137.074H19.373V162.789H1.30762V97.9712H12.9559L27.2461 123.823H27.5861H27.5948Z" fill="#1A1A1A"/>
<path d="M62.2963 104.653C66.865 99.2915 73.1338 96.6106 81.0941 96.6106C89.0544 96.6106 95.3232 99.2915 99.8918 104.653C104.46 110.015 106.745 118.59 106.745 130.368C106.745 142.146 104.46 150.809 99.8918 156.155C95.3232 161.501 89.0544 164.174 81.0941 164.174C73.1338 164.174 66.865 161.501 62.2963 156.155C57.7277 150.809 55.4434 142.211 55.4434 130.368C55.4434 118.525 57.7277 110.015 62.2963 104.653ZM75.4181 145.061C76.726 147.742 78.618 149.086 81.0941 149.086C83.5702 149.086 85.4622 147.742 86.77 145.061C88.0779 142.38 88.7318 137.485 88.7318 130.368C88.7318 123.251 88.0779 118.477 86.77 115.772C85.4622 113.059 83.5702 111.706 81.0941 111.706C78.618 111.706 76.7173 113.059 75.4181 115.772C74.1103 118.485 73.4564 123.348 73.4564 130.368C73.4564 137.388 74.1103 142.38 75.4181 145.061Z" fill="#1A1A1A"/>
<path d="M160.583 138.242V147.685H183.635V162.781H142.613V97.9631H182.999V113.059H160.583V124.628H180.802V138.234H160.583V138.242Z" fill="#1A1A1A"/>
<path d="M218.886 124.539C224.954 127.945 229.069 131.173 231.223 134.232C233.377 137.292 234.458 140.882 234.458 145.013C234.458 150.825 232.356 155.479 228.145 158.957C223.934 162.435 218.18 164.174 210.865 164.174C202.311 164.174 195.302 162.322 189.817 158.61L193.34 144.417C198.754 147.999 203.898 149.795 208.755 149.795C213.907 149.795 216.488 148.201 216.488 145.004C216.488 143.708 215.869 142.412 214.631 141.116C213.393 139.82 210.943 138.177 207.29 136.189C201.544 133.178 197.42 130.006 194.909 126.673C192.398 123.34 191.143 119.451 191.143 114.991C191.143 109.444 193.261 104.992 197.507 101.634C201.745 98.2771 207.377 96.5945 214.396 96.5945C221.414 96.5945 227.465 97.7699 232.557 100.121L230.552 114.54C229.087 113.662 227.012 112.817 224.335 111.988C221.658 111.159 219.208 110.748 216.994 110.748C211.902 110.748 209.374 112.318 209.409 115.45C209.409 116.923 210.193 118.364 211.754 119.765C213.323 121.166 215.704 122.752 218.903 124.531L218.886 124.539Z" fill="#1A1A1A"/>
<path d="M303.754 128.524C307.216 129.82 309.936 131.865 311.933 134.651C313.921 137.437 314.915 140.778 314.915 144.666C314.915 149.907 312.988 154.239 309.143 157.66C305.289 161.082 300.433 162.789 294.556 162.789H269.891V97.9712H292.655C298.724 97.9712 303.624 99.5492 307.338 102.697C311.061 105.845 312.918 109.983 312.918 115.103C312.918 120.981 309.866 125.304 303.763 128.073V128.524H303.754ZM287.851 112.431V124.724H290.545C291.949 124.724 293.083 124.137 293.946 122.961C294.809 121.786 295.245 120.312 295.245 118.533C295.245 116.754 294.809 115.297 293.946 114.145C293.083 113.002 291.949 112.431 290.545 112.431H287.851ZM291.426 148.45C293.022 148.45 294.312 147.879 295.297 146.735C296.274 145.592 296.762 144.111 296.762 142.307C296.762 140.504 296.274 138.974 295.297 137.831C294.321 136.688 293.03 136.116 291.426 136.116H287.851V148.458H291.426V148.45Z" fill="#1A1A1A"/>
<path d="M350.844 144.433V97.9712H368.805V143.62C368.805 149.859 366.748 154.843 362.641 158.578C358.526 162.314 353.268 164.182 346.851 164.182C340.434 164.182 335.194 162.314 331.114 158.578C327.033 154.843 324.993 149.859 324.993 143.62V97.9712H342.954V144.433C342.954 145.785 343.32 146.904 344.052 147.774C344.785 148.652 345.718 149.086 346.842 149.086C347.967 149.086 348.918 148.652 349.685 147.774C350.452 146.904 350.836 145.785 350.836 144.433H350.844Z" fill="#1A1A1A"/>
<path d="M399.156 138.242V147.685H422.209V162.781H381.187V97.9631H421.572V113.059H399.156V124.628H419.375V138.234H399.156V138.242Z" fill="#1A1A1A"/>
<path d="M458.383 123.823V97.9712H476.3V162.789H464.695L450.353 137.074H450.161V162.789H432.096V97.9712H443.744L458.034 123.823H458.374H458.383Z" fill="#1A1A1A"/>
<path d="M497.051 97.9631H519.615L534.838 162.781H516.773L515.108 153.063H501.646L499.928 162.781H481.915L497.042 97.9631H497.051ZM504.052 139.82H512.666L508.551 117.631H508.063L504.052 139.82Z" fill="#1A1A1A"/>
<path d="M570.715 104.653C575.284 99.2915 581.553 96.6106 589.513 96.6106C597.473 96.6106 603.742 99.2915 608.311 104.653C612.879 110.015 615.164 118.59 615.164 130.368C615.164 142.146 612.879 150.809 608.311 156.155C603.742 161.501 597.473 164.174 589.513 164.174C581.553 164.174 575.284 161.501 570.715 156.155C566.147 150.809 563.862 142.211 563.862 130.368C563.862 118.525 566.147 110.015 570.715 104.653ZM583.837 145.061C585.145 147.742 587.037 149.086 589.513 149.086C591.989 149.086 593.881 147.742 595.189 145.061C596.497 142.38 597.151 137.485 597.151 130.368C597.151 123.251 596.497 118.477 595.189 115.772C593.881 113.059 591.989 111.706 589.513 111.706C587.037 111.706 585.136 113.059 583.837 115.772C582.529 118.485 581.875 123.348 581.875 130.368C581.875 137.388 582.529 142.38 583.837 145.061Z" fill="#1A1A1A"/>
<path d="M651.382 123.823V97.9712H669.299V162.789H657.694L643.352 137.074H643.16V162.789H625.095V97.9712H636.743L651.033 123.823H651.373H651.382Z" fill="#1A1A1A"/>
<path d="M703.808 97.9631C711.15 97.9631 717.183 101.006 721.891 107.093C726.608 113.179 728.962 120.948 728.962 130.392C728.962 139.836 726.608 147.597 721.891 153.667C717.174 159.738 711.15 162.773 703.808 162.773H681.732V97.9551H703.808V97.9631ZM701.167 147.685C704.035 147.685 706.381 146.067 708.194 142.823C710.008 139.586 710.914 135.432 710.914 130.368C710.914 125.304 710.008 121.158 708.194 117.913C706.381 114.677 704.044 113.05 701.167 113.05H699.702V147.669H701.167V147.685Z" fill="#1A1A1A"/>
<path d="M745.658 97.9631H768.223L783.446 162.781H765.38L763.715 153.063H750.253L748.544 162.781H730.531L745.658 97.9631ZM752.66 139.82H761.274L757.158 117.631H756.67L752.66 139.82Z" fill="#1A1A1A"/>
<path d="M796.219 147.146C799.218 147.146 801.764 148.16 803.856 150.197C805.94 152.234 806.986 154.98 806.986 158.449C806.986 162.338 805.905 165.977 803.752 169.366C801.598 172.756 798.66 175.654 794.937 178.069L788.232 173.054C790.028 172.241 791.824 170.928 793.62 169.125C795.417 167.313 796.62 165.55 797.239 163.835C796.419 164.077 795.591 164.198 794.745 164.198C792.4 164.198 790.438 163.449 788.869 161.96C787.299 160.47 786.515 158.53 786.515 156.155C786.515 153.78 787.474 151.566 789.401 149.803C791.327 148.04 793.594 147.162 796.201 147.162L796.219 147.146Z" fill="#1A1A1A"/>
<path d="M19.2684 234.852V244.296H42.3209V259.391H1.30762V194.574H41.6931V209.669H19.2771V221.238H39.496V234.844H19.2771L19.2684 234.852Z" stroke="#1A1A1A" stroke-width="3" stroke-miterlimit="10"/>
<path d="M78.5744 221.15C84.6427 224.555 88.7579 227.784 90.9115 230.843C93.065 233.902 94.1462 237.493 94.1462 241.623C94.1462 247.436 92.0449 252.089 87.8337 255.567C83.6226 259.045 77.8681 260.784 70.5531 260.784C61.9999 260.784 54.99 258.933 49.5059 255.221L53.0283 241.027C58.4426 244.61 63.5867 246.405 68.4431 246.405C73.5959 246.405 76.1767 244.811 76.1767 241.615C76.1767 240.319 75.5577 239.023 74.3196 237.726C73.0815 236.43 70.6315 234.788 66.9783 232.799C61.2327 229.788 57.1087 226.616 54.5976 223.283C52.0866 219.95 50.8311 216.062 50.8311 211.601C50.8311 206.054 52.9498 201.602 57.1958 198.245C61.4332 194.888 67.0655 193.205 74.0842 193.205C81.1028 193.205 87.1537 194.381 92.2455 196.731L90.2401 211.15C88.7754 210.273 86.7003 209.428 84.0236 208.598C81.3469 207.769 78.897 207.359 76.6824 207.359C71.5906 207.359 69.0621 208.928 69.097 212.06C69.097 213.534 69.8817 214.975 71.4424 216.376C73.0118 217.776 75.392 219.362 78.5918 221.142L78.5744 221.15Z" stroke="#1A1A1A" stroke-width="3" stroke-miterlimit="10"/>
<path d="M165.448 225.135C168.909 226.431 171.629 228.476 173.626 231.262C175.614 234.047 176.608 237.388 176.608 241.277C176.608 246.518 174.681 250.849 170.836 254.271C166.982 257.693 162.126 259.399 156.25 259.399H131.584V194.582H154.349C160.417 194.582 165.317 196.16 169.031 199.308C172.754 202.456 174.611 206.594 174.611 211.714C174.611 217.591 171.56 221.915 165.457 224.684V225.135H165.448ZM149.545 209.041V221.335H152.239C153.643 221.335 154.776 220.747 155.639 219.572C156.502 218.396 156.938 216.923 156.938 215.144C156.938 213.365 156.502 211.907 155.639 210.756C154.776 209.613 153.643 209.041 152.239 209.041H149.545ZM153.119 245.061C154.715 245.061 156.005 244.489 156.991 243.346C157.967 242.203 158.455 240.721 158.455 238.918C158.455 237.115 157.967 235.585 156.991 234.442C156.014 233.299 154.724 232.727 153.119 232.727H149.545V245.069H153.119V245.061Z" stroke="#1A1A1A" stroke-width="3" stroke-miterlimit="10"/>
<path d="M213.541 241.043V194.582H231.501V240.23C231.501 246.47 229.444 251.453 225.337 255.189C221.222 258.924 215.965 260.792 209.547 260.792C203.13 260.792 197.89 258.924 193.81 255.189C189.73 251.453 187.689 246.47 187.689 240.23V194.582H205.65V241.043C205.65 242.396 206.016 243.515 206.749 244.385C207.481 245.262 208.414 245.697 209.539 245.697C210.664 245.697 211.614 245.262 212.381 244.385C213.148 243.515 213.532 242.396 213.532 241.043H213.541Z" stroke="#1A1A1A" stroke-width="3" stroke-miterlimit="10"/>
<path d="M262.854 234.852V244.296H285.907V259.391H244.885V194.574H285.27V209.669H262.854V221.238H283.073V234.844H262.854V234.852Z" stroke="#1A1A1A" stroke-width="3" stroke-miterlimit="10"/>
<path d="M323.084 220.433V194.582H341.001V259.399H329.396L315.054 233.685H314.862V259.399H296.797V194.582H308.445L322.735 220.433H323.075H323.084Z" stroke="#1A1A1A" stroke-width="3" stroke-miterlimit="10"/>
<path d="M362.755 194.574H385.319L400.542 259.391H382.477L380.812 249.674H367.35L365.632 259.391H347.619L362.746 194.574H362.755ZM369.756 236.43H378.37L374.255 214.242H373.767L369.756 236.43Z" stroke="#1A1A1A" stroke-width="3" stroke-miterlimit="10"/>
<path d="M461.53 245.697C464.468 245.697 467.808 244.369 471.565 241.72L474.992 256.904C470.912 259.496 465.427 260.792 458.548 260.792C450.196 260.792 443.613 258.103 438.8 252.725C433.987 247.347 431.581 238.765 431.581 226.987C431.581 215.208 433.987 206.65 438.8 201.312C443.613 195.983 450.196 193.31 458.548 193.31C466.02 193.31 471.156 194.139 473.963 195.798L469.656 210.531C467.598 209.114 464.887 208.405 461.53 208.405C457.781 208.405 454.852 209.758 452.742 212.471C450.64 215.184 449.585 220.023 449.585 226.979C449.585 233.935 450.64 238.87 452.742 241.599C454.843 244.328 457.772 245.689 461.53 245.689V245.697Z" stroke="#1A1A1A" stroke-width="3" stroke-miterlimit="10"/>
<path d="M509.039 241.043V194.582H527V240.23C527 246.47 524.942 251.453 520.835 255.189C516.72 258.924 511.463 260.792 505.046 260.792C498.629 260.792 493.389 258.924 489.308 255.189C485.228 251.453 483.188 246.47 483.188 240.23V194.582H501.148V241.043C501.148 242.396 501.514 243.515 502.247 244.385C502.979 245.262 503.912 245.697 505.037 245.697C506.162 245.697 507.112 245.262 507.879 244.385C508.646 243.515 509.03 242.396 509.03 241.043H509.039Z" stroke="#1A1A1A" stroke-width="3" stroke-miterlimit="10"/>
<path d="M558.352 194.574V244.288H578.763V259.383H540.392V194.566H558.352V194.574Z" stroke="#1A1A1A" stroke-width="3" stroke-miterlimit="10"/>
<path d="M572.765 209.677V194.582H616.376V209.677H603.498V259.391H585.581V209.677H572.756H572.765Z" stroke="#1A1A1A" stroke-width="3" stroke-miterlimit="10"/>
<path d="M650.806 241.043V194.582H668.767V240.23C668.767 246.47 666.709 251.453 662.603 255.189C658.488 258.924 653.23 260.792 646.813 260.792C640.396 260.792 635.156 258.924 631.076 255.189C626.995 251.453 624.955 246.47 624.955 240.23V194.582H642.916V241.043C642.916 242.396 643.282 243.515 644.014 244.385C644.747 245.262 645.68 245.697 646.804 245.697C647.929 245.697 648.879 245.262 649.647 244.385C650.414 243.515 650.798 242.396 650.798 241.043H650.806Z" stroke="#1A1A1A" stroke-width="3" stroke-miterlimit="10"/>
<path d="M718.525 231.141C721.917 232.131 724.105 235.102 725.082 240.045L728.848 259.391H710.007L706.729 241.446C706.075 238.435 704.165 236.913 701.001 236.881H700.12V259.391H682.159V194.574H706.729C712.797 194.574 717.741 196.369 721.559 199.952C725.378 203.534 727.288 208.389 727.288 214.508C727.288 221.802 724.367 227.196 718.525 230.69V231.141ZM702.718 223.863C704.706 223.863 706.336 223.203 707.609 221.874C708.882 220.546 709.519 218.863 709.519 216.81C709.519 214.757 708.882 212.986 707.609 211.658C706.336 210.329 704.706 209.669 702.718 209.669H700.12V223.863H702.718Z" stroke="#1A1A1A" stroke-width="3" stroke-miterlimit="10"/>
<path d="M748.266 194.574H770.83L786.053 259.391H767.988L766.322 249.674H752.861L751.152 259.391H733.139L748.266 194.574ZM755.267 236.43H763.881L759.766 214.242H759.278L755.267 236.43Z" stroke="#1A1A1A" stroke-width="3" stroke-miterlimit="10"/>
<path d="M807.737 258.055C805.766 259.874 803.438 260.792 800.762 260.792C798.085 260.792 795.757 259.866 793.787 258.015C791.816 256.163 790.822 253.997 790.822 251.526C790.822 249.054 791.807 246.921 793.787 245.133C795.757 243.338 798.085 242.444 800.762 242.444C803.438 242.444 805.845 243.338 807.789 245.133C809.733 246.929 810.701 249.062 810.701 251.526C810.701 253.989 809.716 256.235 807.737 258.055Z" stroke="#1A1A1A" stroke-width="3" stroke-miterlimit="10"/>
</g>
<g clip-path="url(#clip1_379_4)">
<path d="M433.952 294.775C527.714 288.691 621.694 285.617 715.691 285.545C742.118 285.521 768.552 285.745 794.97 286.192L793.873 278.783C774.289 283.126 754.156 284.555 734.092 285.585C712.758 286.671 691.415 287.533 670.072 288.475C626.873 290.383 583.683 292.26 540.475 294.096C516.277 295.126 492.079 296.14 467.881 297.146C462.615 297.361 462.563 304.826 467.881 304.691C538.769 302.838 609.7 302.679 680.596 304.252C700.746 304.699 720.888 305.29 741.03 306.008C746.322 306.2 746.313 298.655 741.03 298.463C670.186 295.924 599.272 295.086 528.384 295.972C508.217 296.228 488.049 296.619 467.881 297.146V304.691C554.706 301.09 641.549 297.521 728.347 293.409C751.031 292.331 773.906 290.974 796.058 286.056C800.636 285.042 799.54 278.727 794.961 278.647C700.833 277.05 606.653 278.423 512.63 282.83C486.386 284.06 460.152 285.537 433.943 287.238C428.694 287.581 428.651 295.126 433.943 294.783L433.952 294.775Z" fill="black" fill-opacity="0.8"/>
</g>
<defs>
<clipPath id="clip0_379_4">
<rect width="812" height="262" fill="white"/>
</clipPath>
<clipPath id="clip1_379_4">
<rect width="369" height="28" fill="white" transform="translate(430 278)"/>
</clipPath>
</defs>
</svg>
