<svg width="17" height="16" viewBox="0 0 17 16" fill="none" xmlns="http://www.w3.org/2000/svg">
<path d="M8.5353 0.505371C4.39943 0.505371 1.03369 3.87021 1.03369 8.00494C1.03369 12.1397 4.39943 15.5045 8.5353 15.5045C12.6712 15.5045 16.0369 12.1397 16.0369 8.00494C16.0369 3.87021 12.6712 0.505371 8.5353 0.505371Z" stroke="black" stroke-miterlimit="10"/>
<path d="M11.8061 9.40204C11.5779 9.20243 11.2261 9.23095 11.036 9.45907C10.4085 10.191 9.49573 10.6092 8.53545 10.6092C7.57517 10.6092 6.66242 10.191 6.03491 9.45907C5.83525 9.23095 5.49297 9.20243 5.26479 9.40204C5.0366 9.60165 5.00808 9.94383 5.20774 10.172C6.04442 11.151 7.26141 11.7023 8.54496 11.7023C9.8285 11.7023 11.0455 11.1415 11.8822 10.172C12.0818 9.94383 12.0533 9.59214 11.8251 9.40204H11.8061Z" fill="black"/>
<path d="M5.48312 7.13994C5.78736 7.13994 6.03457 6.89281 6.03457 6.58865C6.03457 6.40805 6.17718 6.26545 6.35783 6.26545C6.53848 6.26545 6.68109 6.40805 6.68109 6.58865C6.68109 6.89281 6.92829 7.13994 7.23254 7.13994C7.53679 7.13994 7.78399 6.89281 7.78399 6.58865C7.78399 5.80923 7.14697 5.17236 6.36734 5.17236C5.5877 5.17236 4.95068 5.80923 4.95068 6.58865C4.95068 6.89281 5.19788 7.13994 5.50213 7.13994H5.48312Z" fill="black"/>
<path d="M10.7126 5.17236C9.93292 5.17236 9.2959 5.80923 9.2959 6.58865C9.2959 6.89281 9.5431 7.13994 9.84735 7.13994C10.1516 7.13994 10.3988 6.89281 10.3988 6.58865C10.3988 6.40805 10.5414 6.26545 10.7221 6.26545C10.9027 6.26545 11.0453 6.40805 11.0453 6.58865C11.0453 6.89281 11.2925 7.13994 11.5968 7.13994C11.901 7.13994 12.1482 6.89281 12.1482 6.58865C12.1482 5.80923 11.5112 5.17236 10.7316 5.17236H10.7126Z" fill="black"/>
</svg>
