<svg width="22" height="22" viewBox="0 0 22 22" fill="none" xmlns="http://www.w3.org/2000/svg">
<path d="M11.0005 1C5.48493 1 1 5.48472 1 11C1 16.5153 5.48493 21 11.0005 21C16.516 21 21.001 16.5153 21.001 11C21.001 5.48472 16.516 1 11.0005 1Z" stroke="#F7CCD2" stroke-width="1.4" stroke-miterlimit="10"/>
<path d="M15.3613 12.8603C15.056 12.5931 14.5884 12.6313 14.3308 12.9366C13.491 13.9099 12.2791 14.4729 11.0004 14.4729C9.72174 14.4729 8.50031 13.9099 7.67012 12.9366C7.40293 12.6313 6.94491 12.5931 6.63955 12.8603C6.33419 13.1275 6.296 13.5855 6.56319 13.8908C7.67966 15.1885 9.30188 15.9328 11.01 15.9328C12.7181 15.9328 14.3403 15.1885 15.4568 13.8908C15.724 13.5855 15.6858 13.1179 15.3804 12.8603H15.3613Z" fill="#F7CCD2"/>
<path d="M6.93541 9.84524C7.33619 9.84524 7.67017 9.52082 7.67017 9.11052C7.67017 8.87197 7.86103 8.68111 8.09959 8.68111C8.33815 8.68111 8.52898 8.87197 8.52898 9.11052C8.52898 9.51128 8.85345 9.84524 9.26377 9.84524C9.6741 9.84524 9.99853 9.52082 9.99853 9.11052C9.99853 8.07044 9.14924 7.22119 8.10911 7.22119C7.06899 7.22119 6.21973 8.07044 6.21973 9.11052C6.21973 9.51128 6.54416 9.84524 6.95449 9.84524H6.93541Z" fill="#F7CCD2"/>
<path d="M13.9014 7.23096C12.8612 7.23096 12.012 8.08018 12.012 9.12025C12.012 9.52102 12.3364 9.855 12.7467 9.855C13.157 9.855 13.4815 9.53056 13.4815 9.12025C13.4815 8.8817 13.6723 8.69088 13.9109 8.69088C14.1495 8.69088 14.3403 8.8817 14.3403 9.12025C14.3403 9.52102 14.6648 9.855 15.0751 9.855C15.4854 9.855 15.8098 9.53056 15.8098 9.12025C15.8098 8.08018 14.9606 7.23096 13.9205 7.23096H13.9014Z" fill="#F7CCD2"/>
</svg>
