<svg width="386" height="62" viewBox="0 0 386 62" fill="none" xmlns="http://www.w3.org/2000/svg">
<path d="M118.047 31.8984C119.453 31.8984 121.055 31.2109 122.852 29.8359L124.492 37.7109C122.539 39.0547 119.914 39.7266 116.617 39.7266C112.617 39.7266 109.461 38.3359 107.148 35.5547C104.852 32.7578 103.703 28.3047 103.703 22.1953C103.703 16.0859 104.852 11.6484 107.148 8.88281C109.461 6.11719 112.617 4.73438 116.617 4.73438C120.195 4.73438 122.656 5.16406 124 6.02344L121.938 13.6641C120.953 12.9297 119.656 12.5625 118.047 12.5625C116.25 12.5625 114.844 13.2656 113.828 14.6719C112.828 16.0781 112.328 18.5859 112.328 22.1953C112.328 25.8359 112.828 28.3672 113.828 29.7891C114.844 31.1953 116.25 31.8984 118.047 31.8984ZM136.562 5.39062V31.1719H146.336V39H127.961V5.39062H136.562ZM150.273 39V5.39062H158.875V39H150.273ZM173.406 26.2734V31.1719H184.445V39H164.805V5.39062H184.141V13.2188H173.406V19.2188H183.086V26.2734H173.406ZM201.766 18.7969V5.39062H210.344V39H204.789L197.922 25.6641H197.828V39H189.18V5.39062H194.758L201.602 18.7969H201.766ZM214.023 13.2188V5.39062H234.906V13.2188H228.742V39H220.164V13.2188H214.023ZM247.141 26.2734V31.1719H258.18V39H238.539V5.39062H257.875V13.2188H247.141V19.2188H256.82V26.2734H247.141ZM275.055 19.1719C277.961 20.9375 279.93 22.6172 280.961 24.2109C281.992 25.7891 282.508 27.6484 282.508 29.7891C282.508 32.8047 281.5 35.2188 279.484 37.0312C277.469 38.8281 274.711 39.7266 271.211 39.7266C267.117 39.7266 263.758 38.7656 261.133 36.8438L262.82 29.4844C265.414 31.3438 267.875 32.2734 270.203 32.2734C272.672 32.2734 273.906 31.4453 273.906 29.7891C273.906 29.1172 273.609 28.4453 273.016 27.7734C272.422 27.1016 271.25 26.25 269.5 25.2188C266.75 23.6562 264.773 22.0156 263.57 20.2969C262.367 18.5625 261.766 16.5391 261.766 14.2266C261.766 11.3516 262.781 9.04688 264.812 7.3125C266.844 5.5625 269.539 4.6875 272.898 4.6875C276.258 4.6875 279.156 5.29688 281.594 6.51562L280.633 13.9922C279.93 13.5391 278.938 13.1016 277.656 12.6797C276.375 12.2422 275.203 12.0234 274.141 12.0234C271.703 12.0234 270.492 12.8359 270.508 14.4609C270.508 15.2266 270.883 15.9766 271.633 16.7109C272.383 17.4297 273.523 18.25 275.055 19.1719Z" fill="black"/>
<path d="M73.0197 51.2281C88.5405 51.7181 104.061 52.1636 119.582 52.5823C135.171 53.0011 150.768 53.3842 166.356 53.7316C181.877 54.0791 197.406 54.382 212.927 54.6582C228.448 54.9344 243.977 55.175 259.498 55.371C275.019 55.567 290.548 55.7452 306.078 55.8789C308.045 55.8967 310.013 55.9145 311.98 55.9234C313.34 55.9323 313.34 53.7406 311.98 53.696C284.038 52.8318 256.078 52.5912 228.127 52.7605C200.168 52.9298 172.216 53.5178 144.265 54.3019C128.533 54.7384 112.81 55.2463 97.0779 55.7719C95.7268 55.8165 95.7183 58.0439 97.0779 57.9993C125.021 57.0638 152.972 56.1996 180.923 55.6294C208.874 55.0592 236.833 54.783 264.784 55.0146C280.516 55.1483 296.248 55.4334 311.972 55.9234V53.696C296.443 53.5713 280.922 53.4109 265.392 53.2149C249.796 53.0189 234.199 52.7872 218.61 52.5199C203.022 52.2527 187.56 51.9497 172.039 51.6201C156.518 51.2815 140.997 50.9162 125.468 50.5064C109.939 50.0965 94.4348 49.66 78.9139 49.1878C76.9463 49.1254 74.9788 49.063 73.0197 49.0007C71.6601 48.9561 71.6601 51.1835 73.0197 51.2281Z" fill="#FFFF5F"/>
</svg>

