<svg width="570" height="201" viewBox="0 0 570 201" fill="none" xmlns="http://www.w3.org/2000/svg">
<path d="M18.0908 94.4854V134.769H33.3618V147H4.65088V94.4854H18.0908ZM46.9292 94.4854H63.8115L75.2007 147H61.6875L60.4424 139.126H50.3716L49.0898 147H35.6133L46.9292 94.4854ZM52.166 128.396H58.6113L55.5352 110.416H55.1689L52.166 128.396ZM120.683 94.4854C124.979 94.4854 128.568 96.3286 131.449 100.015C134.33 103.677 135.771 108.194 135.771 113.565C135.771 119.058 134.354 123.514 131.522 126.932C128.69 130.35 125.077 132.059 120.683 132.059H113.725V147H100.285V94.4854H120.683ZM116.691 120.083C118.4 120.083 119.743 119.437 120.719 118.143C121.696 116.824 122.184 115.274 122.184 113.492C122.184 111.636 121.696 110.062 120.719 108.768C119.743 107.449 118.4 106.79 116.691 106.79H113.725V120.083H116.691ZM169.553 124.112C172.092 124.917 173.728 127.322 174.46 131.326L177.28 147H163.181L160.727 132.461C160.239 130.02 158.811 128.787 156.442 128.763H155.783V147H142.343V94.4854H160.727C165.268 94.4854 168.967 95.938 171.823 98.8433C174.68 101.749 176.108 105.679 176.108 110.635C176.108 116.543 173.923 120.914 169.553 123.746V124.112ZM157.724 118.216C159.213 118.216 160.434 117.679 161.386 116.604C162.338 115.53 162.814 114.163 162.814 112.503C162.814 110.794 162.338 109.402 161.386 108.328C160.434 107.254 159.213 106.717 157.724 106.717H155.783V118.216H157.724ZM187.881 99.9053C191.299 95.5596 195.986 93.3867 201.943 93.3867C207.9 93.3867 212.588 95.5596 216.006 99.9053C219.424 104.251 221.133 111.197 221.133 120.743C221.133 130.337 219.424 137.308 216.006 141.653C212.588 145.975 207.9 148.135 201.943 148.135C195.986 148.135 191.299 145.975 187.881 141.653C184.463 137.308 182.754 130.337 182.754 120.743C182.754 111.197 184.463 104.251 187.881 99.9053ZM197.695 132.645C198.672 134.817 200.088 135.904 201.943 135.904C203.799 135.904 205.215 134.817 206.191 132.645C207.168 130.472 207.656 126.504 207.656 120.743C207.656 115.054 207.168 111.111 206.191 108.914C205.215 106.717 203.799 105.618 201.943 105.618C200.088 105.618 198.672 106.717 197.695 108.914C196.719 111.111 196.23 115.054 196.23 120.743C196.23 126.504 196.719 130.472 197.695 132.645ZM249.715 94.4854C254.012 94.4854 257.601 96.3286 260.481 100.015C263.362 103.677 264.803 108.194 264.803 113.565C264.803 119.058 263.387 123.514 260.555 126.932C257.723 130.35 254.109 132.059 249.715 132.059H242.757V147H229.317V94.4854H249.715ZM245.723 120.083C247.432 120.083 248.775 119.437 249.751 118.143C250.728 116.824 251.216 115.274 251.216 113.492C251.216 111.636 250.728 110.062 249.751 108.768C248.775 107.449 247.432 106.79 245.723 106.79H242.757V120.083H245.723ZM290.711 132.132V94.4854H304.151V131.473C304.151 136.526 302.613 140.567 299.537 143.594C296.461 146.622 292.518 148.135 287.708 148.135C282.923 148.135 279.005 146.622 275.953 143.594C272.901 140.567 271.375 136.526 271.375 131.473V94.4854H284.815V132.132C284.815 133.23 285.084 134.134 285.621 134.842C286.183 135.55 286.878 135.904 287.708 135.904C288.563 135.904 289.271 135.55 289.833 134.842C290.418 134.134 290.711 133.23 290.711 132.132ZM327.606 127.115V134.769H344.855V147H314.167V94.4854H344.379V106.717H327.606V116.092H342.731V127.115H327.606ZM371.972 116.019C376.513 118.777 379.589 121.402 381.201 123.892C382.812 126.358 383.618 129.263 383.618 132.608C383.618 137.32 382.043 141.092 378.894 143.924C375.744 146.731 371.435 148.135 365.966 148.135C359.57 148.135 354.321 146.634 350.219 143.631L352.856 132.132C356.909 135.037 360.754 136.49 364.392 136.49C368.249 136.49 370.178 135.196 370.178 132.608C370.178 131.558 369.714 130.508 368.786 129.458C367.858 128.409 366.027 127.078 363.293 125.467C358.996 123.025 355.908 120.462 354.028 117.776C352.148 115.066 351.208 111.905 351.208 108.292C351.208 103.799 352.795 100.198 355.969 97.4883C359.143 94.7539 363.354 93.3867 368.603 93.3867C373.852 93.3867 378.381 94.3389 382.189 96.2432L380.688 107.925C379.589 107.217 378.039 106.534 376.037 105.875C374.035 105.191 372.204 104.849 370.544 104.849C366.735 104.849 364.843 106.119 364.868 108.658C364.868 109.854 365.454 111.026 366.625 112.173C367.797 113.296 369.58 114.578 371.972 116.019ZM387.883 106.717V94.4854H420.513V106.717H410.881V147H397.478V106.717H387.883ZM430.015 94.4854H446.897L458.287 147H444.773L443.528 139.126H433.458L432.176 147H418.699L430.015 94.4854ZM435.252 128.396H441.697L438.621 110.416H438.255L435.252 128.396ZM471.451 93.3867C475.992 93.3867 479.898 94.5464 483.17 96.8657C486.466 99.1851 488.114 102.493 488.114 106.79C488.114 107.547 488.065 108.279 487.967 108.987C487.87 109.671 487.674 110.367 487.381 111.075C487.113 111.783 486.893 112.405 486.722 112.942C486.551 113.455 486.209 114.078 485.697 114.81C485.208 115.518 484.867 116.043 484.671 116.385C484.476 116.702 484.037 117.239 483.353 117.996C482.669 118.729 482.267 119.168 482.145 119.314C482.022 119.461 481.571 119.937 480.79 120.743C480.008 121.548 479.618 121.976 479.618 122.024C477.616 124.026 476.749 126.956 477.018 130.813H464.713C464.42 127.859 464.688 125.32 465.519 123.196C466.373 121.072 467.679 119.034 469.437 117.081C469.925 116.47 470.633 115.701 471.561 114.773C472.489 113.846 473.16 113.138 473.575 112.649C474.015 112.161 474.417 111.539 474.784 110.782C475.174 110.025 475.37 109.268 475.37 108.511C475.37 107.217 474.771 106.167 473.575 105.362C472.403 104.532 470.975 104.117 469.291 104.117C466.043 104.117 463.272 105.057 460.978 106.937L458.634 97.2686C461.588 94.6807 465.86 93.3867 471.451 93.3867ZM470.865 134.695C472.77 134.695 474.43 135.354 475.846 136.673C477.262 137.967 477.97 139.529 477.97 141.36C477.97 143.167 477.262 144.754 475.846 146.121C474.43 147.464 472.77 148.135 470.865 148.135C468.912 148.135 467.215 147.464 465.775 146.121C464.359 144.754 463.651 143.167 463.651 141.36C463.651 139.505 464.359 137.93 465.775 136.636C467.215 135.342 468.912 134.695 470.865 134.695Z" fill="black"/>
<mask id="path-2-outside-1_45_574" maskUnits="userSpaceOnUse" x="1" y="0" width="536" height="90" fill="black">
<rect fill="white" x="1" width="536" height="90"/>
<path d="M19.7612 87.9668C15.2202 87.9668 11.314 86.8071 8.04248 84.4878C4.771 82.1685 3.13525 78.8604 3.13525 74.5635C3.13525 73.8066 3.18408 73.0742 3.28174 72.3662C3.37939 71.6826 3.5625 70.9868 3.83105 70.2788C4.09961 69.5708 4.31934 68.9604 4.49023 68.4478C4.68555 67.9106 5.02734 67.2881 5.51562 66.5801C6.02832 65.8477 6.38232 65.3228 6.57764 65.0054C6.77295 64.6636 7.2002 64.1265 7.85938 63.394C8.54297 62.6372 8.9458 62.1855 9.06787 62.0391C9.21436 61.8682 9.66602 61.3921 10.4229 60.6108C11.2041 59.8052 11.5947 59.3779 11.5947 59.3291C13.5967 57.3271 14.4756 54.3975 14.2314 50.54H26.5361C26.8291 53.4941 26.5483 56.0332 25.6938 58.1572C24.8394 60.2812 23.5454 62.3198 21.812 64.2729C21.3237 64.8833 20.6035 65.6523 19.6514 66.5801C18.7236 67.4834 18.0522 68.1914 17.6372 68.7041C17.2222 69.1924 16.8193 69.8149 16.4287 70.5718C16.0625 71.3286 15.8794 72.0854 15.8794 72.8423C15.8794 74.1362 16.4653 75.186 17.6372 75.9917C18.8091 76.8218 20.2495 77.2368 21.9585 77.2368C25.2056 77.2368 27.9766 76.2969 30.2715 74.417L32.6152 84.085C29.6367 86.6729 25.3521 87.9668 19.7612 87.9668ZM20.3838 46.6582C18.4795 46.6582 16.8071 46.0112 15.3667 44.7173C13.9507 43.3989 13.2427 41.8242 13.2427 39.9932C13.2427 38.1865 13.9507 36.6118 15.3667 35.269C16.8071 33.9019 18.4795 33.2183 20.3838 33.2183C22.3369 33.2183 24.0215 33.9019 25.4375 35.269C26.8535 36.6118 27.5615 38.1865 27.5615 39.9932C27.5615 41.8486 26.8535 43.4233 25.4375 44.7173C24.0215 46.0112 22.3369 46.6582 20.3838 46.6582ZM53.2871 60.9038C55.4844 60.9038 57.9868 59.8296 60.7944 57.6812L63.3579 69.9858C60.3062 72.0854 56.2046 73.1353 51.0532 73.1353C44.8032 73.1353 39.8716 70.9624 36.2583 66.6167C32.6694 62.2466 30.875 55.2886 30.875 45.7427C30.875 36.1968 32.6694 29.2632 36.2583 24.9419C39.8716 20.6206 44.8032 18.46 51.0532 18.46C56.644 18.46 60.4893 19.1313 62.5889 20.4741L59.3662 32.4126C57.8281 31.2651 55.8018 30.6914 53.2871 30.6914C50.4795 30.6914 48.2822 31.79 46.6953 33.9873C45.1328 36.1846 44.3516 40.103 44.3516 45.7427C44.3516 51.4312 45.1328 55.3862 46.6953 57.6079C48.2822 59.8052 50.4795 60.9038 53.2871 60.9038ZM70.5166 24.9053C73.9346 20.5596 78.6221 18.3867 84.5791 18.3867C90.5361 18.3867 95.2236 20.5596 98.6416 24.9053C102.06 29.251 103.769 36.1968 103.769 45.7427C103.769 55.3374 102.06 62.3076 98.6416 66.6533C95.2236 70.9746 90.5361 73.1353 84.5791 73.1353C78.6221 73.1353 73.9346 70.9746 70.5166 66.6533C67.0986 62.3076 65.3896 55.3374 65.3896 45.7427C65.3896 36.1968 67.0986 29.251 70.5166 24.9053ZM80.3311 57.6445C81.3076 59.8174 82.7236 60.9038 84.5791 60.9038C86.4346 60.9038 87.8506 59.8174 88.8271 57.6445C89.8037 55.4717 90.292 51.5044 90.292 45.7427C90.292 40.0542 89.8037 36.1113 88.8271 33.9141C87.8506 31.7168 86.4346 30.6182 84.5791 30.6182C82.7236 30.6182 81.3076 31.7168 80.3311 33.9141C79.3545 36.1113 78.8662 40.0542 78.8662 45.7427C78.8662 51.5044 79.3545 55.4717 80.3311 57.6445ZM86.6665 1.65088H98.0923L88.3145 15.0176H79.855L86.6665 1.65088ZM133.779 45.1567L141.872 19.4854H155.678V72H142.641V49.9541H142.312L135.28 72H132.058L125.063 49.9541H124.77V72H111.733V19.4854H125.539L133.632 45.1567H133.779ZM168.77 24.9053C172.188 20.5596 176.875 18.3867 182.832 18.3867C188.789 18.3867 193.477 20.5596 196.895 24.9053C200.312 29.251 202.021 36.1968 202.021 45.7427C202.021 55.3374 200.312 62.3076 196.895 66.6533C193.477 70.9746 188.789 73.1353 182.832 73.1353C176.875 73.1353 172.188 70.9746 168.77 66.6533C165.352 62.3076 163.643 55.3374 163.643 45.7427C163.643 36.1968 165.352 29.251 168.77 24.9053ZM178.584 57.6445C179.561 59.8174 180.977 60.9038 182.832 60.9038C184.688 60.9038 186.104 59.8174 187.08 57.6445C188.057 55.4717 188.545 51.5044 188.545 45.7427C188.545 40.0542 188.057 36.1113 187.08 33.9141C186.104 31.7168 184.688 30.6182 182.832 30.6182C180.977 30.6182 179.561 31.7168 178.584 33.9141C177.607 36.1113 177.119 40.0542 177.119 45.7427C177.119 51.5044 177.607 55.4717 178.584 57.6445ZM230.365 72V19.4854H259.479V31.7168H243.805V43.7285H257.281V54.7515H243.805V72H230.365ZM285.314 57.1318V19.4854H298.754V56.4727C298.754 61.5264 297.216 65.5669 294.14 68.5942C291.063 71.6216 287.121 73.1353 282.311 73.1353C277.526 73.1353 273.607 71.6216 270.556 68.5942C267.504 65.5669 265.978 61.5264 265.978 56.4727V19.4854H279.418V57.1318C279.418 58.2305 279.687 59.1338 280.224 59.8418C280.785 60.5498 281.481 60.9038 282.311 60.9038C283.166 60.9038 283.874 60.5498 284.435 59.8418C285.021 59.1338 285.314 58.2305 285.314 57.1318ZM328.435 40.4326V19.4854H341.838V72H333.159L322.429 51.1626H322.282V72H308.769V19.4854H317.485L328.178 40.4326H328.435ZM372.471 60.9038C374.668 60.9038 377.17 59.8296 379.978 57.6812L382.542 69.9858C379.49 72.0854 375.388 73.1353 370.237 73.1353C363.987 73.1353 359.055 70.9624 355.442 66.6167C351.853 62.2466 350.059 55.2886 350.059 45.7427C350.059 36.1968 351.853 29.2632 355.442 24.9419C359.055 20.6206 363.987 18.46 370.237 18.46C375.828 18.46 379.673 19.1313 381.772 20.4741L378.55 32.4126C377.012 31.2651 374.985 30.6914 372.471 30.6914C369.663 30.6914 367.466 31.79 365.879 33.9873C364.316 36.1846 363.535 40.103 363.535 45.7427C363.535 51.4312 364.316 55.3862 365.879 57.6079C367.466 59.8052 369.663 60.9038 372.471 60.9038ZM388.711 72V19.4854H402.151V72H388.711ZM415.426 24.9053C418.844 20.5596 423.531 18.3867 429.488 18.3867C435.445 18.3867 440.133 20.5596 443.551 24.9053C446.969 29.251 448.678 36.1968 448.678 45.7427C448.678 55.3374 446.969 62.3076 443.551 66.6533C440.133 70.9746 435.445 73.1353 429.488 73.1353C423.531 73.1353 418.844 70.9746 415.426 66.6533C412.008 62.3076 410.299 55.3374 410.299 45.7427C410.299 36.1968 412.008 29.251 415.426 24.9053ZM425.24 57.6445C426.217 59.8174 427.633 60.9038 429.488 60.9038C431.344 60.9038 432.76 59.8174 433.736 57.6445C434.713 55.4717 435.201 51.5044 435.201 45.7427C435.201 40.0542 434.713 36.1113 433.736 33.9141C432.76 31.7168 431.344 30.6182 429.488 30.6182C427.633 30.6182 426.217 31.7168 425.24 33.9141C424.264 36.1113 423.775 40.0542 423.775 45.7427C423.775 51.5044 424.264 55.4717 425.24 57.6445ZM476.527 40.4326V19.4854H489.931V72H481.251L470.521 51.1626H470.375V72H456.862V19.4854H465.578L476.271 40.4326H476.527ZM506.245 19.4854H523.127L534.516 72H521.003L519.758 64.1265H509.687L508.405 72H494.929L506.245 19.4854ZM511.481 53.3965H517.927L514.851 35.4155H514.484L511.481 53.3965Z"/>
</mask>
<path d="M3.28174 72.3662L1.7968 72.1541L1.79581 72.1613L3.28174 72.3662ZM4.49023 68.4478L3.08054 67.9351L3.07362 67.9542L3.06721 67.9734L4.49023 68.4478ZM5.51562 66.5801L4.28675 65.7199L4.28081 65.7285L5.51562 66.5801ZM6.57764 65.0054L7.85512 65.7915L7.8679 65.7708L7.88 65.7496L6.57764 65.0054ZM7.85938 63.394L6.74622 62.3886L6.74443 62.3906L7.85938 63.394ZM9.06787 62.0391L7.92899 61.0629L7.92221 61.0708L7.91554 61.0788L9.06787 62.0391ZM10.4229 60.6108L9.346 59.5666L9.34549 59.5671L10.4229 60.6108ZM11.5947 59.3291L10.5341 58.2684L10.0947 58.7078V59.3291H11.5947ZM14.2314 50.54V49.04H12.6335L12.7344 50.6348L14.2314 50.54ZM26.5361 50.54L28.0288 50.392L27.8947 49.04H26.5361V50.54ZM21.812 64.2729L20.6901 63.2773L20.6647 63.306L20.6407 63.3359L21.812 64.2729ZM19.6514 66.5801L20.6978 67.6548L20.6982 67.6544L19.6514 66.5801ZM17.6372 68.7041L18.7801 69.6756L18.7918 69.6619L18.8031 69.6479L17.6372 68.7041ZM16.4287 70.5718L15.0958 69.8838L15.0869 69.901L15.0785 69.9184L16.4287 70.5718ZM17.6372 75.9917L18.5042 74.7677L18.4957 74.7616L18.487 74.7556L17.6372 75.9917ZM30.2715 74.417L31.7293 74.0636L31.167 71.7444L29.321 73.2566L30.2715 74.417ZM32.6152 84.085L33.599 85.2173L34.2881 84.6186L34.073 83.7316L32.6152 84.085ZM15.3667 44.7173L14.3446 45.8151L14.3544 45.8242L14.3643 45.8332L15.3667 44.7173ZM15.3667 35.269L16.3988 36.3575L16.3993 36.357L15.3667 35.269ZM25.4375 35.269L24.3956 36.3482L24.4054 36.3575L25.4375 35.269ZM19.7612 87.9668V86.4668C15.4883 86.4668 11.8951 85.3804 8.91001 83.2641L8.04248 84.4878L7.17495 85.7115C10.7328 88.2338 14.9522 89.4668 19.7612 89.4668V87.9668ZM8.04248 84.4878L8.91001 83.2641C6.06743 81.2488 4.63525 78.4149 4.63525 74.5635H3.13525H1.63525C1.63525 79.3058 3.47456 83.0881 7.17495 85.7115L8.04248 84.4878ZM3.13525 74.5635H4.63525C4.63525 73.8712 4.67991 73.2074 4.76767 72.5712L3.28174 72.3662L1.79581 72.1613C1.68825 72.941 1.63525 73.7421 1.63525 74.5635H3.13525ZM3.28174 72.3662L4.76666 72.5783C4.84728 72.014 5.00044 71.4254 5.23355 70.8108L3.83105 70.2788L2.42856 69.7468C2.12456 70.5483 1.91151 71.3512 1.79681 72.1541L3.28174 72.3662ZM3.83105 70.2788L5.23355 70.8108C5.50672 70.0906 5.73393 69.4601 5.91326 68.9221L4.49023 68.4478L3.06721 67.9734C2.90474 68.4608 2.6925 69.051 2.42856 69.7468L3.83105 70.2788ZM4.49023 68.4478L5.89992 68.9604C6.03561 68.5872 6.3021 68.0818 6.75044 67.4317L5.51562 66.5801L4.28081 65.7285C3.75259 66.4944 3.33549 67.234 3.08054 67.9351L4.49023 68.4478ZM5.51562 66.5801L6.74447 67.4403C7.25728 66.7077 7.6342 66.1505 7.85512 65.7915L6.57764 65.0054L5.30015 64.2192C5.13044 64.495 4.79936 64.9876 4.28678 65.7199L5.51562 66.5801ZM6.57764 65.0054L7.88 65.7496C7.98622 65.5637 8.31156 65.1339 8.97432 64.3975L7.85938 63.394L6.74443 62.3906C6.08883 63.119 5.55968 63.7635 5.27527 64.2612L6.57764 65.0054ZM7.85938 63.394L8.97253 64.3995C9.64491 63.6551 10.0739 63.1749 10.2202 62.9993L9.06787 62.0391L7.91554 61.0788C7.81772 61.1962 7.44103 61.6194 6.74622 62.3886L7.85938 63.394ZM9.06787 62.0391L10.2068 63.0153C10.3159 62.8879 10.7276 62.4521 11.5002 61.6545L10.4229 60.6108L9.34549 59.5671C8.60448 60.3321 8.11279 60.8484 7.92899 61.0629L9.06787 62.0391ZM10.4229 60.6108L11.4997 61.6551C11.893 61.2495 12.1983 60.9286 12.4088 60.6983C12.5118 60.5857 12.6065 60.4791 12.6811 60.3881C12.7158 60.3459 12.7669 60.282 12.8163 60.2093C12.8396 60.1752 12.8835 60.1086 12.9275 60.022C12.9381 60.0011 13.0947 59.7182 13.0947 59.3291H11.5947H10.0947C10.0947 59.1026 10.1468 58.9309 10.1721 58.856C10.2017 58.768 10.2336 58.7011 10.2528 58.6634C10.2906 58.5888 10.3255 58.5372 10.3365 58.521C10.3616 58.4842 10.376 58.468 10.3619 58.4852C10.3388 58.5133 10.287 58.573 10.1947 58.674C10.0146 58.871 9.73398 59.1665 9.346 59.5666L10.4229 60.6108ZM11.5947 59.3291L12.6554 60.3898C15.0616 57.9835 15.9894 54.5685 15.7284 50.4453L14.2314 50.54L12.7344 50.6348C12.9618 54.2264 12.1318 56.6708 10.5341 58.2684L11.5947 59.3291ZM14.2314 50.54V52.04H26.5361V50.54V49.04H14.2314V50.54ZM26.5361 50.54L25.0435 50.6881C25.3194 53.4706 25.0437 55.7543 24.3022 57.5974L25.6938 58.1572L27.0855 58.7171C28.053 56.3121 28.3388 53.5176 28.0288 50.392L26.5361 50.54ZM25.6938 58.1572L24.3022 57.5974C23.5203 59.541 22.3251 61.435 20.6901 63.2773L21.812 64.2729L22.9339 65.2686C24.7657 63.2046 26.1584 61.0215 27.0855 58.7171L25.6938 58.1572ZM21.812 64.2729L20.6407 63.3359C20.2086 63.8761 19.5385 64.5958 18.6046 65.5057L19.6514 66.5801L20.6982 67.6544C21.6686 66.7089 22.4389 65.8905 22.9833 65.21L21.812 64.2729ZM19.6514 66.5801L18.6049 65.5054C17.6669 66.4187 16.9439 67.1766 16.4713 67.7603L17.6372 68.7041L18.8031 69.6479C19.1606 69.2062 19.7803 68.5481 20.6978 67.6548L19.6514 66.5801ZM17.6372 68.7041L16.4943 67.7326C15.9857 68.3309 15.5228 69.0565 15.0958 69.8838L16.4287 70.5718L17.7616 71.2597C18.1159 70.5734 18.4586 70.0538 18.7801 69.6756L17.6372 68.7041ZM16.4287 70.5718L15.0785 69.9184C14.6247 70.8561 14.3794 71.8351 14.3794 72.8423H15.8794H17.3794C17.3794 72.3358 17.5003 71.8011 17.7789 71.2251L16.4287 70.5718ZM15.8794 72.8423H14.3794C14.3794 74.6849 15.2558 76.1748 16.7874 77.2278L17.6372 75.9917L18.487 74.7556C17.6749 74.1973 17.3794 73.5875 17.3794 72.8423H15.8794ZM17.6372 75.9917L16.7702 77.2157C18.2408 78.2574 19.9994 78.7368 21.9585 78.7368V77.2368V75.7368C20.4997 75.7368 19.3774 75.3862 18.5042 74.7677L17.6372 75.9917ZM21.9585 77.2368V78.7368C25.5171 78.7368 28.6331 77.6981 31.222 75.5774L30.2715 74.417L29.321 73.2566C27.32 74.8957 24.894 75.7368 21.9585 75.7368V77.2368ZM30.2715 74.417L28.8137 74.7704L31.1575 84.4384L32.6152 84.085L34.073 83.7316L31.7293 74.0636L30.2715 74.417ZM32.6152 84.085L31.6314 82.9527C29.0206 85.2211 25.1397 86.4668 19.7612 86.4668V87.9668V89.4668C25.5644 89.4668 30.2529 88.1246 33.599 85.2173L32.6152 84.085ZM20.3838 46.6582V45.1582C18.8564 45.1582 17.5393 44.6526 16.3691 43.6014L15.3667 44.7173L14.3643 45.8332C16.0749 47.3698 18.1026 48.1582 20.3838 48.1582V46.6582ZM15.3667 44.7173L16.3888 43.6194C15.2582 42.5668 14.7427 41.382 14.7427 39.9932H13.2427H11.7427C11.7427 42.2664 12.6432 44.2311 14.3446 45.8151L15.3667 44.7173ZM13.2427 39.9932H14.7427C14.7427 38.6335 15.2549 37.4423 16.3988 36.3575L15.3667 35.269L14.3346 34.1806C12.6465 35.7813 11.7427 37.7395 11.7427 39.9932H13.2427ZM15.3667 35.269L16.3993 36.357C17.5743 35.2418 18.8816 34.7183 20.3838 34.7183V33.2183V31.7183C18.0774 31.7183 16.04 32.5619 14.3341 34.1811L15.3667 35.269ZM20.3838 33.2183V34.7183C21.9448 34.7183 23.2568 35.2486 24.3956 36.3481L25.4375 35.269L26.4794 34.1899C24.7862 32.5551 22.729 31.7183 20.3838 31.7183V33.2183ZM25.4375 35.269L24.4054 36.3575C25.5493 37.4423 26.0615 38.6335 26.0615 39.9932H27.5615H29.0615C29.0615 37.7395 28.1577 35.7813 26.4696 34.1806L25.4375 35.269ZM27.5615 39.9932H26.0615C26.0615 41.4115 25.5426 42.5893 24.4256 43.61L25.4375 44.7173L26.4494 45.8246C28.1644 44.2574 29.0615 42.2858 29.0615 39.9932H27.5615ZM25.4375 44.7173L24.4256 43.61C23.2916 44.6463 21.97 45.1582 20.3838 45.1582V46.6582V48.1582C22.7038 48.1582 24.7514 47.3762 26.4494 45.8246L25.4375 44.7173ZM60.7944 57.6812L62.2629 57.3752L61.7766 55.0408L59.8829 56.4899L60.7944 57.6812ZM63.3579 69.9858L64.2081 71.2216L65.0298 70.6563L64.8264 69.6799L63.3579 69.9858ZM36.2583 66.6167L35.0991 67.5687L35.1049 67.5757L36.2583 66.6167ZM36.2583 24.9419L35.1076 23.9797L35.1044 23.9835L36.2583 24.9419ZM62.5889 20.4741L64.037 20.865L64.3237 19.8031L63.397 19.2104L62.5889 20.4741ZM59.3662 32.4126L58.4693 33.6149L60.239 34.9351L60.8144 32.8035L59.3662 32.4126ZM46.6953 33.9873L45.4793 33.109L45.4729 33.118L46.6953 33.9873ZM46.6953 57.6079L45.4684 58.4708L45.4738 58.4785L45.4793 58.4861L46.6953 57.6079ZM53.2871 60.9038V62.4038C55.9609 62.4038 58.7843 61.1082 61.706 58.8724L60.7944 57.6812L59.8829 56.4899C57.1894 58.551 55.0078 59.4038 53.2871 59.4038V60.9038ZM60.7944 57.6812L59.326 57.9871L61.8894 70.2918L63.3579 69.9858L64.8264 69.6799L62.2629 57.3752L60.7944 57.6812ZM63.3579 69.9858L62.5077 68.7501C59.7864 70.6223 56.0159 71.6353 51.0532 71.6353V73.1353V74.6353C56.3933 74.6353 60.8259 73.5486 64.2081 71.2216L63.3579 69.9858ZM51.0532 73.1353V71.6353C45.1956 71.6353 40.7075 69.6216 37.4117 65.6577L36.2583 66.6167L35.1049 67.5757C39.0356 72.3032 44.4109 74.6353 51.0532 74.6353V73.1353ZM36.2583 66.6167L37.4175 65.6647C34.1563 61.6936 32.375 55.16 32.375 45.7427H30.875H29.375C29.375 55.4172 31.1826 62.7996 35.0991 67.5687L36.2583 66.6167ZM30.875 45.7427H32.375C32.375 36.3231 34.1572 29.8196 37.4122 25.9002L36.2583 24.9419L35.1044 23.9835C31.1817 28.7068 29.375 36.0704 29.375 45.7427H30.875ZM36.2583 24.9419L37.409 25.9041C40.7038 21.9637 45.1926 19.96 51.0532 19.96V18.46V16.96C44.4139 16.96 39.0393 19.2775 35.1076 23.9797L36.2583 24.9419ZM51.0532 18.46V19.96C53.7958 19.96 56.0626 20.1252 57.8722 20.4411C59.6978 20.7599 60.9659 21.2167 61.7807 21.7378L62.5889 20.4741L63.397 19.2104C62.1122 18.3887 60.4079 17.8385 58.3883 17.4859C56.3527 17.1304 53.9015 16.96 51.0532 16.96V18.46ZM62.5889 20.4741L61.1407 20.0832L57.918 32.0217L59.3662 32.4126L60.8144 32.8035L64.037 20.865L62.5889 20.4741ZM59.3662 32.4126L60.2632 31.2103C58.3958 29.8172 56.0248 29.1914 53.2871 29.1914V30.6914V32.1914C55.5787 32.1914 57.2605 32.7131 58.4693 33.6149L59.3662 32.4126ZM53.2871 30.6914V29.1914C50.0182 29.1914 47.36 30.5051 45.4793 33.1091L46.6953 33.9873L47.9113 34.8655C49.2045 33.075 50.9407 32.1914 53.2871 32.1914V30.6914ZM46.6953 33.9873L45.4729 33.118C43.6175 35.7271 42.8516 40.0681 42.8516 45.7427H44.3516H45.8516C45.8516 40.138 46.6481 36.642 47.9177 34.8566L46.6953 33.9873ZM44.3516 45.7427H42.8516C42.8516 51.4656 43.6176 55.8393 45.4684 58.4708L46.6953 57.6079L47.9223 56.745C46.648 54.9332 45.8516 51.3967 45.8516 45.7427H44.3516ZM46.6953 57.6079L45.4793 58.4861C47.36 61.0901 50.0182 62.4038 53.2871 62.4038V60.9038V59.4038C50.9407 59.4038 49.2045 58.5202 47.9113 56.7297L46.6953 57.6079ZM98.6416 66.6533L99.8181 67.5839L99.8206 67.5806L98.6416 66.6533ZM70.5166 66.6533L69.3376 67.5806L69.3401 67.5839L70.5166 66.6533ZM86.6665 1.65088V0.150879H85.7474L85.33 0.969826L86.6665 1.65088ZM98.0923 1.65088L99.3029 2.53649L101.048 0.150879H98.0923V1.65088ZM88.3145 15.0176V16.5176H89.0757L89.5251 15.9032L88.3145 15.0176ZM79.855 15.0176L78.5185 14.3365L77.4071 16.5176H79.855V15.0176ZM70.5166 24.9053L71.6956 25.8326C74.8048 21.8795 79.0411 19.8867 84.5791 19.8867V18.3867V16.8867C78.203 16.8867 73.0644 19.2396 69.3376 23.978L70.5166 24.9053ZM84.5791 18.3867V19.8867C90.1171 19.8867 94.3534 21.8795 97.4626 25.8326L98.6416 24.9053L99.8206 23.978C96.0938 19.2396 90.9552 16.8867 84.5791 16.8867V18.3867ZM98.6416 24.9053L97.4626 25.8326C100.568 29.7814 102.269 36.3129 102.269 45.7427H103.769H105.269C105.269 36.0807 103.551 28.7205 99.8206 23.978L98.6416 24.9053ZM103.769 45.7427H102.269C102.269 55.2235 100.568 61.7781 97.4626 65.726L98.6416 66.6533L99.8206 67.5806C103.551 62.8371 105.269 55.4513 105.269 45.7427H103.769ZM98.6416 66.6533L97.4651 65.7228C94.3572 69.6521 90.1203 71.6353 84.5791 71.6353V73.1353V74.6353C90.952 74.6353 96.0901 72.2971 99.8181 67.5839L98.6416 66.6533ZM84.5791 73.1353V71.6353C79.0379 71.6353 74.801 69.6521 71.6931 65.7228L70.5166 66.6533L69.3401 67.5839C73.0681 72.2971 78.2063 74.6353 84.5791 74.6353V73.1353ZM70.5166 66.6533L71.6956 65.726C68.5906 61.7781 66.8896 55.2235 66.8896 45.7427H65.3896H63.8896C63.8896 55.4513 65.6067 62.8371 69.3376 67.5806L70.5166 66.6533ZM65.3896 45.7427H66.8896C66.8896 36.3129 68.5898 29.7814 71.6956 25.8326L70.5166 24.9053L69.3376 23.978C65.6075 28.7205 63.8896 36.0807 63.8896 45.7427H65.3896ZM80.3311 57.6445L78.9629 58.2594C79.5202 59.4995 80.2526 60.5426 81.2124 61.2791C82.1933 62.0317 83.3353 62.4038 84.5791 62.4038V60.9038V59.4038C83.9675 59.4038 83.4737 59.2327 83.0386 58.8989C82.5824 58.5489 82.1185 57.9625 81.6992 57.0296L80.3311 57.6445ZM84.5791 60.9038V62.4038C85.823 62.4038 86.9649 62.0317 87.9458 61.2791C88.9056 60.5426 89.638 59.4995 90.1953 58.2594L88.8271 57.6445L87.459 57.0296C87.0397 57.9625 86.5758 58.5489 86.1196 58.8989C85.6845 59.2327 85.1907 59.4038 84.5791 59.4038V60.9038ZM88.8271 57.6445L90.1953 58.2594C91.3177 55.7621 91.792 51.4976 91.792 45.7427H90.292H88.792C88.792 51.5112 88.2897 55.1812 87.459 57.0296L88.8271 57.6445ZM90.292 45.7427H91.792C91.792 40.0553 91.3165 35.8217 90.1979 33.3049L88.8271 33.9141L87.4564 34.5233C88.2909 36.4009 88.792 40.0531 88.792 45.7427H90.292ZM88.8271 33.9141L90.1979 33.3049C89.642 32.0541 88.9112 31.0011 87.9522 30.257C86.9713 29.496 85.8271 29.1182 84.5791 29.1182V30.6182V32.1182C85.1865 32.1182 85.6781 32.2897 86.1132 32.6273C86.5702 32.9818 87.0358 33.5768 87.4564 34.5233L88.8271 33.9141ZM84.5791 30.6182V29.1182C83.3311 29.1182 82.1869 29.496 81.206 30.257C80.247 31.0011 79.5162 32.0541 78.9603 33.3049L80.3311 33.9141L81.7018 34.5233C82.1224 33.5768 82.588 32.9818 83.045 32.6273C83.4801 32.2897 83.9717 32.1182 84.5791 32.1182V30.6182ZM80.3311 33.9141L78.9603 33.3049C77.8417 35.8217 77.3662 40.0553 77.3662 45.7427H78.8662H80.3662C80.3662 40.0531 80.8673 36.4009 81.7018 34.5233L80.3311 33.9141ZM78.8662 45.7427H77.3662C77.3662 51.4976 77.8405 55.7621 78.9629 58.2594L80.3311 57.6445L81.6992 57.0296C80.8685 55.1812 80.3662 51.5112 80.3662 45.7427H78.8662ZM86.6665 1.65088V3.15088H98.0923V1.65088V0.150879H86.6665V1.65088ZM98.0923 1.65088L96.8816 0.765272L87.1038 14.132L88.3145 15.0176L89.5251 15.9032L99.3029 2.53649L98.0923 1.65088ZM88.3145 15.0176V13.5176H79.855V15.0176V16.5176H88.3145V15.0176ZM79.855 15.0176L81.1915 15.6986L88.003 2.33193L86.6665 1.65088L85.33 0.969826L78.5185 14.3365L79.855 15.0176ZM133.779 45.1567V46.6567H134.879L135.209 45.6078L133.779 45.1567ZM141.872 19.4854V17.9854H140.772L140.441 19.0343L141.872 19.4854ZM155.678 19.4854H157.178V17.9854H155.678V19.4854ZM155.678 72V73.5H157.178V72H155.678ZM142.641 72H141.141V73.5H142.641V72ZM142.641 49.9541H144.141V48.4541H142.641V49.9541ZM142.312 49.9541V48.4541H141.215L140.882 49.4983L142.312 49.9541ZM135.28 72V73.5H136.376L136.709 72.4558L135.28 72ZM132.058 72L130.628 72.4536L130.96 73.5H132.058V72ZM125.063 49.9541L126.493 49.5005L126.161 48.4541H125.063V49.9541ZM124.77 49.9541V48.4541H123.27V49.9541H124.77ZM124.77 72V73.5H126.27V72H124.77ZM111.733 72H110.233V73.5H111.733V72ZM111.733 19.4854V17.9854H110.233V19.4854H111.733ZM125.539 19.4854L126.97 19.0343L126.639 17.9854H125.539V19.4854ZM133.632 45.1567L132.202 45.6078L132.532 46.6567H133.632V45.1567ZM133.779 45.1567L135.209 45.6078L143.303 19.9364L141.872 19.4854L140.441 19.0343L132.348 44.7057L133.779 45.1567ZM141.872 19.4854V20.9854H155.678V19.4854V17.9854H141.872V19.4854ZM155.678 19.4854H154.178V72H155.678H157.178V19.4854H155.678ZM155.678 72V70.5H142.641V72V73.5H155.678V72ZM142.641 72H144.141V49.9541H142.641H141.141V72H142.641ZM142.641 49.9541V48.4541H142.312V49.9541V51.4541H142.641V49.9541ZM142.312 49.9541L140.882 49.4983L133.851 71.5442L135.28 72L136.709 72.4558L143.741 50.4099L142.312 49.9541ZM135.28 72V70.5H132.058V72V73.5H135.28V72ZM132.058 72L133.487 71.5464L126.493 49.5005L125.063 49.9541L123.633 50.4077L130.628 72.4536L132.058 72ZM125.063 49.9541V48.4541H124.77V49.9541V51.4541H125.063V49.9541ZM124.77 49.9541H123.27V72H124.77H126.27V49.9541H124.77ZM124.77 72V70.5H111.733V72V73.5H124.77V72ZM111.733 72H113.233V19.4854H111.733H110.233V72H111.733ZM111.733 19.4854V20.9854H125.539V19.4854V17.9854H111.733V19.4854ZM125.539 19.4854L124.108 19.9364L132.202 45.6078L133.632 45.1567L135.063 44.7057L126.97 19.0343L125.539 19.4854ZM133.632 45.1567V46.6567H133.779V45.1567V43.6567H133.632V45.1567ZM196.895 66.6533L198.071 67.5839L198.074 67.5806L196.895 66.6533ZM168.77 66.6533L167.591 67.5806L167.593 67.5839L168.77 66.6533ZM168.77 24.9053L169.949 25.8326C173.058 21.8795 177.294 19.8867 182.832 19.8867V18.3867V16.8867C176.456 16.8867 171.317 19.2396 167.591 23.978L168.77 24.9053ZM182.832 18.3867V19.8867C188.37 19.8867 192.606 21.8795 195.716 25.8326L196.895 24.9053L198.074 23.978C194.347 19.2396 189.208 16.8867 182.832 16.8867V18.3867ZM196.895 24.9053L195.716 25.8326C198.821 29.7814 200.521 36.3129 200.521 45.7427H202.021H203.521C203.521 36.0807 201.804 28.7205 198.074 23.978L196.895 24.9053ZM202.021 45.7427H200.521C200.521 55.2235 198.821 61.7781 195.716 65.726L196.895 66.6533L198.074 67.5806C201.804 62.8371 203.521 55.4513 203.521 45.7427H202.021ZM196.895 66.6533L195.718 65.7228C192.61 69.6521 188.373 71.6353 182.832 71.6353V73.1353V74.6353C189.205 74.6353 194.343 72.2971 198.071 67.5839L196.895 66.6533ZM182.832 73.1353V71.6353C177.291 71.6353 173.054 69.6521 169.946 65.7228L168.77 66.6533L167.593 67.5839C171.321 72.2971 176.459 74.6353 182.832 74.6353V73.1353ZM168.77 66.6533L169.949 65.726C166.843 61.7781 165.143 55.2235 165.143 45.7427H163.643H162.143C162.143 55.4513 163.86 62.8371 167.591 67.5806L168.77 66.6533ZM163.643 45.7427H165.143C165.143 36.3129 166.843 29.7814 169.949 25.8326L168.77 24.9053L167.591 23.978C163.86 28.7205 162.143 36.0807 162.143 45.7427H163.643ZM178.584 57.6445L177.216 58.2594C177.773 59.4995 178.505 60.5426 179.465 61.2791C180.446 62.0317 181.588 62.4038 182.832 62.4038V60.9038V59.4038C182.22 59.4038 181.727 59.2327 181.291 58.8989C180.835 58.5489 180.371 57.9625 179.952 57.0296L178.584 57.6445ZM182.832 60.9038V62.4038C184.076 62.4038 185.218 62.0317 186.199 61.2791C187.159 60.5426 187.891 59.4995 188.448 58.2594L187.08 57.6445L185.712 57.0296C185.293 57.9625 184.829 58.5489 184.373 58.8989C183.937 59.2327 183.444 59.4038 182.832 59.4038V60.9038ZM187.08 57.6445L188.448 58.2594C189.571 55.7621 190.045 51.4976 190.045 45.7427H188.545H187.045C187.045 51.5112 186.543 55.1812 185.712 57.0296L187.08 57.6445ZM188.545 45.7427H190.045C190.045 40.0553 189.569 35.8217 188.451 33.3049L187.08 33.9141L185.709 34.5233C186.544 36.4009 187.045 40.0531 187.045 45.7427H188.545ZM187.08 33.9141L188.451 33.3049C187.895 32.0541 187.164 31.0011 186.205 30.257C185.224 29.496 184.08 29.1182 182.832 29.1182V30.6182V32.1182C183.439 32.1182 183.931 32.2897 184.366 32.6273C184.823 32.9818 185.289 33.5768 185.709 34.5233L187.08 33.9141ZM182.832 30.6182V29.1182C181.584 29.1182 180.44 29.496 179.459 30.257C178.5 31.0011 177.769 32.0541 177.213 33.3049L178.584 33.9141L179.955 34.5233C180.375 33.5768 180.841 32.9818 181.298 32.6273C181.733 32.2897 182.225 32.1182 182.832 32.1182V30.6182ZM178.584 33.9141L177.213 33.3049C176.095 35.8217 175.619 40.0553 175.619 45.7427H177.119H178.619C178.619 40.0531 179.12 36.4009 179.955 34.5233L178.584 33.9141ZM177.119 45.7427H175.619C175.619 51.4976 176.093 55.7621 177.216 58.2594L178.584 57.6445L179.952 57.0296C179.121 55.1812 178.619 51.5112 178.619 45.7427H177.119ZM230.365 72H228.865V73.5H230.365V72ZM230.365 19.4854V17.9854H228.865V19.4854H230.365ZM259.479 19.4854H260.979V17.9854H259.479V19.4854ZM259.479 31.7168V33.2168H260.979V31.7168H259.479ZM243.805 31.7168V30.2168H242.305V31.7168H243.805ZM243.805 43.7285H242.305V45.2285H243.805V43.7285ZM257.281 43.7285H258.781V42.2285H257.281V43.7285ZM257.281 54.7515V56.2515H258.781V54.7515H257.281ZM243.805 54.7515V53.2515H242.305V54.7515H243.805ZM243.805 72V73.5H245.305V72H243.805ZM230.365 72H231.865V19.4854H230.365H228.865V72H230.365ZM230.365 19.4854V20.9854H259.479V19.4854V17.9854H230.365V19.4854ZM259.479 19.4854H257.979V31.7168H259.479H260.979V19.4854H259.479ZM259.479 31.7168V30.2168H243.805V31.7168V33.2168H259.479V31.7168ZM243.805 31.7168H242.305V43.7285H243.805H245.305V31.7168H243.805ZM243.805 43.7285V45.2285H257.281V43.7285V42.2285H243.805V43.7285ZM257.281 43.7285H255.781V54.7515H257.281H258.781V43.7285H257.281ZM257.281 54.7515V53.2515H243.805V54.7515V56.2515H257.281V54.7515ZM243.805 54.7515H242.305V72H243.805H245.305V54.7515H243.805ZM243.805 72V70.5H230.365V72V73.5H243.805V72ZM285.314 19.4854V17.9854H283.814V19.4854H285.314ZM298.754 19.4854H300.254V17.9854H298.754V19.4854ZM270.556 68.5942L269.499 69.6591L270.556 68.5942ZM265.978 19.4854V17.9854H264.478V19.4854H265.978ZM279.418 19.4854H280.918V17.9854H279.418V19.4854ZM280.224 59.8418L279.029 60.7484L279.038 60.7612L279.048 60.7739L280.224 59.8418ZM284.435 59.8418L283.279 58.8854L283.27 58.8975L283.26 58.9097L284.435 59.8418ZM285.314 57.1318H286.814V19.4854H285.314H283.814V57.1318H285.314ZM285.314 19.4854V20.9854H298.754V19.4854V17.9854H285.314V19.4854ZM298.754 19.4854H297.254V56.4727H298.754H300.254V19.4854H298.754ZM298.754 56.4727H297.254C297.254 61.1987 295.828 64.8279 293.087 67.5251L294.14 68.5942L295.192 69.6633C298.603 66.3059 300.254 61.8541 300.254 56.4727H298.754ZM294.14 68.5942L293.087 67.5251C290.325 70.2437 286.776 71.6353 282.311 71.6353V73.1353V74.6353C287.465 74.6353 291.802 72.9995 295.192 69.6633L294.14 68.5942ZM282.311 73.1353V71.6353C277.873 71.6353 274.35 70.2453 271.612 67.5293L270.556 68.5942L269.499 69.6591C272.865 72.9979 277.179 74.6353 282.311 74.6353V73.1353ZM270.556 68.5942L271.612 67.5293C268.894 64.8328 267.478 61.2022 267.478 56.4727H265.978H264.478C264.478 61.8505 266.114 66.3009 269.499 69.6591L270.556 68.5942ZM265.978 56.4727H267.478V19.4854H265.978H264.478V56.4727H265.978ZM265.978 19.4854V20.9854H279.418V19.4854V17.9854H265.978V19.4854ZM279.418 19.4854H277.918V57.1318H279.418H280.918V19.4854H279.418ZM279.418 57.1318H277.918C277.918 58.4789 278.251 59.723 279.029 60.7484L280.224 59.8418L281.419 58.9352C281.122 58.5446 280.918 57.982 280.918 57.1318H279.418ZM280.224 59.8418L279.048 60.7739C279.866 61.8042 280.978 62.4038 282.311 62.4038V60.9038V59.4038C281.983 59.4038 281.705 59.2954 281.399 58.9097L280.224 59.8418ZM282.311 60.9038V62.4038C283.653 62.4038 284.783 61.8168 285.61 60.7739L284.435 59.8418L283.26 58.9097C282.964 59.2828 282.678 59.4038 282.311 59.4038V60.9038ZM284.435 59.8418L285.591 60.7981C286.441 59.771 286.814 58.5085 286.814 57.1318H285.314H283.814C283.814 57.9525 283.601 58.4966 283.279 58.8854L284.435 59.8418ZM328.435 40.4326V41.9326H329.935V40.4326H328.435ZM328.435 19.4854V17.9854H326.935V19.4854H328.435ZM341.838 19.4854H343.338V17.9854H341.838V19.4854ZM341.838 72V73.5H343.338V72H341.838ZM333.159 72L331.825 72.6867L332.244 73.5H333.159V72ZM322.429 51.1626L323.762 50.4759L323.344 49.6626H322.429V51.1626ZM322.282 51.1626V49.6626H320.782V51.1626H322.282ZM322.282 72V73.5H323.782V72H322.282ZM308.769 72H307.269V73.5H308.769V72ZM308.769 19.4854V17.9854H307.269V19.4854H308.769ZM317.485 19.4854L318.821 18.8033L318.403 17.9854H317.485V19.4854ZM328.178 40.4326L326.842 41.1146L327.26 41.9326H328.178V40.4326ZM328.435 40.4326H329.935V19.4854H328.435H326.935V40.4326H328.435ZM328.435 19.4854V20.9854H341.838V19.4854V17.9854H328.435V19.4854ZM341.838 19.4854H340.338V72H341.838H343.338V19.4854H341.838ZM341.838 72V70.5H333.159V72V73.5H341.838V72ZM333.159 72L334.492 71.3133L323.762 50.4759L322.429 51.1626L321.095 51.8493L331.825 72.6867L333.159 72ZM322.429 51.1626V49.6626H322.282V51.1626V52.6626H322.429V51.1626ZM322.282 51.1626H320.782V72H322.282H323.782V51.1626H322.282ZM322.282 72V70.5H308.769V72V73.5H322.282V72ZM308.769 72H310.269V19.4854H308.769H307.269V72H308.769ZM308.769 19.4854V20.9854H317.485V19.4854V17.9854H308.769V19.4854ZM317.485 19.4854L316.149 20.1674L326.842 41.1146L328.178 40.4326L329.514 39.7506L318.821 18.8033L317.485 19.4854ZM328.178 40.4326V41.9326H328.435V40.4326V38.9326H328.178V40.4326ZM379.978 57.6812L381.447 57.3752L380.96 55.0408L379.066 56.4899L379.978 57.6812ZM382.542 69.9858L383.392 71.2216L384.213 70.6563L384.01 69.6799L382.542 69.9858ZM355.442 66.6167L354.283 67.5687L354.289 67.5757L355.442 66.6167ZM355.442 24.9419L354.291 23.9797L354.288 23.9835L355.442 24.9419ZM381.772 20.4741L383.221 20.865L383.507 19.8031L382.581 19.2104L381.772 20.4741ZM378.55 32.4126L377.653 33.6149L379.423 34.9351L379.998 32.8035L378.55 32.4126ZM365.879 33.9873L364.663 33.109L364.656 33.118L365.879 33.9873ZM365.879 57.6079L364.652 58.4708L364.657 58.4785L364.663 58.4861L365.879 57.6079ZM372.471 60.9038V62.4038C375.145 62.4038 377.968 61.1082 380.89 58.8724L379.978 57.6812L379.066 56.4899C376.373 58.551 374.191 59.4038 372.471 59.4038V60.9038ZM379.978 57.6812L378.51 57.9871L381.073 70.2918L382.542 69.9858L384.01 69.6799L381.447 57.3752L379.978 57.6812ZM382.542 69.9858L381.691 68.7501C378.97 70.6223 375.199 71.6353 370.237 71.6353V73.1353V74.6353C375.577 74.6353 380.009 73.5486 383.392 71.2216L382.542 69.9858ZM370.237 73.1353V71.6353C364.379 71.6353 359.891 69.6216 356.595 65.6577L355.442 66.6167L354.289 67.5757C358.219 72.3032 363.594 74.6353 370.237 74.6353V73.1353ZM355.442 66.6167L356.601 65.6647C353.34 61.6936 351.559 55.16 351.559 45.7427H350.059H348.559C348.559 55.4172 350.366 62.7996 354.283 67.5687L355.442 66.6167ZM350.059 45.7427H351.559C351.559 36.3231 353.341 29.8196 356.596 25.9002L355.442 24.9419L354.288 23.9835C350.365 28.7068 348.559 36.0704 348.559 45.7427H350.059ZM355.442 24.9419L356.593 25.9041C359.887 21.9637 364.376 19.96 370.237 19.96V18.46V16.96C363.597 16.96 358.223 19.2775 354.291 23.9797L355.442 24.9419ZM370.237 18.46V19.96C372.979 19.96 375.246 20.1252 377.056 20.4411C378.881 20.7599 380.15 21.2167 380.964 21.7378L381.772 20.4741L382.581 19.2104C381.296 18.3887 379.591 17.8385 377.572 17.4859C375.536 17.1304 373.085 16.96 370.237 16.96V18.46ZM381.772 20.4741L380.324 20.0832L377.102 32.0217L378.55 32.4126L379.998 32.8035L383.221 20.865L381.772 20.4741ZM378.55 32.4126L379.447 31.2103C377.579 29.8172 375.208 29.1914 372.471 29.1914V30.6914V32.1914C374.762 32.1914 376.444 32.7131 377.653 33.6149L378.55 32.4126ZM372.471 30.6914V29.1914C369.202 29.1914 366.544 30.5051 364.663 33.1091L365.879 33.9873L367.095 34.8655C368.388 33.075 370.124 32.1914 372.471 32.1914V30.6914ZM365.879 33.9873L364.656 33.118C362.801 35.7271 362.035 40.0681 362.035 45.7427H363.535H365.035C365.035 40.138 365.832 36.642 367.101 34.8566L365.879 33.9873ZM363.535 45.7427H362.035C362.035 51.4656 362.801 55.8393 364.652 58.4708L365.879 57.6079L367.106 56.745C365.832 54.9332 365.035 51.3967 365.035 45.7427H363.535ZM365.879 57.6079L364.663 58.4861C366.544 61.0901 369.202 62.4038 372.471 62.4038V60.9038V59.4038C370.124 59.4038 368.388 58.5202 367.095 56.7297L365.879 57.6079ZM388.711 72H387.211V73.5H388.711V72ZM388.711 19.4854V17.9854H387.211V19.4854H388.711ZM402.151 19.4854H403.651V17.9854H402.151V19.4854ZM402.151 72V73.5H403.651V72H402.151ZM388.711 72H390.211V19.4854H388.711H387.211V72H388.711ZM388.711 19.4854V20.9854H402.151V19.4854V17.9854H388.711V19.4854ZM402.151 19.4854H400.651V72H402.151H403.651V19.4854H402.151ZM402.151 72V70.5H388.711V72V73.5H402.151V72ZM443.551 66.6533L444.727 67.5839L444.73 67.5806L443.551 66.6533ZM415.426 66.6533L414.247 67.5806L414.249 67.5839L415.426 66.6533ZM415.426 24.9053L416.605 25.8326C419.714 21.8795 423.95 19.8867 429.488 19.8867V18.3867V16.8867C423.112 16.8867 417.974 19.2396 414.247 23.978L415.426 24.9053ZM429.488 18.3867V19.8867C435.026 19.8867 439.263 21.8795 442.372 25.8326L443.551 24.9053L444.73 23.978C441.003 19.2396 435.864 16.8867 429.488 16.8867V18.3867ZM443.551 24.9053L442.372 25.8326C445.478 29.7814 447.178 36.3129 447.178 45.7427H448.678H450.178C450.178 36.0807 448.46 28.7205 444.73 23.978L443.551 24.9053ZM448.678 45.7427H447.178C447.178 55.2235 445.477 61.7781 442.372 65.726L443.551 66.6533L444.73 67.5806C448.461 62.8371 450.178 55.4513 450.178 45.7427H448.678ZM443.551 66.6533L442.374 65.7228C439.266 69.6521 435.03 71.6353 429.488 71.6353V73.1353V74.6353C435.861 74.6353 440.999 72.2971 444.727 67.5839L443.551 66.6533ZM429.488 73.1353V71.6353C423.947 71.6353 419.71 69.6521 416.602 65.7228L415.426 66.6533L414.249 67.5839C417.977 72.2971 423.115 74.6353 429.488 74.6353V73.1353ZM415.426 66.6533L416.605 65.726C413.5 61.7781 411.799 55.2235 411.799 45.7427H410.299H408.799C408.799 55.4513 410.516 62.8371 414.247 67.5806L415.426 66.6533ZM410.299 45.7427H411.799C411.799 36.3129 413.499 29.7814 416.605 25.8326L415.426 24.9053L414.247 23.978C410.517 28.7205 408.799 36.0807 408.799 45.7427H410.299ZM425.24 57.6445L423.872 58.2594C424.429 59.4995 425.162 60.5426 426.122 61.2791C427.102 62.0317 428.244 62.4038 429.488 62.4038V60.9038V59.4038C428.877 59.4038 428.383 59.2327 427.948 58.8989C427.492 58.5489 427.028 57.9625 426.608 57.0296L425.24 57.6445ZM429.488 60.9038V62.4038C430.732 62.4038 431.874 62.0317 432.855 61.2791C433.815 60.5426 434.547 59.4995 435.104 58.2594L433.736 57.6445L432.368 57.0296C431.949 57.9625 431.485 58.5489 431.029 58.8989C430.594 59.2327 430.1 59.4038 429.488 59.4038V60.9038ZM433.736 57.6445L435.104 58.2594C436.227 55.7621 436.701 51.4976 436.701 45.7427H435.201H433.701C433.701 51.5112 433.199 55.1812 432.368 57.0296L433.736 57.6445ZM435.201 45.7427H436.701C436.701 40.0553 436.226 35.8217 435.107 33.3049L433.736 33.9141L432.366 34.5233C433.2 36.4009 433.701 40.0531 433.701 45.7427H435.201ZM433.736 33.9141L435.107 33.3049C434.551 32.0541 433.82 31.0011 432.861 30.257C431.88 29.496 430.736 29.1182 429.488 29.1182V30.6182V32.1182C430.096 32.1182 430.587 32.2897 431.022 32.6273C431.479 32.9818 431.945 33.5768 432.366 34.5233L433.736 33.9141ZM429.488 30.6182V29.1182C428.24 29.1182 427.096 29.496 426.115 30.257C425.156 31.0011 424.425 32.0541 423.87 33.3049L425.24 33.9141L426.611 34.5233C427.032 33.5768 427.497 32.9818 427.954 32.6273C428.389 32.2897 428.881 32.1182 429.488 32.1182V30.6182ZM425.24 33.9141L423.87 33.3049C422.751 35.8217 422.275 40.0553 422.275 45.7427H423.775H425.275C425.275 40.0531 425.776 36.4009 426.611 34.5233L425.24 33.9141ZM423.775 45.7427H422.275C422.275 51.4976 422.75 55.7621 423.872 58.2594L425.24 57.6445L426.608 57.0296C425.778 55.1812 425.275 51.5112 425.275 45.7427H423.775ZM476.527 40.4326V41.9326H478.027V40.4326H476.527ZM476.527 19.4854V17.9854H475.027V19.4854H476.527ZM489.931 19.4854H491.431V17.9854H489.931V19.4854ZM489.931 72V73.5H491.431V72H489.931ZM481.251 72L479.918 72.6867L480.337 73.5H481.251V72ZM470.521 51.1626L471.855 50.4759L471.436 49.6626H470.521V51.1626ZM470.375 51.1626V49.6626H468.875V51.1626H470.375ZM470.375 72V73.5H471.875V72H470.375ZM456.862 72H455.362V73.5H456.862V72ZM456.862 19.4854V17.9854H455.362V19.4854H456.862ZM465.578 19.4854L466.914 18.8033L466.496 17.9854H465.578V19.4854ZM476.271 40.4326L474.935 41.1146L475.353 41.9326H476.271V40.4326ZM476.527 40.4326H478.027V19.4854H476.527H475.027V40.4326H476.527ZM476.527 19.4854V20.9854H489.931V19.4854V17.9854H476.527V19.4854ZM489.931 19.4854H488.431V72H489.931H491.431V19.4854H489.931ZM489.931 72V70.5H481.251V72V73.5H489.931V72ZM481.251 72L482.585 71.3133L471.855 50.4759L470.521 51.1626L469.188 51.8493L479.918 72.6867L481.251 72ZM470.521 51.1626V49.6626H470.375V51.1626V52.6626H470.521V51.1626ZM470.375 51.1626H468.875V72H470.375H471.875V51.1626H470.375ZM470.375 72V70.5H456.862V72V73.5H470.375V72ZM456.862 72H458.362V19.4854H456.862H455.362V72H456.862ZM456.862 19.4854V20.9854H465.578V19.4854V17.9854H456.862V19.4854ZM465.578 19.4854L464.242 20.1674L474.935 41.1146L476.271 40.4326L477.607 39.7506L466.914 18.8033L465.578 19.4854ZM476.271 40.4326V41.9326H476.527V40.4326V38.9326H476.271V40.4326ZM506.245 19.4854V17.9854H505.033L504.778 19.1694L506.245 19.4854ZM523.127 19.4854L524.593 19.1674L524.336 17.9854H523.127V19.4854ZM534.516 72V73.5H536.376L535.982 71.6821L534.516 72ZM521.003 72L519.521 72.2343L519.721 73.5H521.003V72ZM519.758 64.1265L521.239 63.8922L521.039 62.6265H519.758V64.1265ZM509.687 64.1265V62.6265H508.411L508.207 63.8855L509.687 64.1265ZM508.405 72V73.5H509.681L509.886 72.241L508.405 72ZM494.929 72L493.462 71.684L493.071 73.5H494.929V72ZM511.481 53.3965L510.002 53.1494L509.71 54.8965H511.481V53.3965ZM517.927 53.3965V54.8965H519.705L519.405 53.1435L517.927 53.3965ZM514.851 35.4155L516.329 35.1626L516.116 33.9155H514.851V35.4155ZM514.484 35.4155V33.9155H513.214L513.005 35.1684L514.484 35.4155ZM506.245 19.4854V20.9854H523.127V19.4854V17.9854H506.245V19.4854ZM523.127 19.4854L521.661 19.8033L533.05 72.3179L534.516 72L535.982 71.6821L524.593 19.1674L523.127 19.4854ZM534.516 72V70.5H521.003V72V73.5H534.516V72ZM521.003 72L522.484 71.7657L521.239 63.8922L519.758 64.1265L518.276 64.3608L519.521 72.2343L521.003 72ZM519.758 64.1265V62.6265H509.687V64.1265V65.6265H519.758V64.1265ZM509.687 64.1265L508.207 63.8855L506.925 71.759L508.405 72L509.886 72.241L511.168 64.3675L509.687 64.1265ZM508.405 72V70.5H494.929V72V73.5H508.405V72ZM494.929 72L496.395 72.316L507.711 19.8013L506.245 19.4854L504.778 19.1694L493.462 71.684L494.929 72ZM511.481 53.3965V54.8965H517.927V53.3965V51.8965H511.481V53.3965ZM517.927 53.3965L519.405 53.1435L516.329 35.1626L514.851 35.4155L513.372 35.6685L516.448 53.6494L517.927 53.3965ZM514.851 35.4155V33.9155H514.484V35.4155V36.9155H514.851V35.4155ZM514.484 35.4155L513.005 35.1684L510.002 53.1494L511.481 53.3965L512.961 53.6436L515.964 35.6626L514.484 35.4155Z" fill="black" mask="url(#path-2-outside-1_45_574)"/>
</svg>
