<svg width="434" height="118" viewBox="0 0 434 118" fill="none" xmlns="http://www.w3.org/2000/svg">
<path d="M142.879 110.264C155.977 109.427 169.075 108.585 182.157 107.574C195.239 106.563 208.398 105.383 221.466 103.868C234.534 102.353 247.458 100.512 260.301 98.1799C266.618 97.0327 272.909 95.7787 279.144 94.363C284.105 93.2381 288.995 91.9213 293.639 90.1082C298.283 88.2951 302.384 86.0482 305.577 82.9959C308.77 79.9437 310.671 76.4983 311.166 72.7537C312.176 65.1758 307.936 57.786 301.354 52.4752C293.924 46.4846 283.182 43.5527 272.735 42.1495C267.154 41.403 261.481 41.058 255.803 40.8575C249.431 40.6277 243.048 40.548 236.663 40.5559C223.467 40.5742 210.262 41.0307 197.084 41.8668C183.906 42.7029 170.834 43.9039 157.772 45.4082C144.71 46.9125 131.639 48.7262 118.646 50.7674C105.654 52.8086 92.5025 55.1159 79.5129 57.5791C73.0674 58.8003 66.6311 60.0674 60.2097 61.3645C54.6767 62.4845 49.1295 63.5899 43.6457 64.8823C33.9395 67.177 24.0693 70.1244 16.0201 75.1197C7.97697 80.1044 0.194229 88.2828 2.72081 96.5693C5.24739 104.856 18.7218 107.386 28.2964 108.904C40.8699 110.892 53.7664 111.605 66.632 111.873C79.4976 112.14 93.0809 112.029 106.302 111.613C119.523 111.196 133.024 110.435 146.348 109.344C159.671 108.253 172.851 106.845 186.033 105.098C192.406 104.256 198.761 103.333 205.099 102.34C205.983 102.199 206.729 101.726 206.688 100.966C206.654 100.345 205.85 99.6314 204.96 99.7725C192.066 101.798 179.095 103.508 166.087 104.902C153.079 106.295 140.126 107.356 127.104 108.111C114.081 108.867 100.928 109.3 87.8367 109.415C74.7459 109.531 62.3762 109.453 49.7393 108.622C43.4641 108.207 37.2115 107.595 31.0424 106.685C25.7049 105.899 20.1714 105.057 15.2149 103.329C10.9774 101.856 7.14693 99.5516 5.93729 95.9049C4.6551 92.0254 6.63158 87.7675 9.35063 84.4424C14.564 78.0619 23.0992 73.8073 31.8463 70.88C41.8476 67.5291 52.4819 65.5442 62.9568 63.4393C75.55 60.905 88.184 58.5075 100.868 56.3028C113.553 54.0982 126.314 52.0902 139.117 50.3375C151.919 48.5847 164.795 47.0957 177.703 45.9345C190.61 44.7733 203.396 43.9431 216.269 43.4944C229.142 43.0457 241.91 42.9734 254.696 43.379C265.437 43.7209 276.504 44.5446 286.382 47.8376C290.975 49.3691 295.256 51.4016 298.772 54.1554C301.94 56.6398 304.486 59.6576 306.101 62.9423C307.717 66.227 308.423 69.5407 307.81 72.9313C307.196 76.322 305.143 79.6572 302.02 82.2937C295.272 87.9802 285.101 90.4084 275.886 92.4344C263.463 95.1603 250.871 97.3496 238.203 99.1362C225.536 100.923 212.782 102.328 200.008 103.497C187.233 104.667 174.274 105.614 161.397 106.48C155.174 106.897 148.95 107.297 142.733 107.698C140.598 107.835 140.738 110.401 142.872 110.265L142.879 110.264Z" fill="#FFFF5F"/>
<mask id="path-2-outside-1_10_49" maskUnits="userSpaceOnUse" x="20" y="1" width="291" height="42" fill="black">
<rect fill="white" x="20" y="1" width="291" height="42"/>
<path d="M37.4688 32.3066C38.9922 32.3066 40.7272 31.5618 42.6738 30.0723L44.4512 38.6035C42.3353 40.0592 39.4915 40.7871 35.9199 40.7871C31.5866 40.7871 28.1673 39.2806 25.6621 36.2676C23.1738 33.2376 21.9297 28.4134 21.9297 21.7949C21.9297 15.1764 23.1738 10.3691 25.6621 7.37305C28.1673 4.37695 31.5866 2.87891 35.9199 2.87891C39.7962 2.87891 42.4622 3.3444 43.918 4.27539L41.6836 12.5527C40.6172 11.7572 39.2122 11.3594 37.4688 11.3594C35.5221 11.3594 33.9987 12.1211 32.8984 13.6445C31.8151 15.168 31.2734 17.8848 31.2734 21.7949C31.2734 25.7389 31.8151 28.4811 32.8984 30.0215C33.9987 31.5449 35.5221 32.3066 37.4688 32.3066ZM48.8945 7.34766C51.2643 4.33464 54.5143 2.82812 58.6445 2.82812C62.7747 2.82812 66.0247 4.33464 68.3945 7.34766C70.7643 10.3607 71.9492 15.1764 71.9492 21.7949C71.9492 28.4473 70.7643 33.2799 68.3945 36.293C66.0247 39.2891 62.7747 40.7871 58.6445 40.7871C54.5143 40.7871 51.2643 39.2891 48.8945 36.293C46.5247 33.2799 45.3398 28.4473 45.3398 21.7949C45.3398 15.1764 46.5247 10.3607 48.8945 7.34766ZM55.6992 30.0469C56.3763 31.5534 57.3581 32.3066 58.6445 32.3066C59.931 32.3066 60.9128 31.5534 61.5898 30.0469C62.2669 28.5404 62.6055 25.7897 62.6055 21.7949C62.6055 17.8509 62.2669 15.1172 61.5898 13.5938C60.9128 12.0703 59.931 11.3086 58.6445 11.3086C57.3581 11.3086 56.3763 12.0703 55.6992 13.5938C55.0221 15.1172 54.6836 17.8509 54.6836 21.7949C54.6836 25.7897 55.0221 28.5404 55.6992 30.0469ZM90.7383 18.1133V3.58984H100.031V40H94.0137L86.5742 25.5527H86.4727V40H77.1035V3.58984H83.1465L90.5605 18.1133H90.7383ZM104.018 12.0703V3.58984H126.641V12.0703H119.963V40H110.67V12.0703H104.018ZM132.709 3.58984H144.414L152.311 40H142.941L142.078 34.541H135.096L134.207 40H124.863L132.709 3.58984ZM136.34 27.1016H140.809L138.676 14.6348H138.422L136.34 27.1016ZM168.129 32.3066C169.652 32.3066 171.387 31.5618 173.334 30.0723L175.111 38.6035C172.995 40.0592 170.152 40.7871 166.58 40.7871C162.247 40.7871 158.827 39.2806 156.322 36.2676C153.834 33.2376 152.59 28.4134 152.59 21.7949C152.59 15.1764 153.834 10.3691 156.322 7.37305C158.827 4.37695 162.247 2.87891 166.58 2.87891C170.456 2.87891 173.122 3.3444 174.578 4.27539L172.344 12.5527C171.277 11.7572 169.872 11.3594 168.129 11.3594C166.182 11.3594 164.659 12.1211 163.559 13.6445C162.475 15.168 161.934 17.8848 161.934 21.7949C161.934 25.7389 162.475 28.4811 163.559 30.0215C164.659 31.5449 166.182 32.3066 168.129 32.3066ZM177.143 12.0703V3.58984H199.766V12.0703H193.088V40H183.795V12.0703H177.143ZM205.834 3.58984H217.539L225.436 40H216.066L215.203 34.541H208.221L207.332 40H197.988L205.834 3.58984ZM209.465 27.1016H213.934L211.801 14.6348H211.547L209.465 27.1016ZM241.965 18.1133V3.58984H251.258V40H245.24L237.801 25.5527H237.699V40H228.33V3.58984H234.373L241.787 18.1133H241.965ZM259.992 7.34766C262.362 4.33464 265.612 2.82812 269.742 2.82812C273.872 2.82812 277.122 4.33464 279.492 7.34766C281.862 10.3607 283.047 15.1764 283.047 21.7949C283.047 28.4473 281.862 33.2799 279.492 36.293C277.122 39.2891 273.872 40.7871 269.742 40.7871C265.612 40.7871 262.362 39.2891 259.992 36.293C257.622 33.2799 256.438 28.4473 256.438 21.7949C256.438 15.1764 257.622 10.3607 259.992 7.34766ZM266.797 30.0469C267.474 31.5534 268.456 32.3066 269.742 32.3066C271.029 32.3066 272.01 31.5534 272.688 30.0469C273.365 28.5404 273.703 25.7897 273.703 21.7949C273.703 17.8509 273.365 15.1172 272.688 13.5938C272.01 12.0703 271.029 11.3086 269.742 11.3086C268.456 11.3086 267.474 12.0703 266.797 13.5938C266.12 15.1172 265.781 17.8509 265.781 21.7949C265.781 25.7897 266.12 28.5404 266.797 30.0469ZM301.354 18.5195C304.502 20.4323 306.635 22.252 307.752 23.9785C308.869 25.6882 309.428 27.7025 309.428 30.0215C309.428 33.2884 308.336 35.9036 306.152 37.8672C303.969 39.8138 300.981 40.7871 297.189 40.7871C292.755 40.7871 289.115 39.7461 286.271 37.6641L288.1 29.6914C290.91 31.7057 293.576 32.7129 296.098 32.7129C298.772 32.7129 300.109 31.8158 300.109 30.0215C300.109 29.2936 299.788 28.5658 299.145 27.8379C298.501 27.11 297.232 26.1875 295.336 25.0703C292.357 23.3776 290.215 21.6003 288.912 19.7383C287.609 17.8594 286.957 15.6673 286.957 13.1621C286.957 10.0475 288.057 7.55078 290.258 5.67188C292.458 3.77604 295.378 2.82812 299.018 2.82812C302.657 2.82812 305.797 3.48828 308.438 4.80859L307.396 12.9082C306.635 12.4173 305.56 11.9434 304.172 11.4863C302.784 11.0124 301.514 10.7754 300.363 10.7754C297.723 10.7754 296.411 11.6556 296.428 13.416C296.428 14.2454 296.834 15.0579 297.646 15.8535C298.459 16.6322 299.695 17.5208 301.354 18.5195Z"/>
</mask>
<path d="M42.6738 30.0723L44.1423 29.7663L43.656 27.4319L41.7623 28.881L42.6738 30.0723ZM44.4512 38.6035L45.3014 39.8393L46.1231 39.274L45.9196 38.2976L44.4512 38.6035ZM25.6621 36.2676L24.5029 37.2196L24.5087 37.2266L25.6621 36.2676ZM25.6621 7.37305L24.5114 6.41085L24.5082 6.4147L25.6621 7.37305ZM43.918 4.27539L45.3661 4.66631L45.6528 3.60435L44.7261 3.01172L43.918 4.27539ZM41.6836 12.5527L40.7867 13.755L42.5564 15.0753L43.1318 12.9437L41.6836 12.5527ZM32.8984 13.6445L31.6824 12.7663L31.676 12.7752L32.8984 13.6445ZM32.8984 30.0215L31.6715 30.8844L31.6769 30.8921L31.6824 30.8997L32.8984 30.0215ZM37.4688 33.8066C39.4687 33.8066 41.5247 32.8404 43.5854 31.2635L41.7623 28.881C39.9298 30.2833 38.5156 30.8066 37.4688 30.8066V33.8066ZM41.2054 30.3782L42.9827 38.9094L45.9196 38.2976L44.1423 29.7663L41.2054 30.3782ZM43.601 37.3677C41.8156 38.5961 39.3028 39.2871 35.9199 39.2871V42.2871C39.6803 42.2871 42.855 41.5224 45.3014 39.8393L43.601 37.3677ZM35.9199 39.2871C31.9789 39.2871 29.0033 37.9398 26.8155 35.3086L24.5087 37.2266C27.3314 40.6214 31.1942 42.2871 35.9199 42.2871V39.2871ZM26.8213 35.3156C24.6607 32.6847 23.4297 28.2848 23.4297 21.7949H20.4297C20.4297 28.542 21.687 33.7906 24.5029 37.2195L26.8213 35.3156ZM23.4297 21.7949C23.4297 15.3028 24.6616 10.9255 26.816 8.3314L24.5082 6.4147C21.6861 9.81276 20.4297 15.0501 20.4297 21.7949H23.4297ZM26.8128 8.33524C28.9996 5.72002 31.9759 4.37891 35.9199 4.37891V1.37891C31.1973 1.37891 27.3351 3.03389 24.5114 6.41085L26.8128 8.33524ZM35.9199 4.37891C37.8052 4.37891 39.3486 4.49264 40.5687 4.70567C41.8046 4.92147 42.617 5.22389 43.1098 5.53906L44.7261 3.01172C43.7632 2.3959 42.5147 2.00008 41.0847 1.75038C39.6387 1.49792 37.9109 1.37891 35.9199 1.37891V4.37891ZM42.4698 3.88447L40.2354 12.1618L43.1318 12.9437L45.3661 4.66631L42.4698 3.88447ZM42.5805 11.3504C41.1848 10.3092 39.4353 9.85938 37.4688 9.85938V12.8594C38.9892 12.8594 40.0495 13.2051 40.7867 13.755L42.5805 11.3504ZM37.4688 9.85938C35.0609 9.85938 33.0764 10.8361 31.6824 12.7663L34.1145 14.5228C34.921 13.4061 35.9834 12.8594 37.4688 12.8594V9.85938ZM31.676 12.7752C30.2998 14.7105 29.7734 17.8498 29.7734 21.7949H32.7734C32.7734 17.9197 33.3304 15.6254 34.1209 14.5138L31.676 12.7752ZM29.7734 21.7949C29.7734 25.7734 30.2999 28.9342 31.6715 30.8844L34.1254 29.1586C33.3303 28.0281 32.7734 25.7045 32.7734 21.7949H29.7734ZM31.6824 30.8997C33.0764 32.8299 35.0609 33.8066 37.4688 33.8066V30.8066C35.9834 30.8066 34.921 30.26 34.1145 29.1432L31.6824 30.8997ZM68.3945 36.293L69.571 37.2235L69.5735 37.2203L68.3945 36.293ZM48.8945 36.293L47.7155 37.2203L47.7181 37.2235L48.8945 36.293ZM50.0735 8.27497C52.1345 5.6546 54.9333 4.32812 58.6445 4.32812V1.32812C54.0953 1.32812 50.3941 3.01467 47.7155 6.42034L50.0735 8.27497ZM58.6445 4.32812C62.3557 4.32812 65.1545 5.6546 67.2155 8.27497L69.5735 6.42034C66.8949 3.01467 63.1938 1.32812 58.6445 1.32812V4.32812ZM67.2155 8.27497C69.2732 10.8911 70.4492 15.2925 70.4492 21.7949H73.4492C73.4492 15.0603 72.2555 9.83022 69.5735 6.42034L67.2155 8.27497ZM70.4492 21.7949C70.4492 28.3333 69.2724 32.7505 67.2155 35.3657L69.5735 37.2203C72.2562 33.8094 73.4492 28.5612 73.4492 21.7949H70.4492ZM67.2181 35.3624C65.1583 37.9666 62.3589 39.2871 58.6445 39.2871V42.2871C63.1906 42.2871 66.8912 40.6115 69.571 37.2235L67.2181 35.3624ZM58.6445 39.2871C54.9301 39.2871 52.1308 37.9666 50.071 35.3624L47.7181 37.2235C50.3979 40.6115 54.0985 42.2871 58.6445 42.2871V39.2871ZM50.0735 35.3657C48.0167 32.7505 46.8398 28.3333 46.8398 21.7949H43.8398C43.8398 28.5612 45.0328 33.8094 47.7155 37.2203L50.0735 35.3657ZM46.8398 21.7949C46.8398 15.2925 48.0159 10.8911 50.0735 8.27497L47.7155 6.42034C45.0336 9.83022 43.8398 15.0603 43.8398 21.7949H46.8398ZM54.331 30.6618C54.7386 31.5686 55.2876 32.3619 56.0303 32.9318C56.7941 33.5178 57.6852 33.8066 58.6445 33.8066V30.8066C58.3174 30.8066 58.0744 30.7189 57.8564 30.5516C57.6174 30.3682 57.3369 30.0316 57.0674 29.432L54.331 30.6618ZM58.6445 33.8066C59.6039 33.8066 60.495 33.5178 61.2588 32.9318C62.0015 32.3619 62.5504 31.5686 62.958 30.6618L60.2217 29.432C59.9522 30.0316 59.6717 30.3682 59.4326 30.5516C59.2146 30.7189 58.9716 30.8066 58.6445 30.8066V33.8066ZM62.958 30.6618C63.7809 28.8308 64.1055 25.7829 64.1055 21.7949H61.1055C61.1055 25.7965 60.7529 28.2499 60.2217 29.432L62.958 30.6618ZM64.1055 21.7949C64.1055 17.852 63.7797 14.8276 62.9606 12.9845L60.2191 14.203C60.7542 15.4068 61.1055 17.8499 61.1055 21.7949H64.1055ZM62.9606 12.9845C62.5544 12.0707 62.0071 11.2704 61.2652 10.6948C60.5014 10.1022 59.6081 9.80859 58.6445 9.80859V12.8086C58.9675 12.8086 59.2082 12.8959 59.4262 13.065C59.6661 13.2511 59.9482 13.5934 60.2191 14.203L62.9606 12.9845ZM58.6445 9.80859C57.681 9.80859 56.7876 10.1022 56.0239 10.6948C55.282 11.2704 54.7347 12.0707 54.3285 12.9845L57.0699 14.203C57.3409 13.5934 57.623 13.2511 57.8629 13.065C58.0809 12.8959 58.3216 12.8086 58.6445 12.8086V9.80859ZM54.3285 12.9845C53.5094 14.8276 53.1836 17.852 53.1836 21.7949H56.1836C56.1836 17.8499 56.5349 15.4068 57.0699 14.203L54.3285 12.9845ZM53.1836 21.7949C53.1836 25.7829 53.5081 28.8308 54.331 30.6618L57.0674 29.432C56.5361 28.2499 56.1836 25.7965 56.1836 21.7949H53.1836ZM90.7383 18.1133V19.6133H92.2383V18.1133H90.7383ZM90.7383 3.58984V2.08984H89.2383V3.58984H90.7383ZM100.031 3.58984H101.531V2.08984H100.031V3.58984ZM100.031 40V41.5H101.531V40H100.031ZM94.0137 40L92.6801 40.6867L93.0989 41.5H94.0137V40ZM86.5742 25.5527L87.9078 24.866L87.489 24.0527H86.5742V25.5527ZM86.4727 25.5527V24.0527H84.9727V25.5527H86.4727ZM86.4727 40V41.5H87.9727V40H86.4727ZM77.1035 40H75.6035V41.5H77.1035V40ZM77.1035 3.58984V2.08984H75.6035V3.58984H77.1035ZM83.1465 3.58984L84.4825 2.90784L84.0649 2.08984H83.1465V3.58984ZM90.5605 18.1133L89.2246 18.7953L89.6421 19.6133H90.5605V18.1133ZM92.2383 18.1133V3.58984H89.2383V18.1133H92.2383ZM90.7383 5.08984H100.031V2.08984H90.7383V5.08984ZM98.5312 3.58984V40H101.531V3.58984H98.5312ZM100.031 38.5H94.0137V41.5H100.031V38.5ZM95.3472 39.3133L87.9078 24.866L85.2406 26.2394L92.6801 40.6867L95.3472 39.3133ZM86.5742 24.0527H86.4727V27.0527H86.5742V24.0527ZM84.9727 25.5527V40H87.9727V25.5527H84.9727ZM86.4727 38.5H77.1035V41.5H86.4727V38.5ZM78.6035 40V3.58984H75.6035V40H78.6035ZM77.1035 5.08984H83.1465V2.08984H77.1035V5.08984ZM81.8105 4.27185L89.2246 18.7953L91.8965 17.4313L84.4825 2.90784L81.8105 4.27185ZM90.5605 19.6133H90.7383V16.6133H90.5605V19.6133ZM104.018 12.0703H102.518V13.5703H104.018V12.0703ZM104.018 3.58984V2.08984H102.518V3.58984H104.018ZM126.641 3.58984H128.141V2.08984H126.641V3.58984ZM126.641 12.0703V13.5703H128.141V12.0703H126.641ZM119.963 12.0703V10.5703H118.463V12.0703H119.963ZM119.963 40V41.5H121.463V40H119.963ZM110.67 40H109.17V41.5H110.67V40ZM110.67 12.0703H112.17V10.5703H110.67V12.0703ZM105.518 12.0703V3.58984H102.518V12.0703H105.518ZM104.018 5.08984H126.641V2.08984H104.018V5.08984ZM125.141 3.58984V12.0703H128.141V3.58984H125.141ZM126.641 10.5703H119.963V13.5703H126.641V10.5703ZM118.463 12.0703V40H121.463V12.0703H118.463ZM119.963 38.5H110.67V41.5H119.963V38.5ZM112.17 40V12.0703H109.17V40H112.17ZM110.67 10.5703H104.018V13.5703H110.67V10.5703ZM132.709 3.58984V2.08984H131.498L131.243 3.27387L132.709 3.58984ZM144.414 3.58984L145.88 3.27192L145.624 2.08984H144.414V3.58984ZM152.311 40V41.5H154.171L153.776 39.6821L152.311 40ZM142.941 40L141.46 40.2343L141.66 41.5H142.941V40ZM142.078 34.541L143.56 34.3067L143.36 33.041H142.078V34.541ZM135.096 34.541V33.041H133.82L133.615 34.3L135.096 34.541ZM134.207 40V41.5H135.483L135.688 40.241L134.207 40ZM124.863 40L123.397 39.684L123.006 41.5H124.863V40ZM136.34 27.1016L134.86 26.8545L134.569 28.6016H136.34V27.1016ZM140.809 27.1016V28.6016H142.587L142.287 26.8486L140.809 27.1016ZM138.676 14.6348L140.154 14.3818L139.941 13.1348H138.676V14.6348ZM138.422 14.6348V13.1348H137.152L136.942 14.3877L138.422 14.6348ZM132.709 5.08984H144.414V2.08984H132.709V5.08984ZM142.948 3.90777L150.845 40.3179L153.776 39.6821L145.88 3.27192L142.948 3.90777ZM152.311 38.5H142.941V41.5H152.311V38.5ZM144.423 39.7657L143.56 34.3067L140.597 34.7753L141.46 40.2343L144.423 39.7657ZM142.078 33.041H135.096V36.041H142.078V33.041ZM133.615 34.3L132.727 39.759L135.688 40.241L136.576 34.782L133.615 34.3ZM134.207 38.5H124.863V41.5H134.207V38.5ZM126.33 40.316L134.175 3.90581L131.243 3.27387L123.397 39.684L126.33 40.316ZM136.34 28.6016H140.809V25.6016H136.34V28.6016ZM142.287 26.8486L140.154 14.3818L137.197 14.8877L139.33 27.3545L142.287 26.8486ZM138.676 13.1348H138.422V16.1348H138.676V13.1348ZM136.942 14.3877L134.86 26.8545L137.819 27.3486L139.901 14.8819L136.942 14.3877ZM173.334 30.0723L174.802 29.7663L174.316 27.4319L172.422 28.881L173.334 30.0723ZM175.111 38.6035L175.962 39.8393L176.783 39.274L176.58 38.2976L175.111 38.6035ZM156.322 36.2676L155.163 37.2196L155.169 37.2266L156.322 36.2676ZM156.322 7.37305L155.172 6.41085L155.168 6.4147L156.322 7.37305ZM174.578 4.27539L176.026 4.66631L176.313 3.60435L175.386 3.01172L174.578 4.27539ZM172.344 12.5527L171.447 13.755L173.217 15.0753L173.792 12.9437L172.344 12.5527ZM163.559 13.6445L162.343 12.7663L162.336 12.7752L163.559 13.6445ZM163.559 30.0215L162.332 30.8844L162.337 30.8921L162.343 30.8997L163.559 30.0215ZM168.129 33.8066C170.129 33.8066 172.185 32.8404 174.246 31.2635L172.422 28.881C170.59 30.2833 169.176 30.8066 168.129 30.8066V33.8066ZM171.866 30.3782L173.643 38.9094L176.58 38.2976L174.802 29.7663L171.866 30.3782ZM174.261 37.3677C172.476 38.5961 169.963 39.2871 166.58 39.2871V42.2871C170.34 42.2871 173.515 41.5224 175.962 39.8393L174.261 37.3677ZM166.58 39.2871C162.639 39.2871 159.663 37.9398 157.476 35.3086L155.169 37.2266C157.992 40.6214 161.854 42.2871 166.58 42.2871V39.2871ZM157.481 35.3156C155.321 32.6847 154.09 28.2848 154.09 21.7949H151.09C151.09 28.542 152.347 33.7906 155.163 37.2195L157.481 35.3156ZM154.09 21.7949C154.09 15.3028 155.322 10.9255 157.476 8.3314L155.168 6.4147C152.346 9.81276 151.09 15.0501 151.09 21.7949H154.09ZM157.473 8.33524C159.66 5.72002 162.636 4.37891 166.58 4.37891V1.37891C161.857 1.37891 157.995 3.03389 155.172 6.41085L157.473 8.33524ZM166.58 4.37891C168.465 4.37891 170.009 4.49264 171.229 4.70567C172.465 4.92147 173.277 5.22389 173.77 5.53906L175.386 3.01172C174.423 2.3959 173.175 2.00008 171.745 1.75038C170.299 1.49792 168.571 1.37891 166.58 1.37891V4.37891ZM173.13 3.88447L170.896 12.1618L173.792 12.9437L176.026 4.66631L173.13 3.88447ZM173.241 11.3504C171.845 10.3092 170.095 9.85938 168.129 9.85938V12.8594C169.649 12.8594 170.71 13.2051 171.447 13.755L173.241 11.3504ZM168.129 9.85938C165.721 9.85938 163.737 10.8361 162.343 12.7663L164.775 14.5228C165.581 13.4061 166.644 12.8594 168.129 12.8594V9.85938ZM162.336 12.7752C160.96 14.7105 160.434 17.8498 160.434 21.7949H163.434C163.434 17.9197 163.991 15.6254 164.781 14.5138L162.336 12.7752ZM160.434 21.7949C160.434 25.7734 160.96 28.9342 162.332 30.8844L164.786 29.1586C163.99 28.0281 163.434 25.7045 163.434 21.7949H160.434ZM162.343 30.8997C163.737 32.8299 165.721 33.8066 168.129 33.8066V30.8066C166.644 30.8066 165.581 30.26 164.775 29.1432L162.343 30.8997ZM177.143 12.0703H175.643V13.5703H177.143V12.0703ZM177.143 3.58984V2.08984H175.643V3.58984H177.143ZM199.766 3.58984H201.266V2.08984H199.766V3.58984ZM199.766 12.0703V13.5703H201.266V12.0703H199.766ZM193.088 12.0703V10.5703H191.588V12.0703H193.088ZM193.088 40V41.5H194.588V40H193.088ZM183.795 40H182.295V41.5H183.795V40ZM183.795 12.0703H185.295V10.5703H183.795V12.0703ZM178.643 12.0703V3.58984H175.643V12.0703H178.643ZM177.143 5.08984H199.766V2.08984H177.143V5.08984ZM198.266 3.58984V12.0703H201.266V3.58984H198.266ZM199.766 10.5703H193.088V13.5703H199.766V10.5703ZM191.588 12.0703V40H194.588V12.0703H191.588ZM193.088 38.5H183.795V41.5H193.088V38.5ZM185.295 40V12.0703H182.295V40H185.295ZM183.795 10.5703H177.143V13.5703H183.795V10.5703ZM205.834 3.58984V2.08984H204.623L204.368 3.27387L205.834 3.58984ZM217.539 3.58984L219.005 3.27192L218.749 2.08984H217.539V3.58984ZM225.436 40V41.5H227.296L226.901 39.6821L225.436 40ZM216.066 40L214.585 40.2343L214.785 41.5H216.066V40ZM215.203 34.541L216.685 34.3067L216.485 33.041H215.203V34.541ZM208.221 34.541V33.041H206.945L206.74 34.3L208.221 34.541ZM207.332 40V41.5H208.608L208.813 40.241L207.332 40ZM197.988 40L196.522 39.684L196.131 41.5H197.988V40ZM209.465 27.1016L207.985 26.8545L207.694 28.6016H209.465V27.1016ZM213.934 27.1016V28.6016H215.712L215.412 26.8486L213.934 27.1016ZM211.801 14.6348L213.279 14.3818L213.066 13.1348H211.801V14.6348ZM211.547 14.6348V13.1348H210.277L210.067 14.3877L211.547 14.6348ZM205.834 5.08984H217.539V2.08984H205.834V5.08984ZM216.073 3.90777L223.97 40.3179L226.901 39.6821L219.005 3.27192L216.073 3.90777ZM225.436 38.5H216.066V41.5H225.436V38.5ZM217.548 39.7657L216.685 34.3067L213.722 34.7753L214.585 40.2343L217.548 39.7657ZM215.203 33.041H208.221V36.041H215.203V33.041ZM206.74 34.3L205.852 39.759L208.813 40.241L209.701 34.782L206.74 34.3ZM207.332 38.5H197.988V41.5H207.332V38.5ZM199.455 40.316L207.3 3.90581L204.368 3.27387L196.522 39.684L199.455 40.316ZM209.465 28.6016H213.934V25.6016H209.465V28.6016ZM215.412 26.8486L213.279 14.3818L210.322 14.8877L212.455 27.3545L215.412 26.8486ZM211.801 13.1348H211.547V16.1348H211.801V13.1348ZM210.067 14.3877L207.985 26.8545L210.944 27.3486L213.026 14.8819L210.067 14.3877ZM241.965 18.1133V19.6133H243.465V18.1133H241.965ZM241.965 3.58984V2.08984H240.465V3.58984H241.965ZM251.258 3.58984H252.758V2.08984H251.258V3.58984ZM251.258 40V41.5H252.758V40H251.258ZM245.24 40L243.907 40.6867L244.325 41.5H245.24V40ZM237.801 25.5527L239.134 24.866L238.716 24.0527H237.801V25.5527ZM237.699 25.5527V24.0527H236.199V25.5527H237.699ZM237.699 40V41.5H239.199V40H237.699ZM228.33 40H226.83V41.5H228.33V40ZM228.33 3.58984V2.08984H226.83V3.58984H228.33ZM234.373 3.58984L235.709 2.90784L235.291 2.08984H234.373V3.58984ZM241.787 18.1133L240.451 18.7953L240.869 19.6133H241.787V18.1133ZM243.465 18.1133V3.58984H240.465V18.1133H243.465ZM241.965 5.08984H251.258V2.08984H241.965V5.08984ZM249.758 3.58984V40H252.758V3.58984H249.758ZM251.258 38.5H245.24V41.5H251.258V38.5ZM246.574 39.3133L239.134 24.866L236.467 26.2394L243.907 40.6867L246.574 39.3133ZM237.801 24.0527H237.699V27.0527H237.801V24.0527ZM236.199 25.5527V40H239.199V25.5527H236.199ZM237.699 38.5H228.33V41.5H237.699V38.5ZM229.83 40V3.58984H226.83V40H229.83ZM228.33 5.08984H234.373V2.08984H228.33V5.08984ZM233.037 4.27185L240.451 18.7953L243.123 17.4313L235.709 2.90784L233.037 4.27185ZM241.787 19.6133H241.965V16.6133H241.787V19.6133ZM279.492 36.293L280.669 37.2235L280.671 37.2203L279.492 36.293ZM259.992 36.293L258.813 37.2203L258.816 37.2235L259.992 36.293ZM261.171 8.27497C263.232 5.6546 266.031 4.32812 269.742 4.32812V1.32812C265.193 1.32812 261.492 3.01467 258.813 6.42034L261.171 8.27497ZM269.742 4.32812C273.453 4.32812 276.252 5.6546 278.313 8.27497L280.671 6.42034C277.993 3.01467 274.291 1.32812 269.742 1.32812V4.32812ZM278.313 8.27497C280.371 10.8911 281.547 15.2925 281.547 21.7949H284.547C284.547 15.0603 283.353 9.83022 280.671 6.42034L278.313 8.27497ZM281.547 21.7949C281.547 28.3333 280.37 32.7505 278.313 35.3657L280.671 37.2203C283.354 33.8094 284.547 28.5612 284.547 21.7949H281.547ZM278.316 35.3624C276.256 37.9666 273.457 39.2871 269.742 39.2871V42.2871C274.288 42.2871 277.989 40.6115 280.669 37.2235L278.316 35.3624ZM269.742 39.2871C266.028 39.2871 263.228 37.9666 261.169 35.3624L258.816 37.2235C261.496 40.6115 265.196 42.2871 269.742 42.2871V39.2871ZM261.171 35.3657C259.114 32.7505 257.938 28.3333 257.938 21.7949H254.938C254.938 28.5612 256.13 33.8094 258.813 37.2203L261.171 35.3657ZM257.938 21.7949C257.938 15.2925 259.114 10.8911 261.171 8.27497L258.813 6.42034C256.131 9.83022 254.938 15.0603 254.938 21.7949H257.938ZM265.429 30.6618C265.836 31.5686 266.385 32.3619 267.128 32.9318C267.892 33.5178 268.783 33.8066 269.742 33.8066V30.8066C269.415 30.8066 269.172 30.7189 268.954 30.5516C268.715 30.3682 268.435 30.0316 268.165 29.432L265.429 30.6618ZM269.742 33.8066C270.702 33.8066 271.593 33.5178 272.356 32.9318C273.099 32.3619 273.648 31.5686 274.056 30.6618L271.319 29.432C271.05 30.0316 270.769 30.3682 270.53 30.5516C270.312 30.7189 270.069 30.8066 269.742 30.8066V33.8066ZM274.056 30.6618C274.879 28.8308 275.203 25.7829 275.203 21.7949H272.203C272.203 25.7965 271.851 28.2499 271.319 29.432L274.056 30.6618ZM275.203 21.7949C275.203 17.852 274.877 14.8276 274.058 12.9845L271.317 14.203C271.852 15.4068 272.203 17.8499 272.203 21.7949H275.203ZM274.058 12.9845C273.652 12.0707 273.105 11.2704 272.363 10.6948C271.599 10.1022 270.706 9.80859 269.742 9.80859V12.8086C270.065 12.8086 270.306 12.8959 270.524 13.065C270.764 13.2511 271.046 13.5934 271.317 14.203L274.058 12.9845ZM269.742 9.80859C268.779 9.80859 267.885 10.1022 267.122 10.6948C266.38 11.2704 265.832 12.0707 265.426 12.9845L268.168 14.203C268.439 13.5934 268.721 13.2511 268.961 13.065C269.179 12.8959 269.419 12.8086 269.742 12.8086V9.80859ZM265.426 12.9845C264.607 14.8276 264.281 17.852 264.281 21.7949H267.281C267.281 17.8499 267.633 15.4068 268.168 14.203L265.426 12.9845ZM264.281 21.7949C264.281 25.7829 264.606 28.8308 265.429 30.6618L268.165 29.432C267.634 28.2499 267.281 25.7965 267.281 21.7949H264.281ZM301.354 18.5195L302.132 17.2376L302.127 17.2345L301.354 18.5195ZM307.752 23.9785L306.493 24.7934L306.496 24.7991L307.752 23.9785ZM306.152 37.8672L307.151 38.9869L307.155 38.9826L306.152 37.8672ZM286.271 37.6641L284.809 37.3288L284.589 38.2911L285.385 38.8744L286.271 37.6641ZM288.1 29.6914L288.974 28.4723L287.141 27.1589L286.638 29.3562L288.1 29.6914ZM295.336 25.0703L296.097 23.778L296.087 23.772L296.077 23.7661L295.336 25.0703ZM288.912 19.7383L287.68 20.5933L287.683 20.5985L288.912 19.7383ZM290.258 5.67188L291.232 6.81263L291.237 6.80829L290.258 5.67188ZM308.438 4.80859L309.925 4.99981L310.061 3.94332L309.108 3.46695L308.438 4.80859ZM307.396 12.9082L306.584 14.1691L308.581 15.4563L308.884 13.0994L307.396 12.9082ZM304.172 11.4863L303.687 12.9059L303.695 12.9085L303.703 12.9111L304.172 11.4863ZM296.428 13.416H297.928V13.4088L297.928 13.4016L296.428 13.416ZM297.646 15.8535L296.597 16.9253L296.603 16.9309L296.609 16.9365L297.646 15.8535ZM300.575 19.8015C303.66 21.6756 305.56 23.3526 306.493 24.7934L309.011 23.1636C307.709 21.1513 305.344 19.1889 302.132 17.2376L300.575 19.8015ZM306.496 24.7991C307.433 26.2328 307.928 27.9532 307.928 30.0215H310.928C310.928 27.4517 310.305 25.1435 309.008 23.158L306.496 24.7991ZM307.928 30.0215C307.928 32.9163 306.979 35.1066 305.149 36.7518L307.155 38.9826C309.693 36.7007 310.928 33.6605 310.928 30.0215H307.928ZM305.154 36.7475C303.319 38.3838 300.725 39.2871 297.189 39.2871V42.2871C301.237 42.2871 304.619 41.2438 307.151 38.9869L305.154 36.7475ZM297.189 39.2871C292.99 39.2871 289.684 38.3038 287.158 36.4538L285.385 38.8744C288.546 41.1884 292.519 42.2871 297.189 42.2871V39.2871ZM287.734 37.9993L289.562 30.0267L286.638 29.3562L284.809 37.3288L287.734 37.9993ZM287.226 30.9105C290.198 33.0412 293.165 34.2129 296.098 34.2129V31.2129C293.986 31.2129 291.621 30.3702 288.974 28.4723L287.226 30.9105ZM296.098 34.2129C297.555 34.2129 298.912 33.977 299.942 33.2857C301.079 32.5232 301.609 31.3515 301.609 30.0215H298.609C298.609 30.4857 298.471 30.6598 298.271 30.7944C297.964 31.0002 297.314 31.2129 296.098 31.2129V34.2129ZM301.609 30.0215C301.609 28.8202 301.072 27.7536 300.269 26.8446L298.021 28.8312C298.504 29.3779 298.609 29.767 298.609 30.0215H301.609ZM300.269 26.8446C299.455 25.9236 298.001 24.8999 296.097 23.778L294.574 26.3626C296.462 27.4751 297.548 28.2965 298.021 28.8312L300.269 26.8446ZM296.077 23.7661C293.202 22.1326 291.269 20.4889 290.141 18.8781L287.683 20.5985C289.162 22.7116 291.512 24.6227 294.595 26.3745L296.077 23.7661ZM290.145 18.8833C289.032 17.2795 288.457 15.3923 288.457 13.1621H285.457C285.457 15.9423 286.185 18.4393 287.68 20.5933L290.145 18.8833ZM288.457 13.1621C288.457 10.4484 289.393 8.38272 291.232 6.81262L289.284 4.53113C286.722 6.71884 285.457 9.64668 285.457 13.1621H288.457ZM291.237 6.80829C293.102 5.20178 295.644 4.32812 299.018 4.32812V1.32812C295.113 1.32812 291.815 2.3503 289.279 4.53546L291.237 6.80829ZM299.018 4.32812C302.477 4.32812 305.377 4.95549 307.767 6.15023L309.108 3.46695C306.217 2.02107 302.837 1.32812 299.018 1.32812V4.32812ZM306.95 4.61738L305.909 12.717L308.884 13.0994L309.925 4.99981L306.95 4.61738ZM308.209 11.6473C307.295 11.0586 306.086 10.5373 304.641 10.0616L303.703 12.9111C305.034 13.3494 305.974 13.7761 306.584 14.1691L308.209 11.6473ZM304.657 10.0668C303.153 9.55346 301.717 9.27539 300.363 9.27539V12.2754C301.311 12.2754 302.414 12.4713 303.687 12.9059L304.657 10.0668ZM300.363 9.27539C298.925 9.27539 297.582 9.50629 296.563 10.1899C295.434 10.9474 294.915 12.1133 294.928 13.4304L297.928 13.4016C297.923 12.9583 298.052 12.8039 298.235 12.6811C298.528 12.4846 299.161 12.2754 300.363 12.2754V9.27539ZM294.928 13.416C294.928 14.78 295.606 15.955 296.597 16.9253L298.696 14.7817C298.062 14.1609 297.928 13.7109 297.928 13.416H294.928ZM296.609 16.9365C297.539 17.8278 298.883 18.7833 300.58 19.8046L302.127 17.2345C300.506 16.2584 299.379 15.4365 298.684 14.7705L296.609 16.9365Z" fill="black" mask="url(#path-2-outside-1_10_49)"/>
<path d="M37.4688 86.3066C38.9922 86.3066 40.7272 85.5618 42.6738 84.0723L44.4512 92.6035C42.3353 94.0592 39.4915 94.7871 35.9199 94.7871C31.5866 94.7871 28.1673 93.2806 25.6621 90.2676C23.1738 87.2376 21.9297 82.4134 21.9297 75.7949C21.9297 69.1764 23.1738 64.3691 25.6621 61.373C28.1673 58.377 31.5866 56.8789 35.9199 56.8789C39.7962 56.8789 42.4622 57.3444 43.918 58.2754L41.6836 66.5527C40.6172 65.7572 39.2122 65.3594 37.4688 65.3594C35.5221 65.3594 33.9987 66.1211 32.8984 67.6445C31.8151 69.168 31.2734 71.8848 31.2734 75.7949C31.2734 79.7389 31.8151 82.4811 32.8984 84.0215C33.9987 85.5449 35.5221 86.3066 37.4688 86.3066ZM48.8945 61.3477C51.2643 58.3346 54.5143 56.8281 58.6445 56.8281C62.7747 56.8281 66.0247 58.3346 68.3945 61.3477C70.7643 64.3607 71.9492 69.1764 71.9492 75.7949C71.9492 82.4473 70.7643 87.2799 68.3945 90.293C66.0247 93.2891 62.7747 94.7871 58.6445 94.7871C54.5143 94.7871 51.2643 93.2891 48.8945 90.293C46.5247 87.2799 45.3398 82.4473 45.3398 75.7949C45.3398 69.1764 46.5247 64.3607 48.8945 61.3477ZM55.6992 84.0469C56.3763 85.5534 57.3581 86.3066 58.6445 86.3066C59.931 86.3066 60.9128 85.5534 61.5898 84.0469C62.2669 82.5404 62.6055 79.7897 62.6055 75.7949C62.6055 71.8509 62.2669 69.1172 61.5898 67.5938C60.9128 66.0703 59.931 65.3086 58.6445 65.3086C57.3581 65.3086 56.3763 66.0703 55.6992 67.5938C55.0221 69.1172 54.6836 71.8509 54.6836 75.7949C54.6836 79.7897 55.0221 82.5404 55.6992 84.0469ZM90.7383 72.1133V57.5898H100.031V94H94.0137L86.5742 79.5527H86.4727V94H77.1035V57.5898H83.1465L90.5605 72.1133H90.7383ZM104.018 66.0703V57.5898H126.641V66.0703H119.963V94H110.67V66.0703H104.018ZM132.709 57.5898H144.414L152.311 94H142.941L142.078 88.541H135.096L134.207 94H124.863L132.709 57.5898ZM136.34 81.1016H140.809L138.676 68.6348H138.422L136.34 81.1016ZM168.129 86.3066C169.652 86.3066 171.387 85.5618 173.334 84.0723L175.111 92.6035C172.995 94.0592 170.152 94.7871 166.58 94.7871C162.247 94.7871 158.827 93.2806 156.322 90.2676C153.834 87.2376 152.59 82.4134 152.59 75.7949C152.59 69.1764 153.834 64.3691 156.322 61.373C158.827 58.377 162.247 56.8789 166.58 56.8789C170.456 56.8789 173.122 57.3444 174.578 58.2754L172.344 66.5527C171.277 65.7572 169.872 65.3594 168.129 65.3594C166.182 65.3594 164.659 66.1211 163.559 67.6445C162.475 69.168 161.934 71.8848 161.934 75.7949C161.934 79.7389 162.475 82.4811 163.559 84.0215C164.659 85.5449 166.182 86.3066 168.129 86.3066ZM177.143 66.0703V57.5898H199.766V66.0703H193.088V94H183.795V66.0703H177.143ZM205.834 57.5898H217.539L225.436 94H216.066L215.203 88.541H208.221L207.332 94H197.988L205.834 57.5898ZM209.465 81.1016H213.934L211.801 68.6348H211.547L209.465 81.1016ZM241.965 72.1133V57.5898H251.258V94H245.24L237.801 79.5527H237.699V94H228.33V57.5898H234.373L241.787 72.1133H241.965ZM259.992 61.3477C262.362 58.3346 265.612 56.8281 269.742 56.8281C273.872 56.8281 277.122 58.3346 279.492 61.3477C281.862 64.3607 283.047 69.1764 283.047 75.7949C283.047 82.4473 281.862 87.2799 279.492 90.293C277.122 93.2891 273.872 94.7871 269.742 94.7871C265.612 94.7871 262.362 93.2891 259.992 90.293C257.622 87.2799 256.438 82.4473 256.438 75.7949C256.438 69.1764 257.622 64.3607 259.992 61.3477ZM266.797 84.0469C267.474 85.5534 268.456 86.3066 269.742 86.3066C271.029 86.3066 272.01 85.5534 272.688 84.0469C273.365 82.5404 273.703 79.7897 273.703 75.7949C273.703 71.8509 273.365 69.1172 272.688 67.5938C272.01 66.0703 271.029 65.3086 269.742 65.3086C268.456 65.3086 267.474 66.0703 266.797 67.5938C266.12 69.1172 265.781 71.8509 265.781 75.7949C265.781 79.7897 266.12 82.5404 266.797 84.0469ZM301.354 72.5195C304.502 74.4323 306.635 76.252 307.752 77.9785C308.869 79.6882 309.428 81.7025 309.428 84.0215C309.428 87.2884 308.336 89.9036 306.152 91.8672C303.969 93.8138 300.981 94.7871 297.189 94.7871C292.755 94.7871 289.115 93.7461 286.271 91.6641L288.1 83.6914C290.91 85.7057 293.576 86.7129 296.098 86.7129C298.772 86.7129 300.109 85.8158 300.109 84.0215C300.109 83.2936 299.788 82.5658 299.145 81.8379C298.501 81.11 297.232 80.1875 295.336 79.0703C292.357 77.3776 290.215 75.6003 288.912 73.7383C287.609 71.8594 286.957 69.6673 286.957 67.1621C286.957 64.0475 288.057 61.5508 290.258 59.6719C292.458 57.776 295.378 56.8281 299.018 56.8281C302.657 56.8281 305.797 57.4883 308.438 58.8086L307.396 66.9082C306.635 66.4173 305.56 65.9434 304.172 65.4863C302.784 65.0124 301.514 64.7754 300.363 64.7754C297.723 64.7754 296.411 65.6556 296.428 67.416C296.428 68.2454 296.834 69.0579 297.646 69.8535C298.459 70.6322 299.695 71.5208 301.354 72.5195Z" fill="black"/>
</svg>
