<svg width="414" height="125" viewBox="0 0 414 125" fill="none" xmlns="http://www.w3.org/2000/svg">
<path d="M12.543 12.5898V40.5195H23.1309V49H3.22461V12.5898H12.543ZM27.6758 16.3477C30.0456 13.3346 33.2956 11.8281 37.4258 11.8281C41.556 11.8281 44.806 13.3346 47.1758 16.3477C49.5456 19.3607 50.7305 24.1764 50.7305 30.7949C50.7305 37.4473 49.5456 42.2799 47.1758 45.293C44.806 48.2891 41.556 49.7871 37.4258 49.7871C33.2956 49.7871 30.0456 48.2891 27.6758 45.293C25.306 42.2799 24.1211 37.4473 24.1211 30.7949C24.1211 24.1764 25.306 19.3607 27.6758 16.3477ZM34.4805 39.0469C35.1576 40.5534 36.1393 41.3066 37.4258 41.3066C38.7122 41.3066 39.694 40.5534 40.3711 39.0469C41.0482 37.5404 41.3867 34.7897 41.3867 30.7949C41.3867 26.8509 41.0482 24.1172 40.3711 22.5938C39.694 21.0703 38.7122 20.3086 37.4258 20.3086C36.1393 20.3086 35.1576 21.0703 34.4805 22.5938C33.8034 24.1172 33.4648 26.8509 33.4648 30.7949C33.4648 34.7897 33.8034 37.5404 34.4805 39.0469ZM69.0371 27.5195C72.1855 29.4323 74.3184 31.252 75.4355 32.9785C76.5527 34.6882 77.1113 36.7025 77.1113 39.0215C77.1113 42.2884 76.0195 44.9036 73.8359 46.8672C71.6523 48.8138 68.6647 49.7871 64.873 49.7871C60.4382 49.7871 56.7988 48.7461 53.9551 46.6641L55.7832 38.6914C58.5931 40.7057 61.2591 41.7129 63.7812 41.7129C66.4557 41.7129 67.793 40.8158 67.793 39.0215C67.793 38.2936 67.4714 37.5658 66.8281 36.8379C66.1849 36.11 64.9154 35.1875 63.0195 34.0703C60.0404 32.3776 57.8991 30.6003 56.5957 28.7383C55.2923 26.8594 54.6406 24.6673 54.6406 22.1621C54.6406 19.0475 55.7409 16.5508 57.9414 14.6719C60.1419 12.776 63.0618 11.8281 66.7012 11.8281C70.3405 11.8281 73.4805 12.4883 76.1211 13.8086L75.0801 21.9082C74.3184 21.4173 73.2435 20.9434 71.8555 20.4863C70.4674 20.0124 69.1979 19.7754 68.0469 19.7754C65.4062 19.7754 64.0944 20.6556 64.1113 22.416C64.1113 23.2454 64.5176 24.0579 65.3301 24.8535C66.1426 25.6322 67.3783 26.5208 69.0371 27.5195ZM109.738 41.3066C111.262 41.3066 112.997 40.5618 114.943 39.0723L116.721 47.6035C114.605 49.0592 111.761 49.7871 108.189 49.7871C103.856 49.7871 100.437 48.2806 97.9316 45.2676C95.4434 42.2376 94.1992 37.4134 94.1992 30.7949C94.1992 24.1764 95.4434 19.3691 97.9316 16.373C100.437 13.377 103.856 11.8789 108.189 11.8789C112.066 11.8789 114.732 12.3444 116.188 13.2754L113.953 21.5527C112.887 20.7572 111.482 20.3594 109.738 20.3594C107.792 20.3594 106.268 21.1211 105.168 22.6445C104.085 24.168 103.543 26.8848 103.543 30.7949C103.543 34.7389 104.085 37.4811 105.168 39.0215C106.268 40.5449 107.792 41.3066 109.738 41.3066ZM133.885 38.6914V12.5898H143.203V38.2344C143.203 41.7383 142.137 44.5397 140.004 46.6387C137.871 48.7376 135.137 49.7871 131.803 49.7871C128.485 49.7871 125.768 48.7376 123.652 46.6387C121.536 44.5397 120.479 41.7383 120.479 38.2344V12.5898H129.797V38.6914C129.797 39.4531 129.983 40.0794 130.355 40.5703C130.745 41.0612 131.227 41.3066 131.803 41.3066C132.395 41.3066 132.886 41.0612 133.275 40.5703C133.682 40.0794 133.885 39.4531 133.885 38.6914ZM164.76 30.3887L170.371 12.5898H179.943V49H170.904V33.7148H170.676L165.801 49H163.566L158.717 33.7148H158.514V49H149.475V12.5898H159.047L164.658 30.3887H164.76ZM200.383 12.5898C203.362 12.5898 205.85 13.8678 207.848 16.4238C209.845 18.9629 210.844 22.0944 210.844 25.8184C210.844 29.627 209.862 32.7161 207.898 35.0859C205.935 37.4557 203.43 38.6406 200.383 38.6406H195.559V49H186.24V12.5898H200.383ZM197.615 30.3379C198.8 30.3379 199.731 29.8893 200.408 28.9922C201.085 28.0781 201.424 27.0033 201.424 25.7676C201.424 24.4811 201.085 23.3893 200.408 22.4922C199.731 21.5781 198.8 21.1211 197.615 21.1211H195.559V30.3379H197.615ZM224.199 12.5898V40.5195H234.787V49H214.881V12.5898H224.199ZM248.371 35.2129V40.5195H260.33V49H239.053V12.5898H260V21.0703H248.371V27.5703H258.857V35.2129H248.371ZM269.775 12.5898H281.48L289.377 49H280.008L279.145 43.541H272.162L271.273 49H261.93L269.775 12.5898ZM273.406 36.1016H277.875L275.742 23.6348H275.488L273.406 36.1016ZM305.906 27.1133V12.5898H315.199V49H309.182L301.742 34.5527H301.641V49H292.271V12.5898H298.314L305.729 27.1133H305.906ZM308.09 0.376953L311.975 1.26562C311.873 5.80208 310.299 8.07031 307.252 8.07031C306.135 8.07031 304.848 7.62174 303.393 6.72461C302.275 6.06445 301.531 5.73438 301.158 5.73438C300.261 5.73438 299.762 6.58073 299.66 8.27344L295.699 7.30859C295.767 5.15885 296.232 3.48307 297.096 2.28125C297.976 1.07943 299.093 0.478516 300.447 0.478516C301.48 0.478516 302.69 0.910156 304.078 1.77344C305.365 2.53516 306.16 2.91602 306.465 2.91602C307.413 2.91602 307.954 2.06966 308.09 0.376953ZM323.934 16.3477C326.303 13.3346 329.553 11.8281 333.684 11.8281C337.814 11.8281 341.064 13.3346 343.434 16.3477C345.803 19.3607 346.988 24.1764 346.988 30.7949C346.988 37.4473 345.803 42.2799 343.434 45.293C341.064 48.2891 337.814 49.7871 333.684 49.7871C329.553 49.7871 326.303 48.2891 323.934 45.293C321.564 42.2799 320.379 37.4473 320.379 30.7949C320.379 24.1764 321.564 19.3607 323.934 16.3477ZM330.738 39.0469C331.415 40.5534 332.397 41.3066 333.684 41.3066C334.97 41.3066 335.952 40.5534 336.629 39.0469C337.306 37.5404 337.645 34.7897 337.645 30.7949C337.645 26.8509 337.306 24.1172 336.629 22.5938C335.952 21.0703 334.97 20.3086 333.684 20.3086C332.397 20.3086 331.415 21.0703 330.738 22.5938C330.061 24.1172 329.723 26.8509 329.723 30.7949C329.723 34.7897 330.061 37.5404 330.738 39.0469ZM365.295 27.5195C368.443 29.4323 370.576 31.252 371.693 32.9785C372.811 34.6882 373.369 36.7025 373.369 39.0215C373.369 42.2884 372.277 44.9036 370.094 46.8672C367.91 48.8138 364.923 49.7871 361.131 49.7871C356.696 49.7871 353.057 48.7461 350.213 46.6641L352.041 38.6914C354.851 40.7057 357.517 41.7129 360.039 41.7129C362.714 41.7129 364.051 40.8158 364.051 39.0215C364.051 38.2936 363.729 37.5658 363.086 36.8379C362.443 36.11 361.173 35.1875 359.277 34.0703C356.298 32.3776 354.157 30.6003 352.854 28.7383C351.55 26.8594 350.898 24.6673 350.898 22.1621C350.898 19.0475 351.999 16.5508 354.199 14.6719C356.4 12.776 359.32 11.8281 362.959 11.8281C366.598 11.8281 369.738 12.4883 372.379 13.8086L371.338 21.9082C370.576 21.4173 369.501 20.9434 368.113 20.4863C366.725 20.0124 365.456 19.7754 364.305 19.7754C361.664 19.7754 360.352 20.6556 360.369 22.416C360.369 23.2454 360.775 24.0579 361.588 24.8535C362.4 25.6322 363.636 26.5208 365.295 27.5195Z" fill="black"/>
<mask id="path-2-outside-1_13_954" maskUnits="userSpaceOnUse" x="1" y="56" width="374" height="54" fill="black">
<rect fill="white" x="1" y="56" width="374" height="54"/>
<path d="M12.543 70.5898V98.5195H23.1309V107H3.22461V70.5898H12.543ZM27.6758 74.3477C30.0456 71.3346 33.2956 69.8281 37.4258 69.8281C41.556 69.8281 44.806 71.3346 47.1758 74.3477C49.5456 77.3607 50.7305 82.1764 50.7305 88.7949C50.7305 95.4473 49.5456 100.28 47.1758 103.293C44.806 106.289 41.556 107.787 37.4258 107.787C33.2956 107.787 30.0456 106.289 27.6758 103.293C25.306 100.28 24.1211 95.4473 24.1211 88.7949C24.1211 82.1764 25.306 77.3607 27.6758 74.3477ZM34.4805 97.0469C35.1576 98.5534 36.1393 99.3066 37.4258 99.3066C38.7122 99.3066 39.694 98.5534 40.3711 97.0469C41.0482 95.5404 41.3867 92.7897 41.3867 88.7949C41.3867 84.8509 41.0482 82.1172 40.3711 80.5938C39.694 79.0703 38.7122 78.3086 37.4258 78.3086C36.1393 78.3086 35.1576 79.0703 34.4805 80.5938C33.8034 82.1172 33.4648 84.8509 33.4648 88.7949C33.4648 92.7897 33.8034 95.5404 34.4805 97.0469ZM69.0371 85.5195C72.1855 87.4323 74.3184 89.252 75.4355 90.9785C76.5527 92.6882 77.1113 94.7025 77.1113 97.0215C77.1113 100.288 76.0195 102.904 73.8359 104.867C71.6523 106.814 68.6647 107.787 64.873 107.787C60.4382 107.787 56.7988 106.746 53.9551 104.664L55.7832 96.6914C58.5931 98.7057 61.2591 99.7129 63.7812 99.7129C66.4557 99.7129 67.793 98.8158 67.793 97.0215C67.793 96.2936 67.4714 95.5658 66.8281 94.8379C66.1849 94.11 64.9154 93.1875 63.0195 92.0703C60.0404 90.3776 57.8991 88.6003 56.5957 86.7383C55.2923 84.8594 54.6406 82.6673 54.6406 80.1621C54.6406 77.0475 55.7409 74.5508 57.9414 72.6719C60.1419 70.776 63.0618 69.8281 66.7012 69.8281C70.3405 69.8281 73.4805 70.4883 76.1211 71.8086L75.0801 79.9082C74.3184 79.4173 73.2435 78.9434 71.8555 78.4863C70.4674 78.0124 69.1979 77.7754 68.0469 77.7754C65.4062 77.7754 64.0944 78.6556 64.1113 80.416C64.1113 81.2454 64.5176 82.0579 65.3301 82.8535C66.1426 83.6322 67.3783 84.5208 69.0371 85.5195ZM109.738 99.3066C111.262 99.3066 112.997 98.5618 114.943 97.0723L116.721 105.604C114.605 107.059 111.761 107.787 108.189 107.787C103.856 107.787 100.437 106.281 97.9316 103.268C95.4434 100.238 94.1992 95.4134 94.1992 88.7949C94.1992 82.1764 95.4434 77.3691 97.9316 74.373C100.437 71.377 103.856 69.8789 108.189 69.8789C112.066 69.8789 114.732 70.3444 116.188 71.2754L113.953 79.5527C112.887 78.7572 111.482 78.3594 109.738 78.3594C107.792 78.3594 106.268 79.1211 105.168 80.6445C104.085 82.168 103.543 84.8848 103.543 88.7949C103.543 92.7389 104.085 95.4811 105.168 97.0215C106.268 98.5449 107.792 99.3066 109.738 99.3066ZM133.885 96.6914V70.5898H143.203V96.2344C143.203 99.7383 142.137 102.54 140.004 104.639C137.871 106.738 135.137 107.787 131.803 107.787C128.485 107.787 125.768 106.738 123.652 104.639C121.536 102.54 120.479 99.7383 120.479 96.2344V70.5898H129.797V96.6914C129.797 97.4531 129.983 98.0794 130.355 98.5703C130.745 99.0612 131.227 99.3066 131.803 99.3066C132.395 99.3066 132.886 99.0612 133.275 98.5703C133.682 98.0794 133.885 97.4531 133.885 96.6914ZM164.76 88.3887L170.371 70.5898H179.943V107H170.904V91.7148H170.676L165.801 107H163.566L158.717 91.7148H158.514V107H149.475V70.5898H159.047L164.658 88.3887H164.76ZM200.383 70.5898C203.362 70.5898 205.85 71.8678 207.848 74.4238C209.845 76.9629 210.844 80.0944 210.844 83.8184C210.844 87.627 209.862 90.7161 207.898 93.0859C205.935 95.4557 203.43 96.6406 200.383 96.6406H195.559V107H186.24V70.5898H200.383ZM197.615 88.3379C198.8 88.3379 199.731 87.8893 200.408 86.9922C201.085 86.0781 201.424 85.0033 201.424 83.7676C201.424 82.4811 201.085 81.3893 200.408 80.4922C199.731 79.5781 198.8 79.1211 197.615 79.1211H195.559V88.3379H197.615ZM224.199 70.5898V98.5195H234.787V107H214.881V70.5898H224.199ZM248.371 93.2129V98.5195H260.33V107H239.053V70.5898H260V79.0703H248.371V85.5703H258.857V93.2129H248.371ZM269.775 70.5898H281.48L289.377 107H280.008L279.145 101.541H272.162L271.273 107H261.93L269.775 70.5898ZM273.406 94.1016H277.875L275.742 81.6348H275.488L273.406 94.1016ZM305.906 85.1133V70.5898H315.199V107H309.182L301.742 92.5527H301.641V107H292.271V70.5898H298.314L305.729 85.1133H305.906ZM308.09 58.377L311.975 59.2656C311.873 63.8021 310.299 66.0703 307.252 66.0703C306.135 66.0703 304.848 65.6217 303.393 64.7246C302.275 64.0645 301.531 63.7344 301.158 63.7344C300.261 63.7344 299.762 64.5807 299.66 66.2734L295.699 65.3086C295.767 63.1589 296.232 61.4831 297.096 60.2812C297.976 59.0794 299.093 58.4785 300.447 58.4785C301.48 58.4785 302.69 58.9102 304.078 59.7734C305.365 60.5352 306.16 60.916 306.465 60.916C307.413 60.916 307.954 60.0697 308.09 58.377ZM323.934 74.3477C326.303 71.3346 329.553 69.8281 333.684 69.8281C337.814 69.8281 341.064 71.3346 343.434 74.3477C345.803 77.3607 346.988 82.1764 346.988 88.7949C346.988 95.4473 345.803 100.28 343.434 103.293C341.064 106.289 337.814 107.787 333.684 107.787C329.553 107.787 326.303 106.289 323.934 103.293C321.564 100.28 320.379 95.4473 320.379 88.7949C320.379 82.1764 321.564 77.3607 323.934 74.3477ZM330.738 97.0469C331.415 98.5534 332.397 99.3066 333.684 99.3066C334.97 99.3066 335.952 98.5534 336.629 97.0469C337.306 95.5404 337.645 92.7897 337.645 88.7949C337.645 84.8509 337.306 82.1172 336.629 80.5938C335.952 79.0703 334.97 78.3086 333.684 78.3086C332.397 78.3086 331.415 79.0703 330.738 80.5938C330.061 82.1172 329.723 84.8509 329.723 88.7949C329.723 92.7897 330.061 95.5404 330.738 97.0469ZM365.295 85.5195C368.443 87.4323 370.576 89.252 371.693 90.9785C372.811 92.6882 373.369 94.7025 373.369 97.0215C373.369 100.288 372.277 102.904 370.094 104.867C367.91 106.814 364.923 107.787 361.131 107.787C356.696 107.787 353.057 106.746 350.213 104.664L352.041 96.6914C354.851 98.7057 357.517 99.7129 360.039 99.7129C362.714 99.7129 364.051 98.8158 364.051 97.0215C364.051 96.2936 363.729 95.5658 363.086 94.8379C362.443 94.11 361.173 93.1875 359.277 92.0703C356.298 90.3776 354.157 88.6003 352.854 86.7383C351.55 84.8594 350.898 82.6673 350.898 80.1621C350.898 77.0475 351.999 74.5508 354.199 72.6719C356.4 70.776 359.32 69.8281 362.959 69.8281C366.598 69.8281 369.738 70.4883 372.379 71.8086L371.338 79.9082C370.576 79.4173 369.501 78.9434 368.113 78.4863C366.725 78.0124 365.456 77.7754 364.305 77.7754C361.664 77.7754 360.352 78.6556 360.369 80.416C360.369 81.2454 360.775 82.0579 361.588 82.8535C362.4 83.6322 363.636 84.5208 365.295 85.5195Z"/>
</mask>
<path d="M12.543 70.5898H14.043V69.0898H12.543V70.5898ZM12.543 98.5195H11.043V100.02H12.543V98.5195ZM23.1309 98.5195H24.6309V97.0195H23.1309V98.5195ZM23.1309 107V108.5H24.6309V107H23.1309ZM3.22461 107H1.72461V108.5H3.22461V107ZM3.22461 70.5898V69.0898H1.72461V70.5898H3.22461ZM11.043 70.5898V98.5195H14.043V70.5898H11.043ZM12.543 100.02H23.1309V97.0195H12.543V100.02ZM21.6309 98.5195V107H24.6309V98.5195H21.6309ZM23.1309 105.5H3.22461V108.5H23.1309V105.5ZM4.72461 107V70.5898H1.72461V107H4.72461ZM3.22461 72.0898H12.543V69.0898H3.22461V72.0898ZM47.1758 103.293L48.3523 104.224L48.3548 104.22L47.1758 103.293ZM27.6758 103.293L26.4968 104.22L26.4993 104.224L27.6758 103.293ZM28.8548 75.275C30.9158 72.6546 33.7146 71.3281 37.4258 71.3281V68.3281C32.8766 68.3281 29.1754 70.0147 26.4968 73.4203L28.8548 75.275ZM37.4258 71.3281C41.137 71.3281 43.9358 72.6546 45.9968 75.275L48.3548 73.4203C45.6762 70.0147 41.975 68.3281 37.4258 68.3281V71.3281ZM45.9968 75.275C48.0544 77.8911 49.2305 82.2925 49.2305 88.7949H52.2305C52.2305 82.0603 51.0367 76.8302 48.3548 73.4203L45.9968 75.275ZM49.2305 88.7949C49.2305 95.3333 48.0536 99.7505 45.9968 102.366L48.3548 104.22C51.0375 100.809 52.2305 95.5612 52.2305 88.7949H49.2305ZM45.9993 102.362C43.9395 104.967 41.1402 106.287 37.4258 106.287V109.287C41.9718 109.287 45.6725 107.612 48.3523 104.224L45.9993 102.362ZM37.4258 106.287C33.7114 106.287 30.912 104.967 28.8523 102.362L26.4993 104.224C29.1791 107.612 32.8798 109.287 37.4258 109.287V106.287ZM28.8548 102.366C26.7979 99.7505 25.6211 95.3333 25.6211 88.7949H22.6211C22.6211 95.5612 23.8141 100.809 26.4968 104.22L28.8548 102.366ZM25.6211 88.7949C25.6211 82.2925 26.7971 77.8911 28.8548 75.275L26.4968 73.4203C23.8148 76.8302 22.6211 82.0603 22.6211 88.7949H25.6211ZM33.1123 97.6618C33.5199 98.5686 34.0688 99.3619 34.8115 99.9318C35.5753 100.518 36.4664 100.807 37.4258 100.807V97.8066C37.0987 97.8066 36.8557 97.7189 36.6377 97.5516C36.3986 97.3682 36.1181 97.0316 35.8486 96.432L33.1123 97.6618ZM37.4258 100.807C38.3851 100.807 39.2763 100.518 40.04 99.9318C40.7828 99.3619 41.3317 98.5686 41.7393 97.6618L39.0029 96.432C38.7334 97.0316 38.4529 97.3682 38.2139 97.5516C37.9959 97.7189 37.7529 97.8066 37.4258 97.8066V100.807ZM41.7393 97.6618C42.5622 95.8308 42.8867 92.7829 42.8867 88.7949H39.8867C39.8867 92.7965 39.5342 95.2499 39.0029 96.432L41.7393 97.6618ZM42.8867 88.7949C42.8867 84.852 42.5609 81.8276 41.7418 79.9845L39.0004 81.203C39.5354 82.4068 39.8867 84.8499 39.8867 88.7949H42.8867ZM41.7418 79.9845C41.3357 79.0707 40.7884 78.2704 40.0464 77.6948C39.2827 77.1022 38.3893 76.8086 37.4258 76.8086V79.8086C37.7487 79.8086 37.9895 79.8959 38.2075 80.065C38.4473 80.2511 38.7295 80.5934 39.0004 81.203L41.7418 79.9845ZM37.4258 76.8086C36.4623 76.8086 35.5689 77.1022 34.8051 77.6948C34.0632 78.2704 33.5159 79.0707 33.1098 79.9845L35.8512 81.203C36.1221 80.5934 36.4042 80.2511 36.6441 80.065C36.8621 79.8959 37.1028 79.8086 37.4258 79.8086V76.8086ZM33.1098 79.9845C32.2906 81.8276 31.9648 84.852 31.9648 88.7949H34.9648C34.9648 84.8499 35.3162 82.4068 35.8512 81.203L33.1098 79.9845ZM31.9648 88.7949C31.9648 92.7829 32.2894 95.8308 33.1123 97.6618L35.8486 96.432C35.3174 95.2499 34.9648 92.7965 34.9648 88.7949H31.9648ZM69.0371 85.5195L69.8159 84.2376L69.8108 84.2345L69.0371 85.5195ZM75.4355 90.9785L74.1762 91.7934L74.1799 91.7991L75.4355 90.9785ZM73.8359 104.867L74.8341 105.987L74.8389 105.983L73.8359 104.867ZM53.9551 104.664L52.493 104.329L52.2724 105.291L53.069 105.874L53.9551 104.664ZM55.7832 96.6914L56.6571 95.4723L54.825 94.1589L54.3211 96.3562L55.7832 96.6914ZM63.0195 92.0703L63.7811 90.778L63.7709 90.772L63.7605 90.7661L63.0195 92.0703ZM56.5957 86.7383L55.3632 87.5933L55.3669 87.5985L56.5957 86.7383ZM57.9414 72.6719L58.9154 73.8126L58.9205 73.8083L57.9414 72.6719ZM76.1211 71.8086L77.6089 71.9998L77.7446 70.9433L76.7919 70.467L76.1211 71.8086ZM75.0801 79.9082L74.2675 81.1691L76.2649 82.4563L76.5678 80.0994L75.0801 79.9082ZM71.8555 78.4863L71.3708 79.9059L71.3785 79.9085L71.3863 79.9111L71.8555 78.4863ZM64.1113 80.416H65.6113V80.4088L65.6113 80.4016L64.1113 80.416ZM65.3301 82.8535L64.2806 83.9253L64.2864 83.9309L64.2922 83.9365L65.3301 82.8535ZM68.2583 86.8015C71.3432 88.6756 73.2439 90.3526 74.1762 91.7934L76.6949 90.1636C75.3928 88.1513 73.0279 86.1889 69.8159 84.2376L68.2583 86.8015ZM74.1799 91.7991C75.1168 93.2328 75.6113 94.9532 75.6113 97.0215H78.6113C78.6113 94.4517 77.9887 92.1435 76.6912 90.158L74.1799 91.7991ZM75.6113 97.0215C75.6113 99.9163 74.6626 102.107 72.833 103.752L74.8389 105.983C77.3765 103.701 78.6113 100.661 78.6113 97.0215H75.6113ZM72.8378 103.748C71.0023 105.384 68.4084 106.287 64.873 106.287V109.287C68.921 109.287 72.3024 108.244 74.8341 105.987L72.8378 103.748ZM64.873 106.287C60.6737 106.287 57.368 105.304 54.8412 103.454L53.069 105.874C56.2296 108.188 60.2026 109.287 64.873 109.287V106.287ZM55.4171 104.999L57.2453 97.0267L54.3211 96.3562L52.493 104.329L55.4171 104.999ZM54.9093 97.9105C57.8815 100.041 60.8484 101.213 63.7812 101.213V98.2129C61.6698 98.2129 59.3047 97.3702 56.6571 95.4723L54.9093 97.9105ZM63.7812 101.213C65.239 101.213 66.5953 100.977 67.6257 100.286C68.7623 99.5232 69.293 98.3515 69.293 97.0215H66.293C66.293 97.4857 66.155 97.6598 65.9544 97.7944C65.6475 98.0002 64.998 98.2129 63.7812 98.2129V101.213ZM69.293 97.0215C69.293 95.8202 68.7554 94.7536 67.9521 93.8446L65.7041 95.8312C66.1873 96.3779 66.293 96.767 66.293 97.0215H69.293ZM67.9521 93.8446C67.1382 92.9236 65.685 91.8999 63.7811 90.778L62.258 93.3626C64.1458 94.4751 65.2316 95.2965 65.7041 95.8312L67.9521 93.8446ZM63.7605 90.7661C60.8855 89.1326 58.9521 87.4889 57.8246 85.8781L55.3669 87.5985C56.8461 89.7116 59.1953 91.6227 62.2785 93.3745L63.7605 90.7661ZM57.8282 85.8833C56.7156 84.2795 56.1406 82.3923 56.1406 80.1621H53.1406C53.1406 82.9423 53.869 85.4393 55.3632 87.5933L57.8282 85.8833ZM56.1406 80.1621C56.1406 77.4484 57.0766 75.3827 58.9154 73.8126L56.9674 71.5311C54.4052 73.7188 53.1406 76.6467 53.1406 80.1621H56.1406ZM58.9205 73.8083C60.7852 72.2018 63.3274 71.3281 66.7012 71.3281V68.3281C62.7963 68.3281 59.4987 69.3503 56.9623 71.5355L58.9205 73.8083ZM66.7012 71.3281C70.1608 71.3281 73.0608 71.9555 75.4503 73.1502L76.7919 70.467C73.9002 69.0211 70.5202 68.3281 66.7012 68.3281V71.3281ZM74.6333 71.6174L73.5923 79.717L76.5678 80.0994L77.6089 71.9998L74.6333 71.6174ZM75.8926 78.6473C74.979 78.0586 73.7695 77.5373 72.3246 77.0616L71.3863 79.9111C72.7175 80.3494 73.6577 80.7761 74.2675 81.1691L75.8926 78.6473ZM72.3402 77.0668C70.8368 76.5535 69.4009 76.2754 68.0469 76.2754V79.2754C68.9949 79.2754 70.0981 79.4713 71.3708 79.9059L72.3402 77.0668ZM68.0469 76.2754C66.6084 76.2754 65.2657 76.5063 64.2468 77.1899C63.1179 77.9474 62.5987 79.1133 62.6114 80.4304L65.6113 80.4016C65.607 79.9583 65.7353 79.8039 65.9183 79.6811C66.2112 79.4846 66.8447 79.2754 68.0469 79.2754V76.2754ZM62.6113 80.416C62.6113 81.78 63.2897 82.955 64.2806 83.9253L66.3795 81.7817C65.7455 81.1609 65.6113 80.7109 65.6113 80.416H62.6113ZM64.2922 83.9365C65.2222 84.8278 66.567 85.7833 68.2634 86.8046L69.8108 84.2345C68.1895 83.2584 67.0629 82.4365 66.3679 81.7705L64.2922 83.9365ZM114.943 97.0723L116.412 96.7663L115.925 94.4319L114.032 95.881L114.943 97.0723ZM116.721 105.604L117.571 106.839L118.393 106.274L118.189 105.298L116.721 105.604ZM97.9316 103.268L96.7724 104.22L96.7782 104.227L97.9316 103.268ZM97.9316 74.373L96.7809 73.4108L96.7777 73.4147L97.9316 74.373ZM116.188 71.2754L117.636 71.6663L117.922 70.6044L116.996 70.0117L116.188 71.2754ZM113.953 79.5527L113.056 80.755L114.826 82.0753L115.401 79.9437L113.953 79.5527ZM105.168 80.6445L103.952 79.7663L103.946 79.7752L105.168 80.6445ZM105.168 97.0215L103.941 97.8844L103.946 97.8921L103.952 97.8997L105.168 97.0215ZM109.738 100.807C111.738 100.807 113.794 99.8404 115.855 98.2635L114.032 95.881C112.199 97.2833 110.785 97.8066 109.738 97.8066V100.807ZM113.475 97.3782L115.252 105.909L118.189 105.298L116.412 96.7663L113.475 97.3782ZM115.87 104.368C114.085 105.596 111.572 106.287 108.189 106.287V109.287C111.95 109.287 115.125 108.522 117.571 106.839L115.87 104.368ZM108.189 106.287C104.248 106.287 101.273 104.94 99.085 102.309L96.7782 104.227C99.6009 107.621 103.464 109.287 108.189 109.287V106.287ZM99.0908 102.316C96.9302 99.6847 95.6992 95.2848 95.6992 88.7949H92.6992C92.6992 95.542 93.9565 100.791 96.7724 104.22L99.0908 102.316ZM95.6992 88.7949C95.6992 82.3028 96.9311 77.9255 99.0856 75.3314L96.7777 73.4147C93.9556 76.8128 92.6992 82.0501 92.6992 88.7949H95.6992ZM99.0824 75.3352C101.269 72.72 104.245 71.3789 108.189 71.3789V68.3789C103.467 68.3789 99.6046 70.0339 96.7809 73.4109L99.0824 75.3352ZM108.189 71.3789C110.075 71.3789 111.618 71.4926 112.838 71.7057C114.074 71.9215 114.887 72.2239 115.379 72.5391L116.996 70.0117C116.033 69.3959 114.784 69.0001 113.354 68.7504C111.908 68.4979 110.18 68.3789 108.189 68.3789V71.3789ZM114.739 70.8845L112.505 79.1618L115.401 79.9437L117.636 71.6663L114.739 70.8845ZM114.85 78.3504C113.454 77.3092 111.705 76.8594 109.738 76.8594V79.8594C111.259 79.8594 112.319 80.2051 113.056 80.755L114.85 78.3504ZM109.738 76.8594C107.33 76.8594 105.346 77.8361 103.952 79.7663L106.384 81.5228C107.191 80.4061 108.253 79.8594 109.738 79.8594V76.8594ZM103.946 79.7752C102.569 81.7105 102.043 84.8498 102.043 88.7949H105.043C105.043 84.9197 105.6 82.6254 106.39 81.5138L103.946 79.7752ZM102.043 88.7949C102.043 92.7734 102.569 95.9342 103.941 97.8844L106.395 96.1586C105.6 95.0281 105.043 92.7045 105.043 88.7949H102.043ZM103.952 97.8997C105.346 99.8299 107.33 100.807 109.738 100.807V97.8066C108.253 97.8066 107.191 97.26 106.384 96.1432L103.952 97.8997ZM133.885 70.5898V69.0898H132.385V70.5898H133.885ZM143.203 70.5898H144.703V69.0898H143.203V70.5898ZM120.479 70.5898V69.0898H118.979V70.5898H120.479ZM129.797 70.5898H131.297V69.0898H129.797V70.5898ZM130.355 98.5703L129.16 99.4769L129.17 99.4898L129.18 99.5024L130.355 98.5703ZM133.275 98.5703L132.12 97.614L132.11 97.626L132.1 97.6382L133.275 98.5703ZM135.385 96.6914V70.5898H132.385V96.6914H135.385ZM133.885 72.0898H143.203V69.0898H133.885V72.0898ZM141.703 70.5898V96.2344H144.703V70.5898H141.703ZM141.703 96.2344C141.703 99.4106 140.749 101.801 138.952 103.57L141.056 105.708C143.524 103.279 144.703 100.066 144.703 96.2344H141.703ZM138.952 103.57C137.133 105.36 134.793 106.287 131.803 106.287V109.287C135.482 109.287 138.609 108.116 141.056 105.708L138.952 103.57ZM131.803 106.287C128.832 106.287 126.511 105.361 124.709 103.574L122.596 105.704C125.026 108.114 128.138 109.287 131.803 109.287V106.287ZM124.709 103.574C122.926 101.806 121.979 99.4141 121.979 96.2344H118.979C118.979 100.062 120.147 103.274 122.596 105.704L124.709 103.574ZM121.979 96.2344V70.5898H118.979V96.2344H121.979ZM120.479 72.0898H129.797V69.0898H120.479V72.0898ZM128.297 70.5898V96.6914H131.297V70.5898H128.297ZM128.297 96.6914C128.297 97.7016 128.547 98.6686 129.16 99.4769L131.551 97.6637C131.419 97.4902 131.297 97.2046 131.297 96.6914H128.297ZM129.18 99.5024C129.825 100.316 130.725 100.807 131.803 100.807V97.8066C131.736 97.8066 131.707 97.7944 131.689 97.7856C131.668 97.775 131.612 97.7412 131.531 97.6382L129.18 99.5024ZM131.803 100.807C132.883 100.807 133.796 100.328 134.451 99.5024L132.1 97.6382C131.976 97.7942 131.908 97.8066 131.803 97.8066V100.807ZM134.431 99.5267C135.101 98.7167 135.385 97.7311 135.385 96.6914H132.385C132.385 97.1751 132.262 97.4422 132.12 97.614L134.431 99.5267ZM164.76 88.3887V89.8887H165.86L166.19 88.8397L164.76 88.3887ZM170.371 70.5898V69.0898H169.271L168.941 70.1388L170.371 70.5898ZM179.943 70.5898H181.443V69.0898H179.943V70.5898ZM179.943 107V108.5H181.443V107H179.943ZM170.904 107H169.404V108.5H170.904V107ZM170.904 91.7148H172.404V90.2148H170.904V91.7148ZM170.676 91.7148V90.2148H169.58L169.247 91.2591L170.676 91.7148ZM165.801 107V108.5H166.897L167.23 107.456L165.801 107ZM163.566 107L162.137 107.454L162.469 108.5H163.566V107ZM158.717 91.7148L160.147 91.2612L159.815 90.2148H158.717V91.7148ZM158.514 91.7148V90.2148H157.014V91.7148H158.514ZM158.514 107V108.5H160.014V107H158.514ZM149.475 107H147.975V108.5H149.475V107ZM149.475 70.5898V69.0898H147.975V70.5898H149.475ZM159.047 70.5898L160.477 70.1388L160.147 69.0898H159.047V70.5898ZM164.658 88.3887L163.228 88.8397L163.558 89.8887H164.658V88.3887ZM166.19 88.8397L171.802 71.0409L168.941 70.1388L163.329 87.9377L166.19 88.8397ZM170.371 72.0898H179.943V69.0898H170.371V72.0898ZM178.443 70.5898V107H181.443V70.5898H178.443ZM179.943 105.5H170.904V108.5H179.943V105.5ZM172.404 107V91.7148H169.404V107H172.404ZM170.904 90.2148H170.676V93.2148H170.904V90.2148ZM169.247 91.2591L164.372 106.544L167.23 107.456L172.105 92.1706L169.247 91.2591ZM165.801 105.5H163.566V108.5H165.801V105.5ZM164.996 106.546L160.147 91.2612L157.287 92.1685L162.137 107.454L164.996 106.546ZM158.717 90.2148H158.514V93.2148H158.717V90.2148ZM157.014 91.7148V107H160.014V91.7148H157.014ZM158.514 105.5H149.475V108.5H158.514V105.5ZM150.975 107V70.5898H147.975V107H150.975ZM149.475 72.0898H159.047V69.0898H149.475V72.0898ZM157.616 71.0409L163.228 88.8397L166.089 87.9377L160.477 70.1388L157.616 71.0409ZM164.658 89.8887H164.76V86.8887H164.658V89.8887ZM207.848 74.4238L206.666 75.3475L206.669 75.3513L207.848 74.4238ZM207.898 93.0859L209.053 94.043L207.898 93.0859ZM195.559 96.6406V95.1406H194.059V96.6406H195.559ZM195.559 107V108.5H197.059V107H195.559ZM186.24 107H184.74V108.5H186.24V107ZM186.24 70.5898V69.0898H184.74V70.5898H186.24ZM200.408 86.9922L201.606 87.8958L201.614 87.885L200.408 86.9922ZM200.408 80.4922L199.203 81.3851L199.211 81.3958L200.408 80.4922ZM195.559 79.1211V77.6211H194.059V79.1211H195.559ZM195.559 88.3379H194.059V89.8379H195.559V88.3379ZM200.383 72.0898C202.855 72.0898 204.924 73.1181 206.666 75.3474L209.03 73.5002C206.777 70.6176 203.869 69.0898 200.383 69.0898V72.0898ZM206.669 75.3513C208.427 77.5865 209.344 80.377 209.344 83.8184H212.344C212.344 79.8118 211.263 76.3393 209.027 73.4964L206.669 75.3513ZM209.344 83.8184C209.344 87.3631 208.435 90.0875 206.743 92.1289L209.053 94.043C211.289 91.3448 212.344 87.8908 212.344 83.8184H209.344ZM206.743 92.1289C205.062 94.1588 202.978 95.1406 200.383 95.1406V98.1406C203.882 98.1406 206.808 96.7527 209.053 94.043L206.743 92.1289ZM200.383 95.1406H195.559V98.1406H200.383V95.1406ZM194.059 96.6406V107H197.059V96.6406H194.059ZM195.559 105.5H186.24V108.5H195.559V105.5ZM187.74 107V70.5898H184.74V107H187.74ZM186.24 72.0898H200.383V69.0898H186.24V72.0898ZM197.615 89.8379C199.241 89.8379 200.627 89.1917 201.605 87.8958L199.211 86.0886C198.835 86.587 198.359 86.8379 197.615 86.8379V89.8379ZM201.614 87.885C202.499 86.69 202.924 85.2954 202.924 83.7676H199.924C199.924 84.7111 199.672 85.4663 199.203 86.0993L201.614 87.885ZM202.924 83.7676C202.924 82.2042 202.507 80.7827 201.605 79.5886L199.211 81.3958C199.664 81.9959 199.924 82.758 199.924 83.7676H202.924ZM201.614 79.5993C200.64 78.2851 199.252 77.6211 197.615 77.6211V80.6211C198.348 80.6211 198.822 80.8712 199.203 81.385L201.614 79.5993ZM197.615 77.6211H195.559V80.6211H197.615V77.6211ZM194.059 79.1211V88.3379H197.059V79.1211H194.059ZM195.559 89.8379H197.615V86.8379H195.559V89.8379ZM224.199 70.5898H225.699V69.0898H224.199V70.5898ZM224.199 98.5195H222.699V100.02H224.199V98.5195ZM234.787 98.5195H236.287V97.0195H234.787V98.5195ZM234.787 107V108.5H236.287V107H234.787ZM214.881 107H213.381V108.5H214.881V107ZM214.881 70.5898V69.0898H213.381V70.5898H214.881ZM222.699 70.5898V98.5195H225.699V70.5898H222.699ZM224.199 100.02H234.787V97.0195H224.199V100.02ZM233.287 98.5195V107H236.287V98.5195H233.287ZM234.787 105.5H214.881V108.5H234.787V105.5ZM216.381 107V70.5898H213.381V107H216.381ZM214.881 72.0898H224.199V69.0898H214.881V72.0898ZM248.371 93.2129V91.7129H246.871V93.2129H248.371ZM248.371 98.5195H246.871V100.02H248.371V98.5195ZM260.33 98.5195H261.83V97.0195H260.33V98.5195ZM260.33 107V108.5H261.83V107H260.33ZM239.053 107H237.553V108.5H239.053V107ZM239.053 70.5898V69.0898H237.553V70.5898H239.053ZM260 70.5898H261.5V69.0898H260V70.5898ZM260 79.0703V80.5703H261.5V79.0703H260ZM248.371 79.0703V77.5703H246.871V79.0703H248.371ZM248.371 85.5703H246.871V87.0703H248.371V85.5703ZM258.857 85.5703H260.357V84.0703H258.857V85.5703ZM258.857 93.2129V94.7129H260.357V93.2129H258.857ZM246.871 93.2129V98.5195H249.871V93.2129H246.871ZM248.371 100.02H260.33V97.0195H248.371V100.02ZM258.83 98.5195V107H261.83V98.5195H258.83ZM260.33 105.5H239.053V108.5H260.33V105.5ZM240.553 107V70.5898H237.553V107H240.553ZM239.053 72.0898H260V69.0898H239.053V72.0898ZM258.5 70.5898V79.0703H261.5V70.5898H258.5ZM260 77.5703H248.371V80.5703H260V77.5703ZM246.871 79.0703V85.5703H249.871V79.0703H246.871ZM248.371 87.0703H258.857V84.0703H248.371V87.0703ZM257.357 85.5703V93.2129H260.357V85.5703H257.357ZM258.857 91.7129H248.371V94.7129H258.857V91.7129ZM269.775 70.5898V69.0898H268.564L268.309 70.2739L269.775 70.5898ZM281.48 70.5898L282.946 70.2719L282.69 69.0898H281.48V70.5898ZM289.377 107V108.5H291.237L290.843 106.682L289.377 107ZM280.008 107L278.526 107.234L278.726 108.5H280.008V107ZM279.145 101.541L280.626 101.307L280.426 100.041H279.145V101.541ZM272.162 101.541V100.041H270.887L270.682 101.3L272.162 101.541ZM271.273 107V108.5H272.549L272.754 107.241L271.273 107ZM261.93 107L260.463 106.684L260.072 108.5H261.93V107ZM273.406 94.1016L271.927 93.8545L271.635 95.6016H273.406V94.1016ZM277.875 94.1016V95.6016H279.653L279.354 93.8486L277.875 94.1016ZM275.742 81.6348L277.221 81.3818L277.007 80.1348H275.742V81.6348ZM275.488 81.6348V80.1348H274.218L274.009 81.3877L275.488 81.6348ZM269.775 72.0898H281.48V69.0898H269.775V72.0898ZM280.015 70.9078L287.911 107.318L290.843 106.682L282.946 70.2719L280.015 70.9078ZM289.377 105.5H280.008V108.5H289.377V105.5ZM281.489 106.766L280.626 101.307L277.663 101.775L278.526 107.234L281.489 106.766ZM279.145 100.041H272.162V103.041H279.145V100.041ZM270.682 101.3L269.793 106.759L272.754 107.241L273.643 101.782L270.682 101.3ZM271.273 105.5H261.93V108.5H271.273V105.5ZM263.396 107.316L271.242 70.9058L268.309 70.2739L260.463 106.684L263.396 107.316ZM273.406 95.6016H277.875V92.6016H273.406V95.6016ZM279.354 93.8486L277.221 81.3818L274.264 81.8877L276.396 94.3545L279.354 93.8486ZM275.742 80.1348H275.488V83.1348H275.742V80.1348ZM274.009 81.3877L271.927 93.8545L274.886 94.3486L276.968 81.8819L274.009 81.3877ZM305.906 85.1133V86.6133H307.406V85.1133H305.906ZM305.906 70.5898V69.0898H304.406V70.5898H305.906ZM315.199 70.5898H316.699V69.0898H315.199V70.5898ZM315.199 107V108.5H316.699V107H315.199ZM309.182 107L307.848 107.687L308.267 108.5H309.182V107ZM301.742 92.5527L303.076 91.866L302.657 91.0527H301.742V92.5527ZM301.641 92.5527V91.0527H300.141V92.5527H301.641ZM301.641 107V108.5H303.141V107H301.641ZM292.271 107H290.771V108.5H292.271V107ZM292.271 70.5898V69.0898H290.771V70.5898H292.271ZM298.314 70.5898L299.65 69.9078L299.233 69.0898H298.314V70.5898ZM305.729 85.1133L304.393 85.7953L304.81 86.6133H305.729V85.1133ZM308.09 58.377L308.424 56.9147L306.733 56.5278L306.595 58.2573L308.09 58.377ZM311.975 59.2656L313.474 59.2992L313.502 58.0762L312.309 57.8034L311.975 59.2656ZM303.393 64.7246L304.18 63.4476L304.168 63.4403L304.156 63.4332L303.393 64.7246ZM299.66 66.2734L299.305 67.7308L301.05 68.1558L301.157 66.3633L299.66 66.2734ZM295.699 65.3086L294.2 65.2614L294.162 66.4779L295.344 66.766L295.699 65.3086ZM297.096 60.2812L295.886 59.3949L295.877 59.4061L297.096 60.2812ZM304.078 59.7734L303.286 61.0472L303.3 61.0558L303.314 61.0642L304.078 59.7734ZM307.406 85.1133V70.5898H304.406V85.1133H307.406ZM305.906 72.0898H315.199V69.0898H305.906V72.0898ZM313.699 70.5898V107H316.699V70.5898H313.699ZM315.199 105.5H309.182V108.5H315.199V105.5ZM310.515 106.313L303.076 91.866L300.409 93.2394L307.848 107.687L310.515 106.313ZM301.742 91.0527H301.641V94.0527H301.742V91.0527ZM300.141 92.5527V107H303.141V92.5527H300.141ZM301.641 105.5H292.271V108.5H301.641V105.5ZM293.771 107V70.5898H290.771V107H293.771ZM292.271 72.0898H298.314V69.0898H292.271V72.0898ZM296.978 71.2719L304.393 85.7953L307.065 84.4313L299.65 69.9078L296.978 71.2719ZM305.729 86.6133H305.906V83.6133H305.729V86.6133ZM307.755 59.8392L311.64 60.7279L312.309 57.8034L308.424 56.9147L307.755 59.8392ZM310.475 59.2321C310.427 61.3771 310.028 62.7316 309.485 63.5139C309.011 64.1976 308.343 64.5703 307.252 64.5703V67.5703C309.207 67.5703 310.85 66.8089 311.95 65.2244C312.981 63.7385 313.421 61.6906 313.474 59.2992L310.475 59.2321ZM307.252 64.5703C306.523 64.5703 305.515 64.2704 304.18 63.4476L302.606 66.0016C304.182 66.9731 305.746 67.5703 307.252 67.5703V64.5703ZM304.156 63.4332C303.573 63.0886 303.051 62.8088 302.604 62.6106C302.214 62.4379 301.685 62.2344 301.158 62.2344V65.2344C301.05 65.2344 301.012 65.2141 301.082 65.2348C301.141 65.252 301.24 65.2876 301.388 65.3533C301.686 65.4851 302.095 65.7004 302.629 66.016L304.156 63.4332ZM301.158 62.2344C300.12 62.2344 299.307 62.7792 298.819 63.6069C298.39 64.3332 298.219 65.249 298.163 66.1836L301.157 66.3633C301.203 65.6051 301.332 65.2515 301.403 65.1314C301.427 65.0899 301.414 65.1296 301.337 65.1759C301.255 65.226 301.18 65.2344 301.158 65.2344V62.2344ZM300.015 64.8161L296.054 63.8512L295.344 66.766L299.305 67.7308L300.015 64.8161ZM297.198 65.3558C297.261 63.3755 297.687 62.0296 298.314 61.1564L295.877 59.4061C294.778 60.9366 294.273 62.9422 294.2 65.2614L297.198 65.3558ZM298.306 61.1676C298.936 60.3067 299.624 59.9785 300.447 59.9785V56.9785C298.562 56.9785 297.016 57.8521 295.886 59.3949L298.306 61.1676ZM300.447 59.9785C301.081 59.9785 302.009 60.2531 303.286 61.0472L304.87 58.4997C303.371 57.5672 301.879 56.9785 300.447 56.9785V59.9785ZM303.314 61.0642C303.973 61.4544 304.537 61.7653 304.992 61.9833C305.219 62.0919 305.443 62.1891 305.654 62.2621C305.833 62.324 306.132 62.416 306.465 62.416V59.416C306.646 59.416 306.731 59.4604 306.635 59.4271C306.571 59.4049 306.458 59.3592 306.287 59.2774C305.947 59.1146 305.47 58.8542 304.842 58.4827L303.314 61.0642ZM306.465 62.416C307.486 62.416 308.319 61.9127 308.845 61.0898C309.311 60.3627 309.51 59.4399 309.585 58.4966L306.595 58.2573C306.535 59.0067 306.395 59.3534 306.319 59.4727C306.292 59.5146 306.299 59.4869 306.359 59.4531C306.422 59.4173 306.47 59.416 306.465 59.416V62.416ZM343.434 103.293L344.61 104.224L344.613 104.22L343.434 103.293ZM323.934 103.293L322.755 104.22L322.757 104.224L323.934 103.293ZM325.113 75.275C327.174 72.6546 329.972 71.3281 333.684 71.3281V68.3281C329.134 68.3281 325.433 70.0147 322.755 73.4203L325.113 75.275ZM333.684 71.3281C337.395 71.3281 340.194 72.6546 342.255 75.275L344.613 73.4203C341.934 70.0147 338.233 68.3281 333.684 68.3281V71.3281ZM342.255 75.275C344.312 77.8911 345.488 82.2925 345.488 88.7949H348.488C348.488 82.0603 347.295 76.8302 344.613 73.4203L342.255 75.275ZM345.488 88.7949C345.488 95.3333 344.311 99.7505 342.255 102.366L344.613 104.22C347.295 100.809 348.488 95.5612 348.488 88.7949H345.488ZM342.257 102.362C340.197 104.967 337.398 106.287 333.684 106.287V109.287C338.23 109.287 341.93 107.612 344.61 104.224L342.257 102.362ZM333.684 106.287C329.969 106.287 327.17 104.967 325.11 102.362L322.757 104.224C325.437 107.612 329.138 109.287 333.684 109.287V106.287ZM325.113 102.366C323.056 99.7505 321.879 95.3333 321.879 88.7949H318.879C318.879 95.5612 320.072 100.809 322.755 104.22L325.113 102.366ZM321.879 88.7949C321.879 82.2925 323.055 77.8911 325.113 75.275L322.755 73.4203C320.073 76.8302 318.879 82.0603 318.879 88.7949H321.879ZM329.37 97.6618C329.778 98.5686 330.327 99.3619 331.069 99.9318C331.833 100.518 332.724 100.807 333.684 100.807V97.8066C333.356 97.8066 333.113 97.7189 332.895 97.5516C332.656 97.3682 332.376 97.0316 332.106 96.432L329.37 97.6618ZM333.684 100.807C334.643 100.807 335.534 100.518 336.298 99.9318C337.041 99.3619 337.59 98.5686 337.997 97.6618L335.261 96.432C334.991 97.0316 334.711 97.3682 334.472 97.5516C334.254 97.7189 334.011 97.8066 333.684 97.8066V100.807ZM337.997 97.6618C338.82 95.8308 339.145 92.7829 339.145 88.7949H336.145C336.145 92.7965 335.792 95.2499 335.261 96.432L337.997 97.6618ZM339.145 88.7949C339.145 84.852 338.819 81.8276 338 79.9845L335.258 81.203C335.793 82.4068 336.145 84.8499 336.145 88.7949H339.145ZM338 79.9845C337.593 79.0707 337.046 78.2704 336.304 77.6948C335.54 77.1022 334.647 76.8086 333.684 76.8086V79.8086C334.007 79.8086 334.247 79.8959 334.465 80.065C334.705 80.2511 334.987 80.5934 335.258 81.203L338 79.9845ZM333.684 76.8086C332.72 76.8086 331.827 77.1022 331.063 77.6948C330.321 78.2704 329.774 79.0707 329.368 79.9845L332.109 81.203C332.38 80.5934 332.662 80.2511 332.902 80.065C333.12 79.8959 333.361 79.8086 333.684 79.8086V76.8086ZM329.368 79.9845C328.548 81.8276 328.223 84.852 328.223 88.7949H331.223C331.223 84.8499 331.574 82.4068 332.109 81.203L329.368 79.9845ZM328.223 88.7949C328.223 92.7829 328.547 95.8308 329.37 97.6618L332.106 96.432C331.575 95.2499 331.223 92.7965 331.223 88.7949H328.223ZM365.295 85.5195L366.074 84.2376L366.069 84.2345L365.295 85.5195ZM371.693 90.9785L370.434 91.7934L370.438 91.7991L371.693 90.9785ZM370.094 104.867L371.092 105.987L371.097 105.983L370.094 104.867ZM350.213 104.664L348.751 104.329L348.53 105.291L349.327 105.874L350.213 104.664ZM352.041 96.6914L352.915 95.4723L351.083 94.1589L350.579 96.3562L352.041 96.6914ZM359.277 92.0703L360.039 90.778L360.029 90.772L360.018 90.7661L359.277 92.0703ZM352.854 86.7383L351.621 87.5933L351.625 87.5985L352.854 86.7383ZM354.199 72.6719L355.173 73.8126L355.178 73.8083L354.199 72.6719ZM372.379 71.8086L373.867 71.9998L374.002 70.9433L373.05 70.467L372.379 71.8086ZM371.338 79.9082L370.525 81.1691L372.523 82.4563L372.826 80.0994L371.338 79.9082ZM368.113 78.4863L367.629 79.9059L367.636 79.9085L367.644 79.9111L368.113 78.4863ZM360.369 80.416H361.869V80.4088L361.869 80.4016L360.369 80.416ZM361.588 82.8535L360.538 83.9253L360.544 83.9309L360.55 83.9365L361.588 82.8535ZM364.516 86.8015C367.601 88.6756 369.502 90.3526 370.434 91.7934L372.953 90.1636C371.651 88.1513 369.286 86.1889 366.074 84.2376L364.516 86.8015ZM370.438 91.7991C371.375 93.2328 371.869 94.9532 371.869 97.0215H374.869C374.869 94.4517 374.247 92.1435 372.949 90.158L370.438 91.7991ZM371.869 97.0215C371.869 99.9163 370.92 102.107 369.091 103.752L371.097 105.983C373.634 103.701 374.869 100.661 374.869 97.0215H371.869ZM369.096 103.748C367.26 105.384 364.666 106.287 361.131 106.287V109.287C365.179 109.287 368.56 108.244 371.092 105.987L369.096 103.748ZM361.131 106.287C356.931 106.287 353.626 105.304 351.099 103.454L349.327 105.874C352.487 108.188 356.46 109.287 361.131 109.287V106.287ZM351.675 104.999L353.503 97.0267L350.579 96.3562L348.751 104.329L351.675 104.999ZM351.167 97.9105C354.139 100.041 357.106 101.213 360.039 101.213V98.2129C357.928 98.2129 355.562 97.3702 352.915 95.4723L351.167 97.9105ZM360.039 101.213C361.497 101.213 362.853 100.977 363.884 100.286C365.02 99.5232 365.551 98.3515 365.551 97.0215H362.551C362.551 97.4857 362.413 97.6598 362.212 97.7944C361.905 98.0002 361.256 98.2129 360.039 98.2129V101.213ZM365.551 97.0215C365.551 95.8202 365.013 94.7536 364.21 93.8446L361.962 95.8312C362.445 96.3779 362.551 96.767 362.551 97.0215H365.551ZM364.21 93.8446C363.396 92.9236 361.943 91.8999 360.039 90.778L358.516 93.3626C360.404 94.4751 361.489 95.2965 361.962 95.8312L364.21 93.8446ZM360.018 90.7661C357.143 89.1326 355.21 87.4889 354.082 85.8781L351.625 87.5985C353.104 89.7116 355.453 91.6227 358.536 93.3745L360.018 90.7661ZM354.086 85.8833C352.973 84.2795 352.398 82.3923 352.398 80.1621H349.398C349.398 82.9423 350.127 85.4393 351.621 87.5933L354.086 85.8833ZM352.398 80.1621C352.398 77.4484 353.334 75.3827 355.173 73.8126L353.225 71.5311C350.663 73.7188 349.398 76.6467 349.398 80.1621H352.398ZM355.178 73.8083C357.043 72.2018 359.585 71.3281 362.959 71.3281V68.3281C359.054 68.3281 355.756 69.3503 353.22 71.5355L355.178 73.8083ZM362.959 71.3281C366.419 71.3281 369.319 71.9555 371.708 73.1502L373.05 70.467C370.158 69.0211 366.778 68.3281 362.959 68.3281V71.3281ZM370.891 71.6174L369.85 79.717L372.826 80.0994L373.867 71.9998L370.891 71.6174ZM372.15 78.6473C371.237 78.0586 370.027 77.5373 368.582 77.0616L367.644 79.9111C368.975 80.3494 369.916 80.7761 370.525 81.1691L372.15 78.6473ZM368.598 77.0668C367.095 76.5535 365.659 76.2754 364.305 76.2754V79.2754C365.253 79.2754 366.356 79.4713 367.629 79.9059L368.598 77.0668ZM364.305 76.2754C362.866 76.2754 361.523 76.5063 360.505 77.1899C359.376 77.9474 358.857 79.1133 358.869 80.4304L361.869 80.4016C361.865 79.9583 361.993 79.8039 362.176 79.6811C362.469 79.4846 363.103 79.2754 364.305 79.2754V76.2754ZM358.869 80.416C358.869 81.78 359.547 82.955 360.538 83.9253L362.637 81.7817C362.003 81.1609 361.869 80.7109 361.869 80.416H358.869ZM360.55 83.9365C361.48 84.8278 362.825 85.7833 364.521 86.8046L366.069 84.2345C364.447 83.2584 363.321 82.4365 362.626 81.7705L360.55 83.9365Z" fill="black" mask="url(#path-2-outside-1_13_954)"/>
<path d="M101.212 123.729C118.805 122.53 136.415 121.583 154.033 120.887C171.652 120.19 189.287 119.745 206.922 119.542C224.558 119.348 242.193 119.397 259.828 119.704C277.387 120.004 294.946 120.555 312.497 121.356C330.115 122.158 347.717 123.21 365.301 124.506C367.466 124.668 369.63 124.83 371.786 125C373.409 125.121 373.4 122.692 371.786 122.571C354.21 121.21 336.608 120.093 318.998 119.235C301.388 118.368 283.762 117.761 266.126 117.397C248.491 117.032 230.856 116.919 213.221 117.057C195.653 117.194 178.094 117.583 160.543 118.215C142.916 118.854 125.306 119.737 107.713 120.87C105.549 121.008 103.385 121.154 101.221 121.3C99.5974 121.413 99.5889 123.842 101.221 123.729" fill="#6BC4C5"/>
</svg>
