<svg width="888" height="257" viewBox="0 0 888 257" fill="none" xmlns="http://www.w3.org/2000/svg">
<g clip-path="url(#clip0_45_563)">
<rect width="888" height="257" fill="white"/>
<path d="M35.709 72.1377V81.3223H56.4072V96H19.5811V32.9824H55.8359V47.6602H35.709V58.9102H53.8584V72.1377H35.709ZM84.1121 32.9824V81.3223H102.437V96H67.9842V32.9824H84.1121ZM171.162 68.5342C174.209 69.501 176.172 72.3867 177.051 77.1914L180.435 96H163.516L160.572 78.5537C159.986 75.624 158.272 74.1445 155.43 74.1152H154.639V96H138.511V32.9824H160.572C166.021 32.9824 170.459 34.7256 173.887 38.2119C177.315 41.6982 179.029 46.415 179.029 52.3623C179.029 59.4521 176.407 64.6963 171.162 68.0947V68.5342ZM156.968 61.459C158.755 61.459 160.22 60.8145 161.363 59.5254C162.505 58.2363 163.077 56.5957 163.077 54.6035C163.077 52.5527 162.505 50.8828 161.363 49.5938C160.22 48.3047 158.755 47.6602 156.968 47.6602H154.639V61.459H156.968ZM207.525 72.1377V81.3223H228.223V96H191.397V32.9824H227.652V47.6602H207.525V58.9102H225.674V72.1377H207.525ZM264.453 82.6846C267.09 82.6846 270.093 81.3955 273.462 78.8174L276.538 93.583C272.876 96.1025 267.954 97.3623 261.772 97.3623C254.272 97.3623 248.354 94.7549 244.019 89.54C239.712 84.2959 237.559 75.9463 237.559 64.4912C237.559 53.0361 239.712 44.7158 244.019 39.5303C248.354 34.3447 254.272 31.752 261.772 31.752C268.481 31.752 273.096 32.5576 275.615 34.1689L271.748 48.4951C269.902 47.1182 267.471 46.4297 264.453 46.4297C261.084 46.4297 258.447 47.748 256.543 50.3848C254.668 53.0215 253.73 57.7236 253.73 64.4912C253.73 71.3174 254.668 76.0635 256.543 78.7295C258.447 81.3662 261.084 82.6846 264.453 82.6846ZM286.929 39.4863C291.03 34.2715 296.655 31.6641 303.804 31.6641C310.952 31.6641 316.577 34.2715 320.679 39.4863C324.78 44.7012 326.831 53.0361 326.831 64.4912C326.831 76.0049 324.78 84.3691 320.679 89.584C316.577 94.7695 310.952 97.3623 303.804 97.3623C296.655 97.3623 291.03 94.7695 286.929 89.584C282.827 84.3691 280.776 76.0049 280.776 64.4912C280.776 53.0361 282.827 44.7012 286.929 39.4863ZM298.706 78.7734C299.878 81.3809 301.577 82.6846 303.804 82.6846C306.03 82.6846 307.729 81.3809 308.901 78.7734C310.073 76.166 310.659 71.4053 310.659 64.4912C310.659 57.665 310.073 52.9336 308.901 50.2969C307.729 47.6602 306.03 46.3418 303.804 46.3418C301.577 46.3418 299.878 47.6602 298.706 50.2969C297.534 52.9336 296.948 57.665 296.948 64.4912C296.948 71.4053 297.534 76.166 298.706 78.7734ZM362.05 58.1191V32.9824H378.134V96H367.719L354.843 70.9951H354.668V96H338.452V32.9824H348.911L361.743 58.1191H362.05ZM395.952 39.4863C400.053 34.2715 405.678 31.6641 412.827 31.6641C419.975 31.6641 425.6 34.2715 429.702 39.4863C433.803 44.7012 435.854 53.0361 435.854 64.4912C435.854 76.0049 433.803 84.3691 429.702 89.584C425.6 94.7695 419.975 97.3623 412.827 97.3623C405.678 97.3623 400.053 94.7695 395.952 89.584C391.85 84.3691 389.799 76.0049 389.799 64.4912C389.799 53.0361 391.85 44.7012 395.952 39.4863ZM407.729 78.7734C408.901 81.3809 410.6 82.6846 412.827 82.6846C415.053 82.6846 416.752 81.3809 417.924 78.7734C419.096 76.166 419.682 71.4053 419.682 64.4912C419.682 57.665 419.096 52.9336 417.924 50.2969C416.752 47.6602 415.053 46.3418 412.827 46.3418C410.6 46.3418 408.901 47.6602 407.729 50.2969C406.557 52.9336 405.971 57.665 405.971 64.4912C405.971 71.4053 406.557 76.166 407.729 78.7734ZM472.128 82.6846C474.765 82.6846 477.768 81.3955 481.137 78.8174L484.213 93.583C480.551 96.1025 475.629 97.3623 469.447 97.3623C461.947 97.3623 456.029 94.7549 451.694 89.54C447.387 84.2959 445.234 75.9463 445.234 64.4912C445.234 53.0361 447.387 44.7158 451.694 39.5303C456.029 34.3447 461.947 31.752 469.447 31.752C476.156 31.752 480.771 32.5576 483.29 34.1689L479.423 48.4951C477.577 47.1182 475.146 46.4297 472.128 46.4297C468.759 46.4297 466.122 47.748 464.218 50.3848C462.343 53.0215 461.405 57.7236 461.405 64.4912C461.405 71.3174 462.343 76.0635 464.218 78.7295C466.122 81.3662 468.759 82.6846 472.128 82.6846ZM493.417 96V32.9824H509.545V96H493.417ZM549.555 63.7881L559.266 32.9824H575.834V96H560.189V69.5449H559.794L551.356 96H547.489L539.096 69.5449H538.744V96H523.099V32.9824H539.667L549.379 63.7881H549.555ZM589.432 96V32.9824H605.56V96H589.432ZM635.506 72.1377V81.3223H656.204V96H619.378V32.9824H655.633V47.6602H635.506V58.9102H653.656V72.1377H635.506ZM691.38 58.1191V32.9824H707.464V96H697.049L684.173 70.9951H683.997V96H667.781V32.9824H678.24L691.072 58.1191H691.38ZM717.063 47.6602V32.9824H756.219V47.6602H744.661V96H728.577V47.6602H717.063ZM767.005 39.4863C771.106 34.2715 776.731 31.6641 783.88 31.6641C791.028 31.6641 796.653 34.2715 800.755 39.4863C804.856 44.7012 806.907 53.0361 806.907 64.4912C806.907 76.0049 804.856 84.3691 800.755 89.584C796.653 94.7695 791.028 97.3623 783.88 97.3623C776.731 97.3623 771.106 94.7695 767.005 89.584C762.903 84.3691 760.852 76.0049 760.852 64.4912C760.852 53.0361 762.903 44.7012 767.005 39.4863ZM778.782 78.7734C779.954 81.3809 781.653 82.6846 783.88 82.6846C786.106 82.6846 787.805 81.3809 788.977 78.7734C790.149 76.166 790.735 71.4053 790.735 64.4912C790.735 57.665 790.149 52.9336 788.977 50.2969C787.805 47.6602 786.106 46.3418 783.88 46.3418C781.653 46.3418 779.954 47.6602 778.782 50.2969C777.61 52.9336 777.024 57.665 777.024 64.4912C777.024 71.4053 777.61 76.166 778.782 78.7734ZM15.2744 137.66V122.982H54.4297V137.66H42.8721V186H26.7881V137.66H15.2744ZM63.9412 186V122.982H80.0691V186H63.9412ZM110.015 162.138V171.322H130.713V186H93.8873V122.982H130.142V137.66H110.015V148.91H128.165V162.138H110.015ZM165.889 148.119V122.982H181.973V186H171.558L158.682 160.995H158.506V186H142.29V122.982H152.749L165.581 148.119H165.889ZM212.007 162.138V171.322H232.705V186H195.879V122.982H232.134V137.66H212.007V148.91H230.156V162.138H212.007Z" fill="black"/>
<mask id="path-2-outside-1_45_563" maskUnits="userSpaceOnUse" x="272" y="120" width="337" height="69" fill="black">
<rect fill="white" x="272" y="120" width="337" height="69"/>
<path d="M273.581 186V122.982H289.709V186H273.581ZM331.519 153.788L341.23 122.982H357.798V186H342.153V159.545H341.758L333.32 186H329.453L321.06 159.545H320.708V186H305.063V122.982H321.631L331.343 153.788H331.519ZM397.674 122.982C402.83 122.982 407.137 125.194 410.594 129.618C414.051 134.013 415.779 139.433 415.779 145.878C415.779 152.47 414.08 157.816 410.682 161.918C407.283 166.02 402.947 168.07 397.674 168.07H389.324V186H373.196V122.982H397.674ZM392.884 153.7C394.935 153.7 396.546 152.924 397.718 151.371C398.89 149.789 399.476 147.929 399.476 145.79C399.476 143.563 398.89 141.674 397.718 140.121C396.546 138.539 394.935 137.748 392.884 137.748H389.324V153.7H392.884ZM429.288 122.982H449.547L463.214 186H446.998L445.504 176.552H433.419L431.881 186H415.709L429.288 122.982ZM435.572 163.676H443.307L439.615 142.099H439.176L435.572 163.676ZM495.092 172.685C497.729 172.685 500.731 171.396 504.101 168.817L507.177 183.583C503.515 186.103 498.593 187.362 492.411 187.362C484.911 187.362 478.993 184.755 474.657 179.54C470.351 174.296 468.197 165.946 468.197 154.491C468.197 143.036 470.351 134.716 474.657 129.53C478.993 124.345 484.911 121.752 492.411 121.752C499.12 121.752 503.734 122.558 506.254 124.169L502.387 138.495C500.541 137.118 498.109 136.43 495.092 136.43C491.723 136.43 489.086 137.748 487.182 140.385C485.307 143.021 484.369 147.724 484.369 154.491C484.369 161.317 485.307 166.063 487.182 168.729C489.086 171.366 491.723 172.685 495.092 172.685ZM515.192 137.66V122.982H554.348V137.66H542.79V186H526.706V137.66H515.192ZM566.934 129.486C571.035 124.271 576.66 121.664 583.809 121.664C590.957 121.664 596.582 124.271 600.684 129.486C604.785 134.701 606.836 143.036 606.836 154.491C606.836 166.005 604.785 174.369 600.684 179.584C596.582 184.77 590.957 187.362 583.809 187.362C576.66 187.362 571.035 184.77 566.934 179.584C562.832 174.369 560.781 166.005 560.781 154.491C560.781 143.036 562.832 134.701 566.934 129.486ZM578.711 168.773C579.883 171.381 581.582 172.685 583.809 172.685C586.035 172.685 587.734 171.381 588.906 168.773C590.078 166.166 590.664 161.405 590.664 154.491C590.664 147.665 590.078 142.934 588.906 140.297C587.734 137.66 586.035 136.342 583.809 136.342C581.582 136.342 579.883 137.66 578.711 140.297C577.539 142.934 576.953 147.665 576.953 154.491C576.953 161.405 577.539 166.166 578.711 168.773Z"/>
</mask>
<path d="M273.581 186H272.081V187.5H273.581V186ZM273.581 122.982V121.482H272.081V122.982H273.581ZM289.709 122.982H291.209V121.482H289.709V122.982ZM289.709 186V187.5H291.209V186H289.709ZM273.581 186H275.081V122.982H273.581H272.081V186H273.581ZM273.581 122.982V124.482H289.709V122.982V121.482H273.581V122.982ZM289.709 122.982H288.209V186H289.709H291.209V122.982H289.709ZM289.709 186V184.5H273.581V186V187.5H289.709V186ZM331.519 153.788V155.288H332.618L332.949 154.239L331.519 153.788ZM341.23 122.982V121.482H340.131L339.8 122.531L341.23 122.982ZM357.798 122.982H359.298V121.482H357.798V122.982ZM357.798 186V187.5H359.298V186H357.798ZM342.153 186H340.653V187.5H342.153V186ZM342.153 159.545H343.653V158.045H342.153V159.545ZM341.758 159.545V158.045H340.662L340.329 159.089L341.758 159.545ZM333.32 186V187.5H334.416L334.749 186.456L333.32 186ZM329.453 186L328.023 186.454L328.355 187.5H329.453V186ZM321.06 159.545L322.489 159.091L322.157 158.045H321.06V159.545ZM320.708 159.545V158.045H319.208V159.545H320.708ZM320.708 186V187.5H322.208V186H320.708ZM305.063 186H303.563V187.5H305.063V186ZM305.063 122.982V121.482H303.563V122.982H305.063ZM321.631 122.982L323.061 122.531L322.731 121.482H321.631V122.982ZM331.343 153.788L329.912 154.239L330.243 155.288H331.343V153.788ZM331.519 153.788L332.949 154.239L342.661 123.433L341.23 122.982L339.8 122.531L330.088 153.337L331.519 153.788ZM341.23 122.982V124.482H357.798V122.982V121.482H341.23V122.982ZM357.798 122.982H356.298V186H357.798H359.298V122.982H357.798ZM357.798 186V184.5H342.153V186V187.5H357.798V186ZM342.153 186H343.653V159.545H342.153H340.653V186H342.153ZM342.153 159.545V158.045H341.758V159.545V161.045H342.153V159.545ZM341.758 159.545L340.329 159.089L331.891 185.544L333.32 186L334.749 186.456L343.187 160.001L341.758 159.545ZM333.32 186V184.5H329.453V186V187.5H333.32V186ZM329.453 186L330.883 185.546L322.489 159.091L321.06 159.545L319.63 159.999L328.023 186.454L329.453 186ZM321.06 159.545V158.045H320.708V159.545V161.045H321.06V159.545ZM320.708 159.545H319.208V186H320.708H322.208V159.545H320.708ZM320.708 186V184.5H305.063V186V187.5H320.708V186ZM305.063 186H306.563V122.982H305.063H303.563V186H305.063ZM305.063 122.982V124.482H321.631V122.982V121.482H305.063V122.982ZM321.631 122.982L320.2 123.433L329.912 154.239L331.343 153.788L332.773 153.337L323.061 122.531L321.631 122.982ZM331.343 153.788V155.288H331.519V153.788V152.288H331.343V153.788ZM410.594 129.618L409.412 130.542L409.415 130.546L410.594 129.618ZM389.324 168.07V166.57H387.824V168.07H389.324ZM389.324 186V187.5H390.824V186H389.324ZM373.196 186H371.696V187.5H373.196V186ZM373.196 122.982V121.482H371.696V122.982H373.196ZM397.718 151.371L398.915 152.275L398.923 152.264L397.718 151.371ZM397.718 140.121L396.512 141.014L396.52 141.025L397.718 140.121ZM389.324 137.748V136.248H387.824V137.748H389.324ZM389.324 153.7H387.824V155.2H389.324V153.7ZM397.674 122.982V124.482C402.323 124.482 406.21 126.445 409.412 130.542L410.594 129.618L411.776 128.695C408.063 123.944 403.337 121.482 397.674 121.482V122.982ZM410.594 129.618L409.415 130.546C412.633 134.636 414.279 139.715 414.279 145.878H415.779H417.279C417.279 139.15 415.469 133.389 411.773 128.691L410.594 129.618ZM415.779 145.878H414.279C414.279 152.206 412.653 157.188 409.527 160.961L410.682 161.918L411.837 162.875C415.507 158.445 417.279 152.734 417.279 145.878H415.779ZM410.682 161.918L409.527 160.961C406.41 164.723 402.495 166.57 397.674 166.57V168.07V169.57C403.399 169.57 408.157 167.316 411.837 162.875L410.682 161.918ZM397.674 168.07V166.57H389.324V168.07V169.57H397.674V168.07ZM389.324 168.07H387.824V186H389.324H390.824V168.07H389.324ZM389.324 186V184.5H373.196V186V187.5H389.324V186ZM373.196 186H374.696V122.982H373.196H371.696V186H373.196ZM373.196 122.982V124.482H397.674V122.982V121.482H373.196V122.982ZM392.884 153.7V155.2C395.375 155.2 397.442 154.226 398.915 152.275L397.718 151.371L396.52 150.467C395.65 151.621 394.494 152.2 392.884 152.2V153.7ZM397.718 151.371L398.923 152.264C400.303 150.401 400.976 148.221 400.976 145.79H399.476H397.976C397.976 147.637 397.476 149.177 396.512 150.478L397.718 151.371ZM399.476 145.79H400.976C400.976 143.287 400.311 141.067 398.915 139.217L397.718 140.121L396.52 141.025C397.468 142.28 397.976 143.84 397.976 145.79H399.476ZM397.718 140.121L398.923 139.228C397.455 137.246 395.387 136.248 392.884 136.248V137.748V139.248C394.483 139.248 395.637 139.832 396.512 141.014L397.718 140.121ZM392.884 137.748V136.248H389.324V137.748V139.248H392.884V137.748ZM389.324 137.748H387.824V153.7H389.324H390.824V137.748H389.324ZM389.324 153.7V155.2H392.884V153.7V152.2H389.324V153.7ZM429.288 122.982V121.482H428.077L427.822 122.666L429.288 122.982ZM449.547 122.982L451.013 122.664L450.756 121.482H449.547V122.982ZM463.214 186V187.5H465.074L464.68 185.682L463.214 186ZM446.998 186L445.516 186.234L445.717 187.5H446.998V186ZM445.504 176.552L446.985 176.317L446.785 175.052H445.504V176.552ZM433.419 176.552V175.052H432.143L431.938 176.311L433.419 176.552ZM431.881 186V187.5H433.156L433.361 186.241L431.881 186ZM415.709 186L414.243 185.684L413.851 187.5H415.709V186ZM435.572 163.676L434.093 163.429L433.801 165.176H435.572V163.676ZM443.307 163.676V165.176H445.085L444.785 163.423L443.307 163.676ZM439.615 142.099L441.094 141.846L440.88 140.599H439.615V142.099ZM439.176 142.099V140.599H437.906L437.696 141.852L439.176 142.099ZM429.288 122.982V124.482H449.547V122.982V121.482H429.288V122.982ZM449.547 122.982L448.081 123.3L461.748 186.318L463.214 186L464.68 185.682L451.013 122.664L449.547 122.982ZM463.214 186V184.5H446.998V186V187.5H463.214V186ZM446.998 186L448.48 185.766L446.985 176.317L445.504 176.552L444.022 176.786L445.516 186.234L446.998 186ZM445.504 176.552V175.052H433.419V176.552V178.052H445.504V176.552ZM433.419 176.552L431.938 176.311L430.4 185.759L431.881 186L433.361 186.241L434.899 176.793L433.419 176.552ZM431.881 186V184.5H415.709V186V187.5H431.881V186ZM415.709 186L417.175 186.316L430.754 123.298L429.288 122.982L427.822 122.666L414.243 185.684L415.709 186ZM435.572 163.676V165.176H443.307V163.676V162.176H435.572V163.676ZM443.307 163.676L444.785 163.423L441.094 141.846L439.615 142.099L438.137 142.352L441.828 163.929L443.307 163.676ZM439.615 142.099V140.599H439.176V142.099V143.599H439.615V142.099ZM439.176 142.099L437.696 141.852L434.093 163.429L435.572 163.676L437.052 163.923L440.655 142.346L439.176 142.099ZM504.101 168.817L505.569 168.511L505.083 166.177L503.189 167.626L504.101 168.817ZM507.177 183.583L508.027 184.819L508.849 184.253L508.645 183.277L507.177 183.583ZM474.657 179.54L473.498 180.492L473.504 180.499L474.657 179.54ZM474.657 129.53L473.506 128.568L473.503 128.572L474.657 129.53ZM506.254 124.169L507.702 124.56L507.989 123.498L507.062 122.905L506.254 124.169ZM502.387 138.495L501.49 139.697L503.259 141.018L503.835 138.886L502.387 138.495ZM487.182 140.385L485.966 139.507L485.959 139.515L487.182 140.385ZM487.182 168.729L485.955 169.592L485.96 169.6L485.966 169.608L487.182 168.729ZM495.092 172.685V174.185C498.205 174.185 501.529 172.674 505.012 170.009L504.101 168.817L503.189 167.626C499.934 170.117 497.252 171.185 495.092 171.185V172.685ZM504.101 168.817L502.632 169.123L505.708 183.889L507.177 183.583L508.645 183.277L505.569 168.511L504.101 168.817ZM507.177 183.583L506.327 182.347C502.995 184.639 498.404 185.862 492.411 185.862V187.362V188.862C498.781 188.862 504.034 187.566 508.027 184.819L507.177 183.583ZM492.411 187.362V185.862C485.303 185.862 479.829 183.414 475.811 178.581L474.657 179.54L473.504 180.499C478.157 186.096 484.519 188.862 492.411 188.862V187.362ZM474.657 179.54L475.816 178.588C471.837 173.743 469.697 165.818 469.697 154.491H468.197H466.697C466.697 166.075 468.864 174.849 473.498 180.492L474.657 179.54ZM468.197 154.491H469.697C469.697 143.162 471.838 135.272 475.811 130.489L474.657 129.53L473.503 128.572C468.863 134.159 466.697 142.91 466.697 154.491H468.197ZM474.657 129.53L475.808 130.492C479.825 125.688 485.3 123.252 492.411 123.252V121.752V120.252C484.522 120.252 478.161 123.002 473.506 128.568L474.657 129.53ZM492.411 121.752V123.252C495.713 123.252 498.451 123.451 500.646 123.834C502.856 124.22 504.421 124.777 505.446 125.433L506.254 124.169L507.062 122.905C505.567 121.949 503.566 121.298 501.162 120.879C498.741 120.456 495.818 120.252 492.411 120.252V121.752ZM506.254 124.169L504.806 123.778L500.939 138.104L502.387 138.495L503.835 138.886L507.702 124.56L506.254 124.169ZM502.387 138.495L503.284 137.293C501.109 135.67 498.332 134.93 495.092 134.93V136.43V137.93C497.886 137.93 499.973 138.566 501.49 139.697L502.387 138.495ZM495.092 136.43V134.93C491.261 134.93 488.164 136.463 485.966 139.507L487.182 140.385L488.398 141.263C490.008 139.033 492.184 137.93 495.092 137.93V136.43ZM487.182 140.385L485.959 139.515C483.791 142.564 482.869 147.689 482.869 154.491H484.369H485.869C485.869 147.759 486.822 143.479 488.404 141.254L487.182 140.385ZM484.369 154.491H482.869C482.869 161.352 483.791 166.517 485.955 169.592L487.182 168.729L488.409 167.867C486.822 165.61 485.869 161.283 485.869 154.491H484.369ZM487.182 168.729L485.966 169.608C488.164 172.651 491.261 174.185 495.092 174.185V172.685V171.185C492.184 171.185 490.008 170.081 488.398 167.851L487.182 168.729ZM515.192 137.66H513.692V139.16H515.192V137.66ZM515.192 122.982V121.482H513.692V122.982H515.192ZM554.348 122.982H555.848V121.482H554.348V122.982ZM554.348 137.66V139.16H555.848V137.66H554.348ZM542.79 137.66V136.16H541.29V137.66H542.79ZM542.79 186V187.5H544.29V186H542.79ZM526.706 186H525.206V187.5H526.706V186ZM526.706 137.66H528.206V136.16H526.706V137.66ZM515.192 137.66H516.692V122.982H515.192H513.692V137.66H515.192ZM515.192 122.982V124.482H554.348V122.982V121.482H515.192V122.982ZM554.348 122.982H552.848V137.66H554.348H555.848V122.982H554.348ZM554.348 137.66V136.16H542.79V137.66V139.16H554.348V137.66ZM542.79 137.66H541.29V186H542.79H544.29V137.66H542.79ZM542.79 186V184.5H526.706V186V187.5H542.79V186ZM526.706 186H528.206V137.66H526.706H525.206V186H526.706ZM526.706 137.66V136.16H515.192V137.66V139.16H526.706V137.66ZM600.684 179.584L601.86 180.515L601.863 180.511L600.684 179.584ZM566.934 179.584L565.755 180.511L565.757 180.515L566.934 179.584ZM566.934 129.486L568.113 130.414C571.905 125.591 577.079 123.164 583.809 123.164V121.664V120.164C576.241 120.164 570.165 122.952 565.755 128.559L566.934 129.486ZM583.809 121.664V123.164C590.538 123.164 595.712 125.591 599.505 130.414L600.684 129.486L601.863 128.559C597.452 122.952 591.376 120.164 583.809 120.164V121.664ZM600.684 129.486L599.505 130.414C603.294 135.232 605.336 143.152 605.336 154.491H606.836H608.336C608.336 142.92 606.276 134.171 601.863 128.559L600.684 129.486ZM606.836 154.491H605.336C605.336 165.891 603.293 173.84 599.505 178.657L600.684 179.584L601.863 180.511C606.277 174.899 608.336 166.119 608.336 154.491H606.836ZM600.684 179.584L599.507 178.653C595.716 183.447 590.541 185.862 583.809 185.862V187.362V188.862C591.373 188.862 597.448 186.092 601.86 180.515L600.684 179.584ZM583.809 187.362V185.862C577.076 185.862 571.902 183.447 568.11 178.653L566.934 179.584L565.757 180.515C570.169 186.092 576.244 188.862 583.809 188.862V187.362ZM566.934 179.584L568.113 178.657C564.324 173.84 562.281 165.891 562.281 154.491H560.781H559.281C559.281 166.119 561.34 174.899 565.755 180.511L566.934 179.584ZM560.781 154.491H562.281C562.281 143.152 564.323 135.232 568.113 130.414L566.934 129.486L565.755 128.559C561.341 134.171 559.281 142.92 559.281 154.491H560.781ZM578.711 168.773L577.343 169.388C577.998 170.846 578.85 172.052 579.951 172.897C581.074 173.758 582.379 174.185 583.809 174.185V172.685V171.185C583.011 171.185 582.354 170.959 581.777 170.517C581.18 170.058 580.596 169.309 580.079 168.159L578.711 168.773ZM583.809 172.685V174.185C585.238 174.185 586.544 173.758 587.666 172.897C588.767 172.052 589.619 170.846 590.274 169.388L588.906 168.773L587.538 168.159C587.021 169.309 586.438 170.058 585.84 170.517C585.263 170.959 584.606 171.185 583.809 171.185V172.685ZM588.906 168.773L590.274 169.388C591.592 166.456 592.164 161.398 592.164 154.491H590.664H589.164C589.164 161.412 588.564 165.876 587.538 168.159L588.906 168.773ZM590.664 154.491H592.164C592.164 147.666 591.591 142.644 590.277 139.688L588.906 140.297L587.536 140.906C588.565 143.223 589.164 147.664 589.164 154.491H590.664ZM588.906 140.297L590.277 139.688C589.623 138.217 588.773 136.999 587.672 136.145C586.55 135.275 585.242 134.842 583.809 134.842V136.342V137.842C584.602 137.842 585.257 138.068 585.833 138.516C586.432 138.98 587.017 139.74 587.536 140.906L588.906 140.297ZM583.809 136.342V134.842C582.375 134.842 581.067 135.275 579.945 136.145C578.844 136.999 577.994 138.217 577.34 139.688L578.711 140.297L580.082 140.906C580.6 139.74 581.185 138.98 581.784 138.516C582.36 138.068 583.016 137.842 583.809 137.842V136.342ZM578.711 140.297L577.34 139.688C576.026 142.644 575.453 147.666 575.453 154.491H576.953H578.453C578.453 147.664 579.052 143.223 580.082 140.906L578.711 140.297ZM576.953 154.491H575.453C575.453 161.398 576.025 166.456 577.343 169.388L578.711 168.773L580.079 168.159C579.053 165.876 578.453 161.412 578.453 154.491H576.953Z" fill="black" mask="url(#path-2-outside-1_45_563)"/>
<path d="M274 209.416C372.458 204.547 580.216 201.316 603 213" stroke="black" stroke-width="5" stroke-linecap="round" stroke-linejoin="round"/>
</g>
<defs>
<clipPath id="clip0_45_563">
<rect width="888" height="257" fill="white"/>
</clipPath>
</defs>
</svg>
