<svg width="41" height="27" viewBox="0 0 41 27" fill="none" xmlns="http://www.w3.org/2000/svg">
<path d="M3.17323 0.0232455L37.1047 0C38.9436 0.136473 40.3166 1.44197 40.4603 3.18688V23.8131C40.3166 25.5595 38.942 26.8635 37.1047 27H3.38561C1.58071 26.8665 0.209272 25.5888 0.0332031 23.8844V3.03991C0.243222 1.44797 1.50097 0.229455 3.17323 0.0232455ZM36.3515 2.25256H4.13805L19.3747 16.7637C19.8334 17.1432 20.6577 17.1424 21.1157 16.7637L36.3515 2.25256ZM2.40105 23.1735L12.5807 13.4734L2.40105 3.82726V23.1735ZM38.0885 23.1735V3.82726L27.9089 13.5274L38.0885 23.1735ZM36.3515 24.7482L26.2169 15.1553C25.0579 16.1084 24.0441 17.3614 22.8921 18.3009C21.9281 19.0875 21.1022 19.3672 19.8074 19.2773C17.5706 19.1213 15.9094 16.3071 14.2158 15.1553L4.13805 24.7482H36.3515Z" fill="#1A1A1A"/>
</svg>
