<svg width="568" height="126" viewBox="0 0 568 126" fill="none" xmlns="http://www.w3.org/2000/svg">
<g clip-path="url(#clip0_86_60)">
<mask id="mask0_86_60" style="mask-type:alpha" maskUnits="userSpaceOnUse" x="5" y="-95" width="679" height="206">
<mask id="path-1-outside-1_86_60" maskUnits="userSpaceOnUse" x="5" y="-95" width="679" height="206" fill="black">
<rect fill="white" x="5" y="-95" width="679" height="206"/>
<path d="M56.6875 -34.9375H30.875V-21.875H60.3125V-1H7.9375V-90.625H59.5V-69.75H30.875V-53.75H56.6875V-34.9375ZM106.875 -90.625H129.125L113.125 -46.4375L130.938 -1H108.625L97.875 -29.9375H97.5L86.75 -1H64.625L82.4375 -47.1875L66.4375 -90.625H88.5625L97.5 -63.5625H97.875L106.875 -90.625ZM138.562 -90.625H173.375C180.708 -90.625 186.833 -87.5 191.75 -81.25C196.667 -74.9583 199.125 -67.2292 199.125 -58.0625C199.125 -48.6875 196.708 -41.0833 191.875 -35.25C187.042 -29.4167 180.875 -26.5 173.375 -26.5H161.5V-1H138.562V-90.625ZM161.5 -46.9375H166.562C169.438 -46.9375 171.729 -48.0625 173.438 -50.3125C175.104 -52.4792 175.938 -55.1042 175.938 -58.1875C175.938 -61.3958 175.104 -64.1042 173.438 -66.3125C171.729 -68.5208 169.438 -69.625 166.562 -69.625H161.5V-46.9375ZM257.812 -34.9375H232V-21.875H261.438V-1H209.062V-90.625H260.625V-69.75H232V-53.75H257.812V-34.9375ZM320.5 -40.6875V-40.0625C324.833 -38.6875 327.625 -34.5833 328.875 -27.75L333.688 -1H309.625L305.438 -25.8125C304.646 -29.9375 302.208 -32.0417 298.125 -32.125H297V-1H274.062V-90.625H305.438C313.188 -90.625 319.5 -88.1458 324.375 -83.1875C329.25 -78.2708 331.688 -71.5625 331.688 -63.0625C331.688 -52.9792 327.958 -45.5208 320.5 -40.6875ZM297 -50.125H300.312C302.854 -50.125 304.938 -51.0417 306.562 -52.875C308.188 -54.7083 309 -57.0417 309 -59.875C309 -62.7917 308.188 -65.1667 306.562 -67C304.938 -68.8333 302.854 -69.75 300.312 -69.75H297V-50.125ZM368.375 -1H345.438V-90.625H368.375V-1ZM432.938 -34.9375H407.125V-21.875H436.562V-1H384.188V-90.625H435.75V-69.75H407.125V-53.75H432.938V-34.9375ZM482.312 -54.875H482.75V-90.625H505.625V-1H490.812L472.5 -36.5625H472.25V-1H449.188V-90.625H464.062L482.312 -54.875ZM556.625 -19.9375C560.375 -19.9375 564.646 -21.7708 569.438 -25.4375L573.812 -4.4375C568.604 -0.854167 561.604 0.9375 552.812 0.9375C542.146 0.9375 533.75 -2.79167 527.625 -10.25C521.458 -17.6667 518.375 -29.5208 518.375 -45.8125C518.375 -62.1458 521.458 -73.9792 527.625 -81.3125C533.75 -88.6875 542.146 -92.375 552.812 -92.375C562.396 -92.375 568.958 -91.2292 572.5 -88.9375L567 -68.5625C564.333 -70.5208 560.875 -71.5 556.625 -71.5C551.875 -71.5 548.146 -69.625 545.438 -65.875C542.729 -62.0833 541.375 -55.3958 541.375 -45.8125C541.375 -36.1458 542.729 -29.4167 545.438 -25.625C548.104 -21.8333 551.833 -19.9375 556.625 -19.9375ZM606 -1H583.062V-90.625H606V-1ZM613.125 -1L632.438 -90.625H661.25L680.688 -1H657.625L655.5 -14.4375H638.312L636.125 -1H613.125ZM646.5 -63.4375L641.375 -32.75H652.375L647.125 -63.4375H646.5Z"/>
<path d="M56.6875 73.0625H30.875V86.125H60.3125V107H7.9375V17.375H59.5V38.25H30.875V54.25H56.6875V73.0625ZM109.938 61.1875H110.188L124 17.375H147.562V107H125.312V69.375H124.75L112.75 107H107.25L95.3125 69.375H94.8125V107H72.5625V17.375H96.125L109.938 61.1875ZM163.062 17.375H197.875C205.208 17.375 211.333 20.5 216.25 26.75C221.167 33.0417 223.625 40.7708 223.625 49.9375C223.625 59.3125 221.208 66.9167 216.375 72.75C211.542 78.5833 205.375 81.5 197.875 81.5H186V107H163.062V17.375ZM186 61.0625H191.062C193.938 61.0625 196.229 59.9375 197.938 57.6875C199.604 55.5208 200.438 52.8958 200.438 49.8125C200.438 46.6042 199.604 43.8958 197.938 41.6875C196.229 39.4792 193.938 38.375 191.062 38.375H186V61.0625ZM233.562 17.375H256.5V86.125H282.562V107H233.562V17.375ZM341.812 73.0625H316V86.125H345.438V107H293.062V17.375H344.625V38.25H316V54.25H341.812V73.0625ZM349.375 107L368.688 17.375H397.5L416.938 107H393.875L391.75 93.5625H374.562L372.375 107H349.375ZM382.75 44.5625L377.625 75.25H388.625L383.375 44.5625H382.75ZM424.062 17.375H452.25C461.625 17.375 469.333 21.5833 475.375 30C481.375 38.4167 484.375 49.1458 484.375 62.1875C484.375 75.2708 481.375 86 475.375 94.375C469.333 102.792 461.625 107 452.25 107H424.062V17.375ZM447 86.125H448.875C452.542 86.125 455.542 83.875 457.875 79.375C460.167 74.9583 461.312 69.2292 461.312 62.1875C461.312 55.1458 460.167 49.3958 457.875 44.9375C455.542 40.4792 452.542 38.25 448.875 38.25H447V86.125ZM502.75 26.625C508.542 19.2083 516.542 15.5 526.75 15.5C536.958 15.5 544.958 19.2083 550.75 26.625C556.583 34.0833 559.5 45.9375 559.5 62.1875C559.5 78.5208 556.583 90.3958 550.75 97.8125C544.958 105.229 536.958 108.938 526.75 108.938C516.542 108.938 508.542 105.229 502.75 97.8125C496.917 90.3958 494 78.5208 494 62.1875C494 45.9375 496.917 34.0833 502.75 26.625ZM519.5 82.5C521.208 86.2083 523.625 88.0625 526.75 88.0625C529.875 88.0625 532.292 86.2083 534 82.5C535.667 78.875 536.5 72.1042 536.5 62.1875C536.5 52.4375 535.667 45.7083 534 42C532.333 38.25 529.917 36.375 526.75 36.375C523.583 36.375 521.167 38.25 519.5 42C517.833 45.7083 517 52.4375 517 62.1875C517 72.1042 517.833 78.875 519.5 82.5Z"/>
</mask>
<path d="M56.6875 -34.9375H30.875V-21.875H60.3125V-1H7.9375V-90.625H59.5V-69.75H30.875V-53.75H56.6875V-34.9375ZM106.875 -90.625H129.125L113.125 -46.4375L130.938 -1H108.625L97.875 -29.9375H97.5L86.75 -1H64.625L82.4375 -47.1875L66.4375 -90.625H88.5625L97.5 -63.5625H97.875L106.875 -90.625ZM138.562 -90.625H173.375C180.708 -90.625 186.833 -87.5 191.75 -81.25C196.667 -74.9583 199.125 -67.2292 199.125 -58.0625C199.125 -48.6875 196.708 -41.0833 191.875 -35.25C187.042 -29.4167 180.875 -26.5 173.375 -26.5H161.5V-1H138.562V-90.625ZM161.5 -46.9375H166.562C169.438 -46.9375 171.729 -48.0625 173.438 -50.3125C175.104 -52.4792 175.938 -55.1042 175.938 -58.1875C175.938 -61.3958 175.104 -64.1042 173.438 -66.3125C171.729 -68.5208 169.438 -69.625 166.562 -69.625H161.5V-46.9375ZM257.812 -34.9375H232V-21.875H261.438V-1H209.062V-90.625H260.625V-69.75H232V-53.75H257.812V-34.9375ZM320.5 -40.6875V-40.0625C324.833 -38.6875 327.625 -34.5833 328.875 -27.75L333.688 -1H309.625L305.438 -25.8125C304.646 -29.9375 302.208 -32.0417 298.125 -32.125H297V-1H274.062V-90.625H305.438C313.188 -90.625 319.5 -88.1458 324.375 -83.1875C329.25 -78.2708 331.688 -71.5625 331.688 -63.0625C331.688 -52.9792 327.958 -45.5208 320.5 -40.6875ZM297 -50.125H300.312C302.854 -50.125 304.938 -51.0417 306.562 -52.875C308.188 -54.7083 309 -57.0417 309 -59.875C309 -62.7917 308.188 -65.1667 306.562 -67C304.938 -68.8333 302.854 -69.75 300.312 -69.75H297V-50.125ZM368.375 -1H345.438V-90.625H368.375V-1ZM432.938 -34.9375H407.125V-21.875H436.562V-1H384.188V-90.625H435.75V-69.75H407.125V-53.75H432.938V-34.9375ZM482.312 -54.875H482.75V-90.625H505.625V-1H490.812L472.5 -36.5625H472.25V-1H449.188V-90.625H464.062L482.312 -54.875ZM556.625 -19.9375C560.375 -19.9375 564.646 -21.7708 569.438 -25.4375L573.812 -4.4375C568.604 -0.854167 561.604 0.9375 552.812 0.9375C542.146 0.9375 533.75 -2.79167 527.625 -10.25C521.458 -17.6667 518.375 -29.5208 518.375 -45.8125C518.375 -62.1458 521.458 -73.9792 527.625 -81.3125C533.75 -88.6875 542.146 -92.375 552.812 -92.375C562.396 -92.375 568.958 -91.2292 572.5 -88.9375L567 -68.5625C564.333 -70.5208 560.875 -71.5 556.625 -71.5C551.875 -71.5 548.146 -69.625 545.438 -65.875C542.729 -62.0833 541.375 -55.3958 541.375 -45.8125C541.375 -36.1458 542.729 -29.4167 545.438 -25.625C548.104 -21.8333 551.833 -19.9375 556.625 -19.9375ZM606 -1H583.062V-90.625H606V-1ZM613.125 -1L632.438 -90.625H661.25L680.688 -1H657.625L655.5 -14.4375H638.312L636.125 -1H613.125ZM646.5 -63.4375L641.375 -32.75H652.375L647.125 -63.4375H646.5Z" fill="black"/>
<path d="M56.6875 -34.9375V-32.9375H58.6875V-34.9375H56.6875ZM30.875 -34.9375V-36.9375H28.875V-34.9375H30.875ZM30.875 -21.875H28.875V-19.875H30.875V-21.875ZM60.3125 -21.875H62.3125V-23.875H60.3125V-21.875ZM60.3125 -1V1H62.3125V-1H60.3125ZM7.9375 -1H5.9375V1H7.9375V-1ZM7.9375 -90.625V-92.625H5.9375V-90.625H7.9375ZM59.5 -90.625H61.5V-92.625H59.5V-90.625ZM59.5 -69.75V-67.75H61.5V-69.75H59.5ZM30.875 -69.75V-71.75H28.875V-69.75H30.875ZM30.875 -53.75H28.875V-51.75H30.875V-53.75ZM56.6875 -53.75H58.6875V-55.75H56.6875V-53.75ZM56.6875 -34.9375V-36.9375H30.875V-34.9375V-32.9375H56.6875V-34.9375ZM30.875 -34.9375H28.875V-21.875H30.875H32.875V-34.9375H30.875ZM30.875 -21.875V-19.875H60.3125V-21.875V-23.875H30.875V-21.875ZM60.3125 -21.875H58.3125V-1H60.3125H62.3125V-21.875H60.3125ZM60.3125 -1V-3H7.9375V-1V1H60.3125V-1ZM7.9375 -1H9.9375V-90.625H7.9375H5.9375V-1H7.9375ZM7.9375 -90.625V-88.625H59.5V-90.625V-92.625H7.9375V-90.625ZM59.5 -90.625H57.5V-69.75H59.5H61.5V-90.625H59.5ZM59.5 -69.75V-71.75H30.875V-69.75V-67.75H59.5V-69.75ZM30.875 -69.75H28.875V-53.75H30.875H32.875V-69.75H30.875ZM30.875 -53.75V-51.75H56.6875V-53.75V-55.75H30.875V-53.75ZM56.6875 -53.75H54.6875V-34.9375H56.6875H58.6875V-53.75H56.6875ZM106.875 -90.625V-92.625H105.432L104.977 -91.2561L106.875 -90.625ZM129.125 -90.625L131.006 -89.9441L131.976 -92.625H129.125V-90.625ZM113.125 -46.4375L111.244 -47.1184L110.988 -46.4095L111.263 -45.7075L113.125 -46.4375ZM130.938 -1V1H133.87L132.8 -1.72996L130.938 -1ZM108.625 -1L106.75 -0.303525L107.234 1H108.625V-1ZM97.875 -29.9375L99.7498 -30.634L99.2656 -31.9375H97.875V-29.9375ZM97.5 -29.9375V-31.9375H96.1094L95.6252 -30.634L97.5 -29.9375ZM86.75 -1V1H88.1406L88.6248 -0.303525L86.75 -1ZM64.625 -1L62.759 -1.71965L61.7101 1H64.625V-1ZM82.4375 -47.1875L84.3035 -46.4679L84.5748 -47.1713L84.3142 -47.8788L82.4375 -47.1875ZM66.4375 -90.625V-92.625H63.5694L64.5608 -89.9337L66.4375 -90.625ZM88.5625 -90.625L90.4616 -91.2522L90.0082 -92.625H88.5625V-90.625ZM97.5 -63.5625L95.6009 -62.9353L96.0543 -61.5625H97.5V-63.5625ZM97.875 -63.5625V-61.5625H99.3176L99.7728 -62.9314L97.875 -63.5625ZM106.875 -90.625V-88.625H129.125V-90.625V-92.625H106.875V-90.625ZM129.125 -90.625L127.244 -91.3059L111.244 -47.1184L113.125 -46.4375L115.006 -45.7566L131.006 -89.9441L129.125 -90.625ZM113.125 -46.4375L111.263 -45.7075L129.075 -0.270043L130.938 -1L132.8 -1.72996L114.987 -47.1675L113.125 -46.4375ZM130.938 -1V-3H108.625V-1V1H130.938V-1ZM108.625 -1L110.5 -1.69647L99.7498 -30.634L97.875 -29.9375L96.0002 -29.241L106.75 -0.303525L108.625 -1ZM97.875 -29.9375V-31.9375H97.5V-29.9375V-27.9375H97.875V-29.9375ZM97.5 -29.9375L95.6252 -30.634L84.8752 -1.69647L86.75 -1L88.6248 -0.303525L99.3748 -29.241L97.5 -29.9375ZM86.75 -1V-3H64.625V-1V1H86.75V-1ZM64.625 -1L66.491 -0.28035L84.3035 -46.4679L82.4375 -47.1875L80.5715 -47.9071L62.759 -1.71965L64.625 -1ZM82.4375 -47.1875L84.3142 -47.8788L68.3142 -91.3163L66.4375 -90.625L64.5608 -89.9337L80.5608 -46.4962L82.4375 -47.1875ZM66.4375 -90.625V-88.625H88.5625V-90.625V-92.625H66.4375V-90.625ZM88.5625 -90.625L86.6634 -89.9978L95.6009 -62.9353L97.5 -63.5625L99.3991 -64.1897L90.4616 -91.2522L88.5625 -90.625ZM97.5 -63.5625V-61.5625H97.875V-63.5625V-65.5625H97.5V-63.5625ZM97.875 -63.5625L99.7728 -62.9314L108.773 -89.9939L106.875 -90.625L104.977 -91.2561L95.9772 -64.1936L97.875 -63.5625ZM138.562 -90.625V-92.625H136.562V-90.625H138.562ZM191.75 -81.25L193.326 -82.4815L193.322 -82.4866L191.75 -81.25ZM191.875 -35.25L193.415 -33.974L191.875 -35.25ZM161.5 -26.5V-28.5H159.5V-26.5H161.5ZM161.5 -1V1H163.5V-1H161.5ZM138.562 -1H136.562V1H138.562V-1ZM161.5 -46.9375H159.5V-44.9375H161.5V-46.9375ZM173.438 -50.3125L171.852 -51.5319L171.845 -51.5219L173.438 -50.3125ZM173.438 -66.3125L175.034 -67.5173L175.027 -67.5268L175.019 -67.5362L173.438 -66.3125ZM161.5 -69.625V-71.625H159.5V-69.625H161.5ZM138.562 -90.625V-88.625H173.375V-90.625V-92.625H138.562V-90.625ZM173.375 -90.625V-88.625C180.038 -88.625 185.604 -85.8281 190.178 -80.0134L191.75 -81.25L193.322 -82.4866C188.063 -89.1719 181.379 -92.625 173.375 -92.625V-90.625ZM191.75 -81.25L190.174 -80.0185C194.776 -74.1294 197.125 -66.8521 197.125 -58.0625H199.125H201.125C201.125 -67.6063 198.557 -75.7872 193.326 -82.4815L191.75 -81.25ZM199.125 -58.0625H197.125C197.125 -49.0393 194.806 -41.9216 190.335 -36.526L191.875 -35.25L193.415 -33.974C198.611 -40.2451 201.125 -48.3357 201.125 -58.0625H199.125ZM191.875 -35.25L190.335 -36.526C185.877 -31.1459 180.273 -28.5 173.375 -28.5V-26.5V-24.5C181.477 -24.5 188.206 -27.6874 193.415 -33.974L191.875 -35.25ZM173.375 -26.5V-28.5H161.5V-26.5V-24.5H173.375V-26.5ZM161.5 -26.5H159.5V-1H161.5H163.5V-26.5H161.5ZM161.5 -1V-3H138.562V-1V1H161.5V-1ZM138.562 -1H140.562V-90.625H138.562H136.562V-1H138.562ZM161.5 -46.9375V-44.9375H166.562V-46.9375V-48.9375H161.5V-46.9375ZM166.562 -46.9375V-44.9375C170.05 -44.9375 172.936 -46.3447 175.03 -49.1031L173.438 -50.3125L171.845 -51.5219C170.522 -49.7803 168.825 -48.9375 166.562 -48.9375V-46.9375ZM173.438 -50.3125L175.023 -49.0931C176.992 -51.6536 177.938 -54.7224 177.938 -58.1875H175.938H173.938C173.938 -55.4859 173.216 -53.3047 171.852 -51.5319L173.438 -50.3125ZM175.938 -58.1875H177.938C177.938 -61.7584 177.003 -64.9084 175.034 -67.5173L173.438 -66.3125L171.841 -65.1077C173.205 -63.2999 173.938 -61.0332 173.938 -58.1875H175.938ZM173.438 -66.3125L175.019 -67.5362C172.919 -70.251 170.035 -71.625 166.562 -71.625V-69.625V-67.625C168.84 -67.625 170.539 -66.7907 171.856 -65.0888L173.438 -66.3125ZM166.562 -69.625V-71.625H161.5V-69.625V-67.625H166.562V-69.625ZM161.5 -69.625H159.5V-46.9375H161.5H163.5V-69.625H161.5ZM257.812 -34.9375V-32.9375H259.812V-34.9375H257.812ZM232 -34.9375V-36.9375H230V-34.9375H232ZM232 -21.875H230V-19.875H232V-21.875ZM261.438 -21.875H263.438V-23.875H261.438V-21.875ZM261.438 -1V1H263.438V-1H261.438ZM209.062 -1H207.062V1H209.062V-1ZM209.062 -90.625V-92.625H207.062V-90.625H209.062ZM260.625 -90.625H262.625V-92.625H260.625V-90.625ZM260.625 -69.75V-67.75H262.625V-69.75H260.625ZM232 -69.75V-71.75H230V-69.75H232ZM232 -53.75H230V-51.75H232V-53.75ZM257.812 -53.75H259.812V-55.75H257.812V-53.75ZM257.812 -34.9375V-36.9375H232V-34.9375V-32.9375H257.812V-34.9375ZM232 -34.9375H230V-21.875H232H234V-34.9375H232ZM232 -21.875V-19.875H261.438V-21.875V-23.875H232V-21.875ZM261.438 -21.875H259.438V-1H261.438H263.438V-21.875H261.438ZM261.438 -1V-3H209.062V-1V1H261.438V-1ZM209.062 -1H211.062V-90.625H209.062H207.062V-1H209.062ZM209.062 -90.625V-88.625H260.625V-90.625V-92.625H209.062V-90.625ZM260.625 -90.625H258.625V-69.75H260.625H262.625V-90.625H260.625ZM260.625 -69.75V-71.75H232V-69.75V-67.75H260.625V-69.75ZM232 -69.75H230V-53.75H232H234V-69.75H232ZM232 -53.75V-51.75H257.812V-53.75V-55.75H232V-53.75ZM257.812 -53.75H255.812V-34.9375H257.812H259.812V-53.75H257.812ZM320.5 -40.6875L319.412 -42.3659L318.5 -41.7747V-40.6875H320.5ZM320.5 -40.0625H318.5V-38.5988L319.895 -38.1562L320.5 -40.0625ZM328.875 -27.75L330.843 -28.1041L330.842 -28.1099L328.875 -27.75ZM333.688 -1V1H336.079L335.656 -1.35413L333.688 -1ZM309.625 -1L307.653 -0.667175L307.934 1H309.625V-1ZM305.438 -25.8125L307.41 -26.1453L307.406 -26.1674L307.402 -26.1895L305.438 -25.8125ZM298.125 -32.125L298.166 -34.1246L298.145 -34.125H298.125V-32.125ZM297 -32.125V-34.125H295V-32.125H297ZM297 -1V1H299V-1H297ZM274.062 -1H272.062V1H274.062V-1ZM274.062 -90.625V-92.625H272.062V-90.625H274.062ZM324.375 -83.1875L322.949 -81.7853L322.955 -81.7793L324.375 -83.1875ZM297 -50.125H295V-48.125H297V-50.125ZM297 -69.75V-71.75H295V-69.75H297ZM320.5 -40.6875H318.5V-40.0625H320.5H322.5V-40.6875H320.5ZM320.5 -40.0625L319.895 -38.1562C323.192 -37.11 325.714 -33.9166 326.908 -27.3901L328.875 -27.75L330.842 -28.1099C329.536 -35.25 326.475 -40.265 321.105 -41.9688L320.5 -40.0625ZM328.875 -27.75L326.907 -27.3959L331.719 -0.645872L333.688 -1L335.656 -1.35413L330.843 -28.1041L328.875 -27.75ZM333.688 -1V-3H309.625V-1V1H333.688V-1ZM309.625 -1L311.597 -1.33283L307.41 -26.1453L305.438 -25.8125L303.465 -25.4797L307.653 -0.667175L309.625 -1ZM305.438 -25.8125L307.402 -26.1895C306.947 -28.5586 305.974 -30.573 304.323 -31.9983C302.665 -33.429 300.545 -34.076 298.166 -34.1246L298.125 -32.125L298.084 -30.1254C299.788 -30.0906 300.929 -29.6439 301.709 -28.9704C302.495 -28.2916 303.136 -27.1914 303.473 -25.4355L305.438 -25.8125ZM298.125 -32.125V-34.125H297V-32.125V-30.125H298.125V-32.125ZM297 -32.125H295V-1H297H299V-32.125H297ZM297 -1V-3H274.062V-1V1H297V-1ZM274.062 -1H276.062V-90.625H274.062H272.062V-1H274.062ZM274.062 -90.625V-88.625H305.438V-90.625V-92.625H274.062V-90.625ZM305.438 -90.625V-88.625C312.719 -88.625 318.495 -86.3157 322.949 -81.7853L324.375 -83.1875L325.801 -84.5897C320.505 -89.976 313.656 -92.625 305.438 -92.625V-90.625ZM324.375 -83.1875L322.955 -81.7793C327.377 -77.3189 329.688 -71.1624 329.688 -63.0625H331.688H333.688C333.688 -71.9626 331.123 -79.2228 325.795 -84.5957L324.375 -83.1875ZM331.688 -63.0625H329.688C329.688 -53.5499 326.217 -46.7758 319.412 -42.3659L320.5 -40.6875L321.588 -39.0091C329.699 -44.2659 333.688 -52.4085 333.688 -63.0625H331.688ZM297 -50.125V-48.125H300.312V-50.125V-52.125H297V-50.125ZM300.312 -50.125V-48.125C303.402 -48.125 306.039 -49.2689 308.059 -51.5484L306.562 -52.875L305.066 -54.2016C303.836 -52.8145 302.306 -52.125 300.312 -52.125V-50.125ZM306.562 -52.875L308.059 -51.5484C310.059 -53.8042 311 -56.6342 311 -59.875H309H307C307 -57.4492 306.316 -55.6125 305.066 -54.2016L306.562 -52.875ZM309 -59.875H311C311 -63.1824 310.068 -66.0601 308.059 -68.3266L306.562 -67L305.066 -65.6734C306.307 -64.2732 307 -62.401 307 -59.875H309ZM306.562 -67L308.059 -68.3266C306.039 -70.6061 303.402 -71.75 300.312 -71.75V-69.75V-67.75C302.306 -67.75 303.836 -67.0605 305.066 -65.6734L306.562 -67ZM300.312 -69.75V-71.75H297V-69.75V-67.75H300.312V-69.75ZM297 -69.75H295V-50.125H297H299V-69.75H297ZM368.375 -1V1H370.375V-1H368.375ZM345.438 -1H343.438V1H345.438V-1ZM345.438 -90.625V-92.625H343.438V-90.625H345.438ZM368.375 -90.625H370.375V-92.625H368.375V-90.625ZM368.375 -1V-3H345.438V-1V1H368.375V-1ZM345.438 -1H347.438V-90.625H345.438H343.438V-1H345.438ZM345.438 -90.625V-88.625H368.375V-90.625V-92.625H345.438V-90.625ZM368.375 -90.625H366.375V-1H368.375H370.375V-90.625H368.375ZM432.938 -34.9375V-32.9375H434.938V-34.9375H432.938ZM407.125 -34.9375V-36.9375H405.125V-34.9375H407.125ZM407.125 -21.875H405.125V-19.875H407.125V-21.875ZM436.562 -21.875H438.562V-23.875H436.562V-21.875ZM436.562 -1V1H438.562V-1H436.562ZM384.188 -1H382.188V1H384.188V-1ZM384.188 -90.625V-92.625H382.188V-90.625H384.188ZM435.75 -90.625H437.75V-92.625H435.75V-90.625ZM435.75 -69.75V-67.75H437.75V-69.75H435.75ZM407.125 -69.75V-71.75H405.125V-69.75H407.125ZM407.125 -53.75H405.125V-51.75H407.125V-53.75ZM432.938 -53.75H434.938V-55.75H432.938V-53.75ZM432.938 -34.9375V-36.9375H407.125V-34.9375V-32.9375H432.938V-34.9375ZM407.125 -34.9375H405.125V-21.875H407.125H409.125V-34.9375H407.125ZM407.125 -21.875V-19.875H436.562V-21.875V-23.875H407.125V-21.875ZM436.562 -21.875H434.562V-1H436.562H438.562V-21.875H436.562ZM436.562 -1V-3H384.188V-1V1H436.562V-1ZM384.188 -1H386.188V-90.625H384.188H382.188V-1H384.188ZM384.188 -90.625V-88.625H435.75V-90.625V-92.625H384.188V-90.625ZM435.75 -90.625H433.75V-69.75H435.75H437.75V-90.625H435.75ZM435.75 -69.75V-71.75H407.125V-69.75V-67.75H435.75V-69.75ZM407.125 -69.75H405.125V-53.75H407.125H409.125V-69.75H407.125ZM407.125 -53.75V-51.75H432.938V-53.75V-55.75H407.125V-53.75ZM432.938 -53.75H430.938V-34.9375H432.938H434.938V-53.75H432.938ZM482.312 -54.875L480.531 -53.9657L481.088 -52.875H482.312V-54.875ZM482.75 -54.875V-52.875H484.75V-54.875H482.75ZM482.75 -90.625V-92.625H480.75V-90.625H482.75ZM505.625 -90.625H507.625V-92.625H505.625V-90.625ZM505.625 -1V1H507.625V-1H505.625ZM490.812 -1L489.034 -0.0843862L489.593 1H490.812V-1ZM472.5 -36.5625L474.278 -37.4781L473.72 -38.5625H472.5V-36.5625ZM472.25 -36.5625V-38.5625H470.25V-36.5625H472.25ZM472.25 -1V1H474.25V-1H472.25ZM449.188 -1H447.188V1H449.188V-1ZM449.188 -90.625V-92.625H447.188V-90.625H449.188ZM464.062 -90.625L465.844 -91.5343L465.287 -92.625H464.062V-90.625ZM482.312 -54.875V-52.875H482.75V-54.875V-56.875H482.312V-54.875ZM482.75 -54.875H484.75V-90.625H482.75H480.75V-54.875H482.75ZM482.75 -90.625V-88.625H505.625V-90.625V-92.625H482.75V-90.625ZM505.625 -90.625H503.625V-1H505.625H507.625V-90.625H505.625ZM505.625 -1V-3H490.812V-1V1H505.625V-1ZM490.812 -1L492.591 -1.91561L474.278 -37.4781L472.5 -36.5625L470.722 -35.6469L489.034 -0.0843862L490.812 -1ZM472.5 -36.5625V-38.5625H472.25V-36.5625V-34.5625H472.5V-36.5625ZM472.25 -36.5625H470.25V-1H472.25H474.25V-36.5625H472.25ZM472.25 -1V-3H449.188V-1V1H472.25V-1ZM449.188 -1H451.188V-90.625H449.188H447.188V-1H449.188ZM449.188 -90.625V-88.625H464.062V-90.625V-92.625H449.188V-90.625ZM464.062 -90.625L462.281 -89.7157L480.531 -53.9657L482.312 -54.875L484.094 -55.7843L465.844 -91.5343L464.062 -90.625ZM569.438 -25.4375L571.395 -25.8454L570.747 -28.9579L568.222 -27.0258L569.438 -25.4375ZM573.812 -4.4375L574.946 -2.7898L576.042 -3.54355L575.77 -4.84541L573.812 -4.4375ZM527.625 -10.25L529.171 -11.5193L529.163 -11.5287L527.625 -10.25ZM527.625 -81.3125L529.156 -80.0253L529.164 -80.0347L527.625 -81.3125ZM572.5 -88.9375L574.431 -88.4163L574.811 -89.8243L573.587 -90.6166L572.5 -88.9375ZM567 -68.5625L565.816 -66.9505L568.17 -65.222L568.931 -68.0413L567 -68.5625ZM545.438 -65.875L543.816 -67.046L543.81 -67.0375L545.438 -65.875ZM545.438 -25.625L547.073 -26.7755L547.069 -26.7815L547.065 -26.7875L545.438 -25.625ZM556.625 -19.9375V-17.9375C561.01 -17.9375 565.709 -20.0661 570.653 -23.8492L569.438 -25.4375L568.222 -27.0258C563.583 -23.4756 559.74 -21.9375 556.625 -21.9375V-19.9375ZM569.438 -25.4375L567.48 -25.0296L571.855 -4.02959L573.812 -4.4375L575.77 -4.84541L571.395 -25.8454L569.438 -25.4375ZM573.812 -4.4375L572.679 -6.0852C567.911 -2.80504 561.353 -1.0625 552.812 -1.0625V0.9375V2.9375C561.856 2.9375 569.297 1.09671 574.946 -2.7898L573.812 -4.4375ZM552.812 0.9375V-1.0625C542.673 -1.0625 534.873 -4.57606 529.171 -11.5193L527.625 -10.25L526.079 -8.98071C532.627 -1.00727 541.619 2.9375 552.812 2.9375V0.9375ZM527.625 -10.25L529.163 -11.5287C523.441 -18.4108 520.375 -29.693 520.375 -45.8125H518.375H516.375C516.375 -29.3486 519.476 -16.9225 526.087 -8.97133L527.625 -10.25ZM518.375 -45.8125H520.375C520.375 -61.9782 523.442 -73.2311 529.156 -80.0253L527.625 -81.3125L526.094 -82.5997C519.474 -74.7272 516.375 -62.3135 516.375 -45.8125H518.375ZM527.625 -81.3125L529.164 -80.0347C534.863 -86.897 542.665 -90.375 552.812 -90.375V-92.375V-94.375C541.627 -94.375 532.637 -90.478 526.086 -82.5903L527.625 -81.3125ZM552.812 -92.375V-90.375C557.534 -90.375 561.448 -90.092 564.578 -89.5454C567.731 -88.9949 569.961 -88.1984 571.413 -87.2584L572.5 -88.9375L573.587 -90.6166C571.498 -91.9683 568.676 -92.8905 565.266 -93.4858C561.834 -94.0851 557.674 -94.375 552.812 -94.375V-92.375ZM572.5 -88.9375L570.569 -89.4587L565.069 -69.0837L567 -68.5625L568.931 -68.0413L574.431 -88.4163L572.5 -88.9375ZM567 -68.5625L568.184 -70.1745C565.087 -72.4484 561.179 -73.5 556.625 -73.5V-71.5V-69.5C560.571 -69.5 563.579 -68.5932 565.816 -66.9505L567 -68.5625ZM556.625 -71.5V-73.5C551.253 -73.5 546.912 -71.3329 543.816 -67.046L545.438 -65.875L547.059 -64.704C549.379 -67.9171 552.497 -69.5 556.625 -69.5V-71.5ZM545.438 -65.875L543.81 -67.0375C540.711 -62.6989 539.375 -55.4512 539.375 -45.8125H541.375H543.375C543.375 -55.3405 544.747 -61.4677 547.065 -64.7125L545.438 -65.875ZM541.375 -45.8125H539.375C539.375 -36.095 540.71 -28.8028 543.81 -24.4625L545.438 -25.625L547.065 -26.7875C544.749 -30.0305 543.375 -36.1967 543.375 -45.8125H541.375ZM545.438 -25.625L543.802 -24.4745C546.858 -20.1293 551.208 -17.9375 556.625 -17.9375V-19.9375V-21.9375C552.458 -21.9375 549.351 -23.5374 547.073 -26.7755L545.438 -25.625ZM606 -1V1H608V-1H606ZM583.062 -1H581.062V1H583.062V-1ZM583.062 -90.625V-92.625H581.062V-90.625H583.062ZM606 -90.625H608V-92.625H606V-90.625ZM606 -1V-3H583.062V-1V1H606V-1ZM583.062 -1H585.062V-90.625H583.062H581.062V-1H583.062ZM583.062 -90.625V-88.625H606V-90.625V-92.625H583.062V-90.625ZM606 -90.625H604V-1H606H608V-90.625H606ZM613.125 -1L611.17 -1.42129L610.648 1H613.125V-1ZM632.438 -90.625V-92.625H630.823L630.482 -91.0463L632.438 -90.625ZM661.25 -90.625L663.205 -91.0489L662.863 -92.625H661.25V-90.625ZM680.688 -1V1H683.168L682.642 -1.4239L680.688 -1ZM657.625 -1L655.65 -0.687603L655.916 1H657.625V-1ZM655.5 -14.4375L657.475 -14.7499L657.209 -16.4375H655.5V-14.4375ZM638.312 -14.4375V-16.4375H636.612L636.338 -14.7589L638.312 -14.4375ZM636.125 -1V1H637.826L638.099 -0.678649L636.125 -1ZM646.5 -63.4375V-65.4375H644.806L644.527 -63.7669L646.5 -63.4375ZM641.375 -32.75L639.402 -33.0794L639.013 -30.75H641.375V-32.75ZM652.375 -32.75V-30.75H654.746L654.346 -33.0873L652.375 -32.75ZM647.125 -63.4375L649.096 -63.7748L648.812 -65.4375H647.125V-63.4375ZM613.125 -1L615.08 -0.578707L634.393 -90.2037L632.438 -90.625L630.482 -91.0463L611.17 -1.42129L613.125 -1ZM632.438 -90.625V-88.625H661.25V-90.625V-92.625H632.438V-90.625ZM661.25 -90.625L659.295 -90.2011L678.733 -0.576103L680.688 -1L682.642 -1.4239L663.205 -91.0489L661.25 -90.625ZM680.688 -1V-3H657.625V-1V1H680.688V-1ZM657.625 -1L659.6 -1.3124L657.475 -14.7499L655.5 -14.4375L653.525 -14.1251L655.65 -0.687603L657.625 -1ZM655.5 -14.4375V-16.4375H638.312V-14.4375V-12.4375H655.5V-14.4375ZM638.312 -14.4375L636.338 -14.7589L634.151 -1.32135L636.125 -1L638.099 -0.678649L640.287 -14.1161L638.312 -14.4375ZM636.125 -1V-3H613.125V-1V1H636.125V-1ZM646.5 -63.4375L644.527 -63.7669L639.402 -33.0794L641.375 -32.75L643.348 -32.4206L648.473 -63.1081L646.5 -63.4375ZM641.375 -32.75V-30.75H652.375V-32.75V-34.75H641.375V-32.75ZM652.375 -32.75L654.346 -33.0873L649.096 -63.7748L647.125 -63.4375L645.154 -63.1002L650.404 -32.4127L652.375 -32.75ZM647.125 -63.4375V-65.4375H646.5V-63.4375V-61.4375H647.125V-63.4375ZM56.6875 73.0625V75.0625H58.6875V73.0625H56.6875ZM30.875 73.0625V71.0625H28.875V73.0625H30.875ZM30.875 86.125H28.875V88.125H30.875V86.125ZM60.3125 86.125H62.3125V84.125H60.3125V86.125ZM60.3125 107V109H62.3125V107H60.3125ZM7.9375 107H5.9375V109H7.9375V107ZM7.9375 17.375V15.375H5.9375V17.375H7.9375ZM59.5 17.375H61.5V15.375H59.5V17.375ZM59.5 38.25V40.25H61.5V38.25H59.5ZM30.875 38.25V36.25H28.875V38.25H30.875ZM30.875 54.25H28.875V56.25H30.875V54.25ZM56.6875 54.25H58.6875V52.25H56.6875V54.25ZM56.6875 73.0625V71.0625H30.875V73.0625V75.0625H56.6875V73.0625ZM30.875 73.0625H28.875V86.125H30.875H32.875V73.0625H30.875ZM30.875 86.125V88.125H60.3125V86.125V84.125H30.875V86.125ZM60.3125 86.125H58.3125V107H60.3125H62.3125V86.125H60.3125ZM60.3125 107V105H7.9375V107V109H60.3125V107ZM7.9375 107H9.9375V17.375H7.9375H5.9375V107H7.9375ZM7.9375 17.375V19.375H59.5V17.375V15.375H7.9375V17.375ZM59.5 17.375H57.5V38.25H59.5H61.5V17.375H59.5ZM59.5 38.25V36.25H30.875V38.25V40.25H59.5V38.25ZM30.875 38.25H28.875V54.25H30.875H32.875V38.25H30.875ZM30.875 54.25V56.25H56.6875V54.25V52.25H30.875V54.25ZM56.6875 54.25H54.6875V73.0625H56.6875H58.6875V54.25H56.6875ZM109.938 61.1875L108.03 61.7889L108.471 63.1875H109.938V61.1875ZM110.188 61.1875V63.1875H111.654L112.095 61.7889L110.188 61.1875ZM124 17.375V15.375H122.533L122.093 16.7736L124 17.375ZM147.562 17.375H149.562V15.375H147.562V17.375ZM147.562 107V109H149.562V107H147.562ZM125.312 107H123.312V109H125.312V107ZM125.312 69.375H127.312V67.375H125.312V69.375ZM124.75 69.375V67.375H123.289L122.845 68.7673L124.75 69.375ZM112.75 107V109H114.211L114.655 107.608L112.75 107ZM107.25 107L105.344 107.605L105.786 109H107.25V107ZM95.3125 69.375L97.2188 68.7702L96.7762 67.375H95.3125V69.375ZM94.8125 69.375V67.375H92.8125V69.375H94.8125ZM94.8125 107V109H96.8125V107H94.8125ZM72.5625 107H70.5625V109H72.5625V107ZM72.5625 17.375V15.375H70.5625V17.375H72.5625ZM96.125 17.375L98.0325 16.7736L97.5915 15.375H96.125V17.375ZM109.938 61.1875V63.1875H110.188V61.1875V59.1875H109.938V61.1875ZM110.188 61.1875L112.095 61.7889L125.907 17.9764L124 17.375L122.093 16.7736L108.28 60.5861L110.188 61.1875ZM124 17.375V19.375H147.562V17.375V15.375H124V17.375ZM147.562 17.375H145.562V107H147.562H149.562V17.375H147.562ZM147.562 107V105H125.312V107V109H147.562V107ZM125.312 107H127.312V69.375H125.312H123.312V107H125.312ZM125.312 69.375V67.375H124.75V69.375V71.375H125.312V69.375ZM124.75 69.375L122.845 68.7673L110.845 106.392L112.75 107L114.655 107.608L126.655 69.9827L124.75 69.375ZM112.75 107V105H107.25V107V109H112.75V107ZM107.25 107L109.156 106.395L97.2188 68.7702L95.3125 69.375L93.4062 69.9798L105.344 107.605L107.25 107ZM95.3125 69.375V67.375H94.8125V69.375V71.375H95.3125V69.375ZM94.8125 69.375H92.8125V107H94.8125H96.8125V69.375H94.8125ZM94.8125 107V105H72.5625V107V109H94.8125V107ZM72.5625 107H74.5625V17.375H72.5625H70.5625V107H72.5625ZM72.5625 17.375V19.375H96.125V17.375V15.375H72.5625V17.375ZM96.125 17.375L94.2175 17.9764L108.03 61.7889L109.938 61.1875L111.845 60.5861L98.0325 16.7736L96.125 17.375ZM163.062 17.375V15.375H161.062V17.375H163.062ZM216.25 26.75L217.826 25.5185L217.822 25.5134L216.25 26.75ZM216.375 72.75L217.915 74.026L216.375 72.75ZM186 81.5V79.5H184V81.5H186ZM186 107V109H188V107H186ZM163.062 107H161.062V109H163.062V107ZM186 61.0625H184V63.0625H186V61.0625ZM197.938 57.6875L196.352 56.4681L196.345 56.4781L197.938 57.6875ZM197.938 41.6875L199.534 40.4827L199.527 40.4732L199.519 40.4638L197.938 41.6875ZM186 38.375V36.375H184V38.375H186ZM163.062 17.375V19.375H197.875V17.375V15.375H163.062V17.375ZM197.875 17.375V19.375C204.538 19.375 210.104 22.1719 214.678 27.9866L216.25 26.75L217.822 25.5134C212.563 18.8281 205.879 15.375 197.875 15.375V17.375ZM216.25 26.75L214.674 27.9815C219.276 33.8706 221.625 41.1479 221.625 49.9375H223.625H225.625C225.625 40.3937 223.057 32.2128 217.826 25.5185L216.25 26.75ZM223.625 49.9375H221.625C221.625 58.9607 219.306 66.0784 214.835 71.474L216.375 72.75L217.915 74.026C223.111 67.7549 225.625 59.6643 225.625 49.9375H223.625ZM216.375 72.75L214.835 71.474C210.377 76.8541 204.773 79.5 197.875 79.5V81.5V83.5C205.977 83.5 212.706 80.3126 217.915 74.026L216.375 72.75ZM197.875 81.5V79.5H186V81.5V83.5H197.875V81.5ZM186 81.5H184V107H186H188V81.5H186ZM186 107V105H163.062V107V109H186V107ZM163.062 107H165.062V17.375H163.062H161.062V107H163.062ZM186 61.0625V63.0625H191.062V61.0625V59.0625H186V61.0625ZM191.062 61.0625V63.0625C194.55 63.0625 197.436 61.6553 199.53 58.8969L197.938 57.6875L196.345 56.4781C195.022 58.2197 193.325 59.0625 191.062 59.0625V61.0625ZM197.938 57.6875L199.523 58.9069C201.492 56.3464 202.438 53.2776 202.438 49.8125H200.438H198.438C198.438 52.5141 197.716 54.6953 196.352 56.4681L197.938 57.6875ZM200.438 49.8125H202.438C202.438 46.2416 201.503 43.0916 199.534 40.4827L197.938 41.6875L196.341 42.8923C197.705 44.7001 198.438 46.9668 198.438 49.8125H200.438ZM197.938 41.6875L199.519 40.4638C197.419 37.749 194.535 36.375 191.062 36.375V38.375V40.375C193.34 40.375 195.039 41.2093 196.356 42.9112L197.938 41.6875ZM191.062 38.375V36.375H186V38.375V40.375H191.062V38.375ZM186 38.375H184V61.0625H186H188V38.375H186ZM233.562 17.375V15.375H231.562V17.375H233.562ZM256.5 17.375H258.5V15.375H256.5V17.375ZM256.5 86.125H254.5V88.125H256.5V86.125ZM282.562 86.125H284.562V84.125H282.562V86.125ZM282.562 107V109H284.562V107H282.562ZM233.562 107H231.562V109H233.562V107ZM233.562 17.375V19.375H256.5V17.375V15.375H233.562V17.375ZM256.5 17.375H254.5V86.125H256.5H258.5V17.375H256.5ZM256.5 86.125V88.125H282.562V86.125V84.125H256.5V86.125ZM282.562 86.125H280.562V107H282.562H284.562V86.125H282.562ZM282.562 107V105H233.562V107V109H282.562V107ZM233.562 107H235.562V17.375H233.562H231.562V107H233.562ZM341.812 73.0625V75.0625H343.812V73.0625H341.812ZM316 73.0625V71.0625H314V73.0625H316ZM316 86.125H314V88.125H316V86.125ZM345.438 86.125H347.438V84.125H345.438V86.125ZM345.438 107V109H347.438V107H345.438ZM293.062 107H291.062V109H293.062V107ZM293.062 17.375V15.375H291.062V17.375H293.062ZM344.625 17.375H346.625V15.375H344.625V17.375ZM344.625 38.25V40.25H346.625V38.25H344.625ZM316 38.25V36.25H314V38.25H316ZM316 54.25H314V56.25H316V54.25ZM341.812 54.25H343.812V52.25H341.812V54.25ZM341.812 73.0625V71.0625H316V73.0625V75.0625H341.812V73.0625ZM316 73.0625H314V86.125H316H318V73.0625H316ZM316 86.125V88.125H345.438V86.125V84.125H316V86.125ZM345.438 86.125H343.438V107H345.438H347.438V86.125H345.438ZM345.438 107V105H293.062V107V109H345.438V107ZM293.062 107H295.062V17.375H293.062H291.062V107H293.062ZM293.062 17.375V19.375H344.625V17.375V15.375H293.062V17.375ZM344.625 17.375H342.625V38.25H344.625H346.625V17.375H344.625ZM344.625 38.25V36.25H316V38.25V40.25H344.625V38.25ZM316 38.25H314V54.25H316H318V38.25H316ZM316 54.25V56.25H341.812V54.25V52.25H316V54.25ZM341.812 54.25H339.812V73.0625H341.812H343.812V54.25H341.812ZM349.375 107L347.42 106.579L346.898 109H349.375V107ZM368.688 17.375V15.375H367.073L366.732 16.9537L368.688 17.375ZM397.5 17.375L399.455 16.9511L399.113 15.375H397.5V17.375ZM416.938 107V109H419.418L418.892 106.576L416.938 107ZM393.875 107L391.9 107.312L392.166 109H393.875V107ZM391.75 93.5625L393.725 93.2501L393.459 91.5625H391.75V93.5625ZM374.562 93.5625V91.5625H372.862L372.588 93.2411L374.562 93.5625ZM372.375 107V109H374.076L374.349 107.321L372.375 107ZM382.75 44.5625V42.5625H381.056L380.777 44.2331L382.75 44.5625ZM377.625 75.25L375.652 74.9206L375.263 77.25H377.625V75.25ZM388.625 75.25V77.25H390.996L390.596 74.9127L388.625 75.25ZM383.375 44.5625L385.346 44.2252L385.062 42.5625H383.375V44.5625ZM349.375 107L351.33 107.421L370.643 17.7963L368.688 17.375L366.732 16.9537L347.42 106.579L349.375 107ZM368.688 17.375V19.375H397.5V17.375V15.375H368.688V17.375ZM397.5 17.375L395.545 17.7989L414.983 107.424L416.938 107L418.892 106.576L399.455 16.9511L397.5 17.375ZM416.938 107V105H393.875V107V109H416.938V107ZM393.875 107L395.85 106.688L393.725 93.2501L391.75 93.5625L389.775 93.8749L391.9 107.312L393.875 107ZM391.75 93.5625V91.5625H374.562V93.5625V95.5625H391.75V93.5625ZM374.562 93.5625L372.588 93.2411L370.401 106.679L372.375 107L374.349 107.321L376.537 93.8839L374.562 93.5625ZM372.375 107V105H349.375V107V109H372.375V107ZM382.75 44.5625L380.777 44.2331L375.652 74.9206L377.625 75.25L379.598 75.5794L384.723 44.8919L382.75 44.5625ZM377.625 75.25V77.25H388.625V75.25V73.25H377.625V75.25ZM388.625 75.25L390.596 74.9127L385.346 44.2252L383.375 44.5625L381.404 44.8998L386.654 75.5873L388.625 75.25ZM383.375 44.5625V42.5625H382.75V44.5625V46.5625H383.375V44.5625ZM424.062 17.375V15.375H422.062V17.375H424.062ZM475.375 30L477.004 28.839L477 28.8337L475.375 30ZM475.375 94.375L477 95.5413L477.001 95.5398L475.375 94.375ZM424.062 107H422.062V109H424.062V107ZM447 86.125H445V88.125H447V86.125ZM457.875 79.375L456.1 78.4539L456.099 78.4544L457.875 79.375ZM457.875 44.9375L459.654 44.0232L459.65 44.0166L459.647 44.0101L457.875 44.9375ZM447 38.25V36.25H445V38.25H447ZM424.062 17.375V19.375H452.25V17.375V15.375H424.062V17.375ZM452.25 17.375V19.375C460.906 19.375 468.038 23.209 473.75 31.1663L475.375 30L477 28.8337C470.628 19.9576 462.344 15.375 452.25 15.375V17.375ZM475.375 30L473.746 31.161C479.448 39.1592 482.375 49.4525 482.375 62.1875H484.375H486.375C486.375 48.8392 483.302 37.6741 477.004 28.839L475.375 30ZM484.375 62.1875H482.375C482.375 74.9663 479.447 85.2566 473.749 93.2102L475.375 94.375L477.001 95.5398C483.303 86.7434 486.375 75.5754 486.375 62.1875H484.375ZM475.375 94.375L473.75 93.2087C468.038 101.166 460.906 105 452.25 105V107V109C462.344 109 470.628 104.417 477 95.5413L475.375 94.375ZM452.25 107V105H424.062V107V109H452.25V107ZM424.062 107H426.062V17.375H424.062H422.062V107H424.062ZM447 86.125V88.125H448.875V86.125V84.125H447V86.125ZM448.875 86.125V88.125C453.567 88.125 457.124 85.1681 459.651 80.2956L457.875 79.375L456.099 78.4544C453.959 82.5819 451.516 84.125 448.875 84.125V86.125ZM457.875 79.375L459.65 80.2961C462.138 75.5015 463.312 69.4249 463.312 62.1875H461.312H459.312C459.312 69.0335 458.195 74.4151 456.1 78.4539L457.875 79.375ZM461.312 62.1875H463.312C463.312 54.9488 462.138 48.8553 459.654 44.0232L457.875 44.9375L456.096 45.8518C458.196 49.9364 459.312 55.3428 459.312 62.1875H461.312ZM457.875 44.9375L459.647 44.0101C457.116 39.1741 453.558 36.25 448.875 36.25V38.25V40.25C451.526 40.25 453.967 41.7843 456.103 45.8649L457.875 44.9375ZM448.875 38.25V36.25H447V38.25V40.25H448.875V38.25ZM447 38.25H445V86.125H447H449V38.25H447ZM502.75 26.625L504.325 27.8571L504.326 27.8559L502.75 26.625ZM550.75 26.625L549.174 27.8559L549.175 27.8571L550.75 26.625ZM550.75 97.8125L549.178 96.5761L549.174 96.5816L550.75 97.8125ZM502.75 97.8125L504.326 96.5815L504.322 96.5761L502.75 97.8125ZM519.5 82.5L517.683 83.3355L517.683 83.3368L519.5 82.5ZM534 82.5L535.817 83.3368L535.817 83.3355L534 82.5ZM534 42L532.172 42.8123L532.176 42.8199L534 42ZM519.5 42L521.324 42.8199L521.328 42.8123L519.5 42ZM502.75 26.625L504.326 27.8559C509.703 20.9701 517.097 17.5 526.75 17.5V15.5V13.5C515.986 13.5 507.38 17.4466 501.174 25.3941L502.75 26.625ZM526.75 15.5V17.5C536.403 17.5 543.797 20.9701 549.174 27.8559L550.75 26.625L552.326 25.3941C546.12 17.4466 537.514 13.5 526.75 13.5V15.5ZM550.75 26.625L549.175 27.8571C554.596 34.7891 557.5 46.0953 557.5 62.1875H559.5H561.5C561.5 45.7797 558.57 33.3776 552.325 25.3929L550.75 26.625ZM559.5 62.1875H557.5C557.5 78.3675 554.595 89.6892 549.178 96.5761L550.75 97.8125L552.322 99.0489C558.572 91.1025 561.5 78.6742 561.5 62.1875H559.5ZM550.75 97.8125L549.174 96.5816C543.797 103.467 536.403 106.938 526.75 106.938V108.938V110.938C537.514 110.938 546.12 106.991 552.326 99.0434L550.75 97.8125ZM526.75 108.938V106.938C517.097 106.938 509.703 103.467 504.326 96.5816L502.75 97.8125L501.174 99.0434C507.38 106.991 515.986 110.938 526.75 110.938V108.938ZM502.75 97.8125L504.322 96.5761C498.905 89.6892 496 78.3675 496 62.1875H494H492C492 78.6742 494.928 91.1025 501.178 99.0489L502.75 97.8125ZM494 62.1875H496C496 46.0953 498.904 34.7891 504.325 27.8571L502.75 26.625L501.175 25.3929C494.93 33.3776 492 45.7797 492 62.1875H494ZM519.5 82.5L517.683 83.3368C519.599 87.4941 522.594 90.0625 526.75 90.0625V88.0625V86.0625C524.656 86.0625 522.818 84.9225 521.317 81.6632L519.5 82.5ZM526.75 88.0625V90.0625C530.906 90.0625 533.901 87.4941 535.817 83.3368L534 82.5L532.183 81.6632C530.682 84.9225 528.844 86.0625 526.75 86.0625V88.0625ZM534 82.5L535.817 83.3355C536.776 81.249 537.433 78.4141 537.86 74.9474C538.29 71.4537 538.5 67.1944 538.5 62.1875H536.5H534.5C534.5 67.0972 534.293 71.1817 533.89 74.4588C533.483 77.763 532.89 80.126 532.183 81.6645L534 82.5ZM536.5 62.1875H538.5C538.5 52.4437 537.685 45.32 535.824 41.1801L534 42L532.176 42.8199C533.649 46.0967 534.5 52.4313 534.5 62.1875H536.5ZM534 42L535.828 41.1877C534.904 39.1099 533.707 37.3983 532.163 36.2011C530.591 34.9813 528.76 34.375 526.75 34.375V36.375V38.375C527.906 38.375 528.867 38.7062 529.712 39.3614C530.585 40.0392 531.429 41.1401 532.172 42.8123L534 42ZM526.75 36.375V34.375C524.74 34.375 522.909 34.9813 521.337 36.2011C519.793 37.3983 518.596 39.1099 517.672 41.1877L519.5 42L521.328 42.8123C522.071 41.1401 522.915 40.0392 523.788 39.3614C524.633 38.7062 525.594 38.375 526.75 38.375V36.375ZM519.5 42L517.676 41.1801C515.815 45.32 515 52.4437 515 62.1875H517H519C519 52.4313 519.851 46.0967 521.324 42.8199L519.5 42ZM517 62.1875H515C515 67.1944 515.21 71.4537 515.64 74.9474C516.067 78.4141 516.724 81.249 517.683 83.3355L519.5 82.5L521.317 81.6645C520.61 80.126 520.017 77.763 519.61 74.4588C519.207 71.1817 519 67.0972 519 62.1875H517Z" fill="black" mask="url(#path-1-outside-1_86_60)"/>
</mask>
<g mask="url(#mask0_86_60)">
<rect y="8" width="601" height="145" fill="black"/>
</g>
</g>
<defs>
<clipPath id="clip0_86_60">
<rect width="568" height="126" fill="white"/>
</clipPath>
</defs>
</svg>
