<svg width="634" height="58" viewBox="0 0 634 58" fill="none" xmlns="http://www.w3.org/2000/svg">
<path d="M56.4922 26.2734V31.1719H67.5312V39H47.8906V5.39062H67.2266V13.2188H56.4922V19.2188H66.1719V26.2734H56.4922ZM86.2344 21.8203L91.4141 5.39062H100.25V39H91.9062V24.8906H91.6953L87.1953 39H85.1328L80.6562 24.8906H80.4688V39H72.125V5.39062H80.9609L86.1406 21.8203H86.2344ZM119.117 5.39062C121.867 5.39062 124.164 6.57031 126.008 8.92969C127.852 11.2734 128.773 14.1641 128.773 17.6016C128.773 21.1172 127.867 23.9688 126.055 26.1562C124.242 28.3438 121.93 29.4375 119.117 29.4375H114.664V39H106.062V5.39062H119.117ZM116.562 21.7734C117.656 21.7734 118.516 21.3594 119.141 20.5312C119.766 19.6875 120.078 18.6953 120.078 17.5547C120.078 16.3672 119.766 15.3594 119.141 14.5312C118.516 13.6875 117.656 13.2656 116.562 13.2656H114.664V21.7734H116.562ZM149.914 24.3516C151.539 24.8672 152.586 26.4062 153.055 28.9688L154.859 39H145.836L144.266 29.6953C143.953 28.1328 143.039 27.3438 141.523 27.3281H141.102V39H132.5V5.39062H144.266C147.172 5.39062 149.539 6.32031 151.367 8.17969C153.195 10.0391 154.109 12.5547 154.109 15.7266C154.109 19.5078 152.711 22.3047 149.914 24.1172V24.3516ZM142.344 20.5781C143.297 20.5781 144.078 20.2344 144.688 19.5469C145.297 18.8594 145.602 17.9844 145.602 16.9219C145.602 15.8281 145.297 14.9375 144.688 14.25C144.078 13.5625 143.297 13.2188 142.344 13.2188H141.102V20.5781H142.344ZM167.867 26.2734V31.1719H178.906V39H159.266V5.39062H178.602V13.2188H167.867V19.2188H177.547V26.2734H167.867ZM195.781 19.1719C198.688 20.9375 200.656 22.6172 201.688 24.2109C202.719 25.7891 203.234 27.6484 203.234 29.7891C203.234 32.8047 202.227 35.2188 200.211 37.0312C198.195 38.8281 195.438 39.7266 191.938 39.7266C187.844 39.7266 184.484 38.7656 181.859 36.8438L183.547 29.4844C186.141 31.3438 188.602 32.2734 190.93 32.2734C193.398 32.2734 194.633 31.4453 194.633 29.7891C194.633 29.1172 194.336 28.4453 193.742 27.7734C193.148 27.1016 191.977 26.25 190.227 25.2188C187.477 23.6562 185.5 22.0156 184.297 20.2969C183.094 18.5625 182.492 16.5391 182.492 14.2266C182.492 11.3516 183.508 9.04688 185.539 7.3125C187.57 5.5625 190.266 4.6875 193.625 4.6875C196.984 4.6875 199.883 5.29688 202.32 6.51562L201.359 13.9922C200.656 13.5391 199.664 13.1016 198.383 12.6797C197.102 12.2422 195.93 12.0234 194.867 12.0234C192.43 12.0234 191.219 12.8359 191.234 14.4609C191.234 15.2266 191.609 15.9766 192.359 16.7109C193.109 17.4297 194.25 18.25 195.781 19.1719ZM211.766 5.39062H222.57L229.859 39H221.211L220.414 33.9609H213.969L213.148 39H204.523L211.766 5.39062ZM215.117 27.0938H219.242L217.273 15.5859H217.039L215.117 27.0938ZM244.672 19.1719C247.578 20.9375 249.547 22.6172 250.578 24.2109C251.609 25.7891 252.125 27.6484 252.125 29.7891C252.125 32.8047 251.117 35.2188 249.102 37.0312C247.086 38.8281 244.328 39.7266 240.828 39.7266C236.734 39.7266 233.375 38.7656 230.75 36.8438L232.438 29.4844C235.031 31.3438 237.492 32.2734 239.82 32.2734C242.289 32.2734 243.523 31.4453 243.523 29.7891C243.523 29.1172 243.227 28.4453 242.633 27.7734C242.039 27.1016 240.867 26.25 239.117 25.2188C236.367 23.6562 234.391 22.0156 233.188 20.2969C231.984 18.5625 231.383 16.5391 231.383 14.2266C231.383 11.3516 232.398 9.04688 234.43 7.3125C236.461 5.5625 239.156 4.6875 242.516 4.6875C245.875 4.6875 248.773 5.29688 251.211 6.51562L250.25 13.9922C249.547 13.5391 248.555 13.1016 247.273 12.6797C245.992 12.2422 244.82 12.0234 243.758 12.0234C241.32 12.0234 240.109 12.8359 240.125 14.4609C240.125 15.2266 240.5 15.9766 241.25 16.7109C242 17.4297 243.141 18.25 244.672 19.1719ZM292.461 22.1953C292.461 31.5078 289.805 37.125 284.492 39.0469V39.2812C286.414 40.7812 288.547 41.6797 290.891 41.9766L288.781 49.2656C287.219 49.0469 285.484 48.3828 283.578 47.2734C281.672 46.1797 280.094 44.875 278.844 43.3594C277.625 41.9531 276.695 40.5312 276.055 39.0938C270.617 37.2656 267.898 31.6328 267.898 22.1953C267.898 16.0859 268.992 11.6406 271.18 8.85938C273.367 6.07812 276.367 4.6875 280.18 4.6875C283.992 4.6875 286.992 6.07812 289.18 8.85938C291.367 11.6406 292.461 16.0859 292.461 22.1953ZM277.461 29.8125C278.086 31.2031 278.992 31.8984 280.18 31.8984C281.367 31.8984 282.273 31.2031 282.898 29.8125C283.523 28.4219 283.836 25.8828 283.836 22.1953C283.836 18.5547 283.523 16.0312 282.898 14.625C282.273 13.2188 281.367 12.5156 280.18 12.5156C278.992 12.5156 278.086 13.2188 277.461 14.625C276.836 16.0312 276.523 18.5547 276.523 22.1953C276.523 25.8828 276.836 28.4219 277.461 29.8125ZM309.594 29.4844V5.39062H318.195V29.0625C318.195 32.2969 317.211 34.8828 315.242 36.8203C313.273 38.7578 310.75 39.7266 307.672 39.7266C304.609 39.7266 302.102 38.7578 300.148 36.8203C298.195 34.8828 297.219 32.2969 297.219 29.0625V5.39062H305.82V29.4844C305.82 30.1875 305.992 30.7656 306.336 31.2188C306.695 31.6719 307.141 31.8984 307.672 31.8984C308.219 31.8984 308.672 31.6719 309.031 31.2188C309.406 30.7656 309.594 30.1875 309.594 29.4844ZM332.727 26.2734V31.1719H343.766V39H324.125V5.39062H343.461V13.2188H332.727V19.2188H342.406V26.2734H332.727ZM373.508 18.7969V5.39062H382.086V39H376.531L369.664 25.6641H369.57V39H360.922V5.39062H366.5L373.344 18.7969H373.508ZM390.148 8.85938C392.336 6.07812 395.336 4.6875 399.148 4.6875C402.961 4.6875 405.961 6.07812 408.148 8.85938C410.336 11.6406 411.43 16.0859 411.43 22.1953C411.43 28.3359 410.336 32.7969 408.148 35.5781C405.961 38.3438 402.961 39.7266 399.148 39.7266C395.336 39.7266 392.336 38.3438 390.148 35.5781C387.961 32.7969 386.867 28.3359 386.867 22.1953C386.867 16.0859 387.961 11.6406 390.148 8.85938ZM396.43 29.8125C397.055 31.2031 397.961 31.8984 399.148 31.8984C400.336 31.8984 401.242 31.2031 401.867 29.8125C402.492 28.4219 402.805 25.8828 402.805 22.1953C402.805 18.5547 402.492 16.0312 401.867 14.625C401.242 13.2188 400.336 12.5156 399.148 12.5156C397.961 12.5156 397.055 13.2188 396.43 14.625C395.805 16.0312 395.492 18.5547 395.492 22.1953C395.492 25.8828 395.805 28.4219 396.43 29.8125ZM428.328 19.1719C431.234 20.9375 433.203 22.6172 434.234 24.2109C435.266 25.7891 435.781 27.6484 435.781 29.7891C435.781 32.8047 434.773 35.2188 432.758 37.0312C430.742 38.8281 427.984 39.7266 424.484 39.7266C420.391 39.7266 417.031 38.7656 414.406 36.8438L416.094 29.4844C418.688 31.3438 421.148 32.2734 423.477 32.2734C425.945 32.2734 427.18 31.4453 427.18 29.7891C427.18 29.1172 426.883 28.4453 426.289 27.7734C425.695 27.1016 424.523 26.25 422.773 25.2188C420.023 23.6562 418.047 22.0156 416.844 20.2969C415.641 18.5625 415.039 16.5391 415.039 14.2266C415.039 11.3516 416.055 9.04688 418.086 7.3125C420.117 5.5625 422.812 4.6875 426.172 4.6875C429.531 4.6875 432.43 5.29688 434.867 6.51562L433.906 13.9922C433.203 13.5391 432.211 13.1016 430.93 12.6797C429.648 12.2422 428.477 12.0234 427.414 12.0234C424.977 12.0234 423.766 12.8359 423.781 14.4609C423.781 15.2266 424.156 15.9766 424.906 16.7109C425.656 17.4297 426.797 18.25 428.328 19.1719ZM461.352 26.2734V31.1719H472.391V39H452.75V5.39062H472.086V13.2188H461.352V19.2188H471.031V26.2734H461.352ZM485.727 5.39062V31.1719H495.5V39H477.125V5.39062H485.727ZM499.438 39V5.39062H508.039V39H499.438ZM525.102 26.3672V19.4531H535.625V36.1641C533.062 38.5391 529.75 39.7266 525.688 39.7266C521.688 39.7266 518.531 38.3359 516.219 35.5547C513.922 32.7578 512.773 28.3047 512.773 22.1953C512.773 16.1172 513.992 11.6797 516.43 8.88281C518.883 6.08594 522.125 4.6875 526.156 4.6875C527.656 4.6875 529.141 4.84375 530.609 5.15625C532.094 5.45313 533.141 5.80469 533.75 6.21094L531.688 13.6172C531.266 13.3047 530.633 13.0469 529.789 12.8438C528.945 12.625 528.219 12.5156 527.609 12.5156C523.484 12.5156 521.414 15.7422 521.398 22.1953C521.398 25.8828 521.859 28.4219 522.781 29.8125C523.719 31.2031 525.07 31.8984 526.836 31.8984C526.898 31.8984 526.992 31.8906 527.117 31.875C527.242 31.8594 527.336 31.8516 527.398 31.8516V26.3672H525.102ZM549.148 26.2734V31.1719H560.188V39H540.547V5.39062H559.883V13.2188H549.148V19.2188H558.828V26.2734H549.148ZM577.508 18.7969V5.39062H586.086V39H580.531L573.664 25.6641H573.57V39H564.922V5.39062H570.5L577.344 18.7969H577.508Z" fill="white"/>
<path d="M358.02 51.2281C373.541 51.7181 389.061 52.1636 404.582 52.5823C420.171 53.0011 435.768 53.3842 451.356 53.7316C466.877 54.0791 482.406 54.382 497.927 54.6582C513.448 54.9344 528.977 55.175 544.498 55.371C560.019 55.567 575.548 55.7452 591.078 55.8789C593.045 55.8967 595.013 55.9145 596.98 55.9234C598.34 55.9323 598.34 53.7406 596.98 53.696C569.038 52.8318 541.078 52.5912 513.127 52.7605C485.168 52.9298 457.216 53.5178 429.265 54.3019C413.533 54.7384 397.81 55.2463 382.078 55.7719C380.727 55.8165 380.718 58.0439 382.078 57.9993C410.021 57.0638 437.972 56.1996 465.923 55.6294C493.874 55.0592 521.833 54.783 549.784 55.0146C565.516 55.1483 581.248 55.4334 596.972 55.9234V53.696C581.443 53.5713 565.922 53.4109 550.392 53.2149C534.796 53.0189 519.199 52.7872 503.61 52.5199C488.022 52.2527 472.56 51.9497 457.039 51.6201C441.518 51.2815 425.997 50.9162 410.468 50.5064C394.939 50.0965 379.435 49.66 363.914 49.1878C361.946 49.1254 359.979 49.063 358.02 49.0007C356.66 48.9561 356.66 51.1835 358.02 51.2281Z" fill="#FFFF5F"/>
</svg>
