<svg width="705" height="263" viewBox="0 0 705 263" fill="none" xmlns="http://www.w3.org/2000/svg">
<path d="M5.376 227.168C5.376 225.376 5.73867 223.808 6.464 222.464C7.18933 221.099 8.18133 220.043 9.44 219.296C10.72 218.549 12.1493 218.176 13.728 218.176C15.0933 218.176 16.3627 218.496 17.536 219.136C18.7093 219.755 19.6053 220.576 20.224 221.6V212.32H23.168V236H20.224V232.704C19.648 233.749 18.7947 234.613 17.664 235.296C16.5333 235.957 15.2107 236.288 13.696 236.288C12.1387 236.288 10.72 235.904 9.44 235.136C8.18133 234.368 7.18933 233.291 6.464 231.904C5.73867 230.517 5.376 228.939 5.376 227.168ZM20.224 227.2C20.224 225.877 19.9573 224.725 19.424 223.744C18.8907 222.763 18.1653 222.016 17.248 221.504C16.352 220.971 15.36 220.704 14.272 220.704C13.184 220.704 12.192 220.96 11.296 221.472C10.4 221.984 9.68533 222.731 9.152 223.712C8.61867 224.693 8.352 225.845 8.352 227.168C8.352 228.512 8.61867 229.685 9.152 230.688C9.68533 231.669 10.4 232.427 11.296 232.96C12.192 233.472 13.184 233.728 14.272 233.728C15.36 233.728 16.352 233.472 17.248 232.96C18.1653 232.427 18.8907 231.669 19.424 230.688C19.9573 229.685 20.224 228.523 20.224 227.2ZM44.089 226.56C44.089 227.115 44.057 227.701 43.993 228.32H29.977C30.0837 230.048 30.6703 231.403 31.737 232.384C32.825 233.344 34.137 233.824 35.673 233.824C36.9317 233.824 37.977 233.536 38.809 232.96C39.6623 232.363 40.2597 231.573 40.601 230.592H43.737C43.2677 232.277 42.329 233.653 40.921 234.72C39.513 235.765 37.7637 236.288 35.673 236.288C34.009 236.288 32.5157 235.915 31.193 235.168C29.8917 234.421 28.8677 233.365 28.121 232C27.3743 230.613 27.001 229.013 27.001 227.2C27.001 225.387 27.3637 223.797 28.089 222.432C28.8143 221.067 29.8277 220.021 31.129 219.296C32.4517 218.549 33.9663 218.176 35.673 218.176C37.337 218.176 38.809 218.539 40.089 219.264C41.369 219.989 42.3503 220.992 43.033 222.272C43.737 223.531 44.089 224.96 44.089 226.56ZM41.081 225.952C41.081 224.843 40.8357 223.893 40.345 223.104C39.8543 222.293 39.1823 221.685 38.329 221.28C37.497 220.853 36.569 220.64 35.545 220.64C34.073 220.64 32.8143 221.109 31.769 222.048C30.745 222.987 30.1583 224.288 30.009 225.952H41.081ZM63.6 220.864H59.92V236H57.008V220.864H54.736V218.464H57.008V217.216C57.008 215.253 57.5093 213.824 58.512 212.928C59.536 212.011 61.168 211.552 63.408 211.552V213.984C62.128 213.984 61.2213 214.24 60.688 214.752C60.176 215.243 59.92 216.064 59.92 217.216V218.464H63.6V220.864ZM74.6433 236.288C73.0006 236.288 71.5073 235.915 70.1633 235.168C68.8406 234.421 67.7953 233.365 67.0273 232C66.2806 230.613 65.9073 229.013 65.9073 227.2C65.9073 225.408 66.2913 223.829 67.0593 222.464C67.8486 221.077 68.9153 220.021 70.2593 219.296C71.6033 218.549 73.1073 218.176 74.7713 218.176C76.4353 218.176 77.9393 218.549 79.2833 219.296C80.6273 220.021 81.6833 221.067 82.4513 222.432C83.2406 223.797 83.6353 225.387 83.6353 227.2C83.6353 229.013 83.2299 230.613 82.4193 232C81.6299 233.365 80.5526 234.421 79.1873 235.168C77.8219 235.915 76.3073 236.288 74.6433 236.288ZM74.6433 233.728C75.6886 233.728 76.6699 233.483 77.5873 232.992C78.5046 232.501 79.2406 231.765 79.7953 230.784C80.3713 229.803 80.6593 228.608 80.6593 227.2C80.6593 225.792 80.3819 224.597 79.8273 223.616C79.2726 222.635 78.5473 221.909 77.6513 221.44C76.7553 220.949 75.7846 220.704 74.7393 220.704C73.6726 220.704 72.6913 220.949 71.7953 221.44C70.9206 221.909 70.2166 222.635 69.6833 223.616C69.1499 224.597 68.8833 225.792 68.8833 227.2C68.8833 228.629 69.1393 229.835 69.6513 230.816C70.1846 231.797 70.8886 232.533 71.7633 233.024C72.6379 233.493 73.5979 233.728 74.6433 233.728ZM90.376 221.312C90.888 220.309 91.6133 219.531 92.552 218.976C93.512 218.421 94.6747 218.144 96.04 218.144V221.152H95.272C92.008 221.152 90.376 222.923 90.376 226.464V236H87.464V218.464H90.376V221.312ZM120.49 218.144C121.855 218.144 123.071 218.432 124.138 219.008C125.204 219.563 126.047 220.405 126.666 221.536C127.284 222.667 127.594 224.043 127.594 225.664V236H124.714V226.08C124.714 224.331 124.276 222.997 123.402 222.08C122.548 221.141 121.386 220.672 119.914 220.672C118.399 220.672 117.194 221.163 116.298 222.144C115.402 223.104 114.954 224.501 114.954 226.336V236H112.074V226.08C112.074 224.331 111.636 222.997 110.762 222.08C109.908 221.141 108.746 220.672 107.274 220.672C105.759 220.672 104.554 221.163 103.658 222.144C102.762 223.104 102.314 224.501 102.314 226.336V236H99.4015V218.464H102.314V220.992C102.89 220.075 103.658 219.371 104.618 218.88C105.599 218.389 106.676 218.144 107.85 218.144C109.322 218.144 110.623 218.475 111.754 219.136C112.884 219.797 113.727 220.768 114.282 222.048C114.772 220.811 115.583 219.851 116.714 219.168C117.844 218.485 119.103 218.144 120.49 218.144ZM131.282 227.168C131.282 225.376 131.645 223.808 132.37 222.464C133.096 221.099 134.088 220.043 135.346 219.296C136.626 218.549 138.045 218.176 139.602 218.176C141.138 218.176 142.472 218.507 143.602 219.168C144.733 219.829 145.576 220.661 146.13 221.664V218.464H149.074V236H146.13V232.736C145.554 233.76 144.69 234.613 143.538 235.296C142.408 235.957 141.085 236.288 139.57 236.288C138.013 236.288 136.605 235.904 135.346 235.136C134.088 234.368 133.096 233.291 132.37 231.904C131.645 230.517 131.282 228.939 131.282 227.168ZM146.13 227.2C146.13 225.877 145.864 224.725 145.33 223.744C144.797 222.763 144.072 222.016 143.154 221.504C142.258 220.971 141.266 220.704 140.178 220.704C139.09 220.704 138.098 220.96 137.202 221.472C136.306 221.984 135.592 222.731 135.058 223.712C134.525 224.693 134.258 225.845 134.258 227.168C134.258 228.512 134.525 229.685 135.058 230.688C135.592 231.669 136.306 232.427 137.202 232.96C138.098 233.472 139.09 233.728 140.178 233.728C141.266 233.728 142.258 233.472 143.154 232.96C144.072 232.427 144.797 231.669 145.33 230.688C145.864 229.685 146.13 228.523 146.13 227.2ZM168.735 236.288C167.391 236.288 166.185 236.064 165.119 235.616C164.052 235.147 163.209 234.507 162.591 233.696C161.972 232.864 161.631 231.915 161.567 230.848H164.575C164.66 231.723 165.065 232.437 165.791 232.992C166.537 233.547 167.508 233.824 168.703 233.824C169.812 233.824 170.687 233.579 171.327 233.088C171.967 232.597 172.287 231.979 172.287 231.232C172.287 230.464 171.945 229.899 171.263 229.536C170.58 229.152 169.524 228.779 168.095 228.416C166.793 228.075 165.727 227.733 164.895 227.392C164.084 227.029 163.38 226.507 162.783 225.824C162.207 225.12 161.919 224.203 161.919 223.072C161.919 222.176 162.185 221.355 162.719 220.608C163.252 219.861 164.009 219.275 164.991 218.848C165.972 218.4 167.092 218.176 168.351 218.176C170.292 218.176 171.86 218.667 173.055 219.648C174.249 220.629 174.889 221.973 174.975 223.68H172.063C171.999 222.763 171.625 222.027 170.943 221.472C170.281 220.917 169.385 220.64 168.255 220.64C167.209 220.64 166.377 220.864 165.759 221.312C165.14 221.76 164.831 222.347 164.831 223.072C164.831 223.648 165.012 224.128 165.375 224.512C165.759 224.875 166.228 225.173 166.783 225.408C167.359 225.621 168.148 225.867 169.151 226.144C170.409 226.485 171.433 226.827 172.223 227.168C173.012 227.488 173.684 227.979 174.239 228.64C174.815 229.301 175.113 230.165 175.135 231.232C175.135 232.192 174.868 233.056 174.335 233.824C173.801 234.592 173.044 235.2 172.063 235.648C171.103 236.075 169.993 236.288 168.735 236.288ZM180.749 215.616C180.195 215.616 179.725 215.424 179.341 215.04C178.957 214.656 178.765 214.187 178.765 213.632C178.765 213.077 178.957 212.608 179.341 212.224C179.725 211.84 180.195 211.648 180.749 211.648C181.283 211.648 181.731 211.84 182.093 212.224C182.477 212.608 182.669 213.077 182.669 213.632C182.669 214.187 182.477 214.656 182.093 215.04C181.731 215.424 181.283 215.616 180.749 215.616ZM182.157 218.464V236H179.245V218.464H182.157ZM194.352 218.176C195.867 218.176 197.19 218.507 198.32 219.168C199.472 219.829 200.326 220.661 200.88 221.664V218.464H203.824V236.384C203.824 237.984 203.483 239.403 202.8 240.64C202.118 241.899 201.136 242.88 199.856 243.584C198.598 244.288 197.126 244.64 195.44 244.64C193.136 244.64 191.216 244.096 189.68 243.008C188.144 241.92 187.238 240.437 186.96 238.56H189.84C190.16 239.627 190.822 240.48 191.824 241.12C192.827 241.781 194.032 242.112 195.44 242.112C197.04 242.112 198.342 241.611 199.344 240.608C200.368 239.605 200.88 238.197 200.88 236.384V232.704C200.304 233.728 199.451 234.581 198.32 235.264C197.19 235.947 195.867 236.288 194.352 236.288C192.795 236.288 191.376 235.904 190.096 235.136C188.838 234.368 187.846 233.291 187.12 231.904C186.395 230.517 186.032 228.939 186.032 227.168C186.032 225.376 186.395 223.808 187.12 222.464C187.846 221.099 188.838 220.043 190.096 219.296C191.376 218.549 192.795 218.176 194.352 218.176ZM200.88 227.2C200.88 225.877 200.614 224.725 200.08 223.744C199.547 222.763 198.822 222.016 197.904 221.504C197.008 220.971 196.016 220.704 194.928 220.704C193.84 220.704 192.848 220.96 191.952 221.472C191.056 221.984 190.342 222.731 189.808 223.712C189.275 224.693 189.008 225.845 189.008 227.168C189.008 228.512 189.275 229.685 189.808 230.688C190.342 231.669 191.056 232.427 191.952 232.96C192.848 233.472 193.84 233.728 194.928 233.728C196.016 233.728 197.008 233.472 197.904 232.96C198.822 232.427 199.547 231.669 200.08 230.688C200.614 229.685 200.88 228.523 200.88 227.2ZM217.289 218.144C219.423 218.144 221.151 218.795 222.473 220.096C223.796 221.376 224.457 223.232 224.457 225.664V236H221.577V226.08C221.577 224.331 221.14 222.997 220.265 222.08C219.391 221.141 218.196 220.672 216.681 220.672C215.145 220.672 213.919 221.152 213.001 222.112C212.105 223.072 211.657 224.469 211.657 226.304V236H208.745V218.464H211.657V220.96C212.233 220.064 213.012 219.371 213.993 218.88C214.996 218.389 216.095 218.144 217.289 218.144ZM230.718 215.616C230.163 215.616 229.694 215.424 229.31 215.04C228.926 214.656 228.734 214.187 228.734 213.632C228.734 213.077 228.926 212.608 229.31 212.224C229.694 211.84 230.163 211.648 230.718 211.648C231.251 211.648 231.699 211.84 232.062 212.224C232.446 212.608 232.638 213.077 232.638 213.632C232.638 214.187 232.446 214.656 232.062 215.04C231.699 215.424 231.251 215.616 230.718 215.616ZM232.126 218.464V236H229.214V218.464H232.126ZM244.225 220.864H240.545V236H237.633V220.864H235.361V218.464H237.633V217.216C237.633 215.253 238.134 213.824 239.137 212.928C240.161 212.011 241.793 211.552 244.033 211.552V213.984C242.753 213.984 241.846 214.24 241.313 214.752C240.801 215.243 240.545 216.064 240.545 217.216V218.464H244.225V220.864ZM249.124 215.616C248.57 215.616 248.1 215.424 247.716 215.04C247.332 214.656 247.14 214.187 247.14 213.632C247.14 213.077 247.332 212.608 247.716 212.224C248.1 211.84 248.57 211.648 249.124 211.648C249.658 211.648 250.106 211.84 250.468 212.224C250.852 212.608 251.044 213.077 251.044 213.632C251.044 214.187 250.852 214.656 250.468 215.04C250.106 215.424 249.658 215.616 249.124 215.616ZM250.532 218.464V236H247.62V218.464H250.532ZM254.407 227.2C254.407 225.387 254.77 223.808 255.495 222.464C256.221 221.099 257.223 220.043 258.503 219.296C259.805 218.549 261.287 218.176 262.951 218.176C265.106 218.176 266.877 218.699 268.263 219.744C269.671 220.789 270.599 222.24 271.047 224.096H267.911C267.613 223.029 267.026 222.187 266.151 221.568C265.298 220.949 264.231 220.64 262.951 220.64C261.287 220.64 259.943 221.216 258.919 222.368C257.895 223.499 257.383 225.109 257.383 227.2C257.383 229.312 257.895 230.944 258.919 232.096C259.943 233.248 261.287 233.824 262.951 233.824C264.231 233.824 265.298 233.525 266.151 232.928C267.005 232.331 267.591 231.477 267.911 230.368H271.047C270.578 232.16 269.639 233.6 268.231 234.688C266.823 235.755 265.063 236.288 262.951 236.288C261.287 236.288 259.805 235.915 258.503 235.168C257.223 234.421 256.221 233.365 255.495 232C254.77 230.635 254.407 229.035 254.407 227.2ZM273.845 227.168C273.845 225.376 274.207 223.808 274.933 222.464C275.658 221.099 276.65 220.043 277.909 219.296C279.189 218.549 280.607 218.176 282.165 218.176C283.701 218.176 285.034 218.507 286.165 219.168C287.295 219.829 288.138 220.661 288.693 221.664V218.464H291.637V236H288.693V232.736C288.117 233.76 287.253 234.613 286.101 235.296C284.97 235.957 283.647 236.288 282.133 236.288C280.575 236.288 279.167 235.904 277.909 235.136C276.65 234.368 275.658 233.291 274.933 231.904C274.207 230.517 273.845 228.939 273.845 227.168ZM288.693 227.2C288.693 225.877 288.426 224.725 287.893 223.744C287.359 222.763 286.634 222.016 285.717 221.504C284.821 220.971 283.829 220.704 282.741 220.704C281.653 220.704 280.661 220.96 279.765 221.472C278.869 221.984 278.154 222.731 277.621 223.712C277.087 224.693 276.821 225.845 276.821 227.168C276.821 228.512 277.087 229.685 277.621 230.688C278.154 231.669 278.869 232.427 279.765 232.96C280.661 233.472 281.653 233.728 282.741 233.728C283.829 233.728 284.821 233.472 285.717 232.96C286.634 232.427 287.359 231.669 287.893 230.688C288.426 229.685 288.693 228.523 288.693 227.2ZM300.11 220.864V231.2C300.11 232.053 300.291 232.661 300.654 233.024C301.016 233.365 301.646 233.536 302.542 233.536H304.686V236H302.062C300.44 236 299.224 235.627 298.414 234.88C297.603 234.133 297.198 232.907 297.198 231.2V220.864H294.926V218.464H297.198V214.048H300.11V218.464H304.686V220.864H300.11ZM309.718 215.616C309.163 215.616 308.694 215.424 308.31 215.04C307.926 214.656 307.734 214.187 307.734 213.632C307.734 213.077 307.926 212.608 308.31 212.224C308.694 211.84 309.163 211.648 309.718 211.648C310.251 211.648 310.699 211.84 311.062 212.224C311.446 212.608 311.638 213.077 311.638 213.632C311.638 214.187 311.446 214.656 311.062 215.04C310.699 215.424 310.251 215.616 309.718 215.616ZM311.126 218.464V236H308.214V218.464H311.126ZM322.617 233.312L328.057 218.464H331.161L324.281 236H320.889L314.009 218.464H317.145L322.617 233.312ZM332.939 227.168C332.939 225.376 333.301 223.808 334.027 222.464C334.752 221.099 335.744 220.043 337.003 219.296C338.283 218.549 339.701 218.176 341.259 218.176C342.795 218.176 344.128 218.507 345.259 219.168C346.389 219.829 347.232 220.661 347.787 221.664V218.464H350.731V236H347.787V232.736C347.211 233.76 346.347 234.613 345.195 235.296C344.064 235.957 342.741 236.288 341.227 236.288C339.669 236.288 338.261 235.904 337.003 235.136C335.744 234.368 334.752 233.291 334.027 231.904C333.301 230.517 332.939 228.939 332.939 227.168ZM347.787 227.2C347.787 225.877 347.52 224.725 346.987 223.744C346.453 222.763 345.728 222.016 344.811 221.504C343.915 220.971 342.923 220.704 341.835 220.704C340.747 220.704 339.755 220.96 338.859 221.472C337.963 221.984 337.248 222.731 336.715 223.712C336.181 224.693 335.915 225.845 335.915 227.168C335.915 228.512 336.181 229.685 336.715 230.688C337.248 231.669 337.963 232.427 338.859 232.96C339.755 233.472 340.747 233.728 341.835 233.728C342.923 233.728 343.915 233.472 344.811 232.96C345.728 232.427 346.453 231.669 346.987 230.688C347.52 229.685 347.787 228.523 347.787 227.2ZM379.287 218.464L368.727 244.256H365.719L369.175 235.808L362.103 218.464H365.335L370.839 232.672L376.279 218.464H379.287ZM389.657 227.2C389.657 225.387 390.02 223.808 390.745 222.464C391.471 221.099 392.473 220.043 393.753 219.296C395.055 218.549 396.537 218.176 398.201 218.176C400.356 218.176 402.127 218.699 403.513 219.744C404.921 220.789 405.849 222.24 406.297 224.096H403.161C402.863 223.029 402.276 222.187 401.401 221.568C400.548 220.949 399.481 220.64 398.201 220.64C396.537 220.64 395.193 221.216 394.169 222.368C393.145 223.499 392.633 225.109 392.633 227.2C392.633 229.312 393.145 230.944 394.169 232.096C395.193 233.248 396.537 233.824 398.201 233.824C399.481 233.824 400.548 233.525 401.401 232.928C402.255 232.331 402.841 231.477 403.161 230.368H406.297C405.828 232.16 404.889 233.6 403.481 234.688C402.073 235.755 400.313 236.288 398.201 236.288C396.537 236.288 395.055 235.915 393.753 235.168C392.473 234.421 391.471 233.365 390.745 232C390.02 230.635 389.657 229.035 389.657 227.2ZM417.831 236.288C416.188 236.288 414.695 235.915 413.351 235.168C412.028 234.421 410.983 233.365 410.215 232C409.468 230.613 409.095 229.013 409.095 227.2C409.095 225.408 409.479 223.829 410.247 222.464C411.036 221.077 412.103 220.021 413.447 219.296C414.791 218.549 416.295 218.176 417.959 218.176C419.623 218.176 421.127 218.549 422.471 219.296C423.815 220.021 424.871 221.067 425.639 222.432C426.428 223.797 426.823 225.387 426.823 227.2C426.823 229.013 426.417 230.613 425.607 232C424.817 233.365 423.74 234.421 422.375 235.168C421.009 235.915 419.495 236.288 417.831 236.288ZM417.831 233.728C418.876 233.728 419.857 233.483 420.775 232.992C421.692 232.501 422.428 231.765 422.983 230.784C423.559 229.803 423.847 228.608 423.847 227.2C423.847 225.792 423.569 224.597 423.015 223.616C422.46 222.635 421.735 221.909 420.839 221.44C419.943 220.949 418.972 220.704 417.927 220.704C416.86 220.704 415.879 220.949 414.983 221.44C414.108 221.909 413.404 222.635 412.871 223.616C412.337 224.597 412.071 225.792 412.071 227.2C412.071 228.629 412.327 229.835 412.839 230.816C413.372 231.797 414.076 232.533 414.951 233.024C415.825 233.493 416.785 233.728 417.831 233.728ZM439.196 218.144C441.329 218.144 443.057 218.795 444.38 220.096C445.702 221.376 446.364 223.232 446.364 225.664V236H443.484V226.08C443.484 224.331 443.046 222.997 442.172 222.08C441.297 221.141 440.102 220.672 438.588 220.672C437.052 220.672 435.825 221.152 434.908 222.112C434.012 223.072 433.564 224.469 433.564 226.304V236H430.652V218.464H433.564V220.96C434.14 220.064 434.918 219.371 435.9 218.88C436.902 218.389 438.001 218.144 439.196 218.144ZM461.156 215.616C460.601 215.616 460.132 215.424 459.748 215.04C459.364 214.656 459.172 214.187 459.172 213.632C459.172 213.077 459.364 212.608 459.748 212.224C460.132 211.84 460.601 211.648 461.156 211.648C461.689 211.648 462.137 211.84 462.5 212.224C462.884 212.608 463.076 213.077 463.076 213.632C463.076 214.187 462.884 214.656 462.5 215.04C462.137 215.424 461.689 215.616 461.156 215.616ZM462.564 218.464V236H459.652V218.464H462.564ZM488.615 218.144C489.98 218.144 491.196 218.432 492.263 219.008C493.329 219.563 494.172 220.405 494.791 221.536C495.409 222.667 495.719 224.043 495.719 225.664V236H492.839V226.08C492.839 224.331 492.401 222.997 491.527 222.08C490.673 221.141 489.511 220.672 488.039 220.672C486.524 220.672 485.319 221.163 484.423 222.144C483.527 223.104 483.079 224.501 483.079 226.336V236H480.199V226.08C480.199 224.331 479.761 222.997 478.887 222.08C478.033 221.141 476.871 220.672 475.399 220.672C473.884 220.672 472.679 221.163 471.783 222.144C470.887 223.104 470.439 224.501 470.439 226.336V236H467.527V218.464H470.439V220.992C471.015 220.075 471.783 219.371 472.743 218.88C473.724 218.389 474.801 218.144 475.975 218.144C477.447 218.144 478.748 218.475 479.879 219.136C481.009 219.797 481.852 220.768 482.407 222.048C482.897 220.811 483.708 219.851 484.839 219.168C485.969 218.485 487.228 218.144 488.615 218.144ZM503.407 221.696C503.983 220.693 504.837 219.861 505.967 219.2C507.119 218.517 508.453 218.176 509.967 218.176C511.525 218.176 512.933 218.549 514.191 219.296C515.471 220.043 516.474 221.099 517.199 222.464C517.925 223.808 518.287 225.376 518.287 227.168C518.287 228.939 517.925 230.517 517.199 231.904C516.474 233.291 515.471 234.368 514.191 235.136C512.933 235.904 511.525 236.288 509.967 236.288C508.474 236.288 507.151 235.957 505.999 235.296C504.869 234.613 504.005 233.771 503.407 232.768V244.32H500.495V218.464H503.407V221.696ZM515.311 227.168C515.311 225.845 515.045 224.693 514.511 223.712C513.978 222.731 513.253 221.984 512.335 221.472C511.439 220.96 510.447 220.704 509.359 220.704C508.293 220.704 507.301 220.971 506.383 221.504C505.487 222.016 504.762 222.773 504.207 223.776C503.674 224.757 503.407 225.899 503.407 227.2C503.407 228.523 503.674 229.685 504.207 230.688C504.762 231.669 505.487 232.427 506.383 232.96C507.301 233.472 508.293 233.728 509.359 233.728C510.447 233.728 511.439 233.472 512.335 232.96C513.253 232.427 513.978 231.669 514.511 230.688C515.045 229.685 515.311 228.512 515.311 227.168ZM521.032 227.168C521.032 225.376 521.395 223.808 522.12 222.464C522.846 221.099 523.838 220.043 525.096 219.296C526.376 218.549 527.795 218.176 529.352 218.176C530.888 218.176 532.222 218.507 533.352 219.168C534.483 219.829 535.326 220.661 535.88 221.664V218.464H538.824V236H535.88V232.736C535.304 233.76 534.44 234.613 533.288 235.296C532.158 235.957 530.835 236.288 529.32 236.288C527.763 236.288 526.355 235.904 525.096 235.136C523.838 234.368 522.846 233.291 522.12 231.904C521.395 230.517 521.032 228.939 521.032 227.168ZM535.88 227.2C535.88 225.877 535.614 224.725 535.08 223.744C534.547 222.763 533.822 222.016 532.904 221.504C532.008 220.971 531.016 220.704 529.928 220.704C528.84 220.704 527.848 220.96 526.952 221.472C526.056 221.984 525.342 222.731 524.808 223.712C524.275 224.693 524.008 225.845 524.008 227.168C524.008 228.512 524.275 229.685 524.808 230.688C525.342 231.669 526.056 232.427 526.952 232.96C527.848 233.472 528.84 233.728 529.928 233.728C531.016 233.728 532.008 233.472 532.904 232.96C533.822 232.427 534.547 231.669 535.08 230.688C535.614 229.685 535.88 228.523 535.88 227.2ZM542.657 227.2C542.657 225.387 543.02 223.808 543.745 222.464C544.471 221.099 545.473 220.043 546.753 219.296C548.055 218.549 549.537 218.176 551.201 218.176C553.356 218.176 555.127 218.699 556.513 219.744C557.921 220.789 558.849 222.24 559.297 224.096H556.161C555.863 223.029 555.276 222.187 554.401 221.568C553.548 220.949 552.481 220.64 551.201 220.64C549.537 220.64 548.193 221.216 547.169 222.368C546.145 223.499 545.633 225.109 545.633 227.2C545.633 229.312 546.145 230.944 547.169 232.096C548.193 233.248 549.537 233.824 551.201 233.824C552.481 233.824 553.548 233.525 554.401 232.928C555.255 232.331 555.841 231.477 556.161 230.368H559.297C558.828 232.16 557.889 233.6 556.481 234.688C555.073 235.755 553.313 236.288 551.201 236.288C549.537 236.288 548.055 235.915 546.753 235.168C545.473 234.421 544.471 233.365 543.745 232C543.02 230.635 542.657 229.035 542.657 227.2ZM566.735 220.864V231.2C566.735 232.053 566.916 232.661 567.279 233.024C567.641 233.365 568.271 233.536 569.167 233.536H571.311V236H568.687C567.065 236 565.849 235.627 565.039 234.88C564.228 234.133 563.823 232.907 563.823 231.2V220.864H561.551V218.464H563.823V214.048H566.735V218.464H571.311V220.864H566.735ZM582.487 236.288C580.844 236.288 579.351 235.915 578.007 235.168C576.684 234.421 575.639 233.365 574.871 232C574.124 230.613 573.751 229.013 573.751 227.2C573.751 225.408 574.135 223.829 574.903 222.464C575.692 221.077 576.759 220.021 578.103 219.296C579.447 218.549 580.951 218.176 582.615 218.176C584.279 218.176 585.783 218.549 587.127 219.296C588.471 220.021 589.527 221.067 590.295 222.432C591.084 223.797 591.479 225.387 591.479 227.2C591.479 229.013 591.074 230.613 590.263 232C589.474 233.365 588.396 234.421 587.031 235.168C585.666 235.915 584.151 236.288 582.487 236.288ZM582.487 233.728C583.532 233.728 584.514 233.483 585.431 232.992C586.348 232.501 587.084 231.765 587.639 230.784C588.215 229.803 588.503 228.608 588.503 227.2C588.503 225.792 588.226 224.597 587.671 223.616C587.116 222.635 586.391 221.909 585.495 221.44C584.599 220.949 583.628 220.704 582.583 220.704C581.516 220.704 580.535 220.949 579.639 221.44C578.764 221.909 578.06 222.635 577.527 223.616C576.994 224.597 576.727 225.792 576.727 227.2C576.727 228.629 576.983 229.835 577.495 230.816C578.028 231.797 578.732 232.533 579.607 233.024C580.482 233.493 581.442 233.728 582.487 233.728ZM606.751 221.312C607.263 220.309 607.988 219.531 608.927 218.976C609.887 218.421 611.05 218.144 612.415 218.144V221.152H611.647C608.383 221.152 606.751 222.923 606.751 226.464V236H603.839V218.464H606.751V221.312ZM631.777 226.56C631.777 227.115 631.745 227.701 631.681 228.32H617.665C617.771 230.048 618.358 231.403 619.425 232.384C620.513 233.344 621.825 233.824 623.361 233.824C624.619 233.824 625.665 233.536 626.497 232.96C627.35 232.363 627.947 231.573 628.289 230.592H631.425C630.955 232.277 630.017 233.653 628.609 234.72C627.201 235.765 625.451 236.288 623.361 236.288C621.697 236.288 620.203 235.915 618.881 235.168C617.579 234.421 616.555 233.365 615.809 232C615.062 230.613 614.689 229.013 614.689 227.2C614.689 225.387 615.051 223.797 615.777 222.432C616.502 221.067 617.515 220.021 618.817 219.296C620.139 218.549 621.654 218.176 623.361 218.176C625.025 218.176 626.497 218.539 627.777 219.264C629.057 219.989 630.038 220.992 630.721 222.272C631.425 223.531 631.777 224.96 631.777 226.56ZM628.769 225.952C628.769 224.843 628.523 223.893 628.033 223.104C627.542 222.293 626.87 221.685 626.017 221.28C625.185 220.853 624.257 220.64 623.233 220.64C621.761 220.64 620.502 221.109 619.457 222.048C618.433 222.987 617.846 224.288 617.697 225.952H628.769ZM634.532 227.168C634.532 225.376 634.895 223.808 635.62 222.464C636.346 221.099 637.338 220.043 638.596 219.296C639.876 218.549 641.295 218.176 642.852 218.176C644.388 218.176 645.722 218.507 646.852 219.168C647.983 219.829 648.826 220.661 649.38 221.664V218.464H652.324V236H649.38V232.736C648.804 233.76 647.94 234.613 646.788 235.296C645.658 235.957 644.335 236.288 642.82 236.288C641.263 236.288 639.855 235.904 638.596 235.136C637.338 234.368 636.346 233.291 635.62 231.904C634.895 230.517 634.532 228.939 634.532 227.168ZM649.38 227.2C649.38 225.877 649.114 224.725 648.58 223.744C648.047 222.763 647.322 222.016 646.404 221.504C645.508 220.971 644.516 220.704 643.428 220.704C642.34 220.704 641.348 220.96 640.452 221.472C639.556 221.984 638.842 222.731 638.308 223.712C637.775 224.693 637.508 225.845 637.508 227.168C637.508 228.512 637.775 229.685 638.308 230.688C638.842 231.669 639.556 232.427 640.452 232.96C641.348 233.472 642.34 233.728 643.428 233.728C644.516 233.728 645.508 233.472 646.404 232.96C647.322 232.427 648.047 231.669 648.58 230.688C649.114 229.685 649.38 228.523 649.38 227.2ZM660.157 212.32V236H657.245V212.32H660.157ZM666.048 236.192C665.494 236.192 665.024 236 664.64 235.616C664.256 235.232 664.064 234.763 664.064 234.208C664.064 233.653 664.256 233.184 664.64 232.8C665.024 232.416 665.494 232.224 666.048 232.224C666.582 232.224 667.03 232.416 667.392 232.8C667.776 233.184 667.968 233.653 667.968 234.208C667.968 234.763 667.776 235.232 667.392 235.616C667.03 236 666.582 236.192 666.048 236.192Z" fill="black"/>
<path d="M27.0156 54.3047V65.7344H52.7734V84H6.94531V5.57812H52.0625V23.8438H27.0156V37.8438H49.6016V54.3047H27.0156ZM112.984 5.57812L98.9844 44.2422L114.57 84H95.0469L85.6406 58.6797H85.3125L75.9062 84H56.5469L72.1328 43.5859L58.1328 5.57812H77.4922L85.3125 29.2578H85.6406L93.5156 5.57812H112.984ZM151.703 5.57812C158.12 5.57812 163.479 8.33073 167.781 13.8359C172.083 19.3047 174.234 26.0495 174.234 34.0703C174.234 42.2734 172.12 48.9271 167.891 54.0312C163.661 59.1354 158.266 61.6875 151.703 61.6875H141.312V84H121.242V5.57812H151.703ZM145.742 43.8047C148.294 43.8047 150.299 42.8385 151.758 40.9062C153.216 38.9375 153.945 36.6224 153.945 33.9609C153.945 31.1901 153.216 28.8385 151.758 26.9062C150.299 24.9375 148.294 23.9531 145.742 23.9531H141.312V43.8047H145.742ZM203 54.3047V65.7344H228.758V84H182.93V5.57812H228.047V23.8438H203V37.8438H225.586V54.3047H203ZM280.438 49.8203C284.229 51.0234 286.672 54.6146 287.766 60.5938L291.977 84H270.922L267.258 62.2891C266.529 58.6432 264.396 56.8021 260.859 56.7656H259.875V84H239.805V5.57812H267.258C274.039 5.57812 279.562 7.7474 283.828 12.0859C288.094 16.4245 290.227 22.2943 290.227 29.6953C290.227 38.5182 286.964 45.0443 280.438 49.2734V49.8203ZM262.773 41.0156C264.997 41.0156 266.82 40.2135 268.242 38.6094C269.664 37.0052 270.375 34.9635 270.375 32.4844C270.375 29.9323 269.664 27.8542 268.242 26.25C266.82 24.6458 264.997 23.8438 262.773 23.8438H259.875V41.0156H262.773ZM302.258 84V5.57812H322.328V84H302.258ZM356.234 54.3047V65.7344H381.992V84H336.164V5.57812H381.281V23.8438H356.234V37.8438H378.82V54.3047H356.234ZM422.406 36.8594V5.57812H442.422V84H429.461L413.438 52.8828H413.219V84H393.039V5.57812H406.055L422.023 36.8594H422.406ZM487.047 67.4297C490.328 67.4297 494.065 65.8255 498.258 62.6172L502.086 80.9922C497.529 84.1276 491.404 85.6953 483.711 85.6953C474.378 85.6953 467.013 82.4505 461.617 75.9609C456.258 69.4349 453.578 59.0443 453.578 44.7891C453.578 30.5339 456.258 20.1797 461.617 13.7266C467.013 7.27344 474.378 4.04688 483.711 4.04688C492.06 4.04688 497.802 5.04948 500.938 7.05469L496.125 24.8828C493.828 23.1693 490.802 22.3125 487.047 22.3125C482.854 22.3125 479.573 23.9531 477.203 27.2344C474.87 30.5156 473.703 36.3672 473.703 44.7891C473.703 53.2839 474.87 59.1901 477.203 62.5078C479.573 65.7891 482.854 67.4297 487.047 67.4297ZM510.18 84V5.57812H530.25V84H510.18ZM553.383 5.57812H578.594L595.602 84H575.422L573.562 72.2422H558.523L556.609 84H536.484L553.383 5.57812ZM561.203 56.2188H570.828L566.234 29.3672H565.688L561.203 56.2188Z" fill="black"/>
<mask id="path-3-outside-1_13_950" maskUnits="userSpaceOnUse" x="5" y="103" width="487" height="86" fill="black">
<rect fill="white" x="5" y="103" width="487" height="86"/>
<path d="M27.0156 155.305V166.734H52.7734V185H6.94531V106.578H52.0625V124.844H27.0156V138.844H49.6016V155.305H27.0156ZM96.4141 144.914L108.5 106.578H129.117V185H109.648V152.078H109.156L98.6562 185H93.8438L83.3984 152.078H82.9609V185H63.4922V106.578H84.1094L96.1953 144.914H96.4141ZM173.141 106.578C179.557 106.578 184.917 109.331 189.219 114.836C193.521 120.305 195.672 127.049 195.672 135.07C195.672 143.273 193.557 149.927 189.328 155.031C185.099 160.135 179.703 162.688 173.141 162.688H162.75V185H142.68V106.578H173.141ZM167.18 144.805C169.732 144.805 171.737 143.839 173.195 141.906C174.654 139.938 175.383 137.622 175.383 134.961C175.383 132.19 174.654 129.839 173.195 127.906C171.737 125.938 169.732 124.953 167.18 124.953H162.75V144.805H167.18ZM224.438 106.578V166.734H247.242V185H204.367V106.578H224.438ZM276.5 155.305V166.734H302.258V185H256.43V106.578H301.547V124.844H276.5V138.844H299.086V155.305H276.5ZM322.602 106.578H347.812L364.82 185H344.641L342.781 173.242H327.742L325.828 185H305.703L322.602 106.578ZM330.422 157.219H340.047L335.453 130.367H334.906L330.422 157.219ZM395.719 106.578C403.922 106.578 410.648 110.26 415.898 117.625C421.185 124.99 423.828 134.396 423.828 145.844C423.828 157.255 421.185 166.643 415.898 174.008C410.648 181.336 403.922 185 395.719 185H371.055V106.578H395.719ZM392.766 166.734C395.974 166.734 398.581 164.784 400.586 160.883C402.628 156.945 403.648 151.914 403.648 145.789C403.648 139.664 402.628 134.651 400.586 130.75C398.581 126.812 395.974 124.844 392.766 124.844H391.125V166.734H392.766ZM439.906 114.672C445.01 108.182 452.01 104.938 460.906 104.938C469.802 104.938 476.802 108.182 481.906 114.672C487.01 121.161 489.562 131.534 489.562 145.789C489.562 160.117 487.01 170.526 481.906 177.016C476.802 183.469 469.802 186.695 460.906 186.695C452.01 186.695 445.01 183.469 439.906 177.016C434.802 170.526 432.25 160.117 432.25 145.789C432.25 131.534 434.802 121.161 439.906 114.672ZM454.562 163.562C456.021 166.807 458.135 168.43 460.906 168.43C463.677 168.43 465.792 166.807 467.25 163.562C468.708 160.318 469.438 154.393 469.438 145.789C469.438 137.294 468.708 131.406 467.25 128.125C465.792 124.844 463.677 123.203 460.906 123.203C458.135 123.203 456.021 124.844 454.562 128.125C453.104 131.406 452.375 137.294 452.375 145.789C452.375 154.393 453.104 160.318 454.562 163.562Z"/>
</mask>
<path d="M27.0156 155.305V153.805H25.5156V155.305H27.0156ZM27.0156 166.734H25.5156V168.234H27.0156V166.734ZM52.7734 166.734H54.2734V165.234H52.7734V166.734ZM52.7734 185V186.5H54.2734V185H52.7734ZM6.94531 185H5.44531V186.5H6.94531V185ZM6.94531 106.578V105.078H5.44531V106.578H6.94531ZM52.0625 106.578H53.5625V105.078H52.0625V106.578ZM52.0625 124.844V126.344H53.5625V124.844H52.0625ZM27.0156 124.844V123.344H25.5156V124.844H27.0156ZM27.0156 138.844H25.5156V140.344H27.0156V138.844ZM49.6016 138.844H51.1016V137.344H49.6016V138.844ZM49.6016 155.305V156.805H51.1016V155.305H49.6016ZM25.5156 155.305V166.734H28.5156V155.305H25.5156ZM27.0156 168.234H52.7734V165.234H27.0156V168.234ZM51.2734 166.734V185H54.2734V166.734H51.2734ZM52.7734 183.5H6.94531V186.5H52.7734V183.5ZM8.44531 185V106.578H5.44531V185H8.44531ZM6.94531 108.078H52.0625V105.078H6.94531V108.078ZM50.5625 106.578V124.844H53.5625V106.578H50.5625ZM52.0625 123.344H27.0156V126.344H52.0625V123.344ZM25.5156 124.844V138.844H28.5156V124.844H25.5156ZM27.0156 140.344H49.6016V137.344H27.0156V140.344ZM48.1016 138.844V155.305H51.1016V138.844H48.1016ZM49.6016 153.805H27.0156V156.805H49.6016V153.805ZM96.4141 144.914V146.414H97.5139L97.8447 145.365L96.4141 144.914ZM108.5 106.578V105.078H107.4L107.069 106.127L108.5 106.578ZM129.117 106.578H130.617V105.078H129.117V106.578ZM129.117 185V186.5H130.617V185H129.117ZM109.648 185H108.148V186.5H109.648V185ZM109.648 152.078H111.148V150.578H109.648V152.078ZM109.156 152.078V150.578H108.06L107.727 151.622L109.156 152.078ZM98.6562 185V186.5H99.7523L100.085 185.456L98.6562 185ZM93.8438 185L92.414 185.454L92.746 186.5H93.8438V185ZM83.3984 152.078L84.8282 151.624L84.4962 150.578H83.3984V152.078ZM82.9609 152.078V150.578H81.4609V152.078H82.9609ZM82.9609 185V186.5H84.4609V185H82.9609ZM63.4922 185H61.9922V186.5H63.4922V185ZM63.4922 106.578V105.078H61.9922V106.578H63.4922ZM84.1094 106.578L85.54 106.127L85.2093 105.078H84.1094V106.578ZM96.1953 144.914L94.7647 145.365L95.0954 146.414H96.1953V144.914ZM97.8447 145.365L109.931 107.029L107.069 106.127L94.9835 144.463L97.8447 145.365ZM108.5 108.078H129.117V105.078H108.5V108.078ZM127.617 106.578V185H130.617V106.578H127.617ZM129.117 183.5H109.648V186.5H129.117V183.5ZM111.148 185V152.078H108.148V185H111.148ZM109.648 150.578H109.156V153.578H109.648V150.578ZM107.727 151.622L97.2272 184.544L100.085 185.456L110.585 152.534L107.727 151.622ZM98.6562 183.5H93.8438V186.5H98.6562V183.5ZM95.2735 184.546L84.8282 151.624L81.9687 152.532L92.414 185.454L95.2735 184.546ZM83.3984 150.578H82.9609V153.578H83.3984V150.578ZM81.4609 152.078V185H84.4609V152.078H81.4609ZM82.9609 183.5H63.4922V186.5H82.9609V183.5ZM64.9922 185V106.578H61.9922V185H64.9922ZM63.4922 108.078H84.1094V105.078H63.4922V108.078ZM82.6788 107.029L94.7647 145.365L97.6259 144.463L85.54 106.127L82.6788 107.029ZM96.1953 146.414H96.4141V143.414H96.1953V146.414ZM189.219 114.836L188.037 115.76L188.04 115.763L189.219 114.836ZM189.328 155.031L190.483 155.988L189.328 155.031ZM162.75 162.688V161.188H161.25V162.688H162.75ZM162.75 185V186.5H164.25V185H162.75ZM142.68 185H141.18V186.5H142.68V185ZM142.68 106.578V105.078H141.18V106.578H142.68ZM173.195 141.906L174.393 142.81L174.401 142.799L173.195 141.906ZM173.195 127.906L171.99 128.799L171.998 128.81L173.195 127.906ZM162.75 124.953V123.453H161.25V124.953H162.75ZM162.75 144.805H161.25V146.305H162.75V144.805ZM173.141 108.078C179.05 108.078 183.99 110.581 188.037 115.76L190.401 113.912C185.843 108.08 180.064 105.078 173.141 105.078V108.078ZM188.04 115.763C192.103 120.928 194.172 127.332 194.172 135.07H197.172C197.172 126.767 194.939 119.681 190.398 113.909L188.04 115.763ZM194.172 135.07C194.172 143.01 192.13 149.298 188.173 154.074L190.483 155.988C194.984 150.556 197.172 143.537 197.172 135.07H194.172ZM188.173 154.074C184.226 158.838 179.251 161.188 173.141 161.188V164.188C180.155 164.188 185.972 161.432 190.483 155.988L188.173 154.074ZM173.141 161.188H162.75V164.188H173.141V161.188ZM161.25 162.688V185H164.25V162.688H161.25ZM162.75 183.5H142.68V186.5H162.75V183.5ZM144.18 185V106.578H141.18V185H144.18ZM142.68 108.078H173.141V105.078H142.68V108.078ZM167.18 146.305C170.173 146.305 172.633 145.141 174.393 142.81L171.998 141.003C170.841 142.536 169.291 143.305 167.18 143.305V146.305ZM174.401 142.799C176.067 140.549 176.883 137.915 176.883 134.961H173.883C173.883 137.33 173.24 139.326 171.99 141.013L174.401 142.799ZM176.883 134.961C176.883 131.913 176.075 129.232 174.393 127.003L171.998 128.81C173.232 130.445 173.883 132.467 173.883 134.961H176.883ZM174.401 127.013C172.646 124.644 170.184 123.453 167.18 123.453V126.453C169.28 126.453 170.828 127.231 171.99 128.799L174.401 127.013ZM167.18 123.453H162.75V126.453H167.18V123.453ZM161.25 124.953V144.805H164.25V124.953H161.25ZM162.75 146.305H167.18V143.305H162.75V146.305ZM224.438 106.578H225.938V105.078H224.438V106.578ZM224.438 166.734H222.938V168.234H224.438V166.734ZM247.242 166.734H248.742V165.234H247.242V166.734ZM247.242 185V186.5H248.742V185H247.242ZM204.367 185H202.867V186.5H204.367V185ZM204.367 106.578V105.078H202.867V106.578H204.367ZM222.938 106.578V166.734H225.938V106.578H222.938ZM224.438 168.234H247.242V165.234H224.438V168.234ZM245.742 166.734V185H248.742V166.734H245.742ZM247.242 183.5H204.367V186.5H247.242V183.5ZM205.867 185V106.578H202.867V185H205.867ZM204.367 108.078H224.438V105.078H204.367V108.078ZM276.5 155.305V153.805H275V155.305H276.5ZM276.5 166.734H275V168.234H276.5V166.734ZM302.258 166.734H303.758V165.234H302.258V166.734ZM302.258 185V186.5H303.758V185H302.258ZM256.43 185H254.93V186.5H256.43V185ZM256.43 106.578V105.078H254.93V106.578H256.43ZM301.547 106.578H303.047V105.078H301.547V106.578ZM301.547 124.844V126.344H303.047V124.844H301.547ZM276.5 124.844V123.344H275V124.844H276.5ZM276.5 138.844H275V140.344H276.5V138.844ZM299.086 138.844H300.586V137.344H299.086V138.844ZM299.086 155.305V156.805H300.586V155.305H299.086ZM275 155.305V166.734H278V155.305H275ZM276.5 168.234H302.258V165.234H276.5V168.234ZM300.758 166.734V185H303.758V166.734H300.758ZM302.258 183.5H256.43V186.5H302.258V183.5ZM257.93 185V106.578H254.93V185H257.93ZM256.43 108.078H301.547V105.078H256.43V108.078ZM300.047 106.578V124.844H303.047V106.578H300.047ZM301.547 123.344H276.5V126.344H301.547V123.344ZM275 124.844V138.844H278V124.844H275ZM276.5 140.344H299.086V137.344H276.5V140.344ZM297.586 138.844V155.305H300.586V138.844H297.586ZM299.086 153.805H276.5V156.805H299.086V153.805ZM322.602 106.578V105.078H321.39L321.135 106.262L322.602 106.578ZM347.812 106.578L349.278 106.26L349.022 105.078H347.812V106.578ZM364.82 185V186.5H366.68L366.286 184.682L364.82 185ZM344.641 185L343.159 185.234L343.359 186.5H344.641V185ZM342.781 173.242L344.263 173.008L344.063 171.742H342.781V173.242ZM327.742 173.242V171.742H326.467L326.262 173.001L327.742 173.242ZM325.828 185V186.5H327.104L327.309 185.241L325.828 185ZM305.703 185L304.237 184.684L303.845 186.5H305.703V185ZM330.422 157.219L328.942 156.972L328.651 158.719H330.422V157.219ZM340.047 157.219V158.719H341.825L341.525 156.966L340.047 157.219ZM335.453 130.367L336.932 130.114L336.718 128.867H335.453V130.367ZM334.906 130.367V128.867H333.636L333.427 130.12L334.906 130.367ZM322.602 108.078H347.812V105.078H322.602V108.078ZM346.347 106.896L363.354 185.318L366.286 184.682L349.278 106.26L346.347 106.896ZM364.82 183.5H344.641V186.5H364.82V183.5ZM346.122 184.766L344.263 173.008L341.3 173.476L343.159 185.234L346.122 184.766ZM342.781 171.742H327.742V174.742H342.781V171.742ZM326.262 173.001L324.348 184.759L327.309 185.241L329.223 173.483L326.262 173.001ZM325.828 183.5H305.703V186.5H325.828V183.5ZM307.169 185.316L324.068 106.894L321.135 106.262L304.237 184.684L307.169 185.316ZM330.422 158.719H340.047V155.719H330.422V158.719ZM341.525 156.966L336.932 130.114L333.975 130.62L338.568 157.472L341.525 156.966ZM335.453 128.867H334.906V131.867H335.453V128.867ZM333.427 130.12L328.942 156.972L331.901 157.466L336.386 130.614L333.427 130.12ZM415.898 117.625L414.677 118.496L414.68 118.5L415.898 117.625ZM415.898 174.008L414.68 173.133L414.679 173.134L415.898 174.008ZM371.055 185H369.555V186.5H371.055V185ZM371.055 106.578V105.078H369.555V106.578H371.055ZM400.586 160.883L399.254 160.192L399.252 160.197L400.586 160.883ZM400.586 130.75L399.249 131.431L399.253 131.438L399.257 131.446L400.586 130.75ZM391.125 124.844V123.344H389.625V124.844H391.125ZM391.125 166.734H389.625V168.234H391.125V166.734ZM395.719 108.078C403.382 108.078 409.675 111.479 414.677 118.496L417.12 116.754C411.622 109.042 404.462 105.078 395.719 105.078V108.078ZM414.68 118.5C419.74 125.549 422.328 134.627 422.328 145.844H425.328C425.328 134.165 422.63 124.43 417.117 116.75L414.68 118.5ZM422.328 145.844C422.328 157.023 419.741 166.083 414.68 173.133L417.117 174.883C422.629 167.204 425.328 157.487 425.328 145.844H422.328ZM414.679 173.134C409.678 180.114 403.385 183.5 395.719 183.5V186.5C404.459 186.5 411.619 182.557 417.118 174.881L414.679 173.134ZM395.719 183.5H371.055V186.5H395.719V183.5ZM372.555 185V106.578H369.555V185H372.555ZM371.055 108.078H395.719V105.078H371.055V108.078ZM392.766 168.234C396.74 168.234 399.767 165.758 401.92 161.569L399.252 160.197C397.395 163.81 395.208 165.234 392.766 165.234V168.234ZM401.918 161.573C404.104 157.357 405.148 152.068 405.148 145.789H402.148C402.148 151.76 401.151 156.534 399.254 160.192L401.918 161.573ZM405.148 145.789C405.148 139.511 404.104 134.237 401.915 130.054L399.257 131.446C401.151 135.065 402.148 139.817 402.148 145.789H405.148ZM401.923 130.069C399.773 125.847 396.747 123.344 392.766 123.344V126.344C395.201 126.344 397.389 127.778 399.249 131.431L401.923 130.069ZM392.766 123.344H391.125V126.344H392.766V123.344ZM389.625 124.844V166.734H392.625V124.844H389.625ZM391.125 168.234H392.766V165.234H391.125V168.234ZM481.906 177.016L483.083 177.946L483.085 177.943L481.906 177.016ZM439.906 177.016L438.727 177.943L438.73 177.946L439.906 177.016ZM441.085 115.599C445.881 109.502 452.429 106.438 460.906 106.438V103.438C451.591 103.438 444.14 106.862 438.727 113.745L441.085 115.599ZM460.906 106.438C469.383 106.438 475.932 109.502 480.727 115.599L483.085 113.745C477.672 106.862 470.221 103.438 460.906 103.438V106.438ZM480.727 115.599C485.519 121.692 488.062 131.65 488.062 145.789H491.062C491.062 131.418 488.502 120.631 483.085 113.745L480.727 115.599ZM488.062 145.789C488.062 160.003 485.518 169.997 480.727 176.088L483.085 177.943C488.502 171.056 491.062 160.231 491.062 145.789H488.062ZM480.73 176.085C475.936 182.146 469.386 185.195 460.906 185.195V188.195C470.218 188.195 477.669 184.791 483.083 177.946L480.73 176.085ZM460.906 185.195C452.426 185.195 445.877 182.146 441.083 176.085L438.73 177.946C444.144 184.791 451.595 188.195 460.906 188.195V185.195ZM441.085 176.088C436.294 169.997 433.75 160.003 433.75 145.789H430.75C430.75 160.231 433.31 171.056 438.727 177.943L441.085 176.088ZM433.75 145.789C433.75 131.65 436.293 121.692 441.085 115.599L438.727 113.745C433.311 120.631 430.75 131.418 430.75 145.789H433.75ZM453.194 164.177C453.993 165.953 455.02 167.399 456.329 168.403C457.659 169.424 459.205 169.93 460.906 169.93V166.93C459.837 166.93 458.94 166.625 458.155 166.023C457.35 165.405 456.591 164.416 455.931 162.948L453.194 164.177ZM460.906 169.93C462.608 169.93 464.153 169.424 465.483 168.403C466.793 167.399 467.82 165.953 468.618 164.177L465.882 162.948C465.222 164.416 464.463 165.405 463.657 166.023C462.873 166.625 461.976 166.93 460.906 166.93V169.93ZM468.618 164.177C470.222 160.608 470.938 154.386 470.938 145.789H467.938C467.938 154.4 467.194 160.027 465.882 162.948L468.618 164.177ZM470.938 145.789C470.938 137.295 470.221 131.117 468.621 127.516L465.879 128.734C467.196 131.696 467.938 137.293 467.938 145.789H470.938ZM468.621 127.516C467.824 125.723 466.798 124.264 465.49 123.248C464.16 122.216 462.612 121.703 460.906 121.703V124.703C461.971 124.703 462.866 125.01 463.651 125.619C464.457 126.244 465.218 127.246 465.879 128.734L468.621 127.516ZM460.906 121.703C459.201 121.703 457.653 122.216 456.323 123.248C455.014 124.264 453.989 125.723 453.192 127.516L455.933 128.734C456.595 127.246 457.355 126.244 458.162 125.619C458.946 125.01 459.841 124.703 460.906 124.703V121.703ZM453.192 127.516C451.591 131.117 450.875 137.295 450.875 145.789H453.875C453.875 137.293 454.617 131.696 455.933 128.734L453.192 127.516ZM450.875 145.789C450.875 154.386 451.59 160.608 453.194 164.177L455.931 162.948C454.618 160.027 453.875 154.4 453.875 145.789H450.875Z" fill="black" mask="url(#path-3-outside-1_13_950)"/>
<path d="M400.218 261.729C417.811 260.53 435.42 259.583 453.039 258.887C470.657 258.19 488.292 257.745 505.928 257.543C523.563 257.348 541.198 257.397 558.834 257.705C576.393 258.004 593.952 258.555 611.503 259.356C629.121 260.158 646.722 261.211 664.307 262.506C666.471 262.668 668.635 262.83 670.791 263C672.414 263.122 672.406 260.692 670.791 260.571C653.215 259.211 635.614 258.093 618.004 257.235C600.394 256.368 582.767 255.761 565.132 255.397C547.497 255.032 529.861 254.919 512.226 255.057C494.658 255.194 477.099 255.583 459.549 256.215C441.922 256.854 424.312 257.737 406.719 258.871C404.555 259.008 402.39 259.154 400.226 259.3C398.603 259.413 398.594 261.842 400.226 261.729" fill="black"/>
</svg>
