<svg width="679" height="206" viewBox="0 0 679 206" fill="none" xmlns="http://www.w3.org/2000/svg">
<mask id="path-1-outside-1_0_232" maskUnits="userSpaceOnUse" x="0" y="0" width="679" height="206" fill="black">
<rect fill="white" width="679" height="206"/>
<path d="M51.6875 60.0625H25.875V73.125H55.3125V94H2.9375V4.375H54.5V25.25H25.875V41.25H51.6875V60.0625ZM101.875 4.375H124.125L108.125 48.5625L125.938 94H103.625L92.875 65.0625H92.5L81.75 94H59.625L77.4375 47.8125L61.4375 4.375H83.5625L92.5 31.4375H92.875L101.875 4.375ZM133.562 4.375H168.375C175.708 4.375 181.833 7.5 186.75 13.75C191.667 20.0417 194.125 27.7708 194.125 36.9375C194.125 46.3125 191.708 53.9167 186.875 59.75C182.042 65.5833 175.875 68.5 168.375 68.5H156.5V94H133.562V4.375ZM156.5 48.0625H161.562C164.438 48.0625 166.729 46.9375 168.438 44.6875C170.104 42.5208 170.938 39.8958 170.938 36.8125C170.938 33.6042 170.104 30.8958 168.438 28.6875C166.729 26.4792 164.438 25.375 161.562 25.375H156.5V48.0625ZM252.812 60.0625H227V73.125H256.438V94H204.062V4.375H255.625V25.25H227V41.25H252.812V60.0625ZM315.5 54.3125V54.9375C319.833 56.3125 322.625 60.4167 323.875 67.25L328.688 94H304.625L300.438 69.1875C299.646 65.0625 297.208 62.9583 293.125 62.875H292V94H269.062V4.375H300.438C308.188 4.375 314.5 6.85417 319.375 11.8125C324.25 16.7292 326.688 23.4375 326.688 31.9375C326.688 42.0208 322.958 49.4792 315.5 54.3125ZM292 44.875H295.312C297.854 44.875 299.938 43.9583 301.562 42.125C303.188 40.2917 304 37.9583 304 35.125C304 32.2083 303.188 29.8333 301.562 28C299.938 26.1667 297.854 25.25 295.312 25.25H292V44.875ZM363.375 94H340.438V4.375H363.375V94ZM427.938 60.0625H402.125V73.125H431.562V94H379.188V4.375H430.75V25.25H402.125V41.25H427.938V60.0625ZM477.312 40.125H477.75V4.375H500.625V94H485.812L467.5 58.4375H467.25V94H444.188V4.375H459.062L477.312 40.125ZM551.625 75.0625C555.375 75.0625 559.646 73.2292 564.438 69.5625L568.812 90.5625C563.604 94.1458 556.604 95.9375 547.812 95.9375C537.146 95.9375 528.75 92.2083 522.625 84.75C516.458 77.3333 513.375 65.4792 513.375 49.1875C513.375 32.8542 516.458 21.0208 522.625 13.6875C528.75 6.3125 537.146 2.625 547.812 2.625C557.396 2.625 563.958 3.77083 567.5 6.0625L562 26.4375C559.333 24.4792 555.875 23.5 551.625 23.5C546.875 23.5 543.146 25.375 540.438 29.125C537.729 32.9167 536.375 39.6042 536.375 49.1875C536.375 58.8542 537.729 65.5833 540.438 69.375C543.104 73.1667 546.833 75.0625 551.625 75.0625ZM601 94H578.062V4.375H601V94ZM608.125 94L627.438 4.375H656.25L675.688 94H652.625L650.5 80.5625H633.312L631.125 94H608.125ZM641.5 31.5625L636.375 62.25H647.375L642.125 31.5625H641.5Z"/>
<path d="M51.6875 168.062H25.875V181.125H55.3125V202H2.9375V112.375H54.5V133.25H25.875V149.25H51.6875V168.062ZM104.938 156.188H105.188L119 112.375H142.562V202H120.312V164.375H119.75L107.75 202H102.25L90.3125 164.375H89.8125V202H67.5625V112.375H91.125L104.938 156.188ZM158.062 112.375H192.875C200.208 112.375 206.333 115.5 211.25 121.75C216.167 128.042 218.625 135.771 218.625 144.938C218.625 154.312 216.208 161.917 211.375 167.75C206.542 173.583 200.375 176.5 192.875 176.5H181V202H158.062V112.375ZM181 156.062H186.062C188.938 156.062 191.229 154.938 192.938 152.688C194.604 150.521 195.438 147.896 195.438 144.812C195.438 141.604 194.604 138.896 192.938 136.688C191.229 134.479 188.938 133.375 186.062 133.375H181V156.062ZM228.562 112.375H251.5V181.125H277.562V202H228.562V112.375ZM336.812 168.062H311V181.125H340.438V202H288.062V112.375H339.625V133.25H311V149.25H336.812V168.062ZM344.375 202L363.688 112.375H392.5L411.938 202H388.875L386.75 188.562H369.562L367.375 202H344.375ZM377.75 139.562L372.625 170.25H383.625L378.375 139.562H377.75ZM419.062 112.375H447.25C456.625 112.375 464.333 116.583 470.375 125C476.375 133.417 479.375 144.146 479.375 157.188C479.375 170.271 476.375 181 470.375 189.375C464.333 197.792 456.625 202 447.25 202H419.062V112.375ZM442 181.125H443.875C447.542 181.125 450.542 178.875 452.875 174.375C455.167 169.958 456.312 164.229 456.312 157.188C456.312 150.146 455.167 144.396 452.875 139.938C450.542 135.479 447.542 133.25 443.875 133.25H442V181.125ZM497.75 121.625C503.542 114.208 511.542 110.5 521.75 110.5C531.958 110.5 539.958 114.208 545.75 121.625C551.583 129.083 554.5 140.938 554.5 157.188C554.5 173.521 551.583 185.396 545.75 192.812C539.958 200.229 531.958 203.938 521.75 203.938C511.542 203.938 503.542 200.229 497.75 192.812C491.917 185.396 489 173.521 489 157.188C489 140.938 491.917 129.083 497.75 121.625ZM514.5 177.5C516.208 181.208 518.625 183.062 521.75 183.062C524.875 183.062 527.292 181.208 529 177.5C530.667 173.875 531.5 167.104 531.5 157.188C531.5 147.438 530.667 140.708 529 137C527.333 133.25 524.917 131.375 521.75 131.375C518.583 131.375 516.167 133.25 514.5 137C512.833 140.708 512 147.438 512 157.188C512 167.104 512.833 173.875 514.5 177.5Z"/>
</mask>
<path d="M51.6875 60.0625H25.875V73.125H55.3125V94H2.9375V4.375H54.5V25.25H25.875V41.25H51.6875V60.0625ZM101.875 4.375H124.125L108.125 48.5625L125.938 94H103.625L92.875 65.0625H92.5L81.75 94H59.625L77.4375 47.8125L61.4375 4.375H83.5625L92.5 31.4375H92.875L101.875 4.375ZM133.562 4.375H168.375C175.708 4.375 181.833 7.5 186.75 13.75C191.667 20.0417 194.125 27.7708 194.125 36.9375C194.125 46.3125 191.708 53.9167 186.875 59.75C182.042 65.5833 175.875 68.5 168.375 68.5H156.5V94H133.562V4.375ZM156.5 48.0625H161.562C164.438 48.0625 166.729 46.9375 168.438 44.6875C170.104 42.5208 170.938 39.8958 170.938 36.8125C170.938 33.6042 170.104 30.8958 168.438 28.6875C166.729 26.4792 164.438 25.375 161.562 25.375H156.5V48.0625ZM252.812 60.0625H227V73.125H256.438V94H204.062V4.375H255.625V25.25H227V41.25H252.812V60.0625ZM315.5 54.3125V54.9375C319.833 56.3125 322.625 60.4167 323.875 67.25L328.688 94H304.625L300.438 69.1875C299.646 65.0625 297.208 62.9583 293.125 62.875H292V94H269.062V4.375H300.438C308.188 4.375 314.5 6.85417 319.375 11.8125C324.25 16.7292 326.688 23.4375 326.688 31.9375C326.688 42.0208 322.958 49.4792 315.5 54.3125ZM292 44.875H295.312C297.854 44.875 299.938 43.9583 301.562 42.125C303.188 40.2917 304 37.9583 304 35.125C304 32.2083 303.188 29.8333 301.562 28C299.938 26.1667 297.854 25.25 295.312 25.25H292V44.875ZM363.375 94H340.438V4.375H363.375V94ZM427.938 60.0625H402.125V73.125H431.562V94H379.188V4.375H430.75V25.25H402.125V41.25H427.938V60.0625ZM477.312 40.125H477.75V4.375H500.625V94H485.812L467.5 58.4375H467.25V94H444.188V4.375H459.062L477.312 40.125ZM551.625 75.0625C555.375 75.0625 559.646 73.2292 564.438 69.5625L568.812 90.5625C563.604 94.1458 556.604 95.9375 547.812 95.9375C537.146 95.9375 528.75 92.2083 522.625 84.75C516.458 77.3333 513.375 65.4792 513.375 49.1875C513.375 32.8542 516.458 21.0208 522.625 13.6875C528.75 6.3125 537.146 2.625 547.812 2.625C557.396 2.625 563.958 3.77083 567.5 6.0625L562 26.4375C559.333 24.4792 555.875 23.5 551.625 23.5C546.875 23.5 543.146 25.375 540.438 29.125C537.729 32.9167 536.375 39.6042 536.375 49.1875C536.375 58.8542 537.729 65.5833 540.438 69.375C543.104 73.1667 546.833 75.0625 551.625 75.0625ZM601 94H578.062V4.375H601V94ZM608.125 94L627.438 4.375H656.25L675.688 94H652.625L650.5 80.5625H633.312L631.125 94H608.125ZM641.5 31.5625L636.375 62.25H647.375L642.125 31.5625H641.5Z" fill="black"/>
<path d="M51.6875 60.0625V62.0625H53.6875V60.0625H51.6875ZM25.875 60.0625V58.0625H23.875V60.0625H25.875ZM25.875 73.125H23.875V75.125H25.875V73.125ZM55.3125 73.125H57.3125V71.125H55.3125V73.125ZM55.3125 94V96H57.3125V94H55.3125ZM2.9375 94H0.9375V96H2.9375V94ZM2.9375 4.375V2.375H0.9375V4.375H2.9375ZM54.5 4.375H56.5V2.375H54.5V4.375ZM54.5 25.25V27.25H56.5V25.25H54.5ZM25.875 25.25V23.25H23.875V25.25H25.875ZM25.875 41.25H23.875V43.25H25.875V41.25ZM51.6875 41.25H53.6875V39.25H51.6875V41.25ZM51.6875 60.0625V58.0625H25.875V60.0625V62.0625H51.6875V60.0625ZM25.875 60.0625H23.875V73.125H25.875H27.875V60.0625H25.875ZM25.875 73.125V75.125H55.3125V73.125V71.125H25.875V73.125ZM55.3125 73.125H53.3125V94H55.3125H57.3125V73.125H55.3125ZM55.3125 94V92H2.9375V94V96H55.3125V94ZM2.9375 94H4.9375V4.375H2.9375H0.9375V94H2.9375ZM2.9375 4.375V6.375H54.5V4.375V2.375H2.9375V4.375ZM54.5 4.375H52.5V25.25H54.5H56.5V4.375H54.5ZM54.5 25.25V23.25H25.875V25.25V27.25H54.5V25.25ZM25.875 25.25H23.875V41.25H25.875H27.875V25.25H25.875ZM25.875 41.25V43.25H51.6875V41.25V39.25H25.875V41.25ZM51.6875 41.25H49.6875V60.0625H51.6875H53.6875V41.25H51.6875ZM101.875 4.375V2.375H100.432L99.9772 3.74386L101.875 4.375ZM124.125 4.375L126.006 5.05592L126.976 2.375H124.125V4.375ZM108.125 48.5625L106.244 47.8816L105.988 48.5905L106.263 49.2925L108.125 48.5625ZM125.938 94V96H128.87L127.8 93.27L125.938 94ZM103.625 94L101.75 94.6965L102.234 96H103.625V94ZM92.875 65.0625L94.7498 64.366L94.2656 63.0625H92.875V65.0625ZM92.5 65.0625V63.0625H91.1094L90.6252 64.366L92.5 65.0625ZM81.75 94V96H83.1406L83.6248 94.6965L81.75 94ZM59.625 94L57.759 93.2803L56.7101 96H59.625V94ZM77.4375 47.8125L79.3035 48.5322L79.5748 47.8287L79.3142 47.1212L77.4375 47.8125ZM61.4375 4.375V2.375H58.5694L59.5608 5.06629L61.4375 4.375ZM83.5625 4.375L85.4616 3.74781L85.0082 2.375H83.5625V4.375ZM92.5 31.4375L90.6009 32.0647L91.0543 33.4375H92.5V31.4375ZM92.875 31.4375V33.4375H94.3176L94.7728 32.0686L92.875 31.4375ZM101.875 4.375V6.375H124.125V4.375V2.375H101.875V4.375ZM124.125 4.375L122.244 3.69408L106.244 47.8816L108.125 48.5625L110.006 49.2434L126.006 5.05592L124.125 4.375ZM108.125 48.5625L106.263 49.2925L124.075 94.73L125.938 94L127.8 93.27L109.987 47.8325L108.125 48.5625ZM125.938 94V92H103.625V94V96H125.938V94ZM103.625 94L105.5 93.3035L94.7498 64.366L92.875 65.0625L91.0002 65.759L101.75 94.6965L103.625 94ZM92.875 65.0625V63.0625H92.5V65.0625V67.0625H92.875V65.0625ZM92.5 65.0625L90.6252 64.366L79.8752 93.3035L81.75 94L83.6248 94.6965L94.3748 65.759L92.5 65.0625ZM81.75 94V92H59.625V94V96H81.75V94ZM59.625 94L61.491 94.7197L79.3035 48.5322L77.4375 47.8125L75.5715 47.0928L57.759 93.2803L59.625 94ZM77.4375 47.8125L79.3142 47.1212L63.3142 3.68371L61.4375 4.375L59.5608 5.06629L75.5608 48.5038L77.4375 47.8125ZM61.4375 4.375V6.375H83.5625V4.375V2.375H61.4375V4.375ZM83.5625 4.375L81.6634 5.00219L90.6009 32.0647L92.5 31.4375L94.3991 30.8103L85.4616 3.74781L83.5625 4.375ZM92.5 31.4375V33.4375H92.875V31.4375V29.4375H92.5V31.4375ZM92.875 31.4375L94.7728 32.0686L103.773 5.00614L101.875 4.375L99.9772 3.74386L90.9772 30.8064L92.875 31.4375ZM133.562 4.375V2.375H131.562V4.375H133.562ZM186.75 13.75L188.326 12.5185L188.322 12.5134L186.75 13.75ZM186.875 59.75L188.415 61.026L186.875 59.75ZM156.5 68.5V66.5H154.5V68.5H156.5ZM156.5 94V96H158.5V94H156.5ZM133.562 94H131.562V96H133.562V94ZM156.5 48.0625H154.5V50.0625H156.5V48.0625ZM168.438 44.6875L166.852 43.4681L166.845 43.4781L168.438 44.6875ZM168.438 28.6875L170.034 27.4827L170.027 27.4732L170.019 27.4638L168.438 28.6875ZM156.5 25.375V23.375H154.5V25.375H156.5ZM133.562 4.375V6.375H168.375V4.375V2.375H133.562V4.375ZM168.375 4.375V6.375C175.038 6.375 180.604 9.17187 185.178 14.9866L186.75 13.75L188.322 12.5134C183.063 5.82813 176.379 2.375 168.375 2.375V4.375ZM186.75 13.75L185.174 14.9815C189.776 20.8706 192.125 28.1479 192.125 36.9375H194.125H196.125C196.125 27.3937 193.557 19.2128 188.326 12.5185L186.75 13.75ZM194.125 36.9375H192.125C192.125 45.9607 189.806 53.0784 185.335 58.474L186.875 59.75L188.415 61.026C193.611 54.7549 196.125 46.6643 196.125 36.9375H194.125ZM186.875 59.75L185.335 58.474C180.877 63.8541 175.273 66.5 168.375 66.5V68.5V70.5C176.477 70.5 183.206 67.3126 188.415 61.026L186.875 59.75ZM168.375 68.5V66.5H156.5V68.5V70.5H168.375V68.5ZM156.5 68.5H154.5V94H156.5H158.5V68.5H156.5ZM156.5 94V92H133.562V94V96H156.5V94ZM133.562 94H135.562V4.375H133.562H131.562V94H133.562ZM156.5 48.0625V50.0625H161.562V48.0625V46.0625H156.5V48.0625ZM161.562 48.0625V50.0625C165.05 50.0625 167.936 48.6553 170.03 45.8969L168.438 44.6875L166.845 43.4781C165.522 45.2197 163.825 46.0625 161.562 46.0625V48.0625ZM168.438 44.6875L170.023 45.9069C171.992 43.3464 172.938 40.2776 172.938 36.8125H170.938H168.938C168.938 39.5141 168.216 41.6953 166.852 43.4681L168.438 44.6875ZM170.938 36.8125H172.938C172.938 33.2416 172.003 30.0916 170.034 27.4827L168.438 28.6875L166.841 29.8923C168.205 31.7001 168.938 33.9668 168.938 36.8125H170.938ZM168.438 28.6875L170.019 27.4638C167.919 24.749 165.035 23.375 161.562 23.375V25.375V27.375C163.84 27.375 165.539 28.2093 166.856 29.9112L168.438 28.6875ZM161.562 25.375V23.375H156.5V25.375V27.375H161.562V25.375ZM156.5 25.375H154.5V48.0625H156.5H158.5V25.375H156.5ZM252.812 60.0625V62.0625H254.812V60.0625H252.812ZM227 60.0625V58.0625H225V60.0625H227ZM227 73.125H225V75.125H227V73.125ZM256.438 73.125H258.438V71.125H256.438V73.125ZM256.438 94V96H258.438V94H256.438ZM204.062 94H202.062V96H204.062V94ZM204.062 4.375V2.375H202.062V4.375H204.062ZM255.625 4.375H257.625V2.375H255.625V4.375ZM255.625 25.25V27.25H257.625V25.25H255.625ZM227 25.25V23.25H225V25.25H227ZM227 41.25H225V43.25H227V41.25ZM252.812 41.25H254.812V39.25H252.812V41.25ZM252.812 60.0625V58.0625H227V60.0625V62.0625H252.812V60.0625ZM227 60.0625H225V73.125H227H229V60.0625H227ZM227 73.125V75.125H256.438V73.125V71.125H227V73.125ZM256.438 73.125H254.438V94H256.438H258.438V73.125H256.438ZM256.438 94V92H204.062V94V96H256.438V94ZM204.062 94H206.062V4.375H204.062H202.062V94H204.062ZM204.062 4.375V6.375H255.625V4.375V2.375H204.062V4.375ZM255.625 4.375H253.625V25.25H255.625H257.625V4.375H255.625ZM255.625 25.25V23.25H227V25.25V27.25H255.625V25.25ZM227 25.25H225V41.25H227H229V25.25H227ZM227 41.25V43.25H252.812V41.25V39.25H227V41.25ZM252.812 41.25H250.812V60.0625H252.812H254.812V41.25H252.812ZM315.5 54.3125L314.412 52.6341L313.5 53.2253V54.3125H315.5ZM315.5 54.9375H313.5V56.4012L314.895 56.8438L315.5 54.9375ZM323.875 67.25L325.843 66.8959L325.842 66.8901L323.875 67.25ZM328.688 94V96H331.079L330.656 93.6459L328.688 94ZM304.625 94L302.653 94.3328L302.934 96H304.625V94ZM300.438 69.1875L302.41 68.8547L302.406 68.8326L302.402 68.8105L300.438 69.1875ZM293.125 62.875L293.166 60.8754L293.145 60.875H293.125V62.875ZM292 62.875V60.875H290V62.875H292ZM292 94V96H294V94H292ZM269.062 94H267.062V96H269.062V94ZM269.062 4.375V2.375H267.062V4.375H269.062ZM319.375 11.8125L317.949 13.2147L317.955 13.2207L319.375 11.8125ZM292 44.875H290V46.875H292V44.875ZM292 25.25V23.25H290V25.25H292ZM315.5 54.3125H313.5V54.9375H315.5H317.5V54.3125H315.5ZM315.5 54.9375L314.895 56.8438C318.192 57.89 320.714 61.0834 321.908 67.6099L323.875 67.25L325.842 66.8901C324.536 59.75 321.475 54.735 316.105 53.0312L315.5 54.9375ZM323.875 67.25L321.907 67.6041L326.719 94.3541L328.688 94L330.656 93.6459L325.843 66.8959L323.875 67.25ZM328.688 94V92H304.625V94V96H328.688V94ZM304.625 94L306.597 93.6672L302.41 68.8547L300.438 69.1875L298.465 69.5203L302.653 94.3328L304.625 94ZM300.438 69.1875L302.402 68.8105C301.947 66.4414 300.974 64.427 299.323 63.0017C297.665 61.571 295.545 60.924 293.166 60.8754L293.125 62.875L293.084 64.8746C294.788 64.9094 295.929 65.3561 296.709 66.0296C297.495 66.7084 298.136 67.8086 298.473 69.5645L300.438 69.1875ZM293.125 62.875V60.875H292V62.875V64.875H293.125V62.875ZM292 62.875H290V94H292H294V62.875H292ZM292 94V92H269.062V94V96H292V94ZM269.062 94H271.062V4.375H269.062H267.062V94H269.062ZM269.062 4.375V6.375H300.438V4.375V2.375H269.062V4.375ZM300.438 4.375V6.375C307.719 6.375 313.495 8.68431 317.949 13.2147L319.375 11.8125L320.801 10.4103C315.505 5.02402 308.656 2.375 300.438 2.375V4.375ZM319.375 11.8125L317.955 13.2207C322.377 17.6811 324.688 23.8376 324.688 31.9375H326.688H328.688C328.688 23.0374 326.123 15.7772 320.795 10.4043L319.375 11.8125ZM326.688 31.9375H324.688C324.688 41.4501 321.217 48.2242 314.412 52.6341L315.5 54.3125L316.588 55.9909C324.699 50.7341 328.688 42.5915 328.688 31.9375H326.688ZM292 44.875V46.875H295.312V44.875V42.875H292V44.875ZM295.312 44.875V46.875C298.402 46.875 301.039 45.7311 303.059 43.4516L301.562 42.125L300.066 40.7984C298.836 42.1855 297.306 42.875 295.312 42.875V44.875ZM301.562 42.125L303.059 43.4516C305.059 41.1958 306 38.3658 306 35.125H304H302C302 37.5508 301.316 39.3875 300.066 40.7984L301.562 42.125ZM304 35.125H306C306 31.8176 305.068 28.9399 303.059 26.6734L301.562 28L300.066 29.3266C301.307 30.7268 302 32.599 302 35.125H304ZM301.562 28L303.059 26.6734C301.039 24.3939 298.402 23.25 295.312 23.25V25.25V27.25C297.306 27.25 298.836 27.9395 300.066 29.3266L301.562 28ZM295.312 25.25V23.25H292V25.25V27.25H295.312V25.25ZM292 25.25H290V44.875H292H294V25.25H292ZM363.375 94V96H365.375V94H363.375ZM340.438 94H338.438V96H340.438V94ZM340.438 4.375V2.375H338.438V4.375H340.438ZM363.375 4.375H365.375V2.375H363.375V4.375ZM363.375 94V92H340.438V94V96H363.375V94ZM340.438 94H342.438V4.375H340.438H338.438V94H340.438ZM340.438 4.375V6.375H363.375V4.375V2.375H340.438V4.375ZM363.375 4.375H361.375V94H363.375H365.375V4.375H363.375ZM427.938 60.0625V62.0625H429.938V60.0625H427.938ZM402.125 60.0625V58.0625H400.125V60.0625H402.125ZM402.125 73.125H400.125V75.125H402.125V73.125ZM431.562 73.125H433.562V71.125H431.562V73.125ZM431.562 94V96H433.562V94H431.562ZM379.188 94H377.188V96H379.188V94ZM379.188 4.375V2.375H377.188V4.375H379.188ZM430.75 4.375H432.75V2.375H430.75V4.375ZM430.75 25.25V27.25H432.75V25.25H430.75ZM402.125 25.25V23.25H400.125V25.25H402.125ZM402.125 41.25H400.125V43.25H402.125V41.25ZM427.938 41.25H429.938V39.25H427.938V41.25ZM427.938 60.0625V58.0625H402.125V60.0625V62.0625H427.938V60.0625ZM402.125 60.0625H400.125V73.125H402.125H404.125V60.0625H402.125ZM402.125 73.125V75.125H431.562V73.125V71.125H402.125V73.125ZM431.562 73.125H429.562V94H431.562H433.562V73.125H431.562ZM431.562 94V92H379.188V94V96H431.562V94ZM379.188 94H381.188V4.375H379.188H377.188V94H379.188ZM379.188 4.375V6.375H430.75V4.375V2.375H379.188V4.375ZM430.75 4.375H428.75V25.25H430.75H432.75V4.375H430.75ZM430.75 25.25V23.25H402.125V25.25V27.25H430.75V25.25ZM402.125 25.25H400.125V41.25H402.125H404.125V25.25H402.125ZM402.125 41.25V43.25H427.938V41.25V39.25H402.125V41.25ZM427.938 41.25H425.938V60.0625H427.938H429.938V41.25H427.938ZM477.312 40.125L475.531 41.0343L476.088 42.125H477.312V40.125ZM477.75 40.125V42.125H479.75V40.125H477.75ZM477.75 4.375V2.375H475.75V4.375H477.75ZM500.625 4.375H502.625V2.375H500.625V4.375ZM500.625 94V96H502.625V94H500.625ZM485.812 94L484.034 94.9156L484.593 96H485.812V94ZM467.5 58.4375L469.278 57.5219L468.72 56.4375H467.5V58.4375ZM467.25 58.4375V56.4375H465.25V58.4375H467.25ZM467.25 94V96H469.25V94H467.25ZM444.188 94H442.188V96H444.188V94ZM444.188 4.375V2.375H442.188V4.375H444.188ZM459.062 4.375L460.844 3.46566L460.287 2.375H459.062V4.375ZM477.312 40.125V42.125H477.75V40.125V38.125H477.312V40.125ZM477.75 40.125H479.75V4.375H477.75H475.75V40.125H477.75ZM477.75 4.375V6.375H500.625V4.375V2.375H477.75V4.375ZM500.625 4.375H498.625V94H500.625H502.625V4.375H500.625ZM500.625 94V92H485.812V94V96H500.625V94ZM485.812 94L487.591 93.0844L469.278 57.5219L467.5 58.4375L465.722 59.3531L484.034 94.9156L485.812 94ZM467.5 58.4375V56.4375H467.25V58.4375V60.4375H467.5V58.4375ZM467.25 58.4375H465.25V94H467.25H469.25V58.4375H467.25ZM467.25 94V92H444.188V94V96H467.25V94ZM444.188 94H446.188V4.375H444.188H442.188V94H444.188ZM444.188 4.375V6.375H459.062V4.375V2.375H444.188V4.375ZM459.062 4.375L457.281 5.28434L475.531 41.0343L477.312 40.125L479.094 39.2157L460.844 3.46566L459.062 4.375ZM564.438 69.5625L566.395 69.1546L565.747 66.0421L563.222 67.9742L564.438 69.5625ZM568.812 90.5625L569.946 92.2102L571.042 91.4565L570.77 90.1546L568.812 90.5625ZM522.625 84.75L524.171 83.4807L524.163 83.4713L522.625 84.75ZM522.625 13.6875L524.156 14.9747L524.164 14.9653L522.625 13.6875ZM567.5 6.0625L569.431 6.58372L569.811 5.17567L568.586 4.38336L567.5 6.0625ZM562 26.4375L560.816 28.0495L563.17 29.778L563.931 26.9587L562 26.4375ZM540.438 29.125L538.816 27.954L538.81 27.9625L540.438 29.125ZM540.438 69.375L542.073 68.2245L542.069 68.2185L542.065 68.2125L540.438 69.375ZM551.625 75.0625V77.0625C556.01 77.0625 560.709 74.9339 565.653 71.1508L564.438 69.5625L563.222 67.9742C558.583 71.5244 554.74 73.0625 551.625 73.0625V75.0625ZM564.438 69.5625L562.48 69.9704L566.855 90.9704L568.812 90.5625L570.77 90.1546L566.395 69.1546L564.438 69.5625ZM568.812 90.5625L567.679 88.9148C562.911 92.195 556.353 93.9375 547.812 93.9375V95.9375V97.9375C556.856 97.9375 564.297 96.0967 569.946 92.2102L568.812 90.5625ZM547.812 95.9375V93.9375C537.673 93.9375 529.873 90.4239 524.171 83.4807L522.625 84.75L521.079 86.0193C527.627 93.9927 536.619 97.9375 547.812 97.9375V95.9375ZM522.625 84.75L524.163 83.4713C518.441 76.5892 515.375 65.307 515.375 49.1875H513.375H511.375C511.375 65.6514 514.476 78.0775 521.087 86.0287L522.625 84.75ZM513.375 49.1875H515.375C515.375 33.0218 518.442 21.7689 524.156 14.9747L522.625 13.6875L521.094 12.4003C514.474 20.2728 511.375 32.6865 511.375 49.1875H513.375ZM522.625 13.6875L524.164 14.9653C529.863 8.10301 537.665 4.625 547.812 4.625V2.625V0.625C536.627 0.625 527.637 4.52199 521.086 12.4097L522.625 13.6875ZM547.812 2.625V4.625C552.534 4.625 556.448 4.90801 559.578 5.45457C562.731 6.00506 564.961 6.80159 566.414 7.74164L567.5 6.0625L568.586 4.38336C566.498 3.03174 563.676 2.10952 560.266 1.51418C556.834 0.914903 552.674 0.625 547.812 0.625V2.625ZM567.5 6.0625L565.569 5.54128L560.069 25.9163L562 26.4375L563.931 26.9587L569.431 6.58372L567.5 6.0625ZM562 26.4375L563.184 24.8255C560.087 22.5516 556.179 21.5 551.625 21.5V23.5V25.5C555.571 25.5 558.579 26.4068 560.816 28.0495L562 26.4375ZM551.625 23.5V21.5C546.253 21.5 541.912 23.6671 538.816 27.954L540.438 29.125L542.059 30.296C544.379 27.0829 547.497 25.5 551.625 25.5V23.5ZM540.438 29.125L538.81 27.9625C535.711 32.3011 534.375 39.5488 534.375 49.1875H536.375H538.375C538.375 39.6595 539.747 33.5323 542.065 30.2875L540.438 29.125ZM536.375 49.1875H534.375C534.375 58.905 535.71 66.1972 538.81 70.5375L540.438 69.375L542.065 68.2125C539.749 64.9695 538.375 58.8033 538.375 49.1875H536.375ZM540.438 69.375L538.802 70.5255C541.858 74.8707 546.208 77.0625 551.625 77.0625V75.0625V73.0625C547.458 73.0625 544.351 71.4626 542.073 68.2245L540.438 69.375ZM601 94V96H603V94H601ZM578.062 94H576.062V96H578.062V94ZM578.062 4.375V2.375H576.062V4.375H578.062ZM601 4.375H603V2.375H601V4.375ZM601 94V92H578.062V94V96H601V94ZM578.062 94H580.062V4.375H578.062H576.062V94H578.062ZM578.062 4.375V6.375H601V4.375V2.375H578.062V4.375ZM601 4.375H599V94H601H603V4.375H601ZM608.125 94L606.17 93.5787L605.648 96H608.125V94ZM627.438 4.375V2.375H625.823L625.482 3.95371L627.438 4.375ZM656.25 4.375L658.205 3.9511L657.863 2.375H656.25V4.375ZM675.688 94V96H678.168L677.642 93.5761L675.688 94ZM652.625 94L650.65 94.3124L650.916 96H652.625V94ZM650.5 80.5625L652.475 80.2501L652.209 78.5625H650.5V80.5625ZM633.312 80.5625V78.5625H631.612L631.339 80.2411L633.312 80.5625ZM631.125 94V96H632.826L633.099 94.3214L631.125 94ZM641.5 31.5625V29.5625H639.806L639.527 31.2331L641.5 31.5625ZM636.375 62.25L634.402 61.9206L634.013 64.25H636.375V62.25ZM647.375 62.25V64.25H649.746L649.346 61.9127L647.375 62.25ZM642.125 31.5625L644.096 31.2252L643.812 29.5625H642.125V31.5625ZM608.125 94L610.08 94.4213L629.393 4.79629L627.438 4.375L625.482 3.95371L606.17 93.5787L608.125 94ZM627.438 4.375V6.375H656.25V4.375V2.375H627.438V4.375ZM656.25 4.375L654.295 4.7989L673.733 94.4239L675.688 94L677.642 93.5761L658.205 3.9511L656.25 4.375ZM675.688 94V92H652.625V94V96H675.688V94ZM652.625 94L654.6 93.6876L652.475 80.2501L650.5 80.5625L648.525 80.8749L650.65 94.3124L652.625 94ZM650.5 80.5625V78.5625H633.312V80.5625V82.5625H650.5V80.5625ZM633.312 80.5625L631.339 80.2411L629.151 93.6786L631.125 94L633.099 94.3214L635.286 80.8839L633.312 80.5625ZM631.125 94V92H608.125V94V96H631.125V94ZM641.5 31.5625L639.527 31.2331L634.402 61.9206L636.375 62.25L638.348 62.5794L643.473 31.8919L641.5 31.5625ZM636.375 62.25V64.25H647.375V62.25V60.25H636.375V62.25ZM647.375 62.25L649.346 61.9127L644.096 31.2252L642.125 31.5625L640.154 31.8998L645.404 62.5873L647.375 62.25ZM642.125 31.5625V29.5625H641.5V31.5625V33.5625H642.125V31.5625ZM51.6875 168.062V170.062H53.6875V168.062H51.6875ZM25.875 168.062V166.062H23.875V168.062H25.875ZM25.875 181.125H23.875V183.125H25.875V181.125ZM55.3125 181.125H57.3125V179.125H55.3125V181.125ZM55.3125 202V204H57.3125V202H55.3125ZM2.9375 202H0.9375V204H2.9375V202ZM2.9375 112.375V110.375H0.9375V112.375H2.9375ZM54.5 112.375H56.5V110.375H54.5V112.375ZM54.5 133.25V135.25H56.5V133.25H54.5ZM25.875 133.25V131.25H23.875V133.25H25.875ZM25.875 149.25H23.875V151.25H25.875V149.25ZM51.6875 149.25H53.6875V147.25H51.6875V149.25ZM51.6875 168.062V166.062H25.875V168.062V170.062H51.6875V168.062ZM25.875 168.062H23.875V181.125H25.875H27.875V168.062H25.875ZM25.875 181.125V183.125H55.3125V181.125V179.125H25.875V181.125ZM55.3125 181.125H53.3125V202H55.3125H57.3125V181.125H55.3125ZM55.3125 202V200H2.9375V202V204H55.3125V202ZM2.9375 202H4.9375V112.375H2.9375H0.9375V202H2.9375ZM2.9375 112.375V114.375H54.5V112.375V110.375H2.9375V112.375ZM54.5 112.375H52.5V133.25H54.5H56.5V112.375H54.5ZM54.5 133.25V131.25H25.875V133.25V135.25H54.5V133.25ZM25.875 133.25H23.875V149.25H25.875H27.875V133.25H25.875ZM25.875 149.25V151.25H51.6875V149.25V147.25H25.875V149.25ZM51.6875 149.25H49.6875V168.062H51.6875H53.6875V149.25H51.6875ZM104.938 156.188L103.03 156.789L103.471 158.188H104.938V156.188ZM105.188 156.188V158.188H106.654L107.095 156.789L105.188 156.188ZM119 112.375V110.375H117.533L117.093 111.774L119 112.375ZM142.562 112.375H144.562V110.375H142.562V112.375ZM142.562 202V204H144.562V202H142.562ZM120.312 202H118.312V204H120.312V202ZM120.312 164.375H122.312V162.375H120.312V164.375ZM119.75 164.375V162.375H118.289L117.845 163.767L119.75 164.375ZM107.75 202V204H109.211L109.655 202.608L107.75 202ZM102.25 202L100.344 202.605L100.786 204H102.25V202ZM90.3125 164.375L92.2188 163.77L91.7762 162.375H90.3125V164.375ZM89.8125 164.375V162.375H87.8125V164.375H89.8125ZM89.8125 202V204H91.8125V202H89.8125ZM67.5625 202H65.5625V204H67.5625V202ZM67.5625 112.375V110.375H65.5625V112.375H67.5625ZM91.125 112.375L93.0325 111.774L92.5915 110.375H91.125V112.375ZM104.938 156.188V158.188H105.188V156.188V154.188H104.938V156.188ZM105.188 156.188L107.095 156.789L120.907 112.976L119 112.375L117.093 111.774L103.28 155.586L105.188 156.188ZM119 112.375V114.375H142.562V112.375V110.375H119V112.375ZM142.562 112.375H140.562V202H142.562H144.562V112.375H142.562ZM142.562 202V200H120.312V202V204H142.562V202ZM120.312 202H122.312V164.375H120.312H118.312V202H120.312ZM120.312 164.375V162.375H119.75V164.375V166.375H120.312V164.375ZM119.75 164.375L117.845 163.767L105.845 201.392L107.75 202L109.655 202.608L121.655 164.983L119.75 164.375ZM107.75 202V200H102.25V202V204H107.75V202ZM102.25 202L104.156 201.395L92.2188 163.77L90.3125 164.375L88.4062 164.98L100.344 202.605L102.25 202ZM90.3125 164.375V162.375H89.8125V164.375V166.375H90.3125V164.375ZM89.8125 164.375H87.8125V202H89.8125H91.8125V164.375H89.8125ZM89.8125 202V200H67.5625V202V204H89.8125V202ZM67.5625 202H69.5625V112.375H67.5625H65.5625V202H67.5625ZM67.5625 112.375V114.375H91.125V112.375V110.375H67.5625V112.375ZM91.125 112.375L89.2175 112.976L103.03 156.789L104.938 156.188L106.845 155.586L93.0325 111.774L91.125 112.375ZM158.062 112.375V110.375H156.062V112.375H158.062ZM211.25 121.75L212.826 120.519L212.822 120.513L211.25 121.75ZM211.375 167.75L212.915 169.026L211.375 167.75ZM181 176.5V174.5H179V176.5H181ZM181 202V204H183V202H181ZM158.062 202H156.062V204H158.062V202ZM181 156.062H179V158.062H181V156.062ZM192.938 152.688L191.352 151.468L191.345 151.478L192.938 152.688ZM192.938 136.688L194.534 135.483L194.527 135.473L194.519 135.464L192.938 136.688ZM181 133.375V131.375H179V133.375H181ZM158.062 112.375V114.375H192.875V112.375V110.375H158.062V112.375ZM192.875 112.375V114.375C199.538 114.375 205.104 117.172 209.678 122.987L211.25 121.75L212.822 120.513C207.563 113.828 200.879 110.375 192.875 110.375V112.375ZM211.25 121.75L209.674 122.981C214.276 128.871 216.625 136.148 216.625 144.938H218.625H220.625C220.625 135.394 218.057 127.213 212.826 120.519L211.25 121.75ZM218.625 144.938H216.625C216.625 153.961 214.306 161.078 209.835 166.474L211.375 167.75L212.915 169.026C218.111 162.755 220.625 154.664 220.625 144.938H218.625ZM211.375 167.75L209.835 166.474C205.377 171.854 199.773 174.5 192.875 174.5V176.5V178.5C200.977 178.5 207.706 175.313 212.915 169.026L211.375 167.75ZM192.875 176.5V174.5H181V176.5V178.5H192.875V176.5ZM181 176.5H179V202H181H183V176.5H181ZM181 202V200H158.062V202V204H181V202ZM158.062 202H160.062V112.375H158.062H156.062V202H158.062ZM181 156.062V158.062H186.062V156.062V154.062H181V156.062ZM186.062 156.062V158.062C189.55 158.062 192.436 156.655 194.53 153.897L192.938 152.688L191.345 151.478C190.022 153.22 188.325 154.062 186.062 154.062V156.062ZM192.938 152.688L194.523 153.907C196.492 151.346 197.438 148.278 197.438 144.812H195.438H193.438C193.438 147.514 192.716 149.695 191.352 151.468L192.938 152.688ZM195.438 144.812H197.438C197.438 141.242 196.503 138.092 194.534 135.483L192.938 136.688L191.341 137.892C192.705 139.7 193.438 141.967 193.438 144.812H195.438ZM192.938 136.688L194.519 135.464C192.419 132.749 189.535 131.375 186.062 131.375V133.375V135.375C188.34 135.375 190.039 136.209 191.356 137.911L192.938 136.688ZM186.062 133.375V131.375H181V133.375V135.375H186.062V133.375ZM181 133.375H179V156.062H181H183V133.375H181ZM228.562 112.375V110.375H226.562V112.375H228.562ZM251.5 112.375H253.5V110.375H251.5V112.375ZM251.5 181.125H249.5V183.125H251.5V181.125ZM277.562 181.125H279.562V179.125H277.562V181.125ZM277.562 202V204H279.562V202H277.562ZM228.562 202H226.562V204H228.562V202ZM228.562 112.375V114.375H251.5V112.375V110.375H228.562V112.375ZM251.5 112.375H249.5V181.125H251.5H253.5V112.375H251.5ZM251.5 181.125V183.125H277.562V181.125V179.125H251.5V181.125ZM277.562 181.125H275.562V202H277.562H279.562V181.125H277.562ZM277.562 202V200H228.562V202V204H277.562V202ZM228.562 202H230.562V112.375H228.562H226.562V202H228.562ZM336.812 168.062V170.062H338.812V168.062H336.812ZM311 168.062V166.062H309V168.062H311ZM311 181.125H309V183.125H311V181.125ZM340.438 181.125H342.438V179.125H340.438V181.125ZM340.438 202V204H342.438V202H340.438ZM288.062 202H286.062V204H288.062V202ZM288.062 112.375V110.375H286.062V112.375H288.062ZM339.625 112.375H341.625V110.375H339.625V112.375ZM339.625 133.25V135.25H341.625V133.25H339.625ZM311 133.25V131.25H309V133.25H311ZM311 149.25H309V151.25H311V149.25ZM336.812 149.25H338.812V147.25H336.812V149.25ZM336.812 168.062V166.062H311V168.062V170.062H336.812V168.062ZM311 168.062H309V181.125H311H313V168.062H311ZM311 181.125V183.125H340.438V181.125V179.125H311V181.125ZM340.438 181.125H338.438V202H340.438H342.438V181.125H340.438ZM340.438 202V200H288.062V202V204H340.438V202ZM288.062 202H290.062V112.375H288.062H286.062V202H288.062ZM288.062 112.375V114.375H339.625V112.375V110.375H288.062V112.375ZM339.625 112.375H337.625V133.25H339.625H341.625V112.375H339.625ZM339.625 133.25V131.25H311V133.25V135.25H339.625V133.25ZM311 133.25H309V149.25H311H313V133.25H311ZM311 149.25V151.25H336.812V149.25V147.25H311V149.25ZM336.812 149.25H334.812V168.062H336.812H338.812V149.25H336.812ZM344.375 202L342.42 201.579L341.898 204H344.375V202ZM363.688 112.375V110.375H362.073L361.732 111.954L363.688 112.375ZM392.5 112.375L394.455 111.951L394.113 110.375H392.5V112.375ZM411.938 202V204H414.418L413.892 201.576L411.938 202ZM388.875 202L386.9 202.312L387.166 204H388.875V202ZM386.75 188.562L388.725 188.25L388.459 186.562H386.75V188.562ZM369.562 188.562V186.562H367.862L367.588 188.241L369.562 188.562ZM367.375 202V204H369.076L369.349 202.321L367.375 202ZM377.75 139.562V137.562H376.056L375.777 139.233L377.75 139.562ZM372.625 170.25L370.652 169.921L370.263 172.25H372.625V170.25ZM383.625 170.25V172.25H385.996L385.596 169.913L383.625 170.25ZM378.375 139.562L380.346 139.225L380.062 137.562H378.375V139.562ZM344.375 202L346.33 202.421L365.643 112.796L363.688 112.375L361.732 111.954L342.42 201.579L344.375 202ZM363.688 112.375V114.375H392.5V112.375V110.375H363.688V112.375ZM392.5 112.375L390.545 112.799L409.983 202.424L411.938 202L413.892 201.576L394.455 111.951L392.5 112.375ZM411.938 202V200H388.875V202V204H411.938V202ZM388.875 202L390.85 201.688L388.725 188.25L386.75 188.562L384.775 188.875L386.9 202.312L388.875 202ZM386.75 188.562V186.562H369.562V188.562V190.562H386.75V188.562ZM369.562 188.562L367.588 188.241L365.401 201.679L367.375 202L369.349 202.321L371.537 188.884L369.562 188.562ZM367.375 202V200H344.375V202V204H367.375V202ZM377.75 139.562L375.777 139.233L370.652 169.921L372.625 170.25L374.598 170.579L379.723 139.892L377.75 139.562ZM372.625 170.25V172.25H383.625V170.25V168.25H372.625V170.25ZM383.625 170.25L385.596 169.913L380.346 139.225L378.375 139.562L376.404 139.9L381.654 170.587L383.625 170.25ZM378.375 139.562V137.562H377.75V139.562V141.562H378.375V139.562ZM419.062 112.375V110.375H417.062V112.375H419.062ZM470.375 125L472.004 123.839L472 123.834L470.375 125ZM470.375 189.375L472 190.541L472.001 190.54L470.375 189.375ZM419.062 202H417.062V204H419.062V202ZM442 181.125H440V183.125H442V181.125ZM452.875 174.375L451.1 173.454L451.099 173.454L452.875 174.375ZM452.875 139.938L454.654 139.023L454.65 139.017L454.647 139.01L452.875 139.938ZM442 133.25V131.25H440V133.25H442ZM419.062 112.375V114.375H447.25V112.375V110.375H419.062V112.375ZM447.25 112.375V114.375C455.906 114.375 463.038 118.209 468.75 126.166L470.375 125L472 123.834C465.628 114.958 457.344 110.375 447.25 110.375V112.375ZM470.375 125L468.746 126.161C474.448 134.159 477.375 144.452 477.375 157.188H479.375H481.375C481.375 143.839 478.302 132.674 472.004 123.839L470.375 125ZM479.375 157.188H477.375C477.375 169.966 474.447 180.257 468.749 188.21L470.375 189.375L472.001 190.54C478.303 181.743 481.375 170.575 481.375 157.188H479.375ZM470.375 189.375L468.75 188.209C463.038 196.166 455.906 200 447.25 200V202V204C457.344 204 465.628 199.417 472 190.541L470.375 189.375ZM447.25 202V200H419.062V202V204H447.25V202ZM419.062 202H421.062V112.375H419.062H417.062V202H419.062ZM442 181.125V183.125H443.875V181.125V179.125H442V181.125ZM443.875 181.125V183.125C448.567 183.125 452.124 180.168 454.651 175.296L452.875 174.375L451.099 173.454C448.959 177.582 446.516 179.125 443.875 179.125V181.125ZM452.875 174.375L454.65 175.296C457.138 170.502 458.312 164.425 458.312 157.188H456.312H454.312C454.312 164.033 453.195 169.415 451.1 173.454L452.875 174.375ZM456.312 157.188H458.312C458.312 149.949 457.138 143.855 454.654 139.023L452.875 139.938L451.096 140.852C453.196 144.936 454.312 150.343 454.312 157.188H456.312ZM452.875 139.938L454.647 139.01C452.116 134.174 448.558 131.25 443.875 131.25V133.25V135.25C446.526 135.25 448.967 136.784 451.103 140.865L452.875 139.938ZM443.875 133.25V131.25H442V133.25V135.25H443.875V133.25ZM442 133.25H440V181.125H442H444V133.25H442ZM497.75 121.625L499.325 122.857L499.326 122.856L497.75 121.625ZM545.75 121.625L544.174 122.856L544.175 122.857L545.75 121.625ZM545.75 192.812L544.178 191.576L544.174 191.582L545.75 192.812ZM497.75 192.812L499.326 191.582L499.322 191.576L497.75 192.812ZM514.5 177.5L512.683 178.335L512.683 178.337L514.5 177.5ZM529 177.5L530.817 178.337L530.817 178.335L529 177.5ZM529 137L527.172 137.812L527.176 137.82L529 137ZM514.5 137L516.324 137.82L516.328 137.812L514.5 137ZM497.75 121.625L499.326 122.856C504.703 115.97 512.097 112.5 521.75 112.5V110.5V108.5C510.986 108.5 502.38 112.447 496.174 120.394L497.75 121.625ZM521.75 110.5V112.5C531.403 112.5 538.797 115.97 544.174 122.856L545.75 121.625L547.326 120.394C541.12 112.447 532.514 108.5 521.75 108.5V110.5ZM545.75 121.625L544.175 122.857C549.596 129.789 552.5 141.095 552.5 157.188H554.5H556.5C556.5 140.78 553.57 128.378 547.325 120.393L545.75 121.625ZM554.5 157.188H552.5C552.5 173.367 549.595 184.689 544.178 191.576L545.75 192.812L547.322 194.049C553.572 186.102 556.5 173.674 556.5 157.188H554.5ZM545.75 192.812L544.174 191.582C538.797 198.467 531.403 201.938 521.75 201.938V203.938V205.938C532.514 205.938 541.12 201.991 547.326 194.043L545.75 192.812ZM521.75 203.938V201.938C512.097 201.938 504.703 198.467 499.326 191.582L497.75 192.812L496.174 194.043C502.38 201.991 510.986 205.938 521.75 205.938V203.938ZM497.75 192.812L499.322 191.576C493.905 184.689 491 173.367 491 157.188H489H487C487 173.674 489.928 186.102 496.178 194.049L497.75 192.812ZM489 157.188H491C491 141.095 493.904 129.789 499.325 122.857L497.75 121.625L496.175 120.393C489.93 128.378 487 140.78 487 157.188H489ZM514.5 177.5L512.683 178.337C514.599 182.494 517.594 185.062 521.75 185.062V183.062V181.062C519.656 181.062 517.818 179.923 516.317 176.663L514.5 177.5ZM521.75 183.062V185.062C525.906 185.062 528.901 182.494 530.817 178.337L529 177.5L527.183 176.663C525.682 179.923 523.844 181.062 521.75 181.062V183.062ZM529 177.5L530.817 178.335C531.776 176.249 532.433 173.414 532.86 169.947C533.29 166.454 533.5 162.194 533.5 157.188H531.5H529.5C529.5 162.097 529.293 166.182 528.89 169.459C528.483 172.763 527.89 175.126 527.183 176.665L529 177.5ZM531.5 157.188H533.5C533.5 147.444 532.685 140.32 530.824 136.18L529 137L527.176 137.82C528.648 141.097 529.5 147.431 529.5 157.188H531.5ZM529 137L530.828 136.188C529.904 134.11 528.707 132.398 527.164 131.201C525.591 129.981 523.76 129.375 521.75 129.375V131.375V133.375C522.906 133.375 523.867 133.706 524.711 134.361C525.585 135.039 526.429 136.14 527.172 137.812L529 137ZM521.75 131.375V129.375C519.74 129.375 517.909 129.981 516.336 131.201C514.793 132.398 513.596 134.11 512.672 136.188L514.5 137L516.328 137.812C517.071 136.14 517.915 135.039 518.789 134.361C519.633 133.706 520.594 133.375 521.75 133.375V131.375ZM514.5 137L512.676 136.18C510.815 140.32 510 147.444 510 157.188H512H514C514 147.431 514.852 141.097 516.324 137.82L514.5 137ZM512 157.188H510C510 162.194 510.21 166.454 510.64 169.947C511.067 173.414 511.724 176.249 512.683 178.335L514.5 177.5L516.317 176.665C515.61 175.126 515.017 172.763 514.61 169.459C514.207 166.182 514 162.097 514 157.188H512Z" fill="black" mask="url(#path-1-outside-1_0_232)"/>
</svg>
