<svg width="70" height="64" viewBox="0 0 70 64" fill="none" xmlns="http://www.w3.org/2000/svg">
<path d="M0 20C0 8.95431 8.95431 0 20 0H44C55.0457 0 64 8.95431 64 20V44C64 55.0457 55.0457 64 44 64H20C8.95431 64 0 55.0457 0 44V20Z" fill="#FBF9FF"/>
<mask id="mask0_236_53" style="mask-type:luminance" maskUnits="userSpaceOnUse" x="2" y="11" width="68" height="39">
<path d="M69.3 11H2V49.4H69.3V11Z" fill="white"/>
</mask>
<g mask="url(#mask0_236_53)">
<mask id="mask1_236_53" style="mask-type:luminance" maskUnits="userSpaceOnUse" x="7" y="14" width="175" height="38">
<path d="M181.7 14.7H7.7V51.9H181.7V14.7Z" fill="white"/>
</mask>
<g mask="url(#mask1_236_53)">
<path d="M38.8 14.7H35.5V22.4H38.8V14.7Z" fill="#FAF53B"/>
<path d="M56.5 23.9L49.9 27.9L51.6 30.7L58.2 26.7L56.5 23.9Z" fill="#FAF53B"/>
<path d="M60.6 42.7H52.9V46H60.6V42.7Z" fill="#FAF53B"/>
<path d="M10.9 44C12.5 45.6 14.3 46.4 16.4 46.4C18.9 46.4 21 45.5 22.7 43.8C24.4 42 25.3 39.9 25.3 37.5C25.3 35 24.4 32.9 22.7 31.2C21 29.4 18.8 28.6 16.4 28.6C14.3 28.6 12.5 29.4 10.9 31V15.1H7.7V46H11V44H10.9ZM10.9 36.2C11.1 35.2 11.6 34.3 12.4 33.5C13.5 32.4 14.8 31.8 16.4 31.8C18 31.8 19.3 32.4 20.4 33.5C21.5 34.6 22 35.9 22 37.5C22 39 21.5 40.4 20.4 41.5C19.3 42.6 18 43.1 16.4 43.1C14.8 43.1 13.5 42.6 12.4 41.5C11.6 40.7 11.1 39.8 10.9 38.8V36.2Z" fill="black"/>
<path d="M37.8 46.4C40.3 46.4 42.4 45.5 44.1 43.8C44.5 43.4 45 42.7 45.8 41.6L42.5 40.4C42.1 40.9 41.8 41.2 41.7 41.4C40.6 42.5 39.3 43 37.7 43C36.3 43 35.3 42.8 34.7 42.3L43.3 33.7L44.9 32C44.4 31.4 44.1 31.1 44 31C43.7 30.7 43.5 30.5 43.2 30.3C41.6 29 39.7 28.4 37.6 28.4C35.1 28.4 33 29.3 31.3 31C29.5 32.8 28.7 34.9 28.7 37.3C28.7 39.7 29.6 41.9 31.3 43.6C33.2 45.6 35.4 46.4 37.8 46.4ZM33.9 33.5C35 32.4 36.3 31.9 37.9 31.9C39.2 31.9 40 32 40.4 32.3L32.7 40C32.4 39.6 32.3 38.8 32.3 37.5C32.2 35.9 32.8 34.6 33.9 33.5Z" fill="black"/>
</g>
</g>
</svg>
