<svg width="465" height="230" viewBox="0 0 465 230" fill="none" xmlns="http://www.w3.org/2000/svg">
<path d="M15.39 0.860107L8.52 11.1601L16.48 26.0601H13.56L6.53 13.4301H6.42L2.61 18.7201V26.0601H0V0.860107H2.62V14.9701H2.73L12.51 0.860107H15.39Z" fill="black"/>
<path d="M20.1899 0.54C20.5399 0.18 20.9699 0 21.4999 0C22.0299 0 22.4699 0.18 22.8199 0.54C23.1699 0.9 23.3499 1.34 23.3499 1.84C23.3499 2.34 23.1699 2.77 22.8199 3.11C22.4699 3.46 22.0299 3.63 21.4999 3.63C20.9699 3.63 20.5399 3.46 20.1899 3.11C19.8399 2.76 19.6699 2.34 19.6699 1.84C19.6699 1.34 19.8399 0.9 20.1899 0.54ZM20.2499 26.06V7.96H22.7299V26.06H20.2499Z" fill="black"/>
<path d="M34.8798 24.2299C35.7198 24.2299 36.5598 23.9899 37.3898 23.5099L37.6498 25.7399C36.5298 26.2399 35.5198 26.4999 34.6298 26.4999C31.0998 26.4999 29.3398 24.5299 29.3398 20.5999V10.1299H26.0498V7.96989H29.3698L29.9698 2.13989H31.8098V7.96989H37.6098V10.1299H31.8098V20.1999C31.8098 22.8899 32.8298 24.2399 34.8698 24.2399L34.8798 24.2299Z" fill="black"/>
<path d="M50.6702 21.53C50.6702 23.04 50.1602 24.25 49.1402 25.15C48.1202 26.05 46.8102 26.5 45.2002 26.5C43.0902 26.5 41.3402 25.85 39.9502 24.55L40.5502 22.53C41.0802 23.08 41.7502 23.53 42.5702 23.88C43.3902 24.23 44.1802 24.41 44.9402 24.41C45.9702 24.41 46.8002 24.16 47.4302 23.65C48.0602 23.15 48.3702 22.46 48.3702 21.59C48.3702 21.16 48.2702 20.75 48.0802 20.37C47.8902 19.99 47.5502 19.6 47.0702 19.2C46.5902 18.8 46.2102 18.49 45.9202 18.28C45.6302 18.07 45.1602 17.74 44.4902 17.3C43.6202 16.73 42.9502 16.26 42.4902 15.9C42.0202 15.54 41.5602 15.01 41.1002 14.3C40.6402 13.59 40.4102 12.83 40.4102 12.01C40.4102 10.66 40.9002 9.58001 41.8902 8.75001C42.8702 7.92001 44.1402 7.51001 45.7002 7.51001C47.5002 7.51001 49.0302 7.96001 50.2702 8.85001L49.6202 10.73C48.6602 9.93001 47.4402 9.54001 45.9602 9.54001C45.0502 9.54001 44.2902 9.77001 43.6802 10.23C43.0802 10.69 42.7802 11.27 42.7802 11.99C42.7802 12.47 42.9702 12.95 43.3402 13.41C43.7202 13.88 44.0902 14.26 44.4702 14.54C44.8502 14.83 45.4302 15.22 46.2002 15.73C46.8702 16.16 47.4102 16.53 47.8202 16.83C48.2302 17.13 48.6902 17.52 49.1902 18.02C49.6902 18.51 50.0702 19.05 50.3102 19.63C50.5502 20.21 50.6702 20.85 50.6702 21.54V21.53Z" fill="black"/>
<path d="M71.0998 7.52002C73.1598 7.52002 74.8498 8.36002 76.1498 10.04C77.4598 11.72 78.1098 14.05 78.1098 17.02C78.1098 19.99 77.4498 22.32 76.1298 23.99C74.8098 25.66 73.1298 26.49 71.0998 26.49C69.0698 26.49 67.3798 25.65 66.0598 23.97C64.7398 22.29 64.0698 19.96 64.0698 16.99C64.0698 14.02 64.7298 11.69 66.0598 10.02C67.3798 8.35002 69.0598 7.52002 71.0998 7.52002ZM71.0998 24.2C72.4498 24.2 73.5498 23.56 74.3898 22.27C75.2398 20.98 75.6598 19.24 75.6598 17.03C75.6598 14.82 75.2298 13.05 74.3798 11.78C73.5198 10.5 72.4298 9.86002 71.0898 9.86002C69.7498 9.86002 68.6598 10.5 67.8198 11.77C66.9798 13.04 66.5598 14.8 66.5598 17.03C66.5598 19.26 66.9798 20.97 67.8198 22.25C68.6598 23.53 69.7498 24.18 71.0998 24.2Z" fill="black"/>
<path d="M90.6001 7.52002C92.3201 7.52002 93.7501 8.20002 94.9001 9.56002C96.0401 10.92 96.6101 12.75 96.6101 15.04V26.06H94.1301V15.34C94.1301 13.71 93.7201 12.39 92.9001 11.38C92.0801 10.37 91.0501 9.86002 89.8001 9.86002C88.5501 9.86002 87.5001 10.36 86.6401 11.37C85.7801 12.38 85.3501 13.7 85.3501 15.34V26.06H82.8701V7.96002H84.4901L85.0701 11.4H85.2101C85.6701 10.16 86.3701 9.20002 87.3201 8.53002C88.2701 7.86002 89.3601 7.52002 90.6101 7.52002H90.6001Z" fill="black"/>
<path d="M110.02 7.52004C111.82 7.52004 113.32 8.39004 114.52 10.13C115.71 11.87 116.31 14.17 116.31 17.03C116.31 19.89 115.7 22.15 114.49 23.89C113.28 25.63 111.78 26.5 109.98 26.5C108.88 26.5 107.87 26.15 106.94 25.45C106.01 24.75 105.28 23.77 104.73 22.49H104.59L103.98 26.06H102.36V0.0400391H104.87V10.99H104.98C106.19 8.68004 107.87 7.53004 110.02 7.53004V7.52004ZM109.34 24.14C110.64 24.16 111.72 23.5 112.56 22.16C113.41 20.82 113.83 19.11 113.83 17.02C113.83 14.93 113.41 13.19 112.56 11.85C111.71 10.51 110.64 9.85004 109.34 9.85004C108.04 9.85004 106.97 10.52 106.13 11.85C105.29 13.19 104.87 14.91 104.87 17.02C104.87 19.13 105.29 20.81 106.13 22.14C106.97 23.47 108.04 24.13 109.34 24.13V24.14Z" fill="black"/>
<path d="M127.21 7.52002C129.27 7.52002 130.96 8.36002 132.26 10.04C133.57 11.72 134.22 14.05 134.22 17.02C134.22 19.99 133.56 22.32 132.24 23.99C130.92 25.66 129.24 26.49 127.21 26.49C125.18 26.49 123.49 25.65 122.17 23.97C120.85 22.29 120.18 19.96 120.18 16.99C120.18 14.02 120.84 11.69 122.17 10.02C123.49 8.35002 125.17 7.52002 127.21 7.52002ZM127.21 24.2C128.56 24.2 129.66 23.56 130.5 22.27C131.35 20.98 131.77 19.24 131.77 17.03C131.77 14.82 131.34 13.05 130.49 11.78C129.63 10.5 128.54 9.86002 127.2 9.86002C125.86 9.86002 124.77 10.5 123.93 11.77C123.09 13.04 122.67 14.8 122.67 17.03C122.67 19.26 123.09 20.97 123.93 22.25C124.77 23.53 125.86 24.18 127.21 24.2Z" fill="black"/>
<path d="M143.9 7.52002C145.98 7.52002 147.57 8.06002 148.65 9.13002C149.73 10.2 150.28 11.99 150.28 14.48V26.06H148.66L148.12 22.86H147.98C147 25.29 145.35 26.5 143.04 26.5C141.58 26.5 140.34 25.94 139.33 24.82C138.32 23.7 137.82 22.32 137.82 20.66C137.82 18.86 138.36 17.39 139.43 16.27C140.5 15.15 142.06 14.58 144.1 14.58C145.42 14.58 146.66 14.9 147.81 15.55V14.43C147.81 12.9 147.48 11.74 146.83 10.98C146.18 10.21 145.12 9.83002 143.66 9.83002C142.99 9.83002 142.32 9.94002 141.65 10.17C140.98 10.4 140.47 10.62 140.13 10.85L139.64 11.17L138.85 9.01002C139.83 8.53002 140.43 8.24002 140.64 8.15002C141.74 7.74002 142.83 7.53002 143.91 7.53002L143.9 7.52002ZM147.8 18.17V17.47C146.86 16.85 145.76 16.53 144.48 16.52C143.11 16.52 142.06 16.91 141.32 17.69C140.58 18.47 140.21 19.46 140.21 20.67C140.21 21.88 140.51 22.76 141.11 23.49C141.71 24.22 142.52 24.59 143.55 24.59C144.79 24.59 145.8 23.96 146.59 22.7C147.37 21.44 147.78 19.93 147.8 18.18V18.17Z" fill="black"/>
<path d="M158.47 12.02C158.97 10.6 159.69 9.50002 160.63 8.71002C161.57 7.92002 162.63 7.52002 163.83 7.52002V9.86002C162.37 9.86002 161.12 10.55 160.09 11.93C159.06 13.31 158.54 15.18 158.54 17.54H158.5V26.06H156.02V7.96002H157.64L158.33 12.02H158.47Z" fill="black"/>
<path d="M172.43 7.52004C174.59 7.52004 176.26 8.67004 177.46 10.98H177.58V0.0400391H180.09V26.06H178.47L177.86 22.49H177.72C177.17 23.77 176.43 24.75 175.51 25.45C174.58 26.15 173.57 26.5 172.47 26.5C170.67 26.5 169.16 25.63 167.95 23.89C166.74 22.15 166.13 19.86 166.13 17.03C166.13 14.2 166.73 11.87 167.93 10.13C169.13 8.39004 170.63 7.52004 172.44 7.52004H172.43ZM173.12 24.14C174.42 24.14 175.49 23.48 176.33 22.15C177.17 20.82 177.59 19.11 177.59 17.03C177.59 14.95 177.17 13.2 176.32 11.86C175.48 10.52 174.41 9.86004 173.11 9.86004C171.81 9.86004 170.74 10.53 169.89 11.86C169.04 13.2 168.62 14.92 168.62 17.03C168.62 19.14 169.04 20.83 169.89 22.17C170.74 23.51 171.81 24.17 173.11 24.15L173.12 24.14Z" fill="black"/>
<path d="M185.86 0.54C186.21 0.18 186.64 0 187.17 0C187.7 0 188.14 0.18 188.49 0.54C188.84 0.9 189.02 1.34 189.02 1.84C189.02 2.34 188.84 2.77 188.49 3.11C188.14 3.46 187.7 3.63 187.17 3.63C186.64 3.63 186.21 3.46 185.86 3.11C185.51 2.76 185.34 2.34 185.34 1.84C185.34 1.34 185.51 0.9 185.86 0.54ZM185.92 26.06V7.96H188.4V26.06H185.92Z" fill="black"/>
<path d="M201.99 7.52002C203.71 7.52002 205.14 8.20002 206.29 9.56002C207.43 10.92 208 12.75 208 15.04V26.06H205.52V15.34C205.52 13.71 205.11 12.39 204.29 11.38C203.47 10.37 202.44 9.86002 201.19 9.86002C199.94 9.86002 198.89 10.36 198.03 11.37C197.17 12.38 196.74 13.7 196.74 15.34V26.06H194.26V7.96002H195.88L196.46 11.4H196.6C197.06 10.16 197.76 9.20002 198.71 8.53002C199.66 7.86002 200.75 7.52002 202 7.52002H201.99Z" fill="black"/>
<path d="M222.59 8.24001C223.05 7.50001 223.65 6.94001 224.41 6.55001C225.17 6.16001 225.94 6.02001 226.74 6.11001V8.20001C225.59 8.13001 224.68 8.45001 224 9.17001V9.33001C225.12 10.5 225.69 12.02 225.7 13.9C225.7 15.8 225.15 17.31 224.04 18.43C222.93 19.55 221.47 20.12 219.64 20.12C218.08 20.12 216.76 19.65 215.69 18.71C215.21 19.28 214.97 19.88 214.97 20.48C214.97 22.04 215.88 22.82 217.71 22.82H222.1C223.54 22.84 224.66 23.27 225.45 24.09C226.24 24.92 226.64 26.08 226.64 27.6C226.64 29.47 225.97 31.09 224.64 32.46C223.31 33.83 221.54 34.51 219.33 34.51C217.55 34.51 216.05 34.04 214.83 33.09C213.61 32.14 213 30.79 213 29.05C213 27.31 213.63 25.84 214.9 24.76V24.65C213.44 24.03 212.7 22.84 212.7 21.08C212.7 19.55 213.29 18.27 214.47 17.27C213.9 16.26 213.6 15.13 213.59 13.86C213.59 11.96 214.15 10.43 215.27 9.26001C216.39 8.09001 217.84 7.51001 219.64 7.51001C220.72 7.51001 221.7 7.75 222.59 8.23V8.24001ZM216.77 25.06C215.69 25.93 215.15 27.12 215.14 28.64C215.14 29.94 215.58 30.91 216.46 31.55C217.34 32.19 218.33 32.51 219.43 32.51C220.92 32.51 222.11 32.06 223 31.16C223.89 30.26 224.34 29.18 224.34 27.93C224.34 26.01 223.37 25.05 221.42 25.07H216.78L216.77 25.06ZM219.64 18.13C220.79 18.13 221.71 17.75 222.4 16.98C223.09 16.21 223.44 15.2 223.44 13.93C223.44 12.66 223.09 11.66 222.39 10.86C221.69 10.05 220.78 9.65 219.64 9.65C218.5 9.65 217.58 10.05 216.89 10.84C216.2 11.63 215.86 12.66 215.86 13.93C215.86 15.2 216.21 16.22 216.91 16.99C217.61 17.76 218.52 18.14 219.64 18.14V18.13Z" fill="black"/>
<path d="M8.06994 229.32C29.4599 229.01 50.8599 228.75 72.2599 228.53C93.66 228.31 115.05 228.12 136.45 227.98C157.77 227.84 179.08 227.74 200.4 227.68C221.88 227.62 243.36 227.6 264.85 227.63C286.17 227.65 307.48 227.72 328.8 227.82C331.46 227.83 334.13 227.85 336.79 227.86C340.01 227.88 340.01 222.88 336.79 222.86C315.39 222.74 293.99 222.67 272.59 222.63C251.19 222.59 229.79 222.6 208.39 222.65C186.99 222.7 165.76 222.79 144.44 222.92C123.12 223.05 101.48 223.22 79.9999 223.44C58.5199 223.66 37.3699 223.91 16.0599 224.2C13.3999 224.24 10.7299 224.27 8.06994 224.31C4.85994 224.36 4.84994 229.36 8.06994 229.31V229.32Z" fill="#FFFC8A"/>
<path d="M2.37012 119.52V61.3701H34.6101V74.9101H17.2501V88.2101H32.1701V100.42H17.2501V119.52H2.37012Z" fill="black"/>
<path d="M55.86 97.5001V105.98H74.96V119.52H40.98V61.3701H74.43V74.9101H55.86V85.2901H72.61V97.5001H55.86Z" fill="black"/>
<path d="M98.0299 61.3701V105.97H114.94V119.51H83.1499V61.3601H98.0299V61.3701Z" fill="black"/>
<path d="M121.75 119.52V61.3701H136.63V119.52H121.75Z" fill="black"/>
<path d="M162.42 105.74V105.98H179.45V119.52H144.13V109.71L161.16 75.2401V74.9201H144.74V61.3801H178.84V72.2101L162.42 105.74Z" fill="black"/>
<path d="M231.07 61.3701C235.83 61.3701 239.8 63.4001 242.99 67.4701C246.18 71.5401 247.78 76.5501 247.78 82.4901C247.78 88.4301 246.21 93.5101 243.08 97.2901C239.94 101.08 235.94 102.97 231.08 102.97H223.38V119.51H208.5V61.3601H231.09L231.07 61.3701ZM226.65 89.7201C228.54 89.7201 230.03 89.0001 231.11 87.5501C232.19 86.1001 232.73 84.3901 232.73 82.4201C232.73 80.4501 232.19 78.6201 231.11 77.1701C230.03 75.7201 228.54 75.0001 226.65 75.0001H223.37V89.7201H226.65Z" fill="black"/>
<path d="M284.35 94.1801C287.16 95.0701 288.97 97.7301 289.78 102.17L292.9 119.52H277.29L274.57 103.42C274.03 100.72 272.45 99.3501 269.83 99.3201H269.1V119.51H254.22V61.3601H274.58C279.61 61.3601 283.7 62.9701 286.87 66.1901C290.03 69.4101 291.61 73.7601 291.61 79.2501C291.61 85.7901 289.19 90.6301 284.35 93.7701V94.1801ZM271.26 87.6501C272.91 87.6501 274.26 87.0601 275.31 85.8701C276.36 84.6801 276.89 83.1701 276.89 81.3301C276.89 79.4901 276.36 77.9001 275.31 76.7101C274.26 75.5201 272.9 74.9301 271.26 74.9301H269.11V87.6601H271.26V87.6501Z" fill="black"/>
<path d="M300.53 119.52V61.3701H315.41V119.52H300.53Z" fill="black"/>
<path d="M349.84 89.8001L358.8 61.3701H374.09V119.52H359.65V95.1101H359.28L351.49 119.52H347.92L340.17 95.1101H339.85V119.52H325.41V61.3701H340.7L349.66 89.8001H349.82H349.84Z" fill="black"/>
<path d="M398.99 97.5001V105.98H418.09V119.52H384.11V61.3701H417.56V74.9101H398.99V85.2901H415.74V97.5001H398.99Z" fill="black"/>
<path d="M456.4 94.1801C459.21 95.0701 461.02 97.7301 461.83 102.17L464.95 119.52H449.34L446.62 103.42C446.08 100.72 444.5 99.3501 441.88 99.3201H441.15V119.51H426.27V61.3601H446.63C451.66 61.3601 455.75 62.9701 458.92 66.1901C462.08 69.4101 463.66 73.7601 463.66 79.2501C463.66 85.7901 461.24 90.6301 456.4 93.7701V94.1801ZM443.31 87.6501C444.96 87.6501 446.31 87.0601 447.36 85.8701C448.41 84.6801 448.94 83.1701 448.94 81.3301C448.94 79.4901 448.41 77.9001 447.36 76.7101C446.31 75.5201 444.95 74.9301 443.31 74.9301H441.16V87.6601H443.31V87.6501Z" fill="black"/>
<path d="M26.8398 184.86L34.1898 131.4H52.3398L40.8398 203.12H12.4798L1.02979 131.4H19.1298L26.5298 184.86H26.8298H26.8398Z" stroke="black"/>
<path d="M58.0396 203.11V131.39H76.3895V203.11H58.0396Z" stroke="black"/>
<path d="M107.4 175.96V186.41H130.96V203.11H89.0498V131.39H130.31V148.09H107.41V160.89H128.06V175.94H107.41L107.4 175.96Z" stroke="black"/>
<path d="M178.22 171.86C181.69 172.96 183.92 176.24 184.92 181.71L188.77 203.11H169.52L166.17 183.26C165.5 179.93 163.55 178.24 160.32 178.21H159.42V203.12H141.07V131.4H166.18C172.38 131.4 177.43 133.38 181.33 137.35C185.23 141.32 187.18 146.69 187.18 153.45C187.18 161.52 184.2 167.49 178.23 171.35V171.85L178.22 171.86ZM162.07 163.81C164.1 163.81 165.77 163.08 167.07 161.61C168.37 160.14 169.02 158.28 169.02 156.01C169.02 153.74 168.37 151.78 167.07 150.31C165.77 148.84 164.1 148.11 162.07 148.11H159.42V163.81H162.07Z" stroke="black"/>
<path d="M225.03 160.01V131.4H243.33V203.12H231.48L216.83 174.66H216.63V203.12H198.18V131.4H210.08L224.68 160.01H225.03Z" stroke="black"/>
<path d="M274.39 175.96V186.41H297.95V203.11H256.04V131.39H297.3V148.09H274.4V160.89H295.05V175.94H274.4L274.39 175.96Z" stroke="black"/>
<path d="M333.95 160.81C340.15 164.58 344.35 168.15 346.55 171.54C348.75 174.92 349.85 178.9 349.85 183.47C349.85 189.91 347.7 195.05 343.4 198.9C339.1 202.75 333.21 204.68 325.75 204.68C317.01 204.68 309.85 202.63 304.25 198.53L307.85 182.83C313.38 186.8 318.64 188.78 323.6 188.78C328.87 188.78 331.5 187.01 331.5 183.48C331.5 182.05 330.87 180.61 329.6 179.18C328.33 177.75 325.83 175.93 322.1 173.73C316.23 170.4 312.01 166.89 309.45 163.2C306.88 159.52 305.6 155.21 305.6 150.27C305.6 144.14 307.77 139.21 312.1 135.49C316.43 131.77 322.18 129.91 329.35 129.91C336.52 129.91 342.7 131.21 347.9 133.81L345.85 149.76C344.35 148.79 342.23 147.85 339.5 146.93C336.77 146.01 334.27 145.55 332 145.55C326.8 145.55 324.21 147.28 324.25 150.75C324.25 152.38 325.05 153.98 326.65 155.53C328.25 157.08 330.68 158.84 333.95 160.81Z" stroke="black"/>
</svg>
