<svg width="456" height="259" viewBox="0 0 456 259" fill="none" xmlns="http://www.w3.org/2000/svg">
<path d="M35.9912 99.25V99.6895C39.126 100.949 41.5723 102.941 43.3301 105.666C45.1172 108.391 46.0107 111.628 46.0107 115.378C46.0107 120.505 44.2822 124.709 40.8252 127.99C37.3389 131.33 32.9736 133 27.7295 133H5.58105V69.9824H26.0156C31.4355 69.9824 35.8301 71.5059 39.1992 74.5527C42.5391 77.6289 44.209 81.6572 44.209 86.6377C44.209 92.3799 41.4697 96.584 35.9912 99.25ZM21.709 119.069H24.917C26.3525 119.069 27.5098 118.513 28.3887 117.399C29.2676 116.286 29.707 114.851 29.707 113.093C29.707 111.306 29.2676 109.855 28.3887 108.742C27.5098 107.629 26.3525 107.072 24.917 107.072H21.709V119.069ZM24.126 84.0449H21.709V95.998H24.126C25.3564 95.998 26.3672 95.4414 27.1582 94.3281C27.9492 93.1855 28.3447 91.7354 28.3447 89.9775C28.3447 88.249 27.9492 86.8281 27.1582 85.7148C26.3965 84.6016 25.3857 84.0449 24.126 84.0449ZM78.2666 115.158V69.9824H94.3945V114.367C94.3945 120.402 92.5488 125.251 88.8574 128.913C85.1953 132.546 80.4785 134.362 74.707 134.362C68.9062 134.362 64.1895 132.546 60.5566 128.913C56.8945 125.251 55.0635 120.402 55.0635 114.367V69.9824H71.1914V115.158C71.1914 116.477 71.5137 117.561 72.1582 118.41C72.832 119.26 73.6816 119.685 74.707 119.685C75.7324 119.685 76.582 119.26 77.2559 118.41C77.9297 117.561 78.2666 116.477 78.2666 115.158ZM112.72 84.6602H101.206V69.9824H140.361V84.6602H128.804V133H112.72V84.6602ZM186.592 133H170.464V69.9824H205.4V84.6602H186.592V99.0742H202.764V112.302H186.592V133ZM228.428 133H212.3V69.9824H228.428V133ZM272.197 105.095V105.534C275.244 106.501 277.207 109.387 278.086 114.191L281.47 133H264.551L261.606 115.554C261.05 112.653 259.336 111.174 256.465 111.115H255.674V133H239.546V69.9824H261.606C267.056 69.9824 271.494 71.7256 274.922 75.2119C278.35 78.6689 280.063 83.3857 280.063 89.3623C280.063 96.4521 277.441 101.696 272.197 105.095ZM255.674 98.459H258.003C259.79 98.459 261.255 97.8145 262.397 96.5254C263.54 95.2363 264.111 93.5957 264.111 91.6035C264.111 89.5527 263.54 87.8828 262.397 86.5938C261.255 85.3047 259.79 84.6602 258.003 84.6602H255.674V98.459ZM312.495 95.8223C317.915 99.1035 321.606 102.238 323.569 105.227C325.503 108.215 326.47 111.716 326.47 115.729C326.47 121.384 324.58 125.896 320.801 129.265C316.992 132.663 311.821 134.362 305.288 134.362C297.612 134.362 291.313 132.561 286.392 128.957L289.556 115.158C294.448 118.645 299.062 120.388 303.398 120.388C308.027 120.388 310.342 118.835 310.342 115.729C310.342 114.499 309.785 113.239 308.672 111.95C307.588 110.72 305.391 109.123 302.08 107.16C296.865 104.172 293.159 101.081 290.962 97.8877C288.706 94.665 287.578 90.8857 287.578 86.5498C287.578 81.1592 289.482 76.8232 293.291 73.542C297.1 70.29 302.153 68.6641 308.452 68.6641C314.751 68.6641 320.186 69.8066 324.756 72.0918L322.954 86.1104C321.606 85.2607 319.746 84.4258 317.373 83.6055C314.971 82.8145 312.773 82.4189 310.781 82.4189C308.496 82.4189 306.782 82.7998 305.64 83.5615C304.497 84.3232 303.94 85.4658 303.97 86.9893C303.97 88.3662 304.644 89.7285 305.991 91.0762C307.339 92.4238 309.507 94.0059 312.495 95.8223ZM342.202 84.6602H330.688V69.9824H369.844V84.6602H358.286V133H342.202V84.6602ZM375.645 117.795C378.34 117.795 380.625 118.776 382.5 120.739C384.375 122.702 385.312 125.383 385.312 128.781C385.312 132.502 384.36 136.003 382.456 139.284C380.552 142.595 377.9 145.451 374.502 147.854L368.481 142.976C370.063 142.214 371.675 140.939 373.315 139.152C374.897 137.453 375.981 135.739 376.567 134.011C375.776 134.245 375.029 134.362 374.326 134.362C372.188 134.362 370.43 133.63 369.053 132.165C367.646 130.7 366.943 128.825 366.943 126.54C366.943 124.138 367.808 122.072 369.536 120.344C371.235 118.645 373.271 117.795 375.645 117.795Z" fill="black"/>
<mask id="path-2-outside-1_81_923" maskUnits="userSpaceOnUse" x="1" y="157" width="285" height="71" fill="black">
<rect fill="white" x="1" y="157" width="285" height="71"/>
<path d="M30.2344 210.685C32.8711 210.685 35.874 209.396 39.2432 206.817L42.3193 221.583C38.6572 224.103 33.7354 225.362 27.5537 225.362C20.0537 225.362 14.1504 222.74 9.84375 217.496C5.50781 212.281 3.33984 203.946 3.33984 192.491C3.33984 181.007 5.50781 172.687 9.84375 167.53C14.1504 162.345 20.0537 159.752 27.5537 159.752C34.292 159.752 38.9062 160.558 41.3965 162.169L37.5293 176.495C35.6543 175.118 33.2227 174.43 30.2344 174.43C26.8945 174.43 24.2725 175.748 22.3682 178.385C20.4639 181.051 19.5117 185.753 19.5117 192.491C19.5117 199.288 20.4639 204.02 22.3682 206.686C24.2432 209.352 26.8652 210.685 30.2344 210.685ZM53.6098 167.486C57.682 162.271 63.307 159.664 70.4848 159.664C77.6625 159.664 83.2875 162.271 87.3598 167.486C91.4613 172.73 93.5121 181.065 93.5121 192.491C93.5121 203.976 91.4613 212.325 87.3598 217.54C83.2875 222.755 77.6625 225.362 70.4848 225.362C63.307 225.362 57.682 222.755 53.6098 217.54C49.5082 212.325 47.4574 203.976 47.4574 192.491C47.4574 181.065 49.5082 172.73 53.6098 167.486ZM65.3871 206.773C66.5883 209.381 68.2875 210.685 70.4848 210.685C72.682 210.685 74.3812 209.381 75.5824 206.773C76.7543 204.225 77.3402 199.464 77.3402 192.491C77.3402 185.636 76.7543 180.904 75.5824 178.297C74.4105 175.66 72.7113 174.342 70.4848 174.342C68.2582 174.342 66.559 175.66 65.3871 178.297C64.2152 180.904 63.6293 185.636 63.6293 192.491C63.6293 199.464 64.2152 204.225 65.3871 206.773ZM122.161 224H106.033V160.982H140.97V175.66H122.161V190.074H138.333V203.302H122.161V224ZM167.597 224H151.469V160.982H186.405V175.66H167.597V190.074H183.769V203.302H167.597V224ZM231.182 200.138H213.033V209.322H233.731V224H196.905V160.982H233.16V175.66H213.033V186.91H231.182V200.138ZM280.485 200.138H262.336V209.322H283.034V224H246.208V160.982H282.463V175.66H262.336V186.91H280.485V200.138Z"/>
</mask>
<path d="M39.2432 206.817L41.2011 206.409L40.5527 203.297L38.0278 205.229L39.2432 206.817ZM42.3193 221.583L43.453 223.231L44.5485 222.477L44.2773 221.175L42.3193 221.583ZM9.84375 217.496L11.3894 216.227L11.3816 216.217L9.84375 217.496ZM9.84375 167.53L11.3745 168.817L11.3823 168.808L9.84375 167.53ZM41.3965 162.169L43.3274 162.69L43.7075 161.282L42.483 160.49L41.3965 162.169ZM37.5293 176.495L36.3455 178.107L38.6992 179.836L39.4602 177.016L37.5293 176.495ZM22.3682 178.385L20.7468 177.214L20.7407 177.222L22.3682 178.385ZM22.3682 206.686L24.0041 205.535L23.9999 205.529L23.9956 205.523L22.3682 206.686ZM30.2344 210.685V212.685C33.5065 212.685 36.9373 211.1 40.4586 208.406L39.2432 206.817L38.0278 205.229C34.8108 207.691 32.2357 208.685 30.2344 208.685V210.685ZM39.2432 206.817L37.2852 207.225L40.3614 221.991L42.3193 221.583L44.2773 221.175L41.2011 206.409L39.2432 206.817ZM42.3193 221.583L41.1857 219.935C37.9643 222.152 33.4837 223.362 27.5537 223.362V225.362V227.362C33.987 227.362 39.3502 226.053 43.453 223.231L42.3193 221.583ZM27.5537 225.362V223.362C20.5809 223.362 15.273 220.956 11.3894 216.227L9.84375 217.496L8.29815 218.765C13.0278 224.525 19.5266 227.362 27.5537 227.362V225.362ZM9.84375 217.496L11.3816 216.217C7.49011 211.537 5.33984 203.774 5.33984 192.491H3.33984H1.33984C1.33984 204.118 3.52551 213.025 8.30589 218.775L9.84375 217.496ZM3.33984 192.491H5.33984C5.33984 181.174 7.49192 173.435 11.3745 168.817L9.84375 167.53L8.31303 166.243C3.52371 171.938 1.33984 180.839 1.33984 192.491H3.33984ZM9.84375 167.53L11.3823 168.808C15.2632 164.135 20.5728 161.752 27.5537 161.752V159.752V157.752C19.5347 157.752 13.0376 160.554 8.30517 166.252L9.84375 167.53ZM27.5537 159.752V161.752C30.853 161.752 33.568 161.95 35.7241 162.326C37.9028 162.707 39.3829 163.248 40.31 163.848L41.3965 162.169L42.483 160.49C40.9198 159.478 38.8477 158.811 36.4121 158.386C33.954 157.957 30.9927 157.752 27.5537 157.752V159.752ZM41.3965 162.169L39.4656 161.648L35.5984 175.974L37.5293 176.495L39.4602 177.016L43.3274 162.69L41.3965 162.169ZM37.5293 176.495L38.7131 174.883C36.4084 173.191 33.5269 172.43 30.2344 172.43V174.43V176.43C32.9184 176.43 34.9002 177.046 36.3455 178.107L37.5293 176.495ZM30.2344 174.43V172.43C26.2728 172.43 23.0389 174.04 20.7468 177.214L22.3682 178.385L23.9895 179.556C25.506 177.456 27.5163 176.43 30.2344 176.43V174.43ZM22.3682 178.385L20.7407 177.222C18.4458 180.435 17.5117 185.698 17.5117 192.491H19.5117H21.5117C21.5117 185.808 22.482 181.666 23.9956 179.547L22.3682 178.385ZM19.5117 192.491H17.5117C17.5117 199.339 18.4445 204.633 20.7407 207.848L22.3682 206.686L23.9956 205.523C22.4832 203.406 21.5117 199.237 21.5117 192.491H19.5117ZM22.3682 206.686L20.7322 207.836C22.9965 211.056 26.2402 212.685 30.2344 212.685V210.685V208.685C27.4902 208.685 25.4898 207.648 24.0041 205.535L22.3682 206.686ZM53.6098 167.486L55.1851 168.718L55.1861 168.717L53.6098 167.486ZM87.3598 167.486L85.7834 168.717L85.7844 168.718L87.3598 167.486ZM87.3598 217.54L85.7877 216.304L85.7834 216.309L87.3598 217.54ZM53.6098 217.54L55.1861 216.309L55.1818 216.304L53.6098 217.54ZM65.3871 206.773L63.57 207.609L63.5706 207.61L65.3871 206.773ZM75.5824 206.773L77.3989 207.61L77.3996 207.609L75.5824 206.773ZM75.5824 178.297L73.7548 179.109L73.7582 179.117L75.5824 178.297ZM65.3871 178.297L67.2113 179.117L67.2147 179.109L65.3871 178.297ZM53.6098 167.486L55.1861 168.717C58.8438 164.033 63.8628 161.664 70.4848 161.664V159.664V157.664C62.7513 157.664 56.5202 160.51 52.0334 166.255L53.6098 167.486ZM70.4848 159.664V161.664C77.1068 161.664 82.1257 164.033 85.7834 168.717L87.3598 167.486L88.9361 166.255C84.4493 160.51 78.2182 157.664 70.4848 157.664V159.664ZM87.3598 167.486L85.7844 168.718C89.4742 173.436 91.5121 181.223 91.5121 192.491H93.5121H95.5121C95.5121 180.908 93.4484 172.025 88.9351 166.254L87.3598 167.486ZM93.5121 192.491H91.5121C91.5121 203.822 89.4726 211.619 85.7877 216.304L87.3598 217.54L88.9318 218.776C93.45 213.032 95.5121 204.129 95.5121 192.491H93.5121ZM87.3598 217.54L85.7834 216.309C82.1257 220.993 77.1068 223.362 70.4848 223.362V225.362V227.362C78.2182 227.362 84.4493 224.517 88.9361 218.771L87.3598 217.54ZM70.4848 225.362V223.362C63.8628 223.362 58.8438 220.993 55.1861 216.309L53.6098 217.54L52.0334 218.771C56.5202 224.517 62.7513 227.362 70.4848 227.362V225.362ZM53.6098 217.54L55.1818 216.304C51.4969 211.619 49.4574 203.822 49.4574 192.491H47.4574H45.4574C45.4574 204.129 47.5195 213.032 52.0377 218.776L53.6098 217.54ZM47.4574 192.491H49.4574C49.4574 181.223 51.4953 173.436 55.1851 168.718L53.6098 167.486L52.0344 166.254C47.5211 172.025 45.4574 180.908 45.4574 192.491H47.4574ZM65.3871 206.773L63.5706 207.61C64.9786 210.667 67.2562 212.685 70.4848 212.685V210.685V208.685C69.3188 208.685 68.198 208.095 67.2036 205.937L65.3871 206.773ZM70.4848 210.685V212.685C73.7133 212.685 75.9909 210.667 77.3989 207.61L75.5824 206.773L73.7659 205.937C72.7716 208.095 71.6507 208.685 70.4848 208.685V210.685ZM75.5824 206.773L77.3996 207.609C78.1115 206.061 78.5828 203.997 78.8858 201.536C79.1921 199.047 79.3402 196.026 79.3402 192.491H77.3402H75.3402C75.3402 195.929 75.1954 198.775 74.9158 201.047C74.6328 203.346 74.2253 204.938 73.7653 205.938L75.5824 206.773ZM77.3402 192.491H79.3402C79.3402 185.642 78.7725 180.516 77.4066 177.477L75.5824 178.297L73.7582 179.117C74.7361 181.293 75.3402 185.63 75.3402 192.491H77.3402ZM75.5824 178.297L77.41 177.485C76.7339 175.963 75.8394 174.669 74.6551 173.75C73.4416 172.809 72.0251 172.342 70.4848 172.342V174.342V176.342C71.171 176.342 71.7173 176.534 72.2031 176.911C72.718 177.31 73.259 177.994 73.7548 179.109L75.5824 178.297ZM70.4848 174.342V172.342C68.9444 172.342 67.5279 172.809 66.3144 173.75C65.1301 174.669 64.2356 175.963 63.5595 177.485L65.3871 178.297L67.2147 179.109C67.7105 177.994 68.2515 177.31 68.7664 176.911C69.2522 176.534 69.7985 176.342 70.4848 176.342V174.342ZM65.3871 178.297L63.5629 177.477C62.1971 180.516 61.6293 185.642 61.6293 192.491H63.6293H65.6293C65.6293 185.63 66.2334 181.293 67.2113 179.117L65.3871 178.297ZM63.6293 192.491H61.6293C61.6293 196.026 61.7774 199.047 62.0837 201.536C62.3867 203.997 62.8581 206.061 63.57 207.609L65.3871 206.773L67.2042 205.938C66.7443 204.938 66.3367 203.346 66.0538 201.047C65.7741 198.775 65.6293 195.929 65.6293 192.491H63.6293ZM122.161 224V226H124.161V224H122.161ZM106.033 224H104.033V226H106.033V224ZM106.033 160.982V158.982H104.033V160.982H106.033ZM140.97 160.982H142.97V158.982H140.97V160.982ZM140.97 175.66V177.66H142.97V175.66H140.97ZM122.161 175.66V173.66H120.161V175.66H122.161ZM122.161 190.074H120.161V192.074H122.161V190.074ZM138.333 190.074H140.333V188.074H138.333V190.074ZM138.333 203.302V205.302H140.333V203.302H138.333ZM122.161 203.302V201.302H120.161V203.302H122.161ZM122.161 224V222H106.033V224V226H122.161V224ZM106.033 224H108.033V160.982H106.033H104.033V224H106.033ZM106.033 160.982V162.982H140.97V160.982V158.982H106.033V160.982ZM140.97 160.982H138.97V175.66H140.97H142.97V160.982H140.97ZM140.97 175.66V173.66H122.161V175.66V177.66H140.97V175.66ZM122.161 175.66H120.161V190.074H122.161H124.161V175.66H122.161ZM122.161 190.074V192.074H138.333V190.074V188.074H122.161V190.074ZM138.333 190.074H136.333V203.302H138.333H140.333V190.074H138.333ZM138.333 203.302V201.302H122.161V203.302V205.302H138.333V203.302ZM122.161 203.302H120.161V224H122.161H124.161V203.302H122.161ZM167.597 224V226H169.597V224H167.597ZM151.469 224H149.469V226H151.469V224ZM151.469 160.982V158.982H149.469V160.982H151.469ZM186.405 160.982H188.405V158.982H186.405V160.982ZM186.405 175.66V177.66H188.405V175.66H186.405ZM167.597 175.66V173.66H165.597V175.66H167.597ZM167.597 190.074H165.597V192.074H167.597V190.074ZM183.769 190.074H185.769V188.074H183.769V190.074ZM183.769 203.302V205.302H185.769V203.302H183.769ZM167.597 203.302V201.302H165.597V203.302H167.597ZM167.597 224V222H151.469V224V226H167.597V224ZM151.469 224H153.469V160.982H151.469H149.469V224H151.469ZM151.469 160.982V162.982H186.405V160.982V158.982H151.469V160.982ZM186.405 160.982H184.405V175.66H186.405H188.405V160.982H186.405ZM186.405 175.66V173.66H167.597V175.66V177.66H186.405V175.66ZM167.597 175.66H165.597V190.074H167.597H169.597V175.66H167.597ZM167.597 190.074V192.074H183.769V190.074V188.074H167.597V190.074ZM183.769 190.074H181.769V203.302H183.769H185.769V190.074H183.769ZM183.769 203.302V201.302H167.597V203.302V205.302H183.769V203.302ZM167.597 203.302H165.597V224H167.597H169.597V203.302H167.597ZM231.182 200.138V202.138H233.182V200.138H231.182ZM213.033 200.138V198.138H211.033V200.138H213.033ZM213.033 209.322H211.033V211.322H213.033V209.322ZM233.731 209.322H235.731V207.322H233.731V209.322ZM233.731 224V226H235.731V224H233.731ZM196.905 224H194.905V226H196.905V224ZM196.905 160.982V158.982H194.905V160.982H196.905ZM233.16 160.982H235.16V158.982H233.16V160.982ZM233.16 175.66V177.66H235.16V175.66H233.16ZM213.033 175.66V173.66H211.033V175.66H213.033ZM213.033 186.91H211.033V188.91H213.033V186.91ZM231.182 186.91H233.182V184.91H231.182V186.91ZM231.182 200.138V198.138H213.033V200.138V202.138H231.182V200.138ZM213.033 200.138H211.033V209.322H213.033H215.033V200.138H213.033ZM213.033 209.322V211.322H233.731V209.322V207.322H213.033V209.322ZM233.731 209.322H231.731V224H233.731H235.731V209.322H233.731ZM233.731 224V222H196.905V224V226H233.731V224ZM196.905 224H198.905V160.982H196.905H194.905V224H196.905ZM196.905 160.982V162.982H233.16V160.982V158.982H196.905V160.982ZM233.16 160.982H231.16V175.66H233.16H235.16V160.982H233.16ZM233.16 175.66V173.66H213.033V175.66V177.66H233.16V175.66ZM213.033 175.66H211.033V186.91H213.033H215.033V175.66H213.033ZM213.033 186.91V188.91H231.182V186.91V184.91H213.033V186.91ZM231.182 186.91H229.182V200.138H231.182H233.182V186.91H231.182ZM280.485 200.138V202.138H282.485V200.138H280.485ZM262.336 200.138V198.138H260.336V200.138H262.336ZM262.336 209.322H260.336V211.322H262.336V209.322ZM283.034 209.322H285.034V207.322H283.034V209.322ZM283.034 224V226H285.034V224H283.034ZM246.208 224H244.208V226H246.208V224ZM246.208 160.982V158.982H244.208V160.982H246.208ZM282.463 160.982H284.463V158.982H282.463V160.982ZM282.463 175.66V177.66H284.463V175.66H282.463ZM262.336 175.66V173.66H260.336V175.66H262.336ZM262.336 186.91H260.336V188.91H262.336V186.91ZM280.485 186.91H282.485V184.91H280.485V186.91ZM280.485 200.138V198.138H262.336V200.138V202.138H280.485V200.138ZM262.336 200.138H260.336V209.322H262.336H264.336V200.138H262.336ZM262.336 209.322V211.322H283.034V209.322V207.322H262.336V209.322ZM283.034 209.322H281.034V224H283.034H285.034V209.322H283.034ZM283.034 224V222H246.208V224V226H283.034V224ZM246.208 224H248.208V160.982H246.208H244.208V224H246.208ZM246.208 160.982V162.982H282.463V160.982V158.982H246.208V160.982ZM282.463 160.982H280.463V175.66H282.463H284.463V160.982H282.463ZM282.463 175.66V173.66H262.336V175.66V177.66H282.463V175.66ZM262.336 175.66H260.336V186.91H262.336H264.336V175.66H262.336ZM262.336 186.91V188.91H280.485V186.91V184.91H262.336V186.91ZM280.485 186.91H278.485V200.138H280.485H282.485V186.91H280.485Z" fill="black" mask="url(#path-2-outside-1_81_923)"/>
<path d="M13.83 34L6.368 25.732V34H4.002V15.878H6.368V24.276L13.856 15.878H16.846L8.63 24.952L16.924 34H13.83ZM20.7885 17.438C20.3378 17.438 19.9565 17.282 19.6445 16.97C19.3325 16.658 19.1765 16.2767 19.1765 15.826C19.1765 15.3753 19.3325 14.994 19.6445 14.682C19.9565 14.37 20.3378 14.214 20.7885 14.214C21.2218 14.214 21.5858 14.37 21.8805 14.682C22.1925 14.994 22.3485 15.3753 22.3485 15.826C22.3485 16.2767 22.1925 16.658 21.8805 16.97C21.5858 17.282 21.2218 17.438 20.7885 17.438ZM21.9325 19.752V34H19.5665V19.752H21.9325ZM28.8509 21.702V30.1C28.8509 30.7933 28.9982 31.2873 29.2929 31.582C29.5876 31.8593 30.0989 31.998 30.8269 31.998H32.5689V34H30.4369C29.1196 34 28.1316 33.6967 27.4729 33.09C26.8142 32.4833 26.4849 31.4867 26.4849 30.1V21.702H24.6389V19.752H26.4849V16.164H28.8509V19.752H32.5689V21.702H28.8509ZM40.4796 34.234C39.3876 34.234 38.4083 34.052 37.5416 33.688C36.6749 33.3067 35.9903 32.7867 35.4876 32.128C34.9849 31.452 34.7076 30.6807 34.6556 29.814H37.0996C37.1689 30.5247 37.4983 31.1053 38.0876 31.556C38.6943 32.0067 39.4829 32.232 40.4536 32.232C41.3549 32.232 42.0656 32.0327 42.5856 31.634C43.1056 31.2353 43.3656 30.7327 43.3656 30.126C43.3656 29.502 43.0883 29.0427 42.5336 28.748C41.9789 28.436 41.1209 28.1327 39.9596 27.838C38.9023 27.5607 38.0356 27.2833 37.3596 27.006C36.7009 26.7113 36.1289 26.2867 35.6436 25.732C35.1756 25.16 34.9416 24.4147 34.9416 23.496C34.9416 22.768 35.1583 22.1007 35.5916 21.494C36.0249 20.8873 36.6403 20.4107 37.4376 20.064C38.2349 19.7 39.1449 19.518 40.1676 19.518C41.7449 19.518 43.0189 19.9167 43.9896 20.714C44.9603 21.5113 45.4803 22.6033 45.5496 23.99H43.1836C43.1316 23.2447 42.8283 22.6467 42.2736 22.196C41.7363 21.7453 41.0083 21.52 40.0896 21.52C39.2403 21.52 38.5643 21.702 38.0616 22.066C37.5589 22.43 37.3076 22.9067 37.3076 23.496C37.3076 23.964 37.4549 24.354 37.7496 24.666C38.0616 24.9607 38.4429 25.2033 38.8936 25.394C39.3616 25.5673 40.0029 25.7667 40.8176 25.992C41.8403 26.2693 42.6723 26.5467 43.3136 26.824C43.9549 27.084 44.5009 27.4827 44.9516 28.02C45.4196 28.5573 45.6623 29.2593 45.6796 30.126C45.6796 30.906 45.4629 31.608 45.0296 32.232C44.5963 32.856 43.9809 33.35 43.1836 33.714C42.4036 34.0607 41.5023 34.234 40.4796 34.234ZM65.0252 24.666C65.6839 24.77 66.2819 25.0387 66.8192 25.472C67.3739 25.9053 67.8072 26.4427 68.1192 27.084C68.4486 27.7253 68.6132 28.41 68.6132 29.138C68.6132 30.0567 68.3792 30.8887 67.9112 31.634C67.4432 32.362 66.7586 32.9427 65.8572 33.376C64.9732 33.792 63.9246 34 62.7112 34H55.9512V15.878H62.4512C63.6819 15.878 64.7306 16.086 65.5972 16.502C66.4639 16.9007 67.1139 17.4467 67.5472 18.14C67.9806 18.8333 68.1972 19.6133 68.1972 20.48C68.1972 21.5547 67.9026 22.4473 67.3132 23.158C66.7412 23.8513 65.9786 24.354 65.0252 24.666ZM58.3172 23.704H62.2952C63.4046 23.704 64.2626 23.444 64.8692 22.924C65.4759 22.404 65.7792 21.6847 65.7792 20.766C65.7792 19.8473 65.4759 19.128 64.8692 18.608C64.2626 18.088 63.3872 17.828 62.2432 17.828H58.3172V23.704ZM62.5032 32.05C63.6819 32.05 64.6006 31.7727 65.2592 31.218C65.9179 30.6633 66.2472 29.892 66.2472 28.904C66.2472 27.8987 65.9006 27.11 65.2072 26.538C64.5139 25.9487 63.5866 25.654 62.4252 25.654H58.3172V32.05H62.5032ZM78.1105 34.234C76.7759 34.234 75.5625 33.9307 74.4705 33.324C73.3959 32.7173 72.5465 31.8593 71.9225 30.75C71.3159 29.6233 71.0125 28.3233 71.0125 26.85C71.0125 25.394 71.3245 24.1113 71.9485 23.002C72.5899 21.8753 73.4565 21.0173 74.5485 20.428C75.6405 19.8213 76.8625 19.518 78.2145 19.518C79.5665 19.518 80.7885 19.8213 81.8805 20.428C82.9725 21.0173 83.8305 21.8667 84.4545 22.976C85.0959 24.0853 85.4165 25.3767 85.4165 26.85C85.4165 28.3233 85.0872 29.6233 84.4285 30.75C83.7872 31.8593 82.9119 32.7173 81.8025 33.324C80.6932 33.9307 79.4625 34.234 78.1105 34.234ZM78.1105 32.154C78.9599 32.154 79.7572 31.9547 80.5025 31.556C81.2479 31.1573 81.8459 30.5593 82.2965 29.762C82.7645 28.9647 82.9985 27.994 82.9985 26.85C82.9985 25.706 82.7732 24.7353 82.3225 23.938C81.8719 23.1407 81.2825 22.5513 80.5545 22.17C79.8265 21.7713 79.0379 21.572 78.1885 21.572C77.3219 21.572 76.5245 21.7713 75.7965 22.17C75.0859 22.5513 74.5139 23.1407 74.0805 23.938C73.6472 24.7353 73.4305 25.706 73.4305 26.85C73.4305 28.0113 73.6385 28.9907 74.0545 29.788C74.4879 30.5853 75.0599 31.1833 75.7705 31.582C76.4812 31.9633 77.2612 32.154 78.1105 32.154ZM90.8934 22.066C91.3094 21.2513 91.8987 20.6187 92.6614 20.168C93.4414 19.7173 94.3861 19.492 95.4954 19.492V21.936H94.8714C92.2194 21.936 90.8934 23.3747 90.8934 26.252V34H88.5274V19.752H90.8934V22.066ZM105.169 19.492C106.902 19.492 108.306 20.0207 109.381 21.078C110.455 22.118 110.993 23.626 110.993 25.602V34H108.653V25.94C108.653 24.5187 108.297 23.4353 107.587 22.69C106.876 21.9273 105.905 21.546 104.675 21.546C103.427 21.546 102.43 21.936 101.685 22.716C100.957 23.496 100.593 24.6313 100.593 26.122V34H98.2266V19.752H100.593V21.78C101.061 21.052 101.693 20.4887 102.491 20.09C103.305 19.6913 104.198 19.492 105.169 19.492ZM124.675 21.702V30.1C124.675 30.7933 124.822 31.2873 125.117 31.582C125.412 31.8593 125.923 31.998 126.651 31.998H128.393V34H126.261C124.944 34 123.956 33.6967 123.297 33.09C122.638 32.4833 122.309 31.4867 122.309 30.1V21.702H120.463V19.752H122.309V16.164H124.675V19.752H128.393V21.702H124.675ZM137.474 34.234C136.139 34.234 134.926 33.9307 133.834 33.324C132.759 32.7173 131.91 31.8593 131.286 30.75C130.679 29.6233 130.376 28.3233 130.376 26.85C130.376 25.394 130.688 24.1113 131.312 23.002C131.953 21.8753 132.82 21.0173 133.912 20.428C135.004 19.8213 136.226 19.518 137.578 19.518C138.93 19.518 140.152 19.8213 141.244 20.428C142.336 21.0173 143.194 21.8667 143.818 22.976C144.459 24.0853 144.78 25.3767 144.78 26.85C144.78 28.3233 144.45 29.6233 143.792 30.75C143.15 31.8593 142.275 32.7173 141.166 33.324C140.056 33.9307 138.826 34.234 137.474 34.234ZM137.474 32.154C138.323 32.154 139.12 31.9547 139.866 31.556C140.611 31.1573 141.209 30.5593 141.66 29.762C142.128 28.9647 142.362 27.994 142.362 26.85C142.362 25.706 142.136 24.7353 141.686 23.938C141.235 23.1407 140.646 22.5513 139.918 22.17C139.19 21.7713 138.401 21.572 137.552 21.572C136.685 21.572 135.888 21.7713 135.16 22.17C134.449 22.5513 133.877 23.1407 133.444 23.938C133.01 24.7353 132.794 25.706 132.794 26.85C132.794 28.0113 133.002 28.9907 133.418 29.788C133.851 30.5853 134.423 31.1833 135.134 31.582C135.844 31.9633 136.624 32.154 137.474 32.154ZM160.568 34.182C159.372 34.182 158.298 33.974 157.344 33.558C156.408 33.1247 155.672 32.5353 155.134 31.79C154.597 31.0273 154.32 30.152 154.302 29.164H156.824C156.911 30.0133 157.258 30.7327 157.864 31.322C158.488 31.894 159.39 32.18 160.568 32.18C161.695 32.18 162.579 31.9027 163.22 31.348C163.879 30.776 164.208 30.048 164.208 29.164C164.208 28.4707 164.018 27.9073 163.636 27.474C163.255 27.0407 162.778 26.7113 162.206 26.486C161.634 26.2607 160.863 26.018 159.892 25.758C158.696 25.446 157.734 25.134 157.006 24.822C156.296 24.51 155.68 24.0247 155.16 23.366C154.658 22.69 154.406 21.7887 154.406 20.662C154.406 19.674 154.658 18.7987 155.16 18.036C155.663 17.2733 156.365 16.684 157.266 16.268C158.185 15.852 159.234 15.644 160.412 15.644C162.111 15.644 163.498 16.0687 164.572 16.918C165.664 17.7673 166.28 18.894 166.418 20.298H163.818C163.732 19.6047 163.368 18.998 162.726 18.478C162.085 17.9407 161.236 17.672 160.178 17.672C159.19 17.672 158.384 17.932 157.76 18.452C157.136 18.9547 156.824 19.6653 156.824 20.584C156.824 21.2427 157.006 21.78 157.37 22.196C157.752 22.612 158.211 22.9327 158.748 23.158C159.303 23.366 160.074 23.6087 161.062 23.886C162.258 24.2153 163.22 24.5447 163.948 24.874C164.676 25.186 165.3 25.68 165.82 26.356C166.34 27.0147 166.6 27.916 166.6 29.06C166.6 29.944 166.366 30.776 165.898 31.556C165.43 32.336 164.737 32.9687 163.818 33.454C162.9 33.9393 161.816 34.182 160.568 34.182ZM182.718 19.752V34H180.352V31.894C179.901 32.622 179.269 33.194 178.454 33.61C177.657 34.0087 176.773 34.208 175.802 34.208C174.693 34.208 173.696 33.9827 172.812 33.532C171.928 33.064 171.226 32.3707 170.706 31.452C170.203 30.5333 169.952 29.4153 169.952 28.098V19.752H172.292V27.786C172.292 29.19 172.647 30.2733 173.358 31.036C174.069 31.7813 175.039 32.154 176.27 32.154C177.535 32.154 178.532 31.764 179.26 30.984C179.988 30.204 180.352 29.0687 180.352 27.578V19.752H182.718ZM189.079 22.066C189.495 21.2513 190.084 20.6187 190.847 20.168C191.627 19.7173 192.572 19.492 193.681 19.492V21.936H193.057C190.405 21.936 189.079 23.3747 189.079 26.252V34H186.713V19.752H189.079V22.066ZM198.778 22.378C199.246 21.5633 199.939 20.8873 200.858 20.35C201.794 19.7953 202.877 19.518 204.108 19.518C205.373 19.518 206.517 19.8213 207.54 20.428C208.58 21.0347 209.395 21.8927 209.984 23.002C210.573 24.094 210.868 25.368 210.868 26.824C210.868 28.2627 210.573 29.5453 209.984 30.672C209.395 31.7987 208.58 32.674 207.54 33.298C206.517 33.922 205.373 34.234 204.108 34.234C202.895 34.234 201.82 33.9653 200.884 33.428C199.965 32.8733 199.263 32.1887 198.778 31.374V40.76H196.412V19.752H198.778V22.378ZM208.45 26.824C208.45 25.7493 208.233 24.8133 207.8 24.016C207.367 23.2187 206.777 22.612 206.032 22.196C205.304 21.78 204.498 21.572 203.614 21.572C202.747 21.572 201.941 21.7887 201.196 22.222C200.468 22.638 199.879 23.2533 199.428 24.068C198.995 24.8653 198.778 25.7927 198.778 26.85C198.778 27.9247 198.995 28.8693 199.428 29.684C199.879 30.4813 200.468 31.0967 201.196 31.53C201.941 31.946 202.747 32.154 203.614 32.154C204.498 32.154 205.304 31.946 206.032 31.53C206.777 31.0967 207.367 30.4813 207.8 29.684C208.233 28.8693 208.45 27.916 208.45 26.824ZM216.348 22.066C216.764 21.2513 217.354 20.6187 218.116 20.168C218.896 19.7173 219.841 19.492 220.95 19.492V21.936H220.326C217.674 21.936 216.348 23.3747 216.348 26.252V34H213.982V19.752H216.348V22.066ZM224.904 17.438C224.453 17.438 224.072 17.282 223.76 16.97C223.448 16.658 223.292 16.2767 223.292 15.826C223.292 15.3753 223.448 14.994 223.76 14.682C224.072 14.37 224.453 14.214 224.904 14.214C225.337 14.214 225.701 14.37 225.996 14.682C226.308 14.994 226.464 15.3753 226.464 15.826C226.464 16.2767 226.308 16.658 225.996 16.97C225.701 17.282 225.337 17.438 224.904 17.438ZM226.048 19.752V34H223.682V19.752H226.048ZM235.124 34.234C234.032 34.234 233.053 34.052 232.186 33.688C231.319 33.3067 230.635 32.7867 230.132 32.128C229.629 31.452 229.352 30.6807 229.3 29.814H231.744C231.813 30.5247 232.143 31.1053 232.732 31.556C233.339 32.0067 234.127 32.232 235.098 32.232C235.999 32.232 236.71 32.0327 237.23 31.634C237.75 31.2353 238.01 30.7327 238.01 30.126C238.01 29.502 237.733 29.0427 237.178 28.748C236.623 28.436 235.765 28.1327 234.604 27.838C233.547 27.5607 232.68 27.2833 232.004 27.006C231.345 26.7113 230.773 26.2867 230.288 25.732C229.82 25.16 229.586 24.4147 229.586 23.496C229.586 22.768 229.803 22.1007 230.236 21.494C230.669 20.8873 231.285 20.4107 232.082 20.064C232.879 19.7 233.789 19.518 234.812 19.518C236.389 19.518 237.663 19.9167 238.634 20.714C239.605 21.5113 240.125 22.6033 240.194 23.99H237.828C237.776 23.2447 237.473 22.6467 236.918 22.196C236.381 21.7453 235.653 21.52 234.734 21.52C233.885 21.52 233.209 21.702 232.706 22.066C232.203 22.43 231.952 22.9067 231.952 23.496C231.952 23.964 232.099 24.354 232.394 24.666C232.706 24.9607 233.087 25.2033 233.538 25.394C234.006 25.5673 234.647 25.7667 235.462 25.992C236.485 26.2693 237.317 26.5467 237.958 26.824C238.599 27.084 239.145 27.4827 239.596 28.02C240.064 28.5573 240.307 29.2593 240.324 30.126C240.324 30.906 240.107 31.608 239.674 32.232C239.241 32.856 238.625 33.35 237.828 33.714C237.048 34.0607 236.147 34.234 235.124 34.234ZM256.664 26.33C256.664 26.7807 256.638 27.2573 256.586 27.76H245.198C245.285 29.164 245.761 30.2647 246.628 31.062C247.512 31.842 248.578 32.232 249.826 32.232C250.849 32.232 251.698 31.998 252.374 31.53C253.067 31.0447 253.553 30.4033 253.83 29.606H256.378C255.997 30.9753 255.234 32.0933 254.09 32.96C252.946 33.8093 251.525 34.234 249.826 34.234C248.474 34.234 247.261 33.9307 246.186 33.324C245.129 32.7173 244.297 31.8593 243.69 30.75C243.083 29.6233 242.78 28.3233 242.78 26.85C242.78 25.3767 243.075 24.0853 243.664 22.976C244.253 21.8667 245.077 21.0173 246.134 20.428C247.209 19.8213 248.439 19.518 249.826 19.518C251.178 19.518 252.374 19.8127 253.414 20.402C254.454 20.9913 255.251 21.806 255.806 22.846C256.378 23.8687 256.664 25.03 256.664 26.33ZM254.22 25.836C254.22 24.9347 254.021 24.1633 253.622 23.522C253.223 22.8633 252.677 22.3693 251.984 22.04C251.308 21.6933 250.554 21.52 249.722 21.52C248.526 21.52 247.503 21.9013 246.654 22.664C245.822 23.4267 245.345 24.484 245.224 25.836H254.22Z" fill="black"/>
<path d="M21 255C112.467 251.982 298.921 247.756 313 255" stroke="white" stroke-width="7" stroke-linecap="round"/>
</svg>
