<svg width="591" height="227" viewBox="0 0 591 227" fill="none" xmlns="http://www.w3.org/2000/svg">
<path d="M18.38 0.859985L11.51 11.16L19.47 26.07H16.55L9.51998 13.43H9.40998L5.59998 18.72V26.07H2.97998V0.859985H5.59998V14.98H5.70998L15.49 0.859985H18.37H18.38Z" fill="black"/>
<path d="M23.1699 0.54C23.5199 0.18 23.9499 0 24.4799 0C25.0099 0 25.4499 0.18 25.7999 0.54C26.1499 0.9 26.3299 1.34 26.3299 1.84C26.3299 2.34 26.1499 2.77 25.7999 3.11C25.4499 3.45 25.0099 3.63 24.4799 3.63C23.9499 3.63 23.5199 3.46 23.1699 3.11C22.8199 2.76 22.6499 2.34 22.6499 1.84C22.6499 1.34 22.8199 0.9 23.1699 0.54ZM23.2299 26.07V7.96H25.7099V26.07H23.2299Z" fill="black"/>
<path d="M37.87 24.24C38.71 24.24 39.55 24 40.38 23.52L40.64 25.75C39.52 26.25 38.51 26.51 37.62 26.51C34.09 26.51 32.33 24.54 32.33 20.6V10.12H29.04V7.96H32.36L32.96 2.12H34.81V7.96H40.61V10.12H34.81V20.19C34.81 22.89 35.83 24.23 37.87 24.23V24.24Z" fill="black"/>
<path d="M53.6602 21.53C53.6602 23.04 53.1502 24.25 52.1302 25.15C51.1102 26.05 49.8002 26.5 48.1902 26.5C46.0802 26.5 44.3302 25.85 42.9302 24.55L43.5302 22.53C44.0602 23.08 44.7302 23.53 45.5502 23.88C46.3702 24.23 47.1602 24.41 47.9202 24.41C48.9502 24.41 49.7802 24.16 50.4102 23.65C51.0402 23.14 51.3502 22.46 51.3502 21.59C51.3502 21.16 51.2502 20.75 51.0602 20.37C50.8702 19.99 50.5302 19.6 50.0502 19.2C49.5702 18.8 49.1902 18.49 48.9002 18.28C48.6102 18.07 48.1402 17.74 47.4702 17.3C46.6002 16.73 45.9302 16.26 45.4702 15.9C45.0102 15.54 44.5402 15.01 44.0802 14.3C43.6202 13.59 43.3902 12.83 43.3902 12.01C43.3902 10.66 43.8802 9.58001 44.8702 8.75001C45.8602 7.92001 47.1302 7.51001 48.6802 7.51001C50.4802 7.51001 52.0102 7.96001 53.2502 8.85001L52.6002 10.73C51.6402 9.93001 50.4202 9.53001 48.9402 9.53001C48.0302 9.53001 47.2702 9.76001 46.6602 10.22C46.0502 10.68 45.7502 11.26 45.7502 11.98C45.7502 12.46 45.9402 12.94 46.3102 13.4C46.6802 13.86 47.0602 14.25 47.4402 14.53C47.8202 14.81 48.4002 15.21 49.1702 15.72C49.8402 16.15 50.3802 16.52 50.7902 16.82C51.2002 17.12 51.6602 17.51 52.1602 18.01C52.6602 18.51 53.0402 19.04 53.2802 19.62C53.5202 20.2 53.6402 20.84 53.6402 21.53H53.6602Z" fill="black"/>
<path d="M74.1001 7.52002C76.1601 7.52002 77.8501 8.36002 79.1501 10.04C80.4501 11.72 81.1101 14.05 81.1101 17.03C81.1101 20.01 80.4501 22.33 79.1301 24C77.8101 25.67 76.1301 26.5 74.0901 26.5C72.0501 26.5 70.3701 25.66 69.0501 23.98C67.7301 22.3 67.0601 19.97 67.0601 16.99C67.0601 14.01 67.7201 11.69 69.0501 10.02C70.3801 8.35002 72.0601 7.52002 74.0901 7.52002H74.1001ZM74.1001 24.21C75.4501 24.21 76.5501 23.57 77.4001 22.28C78.2501 20.99 78.6701 19.24 78.6701 17.04C78.6701 14.84 78.2401 13.06 77.3901 11.78C76.5401 10.5 75.4401 9.86002 74.0901 9.86002C72.7401 9.86002 71.6601 10.5 70.8201 11.77C69.9801 13.04 69.5601 14.8 69.5601 17.03C69.5601 19.26 69.9801 20.97 70.8201 22.25C71.6601 23.53 72.7501 24.18 74.1001 24.2V24.21Z" fill="black"/>
<path d="M93.6099 7.52002C95.3299 7.52002 96.7699 8.20002 97.9099 9.56002C99.0499 10.92 99.6199 12.75 99.6199 15.04V26.06H97.1399V15.34C97.1399 13.71 96.7299 12.39 95.9099 11.38C95.0899 10.37 94.0599 9.86002 92.8099 9.86002C91.5599 9.86002 90.5099 10.36 89.6499 11.37C88.7899 12.38 88.3599 13.7 88.3599 15.34V26.06H85.8799V7.96002H87.4999L88.0799 11.41H88.2199C88.6799 10.17 89.3799 9.21002 90.3299 8.54002C91.2799 7.87002 92.3699 7.53002 93.6199 7.53002L93.6099 7.52002Z" fill="black"/>
<path d="M113.04 7.52004C114.84 7.52004 116.34 8.39004 117.54 10.13C118.74 11.87 119.33 14.17 119.33 17.03C119.33 19.89 118.72 22.15 117.51 23.89C116.3 25.63 114.79 26.5 113 26.5C111.9 26.5 110.88 26.15 109.96 25.45C109.04 24.75 108.3 23.77 107.75 22.49H107.61L106.99 26.06H105.37V0.0400391H107.88V10.99H107.99C109.2 8.68004 110.88 7.53004 113.03 7.53004L113.04 7.52004ZM112.35 24.15C113.65 24.17 114.73 23.51 115.58 22.17C116.43 20.83 116.85 19.11 116.85 17.03C116.85 14.95 116.43 13.2 115.58 11.86C114.73 10.52 113.66 9.86004 112.35 9.86004C111.04 9.86004 109.98 10.53 109.14 11.86C108.3 13.19 107.88 14.92 107.88 17.03C107.88 19.14 108.3 20.82 109.14 22.15C109.98 23.48 111.05 24.15 112.35 24.15Z" fill="black"/>
<path d="M130.24 7.52002C132.3 7.52002 133.99 8.36002 135.29 10.04C136.59 11.72 137.25 14.05 137.25 17.03C137.25 20.01 136.59 22.33 135.27 24C133.95 25.67 132.27 26.5 130.23 26.5C128.19 26.5 126.51 25.66 125.19 23.98C123.87 22.3 123.2 19.97 123.2 16.99C123.2 14.01 123.86 11.69 125.19 10.02C126.52 8.35002 128.2 7.52002 130.23 7.52002H130.24ZM130.24 24.21C131.59 24.21 132.69 23.57 133.54 22.28C134.39 20.99 134.81 19.24 134.81 17.04C134.81 14.84 134.38 13.06 133.53 11.78C132.68 10.5 131.58 9.86002 130.23 9.86002C128.88 9.86002 127.8 10.5 126.96 11.77C126.12 13.04 125.7 14.8 125.7 17.03C125.7 19.26 126.12 20.97 126.96 22.25C127.8 23.53 128.89 24.18 130.24 24.2V24.21Z" fill="black"/>
<path d="M146.93 7.52002C149.02 7.52002 150.6 8.06002 151.68 9.13002C152.76 10.2 153.31 11.99 153.31 14.48V26.06H151.69L151.15 22.86H151.01C150.03 25.29 148.38 26.5 146.07 26.5C144.61 26.5 143.37 25.94 142.36 24.82C141.35 23.7 140.85 22.32 140.85 20.66C140.85 18.86 141.39 17.39 142.46 16.27C143.53 15.15 145.09 14.58 147.13 14.58C148.45 14.58 149.69 14.9 150.84 15.55V14.43C150.84 12.89 150.51 11.74 149.86 10.98C149.21 10.22 148.15 9.83002 146.69 9.83002C146.02 9.83002 145.35 9.94002 144.68 10.17C144.01 10.4 143.5 10.62 143.16 10.85L142.67 11.17L141.88 9.01002C142.86 8.53002 143.46 8.24002 143.67 8.15002C144.77 7.74002 145.86 7.53002 146.94 7.53002L146.93 7.52002ZM150.83 18.18V17.48C149.89 16.86 148.79 16.54 147.51 16.53C146.14 16.53 145.08 16.92 144.35 17.7C143.62 18.48 143.24 19.47 143.24 20.68C143.24 21.89 143.54 22.77 144.14 23.5C144.74 24.23 145.55 24.6 146.58 24.6C147.82 24.6 148.84 23.97 149.62 22.71C150.4 21.45 150.81 19.94 150.83 18.18Z" fill="black"/>
<path d="M161.51 12.02C162.01 10.6 162.73 9.50002 163.67 8.71002C164.61 7.92002 165.67 7.52002 166.87 7.52002V9.86002C165.41 9.86002 164.16 10.55 163.13 11.93C162.1 13.31 161.58 15.18 161.58 17.54H161.54V26.07H159.06V7.96002H160.68L161.37 12.02H161.51Z" fill="black"/>
<path d="M175.48 7.52004C177.64 7.52004 179.31 8.67004 180.51 10.98H180.63V0.0400391H183.14V26.07H181.52L180.9 22.5H180.76C180.21 23.78 179.47 24.76 178.55 25.46C177.63 26.16 176.61 26.51 175.51 26.51C173.71 26.51 172.2 25.64 170.98 23.9C169.76 22.16 169.16 19.87 169.16 17.04C169.16 14.21 169.76 11.88 170.96 10.14C172.16 8.40004 173.66 7.53004 175.47 7.53004L175.48 7.52004ZM176.16 24.15C177.46 24.15 178.53 23.48 179.37 22.15C180.21 20.82 180.63 19.11 180.63 17.03C180.63 14.95 180.21 13.2 179.36 11.86C178.51 10.52 177.45 9.86004 176.15 9.86004C174.85 9.86004 173.78 10.53 172.93 11.86C172.08 13.19 171.66 14.92 171.66 17.03C171.66 19.14 172.08 20.83 172.93 22.17C173.78 23.51 174.85 24.17 176.16 24.15Z" fill="black"/>
<path d="M188.9 0.54C189.25 0.18 189.68 0 190.21 0C190.74 0 191.18 0.18 191.53 0.54C191.88 0.9 192.06 1.34 192.06 1.84C192.06 2.34 191.88 2.77 191.53 3.11C191.18 3.45 190.74 3.63 190.21 3.63C189.68 3.63 189.25 3.46 188.9 3.11C188.55 2.76 188.38 2.34 188.38 1.84C188.38 1.34 188.55 0.9 188.9 0.54ZM188.97 26.07V7.96H191.45V26.07H188.97Z" fill="black"/>
<path d="M205.04 7.52002C206.76 7.52002 208.2 8.20002 209.34 9.56002C210.48 10.92 211.05 12.75 211.05 15.04V26.06H208.57V15.34C208.57 13.71 208.16 12.39 207.34 11.38C206.52 10.37 205.49 9.86002 204.24 9.86002C202.99 9.86002 201.94 10.36 201.08 11.37C200.22 12.38 199.79 13.7 199.79 15.34V26.06H197.31V7.96002H198.93L199.51 11.41H199.65C200.11 10.17 200.81 9.21002 201.76 8.54002C202.71 7.87002 203.8 7.53002 205.05 7.53002L205.04 7.52002Z" fill="black"/>
<path d="M225.65 8.24001C226.11 7.50001 226.71 6.94001 227.47 6.55001C228.23 6.16001 229 6.02001 229.8 6.11001V8.20001C228.65 8.13001 227.74 8.45001 227.06 9.17001V9.33001C228.18 10.5 228.75 12.03 228.77 13.9C228.77 15.8 228.22 17.31 227.11 18.44C226 19.57 224.53 20.13 222.71 20.13C221.15 20.13 219.83 19.66 218.75 18.72C218.27 19.29 218.03 19.89 218.03 20.5C218.03 22.06 218.94 22.84 220.77 22.84H225.16C226.6 22.86 227.72 23.29 228.51 24.11C229.3 24.93 229.7 26.11 229.7 27.62C229.7 29.5 229.03 31.12 227.7 32.48C226.37 33.84 224.59 34.53 222.39 34.53C220.61 34.53 219.11 34.06 217.89 33.11C216.67 32.16 216.06 30.81 216.06 29.07C216.06 27.33 216.69 25.86 217.96 24.78V24.67C216.5 24.05 215.76 22.86 215.76 21.1C215.76 19.56 216.35 18.29 217.54 17.29C216.97 16.28 216.67 15.15 216.66 13.88C216.66 11.98 217.22 10.45 218.34 9.28C219.46 8.11 220.92 7.53001 222.71 7.53001C223.79 7.53001 224.77 7.77001 225.66 8.25001L225.65 8.24001ZM219.83 25.07C218.75 25.94 218.21 27.13 218.2 28.66C218.2 29.96 218.64 30.93 219.52 31.57C220.4 32.21 221.39 32.53 222.49 32.53C223.98 32.53 225.17 32.08 226.06 31.18C226.95 30.28 227.4 29.2 227.4 27.95C227.4 26.03 226.43 25.07 224.48 25.08H219.84L219.83 25.07ZM222.7 18.14C223.85 18.14 224.77 17.76 225.46 16.99C226.15 16.22 226.5 15.21 226.5 13.94C226.5 12.67 226.15 11.67 225.45 10.86C224.75 10.05 223.84 9.65 222.7 9.65C221.56 9.65 220.63 10.05 219.95 10.84C219.27 11.63 218.92 12.66 218.92 13.93C218.92 15.2 219.27 16.22 219.97 16.99C220.67 17.76 221.58 18.14 222.7 18.14Z" fill="black"/>
<path d="M75.2902 226.98C96.4402 226.68 117.6 226.42 138.76 226.2C159.92 225.98 181.07 225.8 202.23 225.66C223.39 225.52 244.38 225.42 265.46 225.37C286.54 225.32 307.78 225.29 328.94 225.32C350.1 225.35 371.09 225.41 392.17 225.51C394.84 225.52 397.5 225.54 400.17 225.55C403.39 225.57 403.39 220.57 400.17 220.55C379.01 220.44 357.85 220.36 336.69 220.33C315.53 220.3 294.37 220.3 273.21 220.35C252.05 220.4 231.06 220.49 209.98 220.62C188.9 220.75 167.66 220.92 146.51 221.13C125.36 221.34 104.36 221.59 83.2902 221.88C80.6202 221.92 77.9602 221.95 75.2902 221.99C72.0802 222.04 72.0702 227.04 75.2902 226.99V226.98Z" fill="#FFFF5F"/>
<path d="M64.8402 202.3C61.0202 202.3 57.9502 200.53 55.6302 196.97H55.2302V219.43H41.2202V159.89H49.2702L53.4302 167.5H53.8302C54.9202 164.59 56.4302 162.39 58.3502 160.89C60.2702 159.4 62.4302 158.65 64.8402 158.65C68.7102 158.65 71.8602 160.55 74.2902 164.36C76.7202 168.16 77.9302 173.54 77.9302 180.48C77.9302 187.42 76.7302 192.79 74.3302 196.6C71.9302 200.41 68.7602 202.31 64.8402 202.31V202.3ZM59.6002 171.63C56.6902 171.63 55.2402 174.58 55.2402 180.48C55.2402 186.38 56.6902 189.33 59.6002 189.33C62.5102 189.33 64.0302 186.38 64.0002 180.48C63.8902 174.58 62.4202 171.63 59.6002 171.63Z" stroke="black"/>
<path d="M98.16 168.18C100.67 161.83 104.75 158.65 110.41 158.65V171.62C107.69 171.62 105.16 172.65 102.82 174.72C100.48 176.79 99.32 180.04 99.32 184.47V201.05H85.23V159.89H93.28L97.84 168.18H98.16Z" stroke="black"/>
<path d="M118.12 140.62C119.73 138.98 121.74 138.16 124.15 138.16C126.56 138.16 128.56 138.98 130.18 140.62C131.79 142.26 132.6 144.26 132.6 146.61C132.6 148.96 131.79 150.95 130.18 152.6C128.56 154.24 126.56 155.06 124.15 155.06C121.74 155.06 119.74 154.24 118.12 152.6C116.5 150.96 115.7 148.96 115.7 146.61C115.7 144.26 116.51 142.27 118.12 140.62ZM117.25 201.05V159.89H131.1V201.05H117.25Z" stroke="black"/>
<path d="M183.68 158.65C187.55 158.65 190.5 160.21 192.53 163.33C194.56 166.45 195.55 170.99 195.49 176.94V201.04H181.56V177.74C181.56 173.63 180.52 171.58 178.44 171.59C176.36 171.6 175.32 173.23 175.32 176.45V201.03H161.31V177.73C161.31 173.62 160.27 171.57 158.19 171.58C156.11 171.59 155.07 173.12 155.07 176.16V201.02H141.06V159.86H149.11L152.71 166.43H153.11C154.92 161.22 158.37 158.62 163.44 158.62C168.51 158.62 171.77 161.09 173.69 166.03H174.09C175.69 161.09 178.89 158.62 183.7 158.62L183.68 158.65Z" stroke="black"/>
<path d="M205.34 164.4C208.28 160.57 212.17 158.65 217.03 158.65C221.89 158.65 225.71 160.53 228.5 164.28C231.29 168.03 232.68 173.43 232.68 180.48C232.68 181.57 232.57 182.88 232.36 184.4H214.14C214.97 187.68 216.8 189.32 219.63 189.32C223.13 189.32 226.2 188.36 228.84 186.44L230.64 198.61C227.68 201.07 223.98 202.29 219.55 202.29C213.7 202.29 209.14 200.39 205.86 196.58C202.58 192.77 200.94 187.4 200.94 180.46C200.94 173.52 202.41 168.21 205.34 164.38V164.4ZM213.83 177.59H220.32C220.21 173.59 219.15 171.6 217.12 171.62C215.2 171.59 214.1 173.58 213.84 177.59H213.83Z" stroke="black"/>
<path d="M252.91 168.18C255.42 161.83 259.5 158.65 265.16 158.65V171.62C262.44 171.62 259.91 172.65 257.57 174.72C255.23 176.79 254.07 180.04 254.07 184.47V201.05H239.98V159.89H248.03L252.59 168.18H252.91Z" stroke="black"/>
<path d="M310.44 171.63C308.52 171.63 307.1 172.42 306.18 174.01C305.26 175.6 304.8 177.75 304.8 180.48C304.8 186.38 306.76 189.33 310.69 189.33C312.56 189.33 314.53 188.6 316.62 187.13L318.5 200.06C315.32 201.53 312.07 202.28 308.73 202.3C303.36 202.3 298.99 200.41 295.6 196.63C292.21 192.85 290.52 187.47 290.52 180.47C290.52 173.47 292.2 168.09 295.56 164.31C298.92 160.53 303.31 158.64 308.73 158.64C312.73 158.64 316.23 159.76 319.22 162L314.9 173.65C313.81 172.29 312.32 171.61 310.46 171.61L310.44 171.63Z" stroke="black"/>
<path d="M338.27 158.65C344.44 158.65 349.09 159.99 352.24 162.67C355.39 165.35 356.96 170.16 356.96 177.1V201.04H348.95L345.67 195.15H345.27C343.59 199.9 340.05 202.28 334.66 202.28C331.16 202.28 328.33 201.07 326.17 198.66C324.01 196.25 322.93 193.15 322.93 189.39C322.93 185.33 324.02 182.06 326.21 179.58C328.4 177.1 331.71 175.86 336.14 175.86C338.38 175.86 340.65 176.49 342.95 177.74V176.86C342.95 174.72 342.46 173.28 341.47 172.52C340.48 171.76 338.81 171.38 336.47 171.38C335.16 171.38 333.8 171.62 332.39 172.1C330.97 172.58 329.94 173.03 329.29 173.44C328.64 173.85 328.26 174.11 328.15 174.22L324.27 162.09C328.54 159.79 333.21 158.65 338.28 158.65H338.27ZM342.95 186.96V185.32C341.64 184.44 340.55 184 339.67 184C338.52 184 337.63 184.43 337.01 185.28C336.38 186.13 336.07 187.16 336.07 188.36C336.07 189.56 336.36 190.44 336.93 191.14C337.5 191.85 338.28 192.2 339.27 192.2C340.26 192.2 341.09 191.69 341.77 190.68C342.45 189.67 342.84 188.42 342.95 186.96Z" stroke="black"/>
<path d="M390.28 171.63H380.91V201.06H366.9V171.63H359.77V159.9H366.9V157.78C366.9 151.61 368.15 147.12 370.66 144.29C373.17 141.46 376.97 140.05 382.07 140.05C385.41 140.05 388.38 140.46 391 141.29L389.44 153.42C387.97 152.89 386.56 152.62 385.2 152.62C382.37 152.62 380.94 154.72 380.92 158.91V159.91H390.29V171.64L390.28 171.63Z" stroke="black"/>
<path d="M397.55 164.4C400.47 160.57 404.36 158.65 409.22 158.65C414.08 158.65 417.9 160.53 420.69 164.28C423.48 168.03 424.87 173.43 424.87 180.48C424.87 181.57 424.76 182.88 424.55 184.4H406.33C407.16 187.68 408.99 189.32 411.82 189.32C415.32 189.32 418.39 188.36 421.03 186.44L422.83 198.61C419.87 201.07 416.17 202.29 411.74 202.29C405.89 202.29 401.34 200.39 398.07 196.58C394.8 192.78 393.17 187.4 393.17 180.46C393.17 173.52 394.63 168.21 397.55 164.38V164.4ZM405.22 139.39H417.67L407.02 153.96H397.73L405.22 139.39ZM406.02 177.59H412.51C412.4 173.59 411.34 171.6 409.31 171.62C407.39 171.59 406.29 173.58 406.03 177.59H406.02Z" stroke="black"/>
<path d="M20.2902 169.93V179.68H29.9502V189.57H20.2902V199.32H10.4002V189.57H0.660156V179.68H10.4102V169.93H20.3002H20.2902Z" stroke="black"/>
<path d="M51.9 100.33L56.73 55.11H74.66L65.6 126.53H42.74L37.46 88.98H37.11L31.93 126.53H8.96L0 55.11H17.83L22.76 100.33H22.96L28.84 55.11H45.67L51.6 100.33H51.9Z" fill="black"/>
<path d="M99.01 99.49V109.9H122.47V126.53H80.73V55.11H121.82V71.74H99.01V84.49H119.58V99.48H99.01V99.49Z" fill="black"/>
<path d="M150.81 55.11V109.9H171.58V126.53H132.53V55.11H150.81Z" fill="black"/>
<path d="M204 111.44C206.99 111.44 210.39 109.98 214.21 107.06L217.7 123.79C213.55 126.64 207.97 128.07 200.97 128.07C192.47 128.07 185.77 125.11 180.87 119.18C175.97 113.25 173.52 103.8 173.52 90.82C173.52 77.84 175.97 68.41 180.87 62.53C185.77 56.65 192.47 53.71 200.97 53.71C208.57 53.71 213.8 54.62 216.66 56.45L212.28 72.69C210.19 71.13 207.43 70.35 204.01 70.35C200.19 70.35 197.21 71.84 195.07 74.83C192.93 77.82 191.86 83.15 191.86 90.82C191.86 98.49 192.93 103.93 195.07 106.93C197.21 109.94 200.19 111.44 204.01 111.44H204Z" fill="black"/>
<path d="M226.41 62.48C231.06 56.57 237.43 53.61 245.53 53.61C253.63 53.61 260.01 56.57 264.65 62.48C269.3 68.39 271.62 77.84 271.62 90.82C271.62 103.8 269.3 113.34 264.65 119.23C260 125.12 253.63 128.07 245.53 128.07C237.43 128.07 231.05 125.12 226.41 119.23C221.76 113.34 219.44 103.87 219.44 90.82C219.44 77.77 221.76 68.39 226.41 62.48ZM239.76 107.01C241.09 109.97 243.01 111.44 245.54 111.44C248.07 111.44 249.99 109.96 251.32 107.01C252.65 104.06 253.31 98.66 253.31 90.82C253.31 82.98 252.65 77.72 251.32 74.73C249.99 71.74 248.07 70.25 245.54 70.25C243.01 70.25 241.09 71.74 239.76 74.73C238.43 77.72 237.77 83.08 237.77 90.82C237.77 98.56 238.43 104.05 239.76 107.01Z" fill="black"/>
<path d="M311.43 90.02L322.44 55.11H341.22V126.53H323.49V96.55H323.04L313.48 126.53H309.1L299.59 96.55H299.19V126.53H281.46V55.11H300.24L311.25 90.02H311.45H311.43Z" fill="black"/>
<path d="M371.79 99.49V109.9H395.25V126.53H353.51V55.11H394.6V71.74H371.79V84.49H392.36V99.48H371.79V99.49Z" fill="black"/>
<path d="M466.17 88.78C469.69 90.21 472.46 92.46 474.49 95.53C476.51 98.6 477.53 102.28 477.53 106.56C477.53 112.34 475.57 117.11 471.65 120.88C467.73 124.65 462.78 126.53 456.81 126.53H431.71V55.11H454.87C461.05 55.11 466.03 56.85 469.81 60.31C473.6 63.78 475.49 68.34 475.49 73.98C475.49 80.45 472.39 85.22 466.18 88.27V88.77L466.17 88.78ZM449.99 71.05V84.6H452.73C454.16 84.6 455.31 83.95 456.19 82.66C457.07 81.37 457.51 79.74 457.51 77.78C457.51 75.82 457.07 74.21 456.19 72.95C455.31 71.69 454.16 71.06 452.73 71.06H449.99V71.05ZM453.62 110.74C455.25 110.74 456.56 110.11 457.55 108.85C458.55 107.59 459.04 105.96 459.04 103.97C459.04 101.98 458.54 100.3 457.55 99.04C456.55 97.78 455.24 97.15 453.62 97.15H449.98V110.75H453.62V110.74Z" fill="black"/>
<path d="M492.22 62.48C496.87 56.57 503.24 53.61 511.34 53.61C519.44 53.61 525.82 56.57 530.46 62.48C535.11 68.39 537.43 77.84 537.43 90.82C537.43 103.8 535.11 113.34 530.46 119.23C525.81 125.12 519.44 128.07 511.34 128.07C503.24 128.07 496.86 125.12 492.22 119.23C487.57 113.34 485.25 103.87 485.25 90.82C485.25 77.77 487.57 68.39 492.22 62.48ZM505.57 107.01C506.9 109.97 508.82 111.44 511.35 111.44C513.88 111.44 515.8 109.96 517.13 107.01C518.46 104.06 519.12 98.66 519.12 90.82C519.12 82.98 518.46 77.72 517.13 74.73C515.8 71.74 513.88 70.25 511.35 70.25C508.82 70.25 506.9 71.74 505.57 74.73C504.24 77.72 503.58 83.08 503.58 90.82C503.58 98.56 504.24 104.05 505.57 107.01Z" fill="black"/>
<path d="M588.94 55.11L576.19 90.32L590.38 126.53H572.6L564.03 103.47H563.73L555.16 126.53H537.53L551.72 89.72L538.97 55.11H556.6L563.72 76.68H564.02L571.19 55.11H588.92H588.94Z" fill="black"/>
</svg>
