<svg width="640" height="15" viewBox="0 0 640 15" fill="none" xmlns="http://www.w3.org/2000/svg">
<g clip-path="url(#clip0_2_415)">
<path d="M0 14.6751V0.26062H7.81695V3.12684H3.15805V7.03531H7.25413V9.63054H3.15805V14.6751H0Z" fill="black"/>
<path d="M12.726 0.26062V11.8089H17.3119V14.6751H9.56795V0.26062H12.726Z" fill="black"/>
<path d="M22.2939 8.95307V11.8089H27.4219V14.6751H19.1672V0.26062H27.2968V3.12684H22.2939V6.38911H26.8486V8.96349H22.2939V8.95307Z" fill="black"/>
<path d="M38.4386 0.26062L35.614 7.34799L38.72 14.6751H35.6557L33.5295 9.63054H33.467L31.3303 14.6751H28.2869L31.3929 7.24376L28.5788 0.26062H31.6222L33.467 4.97164H33.5295L35.3847 0.26062H38.4281H38.4386Z" fill="black"/>
<path d="M40.1166 14.6751V0.26062H43.2747V14.6751H40.1166Z" fill="black"/>
<path d="M52.655 7.077C53.395 7.36884 53.9787 7.81701 54.3956 8.44236C54.8125 9.0573 55.0209 9.80773 55.0209 10.6936C55.0209 11.8506 54.6353 12.799 53.864 13.5599C53.0927 14.3207 52.1026 14.6855 50.9144 14.6855H45.9845V0.26062H50.5809C51.7795 0.26062 52.7384 0.604566 53.4784 1.30288C54.2184 2.0012 54.5936 2.89754 54.5936 4.01276C54.5936 5.38854 53.9474 6.37869 52.6654 7.00404V7.08743L52.655 7.077ZM49.1113 3.00177V6.337H50.1848C50.5705 6.337 50.8832 6.18066 51.1437 5.86798C51.3939 5.5553 51.5294 5.15924 51.5294 4.65896C51.5294 4.15867 51.4043 3.76262 51.1437 3.46036C50.8832 3.14768 50.5705 3.00177 50.1848 3.00177H49.1113ZM50.362 11.9652C50.7893 11.9652 51.1333 11.7984 51.4251 11.4753C51.7065 11.1522 51.8525 10.7353 51.8525 10.2246C51.8525 9.71392 51.717 9.30744 51.4355 8.99476C51.1646 8.68208 50.7998 8.52575 50.362 8.52575H49.1009V11.9652H50.362Z" fill="black"/>
<path d="M57.2618 14.6751V0.26062H60.4198V14.6751H57.2618Z" fill="black"/>
<path d="M66.2878 0.26062V11.8089H70.8737V14.6751H63.1297V0.26062H66.2878Z" fill="black"/>
<path d="M72.7185 14.6751V0.26062H75.8766V14.6751H72.7185Z" fill="black"/>
<path d="M82.9639 0.26062C84.4752 0.26062 85.7155 0.938089 86.6848 2.29303C87.6645 3.64797 88.144 5.37812 88.144 7.47306C88.144 9.56801 87.6541 11.2982 86.6848 12.6531C85.7155 14.008 84.4648 14.6751 82.9535 14.6751H78.5656V0.26062H82.9535H82.9639ZM82.5157 11.8089C83.2453 11.8089 83.8498 11.4024 84.3084 10.5894C84.7775 9.77646 85.0068 8.7342 85.0068 7.47306C85.0068 6.21193 84.7775 5.16967 84.3084 4.34628C83.8394 3.53332 83.2453 3.11641 82.5157 3.11641H81.7445V11.7984H82.5157V11.8089Z" fill="black"/>
<path d="M92.0212 0.26062H95.9505L99.3483 14.6751H96.1694L95.7212 12.2258H92.2609L91.8127 14.6751H88.6442L92.0212 0.26062ZM92.7716 9.71392H95.2313L94.0327 3.92938H93.9493L92.7612 9.71392H92.7716Z" fill="black"/>
<path d="M105.049 0.26062C106.561 0.26062 107.801 0.938089 108.77 2.29303C109.75 3.64797 110.229 5.37812 110.229 7.47306C110.229 9.56801 109.74 11.2982 108.77 12.6531C107.801 14.008 106.55 14.6751 105.039 14.6751H100.651V0.26062H105.039H105.049ZM104.591 11.8089C105.32 11.8089 105.925 11.4024 106.384 10.5894C106.853 9.77646 107.082 8.7342 107.082 7.47306C107.082 6.21193 106.853 5.16967 106.384 4.34628C105.914 3.53332 105.32 3.11641 104.591 3.11641H103.82V11.7984H104.591V11.8089Z" fill="black"/>
<path d="M133.774 14.6751V0.26062H141.591V3.12684H136.922V7.03531H141.018V9.63054H136.922V14.6751H133.764H133.774Z" fill="black"/>
<path d="M146.5 0.26062V11.8089H151.086V14.6751H143.342V0.26062H146.5Z" fill="black"/>
<path d="M156.068 8.95307V11.8089H161.196V14.6751H152.941V0.26062H161.071V3.12684H156.068V6.38911H160.623V8.96349H156.068V8.95307Z" fill="black"/>
<path d="M172.213 0.26062L169.388 7.34799L172.494 14.6751H169.43L167.304 9.63054H167.241L165.104 14.6751H162.061L165.167 7.24376L162.353 0.26062H165.396L167.241 4.97164H167.304L169.159 0.26062H172.202H172.213Z" fill="black"/>
<path d="M173.891 14.6751V0.26062H177.049V14.6751H173.891Z" fill="black"/>
<path d="M186.429 7.077C187.169 7.36884 187.753 7.81701 188.17 8.44236C188.587 9.0573 188.795 9.80773 188.795 10.6936C188.795 11.8506 188.409 12.799 187.638 13.5599C186.867 14.3207 185.877 14.6855 184.689 14.6855H179.759V0.26062H184.355C185.554 0.26062 186.513 0.604566 187.253 1.30288C187.993 2.0012 188.368 2.89754 188.368 4.01276C188.368 5.38854 187.722 6.37869 186.44 7.00404V7.08743L186.429 7.077ZM182.885 3.00177V6.337H183.959C184.345 6.337 184.657 6.18066 184.918 5.86798C185.168 5.5553 185.303 5.15924 185.303 4.65896C185.303 4.15867 185.178 3.76262 184.918 3.46036C184.657 3.14768 184.345 3.00177 183.959 3.00177H182.885ZM184.136 11.9652C184.563 11.9652 184.907 11.7984 185.199 11.4753C185.481 11.1522 185.627 10.7353 185.627 10.2246C185.627 9.71392 185.491 9.30744 185.21 8.99476C184.939 8.68208 184.574 8.52575 184.136 8.52575H182.875V11.9652H184.136Z" fill="black"/>
<path d="M191.036 14.6751V0.26062H194.194V14.6751H191.036Z" fill="black"/>
<path d="M200.062 0.26062V11.8089H204.648V14.6751H196.904V0.26062H200.062Z" fill="black"/>
<path d="M206.493 14.6751V0.26062H209.651V14.6751H206.493Z" fill="black"/>
<path d="M216.738 0.26062C218.249 0.26062 219.49 0.938089 220.459 2.29303C221.439 3.64797 221.918 5.37812 221.918 7.47306C221.918 9.56801 221.428 11.2982 220.459 12.6531C219.49 14.008 218.239 14.6751 216.728 14.6751H212.34V0.26062H216.728H216.738ZM216.29 11.8089C217.019 11.8089 217.624 11.4024 218.083 10.5894C218.552 9.77646 218.781 8.7342 218.781 7.47306C218.781 6.21193 218.552 5.16967 218.083 4.34628C217.614 3.53332 217.019 3.11641 216.29 3.11641H215.519V11.7984H216.29V11.8089Z" fill="black"/>
<path d="M225.795 0.26062H229.725L233.122 14.6751H229.944L229.495 12.2258H226.035L225.587 14.6751H222.418L225.795 0.26062ZM226.546 9.71392H229.005L227.807 3.92938H227.723L226.535 9.71392H226.546Z" fill="black"/>
<path d="M238.824 0.26062C240.335 0.26062 241.575 0.938089 242.544 2.29303C243.524 3.64797 244.004 5.37812 244.004 7.47306C244.004 9.56801 243.514 11.2982 242.544 12.6531C241.575 14.008 240.324 14.6751 238.813 14.6751H234.425V0.26062H238.813H238.824ZM238.365 11.8089C239.095 11.8089 239.699 11.4024 240.158 10.5894C240.627 9.77646 240.856 8.7342 240.856 7.47306C240.856 6.21193 240.627 5.16967 240.158 4.34628C239.689 3.53332 239.095 3.11641 238.365 3.11641H237.594V11.7984H238.365V11.8089Z" fill="black"/>
<path d="M267.548 14.6751V0.26062H275.365V3.12684H270.696V7.03531H274.792V9.63054H270.696V14.6751H267.538H267.548Z" stroke="black" stroke-width="0.5"/>
<path d="M280.274 0.26062V11.8089H284.86V14.6751H277.116V0.26062H280.274Z" stroke="black" stroke-width="0.5"/>
<path d="M289.842 8.95307V11.8089H294.97V14.6751H286.715V0.26062H294.845V3.12684H289.842V6.38911H294.397V8.96349H289.842V8.95307Z" stroke="black" stroke-width="0.5"/>
<path d="M305.987 0.26062L303.162 7.34799L306.268 14.6751H303.204L301.078 9.63054H301.015L298.879 14.6751H295.835L298.941 7.24376L296.127 0.26062H299.17L301.015 4.97164H301.078L302.933 0.26062H305.976H305.987Z" stroke="black" stroke-width="0.5"/>
<path d="M307.665 14.6751V0.26062H310.823V14.6751H307.665Z" stroke="black" stroke-width="0.5"/>
<path d="M320.203 7.077C320.943 7.36884 321.527 7.81701 321.944 8.44236C322.361 9.0573 322.569 9.80773 322.569 10.6936C322.569 11.8506 322.184 12.799 321.412 13.5599C320.641 14.3207 319.651 14.6855 318.463 14.6855H313.533V0.26062H318.129C319.328 0.26062 320.287 0.604566 321.027 1.30288C321.767 2.0012 322.142 2.89754 322.142 4.01276C322.142 5.38854 321.496 6.37869 320.214 7.00404V7.08743L320.203 7.077ZM316.66 3.00177V6.337H317.733C318.119 6.337 318.431 6.18066 318.692 5.86798C318.942 5.5553 319.078 5.15924 319.078 4.65896C319.078 4.15867 318.953 3.76262 318.692 3.46036C318.431 3.14768 318.119 3.00177 317.733 3.00177H316.66ZM317.91 11.9652C318.338 11.9652 318.682 11.7984 318.973 11.4753C319.255 11.1522 319.401 10.7353 319.401 10.2246C319.401 9.71392 319.265 9.30744 318.984 8.99476C318.713 8.68208 318.348 8.52575 317.91 8.52575H316.649V11.9652H317.91Z" stroke="black" stroke-width="0.5"/>
<path d="M324.81 14.6751V0.26062H327.968V14.6751H324.81Z" stroke="black" stroke-width="0.5"/>
<path d="M333.826 0.26062V11.8089H338.412V14.6751H330.668V0.26062H333.826Z" stroke="black" stroke-width="0.5"/>
<path d="M340.267 14.6751V0.26062H343.425V14.6751H340.267Z" stroke="black" stroke-width="0.5"/>
<path d="M350.512 0.26062C352.023 0.26062 353.264 0.938089 354.233 2.29303C355.213 3.64797 355.692 5.37812 355.692 7.47306C355.692 9.56801 355.202 11.2982 354.233 12.6531C353.264 14.008 352.013 14.6751 350.502 14.6751H346.114V0.26062H350.502H350.512ZM350.054 11.8089C350.783 11.8089 351.388 11.4024 351.846 10.5894C352.315 9.77646 352.545 8.7342 352.545 7.47306C352.545 6.21193 352.315 5.16967 351.846 4.34628C351.377 3.53332 350.783 3.11641 350.054 3.11641H349.282V11.7984H350.054V11.8089Z" stroke="black" stroke-width="0.5"/>
<path d="M359.569 0.26062H363.499L366.896 14.6751H363.718L363.269 12.2258H359.809L359.361 14.6751H356.192L359.569 0.26062ZM360.32 9.71392H362.78L361.581 3.92938H361.498L360.309 9.71392H360.32Z" stroke="black" stroke-width="0.5"/>
<path d="M372.598 0.26062C374.109 0.26062 375.349 0.938089 376.319 2.29303C377.298 3.64797 377.778 5.37812 377.778 7.47306C377.778 9.56801 377.288 11.2982 376.319 12.6531C375.349 14.008 374.099 14.6751 372.587 14.6751H368.199V0.26062H372.587H372.598ZM372.139 11.8089C372.869 11.8089 373.473 11.4024 373.932 10.5894C374.401 9.77646 374.63 8.7342 374.63 7.47306C374.63 6.21193 374.401 5.16967 373.932 4.34628C373.463 3.53332 372.869 3.11641 372.139 3.11641H371.368V11.7984H372.139V11.8089Z" stroke="black" stroke-width="0.5"/>
<path d="M395.986 14.6751V0.26062H403.803V3.12684H399.134V7.03531H403.23V9.63054H399.134V14.6751H395.976H395.986Z" fill="black"/>
<path d="M408.722 0.26062V11.8089H413.308V14.6751H405.564V0.26062H408.722Z" fill="black"/>
<path d="M418.28 8.95307V11.8089H423.408V14.6751H415.153V0.26062H423.283V3.12684H418.28V6.38911H422.835V8.96349H418.28V8.95307Z" fill="black"/>
<path d="M434.435 0.26062L431.61 7.34799L434.716 14.6751H431.652L429.526 9.63054H429.463L427.327 14.6751H424.283L427.389 7.24376L424.575 0.26062H427.619L429.463 4.97164H429.526L431.381 0.26062H434.425H434.435Z" fill="black"/>
<path d="M436.113 14.6751V0.26062H439.271V14.6751H436.113Z" fill="black"/>
<path d="M448.651 7.077C449.391 7.36884 449.975 7.81701 450.392 8.44236C450.809 9.0573 451.017 9.80773 451.017 10.6936C451.017 11.8506 450.632 12.799 449.86 13.5599C449.089 14.3207 448.099 14.6855 446.911 14.6855H441.981V0.26062H446.577C447.776 0.26062 448.735 0.604566 449.475 1.30288C450.215 2.0012 450.59 2.89754 450.59 4.01276C450.59 5.38854 449.944 6.37869 448.662 7.00404V7.08743L448.651 7.077ZM445.097 3.00177V6.337H446.171C446.556 6.337 446.869 6.18066 447.13 5.86798C447.38 5.5553 447.515 5.15924 447.515 4.65896C447.515 4.15867 447.39 3.76262 447.13 3.46036C446.869 3.14768 446.556 3.00177 446.171 3.00177H445.097ZM446.358 11.9652C446.786 11.9652 447.13 11.7984 447.422 11.4753C447.703 11.1522 447.849 10.7353 447.849 10.2246C447.849 9.71392 447.713 9.30744 447.432 8.99476C447.161 8.68208 446.796 8.52575 446.358 8.52575H445.097V11.9652H446.358Z" fill="black"/>
<path d="M453.258 14.6751V0.26062H456.416V14.6751H453.258Z" fill="black"/>
<path d="M462.274 0.26062V11.8089H466.86V14.6751H459.116V0.26062H462.274Z" fill="black"/>
<path d="M468.715 14.6751V0.26062H471.873V14.6751H468.715Z" fill="black"/>
<path d="M478.96 0.26062C480.472 0.26062 481.712 0.938089 482.681 2.29303C483.661 3.64797 484.14 5.37812 484.14 7.47306C484.14 9.56801 483.65 11.2982 482.681 12.6531C481.712 14.008 480.461 14.6751 478.95 14.6751H474.562V0.26062H478.95H478.96ZM478.502 11.8089C479.231 11.8089 479.836 11.4024 480.294 10.5894C480.763 9.77646 480.993 8.7342 480.993 7.47306C480.993 6.21193 480.763 5.16967 480.294 4.34628C479.825 3.53332 479.231 3.11641 478.502 3.11641H477.73V11.7984H478.502V11.8089Z" fill="black"/>
<path d="M488.018 0.26062H491.947L495.345 14.6751H492.166L491.718 12.2258H488.257L487.809 14.6751H484.641L488.018 0.26062ZM488.758 9.71392H491.217L490.019 3.92938H489.935L488.747 9.71392H488.758Z" fill="black"/>
<path d="M501.035 0.26062C502.547 0.26062 503.787 0.938089 504.756 2.29303C505.736 3.64797 506.216 5.37812 506.216 7.47306C506.216 9.56801 505.726 11.2982 504.756 12.6531C503.787 14.008 502.536 14.6751 501.025 14.6751H496.637V0.26062H501.025H501.035ZM500.587 11.8089C501.317 11.8089 501.921 11.4024 502.38 10.5894C502.849 9.77646 503.078 8.7342 503.078 7.47306C503.078 6.21193 502.849 5.16967 502.38 4.34628C501.911 3.53332 501.317 3.11641 500.587 3.11641H499.816V11.7984H500.587V11.8089Z" fill="black"/>
<path d="M529.76 14.6751V0.26062H537.577V3.12684H532.908V7.03531H537.004V9.63054H532.908V14.6751H529.75H529.76Z" fill="black"/>
<path d="M542.497 0.26062V11.8089H547.083V14.6751H539.339V0.26062H542.497Z" fill="black"/>
<path d="M552.054 8.95307V11.8089H557.182V14.6751H548.927V0.26062H557.057V3.12684H552.054V6.38911H556.609V8.96349H552.054V8.95307Z" fill="black"/>
<path d="M568.209 0.26062L565.385 7.34799L568.491 14.6751H565.426L563.3 9.63054H563.238L561.101 14.6751H558.058L561.163 7.24376L558.349 0.26062H561.393L563.238 4.97164H563.3L565.155 0.26062H568.199H568.209Z" fill="black"/>
<path d="M569.887 14.6751V0.26062H573.045V14.6751H569.887Z" fill="black"/>
<path d="M582.426 7.077C583.166 7.36884 583.749 7.81701 584.166 8.44236C584.583 9.0573 584.792 9.80773 584.792 10.6936C584.792 11.8506 584.406 12.799 583.635 13.5599C582.863 14.3207 581.873 14.6855 580.685 14.6855H575.755V0.26062H580.352C581.55 0.26062 582.509 0.604566 583.249 1.30288C583.989 2.0012 584.364 2.89754 584.364 4.01276C584.364 5.38854 583.718 6.37869 582.436 7.00404V7.08743L582.426 7.077ZM578.872 3.00177V6.337H579.945C580.331 6.337 580.643 6.18066 580.904 5.86798C581.154 5.5553 581.29 5.15924 581.29 4.65896C581.29 4.15867 581.164 3.76262 580.904 3.46036C580.643 3.14768 580.331 3.00177 579.945 3.00177H578.872ZM580.133 11.9652C580.56 11.9652 580.904 11.7984 581.196 11.4753C581.477 11.1522 581.623 10.7353 581.623 10.2246C581.623 9.71392 581.488 9.30744 581.206 8.99476C580.935 8.68208 580.57 8.52575 580.133 8.52575H578.872V11.9652H580.133Z" fill="black"/>
<path d="M587.032 14.6751V0.26062H590.19V14.6751H587.032Z" fill="black"/>
<path d="M596.048 0.26062V11.8089H600.634V14.6751H592.89V0.26062H596.048Z" fill="black"/>
<path d="M602.479 14.6751V0.26062H605.637V14.6751H602.479Z" fill="black"/>
<path d="M612.724 0.26062C614.235 0.26062 615.476 0.938089 616.445 2.29303C617.425 3.64797 617.904 5.37812 617.904 7.47306C617.904 9.56801 617.414 11.2982 616.445 12.6531C615.476 14.008 614.225 14.6751 612.714 14.6751H608.326V0.26062H612.714H612.724ZM612.276 11.8089C613.005 11.8089 613.61 11.4024 614.069 10.5894C614.538 9.77646 614.767 8.7342 614.767 7.47306C614.767 6.21193 614.538 5.16967 614.069 4.34628C613.6 3.53332 613.005 3.11641 612.276 3.11641H611.505V11.7984H612.276V11.8089Z" fill="black"/>
<path d="M621.792 0.26062H625.721L629.119 14.6751H625.94L625.492 12.2258H622.031L621.583 14.6751H618.415L621.792 0.26062ZM622.532 9.71392H624.991L623.793 3.92938H623.709L622.521 9.71392H622.532Z" fill="black"/>
<path d="M634.81 0.26062C636.321 0.26062 637.561 0.938089 638.53 2.29303C639.51 3.64797 639.99 5.37812 639.99 7.47306C639.99 9.56801 639.5 11.2982 638.53 12.6531C637.561 14.008 636.31 14.6751 634.799 14.6751H630.411V0.26062H634.799H634.81ZM634.361 11.8089C635.091 11.8089 635.695 11.4024 636.154 10.5894C636.623 9.77646 636.852 8.7342 636.852 7.47306C636.852 6.21193 636.623 5.16967 636.154 4.34628C635.685 3.53332 635.091 3.11641 634.361 3.11641H633.59V11.7984H634.361V11.8089Z" fill="black"/>
</g>
<defs>
<clipPath id="clip0_2_415">
<rect width="640" height="14.9356" fill="white"/>
</clipPath>
</defs>
</svg>
