<svg width="624" height="141" viewBox="0 0 624 141" fill="none" xmlns="http://www.w3.org/2000/svg">
<path d="M4.46484 54V3.58594H32.4141V15.3281H17.3672V26.8594H30.3047V37.4414H17.3672V54H4.46484ZM50.8359 3.58594V42.2578H65.4961V54H37.9336V3.58594H50.8359ZM84.3047 34.9102V42.2578H100.863V54H71.4023V3.58594H100.406V15.3281H84.3047V24.3281H98.8242V34.9102H84.3047ZM139.57 3.58594L130.57 28.4414L140.59 54H128.039L121.992 37.7227H121.781L115.734 54H103.289L113.309 28.0195L104.309 3.58594H116.754L121.781 18.8086H121.992L127.055 3.58594H139.57ZM144.879 54V3.58594H157.781V54H144.879ZM191.004 27.3516C193.488 28.3594 195.445 29.9531 196.875 32.1328C198.305 34.2891 199.02 36.8789 199.02 39.9023C199.02 43.9805 197.637 47.3555 194.871 50.0273C192.105 52.6758 188.613 54 184.395 54H166.676V3.58594H183.023C187.383 3.58594 190.898 4.81641 193.57 7.27734C196.242 9.71484 197.578 12.9258 197.578 16.9102C197.578 21.4805 195.387 24.8438 191.004 27V27.3516ZM182.145 42.8555C183.293 42.8555 184.219 42.4102 184.922 41.5195C185.625 40.6289 185.977 39.4805 185.977 38.0742C185.977 36.6445 185.625 35.4844 184.922 34.5938C184.219 33.7031 183.293 33.2578 182.145 33.2578H179.578V42.8555H182.145ZM179.578 14.8359V24.3984H181.512C182.52 24.3984 183.328 23.9414 183.938 23.0273C184.57 22.1133 184.887 20.9648 184.887 19.582C184.887 18.1992 184.57 17.0625 183.938 16.1719C183.328 15.2813 182.52 14.8359 181.512 14.8359H179.578ZM206.262 54V3.58594H219.164V54H206.262ZM240.961 3.58594V42.2578H255.621V54H228.059V3.58594H240.961ZM261.527 54V3.58594H274.43V54H261.527ZM299.18 3.58594C304.453 3.58594 308.777 5.95312 312.152 10.6875C315.551 15.4219 317.25 21.4688 317.25 28.8281C317.25 36.1641 315.551 42.1992 312.152 46.9336C308.777 51.6445 304.453 54 299.18 54H283.324V3.58594H299.18ZM297.281 42.2578C299.344 42.2578 301.02 41.0039 302.309 38.4961C303.621 35.9648 304.277 32.7305 304.277 28.793C304.277 24.8555 303.621 21.6328 302.309 19.125C301.02 16.5938 299.344 15.3281 297.281 15.3281H296.227V42.2578H297.281ZM329.238 3.58594H345.445L356.379 54H343.406L342.211 46.4414H332.543L331.312 54H318.375L329.238 3.58594ZM334.266 36.1406H340.453L337.5 18.8789H337.148L334.266 36.1406ZM376.242 3.58594C381.516 3.58594 385.84 5.95312 389.215 10.6875C392.613 15.4219 394.312 21.4688 394.312 28.8281C394.312 36.1641 392.613 42.1992 389.215 46.9336C385.84 51.6445 381.516 54 376.242 54H360.387V3.58594H376.242ZM374.344 42.2578C376.406 42.2578 378.082 41.0039 379.371 38.4961C380.684 35.9648 381.34 32.7305 381.34 28.793C381.34 24.8555 380.684 21.6328 379.371 19.125C378.082 16.5938 376.406 15.3281 374.344 15.3281H373.289V42.2578H374.344Z" fill="black"/>
<mask id="path-2-outside-1_13_952" maskUnits="userSpaceOnUse" x="2" y="66" width="508" height="56" fill="black">
<rect fill="white" x="2" y="66" width="508" height="56"/>
<path d="M17.3672 68.5859V107.258H32.0273V119H4.46484V68.5859H17.3672ZM44.332 68.5859H60.5391L71.4727 119H58.5L57.3047 111.441H47.6367L46.4062 119H33.4688L44.332 68.5859ZM49.3594 101.141H55.5469L52.5938 83.8789H52.2422L49.3594 101.141ZM112.992 88.6953V68.5859H125.859V119H117.527L107.227 98.9961H107.086V119H94.1133V68.5859H102.48L112.746 88.6953H112.992ZM153.387 104.727V68.5859H166.289V104.094C166.289 108.945 164.812 112.824 161.859 115.73C158.906 118.637 155.121 120.09 150.504 120.09C145.91 120.09 142.148 118.637 139.219 115.73C136.289 112.824 134.824 108.945 134.824 104.094V68.5859H147.727V104.727C147.727 105.781 147.984 106.648 148.5 107.328C149.039 108.008 149.707 108.348 150.504 108.348C151.324 108.348 152.004 108.008 152.543 107.328C153.105 106.648 153.387 105.781 153.387 104.727ZM188.086 99.9102V107.258H204.645V119H175.184V68.5859H204.188V80.3281H188.086V89.3281H202.605V99.9102H188.086ZM225.492 106.168L230.66 68.5859H243.422L235.336 119H215.402L207.352 68.5859H220.078L225.281 106.168H225.492ZM250.98 68.5859H267.188L278.121 119H265.148L263.953 111.441H254.285L253.055 119H240.117L250.98 68.5859ZM256.008 101.141H262.195L259.242 83.8789H258.891L256.008 101.141ZM319.641 88.6953V68.5859H332.508V119H324.176L313.875 98.9961H313.734V119H300.762V68.5859H309.129L319.395 88.6953H319.641ZM344.602 73.7891C347.883 69.6172 352.383 67.5312 358.102 67.5312C363.82 67.5312 368.32 69.6172 371.602 73.7891C374.883 77.9609 376.523 84.6289 376.523 93.793C376.523 103.004 374.883 109.695 371.602 113.867C368.32 118.016 363.82 120.09 358.102 120.09C352.383 120.09 347.883 118.016 344.602 113.867C341.32 109.695 339.68 103.004 339.68 93.793C339.68 84.6289 341.32 77.9609 344.602 73.7891ZM354.023 105.219C354.961 107.305 356.32 108.348 358.102 108.348C359.883 108.348 361.242 107.305 362.18 105.219C363.117 103.133 363.586 99.3242 363.586 93.793C363.586 88.332 363.117 84.5469 362.18 82.4375C361.242 80.3281 359.883 79.2734 358.102 79.2734C356.32 79.2734 354.961 80.3281 354.023 82.4375C353.086 84.5469 352.617 88.332 352.617 93.793C352.617 99.3242 353.086 103.133 354.023 105.219ZM409.781 97.0273C412.219 97.8008 413.789 100.109 414.492 103.953L417.199 119H403.664L401.309 105.043C400.84 102.699 399.469 101.516 397.195 101.492H396.562V119H383.66V68.5859H401.309C405.668 68.5859 409.219 69.9805 411.961 72.7695C414.703 75.5586 416.074 79.332 416.074 84.0898C416.074 89.7617 413.977 93.957 409.781 96.6758V97.0273ZM398.426 91.3672C399.855 91.3672 401.027 90.8516 401.941 89.8203C402.855 88.7891 403.312 87.4766 403.312 85.8828C403.312 84.2422 402.855 82.9062 401.941 81.875C401.027 80.8438 399.855 80.3281 398.426 80.3281H396.562V91.3672H398.426ZM444.762 93.2305L452.531 68.5859H465.785V119H453.27V97.8359H452.953L446.203 119H443.109L436.395 97.8359H436.113V119H423.598V68.5859H436.852L444.621 93.2305H444.762ZM480.27 68.5859H496.477L507.41 119H494.438L493.242 111.441H483.574L482.344 119H469.406L480.27 68.5859ZM485.297 101.141H491.484L488.531 83.8789H488.18L485.297 101.141Z"/>
</mask>
<path d="M17.3672 68.5859H18.8672V67.0859H17.3672V68.5859ZM17.3672 107.258H15.8672V108.758H17.3672V107.258ZM32.0273 107.258H33.5273V105.758H32.0273V107.258ZM32.0273 119V120.5H33.5273V119H32.0273ZM4.46484 119H2.96484V120.5H4.46484V119ZM4.46484 68.5859V67.0859H2.96484V68.5859H4.46484ZM15.8672 68.5859V107.258H18.8672V68.5859H15.8672ZM17.3672 108.758H32.0273V105.758H17.3672V108.758ZM30.5273 107.258V119H33.5273V107.258H30.5273ZM32.0273 117.5H4.46484V120.5H32.0273V117.5ZM5.96484 119V68.5859H2.96484V119H5.96484ZM4.46484 70.0859H17.3672V67.0859H4.46484V70.0859ZM44.332 68.5859V67.0859H43.1208L42.8657 68.27L44.332 68.5859ZM60.5391 68.5859L62.005 68.268L61.7486 67.0859H60.5391V68.5859ZM71.4727 119V120.5H73.3328L72.9386 118.682L71.4727 119ZM58.5 119L57.0184 119.234L57.2186 120.5H58.5V119ZM57.3047 111.441L58.7863 111.207L58.5861 109.941H57.3047V111.441ZM47.6367 111.441V109.941H46.3612L46.1562 111.2L47.6367 111.441ZM46.4062 119V120.5H47.6818L47.8868 119.241L46.4062 119ZM33.4688 119L32.0024 118.684L31.6111 120.5H33.4688V119ZM49.3594 101.141L47.8799 100.894L47.5881 102.641H49.3594V101.141ZM55.5469 101.141V102.641H57.3253L57.0254 100.888L55.5469 101.141ZM52.5938 83.8789L54.0723 83.626L53.8589 82.3789H52.5938V83.8789ZM52.2422 83.8789V82.3789H50.9719L50.7627 83.6318L52.2422 83.8789ZM44.332 70.0859H60.5391V67.0859H44.332V70.0859ZM59.0731 68.9039L70.0067 119.318L72.9386 118.682L62.005 68.268L59.0731 68.9039ZM71.4727 117.5H58.5V120.5H71.4727V117.5ZM59.9816 118.766L58.7863 111.207L55.8231 111.676L57.0184 119.234L59.9816 118.766ZM57.3047 109.941H47.6367V112.941H57.3047V109.941ZM46.1562 111.2L44.9257 118.759L47.8868 119.241L49.1172 111.682L46.1562 111.2ZM46.4062 117.5H33.4688V120.5H46.4062V117.5ZM34.9351 119.316L45.7984 68.9019L42.8657 68.27L32.0024 118.684L34.9351 119.316ZM49.3594 102.641H55.5469V99.6406H49.3594V102.641ZM57.0254 100.888L54.0723 83.626L51.1152 84.1319L54.0684 101.394L57.0254 100.888ZM52.5938 82.3789H52.2422V85.3789H52.5938V82.3789ZM50.7627 83.6318L47.8799 100.894L50.8389 101.388L53.7217 84.126L50.7627 83.6318ZM112.992 88.6953V90.1953H114.492V88.6953H112.992ZM112.992 68.5859V67.0859H111.492V68.5859H112.992ZM125.859 68.5859H127.359V67.0859H125.859V68.5859ZM125.859 119V120.5H127.359V119H125.859ZM117.527 119L116.194 119.687L116.613 120.5H117.527V119ZM107.227 98.9961L108.56 98.3094L108.141 97.4961H107.227V98.9961ZM107.086 98.9961V97.4961H105.586V98.9961H107.086ZM107.086 119V120.5H108.586V119H107.086ZM94.1133 119H92.6133V120.5H94.1133V119ZM94.1133 68.5859V67.0859H92.6133V68.5859H94.1133ZM102.48 68.5859L103.816 67.9039L103.399 67.0859H102.48V68.5859ZM112.746 88.6953L111.41 89.3773L111.828 90.1953H112.746V88.6953ZM114.492 88.6953V68.5859H111.492V88.6953H114.492ZM112.992 70.0859H125.859V67.0859H112.992V70.0859ZM124.359 68.5859V119H127.359V68.5859H124.359ZM125.859 117.5H117.527V120.5H125.859V117.5ZM118.861 118.313L108.56 98.3094L105.893 99.6828L116.194 119.687L118.861 118.313ZM107.227 97.4961H107.086V100.496H107.227V97.4961ZM105.586 98.9961V119H108.586V98.9961H105.586ZM107.086 117.5H94.1133V120.5H107.086V117.5ZM95.6133 119V68.5859H92.6133V119H95.6133ZM94.1133 70.0859H102.48V67.0859H94.1133V70.0859ZM101.144 69.2679L111.41 89.3773L114.082 88.0133L103.816 67.9039L101.144 69.2679ZM112.746 90.1953H112.992V87.1953H112.746V90.1953ZM153.387 68.5859V67.0859H151.887V68.5859H153.387ZM166.289 68.5859H167.789V67.0859H166.289V68.5859ZM134.824 68.5859V67.0859H133.324V68.5859H134.824ZM147.727 68.5859H149.227V67.0859H147.727V68.5859ZM148.5 107.328L147.305 108.235L147.315 108.248L147.325 108.26L148.5 107.328ZM152.543 107.328L151.387 106.372L151.377 106.384L151.368 106.396L152.543 107.328ZM154.887 104.727V68.5859H151.887V104.727H154.887ZM153.387 70.0859H166.289V67.0859H153.387V70.0859ZM164.789 68.5859V104.094H167.789V68.5859H164.789ZM164.789 104.094C164.789 108.618 163.425 112.085 160.807 114.661L162.912 116.8C166.2 113.563 167.789 109.273 167.789 104.094H164.789ZM160.807 114.661C158.168 117.259 154.777 118.59 150.504 118.59V121.59C155.466 121.59 159.645 120.015 162.912 116.8L160.807 114.661ZM150.504 118.59C146.257 118.59 142.891 117.26 140.275 114.666L138.162 116.795C141.406 120.013 145.563 121.59 150.504 121.59V118.59ZM140.275 114.666C137.679 112.09 136.324 108.621 136.324 104.094H133.324C133.324 109.269 134.899 113.558 138.162 116.795L140.275 114.666ZM136.324 104.094V68.5859H133.324V104.094H136.324ZM134.824 70.0859H147.727V67.0859H134.824V70.0859ZM146.227 68.5859V104.727H149.227V68.5859H146.227ZM146.227 104.727C146.227 106.03 146.549 107.238 147.305 108.235L149.695 106.422C149.42 106.059 149.227 105.533 149.227 104.727H146.227ZM147.325 108.26C148.119 109.262 149.205 109.848 150.504 109.848V106.848C150.21 106.848 149.959 106.753 149.675 106.396L147.325 108.26ZM150.504 109.848C151.812 109.848 152.914 109.275 153.718 108.26L151.368 106.396C151.094 106.741 150.837 106.848 150.504 106.848V109.848ZM153.699 108.284C154.525 107.286 154.887 106.059 154.887 104.727H151.887C151.887 105.503 151.686 106.011 151.387 106.372L153.699 108.284ZM188.086 99.9102V98.4102H186.586V99.9102H188.086ZM188.086 107.258H186.586V108.758H188.086V107.258ZM204.645 107.258H206.145V105.758H204.645V107.258ZM204.645 119V120.5H206.145V119H204.645ZM175.184 119H173.684V120.5H175.184V119ZM175.184 68.5859V67.0859H173.684V68.5859H175.184ZM204.188 68.5859H205.688V67.0859H204.188V68.5859ZM204.188 80.3281V81.8281H205.688V80.3281H204.188ZM188.086 80.3281V78.8281H186.586V80.3281H188.086ZM188.086 89.3281H186.586V90.8281H188.086V89.3281ZM202.605 89.3281H204.105V87.8281H202.605V89.3281ZM202.605 99.9102V101.41H204.105V99.9102H202.605ZM186.586 99.9102V107.258H189.586V99.9102H186.586ZM188.086 108.758H204.645V105.758H188.086V108.758ZM203.145 107.258V119H206.145V107.258H203.145ZM204.645 117.5H175.184V120.5H204.645V117.5ZM176.684 119V68.5859H173.684V119H176.684ZM175.184 70.0859H204.188V67.0859H175.184V70.0859ZM202.688 68.5859V80.3281H205.688V68.5859H202.688ZM204.188 78.8281H188.086V81.8281H204.188V78.8281ZM186.586 80.3281V89.3281H189.586V80.3281H186.586ZM188.086 90.8281H202.605V87.8281H188.086V90.8281ZM201.105 89.3281V99.9102H204.105V89.3281H201.105ZM202.605 98.4102H188.086V101.41H202.605V98.4102ZM225.492 106.168V107.668H226.8L226.978 106.372L225.492 106.168ZM230.66 68.5859V67.0859H229.352L229.174 68.3816L230.66 68.5859ZM243.422 68.5859L244.903 68.8235L245.182 67.0859H243.422V68.5859ZM235.336 119V120.5H236.615L236.817 119.238L235.336 119ZM215.402 119L213.921 119.237L214.123 120.5H215.402V119ZM207.352 68.5859V67.0859H205.593L205.87 68.8225L207.352 68.5859ZM220.078 68.5859L221.564 68.3802L221.385 67.0859H220.078V68.5859ZM225.281 106.168L223.795 106.374L223.975 107.668H225.281V106.168ZM226.978 106.372L232.146 68.7903L229.174 68.3816L224.006 105.964L226.978 106.372ZM230.66 70.0859H243.422V67.0859H230.66V70.0859ZM241.941 68.3484L233.855 118.762L236.817 119.238L244.903 68.8235L241.941 68.3484ZM235.336 117.5H215.402V120.5H235.336V117.5ZM216.884 118.763L208.833 68.3494L205.87 68.8225L213.921 119.237L216.884 118.763ZM207.352 70.0859H220.078V67.0859H207.352V70.0859ZM218.592 68.7916L223.795 106.374L226.767 105.962L221.564 68.3802L218.592 68.7916ZM225.281 107.668H225.492V104.668H225.281V107.668ZM250.98 68.5859V67.0859H249.769L249.514 68.27L250.98 68.5859ZM267.188 68.5859L268.653 68.268L268.397 67.0859H267.188V68.5859ZM278.121 119V120.5H279.981L279.587 118.682L278.121 119ZM265.148 119L263.667 119.234L263.867 120.5H265.148V119ZM263.953 111.441L265.435 111.207L265.235 109.941H263.953V111.441ZM254.285 111.441V109.941H253.01L252.805 111.2L254.285 111.441ZM253.055 119V120.5H254.33L254.535 119.241L253.055 119ZM240.117 119L238.651 118.684L238.26 120.5H240.117V119ZM256.008 101.141L254.528 100.894L254.237 102.641H256.008V101.141ZM262.195 101.141V102.641H263.974L263.674 100.888L262.195 101.141ZM259.242 83.8789L260.721 83.626L260.507 82.3789H259.242V83.8789ZM258.891 83.8789V82.3789H257.62L257.411 83.6318L258.891 83.8789ZM250.98 70.0859H267.188V67.0859H250.98V70.0859ZM265.722 68.9039L276.655 119.318L279.587 118.682L268.653 68.268L265.722 68.9039ZM278.121 117.5H265.148V120.5H278.121V117.5ZM266.63 118.766L265.435 111.207L262.472 111.676L263.667 119.234L266.63 118.766ZM263.953 109.941H254.285V112.941H263.953V109.941ZM252.805 111.2L251.574 118.759L254.535 119.241L255.766 111.682L252.805 111.2ZM253.055 117.5H240.117V120.5H253.055V117.5ZM241.584 119.316L252.447 68.9019L249.514 68.27L238.651 118.684L241.584 119.316ZM256.008 102.641H262.195V99.6406H256.008V102.641ZM263.674 100.888L260.721 83.626L257.764 84.1319L260.717 101.394L263.674 100.888ZM259.242 82.3789H258.891V85.3789H259.242V82.3789ZM257.411 83.6318L254.528 100.894L257.487 101.388L260.37 84.126L257.411 83.6318ZM319.641 88.6953V90.1953H321.141V88.6953H319.641ZM319.641 68.5859V67.0859H318.141V68.5859H319.641ZM332.508 68.5859H334.008V67.0859H332.508V68.5859ZM332.508 119V120.5H334.008V119H332.508ZM324.176 119L322.842 119.687L323.261 120.5H324.176V119ZM313.875 98.9961L315.209 98.3094L314.79 97.4961H313.875V98.9961ZM313.734 98.9961V97.4961H312.234V98.9961H313.734ZM313.734 119V120.5H315.234V119H313.734ZM300.762 119H299.262V120.5H300.762V119ZM300.762 68.5859V67.0859H299.262V68.5859H300.762ZM309.129 68.5859L310.465 67.9039L310.047 67.0859H309.129V68.5859ZM319.395 88.6953L318.059 89.3773L318.476 90.1953H319.395V88.6953ZM321.141 88.6953V68.5859H318.141V88.6953H321.141ZM319.641 70.0859H332.508V67.0859H319.641V70.0859ZM331.008 68.5859V119H334.008V68.5859H331.008ZM332.508 117.5H324.176V120.5H332.508V117.5ZM325.509 118.313L315.209 98.3094L312.541 99.6828L322.842 119.687L325.509 118.313ZM313.875 97.4961H313.734V100.496H313.875V97.4961ZM312.234 98.9961V119H315.234V98.9961H312.234ZM313.734 117.5H300.762V120.5H313.734V117.5ZM302.262 119V68.5859H299.262V119H302.262ZM300.762 70.0859H309.129V67.0859H300.762V70.0859ZM307.793 69.2679L318.059 89.3773L320.731 88.0133L310.465 67.9039L307.793 69.2679ZM319.395 90.1953H319.641V87.1953H319.395V90.1953ZM371.602 113.867L372.778 114.798L372.781 114.795L371.602 113.867ZM344.602 113.867L343.423 114.795L343.425 114.798L344.602 113.867ZM345.781 74.7164C348.753 70.9371 352.802 69.0312 358.102 69.0312V66.0312C351.964 66.0312 347.013 68.2972 343.423 72.8617L345.781 74.7164ZM358.102 69.0312C363.401 69.0312 367.45 70.9371 370.423 74.7164L372.781 72.8617C369.191 68.2972 364.239 66.0312 358.102 66.0312V69.0312ZM370.423 74.7164C373.392 78.4914 375.023 84.745 375.023 93.793H378.023C378.023 84.5128 376.374 77.4305 372.781 72.8617L370.423 74.7164ZM375.023 93.793C375.023 102.89 373.391 109.166 370.423 112.94L372.781 114.795C376.375 110.225 378.023 103.118 378.023 93.793H375.023ZM370.425 112.937C367.454 116.693 363.404 118.59 358.102 118.59V121.59C364.236 121.59 369.187 119.338 372.778 114.798L370.425 112.937ZM358.102 118.59C352.799 118.59 348.749 116.693 345.778 112.937L343.425 114.798C347.016 119.338 351.967 121.59 358.102 121.59V118.59ZM345.781 112.94C342.812 109.166 341.18 102.89 341.18 93.793H338.18C338.18 103.118 339.828 110.225 343.423 114.795L345.781 112.94ZM341.18 93.793C341.18 84.745 342.811 78.4914 345.781 74.7164L343.423 72.8617C339.829 77.4305 338.18 84.5128 338.18 93.793H341.18ZM352.655 105.834C353.193 107.03 353.901 108.041 354.833 108.756C355.786 109.486 356.895 109.848 358.102 109.848V106.848C357.527 106.848 357.066 106.687 356.659 106.375C356.231 106.047 355.791 105.493 355.392 104.604L352.655 105.834ZM358.102 109.848C359.308 109.848 360.418 109.486 361.37 108.756C362.302 108.041 363.01 107.03 363.548 105.834L360.812 104.604C360.412 105.493 359.972 106.047 359.544 106.375C359.137 106.687 358.676 106.848 358.102 106.848V109.848ZM363.548 105.834C364.631 103.423 365.086 99.3174 365.086 93.793H362.086C362.086 99.331 361.603 102.842 360.812 104.604L363.548 105.834ZM365.086 93.793C365.086 88.3331 364.63 84.2573 363.55 81.8283L360.809 83.0467C361.604 84.8365 362.086 88.331 362.086 93.793H365.086ZM363.55 81.8283C363.014 80.6215 362.307 79.6014 361.377 78.8793C360.424 78.1403 359.312 77.7734 358.102 77.7734V80.7734C358.672 80.7734 359.131 80.934 359.538 81.2496C359.966 81.5822 360.408 82.1442 360.809 83.0467L363.55 81.8283ZM358.102 77.7734C356.891 77.7734 355.779 78.1403 354.827 78.8793C353.896 79.6014 353.189 80.6215 352.653 81.8283L355.394 83.0467C355.795 82.1442 356.237 81.5822 356.666 81.2496C357.072 80.934 357.531 80.7734 358.102 80.7734V77.7734ZM352.653 81.8283C351.573 84.2573 351.117 88.3331 351.117 93.793H354.117C354.117 88.331 354.599 84.8365 355.394 83.0467L352.653 81.8283ZM351.117 93.793C351.117 99.3174 351.572 103.423 352.655 105.834L355.392 104.604C354.6 102.842 354.117 99.331 354.117 93.793H351.117ZM409.781 97.0273H408.281V98.1251L409.328 98.4571L409.781 97.0273ZM414.492 103.953L415.968 103.688L415.968 103.683L414.492 103.953ZM417.199 119V120.5H418.993L418.676 118.734L417.199 119ZM403.664 119L402.185 119.25L402.396 120.5H403.664V119ZM401.309 105.043L402.788 104.793L402.784 104.771L402.779 104.749L401.309 105.043ZM397.195 101.492L397.211 99.9923L397.203 99.9922H397.195V101.492ZM396.562 101.492V99.9922H395.062V101.492H396.562ZM396.562 119V120.5H398.062V119H396.562ZM383.66 119H382.16V120.5H383.66V119ZM383.66 68.5859V67.0859H382.16V68.5859H383.66ZM409.781 96.6758L408.965 95.417L408.281 95.8604V96.6758H409.781ZM396.562 80.3281V78.8281H395.062V80.3281H396.562ZM396.562 91.3672H395.062V92.8672H396.562V91.3672ZM409.328 98.4571C410.988 98.9839 412.356 100.609 413.017 104.223L415.968 103.683C415.222 99.6094 413.45 96.6177 410.235 95.5976L409.328 98.4571ZM413.016 104.219L415.723 119.266L418.676 118.734L415.968 103.688L413.016 104.219ZM417.199 117.5H403.664V120.5H417.199V117.5ZM405.143 118.75L402.788 104.793L399.83 105.293L402.185 119.25L405.143 118.75ZM402.779 104.749C402.501 103.354 401.917 102.133 400.909 101.262C399.892 100.384 398.609 100.007 397.211 99.9923L397.18 102.992C398.055 103.001 398.594 103.227 398.949 103.533C399.311 103.846 399.648 104.388 399.838 105.337L402.779 104.749ZM397.195 99.9922H396.562V102.992H397.195V99.9922ZM395.062 101.492V119H398.062V101.492H395.062ZM396.562 117.5H383.66V120.5H396.562V117.5ZM385.16 119V68.5859H382.16V119H385.16ZM383.66 70.0859H401.309V67.0859H383.66V70.0859ZM401.309 70.0859C405.316 70.0859 408.465 71.3531 410.891 73.8212L413.031 71.7179C409.973 68.6079 406.02 67.0859 401.309 67.0859V70.0859ZM410.891 73.8212C413.3 76.2712 414.574 79.635 414.574 84.0898H417.574C417.574 79.0291 416.106 74.846 413.031 71.7179L410.891 73.8212ZM414.574 84.0898C414.574 89.3337 412.671 93.0158 408.965 95.417L410.597 97.9346C415.282 94.8983 417.574 90.1898 417.574 84.0898H414.574ZM408.281 96.6758V97.0273H411.281V96.6758H408.281ZM398.426 92.8672C400.266 92.8672 401.853 92.1812 403.064 90.8153L400.819 88.8254C400.201 89.522 399.445 89.8672 398.426 89.8672V92.8672ZM403.064 90.8153C404.259 89.4672 404.812 87.7822 404.812 85.8828H401.812C401.812 87.1709 401.452 88.1109 400.819 88.8254L403.064 90.8153ZM404.812 85.8828C404.812 83.9492 404.266 82.2362 403.064 80.88L400.819 82.87C401.445 83.5763 401.812 84.5352 401.812 85.8828H404.812ZM403.064 80.88C401.853 79.5141 400.266 78.8281 398.426 78.8281V81.8281C399.445 81.8281 400.201 82.1734 400.819 82.87L403.064 80.88ZM398.426 78.8281H396.562V81.8281H398.426V78.8281ZM395.062 80.3281V91.3672H398.062V80.3281H395.062ZM396.562 92.8672H398.426V89.8672H396.562V92.8672ZM444.762 93.2305V94.7305H445.862L446.192 93.6815L444.762 93.2305ZM452.531 68.5859V67.0859H451.431L451.101 68.1349L452.531 68.5859ZM465.785 68.5859H467.285V67.0859H465.785V68.5859ZM465.785 119V120.5H467.285V119H465.785ZM453.27 119H451.77V120.5H453.27V119ZM453.27 97.8359H454.77V96.3359H453.27V97.8359ZM452.953 97.8359V96.3359H451.857L451.524 97.3802L452.953 97.8359ZM446.203 119V120.5H447.299L447.632 119.456L446.203 119ZM443.109 119L441.68 119.454L442.012 120.5H443.109V119ZM436.395 97.8359L437.824 97.3823L437.492 96.3359H436.395V97.8359ZM436.113 97.8359V96.3359H434.613V97.8359H436.113ZM436.113 119V120.5H437.613V119H436.113ZM423.598 119H422.098V120.5H423.598V119ZM423.598 68.5859V67.0859H422.098V68.5859H423.598ZM436.852 68.5859L438.282 68.1349L437.951 67.0859H436.852V68.5859ZM444.621 93.2305L443.191 93.6815L443.521 94.7305H444.621V93.2305ZM446.192 93.6815L453.962 69.037L451.101 68.1349L443.331 92.7795L446.192 93.6815ZM452.531 70.0859H465.785V67.0859H452.531V70.0859ZM464.285 68.5859V119H467.285V68.5859H464.285ZM465.785 117.5H453.27V120.5H465.785V117.5ZM454.77 119V97.8359H451.77V119H454.77ZM453.27 96.3359H452.953V99.3359H453.27V96.3359ZM451.524 97.3802L444.774 118.544L447.632 119.456L454.382 98.2917L451.524 97.3802ZM446.203 117.5H443.109V120.5H446.203V117.5ZM444.539 118.546L437.824 97.3823L434.965 98.2896L441.68 119.454L444.539 118.546ZM436.395 96.3359H436.113V99.3359H436.395V96.3359ZM434.613 97.8359V119H437.613V97.8359H434.613ZM436.113 117.5H423.598V120.5H436.113V117.5ZM425.098 119V68.5859H422.098V119H425.098ZM423.598 70.0859H436.852V67.0859H423.598V70.0859ZM435.421 69.037L443.191 93.6815L446.052 92.7795L438.282 68.1349L435.421 69.037ZM444.621 94.7305H444.762V91.7305H444.621V94.7305ZM480.27 68.5859V67.0859H479.058L478.803 68.27L480.27 68.5859ZM496.477 68.5859L497.942 68.268L497.686 67.0859H496.477V68.5859ZM507.41 119V120.5H509.27L508.876 118.682L507.41 119ZM494.438 119L492.956 119.234L493.156 120.5H494.438V119ZM493.242 111.441L494.724 111.207L494.524 109.941H493.242V111.441ZM483.574 111.441V109.941H482.299L482.094 111.2L483.574 111.441ZM482.344 119V120.5H483.619L483.824 119.241L482.344 119ZM469.406 119L467.94 118.684L467.549 120.5H469.406V119ZM485.297 101.141L483.817 100.894L483.526 102.641H485.297V101.141ZM491.484 101.141V102.641H493.263L492.963 100.888L491.484 101.141ZM488.531 83.8789L490.01 83.626L489.796 82.3789H488.531V83.8789ZM488.18 83.8789V82.3789H486.909L486.7 83.6318L488.18 83.8789ZM480.27 70.0859H496.477V67.0859H480.27V70.0859ZM495.011 68.9039L505.944 119.318L508.876 118.682L497.942 68.268L495.011 68.9039ZM507.41 117.5H494.438V120.5H507.41V117.5ZM495.919 118.766L494.724 111.207L491.761 111.676L492.956 119.234L495.919 118.766ZM493.242 109.941H483.574V112.941H493.242V109.941ZM482.094 111.2L480.863 118.759L483.824 119.241L485.055 111.682L482.094 111.2ZM482.344 117.5H469.406V120.5H482.344V117.5ZM470.873 119.316L481.736 68.9019L478.803 68.27L467.94 118.684L470.873 119.316ZM485.297 102.641H491.484V99.6406H485.297V102.641ZM492.963 100.888L490.01 83.626L487.053 84.1319L490.006 101.394L492.963 100.888ZM488.531 82.3789H488.18V85.3789H488.531V82.3789ZM486.7 83.6318L483.817 100.894L486.776 101.388L489.659 84.126L486.7 83.6318Z" fill="black" mask="url(#path-2-outside-1_13_952)"/>
</svg>
