<?xml version="1.0" encoding="utf-8"?>
<!-- Generator: Adobe Illustrator 24.3.0, SVG Export Plug-In . SVG Version: 6.00 Build 0)  -->
<svg version="1.1" id="Capa_1" xmlns="http://www.w3.org/2000/svg" xmlns:xlink="http://www.w3.org/1999/xlink" x="0px" y="0px"
	 viewBox="0 0 2560 1352.9" style="enable-background:new 0 0 2560 1352.9;" xml:space="preserve">
<style type="text/css">
	.st0{fill:#FAFAF8;}
	.st1{fill:none;}
	.st2{fill:#FFFF5F;}
	.st3{fill:none;stroke:#000000;stroke-width:2;stroke-miterlimit:10;}
	.st4{fill:#FFFFFF;}
</style>
<rect x="-45.8" y="2990.4" class="st0" width="1316.5" height="1401.3"/>
<g>
	<g>
		<rect y="-1348.5" class="st0" width="2560" height="1233.5"/>
	</g>
	<g>
		<polygon class="st1" points="190.8,-498.8 69.8,-748 69.8,-498.9 69.8,-498.8 69.8,-498.6 69.8,-249.5 		"/>
		<polygon class="st1" points="1783.7,-1306.1 1783.7,-1026.5 1890,-1026.5 1904.8,-1056.8 		"/>
		<polygon class="st1" points="68.4,-498.8 0,-639.5 0,-358.1 		"/>
		<polygon class="st1" points="2138.6,-1026.5 2153.3,-1056.8 2032.2,-1306.1 2032.2,-1057 2032.3,-1056.8 2032.2,-1056.7 
			2032.2,-1026.5 		"/>
		<polygon class="st1" points="2252.6,-1026.5 2258.3,-1020.8 2275.8,-1056.8 2154.7,-1306.1 2154.7,-1057 2154.8,-1056.8 
			2154.7,-1056.7 2154.7,-1026.5 		"/>
		<polygon class="st1" points="2140.1,-1026.5 2153.4,-1026.5 2153.4,-1053.9 		"/>
		<polygon class="st1" points="2017.6,-1026.5 2030.9,-1026.5 2030.9,-1053.9 		"/>
		<polygon class="st1" points="1909.8,-1306.1 1909.8,-1026.5 2016.1,-1026.5 2030.8,-1056.8 		"/>
		<polygon class="st2" points="2032.2,-807.6 2138.6,-1026.5 2032.2,-1026.5 		"/>
		<polygon class="st2" points="2154.7,-1026.5 2154.7,-807.6 2258.3,-1020.8 2252.6,-1026.5 		"/>
		<polygon class="st2" points="1909.8,-807.6 2016.1,-1026.5 1909.8,-1026.5 		"/>
		<polygon class="st2" points="1783.7,-807.6 1890,-1026.5 1783.7,-1026.5 		"/>
		<polygon class="st2" points="2153.4,-801.8 2153.4,-1026.5 2140.1,-1026.5 2030.9,-801.8 2030.9,-1026.5 2017.6,-1026.5 
			1908.4,-801.8 1908.4,-1026.5 1891.5,-1026.5 1782.4,-801.8 1782.4,-1026.5 1497.9,-1026.5 2229.8,-292.2 2560,-292.2 
			2560,-718.1 2259.3,-1019.8 		"/>
		<polygon class="st2" points="2216.2,-292.2 1461.5,-292.2 1638.1,-115 2392.8,-115 		"/>
		<polygon class="st2" points="22.7,-1448.5 -100,-1448.5 -100,-941.4 528.2,-941.4 		"/>
		<polygon points="69.8,-498.9 69.8,-498.6 69.8,-498.8 		"/>
		<polygon points="68.4,-501.7 0,-642.6 0,-639.5 68.4,-498.8 0,-358.1 0,-355 68.4,-495.9 		"/>
		<polygon points="69.8,-748 190.8,-498.8 69.8,-249.5 69.8,-498.6 69.7,-498.5 68.4,-495.9 68.4,-243.7 192.2,-498.5 192.3,-498.8 
			68.4,-753.8 68.4,-501.7 69.8,-498.9 		"/>
		<polygon points="69.7,-498.5 69.8,-498.6 69.8,-498.9 68.4,-501.7 68.4,-495.9 		"/>
		<polygon points="1783.7,-1306.1 1904.8,-1056.8 1890,-1026.5 1891.5,-1026.5 1906.1,-1056.5 1906.2,-1056.8 1782.4,-1311.9 
			1782.4,-1026.5 1783.7,-1026.5 		"/>
		<polygon points="1891.5,-1026.5 1890,-1026.5 1783.7,-807.6 1783.7,-1026.5 1782.4,-1026.5 1782.4,-801.8 		"/>
		<polygon points="2032.2,-1057 2032.2,-1056.7 2032.3,-1056.8 		"/>
		<polygon points="1909.8,-1306.1 2030.8,-1056.8 2016.1,-1026.5 2017.6,-1026.5 2030.9,-1053.9 2030.9,-1059.7 1908.4,-1311.9 
			1908.4,-1026.5 1909.8,-1026.5 		"/>
		<polygon points="2017.6,-1026.5 2016.1,-1026.5 1909.8,-807.6 1909.8,-1026.5 1908.4,-1026.5 1908.4,-801.8 		"/>
		<polygon points="2154.7,-1057 2154.7,-1056.7 2154.8,-1056.8 		"/>
		<polygon points="2032.2,-1056.7 2032.2,-1056.5 2030.9,-1053.9 2030.9,-1026.5 2032.2,-1026.5 		"/>
		<polygon points="2032.2,-1306.1 2153.3,-1056.8 2138.6,-1026.5 2140.1,-1026.5 2153.4,-1053.9 2153.4,-1059.7 2030.9,-1311.9 
			2030.9,-1059.7 2032.2,-1057 		"/>
		<polygon points="2032.2,-807.6 2032.2,-1026.5 2030.9,-1026.5 2030.9,-801.8 2140.1,-1026.5 2138.6,-1026.5 		"/>
		<polygon points="2032.2,-1056.5 2032.2,-1056.7 2032.2,-1057 2030.9,-1059.7 2030.9,-1053.9 		"/>
		<polygon points="2154.7,-1056.7 2154.7,-1056.5 2153.4,-1053.9 2153.4,-1026.5 2154.7,-1026.5 		"/>
		<polygon points="2154.7,-1306.1 2275.8,-1056.8 2258.3,-1020.8 2259.3,-1019.8 2277.1,-1056.5 2277.3,-1056.8 2153.4,-1311.9 
			2153.4,-1059.7 2154.7,-1057 		"/>
		<polygon points="2154.7,-807.6 2154.7,-1026.5 2153.4,-1026.5 2153.4,-801.8 2259.3,-1019.8 2258.3,-1020.8 		"/>
		<polygon points="2154.7,-1056.5 2154.7,-1056.7 2154.7,-1057 2153.4,-1059.7 2153.4,-1053.9 		"/>
	</g>
</g>
<g>
	<g>
		<polygon class="st2" points="2197.6,47.1 2197.6,790.8 2378.8,419 		"/>
	</g>
	<g>
		<polygon class="st2" points="2378.8,47.1 2378.8,790.8 2560,419 		"/>
	</g>
</g>
<g>
	<g>
		<g>
			<polygon class="st2" points="1632.5,1651.6 1632.5,2593.2 1864.4,2122.4 			"/>
		</g>
		<g>
			<polygon class="st2" points="1864.4,1651.6 1864.4,2593.2 2096.3,2122.4 			"/>
		</g>
	</g>
	<g>
		<g>
			<polygon class="st2" points="2096.3,1651.6 2096.3,2593.2 2328.1,2122.4 			"/>
		</g>
		<g>
			<polygon class="st2" points="2328.1,1651.6 2328.1,2593.2 2560,2122.4 			"/>
		</g>
	</g>
</g>
<polygon class="st3" points="2208.2,1846.4 2186.6,1806.2 2174,1850.1 2173.5,1804.4 2142,1837.4 2162.8,1796.8 2119.5,1811.4 
	2156.9,1785.1 2111.8,1777.9 2157.1,1771.9 2120.4,1744.6 2163.3,1760.4 2143.6,1719.1 2174.3,1753 2175.9,1707.4 2187.3,1751.6 
	2210,1712 2199.5,1756.5 2238.1,1731.9 2208.1,1766.4 2253.7,1762.6 2211.1,1779.2 2253.2,1797 2207.8,1791.9 2236.8,1827.3 
	2198.9,1801.7 "/>
<polygon class="st3" points="1746.4,2701.4 1735.5,2681.6 1728.2,2703 1728.6,2680.4 1711.6,2695.2 1723.3,2675.9 1701.2,2680.3 
	1720.9,2669.4 1699.6,2662.1 1722.1,2662.5 1707.3,2645.5 1726.6,2657.2 1722.3,2635.1 1733.1,2654.8 1740.4,2633.5 1740,2656 
	1757,2641.2 1745.3,2660.5 1767.5,2656.2 1747.7,2667 1769,2674.4 1746.5,2673.9 1761.3,2690.9 1742,2679.3 "/>
<circle class="st4" cx="575.4" cy="3691.1" r="677"/>
<rect x="1261.8" y="2990.4" class="st0" width="1316.5" height="1401.3"/>
<circle class="st4" cx="1883" cy="3691.1" r="677"/>
<g>
	<g>
		<path d="M1280,3324.4v-173.5l42.1,86.8l-0.2,0.4L1280,3324.4z M1282,3159.5v156.3l38-78.1L1282,3159.5z"/>
	</g>
	<g>
		<path d="M1321.2,3324.4v-173.5l42.1,86.8l-0.2,0.4L1321.2,3324.4z M1323.2,3159.5v156.3l37.9-78.1L1323.2,3159.5z"/>
	</g>
	<g>
		<path d="M1361.3,3324.4v-173.5l42.1,86.8l-0.2,0.4L1361.3,3324.4z M1363.3,3159.5v156.3l37.9-78.1L1363.3,3159.5z"/>
	</g>
	<g>
		<path d="M1401.3,3324.4v-173.5l42.1,86.8l-0.2,0.4L1401.3,3324.4z M1403.3,3159.5v156.3l38-78.1L1403.3,3159.5z"/>
	</g>
</g>
</svg>
