<?xml version="1.0" encoding="utf-8"?>
<!-- Generator: Adobe Illustrator 24.3.0, SVG Export Plug-In . SVG Version: 6.00 Build 0)  -->
<svg version="1.1" id="Capa_1" xmlns="http://www.w3.org/2000/svg" xmlns:xlink="http://www.w3.org/1999/xlink" x="0px" y="0px"
	 viewBox="0 0 2560 1233.5" style="enable-background:new 0 0 2560 1233.5;" xml:space="preserve">
<style type="text/css">
	.st0{fill:#FAFAF8;}
	.st1{fill:none;}
	.st2{fill:#FFFF5F;}
	.st3{fill:none;stroke:#000000;stroke-width:2;stroke-miterlimit:10;}
	.st4{fill:#FFFFFF;}
</style>
<rect x="-45.8" y="4339" class="st0" width="1316.5" height="1401.3"/>
<g>
	<g>
		<rect y="0" class="st0" width="2560" height="1233.5"/>
	</g>
	<g>
		<polygon class="st1" points="190.8,849.8 69.8,600.5 69.8,849.6 69.8,849.8 69.8,849.9 69.8,1099 		"/>
		<polygon class="st1" points="1783.7,42.5 1783.7,322.1 1890,322.1 1904.8,291.7 		"/>
		<polygon class="st1" points="68.4,849.8 0,709 0,990.5 		"/>
		<polygon class="st1" points="2138.6,322.1 2153.3,291.7 2032.2,42.5 2032.2,291.6 2032.3,291.7 2032.2,291.9 2032.2,322.1 		"/>
		<polygon class="st1" points="2252.6,322.1 2258.3,327.8 2275.8,291.7 2154.7,42.5 2154.7,291.6 2154.8,291.7 2154.7,291.9 
			2154.7,322.1 		"/>
		<polygon class="st1" points="2140.1,322.1 2153.4,322.1 2153.4,294.6 		"/>
		<polygon class="st1" points="2017.6,322.1 2030.9,322.1 2030.9,294.6 		"/>
		<polygon class="st1" points="1909.8,42.5 1909.8,322.1 2016.1,322.1 2030.8,291.7 		"/>
		<polygon class="st2" points="2032.2,541 2138.6,322.1 2032.2,322.1 		"/>
		<polygon class="st2" points="2154.7,322.1 2154.7,541 2258.3,327.8 2252.6,322.1 		"/>
		<polygon class="st2" points="1909.8,541 2016.1,322.1 1909.8,322.1 		"/>
		<polygon class="st2" points="1783.7,541 1890,322.1 1783.7,322.1 		"/>
		<polygon class="st2" points="2153.4,546.8 2153.4,322.1 2140.1,322.1 2030.9,546.8 2030.9,322.1 2017.6,322.1 1908.4,546.8 
			1908.4,322.1 1891.5,322.1 1782.4,546.8 1782.4,322.1 1497.9,322.1 2229.8,1056.4 2560,1056.4 2560,630.5 2259.3,328.8 		"/>
		<polygon class="st2" points="2216.2,1056.4 1461.5,1056.4 1638.1,1233.5 2392.8,1233.5 		"/>
		<polygon class="st2" points="22.7,-100 -100,-100 -100,407.1 528.2,407.1 		"/>
		<polygon points="69.8,849.6 69.8,849.9 69.8,849.8 		"/>
		<polygon points="68.4,846.9 0,706 0,709 68.4,849.8 0,990.5 0,993.5 68.4,852.7 		"/>
		<polygon points="69.8,600.5 190.8,849.8 69.8,1099 69.8,849.9 69.7,850.1 68.4,852.7 68.4,1104.8 192.2,850.1 192.3,849.8 
			68.4,594.7 68.4,846.9 69.8,849.6 		"/>
		<polygon points="69.7,850.1 69.8,849.9 69.8,849.6 68.4,846.9 68.4,852.7 		"/>
		<polygon points="1783.7,42.5 1904.8,291.7 1890,322.1 1891.5,322.1 1906.1,292 1906.2,291.7 1782.4,36.7 1782.4,322.1 
			1783.7,322.1 		"/>
		<polygon points="1891.5,322.1 1890,322.1 1783.7,541 1783.7,322.1 1782.4,322.1 1782.4,546.8 		"/>
		<polygon points="2032.2,291.6 2032.2,291.9 2032.3,291.7 		"/>
		<polygon points="1909.8,42.5 2030.8,291.7 2016.1,322.1 2017.6,322.1 2030.9,294.6 2030.9,288.8 1908.4,36.7 1908.4,322.1 
			1909.8,322.1 		"/>
		<polygon points="2017.6,322.1 2016.1,322.1 1909.8,541 1909.8,322.1 1908.4,322.1 1908.4,546.8 		"/>
		<polygon points="2154.7,291.6 2154.7,291.9 2154.8,291.7 		"/>
		<polygon points="2032.2,291.9 2032.2,292 2030.9,294.6 2030.9,322.1 2032.2,322.1 		"/>
		<polygon points="2032.2,42.5 2153.3,291.7 2138.6,322.1 2140.1,322.1 2153.4,294.6 2153.4,288.8 2030.9,36.7 2030.9,288.8 
			2032.2,291.6 		"/>
		<polygon points="2032.2,541 2032.2,322.1 2030.9,322.1 2030.9,546.8 2140.1,322.1 2138.6,322.1 		"/>
		<polygon points="2032.2,292 2032.2,291.9 2032.2,291.6 2030.9,288.8 2030.9,294.6 		"/>
		<polygon points="2154.7,291.9 2154.7,292 2153.4,294.6 2153.4,322.1 2154.7,322.1 		"/>
		<polygon points="2154.7,42.5 2275.8,291.7 2258.3,327.8 2259.3,328.8 2277.1,292 2277.3,291.7 2153.4,36.7 2153.4,288.8 
			2154.7,291.6 		"/>
		<polygon points="2154.7,541 2154.7,322.1 2153.4,322.1 2153.4,546.8 2259.3,328.8 2258.3,327.8 		"/>
		<polygon points="2154.7,292 2154.7,291.9 2154.7,291.6 2153.4,288.8 2153.4,294.6 		"/>
	</g>
</g>
<g>
	<g>
		<polygon class="st2" points="2197.6,1395.6 2197.6,2139.4 2378.8,1767.5 		"/>
	</g>
	<g>
		<polygon class="st2" points="2378.8,1395.6 2378.8,2139.4 2560,1767.5 		"/>
	</g>
</g>
<g>
	<g>
		<g>
			<polygon class="st2" points="1632.5,3000.2 1632.5,3941.8 1864.4,3471 			"/>
		</g>
		<g>
			<polygon class="st2" points="1864.4,3000.2 1864.4,3941.8 2096.3,3471 			"/>
		</g>
	</g>
	<g>
		<g>
			<polygon class="st2" points="2096.3,3000.2 2096.3,3941.8 2328.1,3471 			"/>
		</g>
		<g>
			<polygon class="st2" points="2328.1,3000.2 2328.1,3941.8 2560,3471 			"/>
		</g>
	</g>
</g>
<polygon class="st3" points="2208.2,3195 2186.6,3154.7 2174,3198.6 2173.5,3152.9 2142,3186 2162.8,3145.3 2119.5,3159.9 
	2156.9,3133.6 2111.8,3126.4 2157.1,3120.5 2120.4,3093.1 2163.3,3108.9 2143.6,3067.7 2174.3,3101.6 2175.9,3055.9 2187.3,3100.2 
	2210,3060.5 2199.5,3105 2238.1,3080.5 2208.1,3115 2253.7,3111.2 2211.1,3127.8 2253.2,3145.6 2207.8,3140.5 2236.8,3175.8 
	2198.9,3150.2 "/>
<polygon class="st3" points="1746.4,4049.9 1735.5,4030.2 1728.2,4051.5 1728.6,4029 1711.6,4043.8 1723.3,4024.5 1701.2,4028.8 
	1720.9,4017.9 1699.6,4010.6 1722.1,4011.1 1707.3,3994.1 1726.6,4005.7 1722.3,3983.6 1733.1,4003.3 1740.4,3982 1740,4004.6 
	1757,3989.8 1745.3,4009 1767.5,4004.7 1747.7,4015.6 1769,4022.9 1746.5,4022.5 1761.3,4039.5 1742,4027.8 "/>
<circle class="st4" cx="575.4" cy="5039.6" r="677"/>
<rect x="1261.8" y="4339" class="st0" width="1316.5" height="1401.3"/>
<circle class="st4" cx="1883" cy="5039.6" r="677"/>
<g>
	<g>
		<path d="M1280,4673v-173.5l42.1,86.8l-0.2,0.4L1280,4673z M1282,4508.1v156.3l38-78.1L1282,4508.1z"/>
	</g>
	<g>
		<path d="M1321.2,4673v-173.5l42.1,86.8l-0.2,0.4L1321.2,4673z M1323.2,4508.1v156.3l37.9-78.1L1323.2,4508.1z"/>
	</g>
	<g>
		<path d="M1361.3,4673v-173.5l42.1,86.8l-0.2,0.4L1361.3,4673z M1363.3,4508.1v156.3l37.9-78.1L1363.3,4508.1z"/>
	</g>
	<g>
		<path d="M1401.3,4673v-173.5l42.1,86.8l-0.2,0.4L1401.3,4673z M1403.3,4508.1v156.3l38-78.1L1403.3,4508.1z"/>
	</g>
</g>
</svg>
