<svg width="1736" height="881" viewBox="0 0 1736 881" fill="none" xmlns="http://www.w3.org/2000/svg">
<g clip-path="url(#clip0_558_13)">
<rect width="1736" height="881" fill="white"/>
<path d="M0 0H1736V881H0V0Z" fill="#FAFAF8"/>
<path d="M1643.87 201.826L1611.72 213.982V203.065L1629.31 196.469L1611.72 190.425V179.44L1643.87 191.248V201.826Z" stroke="white" stroke-width="0.8" stroke-miterlimit="10"/>
<path d="M1610.21 201.826L1578.06 213.982V203.065L1595.65 196.469L1578.06 190.425V179.44L1610.21 191.248V201.826Z" stroke="white" stroke-width="0.8" stroke-miterlimit="10"/>
<path d="M891.893 314.162L889 249.256L917.188 248L920.081 312.906L891.893 314.162Z" fill="#F7E86B" stroke="#F7E86B"/>
<path d="M1011.42 352.863L1064.75 315.748L1080.87 338.907L1027.54 376.022L1011.42 352.863Z" fill="#F7E86B" stroke="#F7E86B"/>
<path d="M1042.32 473.575L1107.25 471.246L1108.26 499.443L1043.33 501.773L1042.32 473.575Z" fill="#F7E86B" stroke="#F7E86B"/>
</g>
<defs>
<clipPath id="clip0_558_13">
<rect width="1736" height="881" fill="white"/>
</clipPath>
</defs>
</svg>
