<svg width="1728" height="867" viewBox="0 0 1728 867" fill="none" xmlns="http://www.w3.org/2000/svg">
<g clip-path="url(#clip0_2001_2)">
<path d="M1467.91 321.389L1336.81 371V326.432L1408.54 299.519L1336.81 274.85V230L1467.91 278.211V321.38V321.389Z" fill="#F7E86B"/>
<path d="M1330.85 321.389L1198.55 371V326.432L1270.93 299.519L1198.55 274.85V230L1330.85 278.211V321.38V321.389Z" fill="#F7E86B"/>
<path d="M1488.18 371.627L1452.42 385V372.99L1471.99 365.734L1452.42 359.085V347L1488.18 359.99V371.627Z" stroke="black" stroke-width="0.8" stroke-miterlimit="10"/>
<path d="M1446.46 366.627L1410.7 380V367.99L1430.27 360.734L1410.7 354.085V342L1446.46 354.99V366.627Z" stroke="black" stroke-width="0.8" stroke-miterlimit="10"/>
<path d="M1269 197.444L1281.83 162L1283.07 199.669L1306.23 169.934L1295.78 206.138L1326.99 185.013L1305.86 216.222L1342.07 205.772L1312.33 228.916L1350 230.174L1314.56 243L1350 255.826L1312.33 257.074L1342.07 280.228L1305.86 269.778L1326.99 300.987L1295.78 279.862L1306.23 316.066L1283.07 286.331L1281.83 324L1269 288.556L1256.17 324L1254.92 286.331L1231.77 316.066L1242.22 279.862L1211.01 300.987L1232.14 269.778L1195.93 280.228L1225.67 257.074L1188 255.826L1223.44 243L1188 230.174L1225.67 228.916L1195.93 205.772L1232.14 216.222L1211.01 185.013L1242.22 206.138L1231.77 169.934L1254.92 199.669L1256.17 162L1269 197.444Z" stroke="#2F2F2F" stroke-width="0.88" stroke-miterlimit="10"/>
<path d="M176.79 699.615L77.2285 744.463V704.174L131.702 679.844L77.2285 657.544V617L176.79 660.583V699.607V699.615Z" fill="#F7E86B"/>
<path d="M72.5612 699.615L-27 744.463V704.174L27.4732 679.844L-27 657.544V617L72.5612 660.583V699.607V699.615Z" fill="#F7E86B"/>
</g>
<defs>
<clipPath id="clip0_2001_2">
<rect width="1728" height="867" fill="white"/>
</clipPath>
</defs>
</svg>
