<svg width="296" height="25" viewBox="0 0 296 25" fill="none" xmlns="http://www.w3.org/2000/svg">
<path d="M23.91 12.4969C23.91 19.226 18.5597 24.6796 11.9581 24.6796C5.35649 24.6796 0 19.2323 0 12.4969C0 5.76156 5.35033 0.314209 11.9581 0.314209C18.5659 0.314209 23.91 5.76784 23.91 12.4969Z" fill="#FFFF5F"/>
<path d="M6.55231 10.6559C6.56464 10.5491 6.5893 10.4423 6.62012 10.3418C6.62012 10.3292 6.66943 10.1973 6.64477 10.2601C6.62628 10.3104 6.68176 10.1784 6.69409 10.1596C6.73723 10.0716 6.79271 9.98993 6.84819 9.90825C6.79271 9.98364 6.87901 9.87683 6.89133 9.85798C6.92215 9.82657 6.95297 9.79515 6.98379 9.76374C7.01461 9.73232 7.0516 9.70091 7.08242 9.66949C7.17488 9.58153 7.03927 9.69463 7.13789 9.62551C7.22419 9.56897 7.31665 9.51242 7.40911 9.46216C7.50157 9.41189 7.38445 9.46216 7.44609 9.44959C7.48924 9.43702 7.52622 9.41818 7.56937 9.40561C7.61868 9.39304 7.67416 9.38048 7.72347 9.36791C7.87757 9.3365 7.62485 9.36791 7.78511 9.36163C7.88373 9.36163 7.97619 9.36163 8.07482 9.36163C8.13646 9.36163 8.00085 9.34278 8.10564 9.36791C8.15495 9.38048 8.21042 9.39304 8.25973 9.40561C8.30905 9.41818 8.35836 9.43702 8.40767 9.45587C8.3337 9.42446 8.40767 9.45587 8.43849 9.47472C8.52479 9.5187 8.60492 9.57525 8.69121 9.62551C8.82682 9.70719 8.62957 9.56268 8.74669 9.66321C8.78367 9.70091 8.82682 9.73232 8.8638 9.77002C8.89462 9.80144 8.92544 9.83285 8.95626 9.87055C8.98092 9.89568 9.03023 9.96479 8.98092 9.90196C9.04256 9.98993 9.09187 10.0842 9.14735 10.1784C9.20282 10.2852 9.13502 10.1156 9.172 10.2412C9.19049 10.2915 9.20282 10.3418 9.22131 10.3983C9.30145 10.6999 9.62197 10.8821 9.91784 10.8004C10.2137 10.7188 10.3925 10.392 10.3123 10.0905C10.0165 8.98465 8.92544 8.13016 7.79127 8.20556C6.66943 8.28095 5.62772 9.1857 5.47362 10.3418C5.43664 10.6371 5.54142 10.9764 5.86811 11.0518C6.13317 11.1146 6.52149 10.9701 6.56464 10.6496" fill="#1D1D1D"/>
<path d="M14.6887 10.6559C14.7011 10.5491 14.7257 10.4423 14.7565 10.3418C14.7565 10.3292 14.8058 10.1973 14.7812 10.2601C14.7627 10.3104 14.8182 10.1784 14.8305 10.1596C14.8736 10.0716 14.9291 9.98993 14.9846 9.90825C14.9291 9.98364 15.0154 9.87683 15.0277 9.85798C15.0586 9.82657 15.0894 9.79515 15.1202 9.76374C15.151 9.73232 15.188 9.70091 15.2188 9.66949C15.3113 9.58153 15.1757 9.69463 15.2743 9.62551C15.3606 9.56897 15.4531 9.51242 15.5455 9.46216C15.638 9.41189 15.5209 9.46216 15.5825 9.44959C15.6257 9.43702 15.6626 9.41818 15.7058 9.40561C15.7551 9.39304 15.8106 9.38048 15.8599 9.36791C16.014 9.3365 15.7613 9.36791 15.9215 9.36163C16.0201 9.36163 16.1126 9.36163 16.2112 9.36163C16.2729 9.36163 16.1373 9.34278 16.242 9.36791C16.2914 9.38048 16.3468 9.39304 16.3961 9.40561C16.4455 9.41818 16.4948 9.43702 16.5441 9.45587C16.4701 9.42446 16.5441 9.45587 16.5749 9.47472C16.6612 9.5187 16.7413 9.57525 16.8276 9.62551C16.9632 9.70719 16.766 9.56268 16.8831 9.66321C16.9201 9.70091 16.9632 9.73232 17.0002 9.77002C17.031 9.80144 17.0619 9.83285 17.0927 9.87055C17.1173 9.89568 17.1666 9.96479 17.1173 9.90196C17.179 9.98993 17.2283 10.0842 17.2838 10.1784C17.3392 10.2852 17.2714 10.1156 17.3084 10.2412C17.3269 10.2915 17.3392 10.3418 17.3577 10.3983C17.4379 10.6999 17.7584 10.8821 18.0543 10.8004C18.3501 10.7188 18.5289 10.392 18.4488 10.0905C18.1529 8.98465 17.0619 8.13016 15.9277 8.20556C14.8058 8.28095 13.7641 9.1857 13.61 10.3418C13.573 10.6371 13.6778 10.9764 14.0045 11.0518C14.2696 11.1146 14.6579 10.9701 14.7011 10.6496" fill="#1D1D1D"/>
<path d="M6.37972 14.8907C7.61868 16.7756 9.67128 18.1138 11.9396 18.1327C14.0662 18.1515 16.1804 16.9264 17.142 14.9723C17.4687 14.3126 16.4948 13.7283 16.1681 14.388C15.3791 15.9965 13.6964 16.9955 11.9396 16.9766C10.0904 16.9641 8.37068 15.8457 7.35979 14.3064C6.95913 13.6906 5.97906 14.2687 6.38588 14.8907" fill="#1D1D1D"/>
<path d="M54.1073 12.4969C54.1073 19.226 48.757 24.6796 42.1554 24.6796C35.5538 24.6796 30.1973 19.226 30.1973 12.4969C30.1973 5.76784 35.5538 0.314209 42.1554 0.314209C48.757 0.314209 54.1073 5.76784 54.1073 12.4969Z" fill="#FFFF5F"/>
<path d="M36.7496 10.6559C36.7619 10.5491 36.7866 10.4423 36.8174 10.3418C36.8174 10.3292 36.8667 10.1973 36.842 10.2601C36.8235 10.3104 36.879 10.1784 36.8914 10.1596C36.9345 10.0716 36.99 9.98993 37.0455 9.90825C36.99 9.98364 37.0763 9.87683 37.0886 9.85798C37.1194 9.82657 37.1502 9.79515 37.1811 9.76374C37.2119 9.73232 37.2489 9.70091 37.2797 9.66949C37.3721 9.58153 37.2365 9.69463 37.3352 9.62551C37.4215 9.56897 37.5139 9.51242 37.6064 9.46216C37.6988 9.41189 37.5817 9.46216 37.6434 9.44959C37.6865 9.43702 37.7235 9.41818 37.7666 9.40561C37.8159 9.39304 37.8714 9.38048 37.9207 9.36791C38.0748 9.3365 37.8221 9.36791 37.9824 9.36163C38.081 9.36163 38.1735 9.36163 38.2721 9.36163C38.3337 9.36163 38.1981 9.34278 38.3029 9.36791C38.3522 9.38048 38.4077 9.39304 38.457 9.40561C38.5063 9.41818 38.5556 9.43702 38.6049 9.45587C38.531 9.42446 38.6049 9.45587 38.6358 9.47472C38.7221 9.5187 38.8022 9.57525 38.8885 9.62551C39.0241 9.70719 38.8268 9.56268 38.944 9.66321C38.9809 9.70091 39.0241 9.73232 39.0611 9.77002C39.0919 9.80144 39.1227 9.83285 39.1535 9.87055C39.1782 9.89568 39.2275 9.96479 39.1782 9.90196C39.2398 9.98993 39.2891 10.0842 39.3446 10.1784C39.4001 10.2852 39.3323 10.1156 39.3693 10.2412C39.3878 10.2915 39.4001 10.3418 39.4186 10.3983C39.4987 10.6999 39.8192 10.8821 40.1151 10.8004C40.411 10.7188 40.5897 10.392 40.5096 10.0905C40.2137 8.98465 39.1227 8.13016 37.9885 8.20556C36.8667 8.28095 35.825 9.1857 35.6709 10.3418C35.6339 10.6371 35.7387 10.9764 36.0654 11.0518C36.3304 11.1146 36.7188 10.9701 36.7619 10.6496" fill="#1D1D1D"/>
<path d="M44.8861 10.6559C44.8984 10.5491 44.923 10.4423 44.9539 10.3418C44.9539 10.3292 45.0032 10.1973 44.9785 10.2601C44.96 10.3104 45.0155 10.1784 45.0278 10.1596C45.071 10.0716 45.1265 9.98993 45.1819 9.90825C45.1265 9.98364 45.2127 9.87683 45.2251 9.85798C45.2559 9.82657 45.2867 9.79515 45.3175 9.76374C45.3484 9.73232 45.3853 9.70091 45.4162 9.66949C45.5086 9.58153 45.373 9.69463 45.4716 9.62551C45.5579 9.56897 45.6504 9.51242 45.7428 9.46216C45.8353 9.41189 45.7182 9.46216 45.7798 9.44959C45.823 9.43702 45.86 9.41818 45.9031 9.40561C45.9524 9.39304 46.0079 9.38048 46.0572 9.36791C46.2113 9.3365 45.9586 9.36791 46.1188 9.36163C46.2175 9.36163 46.3099 9.36163 46.4086 9.36163C46.4702 9.36163 46.3346 9.34278 46.4394 9.36791C46.4887 9.38048 46.5442 9.39304 46.5935 9.40561C46.6428 9.41818 46.6921 9.43702 46.7414 9.45587C46.6674 9.42446 46.7414 9.45587 46.7722 9.47472C46.8585 9.5187 46.9387 9.57525 47.025 9.62551C47.1606 9.70719 46.9633 9.56268 47.0804 9.66321C47.1174 9.70091 47.1606 9.73232 47.1975 9.77002C47.2284 9.80144 47.2592 9.83285 47.29 9.87055C47.3147 9.89568 47.364 9.96479 47.3147 9.90196C47.3763 9.98993 47.4256 10.0842 47.4811 10.1784C47.5366 10.2852 47.4688 10.1156 47.5057 10.2412C47.5242 10.2915 47.5366 10.3418 47.5551 10.3983C47.6352 10.6999 47.9557 10.8821 48.2516 10.8004C48.5475 10.7188 48.7262 10.392 48.6461 10.0905C48.3502 8.98465 47.2592 8.13016 46.125 8.20556C45.0032 8.28095 43.9615 9.1857 43.8074 10.3418C43.7704 10.6371 43.8752 10.9764 44.2019 11.0518C44.4669 11.1146 44.8552 10.9701 44.8984 10.6496" fill="#1D1D1D"/>
<path d="M36.577 14.8907C37.8159 16.7756 39.8685 18.1138 42.1369 18.1327C44.2635 18.1515 46.3777 16.9264 47.3393 14.9723C47.666 14.3126 46.6921 13.7283 46.3654 14.388C45.5764 15.9965 43.8936 16.9955 42.1369 16.9766C40.2877 16.9641 38.5679 15.8457 37.5571 14.3064C37.1564 13.6906 36.1763 14.2687 36.5831 14.8907" fill="#1D1D1D"/>
<path d="M84.3046 12.4969C84.3046 19.226 78.9543 24.6796 72.3527 24.6796C65.7511 24.6796 60.3946 19.226 60.3946 12.4969C60.3946 5.76784 65.7511 0.314209 72.3527 0.314209C78.9543 0.314209 84.3046 5.76784 84.3046 12.4969Z" fill="#FFFF5F"/>
<path d="M66.9469 10.6559C66.9592 10.5491 66.9839 10.4423 67.0147 10.3418C67.0147 10.3292 67.064 10.1973 67.0394 10.2601C67.0209 10.3104 67.0763 10.1784 67.0887 10.1596C67.1318 10.0716 67.1873 9.98993 67.2428 9.90825C67.1873 9.98364 67.2736 9.87683 67.2859 9.85798C67.3167 9.82657 67.3476 9.79515 67.3784 9.76374C67.4092 9.73232 67.4462 9.70091 67.477 9.66949C67.5695 9.58153 67.4339 9.69463 67.5325 9.62551C67.6188 9.56897 67.7112 9.51242 67.8037 9.46216C67.8962 9.41189 67.779 9.46216 67.8407 9.44959C67.8838 9.43702 67.9208 9.41818 67.964 9.40561C68.0133 9.39304 68.0688 9.38048 68.1181 9.36791C68.2722 9.3365 68.0194 9.36791 68.1797 9.36163C68.2783 9.36163 68.3708 9.36163 68.4694 9.36163C68.531 9.36163 68.3954 9.34278 68.5002 9.36791C68.5495 9.38048 68.605 9.39304 68.6543 9.40561C68.7036 9.41818 68.753 9.43702 68.8023 9.45587C68.7283 9.42446 68.8023 9.45587 68.8331 9.47472C68.9194 9.5187 68.9995 9.57525 69.0858 9.62551C69.2214 9.70719 69.0242 9.56268 69.1413 9.66321C69.1783 9.70091 69.2214 9.73232 69.2584 9.77002C69.2892 9.80144 69.32 9.83285 69.3509 9.87055C69.3755 9.89568 69.4248 9.96479 69.3755 9.90196C69.4372 9.98993 69.4865 10.0842 69.5419 10.1784C69.5974 10.2852 69.5296 10.1156 69.5666 10.2412C69.5851 10.2915 69.5974 10.3418 69.6159 10.3983C69.696 10.6999 70.0166 10.8821 70.3124 10.8004C70.6083 10.7188 70.7871 10.392 70.7069 10.0905C70.4111 8.98465 69.32 8.13016 68.1859 8.20556C67.064 8.28095 66.0223 9.1857 65.8682 10.3418C65.8312 10.6371 65.936 10.9764 66.2627 11.0518C66.5278 11.1146 66.9161 10.9701 66.9592 10.6496" fill="#1D1D1D"/>
<path d="M75.0833 10.6559C75.0956 10.5491 75.1203 10.4423 75.1511 10.3418C75.1511 10.3292 75.2004 10.1973 75.1758 10.2601C75.1573 10.3104 75.2128 10.1784 75.2251 10.1596C75.2682 10.0716 75.3237 9.98993 75.3792 9.90825C75.3237 9.98364 75.41 9.87683 75.4223 9.85798C75.4532 9.82657 75.484 9.79515 75.5148 9.76374C75.5456 9.73232 75.5826 9.70091 75.6134 9.66949C75.7059 9.58153 75.5703 9.69463 75.6689 9.62551C75.7552 9.56897 75.8477 9.51242 75.9401 9.46216C76.0326 9.41189 75.9155 9.46216 75.9771 9.44959C76.0202 9.43702 76.0572 9.41818 76.1004 9.40561C76.1497 9.39304 76.2052 9.38048 76.2545 9.36791C76.4086 9.3365 76.1559 9.36791 76.3161 9.36163C76.4147 9.36163 76.5072 9.36163 76.6058 9.36163C76.6675 9.36163 76.5319 9.34278 76.6366 9.36791C76.686 9.38048 76.7414 9.39304 76.7907 9.40561C76.8401 9.41818 76.8894 9.43702 76.9387 9.45587C76.8647 9.42446 76.9387 9.45587 76.9695 9.47472C77.0558 9.5187 77.1359 9.57525 77.2222 9.62551C77.3578 9.70719 77.1606 9.56268 77.2777 9.66321C77.3147 9.70091 77.3578 9.73232 77.3948 9.77002C77.4256 9.80144 77.4564 9.83285 77.4873 9.87055C77.5119 9.89568 77.5612 9.96479 77.5119 9.90196C77.5736 9.98993 77.6229 10.0842 77.6784 10.1784C77.7338 10.2852 77.666 10.1156 77.703 10.2412C77.7215 10.2915 77.7338 10.3418 77.7523 10.3983C77.8325 10.6999 78.153 10.8821 78.4488 10.8004C78.7447 10.7188 78.9235 10.392 78.8433 10.0905C78.5475 8.98465 77.4565 8.13016 76.3223 8.20556C75.2004 8.28095 74.1587 9.1857 74.0046 10.3418C73.9676 10.6371 74.0724 10.9764 74.3991 11.0518C74.6642 11.1146 75.0525 10.9701 75.0957 10.6496" fill="#1D1D1D"/>
<path d="M66.7743 14.8907C68.0132 16.7756 70.0658 18.1138 72.3342 18.1327C74.4607 18.1515 76.575 16.9264 77.5365 14.9723C77.8632 14.3126 76.8893 13.7283 76.5626 14.388C75.7736 15.9965 74.0909 16.9955 72.3342 16.9766C70.485 16.9641 68.7652 15.8457 67.7543 14.3064C67.3537 13.6906 66.3736 14.2687 66.7804 14.8907" fill="#1D1D1D"/>
<path d="M114.502 12.4969C114.502 19.226 109.152 24.6796 102.55 24.6796C95.9483 24.6796 90.5919 19.226 90.5919 12.4969C90.5919 5.76784 95.9483 0.314209 102.55 0.314209C109.152 0.314209 114.502 5.76784 114.502 12.4969Z" fill="#FFFF5F"/>
<path d="M97.1442 10.6559C97.1565 10.5491 97.1812 10.4423 97.212 10.3418C97.212 10.3292 97.2613 10.1973 97.2366 10.2601C97.2181 10.3104 97.2736 10.1784 97.2859 10.1596C97.3291 10.0716 97.3846 9.98993 97.44 9.90825C97.3846 9.98364 97.4709 9.87683 97.4832 9.85798C97.514 9.82657 97.5448 9.79515 97.5756 9.76374C97.6065 9.73232 97.6435 9.70091 97.6743 9.66949C97.7667 9.58153 97.6311 9.69463 97.7297 9.62551C97.816 9.56897 97.9085 9.51242 98.001 9.46216C98.0934 9.41189 97.9763 9.46216 98.0379 9.44959C98.0811 9.43702 98.1181 9.41818 98.1612 9.40561C98.2105 9.39304 98.266 9.38048 98.3153 9.36791C98.4694 9.3365 98.2167 9.36791 98.377 9.36163C98.4756 9.36163 98.5681 9.36163 98.6667 9.36163C98.7283 9.36163 98.5927 9.34278 98.6975 9.36791C98.7468 9.38048 98.8023 9.39304 98.8516 9.40561C98.9009 9.41818 98.9502 9.43702 98.9995 9.45587C98.9256 9.42446 98.9995 9.45587 99.0303 9.47472C99.1166 9.5187 99.1968 9.57525 99.2831 9.62551C99.4187 9.70719 99.2214 9.56268 99.3385 9.66321C99.3755 9.70091 99.4187 9.73232 99.4557 9.77002C99.4865 9.80144 99.5173 9.83285 99.5481 9.87055C99.5728 9.89568 99.6221 9.96479 99.5728 9.90196C99.6344 9.98993 99.6837 10.0842 99.7392 10.1784C99.7947 10.2852 99.7269 10.1156 99.7639 10.2412C99.7824 10.2915 99.7947 10.3418 99.8132 10.3983C99.8933 10.6999 100.214 10.8821 100.51 10.8004C100.806 10.7188 100.984 10.392 100.904 10.0905C100.608 8.98465 99.5173 8.13016 98.3831 8.20556C97.2613 8.28095 96.2196 9.1857 96.0655 10.3418C96.0285 10.6371 96.1333 10.9764 96.46 11.0518C96.725 11.1146 97.1133 10.9701 97.1565 10.6496" fill="#1D1D1D"/>
<path d="M105.281 10.6559C105.293 10.5491 105.318 10.4423 105.348 10.3418C105.348 10.3292 105.398 10.1973 105.373 10.2601C105.355 10.3104 105.41 10.1784 105.422 10.1596C105.466 10.0716 105.521 9.98993 105.576 9.90825C105.521 9.98364 105.607 9.87683 105.62 9.85798C105.65 9.82657 105.681 9.79515 105.712 9.76374C105.743 9.73232 105.78 9.70091 105.811 9.66949C105.903 9.58153 105.768 9.69463 105.866 9.62551C105.952 9.56897 106.045 9.51242 106.137 9.46216C106.23 9.41189 106.113 9.46216 106.174 9.44959C106.218 9.43702 106.254 9.41818 106.298 9.40561C106.347 9.39304 106.402 9.38048 106.452 9.36791C106.606 9.3365 106.353 9.36791 106.513 9.36163C106.612 9.36163 106.704 9.36163 106.803 9.36163C106.865 9.36163 106.729 9.34278 106.834 9.36791C106.883 9.38048 106.939 9.39304 106.988 9.40561C107.037 9.41818 107.087 9.43702 107.136 9.45587C107.062 9.42446 107.136 9.45587 107.167 9.47472C107.253 9.5187 107.333 9.57525 107.419 9.62551C107.555 9.70719 107.358 9.56268 107.475 9.66321C107.512 9.70091 107.555 9.73232 107.592 9.77002C107.623 9.80144 107.654 9.83285 107.685 9.87055C107.709 9.89568 107.759 9.96479 107.709 9.90196C107.771 9.98993 107.82 10.0842 107.876 10.1784C107.931 10.2852 107.863 10.1156 107.9 10.2412C107.919 10.2915 107.931 10.3418 107.95 10.3983C108.03 10.6999 108.35 10.8821 108.646 10.8004C108.942 10.7188 109.121 10.392 109.041 10.0905C108.745 8.98465 107.654 8.13016 106.52 8.20556C105.398 8.28095 104.356 9.1857 104.202 10.3418C104.165 10.6371 104.27 10.9764 104.596 11.0518C104.861 11.1146 105.25 10.9701 105.293 10.6496" fill="#1D1D1D"/>
<path d="M96.9716 14.8907C98.2105 16.7756 100.263 18.1138 102.531 18.1327C104.658 18.1515 106.772 16.9264 107.734 14.9723C108.061 14.3126 107.087 13.7283 106.76 14.388C105.971 15.9965 104.288 16.9955 102.531 16.9766C100.682 16.9641 98.9625 15.8457 97.9516 14.3064C97.551 13.6906 96.5709 14.2687 96.9777 14.8907" fill="#1D1D1D"/>
<path d="M144.699 12.4969C144.699 19.226 139.349 24.6796 132.747 24.6796C126.146 24.6796 120.789 19.226 120.789 12.4969C120.789 5.76784 126.146 0.314209 132.747 0.314209C139.349 0.314209 144.699 5.76784 144.699 12.4969Z" fill="#FFFF5F"/>
<path d="M127.341 10.6559C127.354 10.5491 127.378 10.4423 127.409 10.3418C127.409 10.3292 127.459 10.1973 127.434 10.2601C127.415 10.3104 127.471 10.1784 127.483 10.1596C127.526 10.0716 127.582 9.98993 127.637 9.90825C127.582 9.98364 127.668 9.87683 127.68 9.85798C127.711 9.82657 127.742 9.79515 127.773 9.76374C127.804 9.73232 127.841 9.70091 127.872 9.66949C127.964 9.58153 127.828 9.69463 127.927 9.62551C128.013 9.56897 128.106 9.51242 128.198 9.46216C128.291 9.41189 128.174 9.46216 128.235 9.44959C128.278 9.43702 128.315 9.41818 128.358 9.40561C128.408 9.39304 128.463 9.38048 128.513 9.36791C128.667 9.3365 128.414 9.36791 128.574 9.36163C128.673 9.36163 128.765 9.36163 128.864 9.36163C128.926 9.36163 128.79 9.34278 128.895 9.36791C128.944 9.38048 129 9.39304 129.049 9.40561C129.098 9.41818 129.147 9.43702 129.197 9.45587C129.123 9.42446 129.197 9.45587 129.228 9.47472C129.314 9.5187 129.394 9.57525 129.48 9.62551C129.616 9.70719 129.419 9.56268 129.536 9.66321C129.573 9.70091 129.616 9.73232 129.653 9.77002C129.684 9.80144 129.715 9.83285 129.745 9.87055C129.77 9.89568 129.819 9.96479 129.77 9.90196C129.832 9.98993 129.881 10.0842 129.936 10.1784C129.992 10.2852 129.924 10.1156 129.961 10.2412C129.98 10.2915 129.992 10.3418 130.01 10.3983C130.091 10.6999 130.411 10.8821 130.707 10.8004C131.003 10.7188 131.182 10.392 131.101 10.0905C130.806 8.98465 129.715 8.13016 128.58 8.20556C127.459 8.28095 126.417 9.1857 126.263 10.3418C126.226 10.6371 126.331 10.9764 126.657 11.0518C126.922 11.1146 127.311 10.9701 127.354 10.6496" fill="#1D1D1D"/>
<path d="M135.478 10.6559C135.49 10.5491 135.515 10.4423 135.546 10.3418C135.546 10.3292 135.595 10.1973 135.57 10.2601C135.552 10.3104 135.607 10.1784 135.62 10.1596C135.663 10.0716 135.718 9.98993 135.774 9.90825C135.718 9.98364 135.805 9.87683 135.817 9.85798C135.848 9.82657 135.879 9.79515 135.909 9.76374C135.94 9.73232 135.977 9.70091 136.008 9.66949C136.1 9.58153 135.965 9.69463 136.063 9.62551C136.15 9.56897 136.242 9.51242 136.335 9.46216C136.427 9.41189 136.31 9.46216 136.372 9.44959C136.415 9.43702 136.452 9.41818 136.495 9.40561C136.544 9.39304 136.6 9.38048 136.649 9.36791C136.803 9.3365 136.55 9.36791 136.711 9.36163C136.809 9.36163 136.902 9.36163 137 9.36163C137.062 9.36163 136.926 9.34278 137.031 9.36791C137.08 9.38048 137.136 9.39304 137.185 9.40561C137.235 9.41818 137.284 9.43702 137.333 9.45587C137.259 9.42446 137.333 9.45587 137.364 9.47472C137.45 9.5187 137.53 9.57525 137.617 9.62551C137.752 9.70719 137.555 9.56268 137.672 9.66321C137.709 9.70091 137.752 9.73232 137.789 9.77002C137.82 9.80144 137.851 9.83285 137.882 9.87055C137.906 9.89568 137.956 9.96479 137.906 9.90196C137.968 9.98993 138.017 10.0842 138.073 10.1784C138.128 10.2852 138.061 10.1156 138.098 10.2412C138.116 10.2915 138.128 10.3418 138.147 10.3983C138.227 10.6999 138.548 10.8821 138.843 10.8004C139.139 10.7188 139.318 10.392 139.238 10.0905C138.942 8.98465 137.851 8.13016 136.717 8.20556C135.595 8.28095 134.553 9.1857 134.399 10.3418C134.362 10.6371 134.467 10.9764 134.794 11.0518C135.059 11.1146 135.447 10.9701 135.49 10.6496" fill="#1D1D1D"/>
<path d="M127.169 14.8907C128.408 16.7756 130.46 18.1138 132.729 18.1327C134.855 18.1515 136.97 16.9264 137.931 14.9723C138.258 14.3126 137.284 13.7283 136.957 14.388C136.168 15.9965 134.486 16.9955 132.729 16.9766C130.88 16.9641 129.16 15.8457 128.149 14.3064C127.748 13.6906 126.768 14.2687 127.175 14.8907" fill="#1D1D1D"/>
<path d="M174.903 12.4969C174.903 19.226 169.552 24.6796 162.951 24.6796C156.349 24.6796 150.993 19.226 150.993 12.4969C150.993 5.76784 156.349 0.314209 162.951 0.314209C169.552 0.314209 174.903 5.76784 174.903 12.4969Z" fill="#FFFF5F"/>
<path d="M157.539 10.6559C157.551 10.5491 157.576 10.4423 157.607 10.3418C157.607 10.3292 157.656 10.1973 157.631 10.2601C157.613 10.3104 157.668 10.1784 157.681 10.1596C157.724 10.0716 157.779 9.98993 157.835 9.90825C157.779 9.98364 157.865 9.87683 157.878 9.85798C157.909 9.82657 157.939 9.79515 157.97 9.76374C158.001 9.73232 158.038 9.70091 158.069 9.66949C158.161 9.58153 158.026 9.69463 158.124 9.62551C158.211 9.56897 158.303 9.51242 158.396 9.46216C158.488 9.41189 158.371 9.46216 158.433 9.44959C158.476 9.43702 158.513 9.41818 158.556 9.40561C158.605 9.39304 158.661 9.38048 158.71 9.36791C158.864 9.3365 158.611 9.36791 158.772 9.36163C158.87 9.36163 158.963 9.36163 159.061 9.36163C159.123 9.36163 158.987 9.34278 159.092 9.36791C159.141 9.38048 159.197 9.39304 159.246 9.40561C159.295 9.41818 159.345 9.43702 159.394 9.45587C159.32 9.42446 159.394 9.45587 159.425 9.47472C159.511 9.5187 159.591 9.57525 159.678 9.62551C159.813 9.70719 159.616 9.56268 159.733 9.66321C159.77 9.70091 159.813 9.73232 159.85 9.77002C159.881 9.80144 159.912 9.83285 159.943 9.87055C159.967 9.89568 160.017 9.96479 159.967 9.90196C160.029 9.98993 160.078 10.0842 160.134 10.1784C160.189 10.2852 160.121 10.1156 160.158 10.2412C160.177 10.2915 160.189 10.3418 160.208 10.3983C160.288 10.6999 160.608 10.8821 160.904 10.8004C161.2 10.7188 161.379 10.392 161.299 10.0905C161.003 8.98465 159.912 8.13016 158.778 8.20556C157.656 8.28095 156.614 9.1857 156.46 10.3418C156.423 10.6371 156.528 10.9764 156.855 11.0518C157.12 11.1146 157.508 10.9701 157.551 10.6496" fill="#1D1D1D"/>
<path d="M165.675 10.6559C165.687 10.5491 165.712 10.4423 165.743 10.3418C165.743 10.3292 165.792 10.1973 165.768 10.2601C165.749 10.3104 165.805 10.1784 165.817 10.1596C165.86 10.0716 165.916 9.98993 165.971 9.90825C165.916 9.98364 166.002 9.87683 166.014 9.85798C166.045 9.82657 166.076 9.79515 166.107 9.76374C166.137 9.73232 166.174 9.70091 166.205 9.66949C166.298 9.58153 166.162 9.69463 166.261 9.62551C166.347 9.56897 166.439 9.51242 166.532 9.46216C166.624 9.41189 166.507 9.46216 166.569 9.44959C166.612 9.43702 166.649 9.41818 166.692 9.40561C166.741 9.39304 166.797 9.38048 166.846 9.36791C167 9.3365 166.748 9.36791 166.908 9.36163C167.007 9.36163 167.099 9.36163 167.198 9.36163C167.259 9.36163 167.124 9.34278 167.228 9.36791C167.278 9.38048 167.333 9.39304 167.383 9.40561C167.432 9.41818 167.481 9.43702 167.53 9.45587C167.457 9.42446 167.53 9.45587 167.561 9.47472C167.648 9.5187 167.728 9.57525 167.814 9.62551C167.95 9.70719 167.752 9.56268 167.869 9.66321C167.906 9.70091 167.95 9.73232 167.987 9.77002C168.017 9.80144 168.048 9.83285 168.079 9.87055C168.104 9.89568 168.153 9.96479 168.104 9.90196C168.165 9.98993 168.215 10.0842 168.27 10.1784C168.326 10.2852 168.258 10.1156 168.295 10.2412C168.313 10.2915 168.326 10.3418 168.344 10.3983C168.424 10.6999 168.745 10.8821 169.041 10.8004C169.337 10.7188 169.515 10.392 169.435 10.0905C169.139 8.98465 168.048 8.13016 166.914 8.20556C165.792 8.28095 164.751 9.1857 164.596 10.3418C164.559 10.6371 164.664 10.9764 164.991 11.0518C165.256 11.1146 165.644 10.9701 165.687 10.6496" fill="#1D1D1D"/>
<path d="M157.372 14.8907C158.611 16.7756 160.664 18.1138 162.932 18.1327C165.059 18.1515 167.173 16.9264 168.135 14.9723C168.461 14.3126 167.487 13.7283 167.161 14.388C166.372 15.9965 164.689 16.9955 162.932 16.9766C161.083 16.9641 159.363 15.8457 158.352 14.3064C157.952 13.6906 156.972 14.2687 157.378 14.8907" fill="#1D1D1D"/>
<path d="M205.1 12.4969C205.1 19.226 199.75 24.6796 193.148 24.6796C186.546 24.6796 181.19 19.226 181.19 12.4969C181.19 5.76784 186.546 0.314209 193.148 0.314209C199.75 0.314209 205.1 5.76784 205.1 12.4969Z" fill="#FFFF5F"/>
<path d="M187.742 10.6559C187.754 10.5491 187.779 10.4423 187.81 10.3418C187.81 10.3292 187.859 10.1973 187.835 10.2601C187.816 10.3104 187.872 10.1784 187.884 10.1596C187.927 10.0716 187.983 9.98993 188.038 9.90825C187.983 9.98364 188.069 9.87683 188.081 9.85798C188.112 9.82657 188.143 9.79515 188.174 9.76374C188.204 9.73232 188.241 9.70091 188.272 9.66949C188.365 9.58153 188.229 9.69463 188.328 9.62551C188.414 9.56897 188.506 9.51242 188.599 9.46216C188.691 9.41189 188.574 9.46216 188.636 9.44959C188.679 9.43702 188.716 9.41818 188.759 9.40561C188.809 9.39304 188.864 9.38048 188.913 9.36791C189.067 9.3365 188.815 9.36791 188.975 9.36163C189.074 9.36163 189.166 9.36163 189.265 9.36163C189.326 9.36163 189.191 9.34278 189.295 9.36791C189.345 9.38048 189.4 9.39304 189.45 9.40561C189.499 9.41818 189.548 9.43702 189.597 9.45587C189.524 9.42446 189.598 9.45587 189.628 9.47472C189.715 9.5187 189.795 9.57525 189.881 9.62551C190.017 9.70719 189.819 9.56268 189.937 9.66321C189.974 9.70091 190.017 9.73232 190.054 9.77002C190.084 9.80144 190.115 9.83285 190.146 9.87055C190.171 9.89568 190.22 9.96479 190.171 9.90196C190.232 9.98993 190.282 10.0842 190.337 10.1784C190.393 10.2852 190.325 10.1156 190.362 10.2412C190.38 10.2915 190.393 10.3418 190.411 10.3983C190.491 10.6999 190.812 10.8821 191.108 10.8004C191.404 10.7188 191.582 10.392 191.502 10.0905C191.206 8.98465 190.115 8.13016 188.981 8.20556C187.859 8.28095 186.818 9.1857 186.663 10.3418C186.626 10.6371 186.731 10.9764 187.058 11.0518C187.323 11.1146 187.711 10.9701 187.754 10.6496" fill="#1D1D1D"/>
<path d="M195.879 10.6559C195.891 10.5491 195.916 10.4423 195.946 10.3418C195.946 10.3292 195.996 10.1973 195.971 10.2601C195.953 10.3104 196.008 10.1784 196.02 10.1596C196.064 10.0716 196.119 9.98993 196.174 9.90825C196.119 9.98364 196.205 9.87683 196.218 9.85798C196.248 9.82657 196.279 9.79515 196.31 9.76374C196.341 9.73232 196.378 9.70091 196.409 9.66949C196.501 9.58153 196.366 9.69463 196.464 9.62551C196.55 9.56897 196.643 9.51242 196.735 9.46216C196.828 9.41189 196.711 9.46216 196.772 9.44959C196.816 9.43702 196.853 9.41818 196.896 9.40561C196.945 9.39304 197 9.38048 197.05 9.36791C197.204 9.3365 196.951 9.36791 197.111 9.36163C197.21 9.36163 197.302 9.36163 197.401 9.36163C197.463 9.36163 197.327 9.34278 197.432 9.36791C197.481 9.38048 197.537 9.39304 197.586 9.40561C197.635 9.41818 197.685 9.43702 197.734 9.45587C197.66 9.42446 197.734 9.45587 197.765 9.47472C197.851 9.5187 197.931 9.57525 198.018 9.62551C198.153 9.70719 197.956 9.56268 198.073 9.66321C198.11 9.70091 198.153 9.73232 198.19 9.77002C198.221 9.80144 198.252 9.83285 198.283 9.87055C198.307 9.89568 198.357 9.96479 198.307 9.90196C198.369 9.98993 198.418 10.0842 198.474 10.1784C198.529 10.2852 198.461 10.1156 198.498 10.2412C198.517 10.2915 198.529 10.3418 198.548 10.3983C198.628 10.6999 198.948 10.8821 199.244 10.8004C199.54 10.7188 199.719 10.392 199.639 10.0905C199.343 8.98465 198.252 8.13016 197.118 8.20556C195.996 8.28095 194.954 9.1857 194.8 10.3418C194.763 10.6371 194.868 10.9764 195.194 11.0518C195.459 11.1146 195.848 10.9701 195.891 10.6496" fill="#1D1D1D"/>
<path d="M187.57 14.8907C188.809 16.7756 190.861 18.1138 193.13 18.1327C195.256 18.1515 197.37 16.9264 198.332 14.9723C198.659 14.3126 197.685 13.7283 197.358 14.388C196.569 15.9965 194.886 16.9955 193.13 16.9766C191.28 16.9641 189.561 15.8457 188.55 14.3064C188.149 13.6906 187.169 14.2687 187.576 14.8907" fill="#1D1D1D"/>
<path d="M235.297 12.4969C235.297 19.226 229.947 24.6796 223.345 24.6796C216.744 24.6796 211.387 19.226 211.387 12.4969C211.387 5.76784 216.744 0.314209 223.345 0.314209C229.947 0.314209 235.297 5.76784 235.297 12.4969Z" fill="#FFFF5F"/>
<path d="M217.94 10.6559C217.952 10.5491 217.976 10.4423 218.007 10.3418C218.007 10.3292 218.057 10.1973 218.032 10.2601C218.013 10.3104 218.069 10.1784 218.081 10.1596C218.124 10.0716 218.18 9.98993 218.235 9.90825C218.18 9.98364 218.266 9.87683 218.279 9.85798C218.309 9.82657 218.34 9.79515 218.371 9.76374C218.402 9.73232 218.439 9.70091 218.47 9.66949C218.562 9.58153 218.426 9.69463 218.525 9.62551C218.611 9.56897 218.704 9.51242 218.796 9.46216C218.889 9.41189 218.772 9.46216 218.833 9.44959C218.876 9.43702 218.913 9.41818 218.957 9.40561C219.006 9.39304 219.061 9.38048 219.111 9.36791C219.265 9.3365 219.012 9.36791 219.172 9.36163C219.271 9.36163 219.363 9.36163 219.462 9.36163C219.524 9.36163 219.388 9.34278 219.493 9.36791C219.542 9.38048 219.598 9.39304 219.647 9.40561C219.696 9.41818 219.746 9.43702 219.795 9.45587C219.721 9.42446 219.795 9.45587 219.826 9.47472C219.912 9.5187 219.992 9.57525 220.078 9.62551C220.214 9.70719 220.017 9.56268 220.134 9.66321C220.171 9.70091 220.214 9.73232 220.251 9.77002C220.282 9.80144 220.313 9.83285 220.343 9.87055C220.368 9.89568 220.417 9.96479 220.368 9.90196C220.43 9.98993 220.479 10.0842 220.535 10.1784C220.59 10.2852 220.522 10.1156 220.559 10.2412C220.578 10.2915 220.59 10.3418 220.609 10.3983C220.689 10.6999 221.009 10.8821 221.305 10.8004C221.601 10.7188 221.78 10.392 221.7 10.0905C221.404 8.98465 220.313 8.13016 219.178 8.20556C218.057 8.28095 217.015 9.1857 216.861 10.3418C216.824 10.6371 216.929 10.9764 217.255 11.0518C217.52 11.1146 217.909 10.9701 217.952 10.6496" fill="#1D1D1D"/>
<path d="M226.076 10.6559C226.088 10.5491 226.113 10.4423 226.144 10.3418C226.144 10.3292 226.193 10.1973 226.168 10.2601C226.15 10.3104 226.205 10.1784 226.218 10.1596C226.261 10.0716 226.316 9.98993 226.372 9.90825C226.316 9.98364 226.403 9.87683 226.415 9.85798C226.446 9.82657 226.477 9.79515 226.507 9.76374C226.538 9.73232 226.575 9.70091 226.606 9.66949C226.698 9.58153 226.563 9.69463 226.661 9.62551C226.748 9.56897 226.84 9.51242 226.933 9.46216C227.025 9.41189 226.908 9.46216 226.97 9.44959C227.013 9.43702 227.05 9.41818 227.093 9.40561C227.142 9.39304 227.198 9.38048 227.247 9.36791C227.401 9.3365 227.148 9.36791 227.309 9.36163C227.407 9.36163 227.5 9.36163 227.598 9.36163C227.66 9.36163 227.524 9.34278 227.629 9.36791C227.679 9.38048 227.734 9.39304 227.783 9.40561C227.833 9.41818 227.882 9.43702 227.931 9.45587C227.857 9.42446 227.931 9.45587 227.962 9.47472C228.048 9.5187 228.128 9.57525 228.215 9.62551C228.35 9.70719 228.153 9.56268 228.27 9.66321C228.307 9.70091 228.35 9.73232 228.387 9.77002C228.418 9.80144 228.449 9.83285 228.48 9.87055C228.504 9.89568 228.554 9.96479 228.504 9.90196C228.566 9.98993 228.615 10.0842 228.671 10.1784C228.726 10.2852 228.659 10.1156 228.696 10.2412C228.714 10.2915 228.726 10.3418 228.745 10.3983C228.825 10.6999 229.146 10.8821 229.441 10.8004C229.737 10.7188 229.916 10.392 229.836 10.0905C229.54 8.98465 228.449 8.13016 227.315 8.20556C226.193 8.28095 225.151 9.1857 224.997 10.3418C224.96 10.6371 225.065 10.9764 225.392 11.0518C225.657 11.1146 226.045 10.9701 226.088 10.6496" fill="#1D1D1D"/>
<path d="M217.767 14.8907C219.006 16.7756 221.058 18.1138 223.327 18.1327C225.453 18.1515 227.568 16.9264 228.529 14.9723C228.856 14.3126 227.882 13.7283 227.555 14.388C226.766 15.9965 225.084 16.9955 223.327 16.9766C221.478 16.9641 219.758 15.8457 218.747 14.3064C218.346 13.6906 217.366 14.2687 217.773 14.8907" fill="#1D1D1D"/>
<path d="M265.495 12.4969C265.495 19.226 260.144 24.6796 253.543 24.6796C246.941 24.6796 241.584 19.226 241.584 12.4969C241.584 5.76784 246.941 0.314209 253.543 0.314209C260.144 0.314209 265.495 5.76784 265.495 12.4969Z" fill="#FFFF5F"/>
<path d="M248.137 10.6559C248.149 10.5491 248.174 10.4423 248.205 10.3418C248.205 10.3292 248.254 10.1973 248.229 10.2601C248.211 10.3104 248.266 10.1784 248.279 10.1596C248.322 10.0716 248.377 9.98993 248.433 9.90825C248.377 9.98364 248.463 9.87683 248.476 9.85798C248.507 9.82657 248.537 9.79515 248.568 9.76374C248.599 9.73232 248.636 9.70091 248.667 9.66949C248.759 9.58153 248.624 9.69463 248.722 9.62551C248.809 9.56897 248.901 9.51242 248.994 9.46216C249.086 9.41189 248.969 9.46216 249.031 9.44959C249.074 9.43702 249.111 9.41818 249.154 9.40561C249.203 9.39304 249.259 9.38048 249.308 9.36791C249.462 9.3365 249.209 9.36791 249.37 9.36163C249.468 9.36163 249.561 9.36163 249.659 9.36163C249.721 9.36163 249.585 9.34278 249.69 9.36791C249.739 9.38048 249.795 9.39304 249.844 9.40561C249.894 9.41818 249.943 9.43702 249.992 9.45587C249.918 9.42446 249.992 9.45587 250.023 9.47472C250.109 9.5187 250.189 9.57525 250.276 9.62551C250.411 9.70719 250.214 9.56268 250.331 9.66321C250.368 9.70091 250.411 9.73232 250.448 9.77002C250.479 9.80144 250.51 9.83285 250.541 9.87055C250.565 9.89568 250.615 9.96479 250.565 9.90196C250.627 9.98993 250.676 10.0842 250.732 10.1784C250.787 10.2852 250.719 10.1156 250.756 10.2412C250.775 10.2915 250.787 10.3418 250.806 10.3983C250.886 10.6999 251.206 10.8821 251.502 10.8004C251.798 10.7188 251.977 10.392 251.897 10.0905C251.601 8.98465 250.51 8.13016 249.376 8.20556C248.254 8.28095 247.212 9.1857 247.058 10.3418C247.021 10.6371 247.126 10.9764 247.453 11.0518C247.718 11.1146 248.106 10.9701 248.149 10.6496" fill="#1D1D1D"/>
<path d="M256.273 10.6559C256.286 10.5491 256.31 10.4423 256.341 10.3418C256.341 10.3292 256.39 10.1973 256.366 10.2601C256.347 10.3104 256.403 10.1784 256.415 10.1596C256.458 10.0716 256.514 9.98993 256.569 9.90825C256.514 9.98364 256.6 9.87683 256.612 9.85798C256.643 9.82657 256.674 9.79515 256.705 9.76374C256.736 9.73232 256.773 9.70091 256.803 9.66949C256.896 9.58153 256.76 9.69463 256.859 9.62551C256.945 9.56897 257.038 9.51242 257.13 9.46216C257.223 9.41189 257.105 9.46216 257.167 9.44959C257.21 9.43702 257.247 9.41818 257.29 9.40561C257.34 9.39304 257.395 9.38048 257.444 9.36791C257.599 9.3365 257.346 9.36791 257.506 9.36163C257.605 9.36163 257.697 9.36163 257.796 9.36163C257.857 9.36163 257.722 9.34278 257.827 9.36791C257.876 9.38048 257.931 9.39304 257.981 9.40561C258.03 9.41818 258.079 9.43702 258.129 9.45587C258.055 9.42446 258.129 9.45587 258.159 9.47472C258.246 9.5187 258.326 9.57525 258.412 9.62551C258.548 9.70719 258.351 9.56268 258.468 9.66321C258.505 9.70091 258.548 9.73232 258.585 9.77002C258.616 9.80144 258.646 9.83285 258.677 9.87055C258.702 9.89568 258.751 9.96479 258.702 9.90196C258.764 9.98993 258.813 10.0842 258.868 10.1784C258.924 10.2852 258.856 10.1156 258.893 10.2412C258.911 10.2915 258.924 10.3418 258.942 10.3983C259.022 10.6999 259.343 10.8821 259.639 10.8004C259.935 10.7188 260.113 10.392 260.033 10.0905C259.737 8.98465 258.646 8.13016 257.512 8.20556C256.39 8.28095 255.349 9.1857 255.195 10.3418C255.158 10.6371 255.262 10.9764 255.589 11.0518C255.854 11.1146 256.242 10.9701 256.286 10.6496" fill="#1D1D1D"/>
<path d="M247.964 14.8907C249.203 16.7756 251.256 18.1138 253.524 18.1327C255.651 18.1515 257.765 16.9264 258.726 14.9723C259.053 14.3126 258.079 13.7283 257.753 14.388C256.964 15.9965 255.281 16.9955 253.524 16.9766C251.675 16.9641 249.955 15.8457 248.944 14.3064C248.544 13.6906 247.564 14.2687 247.97 14.8907" fill="#1D1D1D"/>
<path d="M283.74 25C276.978 25 271.474 19.3956 271.474 12.5031C271.474 5.61071 276.978 0 283.74 0C290.502 0 296 5.60442 296 12.4969C296 19.3893 290.502 24.9937 283.74 24.9937V25ZM283.74 0.628299C277.317 0.628299 272.09 5.95627 272.09 12.4969C272.09 19.0374 277.317 24.3654 283.74 24.3654C290.163 24.3654 295.384 19.0374 295.384 12.4969C295.384 5.95627 290.157 0.628299 283.74 0.628299Z" fill="black"/>
<path d="M278.334 10.6559C278.346 10.5491 278.371 10.4423 278.402 10.3418C278.402 10.3292 278.451 10.1973 278.427 10.2601C278.408 10.3104 278.464 10.1784 278.476 10.1596C278.519 10.0716 278.574 9.98993 278.63 9.90825C278.574 9.98364 278.661 9.87683 278.673 9.85798C278.704 9.82657 278.735 9.79515 278.766 9.76374C278.796 9.73232 278.833 9.70091 278.864 9.66949C278.957 9.58153 278.821 9.69463 278.92 9.62551C279.006 9.56897 279.098 9.51242 279.191 9.46216C279.283 9.41189 279.166 9.46216 279.228 9.44959C279.271 9.43702 279.308 9.41818 279.351 9.40561C279.4 9.39304 279.456 9.38048 279.505 9.36791C279.659 9.3365 279.407 9.36791 279.567 9.36163C279.665 9.36163 279.758 9.36163 279.857 9.36163C279.918 9.36163 279.783 9.34278 279.887 9.36791C279.937 9.38048 279.992 9.39304 280.041 9.40561C280.091 9.41818 280.14 9.43702 280.189 9.45587C280.115 9.42446 280.189 9.45587 280.22 9.47472C280.307 9.5187 280.387 9.57525 280.473 9.62551C280.609 9.70719 280.411 9.56268 280.528 9.66321C280.565 9.70091 280.609 9.73232 280.646 9.77002C280.676 9.80144 280.707 9.83285 280.738 9.87055C280.763 9.89568 280.812 9.96479 280.763 9.90196C280.824 9.98993 280.874 10.0842 280.929 10.1784C280.985 10.2852 280.917 10.1156 280.954 10.2412C280.972 10.2915 280.985 10.3418 281.003 10.3983C281.083 10.6999 281.404 10.8821 281.7 10.8004C281.995 10.7188 282.174 10.392 282.094 10.0905C281.798 8.98465 280.707 8.13016 279.573 8.20556C278.451 8.28095 277.409 9.1857 277.255 10.3418C277.218 10.6371 277.323 10.9764 277.65 11.0518C277.915 11.1146 278.303 10.9701 278.346 10.6496" fill="black"/>
<path d="M286.471 10.6559C286.483 10.5491 286.508 10.4423 286.538 10.3418C286.538 10.3292 286.588 10.1973 286.563 10.2601C286.544 10.3104 286.6 10.1784 286.612 10.1596C286.655 10.0716 286.711 9.98993 286.766 9.90825C286.711 9.98364 286.797 9.87683 286.81 9.85798C286.84 9.82657 286.871 9.79515 286.902 9.76374C286.933 9.73232 286.97 9.70091 287.001 9.66949C287.093 9.58153 286.957 9.69463 287.056 9.62551C287.142 9.56897 287.235 9.51242 287.327 9.46216C287.42 9.41189 287.303 9.46216 287.364 9.44959C287.407 9.43702 287.444 9.41818 287.488 9.40561C287.537 9.39304 287.592 9.38048 287.642 9.36791C287.796 9.3365 287.543 9.36791 287.703 9.36163C287.802 9.36163 287.894 9.36163 287.993 9.36163C288.055 9.36163 287.919 9.34278 288.024 9.36791C288.073 9.38048 288.129 9.39304 288.178 9.40561C288.227 9.41818 288.277 9.43702 288.326 9.45587C288.252 9.42446 288.326 9.45587 288.357 9.47472C288.443 9.5187 288.523 9.57525 288.609 9.62551C288.745 9.70719 288.548 9.56268 288.665 9.66321C288.702 9.70091 288.745 9.73232 288.782 9.77002C288.813 9.80144 288.844 9.83285 288.874 9.87055C288.899 9.89568 288.948 9.96479 288.899 9.90196C288.961 9.98993 289.01 10.0842 289.066 10.1784C289.121 10.2852 289.053 10.1156 289.09 10.2412C289.109 10.2915 289.121 10.3418 289.14 10.3983C289.22 10.6999 289.54 10.8821 289.836 10.8004C290.132 10.7188 290.311 10.392 290.231 10.0905C289.935 8.98465 288.844 8.13016 287.709 8.20556C286.588 8.28095 285.546 9.1857 285.392 10.3418C285.355 10.6371 285.46 10.9764 285.786 11.0518C286.051 11.1146 286.44 10.9701 286.483 10.6496" fill="black"/>
<path d="M278.161 14.8907C279.4 16.7756 281.453 18.1138 283.721 18.1327C285.848 18.1515 287.962 16.9264 288.924 14.9723C289.25 14.3126 288.277 13.7283 287.95 14.388C287.161 15.9965 285.478 16.9955 283.721 16.9766C281.872 16.9641 280.152 15.8457 279.142 14.3064C278.741 13.6906 277.761 14.2687 278.168 14.8907" fill="black"/>
</svg>
