<svg width="379" height="70" viewBox="0 0 379 70" fill="none" xmlns="http://www.w3.org/2000/svg">
<mask id="path-1-outside-1_0_524" maskUnits="userSpaceOnUse" x="0" y="0" width="379" height="70" fill="black">
<rect fill="white" width="379" height="70"/>
<path d="M27.2344 27.3721V2.98242H43.1865V66H27.2344V42.9727H18.4893V66H2.58105V2.98242H18.4893V27.3721H27.2344ZM70.3887 42.1377V51.3223H91.0869V66H54.2607V2.98242H90.5156V17.6602H70.3887V28.9102H88.5381V42.1377H70.3887ZM116.004 25.79L122.464 2.98242H137.933L123.914 46.4004V66H107.786V45.7412L93.8555 2.98242H109.236L115.696 25.79H116.004ZM158.411 17.6602V2.98242H197.566V17.6602H186.009V66H169.925V17.6602H158.411ZM220.506 42.1377V51.3223H241.204V66H204.378V2.98242H240.633V17.6602H220.506V28.9102H238.655V42.1377H220.506ZM257.552 2.98242H277.811L291.478 66H275.262L273.768 56.5518H261.683L260.145 66H243.973L257.552 2.98242ZM263.836 43.6758H271.57L267.879 22.0986H267.439L263.836 43.6758ZM322.679 33.7881L332.391 2.98242H348.958V66H333.313V39.5449H332.918L324.48 66H320.613L312.22 39.5449H311.868V66H296.224V2.98242H312.791L322.503 33.7881H322.679ZM372.732 45.917H361.57L359.153 2.98242H375.237L372.732 45.917ZM367.151 49.6084C369.612 49.6084 371.707 50.4727 373.436 52.2012C375.193 53.9004 376.072 55.9512 376.072 58.3535C376.072 60.8145 375.179 62.9385 373.392 64.7256C371.634 66.4834 369.554 67.3623 367.151 67.3623C364.749 67.3623 362.669 66.4834 360.911 64.7256C359.183 62.9385 358.318 60.8145 358.318 58.3535C358.318 55.9512 359.183 53.9004 360.911 52.2012C362.669 50.4727 364.749 49.6084 367.151 49.6084Z"/>
</mask>
<path d="M27.2344 27.3721V29.8721H29.7344V27.3721H27.2344ZM27.2344 2.98242V0.482422H24.7344V2.98242H27.2344ZM43.1865 2.98242H45.6865V0.482422H43.1865V2.98242ZM43.1865 66V68.5H45.6865V66H43.1865ZM27.2344 66H24.7344V68.5H27.2344V66ZM27.2344 42.9727H29.7344V40.4727H27.2344V42.9727ZM18.4893 42.9727V40.4727H15.9893V42.9727H18.4893ZM18.4893 66V68.5H20.9893V66H18.4893ZM2.58105 66H0.0810547V68.5H2.58105V66ZM2.58105 2.98242V0.482422H0.0810547V2.98242H2.58105ZM18.4893 2.98242H20.9893V0.482422H18.4893V2.98242ZM18.4893 27.3721H15.9893V29.8721H18.4893V27.3721ZM27.2344 27.3721H29.7344V2.98242H27.2344H24.7344V27.3721H27.2344ZM27.2344 2.98242V5.48242H43.1865V2.98242V0.482422H27.2344V2.98242ZM43.1865 2.98242H40.6865V66H43.1865H45.6865V2.98242H43.1865ZM43.1865 66V63.5H27.2344V66V68.5H43.1865V66ZM27.2344 66H29.7344V42.9727H27.2344H24.7344V66H27.2344ZM27.2344 42.9727V40.4727H18.4893V42.9727V45.4727H27.2344V42.9727ZM18.4893 42.9727H15.9893V66H18.4893H20.9893V42.9727H18.4893ZM18.4893 66V63.5H2.58105V66V68.5H18.4893V66ZM2.58105 66H5.08105V2.98242H2.58105H0.0810547V66H2.58105ZM2.58105 2.98242V5.48242H18.4893V2.98242V0.482422H2.58105V2.98242ZM18.4893 2.98242H15.9893V27.3721H18.4893H20.9893V2.98242H18.4893ZM18.4893 27.3721V29.8721H27.2344V27.3721V24.8721H18.4893V27.3721ZM70.3887 42.1377V39.6377H67.8887V42.1377H70.3887ZM70.3887 51.3223H67.8887V53.8223H70.3887V51.3223ZM91.0869 51.3223H93.5869V48.8223H91.0869V51.3223ZM91.0869 66V68.5H93.5869V66H91.0869ZM54.2607 66H51.7607V68.5H54.2607V66ZM54.2607 2.98242V0.482422H51.7607V2.98242H54.2607ZM90.5156 2.98242H93.0156V0.482422H90.5156V2.98242ZM90.5156 17.6602V20.1602H93.0156V17.6602H90.5156ZM70.3887 17.6602V15.1602H67.8887V17.6602H70.3887ZM70.3887 28.9102H67.8887V31.4102H70.3887V28.9102ZM88.5381 28.9102H91.0381V26.4102H88.5381V28.9102ZM88.5381 42.1377V44.6377H91.0381V42.1377H88.5381ZM70.3887 42.1377H67.8887V51.3223H70.3887H72.8887V42.1377H70.3887ZM70.3887 51.3223V53.8223H91.0869V51.3223V48.8223H70.3887V51.3223ZM91.0869 51.3223H88.5869V66H91.0869H93.5869V51.3223H91.0869ZM91.0869 66V63.5H54.2607V66V68.5H91.0869V66ZM54.2607 66H56.7607V2.98242H54.2607H51.7607V66H54.2607ZM54.2607 2.98242V5.48242H90.5156V2.98242V0.482422H54.2607V2.98242ZM90.5156 2.98242H88.0156V17.6602H90.5156H93.0156V2.98242H90.5156ZM90.5156 17.6602V15.1602H70.3887V17.6602V20.1602H90.5156V17.6602ZM70.3887 17.6602H67.8887V28.9102H70.3887H72.8887V17.6602H70.3887ZM70.3887 28.9102V31.4102H88.5381V28.9102V26.4102H70.3887V28.9102ZM88.5381 28.9102H86.0381V42.1377H88.5381H91.0381V28.9102H88.5381ZM88.5381 42.1377V39.6377H70.3887V42.1377V44.6377H88.5381V42.1377ZM116.004 25.79V28.29H117.894L118.409 26.4713L116.004 25.79ZM122.464 2.98242V0.482422H120.574L120.058 2.30113L122.464 2.98242ZM137.933 2.98242L140.312 3.75056L141.367 0.482422H137.933V2.98242ZM123.914 46.4004L121.535 45.6323L121.414 46.0068V46.4004H123.914ZM123.914 66V68.5H126.414V66H123.914ZM107.786 66H105.286V68.5H107.786V66ZM107.786 45.7412H110.286V45.3442L110.163 44.9668L107.786 45.7412ZM93.8555 2.98242V0.482422H90.4116L91.4784 3.75685L93.8555 2.98242ZM109.236 2.98242L111.642 2.30113L111.127 0.482422H109.236V2.98242ZM115.696 25.79L113.291 26.4713L113.806 28.29H115.696V25.79ZM116.004 25.79L118.409 26.4713L124.869 3.66371L122.464 2.98242L120.058 2.30113L113.599 25.1087L116.004 25.79ZM122.464 2.98242V5.48242H137.933V2.98242V0.482422H122.464V2.98242ZM137.933 2.98242L135.554 2.21428L121.535 45.6323L123.914 46.4004L126.293 47.1685L140.312 3.75056L137.933 2.98242ZM123.914 46.4004H121.414V66H123.914H126.414V46.4004H123.914ZM123.914 66V63.5H107.786V66V68.5H123.914V66ZM107.786 66H110.286V45.7412H107.786H105.286V66H107.786ZM107.786 45.7412L110.163 44.9668L96.2325 2.20799L93.8555 2.98242L91.4784 3.75685L105.409 46.5156L107.786 45.7412ZM93.8555 2.98242V5.48242H109.236V2.98242V0.482422H93.8555V2.98242ZM109.236 2.98242L106.831 3.66371L113.291 26.4713L115.696 25.79L118.102 25.1087L111.642 2.30113L109.236 2.98242ZM115.696 25.79V28.29H116.004V25.79V23.29H115.696V25.79ZM158.411 17.6602H155.911V20.1602H158.411V17.6602ZM158.411 2.98242V0.482422H155.911V2.98242H158.411ZM197.566 2.98242H200.066V0.482422H197.566V2.98242ZM197.566 17.6602V20.1602H200.066V17.6602H197.566ZM186.009 17.6602V15.1602H183.509V17.6602H186.009ZM186.009 66V68.5H188.509V66H186.009ZM169.925 66H167.425V68.5H169.925V66ZM169.925 17.6602H172.425V15.1602H169.925V17.6602ZM158.411 17.6602H160.911V2.98242H158.411H155.911V17.6602H158.411ZM158.411 2.98242V5.48242H197.566V2.98242V0.482422H158.411V2.98242ZM197.566 2.98242H195.066V17.6602H197.566H200.066V2.98242H197.566ZM197.566 17.6602V15.1602H186.009V17.6602V20.1602H197.566V17.6602ZM186.009 17.6602H183.509V66H186.009H188.509V17.6602H186.009ZM186.009 66V63.5H169.925V66V68.5H186.009V66ZM169.925 66H172.425V17.6602H169.925H167.425V66H169.925ZM169.925 17.6602V15.1602H158.411V17.6602V20.1602H169.925V17.6602ZM220.506 42.1377V39.6377H218.006V42.1377H220.506ZM220.506 51.3223H218.006V53.8223H220.506V51.3223ZM241.204 51.3223H243.704V48.8223H241.204V51.3223ZM241.204 66V68.5H243.704V66H241.204ZM204.378 66H201.878V68.5H204.378V66ZM204.378 2.98242V0.482422H201.878V2.98242H204.378ZM240.633 2.98242H243.133V0.482422H240.633V2.98242ZM240.633 17.6602V20.1602H243.133V17.6602H240.633ZM220.506 17.6602V15.1602H218.006V17.6602H220.506ZM220.506 28.9102H218.006V31.4102H220.506V28.9102ZM238.655 28.9102H241.155V26.4102H238.655V28.9102ZM238.655 42.1377V44.6377H241.155V42.1377H238.655ZM220.506 42.1377H218.006V51.3223H220.506H223.006V42.1377H220.506ZM220.506 51.3223V53.8223H241.204V51.3223V48.8223H220.506V51.3223ZM241.204 51.3223H238.704V66H241.204H243.704V51.3223H241.204ZM241.204 66V63.5H204.378V66V68.5H241.204V66ZM204.378 66H206.878V2.98242H204.378H201.878V66H204.378ZM204.378 2.98242V5.48242H240.633V2.98242V0.482422H204.378V2.98242ZM240.633 2.98242H238.133V17.6602H240.633H243.133V2.98242H240.633ZM240.633 17.6602V15.1602H220.506V17.6602V20.1602H240.633V17.6602ZM220.506 17.6602H218.006V28.9102H220.506H223.006V17.6602H220.506ZM220.506 28.9102V31.4102H238.655V28.9102V26.4102H220.506V28.9102ZM238.655 28.9102H236.155V42.1377H238.655H241.155V28.9102H238.655ZM238.655 42.1377V39.6377H220.506V42.1377V44.6377H238.655V42.1377ZM257.552 2.98242V0.482422H255.533L255.108 2.45581L257.552 2.98242ZM277.811 2.98242L280.254 2.45255L279.826 0.482422H277.811V2.98242ZM291.478 66V68.5H294.578L293.921 65.4701L291.478 66ZM275.262 66L272.792 66.3905L273.126 68.5H275.262V66ZM273.768 56.5518L276.237 56.1613L275.903 54.0518H273.768V56.5518ZM261.683 56.5518V54.0518H259.557L259.215 56.1501L261.683 56.5518ZM260.145 66V68.5H262.27L262.612 66.4017L260.145 66ZM243.973 66L241.529 65.4734L240.877 68.5H243.973V66ZM263.836 43.6758L261.37 43.264L260.884 46.1758H263.836V43.6758ZM271.57 43.6758V46.1758H274.534L274.035 43.2542L271.57 43.6758ZM267.879 22.0986L270.343 21.6771L269.988 19.5986H267.879V22.0986ZM267.439 22.0986V19.5986H265.322L264.974 21.6868L267.439 22.0986ZM257.552 2.98242V5.48242H277.811V2.98242V0.482422H257.552V2.98242ZM277.811 2.98242L275.367 3.51229L289.034 66.5299L291.478 66L293.921 65.4701L280.254 2.45255L277.811 2.98242ZM291.478 66V63.5H275.262V66V68.5H291.478V66ZM275.262 66L277.731 65.6095L276.237 56.1613L273.768 56.5518L271.298 56.9423L272.792 66.3905L275.262 66ZM273.768 56.5518V54.0518H261.683V56.5518V59.0518H273.768V56.5518ZM261.683 56.5518L259.215 56.1501L257.677 65.5983L260.145 66L262.612 66.4017L264.15 56.9534L261.683 56.5518ZM260.145 66V63.5H243.973V66V68.5H260.145V66ZM243.973 66L246.417 66.5266L259.996 3.50904L257.552 2.98242L255.108 2.45581L241.529 65.4734L243.973 66ZM263.836 43.6758V46.1758H271.57V43.6758V41.1758H263.836V43.6758ZM271.57 43.6758L274.035 43.2542L270.343 21.6771L267.879 22.0986L265.415 22.5202L269.106 44.0974L271.57 43.6758ZM267.879 22.0986V19.5986H267.439V22.0986V24.5986H267.879V22.0986ZM267.439 22.0986L264.974 21.6868L261.37 43.264L263.836 43.6758L266.302 44.0876L269.905 22.5104L267.439 22.0986ZM322.679 33.7881V36.2881H324.512L325.063 34.5398L322.679 33.7881ZM332.391 2.98242V0.482422H330.557L330.006 2.23073L332.391 2.98242ZM348.958 2.98242H351.458V0.482422H348.958V2.98242ZM348.958 66V68.5H351.458V66H348.958ZM333.313 66H330.813V68.5H333.313V66ZM333.313 39.5449H335.813V37.0449H333.313V39.5449ZM332.918 39.5449V37.0449H331.091L330.536 38.7853L332.918 39.5449ZM324.48 66V68.5H326.307L326.862 66.7596L324.48 66ZM320.613 66L318.23 66.7561L318.784 68.5H320.613V66ZM312.22 39.5449L314.603 38.7889L314.049 37.0449H312.22V39.5449ZM311.868 39.5449V37.0449H309.368V39.5449H311.868ZM311.868 66V68.5H314.368V66H311.868ZM296.224 66H293.724V68.5H296.224V66ZM296.224 2.98242V0.482422H293.724V2.98242H296.224ZM312.791 2.98242L315.175 2.23073L314.624 0.482422H312.791V2.98242ZM322.503 33.7881L320.119 34.5398L320.67 36.2881H322.503V33.7881ZM322.679 33.7881L325.063 34.5398L334.775 3.73411L332.391 2.98242L330.006 2.23073L320.294 33.0364L322.679 33.7881ZM332.391 2.98242V5.48242H348.958V2.98242V0.482422H332.391V2.98242ZM348.958 2.98242H346.458V66H348.958H351.458V2.98242H348.958ZM348.958 66V63.5H333.313V66V68.5H348.958V66ZM333.313 66H335.813V39.5449H333.313H330.813V66H333.313ZM333.313 39.5449V37.0449H332.918V39.5449V42.0449H333.313V39.5449ZM332.918 39.5449L330.536 38.7853L322.099 65.2404L324.48 66L326.862 66.7596L335.3 40.3046L332.918 39.5449ZM324.48 66V63.5H320.613V66V68.5H324.48V66ZM320.613 66L322.996 65.2439L314.603 38.7889L312.22 39.5449L309.837 40.301L318.23 66.7561L320.613 66ZM312.22 39.5449V37.0449H311.868V39.5449V42.0449H312.22V39.5449ZM311.868 39.5449H309.368V66H311.868H314.368V39.5449H311.868ZM311.868 66V63.5H296.224V66V68.5H311.868V66ZM296.224 66H298.724V2.98242H296.224H293.724V66H296.224ZM296.224 2.98242V5.48242H312.791V2.98242V0.482422H296.224V2.98242ZM312.791 2.98242L310.407 3.73411L320.119 34.5398L322.503 33.7881L324.887 33.0364L315.175 2.23073L312.791 2.98242ZM322.503 33.7881V36.2881H322.679V33.7881V31.2881H322.503V33.7881ZM372.732 45.917V48.417H375.091L375.228 46.0626L372.732 45.917ZM361.57 45.917L359.074 46.0575L359.207 48.417H361.57V45.917ZM359.153 2.98242V0.482422H356.509L356.657 3.12294L359.153 2.98242ZM375.237 2.98242L377.733 3.12803L377.887 0.482422H375.237V2.98242ZM373.436 52.2012L371.668 53.9689L371.683 53.9839L371.698 53.9986L373.436 52.2012ZM360.911 64.7256L359.114 66.4636L359.129 66.4786L359.143 66.4934L360.911 64.7256ZM360.911 52.2012L362.664 53.984L362.664 53.9837L360.911 52.2012ZM372.732 45.917V43.417H361.57V45.917V48.417H372.732V45.917ZM361.57 45.917L364.066 45.7765L361.649 2.84191L359.153 2.98242L356.657 3.12294L359.074 46.0575L361.57 45.917ZM359.153 2.98242V5.48242H375.237V2.98242V0.482422H359.153V2.98242ZM375.237 2.98242L372.742 2.83681L370.237 45.7714L372.732 45.917L375.228 46.0626L377.733 3.12803L375.237 2.98242ZM367.151 49.6084V52.1084C368.954 52.1084 370.412 52.7128 371.668 53.9689L373.436 52.2012L375.203 50.4334C373.002 48.2325 370.27 47.1084 367.151 47.1084V49.6084ZM373.436 52.2012L371.698 53.9986C372.978 55.2362 373.572 56.6423 373.572 58.3535H376.072H378.572C378.572 55.26 377.408 52.5646 375.173 50.4037L373.436 52.2012ZM376.072 58.3535H373.572C373.572 60.1316 372.956 61.6254 371.624 62.9578L373.392 64.7256L375.159 66.4934C377.401 64.2516 378.572 61.4973 378.572 58.3535H376.072ZM373.392 64.7256L371.624 62.9578C370.317 64.265 368.865 64.8623 367.151 64.8623V67.3623V69.8623C370.242 69.8623 372.951 68.7018 375.159 66.4934L373.392 64.7256ZM367.151 67.3623V64.8623C365.437 64.8623 363.986 64.265 362.679 62.9578L360.911 64.7256L359.143 66.4934C361.352 68.7018 364.061 69.8623 367.151 69.8623V67.3623ZM360.911 64.7256L362.708 62.9875C361.425 61.6613 360.818 60.1584 360.818 58.3535H358.318H355.818C355.818 61.4705 356.94 64.2157 359.114 66.4636L360.911 64.7256ZM358.318 58.3535H360.818C360.818 56.6284 361.409 55.2179 362.664 53.984L360.911 52.2012L359.159 50.4184C356.957 52.5828 355.818 55.274 355.818 58.3535H358.318ZM360.911 52.2012L362.664 53.9837C363.968 52.7015 365.424 52.1084 367.151 52.1084V49.6084V47.1084C364.074 47.1084 361.37 48.2438 359.158 50.4186L360.911 52.2012Z" fill="black" mask="url(#path-1-outside-1_0_524)"/>
</svg>
