<svg width="1729" height="1106" viewBox="0 0 1729 1106" fill="none" xmlns="http://www.w3.org/2000/svg">
<g clip-path="url(#clip0_11_33)">
<rect width="1729" height="1106" fill="white"/>
<path d="M1729 0H0V1106H1729V0Z" fill="#1A1A1A"/>
<path d="M1598.13 330.322L1498.57 375.169V334.88L1553.05 310.551L1498.57 288.25V247.707L1598.13 291.289V330.313V330.322Z" fill="#FFFF7A"/>
<path d="M1493.9 330.322L1394.34 375.169V334.88L1448.82 310.551L1394.34 288.25V247.707L1493.9 291.289V330.313V330.322Z" fill="#FFFF7A"/>
<path d="M1659.7 237.826L1632.73 249.982V239.065L1647.49 232.469L1632.73 226.425V215.44L1659.7 227.248V237.826Z" stroke="white" stroke-width="0.8" stroke-miterlimit="10"/>
<path d="M1631.46 237.826L1604.49 249.982V239.065L1619.25 232.469L1604.49 226.425V215.44L1631.46 227.248V237.826Z" stroke="white" stroke-width="0.8" stroke-miterlimit="10"/>
<path d="M1613.86 375.365L1586.88 387.521V376.604L1601.65 370.008L1586.88 363.964V352.979L1613.86 364.788V375.365Z" stroke="white" stroke-width="0.8" stroke-miterlimit="10"/>
<path d="M1581.52 371.273L1554.54 383.43V372.513L1569.31 365.917L1554.54 359.873V348.888L1581.52 360.696V371.273Z" stroke="white" stroke-width="0.8" stroke-miterlimit="10"/>
<path d="M1373.07 218.046L1384.64 186L1385.77 220.058L1406.66 193.173L1397.23 225.907L1425.39 206.807L1406.33 235.024L1438.99 225.576L1412.17 246.501L1446.15 247.639L1414.17 259.235L1446.15 270.831L1412.17 271.96L1438.99 292.894L1406.33 283.446L1425.39 311.663L1397.23 292.563L1406.66 325.297L1385.77 298.412L1384.64 332.47L1373.07 300.424L1361.5 332.47L1360.37 298.412L1339.49 325.297L1348.92 292.563L1320.76 311.663L1339.82 283.446L1307.16 292.894L1333.98 271.96L1300 270.831L1331.98 259.235L1300 247.639L1333.98 246.501L1307.16 225.576L1339.82 235.024L1320.76 206.807L1348.92 225.907L1339.49 193.173L1360.37 220.058L1361.5 186L1373.07 218.046Z" stroke="white" stroke-width="0.88" stroke-miterlimit="10"/>
<path d="M1975.09 1216.66H1616.24L1268.2 867.5H1627.05L1975.09 1216.66Z" stroke="white" stroke-miterlimit="10"/>
<path d="M75.89 786.16H-282.96L-631 437H-272.15L75.89 786.16Z" stroke="white" stroke-miterlimit="10"/>
<path d="M195.89 1024.16H-162.96L-511 675H-152.15L21.87 849.58L195.89 1024.16Z" stroke="white" stroke-miterlimit="10"/>
</g>
<defs>
<clipPath id="clip0_11_33">
<rect width="1729" height="1106" fill="white"/>
</clipPath>
</defs>
</svg>
