<svg width="349" height="68" viewBox="0 0 349 68" fill="none" xmlns="http://www.w3.org/2000/svg">
<mask id="path-1-outside-1_0_126" maskUnits="userSpaceOnUse" x="0" y="0" width="349" height="68" fill="black">
<rect fill="white" width="349" height="68"/>
<path d="M28.668 27.3906V2.38281H41.8594V64H28.668V40.2383H15.9922V64H2.80078V2.38281H15.9922V27.3906H28.668ZM66.7812 39.5508V51.7539H88.6953V64H53.418V2.38281H88.1797V14.6289H66.7812V28.5508H86.2461V39.5508H66.7812ZM113.531 26.5312L121.781 2.38281H134.715L120.105 43.7617V64H106.742V43.2461L92.1328 2.38281H104.98L113.23 26.5312H113.531ZM136.176 14.6289V2.38281H173.902V14.6289H161.785V64H148.293V14.6289H136.176ZM194.656 39.5508V51.7539H216.57V64H181.293V2.38281H216.055V14.6289H194.656V28.5508H214.121V39.5508H194.656ZM234.445 2.38281H251.246L265.77 64H252.191L250.258 53.5156H235.477L233.543 64H220.008L234.445 2.38281ZM237.625 42.7734H248.152L243.039 18.0664H242.695L237.625 42.7734ZM296.621 37.1445L307.793 2.38281H321.629V64H308.566V33.0195H308.223L298.211 64H294.773L284.719 33.0195H284.375V64H271.355V2.38281H285.277L296.363 37.1445H296.621ZM344.059 45.6094H334.648L332.629 2.38281H346.078L344.059 45.6094ZM334.004 52.2695C335.551 50.7513 337.341 49.9922 339.375 49.9922C341.438 49.9922 343.214 50.7513 344.703 52.2695C346.221 53.7591 346.98 55.5352 346.98 57.5977C346.98 59.6315 346.221 61.4219 344.703 62.9688C343.214 64.487 341.438 65.2461 339.375 65.2461C337.341 65.2461 335.551 64.487 334.004 62.9688C332.486 61.4219 331.727 59.6315 331.727 57.5977C331.727 55.5352 332.486 53.7591 334.004 52.2695Z"/>
</mask>
<path d="M28.668 27.3906V29.3906H30.668V27.3906H28.668ZM28.668 2.38281V0.382812H26.668V2.38281H28.668ZM41.8594 2.38281H43.8594V0.382812H41.8594V2.38281ZM41.8594 64V66H43.8594V64H41.8594ZM28.668 64H26.668V66H28.668V64ZM28.668 40.2383H30.668V38.2383H28.668V40.2383ZM15.9922 40.2383V38.2383H13.9922V40.2383H15.9922ZM15.9922 64V66H17.9922V64H15.9922ZM2.80078 64H0.800781V66H2.80078V64ZM2.80078 2.38281V0.382812H0.800781V2.38281H2.80078ZM15.9922 2.38281H17.9922V0.382812H15.9922V2.38281ZM15.9922 27.3906H13.9922V29.3906H15.9922V27.3906ZM28.668 27.3906H30.668V2.38281H28.668H26.668V27.3906H28.668ZM28.668 2.38281V4.38281H41.8594V2.38281V0.382812H28.668V2.38281ZM41.8594 2.38281H39.8594V64H41.8594H43.8594V2.38281H41.8594ZM41.8594 64V62H28.668V64V66H41.8594V64ZM28.668 64H30.668V40.2383H28.668H26.668V64H28.668ZM28.668 40.2383V38.2383H15.9922V40.2383V42.2383H28.668V40.2383ZM15.9922 40.2383H13.9922V64H15.9922H17.9922V40.2383H15.9922ZM15.9922 64V62H2.80078V64V66H15.9922V64ZM2.80078 64H4.80078V2.38281H2.80078H0.800781V64H2.80078ZM2.80078 2.38281V4.38281H15.9922V2.38281V0.382812H2.80078V2.38281ZM15.9922 2.38281H13.9922V27.3906H15.9922H17.9922V2.38281H15.9922ZM15.9922 27.3906V29.3906H28.668V27.3906V25.3906H15.9922V27.3906ZM66.7812 39.5508V37.5508H64.7812V39.5508H66.7812ZM66.7812 51.7539H64.7812V53.7539H66.7812V51.7539ZM88.6953 51.7539H90.6953V49.7539H88.6953V51.7539ZM88.6953 64V66H90.6953V64H88.6953ZM53.418 64H51.418V66H53.418V64ZM53.418 2.38281V0.382812H51.418V2.38281H53.418ZM88.1797 2.38281H90.1797V0.382812H88.1797V2.38281ZM88.1797 14.6289V16.6289H90.1797V14.6289H88.1797ZM66.7812 14.6289V12.6289H64.7812V14.6289H66.7812ZM66.7812 28.5508H64.7812V30.5508H66.7812V28.5508ZM86.2461 28.5508H88.2461V26.5508H86.2461V28.5508ZM86.2461 39.5508V41.5508H88.2461V39.5508H86.2461ZM66.7812 39.5508H64.7812V51.7539H66.7812H68.7812V39.5508H66.7812ZM66.7812 51.7539V53.7539H88.6953V51.7539V49.7539H66.7812V51.7539ZM88.6953 51.7539H86.6953V64H88.6953H90.6953V51.7539H88.6953ZM88.6953 64V62H53.418V64V66H88.6953V64ZM53.418 64H55.418V2.38281H53.418H51.418V64H53.418ZM53.418 2.38281V4.38281H88.1797V2.38281V0.382812H53.418V2.38281ZM88.1797 2.38281H86.1797V14.6289H88.1797H90.1797V2.38281H88.1797ZM88.1797 14.6289V12.6289H66.7812V14.6289V16.6289H88.1797V14.6289ZM66.7812 14.6289H64.7812V28.5508H66.7812H68.7812V14.6289H66.7812ZM66.7812 28.5508V30.5508H86.2461V28.5508V26.5508H66.7812V28.5508ZM86.2461 28.5508H84.2461V39.5508H86.2461H88.2461V28.5508H86.2461ZM86.2461 39.5508V37.5508H66.7812V39.5508V41.5508H86.2461V39.5508ZM113.531 26.5312V28.5312H114.961L115.424 27.1778L113.531 26.5312ZM121.781 2.38281V0.382812H120.351L119.889 1.73623L121.781 2.38281ZM134.715 2.38281L136.601 3.04866L137.542 0.382812H134.715V2.38281ZM120.105 43.7617L118.22 43.0959L118.105 43.419V43.7617H120.105ZM120.105 64V66H122.105V64H120.105ZM106.742 64H104.742V66H106.742V64ZM106.742 43.2461H108.742V42.8993L108.625 42.5728L106.742 43.2461ZM92.1328 2.38281V0.382812H89.2938L90.2495 3.05611L92.1328 2.38281ZM104.98 2.38281L106.873 1.73623L106.411 0.382812H104.98V2.38281ZM113.23 26.5312L111.338 27.1778L111.8 28.5312H113.23V26.5312ZM113.531 26.5312L115.424 27.1778L123.674 3.02939L121.781 2.38281L119.889 1.73623L111.639 25.8847L113.531 26.5312ZM121.781 2.38281V4.38281H134.715V2.38281V0.382812H121.781V2.38281ZM134.715 2.38281L132.829 1.71697L118.22 43.0959L120.105 43.7617L121.991 44.4276L136.601 3.04866L134.715 2.38281ZM120.105 43.7617H118.105V64H120.105H122.105V43.7617H120.105ZM120.105 64V62H106.742V64V66H120.105V64ZM106.742 64H108.742V43.2461H106.742H104.742V64H106.742ZM106.742 43.2461L108.625 42.5728L94.0161 1.70951L92.1328 2.38281L90.2495 3.05611L104.859 43.9194L106.742 43.2461ZM92.1328 2.38281V4.38281H104.98V2.38281V0.382812H92.1328V2.38281ZM104.98 2.38281L103.088 3.02939L111.338 27.1778L113.23 26.5312L115.123 25.8847L106.873 1.73623L104.98 2.38281ZM113.23 26.5312V28.5312H113.531V26.5312V24.5312H113.23V26.5312ZM136.176 14.6289H134.176V16.6289H136.176V14.6289ZM136.176 2.38281V0.382812H134.176V2.38281H136.176ZM173.902 2.38281H175.902V0.382812H173.902V2.38281ZM173.902 14.6289V16.6289H175.902V14.6289H173.902ZM161.785 14.6289V12.6289H159.785V14.6289H161.785ZM161.785 64V66H163.785V64H161.785ZM148.293 64H146.293V66H148.293V64ZM148.293 14.6289H150.293V12.6289H148.293V14.6289ZM136.176 14.6289H138.176V2.38281H136.176H134.176V14.6289H136.176ZM136.176 2.38281V4.38281H173.902V2.38281V0.382812H136.176V2.38281ZM173.902 2.38281H171.902V14.6289H173.902H175.902V2.38281H173.902ZM173.902 14.6289V12.6289H161.785V14.6289V16.6289H173.902V14.6289ZM161.785 14.6289H159.785V64H161.785H163.785V14.6289H161.785ZM161.785 64V62H148.293V64V66H161.785V64ZM148.293 64H150.293V14.6289H148.293H146.293V64H148.293ZM148.293 14.6289V12.6289H136.176V14.6289V16.6289H148.293V14.6289ZM194.656 39.5508V37.5508H192.656V39.5508H194.656ZM194.656 51.7539H192.656V53.7539H194.656V51.7539ZM216.57 51.7539H218.57V49.7539H216.57V51.7539ZM216.57 64V66H218.57V64H216.57ZM181.293 64H179.293V66H181.293V64ZM181.293 2.38281V0.382812H179.293V2.38281H181.293ZM216.055 2.38281H218.055V0.382812H216.055V2.38281ZM216.055 14.6289V16.6289H218.055V14.6289H216.055ZM194.656 14.6289V12.6289H192.656V14.6289H194.656ZM194.656 28.5508H192.656V30.5508H194.656V28.5508ZM214.121 28.5508H216.121V26.5508H214.121V28.5508ZM214.121 39.5508V41.5508H216.121V39.5508H214.121ZM194.656 39.5508H192.656V51.7539H194.656H196.656V39.5508H194.656ZM194.656 51.7539V53.7539H216.57V51.7539V49.7539H194.656V51.7539ZM216.57 51.7539H214.57V64H216.57H218.57V51.7539H216.57ZM216.57 64V62H181.293V64V66H216.57V64ZM181.293 64H183.293V2.38281H181.293H179.293V64H181.293ZM181.293 2.38281V4.38281H216.055V2.38281V0.382812H181.293V2.38281ZM216.055 2.38281H214.055V14.6289H216.055H218.055V2.38281H216.055ZM216.055 14.6289V12.6289H194.656V14.6289V16.6289H216.055V14.6289ZM194.656 14.6289H192.656V28.5508H194.656H196.656V14.6289H194.656ZM194.656 28.5508V30.5508H214.121V28.5508V26.5508H194.656V28.5508ZM214.121 28.5508H212.121V39.5508H214.121H216.121V28.5508H214.121ZM214.121 39.5508V37.5508H194.656V39.5508V41.5508H214.121V39.5508ZM234.445 2.38281V0.382812H232.86L232.498 1.92655L234.445 2.38281ZM251.246 2.38281L253.193 1.92398L252.829 0.382812H251.246V2.38281ZM265.77 64V66H268.296L267.716 63.5412L265.77 64ZM252.191 64L250.225 64.3627L250.527 66H252.191V64ZM250.258 53.5156L252.225 53.1529L251.923 51.5156H250.258V53.5156ZM235.477 53.5156V51.5156H233.812L233.51 53.1529L235.477 53.5156ZM233.543 64V66H235.208L235.51 64.3627L233.543 64ZM220.008 64L218.061 63.5437L217.485 66H220.008V64ZM237.625 42.7734L235.666 42.3714L235.173 44.7734H237.625V42.7734ZM248.152 42.7734V44.7734H250.609L250.111 42.3681L248.152 42.7734ZM243.039 18.0664L244.998 17.6611L244.668 16.0664H243.039V18.0664ZM242.695 18.0664V16.0664H241.064L240.736 17.6644L242.695 18.0664ZM234.445 2.38281V4.38281H251.246V2.38281V0.382812H234.445V2.38281ZM251.246 2.38281L249.299 2.84165L263.823 64.4588L265.77 64L267.716 63.5412L253.193 1.92398L251.246 2.38281ZM265.77 64V62H252.191V64V66H265.77V64ZM252.191 64L254.158 63.6373L252.225 53.1529L250.258 53.5156L248.291 53.8784L250.225 64.3627L252.191 64ZM250.258 53.5156V51.5156H235.477V53.5156V55.5156H250.258V53.5156ZM235.477 53.5156L233.51 53.1529L231.576 63.6373L233.543 64L235.51 64.3627L237.443 53.8784L235.477 53.5156ZM233.543 64V62H220.008V64V66H233.543V64ZM220.008 64L221.955 64.4563L236.393 2.83907L234.445 2.38281L232.498 1.92655L218.061 63.5437L220.008 64ZM237.625 42.7734V44.7734H248.152V42.7734V40.7734H237.625V42.7734ZM248.152 42.7734L250.111 42.3681L244.998 17.6611L243.039 18.0664L241.081 18.4717L246.194 43.1788L248.152 42.7734ZM243.039 18.0664V16.0664H242.695V18.0664V20.0664H243.039V18.0664ZM242.695 18.0664L240.736 17.6644L235.666 42.3714L237.625 42.7734L239.584 43.1755L244.654 18.4685L242.695 18.0664ZM296.621 37.1445V39.1445H298.079L298.525 37.7565L296.621 37.1445ZM307.793 2.38281V0.382812H306.335L305.889 1.77087L307.793 2.38281ZM321.629 2.38281H323.629V0.382812H321.629V2.38281ZM321.629 64V66H323.629V64H321.629ZM308.566 64H306.566V66H308.566V64ZM308.566 33.0195H310.566V31.0195H308.566V33.0195ZM308.223 33.0195V31.0195H306.767L306.32 32.4045L308.223 33.0195ZM298.211 64V66H299.666L300.114 64.615L298.211 64ZM294.773 64L292.871 64.6174L293.32 66H294.773V64ZM284.719 33.0195L286.621 32.4021L286.172 31.0195H284.719V33.0195ZM284.375 33.0195V31.0195H282.375V33.0195H284.375ZM284.375 64V66H286.375V64H284.375ZM271.355 64H269.355V66H271.355V64ZM271.355 2.38281V0.382812H269.355V2.38281H271.355ZM285.277 2.38281L287.183 1.77514L286.739 0.382812H285.277V2.38281ZM296.363 37.1445L294.458 37.7522L294.902 39.1445H296.363V37.1445ZM296.621 37.1445L298.525 37.7565L309.697 2.99475L307.793 2.38281L305.889 1.77087L294.717 36.5326L296.621 37.1445ZM307.793 2.38281V4.38281H321.629V2.38281V0.382812H307.793V2.38281ZM321.629 2.38281H319.629V64H321.629H323.629V2.38281H321.629ZM321.629 64V62H308.566V64V66H321.629V64ZM308.566 64H310.566V33.0195H308.566H306.566V64H308.566ZM308.566 33.0195V31.0195H308.223V33.0195V35.0195H308.566V33.0195ZM308.223 33.0195L306.32 32.4045L296.308 63.385L298.211 64L300.114 64.615L310.126 33.6345L308.223 33.0195ZM298.211 64V62H294.773V64V66H298.211V64ZM294.773 64L296.676 63.3826L286.621 32.4021L284.719 33.0195L282.816 33.6369L292.871 64.6174L294.773 64ZM284.719 33.0195V31.0195H284.375V33.0195V35.0195H284.719V33.0195ZM284.375 33.0195H282.375V64H284.375H286.375V33.0195H284.375ZM284.375 64V62H271.355V64V66H284.375V64ZM271.355 64H273.355V2.38281H271.355H269.355V64H271.355ZM271.355 2.38281V4.38281H285.277V2.38281V0.382812H271.355V2.38281ZM285.277 2.38281L283.372 2.99048L294.458 37.7522L296.363 37.1445L298.269 36.5369L287.183 1.77514L285.277 2.38281ZM296.363 37.1445V39.1445H296.621V37.1445V35.1445H296.363V37.1445ZM344.059 45.6094V47.6094H345.967L346.056 45.7027L344.059 45.6094ZM334.648 45.6094L332.651 45.7027L332.74 47.6094H334.648V45.6094ZM332.629 2.38281V0.382812H330.533L330.631 2.47615L332.629 2.38281ZM346.078 2.38281L348.076 2.47615L348.174 0.382812H346.078V2.38281ZM334.004 52.2695L335.405 53.6971L335.405 53.6969L334.004 52.2695ZM344.703 52.2695L343.276 53.6702L343.289 53.6838L343.302 53.6971L344.703 52.2695ZM344.703 62.9688L343.276 61.5678L343.276 61.5681L344.703 62.9688ZM334.004 62.9688L332.577 64.3697L332.59 64.383L332.603 64.3961L334.004 62.9688ZM344.059 45.6094V43.6094H334.648V45.6094V47.6094H344.059V45.6094ZM334.648 45.6094L336.646 45.516L334.627 2.28947L332.629 2.38281L330.631 2.47615L332.651 45.7027L334.648 45.6094ZM332.629 2.38281V4.38281H346.078V2.38281V0.382812H332.629V2.38281ZM346.078 2.38281L344.08 2.28947L342.061 45.516L344.059 45.6094L346.056 45.7027L348.076 2.47615L346.078 2.38281ZM334.004 52.2695L335.405 53.6969C336.605 52.519 337.902 51.9922 339.375 51.9922V49.9922V47.9922C336.78 47.9922 334.497 48.9836 332.603 50.8422L334.004 52.2695ZM339.375 49.9922V51.9922C340.882 51.9922 342.149 52.5219 343.276 53.6702L344.703 52.2695L346.131 50.8689C344.278 48.9807 341.993 47.9922 339.375 47.9922V49.9922ZM344.703 52.2695L343.302 53.6971C344.451 54.8238 344.98 56.0907 344.98 57.5977H346.98H348.98C348.98 54.9796 347.992 52.6944 346.104 50.8419L344.703 52.2695ZM346.98 57.5977H344.98C344.98 59.0707 344.454 60.3677 343.276 61.5678L344.703 62.9688L346.13 64.3697C347.989 62.476 348.98 60.1923 348.98 57.5977H346.98ZM344.703 62.9688L343.276 61.5681C342.149 62.7164 340.882 63.2461 339.375 63.2461V65.2461V67.2461C341.993 67.2461 344.278 66.2576 346.131 64.3694L344.703 62.9688ZM339.375 65.2461V63.2461C337.902 63.2461 336.605 62.7192 335.405 61.5414L334.004 62.9688L332.603 64.3961C334.497 66.2547 336.78 67.2461 339.375 67.2461V65.2461ZM334.004 62.9688L335.431 61.5678C334.253 60.3677 333.727 59.0707 333.727 57.5977H331.727H329.727C329.727 60.1923 330.718 62.476 332.577 64.3697L334.004 62.9688ZM331.727 57.5977H333.727C333.727 56.0907 334.256 54.8238 335.405 53.6971L334.004 52.2695L332.603 50.8419C330.715 52.6944 329.727 54.9796 329.727 57.5977H331.727Z" fill="white" mask="url(#path-1-outside-1_0_126)"/>
</svg>
