<svg width="209" height="57" viewBox="0 0 209 57" fill="none" xmlns="http://www.w3.org/2000/svg">
<path d="M80.3535 17.6816V3.58984H89.5703V40H80.3535V26.6953H75.3008V40H66.1094V3.58984H75.3008V17.6816H80.3535ZM98.2285 7.34766C100.598 4.33464 103.848 2.82812 107.979 2.82812C112.109 2.82812 115.359 4.33464 117.729 7.34766C120.098 10.3607 121.283 15.1764 121.283 21.7949C121.283 28.4473 120.098 33.2799 117.729 36.293C115.359 39.2891 112.109 40.7871 107.979 40.7871C103.848 40.7871 100.598 39.2891 98.2285 36.293C95.8587 33.2799 94.6738 28.4473 94.6738 21.7949C94.6738 15.1764 95.8587 10.3607 98.2285 7.34766ZM105.033 30.0469C105.71 31.5534 106.692 32.3066 107.979 32.3066C109.265 32.3066 110.247 31.5534 110.924 30.0469C111.601 28.5404 111.939 25.7897 111.939 21.7949C111.939 17.8509 111.601 15.1172 110.924 13.5938C110.247 12.0703 109.265 11.3086 107.979 11.3086C106.692 11.3086 105.71 12.0703 105.033 13.5938C104.356 15.1172 104.018 17.8509 104.018 21.7949C104.018 25.7897 104.356 28.5404 105.033 30.0469ZM133.775 16.7676L137.508 3.58984H146.445L138.346 28.6758V40H129.027V28.2949L120.979 3.58984H129.865L133.598 16.7676H133.775Z" fill="black"/>
<path d="M50.3902 49.6372C57.1035 49.8141 63.8148 49.9464 70.5249 50.0521C77.2641 50.1564 84.0052 50.2249 90.741 50.258C97.4478 50.2925 104.156 50.2823 110.859 50.2456C117.563 50.2088 124.268 50.1363 130.968 50.0195C137.668 49.9027 144.37 49.7678 151.07 49.5885C151.919 49.5667 152.768 49.5449 153.617 49.5141C154.203 49.4957 154.101 47.3063 153.513 47.2892C141.427 46.9887 129.364 47.3116 117.323 48.0437C105.279 48.776 93.2573 49.9264 81.2452 51.2726C74.484 52.0256 67.7299 52.8496 60.9729 53.6916C60.3926 53.7633 60.4929 55.9884 61.0769 55.9165C73.0783 54.4192 85.0867 52.9929 97.1088 51.8603C109.131 50.7277 121.17 49.8886 133.23 49.557C140.018 49.3736 146.813 49.3415 153.613 49.5143L153.509 47.2894C146.809 47.4776 140.111 47.63 133.408 47.747C126.676 47.8654 119.942 47.9481 113.209 47.9951C106.477 48.0421 99.7982 48.051 93.0923 48.0343C86.386 48.0087 79.6784 47.9565 72.9651 47.8599C66.2519 47.7633 59.5483 47.6395 52.8357 47.4804C51.9847 47.4578 51.1336 47.4351 50.2862 47.4122C49.6981 47.3951 49.802 49.6201 50.3902 49.6372Z" fill="#FFFF5F"/>
</svg>
