<svg width="414" height="172" viewBox="0 0 414 172" fill="none" xmlns="http://www.w3.org/2000/svg">
<mask id="path-1-outside-1_13_948" maskUnits="userSpaceOnUse" x="1" y="1" width="344" height="96" fill="black">
<rect fill="white" x="1" y="1" width="344" height="96"/>
<path d="M12.543 3.58984V31.5195H23.1309V40H3.22461V3.58984H12.543ZM27.6758 7.34766C30.0456 4.33464 33.2956 2.82812 37.4258 2.82812C41.556 2.82812 44.806 4.33464 47.1758 7.34766C49.5456 10.3607 50.7305 15.1764 50.7305 21.7949C50.7305 28.4473 49.5456 33.2799 47.1758 36.293C44.806 39.2891 41.556 40.7871 37.4258 40.7871C33.2956 40.7871 30.0456 39.2891 27.6758 36.293C25.306 33.2799 24.1211 28.4473 24.1211 21.7949C24.1211 15.1764 25.306 10.3607 27.6758 7.34766ZM34.4805 30.0469C35.1576 31.5534 36.1393 32.3066 37.4258 32.3066C38.7122 32.3066 39.694 31.5534 40.3711 30.0469C41.0482 28.5404 41.3867 25.7897 41.3867 21.7949C41.3867 17.8509 41.0482 15.1172 40.3711 13.5938C39.694 12.0703 38.7122 11.3086 37.4258 11.3086C36.1393 11.3086 35.1576 12.0703 34.4805 13.5938C33.8034 15.1172 33.4648 17.8509 33.4648 21.7949C33.4648 25.7897 33.8034 28.5404 34.4805 30.0469ZM69.0371 18.5195C72.1855 20.4323 74.3184 22.252 75.4355 23.9785C76.5527 25.6882 77.1113 27.7025 77.1113 30.0215C77.1113 33.2884 76.0195 35.9036 73.8359 37.8672C71.6523 39.8138 68.6647 40.7871 64.873 40.7871C60.4382 40.7871 56.7988 39.7461 53.9551 37.6641L55.7832 29.6914C58.5931 31.7057 61.2591 32.7129 63.7812 32.7129C66.4557 32.7129 67.793 31.8158 67.793 30.0215C67.793 29.2936 67.4714 28.5658 66.8281 27.8379C66.1849 27.11 64.9154 26.1875 63.0195 25.0703C60.0404 23.3776 57.8991 21.6003 56.5957 19.7383C55.2923 17.8594 54.6406 15.6673 54.6406 13.1621C54.6406 10.0475 55.7409 7.55078 57.9414 5.67188C60.1419 3.77604 63.0618 2.82812 66.7012 2.82812C70.3405 2.82812 73.4805 3.48828 76.1211 4.80859L75.0801 12.9082C74.3184 12.4173 73.2435 11.9434 71.8555 11.4863C70.4674 11.0124 69.1979 10.7754 68.0469 10.7754C65.4062 10.7754 64.0944 11.6556 64.1113 13.416C64.1113 14.2454 64.5176 15.0579 65.3301 15.8535C66.1426 16.6322 67.3783 17.5208 69.0371 18.5195ZM99.8105 3.58984H111.516L119.412 40H110.043L109.18 34.541H102.197L101.309 40H91.9648L99.8105 3.58984ZM103.441 27.1016H107.91L105.777 14.6348H105.523L103.441 27.1016ZM131.625 3.58984V31.5195H142.213V40H122.307V3.58984H131.625ZM161.611 21.3887L167.223 3.58984H176.795V40H167.756V24.7148H167.527L162.652 40H160.418L155.568 24.7148H155.365V40H146.326V3.58984H155.898L161.51 21.3887H161.611ZM196.498 29.6914V3.58984H205.816V29.2344C205.816 32.7383 204.75 35.5397 202.617 37.6387C200.484 39.7376 197.751 40.7871 194.416 40.7871C191.098 40.7871 188.382 39.7376 186.266 37.6387C184.15 35.5397 183.092 32.7383 183.092 29.2344V3.58984H192.41V29.6914C192.41 30.4531 192.596 31.0794 192.969 31.5703C193.358 32.0612 193.84 32.3066 194.416 32.3066C195.008 32.3066 195.499 32.0612 195.889 31.5703C196.295 31.0794 196.498 30.4531 196.498 29.6914ZM221.559 26.2129V31.5195H233.518V40H212.24V3.58984H233.188V12.0703H221.559V18.5703H232.045V26.2129H221.559ZM257.512 24.1309C259.272 24.6895 260.406 26.3568 260.914 29.1328L262.869 40H253.094L251.393 29.9199C251.054 28.2272 250.064 27.3724 248.422 27.3555H247.965V40H238.646V3.58984H251.393C254.541 3.58984 257.105 4.59701 259.086 6.61133C261.066 8.62565 262.057 11.3509 262.057 14.7871C262.057 18.8835 260.542 21.9134 257.512 23.877V24.1309ZM249.311 20.043C250.343 20.043 251.189 19.6706 251.85 18.9258C252.51 18.181 252.84 17.2331 252.84 16.082C252.84 14.8971 252.51 13.9323 251.85 13.1875C251.189 12.4427 250.343 12.0703 249.311 12.0703H247.965V20.043H249.311ZM277.367 31.3672V31.5195H288.031V40H265.916V33.8555L276.58 12.2734V12.0703H266.297V3.58984H287.65V10.3691L277.367 31.3672ZM293.871 7.34766C296.241 4.33464 299.491 2.82812 303.621 2.82812C307.751 2.82812 311.001 4.33464 313.371 7.34766C315.741 10.3607 316.926 15.1764 316.926 21.7949C316.926 28.4473 315.741 33.2799 313.371 36.293C311.001 39.2891 307.751 40.7871 303.621 40.7871C299.491 40.7871 296.241 39.2891 293.871 36.293C291.501 33.2799 290.316 28.4473 290.316 21.7949C290.316 15.1764 291.501 10.3607 293.871 7.34766ZM300.676 30.0469C301.353 31.5534 302.335 32.3066 303.621 32.3066C304.908 32.3066 305.889 31.5534 306.566 30.0469C307.243 28.5404 307.582 25.7897 307.582 21.7949C307.582 17.8509 307.243 15.1172 306.566 13.5938C305.889 12.0703 304.908 11.3086 303.621 11.3086C302.335 11.3086 301.353 12.0703 300.676 13.5938C299.999 15.1172 299.66 17.8509 299.66 21.7949C299.66 25.7897 299.999 28.5404 300.676 30.0469ZM335.232 18.5195C338.381 20.4323 340.514 22.252 341.631 23.9785C342.748 25.6882 343.307 27.7025 343.307 30.0215C343.307 33.2884 342.215 35.9036 340.031 37.8672C337.848 39.8138 334.86 40.7871 331.068 40.7871C326.633 40.7871 322.994 39.7461 320.15 37.6641L321.979 29.6914C324.788 31.7057 327.454 32.7129 329.977 32.7129C332.651 32.7129 333.988 31.8158 333.988 30.0215C333.988 29.2936 333.667 28.5658 333.023 27.8379C332.38 27.11 331.111 26.1875 329.215 25.0703C326.236 23.3776 324.094 21.6003 322.791 19.7383C321.488 17.8594 320.836 15.6673 320.836 13.1621C320.836 10.0475 321.936 7.55078 324.137 5.67188C326.337 3.77604 329.257 2.82812 332.896 2.82812C336.536 2.82812 339.676 3.48828 342.316 4.80859L341.275 12.9082C340.514 12.4173 339.439 11.9434 338.051 11.4863C336.663 11.0124 335.393 10.7754 334.242 10.7754C331.602 10.7754 330.29 11.6556 330.307 13.416C330.307 14.2454 330.713 15.0579 331.525 15.8535C332.338 16.6322 333.574 17.5208 335.232 18.5195ZM12.543 57.5898V85.5195H23.1309V94H3.22461V57.5898H12.543ZM27.6758 61.3477C30.0456 58.3346 33.2956 56.8281 37.4258 56.8281C41.556 56.8281 44.806 58.3346 47.1758 61.3477C49.5456 64.3607 50.7305 69.1764 50.7305 75.7949C50.7305 82.4473 49.5456 87.2799 47.1758 90.293C44.806 93.2891 41.556 94.7871 37.4258 94.7871C33.2956 94.7871 30.0456 93.2891 27.6758 90.293C25.306 87.2799 24.1211 82.4473 24.1211 75.7949C24.1211 69.1764 25.306 64.3607 27.6758 61.3477ZM34.4805 84.0469C35.1576 85.5534 36.1393 86.3066 37.4258 86.3066C38.7122 86.3066 39.694 85.5534 40.3711 84.0469C41.0482 82.5404 41.3867 79.7897 41.3867 75.7949C41.3867 71.8509 41.0482 69.1172 40.3711 67.5938C39.694 66.0703 38.7122 65.3086 37.4258 65.3086C36.1393 65.3086 35.1576 66.0703 34.4805 67.5938C33.8034 69.1172 33.4648 71.8509 33.4648 75.7949C33.4648 79.7897 33.8034 82.5404 34.4805 84.0469ZM69.0371 72.5195C72.1855 74.4323 74.3184 76.252 75.4355 77.9785C76.5527 79.6882 77.1113 81.7025 77.1113 84.0215C77.1113 87.2884 76.0195 89.9036 73.8359 91.8672C71.6523 93.8138 68.6647 94.7871 64.873 94.7871C60.4382 94.7871 56.7988 93.7461 53.9551 91.6641L55.7832 83.6914C58.5931 85.7057 61.2591 86.7129 63.7812 86.7129C66.4557 86.7129 67.793 85.8158 67.793 84.0215C67.793 83.2936 67.4714 82.5658 66.8281 81.8379C66.1849 81.11 64.9154 80.1875 63.0195 79.0703C60.0404 77.3776 57.8991 75.6003 56.5957 73.7383C55.2923 71.8594 54.6406 69.6673 54.6406 67.1621C54.6406 64.0475 55.7409 61.5508 57.9414 59.6719C60.1419 57.776 63.0618 56.8281 66.7012 56.8281C70.3405 56.8281 73.4805 57.4883 76.1211 58.8086L75.0801 66.9082C74.3184 66.4173 73.2435 65.9434 71.8555 65.4863C70.4674 65.0124 69.1979 64.7754 68.0469 64.7754C65.4062 64.7754 64.0944 65.6556 64.1113 67.416C64.1113 68.2454 64.5176 69.0579 65.3301 69.8535C66.1426 70.6322 67.3783 71.5208 69.0371 72.5195ZM99.8105 57.5898H111.516L119.412 94H110.043L109.18 88.541H102.197L101.309 94H91.9648L99.8105 57.5898ZM103.441 81.1016H107.91L105.777 68.6348H105.523L103.441 81.1016ZM131.625 57.5898V85.5195H142.213V94H122.307V57.5898H131.625ZM161.611 75.3887L167.223 57.5898H176.795V94H167.756V78.7148H167.527L162.652 94H160.418L155.568 78.7148H155.365V94H146.326V57.5898H155.898L161.51 75.3887H161.611ZM196.498 83.6914V57.5898H205.816V83.2344C205.816 86.7383 204.75 89.5397 202.617 91.6387C200.484 93.7376 197.751 94.7871 194.416 94.7871C191.098 94.7871 188.382 93.7376 186.266 91.6387C184.15 89.5397 183.092 86.7383 183.092 83.2344V57.5898H192.41V83.6914C192.41 84.4531 192.596 85.0794 192.969 85.5703C193.358 86.0612 193.84 86.3066 194.416 86.3066C195.008 86.3066 195.499 86.0612 195.889 85.5703C196.295 85.0794 196.498 84.4531 196.498 83.6914ZM221.559 80.2129V85.5195H233.518V94H212.24V57.5898H233.188V66.0703H221.559V72.5703H232.045V80.2129H221.559ZM257.512 78.1309C259.272 78.6895 260.406 80.3568 260.914 83.1328L262.869 94H253.094L251.393 83.9199C251.054 82.2272 250.064 81.3724 248.422 81.3555H247.965V94H238.646V57.5898H251.393C254.541 57.5898 257.105 58.597 259.086 60.6113C261.066 62.6257 262.057 65.3509 262.057 68.7871C262.057 72.8835 260.542 75.9134 257.512 77.877V78.1309ZM249.311 74.043C250.343 74.043 251.189 73.6706 251.85 72.9258C252.51 72.181 252.84 71.2331 252.84 70.082C252.84 68.8971 252.51 67.9323 251.85 67.1875C251.189 66.4427 250.343 66.0703 249.311 66.0703H247.965V74.043H249.311ZM277.367 85.3672V85.5195H288.031V94H265.916V87.8555L276.58 66.2734V66.0703H266.297V57.5898H287.65V64.3691L277.367 85.3672ZM293.871 61.3477C296.241 58.3346 299.491 56.8281 303.621 56.8281C307.751 56.8281 311.001 58.3346 313.371 61.3477C315.741 64.3607 316.926 69.1764 316.926 75.7949C316.926 82.4473 315.741 87.2799 313.371 90.293C311.001 93.2891 307.751 94.7871 303.621 94.7871C299.491 94.7871 296.241 93.2891 293.871 90.293C291.501 87.2799 290.316 82.4473 290.316 75.7949C290.316 69.1764 291.501 64.3607 293.871 61.3477ZM300.676 84.0469C301.353 85.5534 302.335 86.3066 303.621 86.3066C304.908 86.3066 305.889 85.5534 306.566 84.0469C307.243 82.5404 307.582 79.7897 307.582 75.7949C307.582 71.8509 307.243 69.1172 306.566 67.5938C305.889 66.0703 304.908 65.3086 303.621 65.3086C302.335 65.3086 301.353 66.0703 300.676 67.5938C299.999 69.1172 299.66 71.8509 299.66 75.7949C299.66 79.7897 299.999 82.5404 300.676 84.0469ZM335.232 72.5195C338.381 74.4323 340.514 76.252 341.631 77.9785C342.748 79.6882 343.307 81.7025 343.307 84.0215C343.307 87.2884 342.215 89.9036 340.031 91.8672C337.848 93.8138 334.86 94.7871 331.068 94.7871C326.633 94.7871 322.994 93.7461 320.15 91.6641L321.979 83.6914C324.788 85.7057 327.454 86.7129 329.977 86.7129C332.651 86.7129 333.988 85.8158 333.988 84.0215C333.988 83.2936 333.667 82.5658 333.023 81.8379C332.38 81.11 331.111 80.1875 329.215 79.0703C326.236 77.3776 324.094 75.6003 322.791 73.7383C321.488 71.8594 320.836 69.6673 320.836 67.1621C320.836 64.0475 321.936 61.5508 324.137 59.6719C326.337 57.776 329.257 56.8281 332.896 56.8281C336.536 56.8281 339.676 57.4883 342.316 58.8086L341.275 66.9082C340.514 66.4173 339.439 65.9434 338.051 65.4863C336.663 65.0124 335.393 64.7754 334.242 64.7754C331.602 64.7754 330.29 65.6556 330.307 67.416C330.307 68.2454 330.713 69.0579 331.525 69.8535C332.338 70.6322 333.574 71.5208 335.232 72.5195Z"/>
</mask>
<path d="M12.543 3.58984H14.043V2.08984H12.543V3.58984ZM12.543 31.5195H11.043V33.0195H12.543V31.5195ZM23.1309 31.5195H24.6309V30.0195H23.1309V31.5195ZM23.1309 40V41.5H24.6309V40H23.1309ZM3.22461 40H1.72461V41.5H3.22461V40ZM3.22461 3.58984V2.08984H1.72461V3.58984H3.22461ZM11.043 3.58984V31.5195H14.043V3.58984H11.043ZM12.543 33.0195H23.1309V30.0195H12.543V33.0195ZM21.6309 31.5195V40H24.6309V31.5195H21.6309ZM23.1309 38.5H3.22461V41.5H23.1309V38.5ZM4.72461 40V3.58984H1.72461V40H4.72461ZM3.22461 5.08984H12.543V2.08984H3.22461V5.08984ZM47.1758 36.293L48.3523 37.2235L48.3548 37.2203L47.1758 36.293ZM27.6758 36.293L26.4968 37.2203L26.4993 37.2235L27.6758 36.293ZM28.8548 8.27497C30.9158 5.6546 33.7146 4.32812 37.4258 4.32812V1.32812C32.8766 1.32812 29.1754 3.01467 26.4968 6.42034L28.8548 8.27497ZM37.4258 4.32812C41.137 4.32812 43.9358 5.6546 45.9968 8.27497L48.3548 6.42034C45.6762 3.01467 41.975 1.32812 37.4258 1.32812V4.32812ZM45.9968 8.27497C48.0544 10.8911 49.2305 15.2925 49.2305 21.7949H52.2305C52.2305 15.0603 51.0367 9.83022 48.3548 6.42034L45.9968 8.27497ZM49.2305 21.7949C49.2305 28.3333 48.0536 32.7505 45.9968 35.3657L48.3548 37.2203C51.0375 33.8094 52.2305 28.5612 52.2305 21.7949H49.2305ZM45.9993 35.3624C43.9395 37.9666 41.1402 39.2871 37.4258 39.2871V42.2871C41.9718 42.2871 45.6725 40.6115 48.3523 37.2235L45.9993 35.3624ZM37.4258 39.2871C33.7114 39.2871 30.912 37.9666 28.8523 35.3624L26.4993 37.2235C29.1791 40.6115 32.8798 42.2871 37.4258 42.2871V39.2871ZM28.8548 35.3657C26.7979 32.7505 25.6211 28.3333 25.6211 21.7949H22.6211C22.6211 28.5612 23.8141 33.8094 26.4968 37.2203L28.8548 35.3657ZM25.6211 21.7949C25.6211 15.2925 26.7971 10.8911 28.8548 8.27497L26.4968 6.42034C23.8148 9.83022 22.6211 15.0603 22.6211 21.7949H25.6211ZM33.1123 30.6618C33.5199 31.5686 34.0688 32.3619 34.8115 32.9318C35.5753 33.5178 36.4664 33.8066 37.4258 33.8066V30.8066C37.0987 30.8066 36.8557 30.7189 36.6377 30.5516C36.3986 30.3682 36.1181 30.0316 35.8486 29.432L33.1123 30.6618ZM37.4258 33.8066C38.3851 33.8066 39.2763 33.5178 40.04 32.9318C40.7828 32.3619 41.3317 31.5686 41.7393 30.6618L39.0029 29.432C38.7334 30.0316 38.4529 30.3682 38.2139 30.5516C37.9959 30.7189 37.7529 30.8066 37.4258 30.8066V33.8066ZM41.7393 30.6618C42.5622 28.8308 42.8867 25.7829 42.8867 21.7949H39.8867C39.8867 25.7965 39.5342 28.2499 39.0029 29.432L41.7393 30.6618ZM42.8867 21.7949C42.8867 17.852 42.5609 14.8276 41.7418 12.9845L39.0004 14.203C39.5354 15.4068 39.8867 17.8499 39.8867 21.7949H42.8867ZM41.7418 12.9845C41.3357 12.0707 40.7884 11.2704 40.0464 10.6948C39.2827 10.1022 38.3893 9.80859 37.4258 9.80859V12.8086C37.7487 12.8086 37.9895 12.8959 38.2075 13.065C38.4473 13.2511 38.7295 13.5934 39.0004 14.203L41.7418 12.9845ZM37.4258 9.80859C36.4623 9.80859 35.5689 10.1022 34.8051 10.6948C34.0632 11.2704 33.5159 12.0707 33.1098 12.9845L35.8512 14.203C36.1221 13.5934 36.4042 13.2511 36.6441 13.065C36.8621 12.8959 37.1028 12.8086 37.4258 12.8086V9.80859ZM33.1098 12.9845C32.2906 14.8276 31.9648 17.852 31.9648 21.7949H34.9648C34.9648 17.8499 35.3162 15.4068 35.8512 14.203L33.1098 12.9845ZM31.9648 21.7949C31.9648 25.7829 32.2894 28.8308 33.1123 30.6618L35.8486 29.432C35.3174 28.2499 34.9648 25.7965 34.9648 21.7949H31.9648ZM69.0371 18.5195L69.8159 17.2376L69.8108 17.2345L69.0371 18.5195ZM75.4355 23.9785L74.1762 24.7934L74.1799 24.7991L75.4355 23.9785ZM73.8359 37.8672L74.8341 38.9869L74.8389 38.9826L73.8359 37.8672ZM53.9551 37.6641L52.493 37.3288L52.2724 38.2911L53.069 38.8744L53.9551 37.6641ZM55.7832 29.6914L56.6571 28.4723L54.825 27.1589L54.3211 29.3562L55.7832 29.6914ZM63.0195 25.0703L63.7811 23.778L63.7709 23.772L63.7605 23.7661L63.0195 25.0703ZM56.5957 19.7383L55.3632 20.5933L55.3669 20.5985L56.5957 19.7383ZM57.9414 5.67188L58.9154 6.81263L58.9205 6.80829L57.9414 5.67188ZM76.1211 4.80859L77.6089 4.99981L77.7446 3.94332L76.7919 3.46695L76.1211 4.80859ZM75.0801 12.9082L74.2675 14.1691L76.2649 15.4563L76.5678 13.0994L75.0801 12.9082ZM71.8555 11.4863L71.3708 12.9059L71.3785 12.9085L71.3863 12.9111L71.8555 11.4863ZM64.1113 13.416H65.6113V13.4088L65.6113 13.4016L64.1113 13.416ZM65.3301 15.8535L64.2806 16.9253L64.2864 16.9309L64.2922 16.9365L65.3301 15.8535ZM68.2583 19.8015C71.3432 21.6756 73.2439 23.3526 74.1762 24.7934L76.6949 23.1636C75.3928 21.1513 73.0279 19.1889 69.8159 17.2376L68.2583 19.8015ZM74.1799 24.7991C75.1168 26.2328 75.6113 27.9532 75.6113 30.0215H78.6113C78.6113 27.4517 77.9887 25.1435 76.6912 23.158L74.1799 24.7991ZM75.6113 30.0215C75.6113 32.9163 74.6626 35.1066 72.833 36.7518L74.8389 38.9826C77.3765 36.7007 78.6113 33.6605 78.6113 30.0215H75.6113ZM72.8378 36.7475C71.0023 38.3838 68.4084 39.2871 64.873 39.2871V42.2871C68.921 42.2871 72.3024 41.2438 74.8341 38.9869L72.8378 36.7475ZM64.873 39.2871C60.6737 39.2871 57.368 38.3038 54.8412 36.4538L53.069 38.8744C56.2296 41.1884 60.2026 42.2871 64.873 42.2871V39.2871ZM55.4171 37.9993L57.2453 30.0267L54.3211 29.3562L52.493 37.3288L55.4171 37.9993ZM54.9093 30.9105C57.8815 33.0412 60.8484 34.2129 63.7812 34.2129V31.2129C61.6698 31.2129 59.3047 30.3702 56.6571 28.4723L54.9093 30.9105ZM63.7812 34.2129C65.239 34.2129 66.5953 33.977 67.6257 33.2857C68.7623 32.5232 69.293 31.3515 69.293 30.0215H66.293C66.293 30.4857 66.155 30.6598 65.9544 30.7944C65.6475 31.0002 64.998 31.2129 63.7812 31.2129V34.2129ZM69.293 30.0215C69.293 28.8202 68.7554 27.7536 67.9521 26.8446L65.7041 28.8312C66.1873 29.3779 66.293 29.767 66.293 30.0215H69.293ZM67.9521 26.8446C67.1382 25.9236 65.685 24.8999 63.7811 23.778L62.258 26.3626C64.1458 27.4751 65.2316 28.2965 65.7041 28.8312L67.9521 26.8446ZM63.7605 23.7661C60.8855 22.1326 58.9521 20.4889 57.8246 18.8781L55.3669 20.5985C56.8461 22.7116 59.1953 24.6227 62.2785 26.3745L63.7605 23.7661ZM57.8282 18.8833C56.7156 17.2795 56.1406 15.3923 56.1406 13.1621H53.1406C53.1406 15.9423 53.869 18.4393 55.3632 20.5933L57.8282 18.8833ZM56.1406 13.1621C56.1406 10.4484 57.0766 8.38272 58.9154 6.81262L56.9674 4.53113C54.4052 6.71884 53.1406 9.64668 53.1406 13.1621H56.1406ZM58.9205 6.80829C60.7852 5.20178 63.3274 4.32812 66.7012 4.32812V1.32812C62.7963 1.32812 59.4987 2.3503 56.9623 4.53546L58.9205 6.80829ZM66.7012 4.32812C70.1608 4.32812 73.0608 4.95549 75.4503 6.15023L76.7919 3.46695C73.9002 2.02107 70.5202 1.32812 66.7012 1.32812V4.32812ZM74.6333 4.61738L73.5923 12.717L76.5678 13.0994L77.6089 4.99981L74.6333 4.61738ZM75.8926 11.6473C74.979 11.0586 73.7695 10.5373 72.3246 10.0616L71.3863 12.9111C72.7175 13.3494 73.6577 13.7761 74.2675 14.1691L75.8926 11.6473ZM72.3402 10.0668C70.8368 9.55346 69.4009 9.27539 68.0469 9.27539V12.2754C68.9949 12.2754 70.0981 12.4713 71.3708 12.9059L72.3402 10.0668ZM68.0469 9.27539C66.6084 9.27539 65.2657 9.50629 64.2468 10.1899C63.1179 10.9474 62.5987 12.1133 62.6114 13.4304L65.6113 13.4016C65.607 12.9583 65.7353 12.8039 65.9183 12.6811C66.2112 12.4846 66.8447 12.2754 68.0469 12.2754V9.27539ZM62.6113 13.416C62.6113 14.78 63.2897 15.955 64.2806 16.9253L66.3795 14.7817C65.7455 14.1609 65.6113 13.7109 65.6113 13.416H62.6113ZM64.2922 16.9365C65.2222 17.8278 66.567 18.7833 68.2634 19.8046L69.8108 17.2345C68.1895 16.2584 67.0629 15.4365 66.3679 14.7705L64.2922 16.9365ZM99.8105 3.58984V2.08984H98.5993L98.3442 3.27387L99.8105 3.58984ZM111.516 3.58984L112.982 3.27192L112.725 2.08984H111.516V3.58984ZM119.412 40V41.5H121.272L120.878 39.6821L119.412 40ZM110.043 40L108.561 40.2343L108.762 41.5H110.043V40ZM109.18 34.541L110.661 34.3067L110.461 33.041H109.18V34.541ZM102.197 34.541V33.041H100.922L100.717 34.3L102.197 34.541ZM101.309 40V41.5H102.584L102.789 40.241L101.309 40ZM91.9648 40L90.4985 39.684L90.1072 41.5H91.9648V40ZM103.441 27.1016L101.962 26.8545L101.67 28.6016H103.441V27.1016ZM107.91 27.1016V28.6016H109.689L109.389 26.8486L107.91 27.1016ZM105.777 14.6348L107.256 14.3818L107.043 13.1348H105.777V14.6348ZM105.523 14.6348V13.1348H104.253L104.044 14.3877L105.523 14.6348ZM99.8105 5.08984H111.516V2.08984H99.8105V5.08984ZM110.05 3.90777L117.946 40.3179L120.878 39.6821L112.982 3.27192L110.05 3.90777ZM119.412 38.5H110.043V41.5H119.412V38.5ZM111.525 39.7657L110.661 34.3067L107.698 34.7753L108.561 40.2343L111.525 39.7657ZM109.18 33.041H102.197V36.041H109.18V33.041ZM100.717 34.3L99.8281 39.759L102.789 40.241L103.678 34.782L100.717 34.3ZM101.309 38.5H91.9648V41.5H101.309V38.5ZM93.4312 40.316L101.277 3.90581L98.3442 3.27387L90.4985 39.684L93.4312 40.316ZM103.441 28.6016H107.91V25.6016H103.441V28.6016ZM109.389 26.8486L107.256 14.3818L104.299 14.8877L106.432 27.3545L109.389 26.8486ZM105.777 13.1348H105.523V16.1348H105.777V13.1348ZM104.044 14.3877L101.962 26.8545L104.921 27.3486L107.003 14.8819L104.044 14.3877ZM131.625 3.58984H133.125V2.08984H131.625V3.58984ZM131.625 31.5195H130.125V33.0195H131.625V31.5195ZM142.213 31.5195H143.713V30.0195H142.213V31.5195ZM142.213 40V41.5H143.713V40H142.213ZM122.307 40H120.807V41.5H122.307V40ZM122.307 3.58984V2.08984H120.807V3.58984H122.307ZM130.125 3.58984V31.5195H133.125V3.58984H130.125ZM131.625 33.0195H142.213V30.0195H131.625V33.0195ZM140.713 31.5195V40H143.713V31.5195H140.713ZM142.213 38.5H122.307V41.5H142.213V38.5ZM123.807 40V3.58984H120.807V40H123.807ZM122.307 5.08984H131.625V2.08984H122.307V5.08984ZM161.611 21.3887V22.8887H162.711L163.042 21.8397L161.611 21.3887ZM167.223 3.58984V2.08984H166.123L165.792 3.13883L167.223 3.58984ZM176.795 3.58984H178.295V2.08984H176.795V3.58984ZM176.795 40V41.5H178.295V40H176.795ZM167.756 40H166.256V41.5H167.756V40ZM167.756 24.7148H169.256V23.2148H167.756V24.7148ZM167.527 24.7148V23.2148H166.431L166.098 24.2591L167.527 24.7148ZM162.652 40V41.5H163.748L164.081 40.4558L162.652 40ZM160.418 40L158.988 40.4536L159.32 41.5H160.418V40ZM155.568 24.7148L156.998 24.2612L156.666 23.2148H155.568V24.7148ZM155.365 24.7148V23.2148H153.865V24.7148H155.365ZM155.365 40V41.5H156.865V40H155.365ZM146.326 40H144.826V41.5H146.326V40ZM146.326 3.58984V2.08984H144.826V3.58984H146.326ZM155.898 3.58984L157.329 3.13883L156.998 2.08984H155.898V3.58984ZM161.51 21.3887L160.079 21.8397L160.41 22.8887H161.51V21.3887ZM163.042 21.8397L168.653 4.04086L165.792 3.13883L160.181 20.9377L163.042 21.8397ZM167.223 5.08984H176.795V2.08984H167.223V5.08984ZM175.295 3.58984V40H178.295V3.58984H175.295ZM176.795 38.5H167.756V41.5H176.795V38.5ZM169.256 40V24.7148H166.256V40H169.256ZM167.756 23.2148H167.527V26.2148H167.756V23.2148ZM166.098 24.2591L161.223 39.5442L164.081 40.4558L168.956 25.1706L166.098 24.2591ZM162.652 38.5H160.418V41.5H162.652V38.5ZM161.848 39.5464L156.998 24.2612L154.139 25.1685L158.988 40.4536L161.848 39.5464ZM155.568 23.2148H155.365V26.2148H155.568V23.2148ZM153.865 24.7148V40H156.865V24.7148H153.865ZM155.365 38.5H146.326V41.5H155.365V38.5ZM147.826 40V3.58984H144.826V40H147.826ZM146.326 5.08984H155.898V2.08984H146.326V5.08984ZM154.468 4.04086L160.079 21.8397L162.94 20.9377L157.329 3.13883L154.468 4.04086ZM161.51 22.8887H161.611V19.8887H161.51V22.8887ZM196.498 3.58984V2.08984H194.998V3.58984H196.498ZM205.816 3.58984H207.316V2.08984H205.816V3.58984ZM183.092 3.58984V2.08984H181.592V3.58984H183.092ZM192.41 3.58984H193.91V2.08984H192.41V3.58984ZM192.969 31.5703L191.774 32.4769L191.783 32.4898L191.794 32.5024L192.969 31.5703ZM195.889 31.5703L194.733 30.614L194.723 30.626L194.713 30.6382L195.889 31.5703ZM197.998 29.6914V3.58984H194.998V29.6914H197.998ZM196.498 5.08984H205.816V2.08984H196.498V5.08984ZM204.316 3.58984V29.2344H207.316V3.58984H204.316ZM204.316 29.2344C204.316 32.4106 203.362 34.8007 201.565 36.5696L203.669 38.7078C206.138 36.2787 207.316 33.066 207.316 29.2344H204.316ZM201.565 36.5696C199.746 38.3597 197.406 39.2871 194.416 39.2871V42.2871C198.095 42.2871 201.223 41.1155 203.669 38.7078L201.565 36.5696ZM194.416 39.2871C191.445 39.2871 189.124 38.3613 187.322 36.5738L185.209 38.7036C187.639 41.1139 190.752 42.2871 194.416 42.2871V39.2871ZM187.322 36.5738C185.54 34.8057 184.592 32.4141 184.592 29.2344H181.592C181.592 33.0624 182.76 36.2738 185.209 38.7036L187.322 36.5738ZM184.592 29.2344V3.58984H181.592V29.2344H184.592ZM183.092 5.08984H192.41V2.08984H183.092V5.08984ZM190.91 3.58984V29.6914H193.91V3.58984H190.91ZM190.91 29.6914C190.91 30.7016 191.161 31.6686 191.774 32.4769L194.164 30.6637C194.032 30.4902 193.91 30.2046 193.91 29.6914H190.91ZM191.794 32.5024C192.438 33.3156 193.338 33.8066 194.416 33.8066V30.8066C194.349 30.8066 194.32 30.7944 194.303 30.7856C194.282 30.775 194.226 30.7412 194.144 30.6382L191.794 32.5024ZM194.416 33.8066C195.496 33.8066 196.409 33.3282 197.064 32.5024L194.713 30.6382C194.59 30.7942 194.521 30.8066 194.416 30.8066V33.8066ZM197.044 32.5267C197.715 31.7167 197.998 30.7311 197.998 29.6914H194.998C194.998 30.1751 194.875 30.4422 194.733 30.614L197.044 32.5267ZM221.559 26.2129V24.7129H220.059V26.2129H221.559ZM221.559 31.5195H220.059V33.0195H221.559V31.5195ZM233.518 31.5195H235.018V30.0195H233.518V31.5195ZM233.518 40V41.5H235.018V40H233.518ZM212.24 40H210.74V41.5H212.24V40ZM212.24 3.58984V2.08984H210.74V3.58984H212.24ZM233.188 3.58984H234.688V2.08984H233.188V3.58984ZM233.188 12.0703V13.5703H234.688V12.0703H233.188ZM221.559 12.0703V10.5703H220.059V12.0703H221.559ZM221.559 18.5703H220.059V20.0703H221.559V18.5703ZM232.045 18.5703H233.545V17.0703H232.045V18.5703ZM232.045 26.2129V27.7129H233.545V26.2129H232.045ZM220.059 26.2129V31.5195H223.059V26.2129H220.059ZM221.559 33.0195H233.518V30.0195H221.559V33.0195ZM232.018 31.5195V40H235.018V31.5195H232.018ZM233.518 38.5H212.24V41.5H233.518V38.5ZM213.74 40V3.58984H210.74V40H213.74ZM212.24 5.08984H233.188V2.08984H212.24V5.08984ZM231.688 3.58984V12.0703H234.688V3.58984H231.688ZM233.188 10.5703H221.559V13.5703H233.188V10.5703ZM220.059 12.0703V18.5703H223.059V12.0703H220.059ZM221.559 20.0703H232.045V17.0703H221.559V20.0703ZM230.545 18.5703V26.2129H233.545V18.5703H230.545ZM232.045 24.7129H221.559V27.7129H232.045V24.7129ZM257.512 24.1309H256.012V25.2286L257.058 25.5606L257.512 24.1309ZM260.914 29.1328L262.39 28.8672L262.39 28.8629L260.914 29.1328ZM262.869 40V41.5H264.663L264.345 39.7344L262.869 40ZM253.094 40L251.615 40.2496L251.826 41.5H253.094V40ZM251.393 29.9199L252.872 29.6703L252.868 29.648L252.863 29.6257L251.393 29.9199ZM248.422 27.3555L248.437 25.8555L248.43 25.8555H248.422V27.3555ZM247.965 27.3555V25.8555H246.465V27.3555H247.965ZM247.965 40V41.5H249.465V40H247.965ZM238.646 40H237.146V41.5H238.646V40ZM238.646 3.58984V2.08984H237.146V3.58984H238.646ZM257.512 23.877L256.696 22.6182L256.012 23.0616V23.877H257.512ZM247.965 12.0703V10.5703H246.465V12.0703H247.965ZM247.965 20.043H246.465V21.543H247.965V20.043ZM257.058 25.5606C258.041 25.8726 258.973 26.8568 259.439 29.4027L262.39 28.8629C261.84 25.8568 260.503 23.5063 257.965 22.7011L257.058 25.5606ZM259.438 29.3984L261.393 40.2656L264.345 39.7344L262.39 28.8672L259.438 29.3984ZM262.869 38.5H253.094V41.5H262.869V38.5ZM254.573 39.7504L252.872 29.6703L249.913 30.1695L251.615 40.2496L254.573 39.7504ZM252.863 29.6257C252.65 28.5569 252.194 27.5801 251.376 26.8738C250.55 26.1604 249.52 25.8667 248.437 25.8555L248.406 28.8554C248.966 28.8612 249.252 29.0034 249.416 29.1447C249.588 29.2933 249.797 29.5903 249.922 30.2141L252.863 29.6257ZM248.422 25.8555H247.965V28.8555H248.422V25.8555ZM246.465 27.3555V40H249.465V27.3555H246.465ZM247.965 38.5H238.646V41.5H247.965V38.5ZM240.146 40V3.58984H237.146V40H240.146ZM238.646 5.08984H251.393V2.08984H238.646V5.08984ZM251.393 5.08984C254.189 5.08984 256.351 5.96962 258.016 7.66296L260.156 5.55969C257.859 3.22439 254.893 2.08984 251.393 2.08984V5.08984ZM258.016 7.66296C259.663 9.33822 260.557 11.6538 260.557 14.7871H263.557C263.557 11.048 262.469 7.91308 260.156 5.55969L258.016 7.66296ZM260.557 14.7871C260.557 18.4554 259.236 20.9722 256.696 22.6182L258.327 25.1357C261.847 22.8546 263.557 19.3115 263.557 14.7871H260.557ZM256.012 23.877V24.1309H259.012V23.877H256.012ZM249.311 21.543C250.754 21.543 252.015 21.0002 252.972 19.9207L250.727 17.9308C250.364 18.341 249.932 18.543 249.311 18.543V21.543ZM252.972 19.9207C253.913 18.8591 254.34 17.5387 254.34 16.082H251.34C251.34 16.9275 251.106 17.5029 250.727 17.9308L252.972 19.9207ZM254.34 16.082C254.34 14.6041 253.92 13.2622 252.972 12.1925L250.727 14.1825C251.099 14.6024 251.34 15.1902 251.34 16.082H254.34ZM252.972 12.1925C252.015 11.1131 250.754 10.5703 249.311 10.5703V13.5703C249.932 13.5703 250.364 13.7723 250.727 14.1825L252.972 12.1925ZM249.311 10.5703H247.965V13.5703H249.311V10.5703ZM246.465 12.0703V20.043H249.465V12.0703H246.465ZM247.965 21.543H249.311V18.543H247.965V21.543ZM277.367 31.3672L276.02 30.7075L275.867 31.0196V31.3672H277.367ZM277.367 31.5195H275.867V33.0195H277.367V31.5195ZM288.031 31.5195H289.531V30.0195H288.031V31.5195ZM288.031 40V41.5H289.531V40H288.031ZM265.916 40H264.416V41.5H265.916V40ZM265.916 33.8555L264.571 33.191L264.416 33.5051V33.8555H265.916ZM276.58 12.2734L277.925 12.9379L278.08 12.6238V12.2734H276.58ZM276.58 12.0703H278.08V10.5703H276.58V12.0703ZM266.297 12.0703H264.797V13.5703H266.297V12.0703ZM266.297 3.58984V2.08984H264.797V3.58984H266.297ZM287.65 3.58984H289.15V2.08984H287.65V3.58984ZM287.65 10.3691L288.998 11.0289L289.15 10.7167V10.3691H287.65ZM275.867 31.3672V31.5195H278.867V31.3672H275.867ZM277.367 33.0195H288.031V30.0195H277.367V33.0195ZM286.531 31.5195V40H289.531V31.5195H286.531ZM288.031 38.5H265.916V41.5H288.031V38.5ZM267.416 40V33.8555H264.416V40H267.416ZM267.261 34.52L277.925 12.9379L275.235 11.609L264.571 33.191L267.261 34.52ZM278.08 12.2734V12.0703H275.08V12.2734H278.08ZM276.58 10.5703H266.297V13.5703H276.58V10.5703ZM267.797 12.0703V3.58984H264.797V12.0703H267.797ZM266.297 5.08984H287.65V2.08984H266.297V5.08984ZM286.15 3.58984V10.3691H289.15V3.58984H286.15ZM286.303 9.70942L276.02 30.7075L278.714 32.0269L288.998 11.0289L286.303 9.70942ZM313.371 36.293L314.548 37.2235L314.55 37.2203L313.371 36.293ZM293.871 36.293L292.692 37.2203L292.695 37.2235L293.871 36.293ZM295.05 8.27497C297.111 5.6546 299.91 4.32812 303.621 4.32812V1.32812C299.072 1.32812 295.371 3.01467 292.692 6.42034L295.05 8.27497ZM303.621 4.32812C307.332 4.32812 310.131 5.6546 312.192 8.27497L314.55 6.42034C311.871 3.01467 308.17 1.32812 303.621 1.32812V4.32812ZM312.192 8.27497C314.25 10.8911 315.426 15.2925 315.426 21.7949H318.426C318.426 15.0603 317.232 9.83022 314.55 6.42034L312.192 8.27497ZM315.426 21.7949C315.426 28.3333 314.249 32.7505 312.192 35.3657L314.55 37.2203C317.233 33.8094 318.426 28.5612 318.426 21.7949H315.426ZM312.195 35.3624C310.135 37.9666 307.335 39.2871 303.621 39.2871V42.2871C308.167 42.2871 311.868 40.6115 314.548 37.2235L312.195 35.3624ZM303.621 39.2871C299.907 39.2871 297.107 37.9666 295.048 35.3624L292.695 37.2235C295.374 40.6115 299.075 42.2871 303.621 42.2871V39.2871ZM295.05 35.3657C292.993 32.7505 291.816 28.3333 291.816 21.7949H288.816C288.816 28.5612 290.009 33.8094 292.692 37.2203L295.05 35.3657ZM291.816 21.7949C291.816 15.2925 292.992 10.8911 295.05 8.27497L292.692 6.42034C290.01 9.83022 288.816 15.0603 288.816 21.7949H291.816ZM299.308 30.6618C299.715 31.5686 300.264 32.3619 301.007 32.9318C301.771 33.5178 302.662 33.8066 303.621 33.8066V30.8066C303.294 30.8066 303.051 30.7189 302.833 30.5516C302.594 30.3682 302.313 30.0316 302.044 29.432L299.308 30.6618ZM303.621 33.8066C304.58 33.8066 305.472 33.5178 306.235 32.9318C306.978 32.3619 307.527 31.5686 307.935 30.6618L305.198 29.432C304.929 30.0316 304.648 30.3682 304.409 30.5516C304.191 30.7189 303.948 30.8066 303.621 30.8066V33.8066ZM307.935 30.6618C308.757 28.8308 309.082 25.7829 309.082 21.7949H306.082C306.082 25.7965 305.73 28.2499 305.198 29.432L307.935 30.6618ZM309.082 21.7949C309.082 17.852 308.756 14.8276 307.937 12.9845L305.196 14.203C305.731 15.4068 306.082 17.8499 306.082 21.7949H309.082ZM307.937 12.9845C307.531 12.0707 306.984 11.2704 306.242 10.6948C305.478 10.1022 304.585 9.80859 303.621 9.80859V12.8086C303.944 12.8086 304.185 12.8959 304.403 13.065C304.643 13.2511 304.925 13.5934 305.196 14.203L307.937 12.9845ZM303.621 9.80859C302.658 9.80859 301.764 10.1022 301 10.6948C300.259 11.2704 299.711 12.0707 299.305 12.9845L302.046 14.203C302.317 13.5934 302.6 13.2511 302.839 13.065C303.057 12.8959 303.298 12.8086 303.621 12.8086V9.80859ZM299.305 12.9845C298.486 14.8276 298.16 17.852 298.16 21.7949H301.16C301.16 17.8499 301.511 15.4068 302.046 14.203L299.305 12.9845ZM298.16 21.7949C298.16 25.7829 298.485 28.8308 299.308 30.6618L302.044 29.432C301.513 28.2499 301.16 25.7965 301.16 21.7949H298.16ZM335.232 18.5195L336.011 17.2376L336.006 17.2345L335.232 18.5195ZM341.631 23.9785L340.371 24.7934L340.375 24.7991L341.631 23.9785ZM340.031 37.8672L341.029 38.9869L341.034 38.9826L340.031 37.8672ZM320.15 37.6641L318.688 37.3288L318.468 38.2911L319.264 38.8744L320.15 37.6641ZM321.979 29.6914L322.852 28.4723L321.02 27.1589L320.516 29.3562L321.979 29.6914ZM329.215 25.0703L329.976 23.778L329.966 23.772L329.956 23.7661L329.215 25.0703ZM322.791 19.7383L321.559 20.5933L321.562 20.5985L322.791 19.7383ZM324.137 5.67188L325.111 6.81263L325.116 6.80829L324.137 5.67188ZM342.316 4.80859L343.804 4.99981L343.94 3.94332L342.987 3.46695L342.316 4.80859ZM341.275 12.9082L340.463 14.1691L342.46 15.4563L342.763 13.0994L341.275 12.9082ZM338.051 11.4863L337.566 12.9059L337.574 12.9085L337.582 12.9111L338.051 11.4863ZM330.307 13.416H331.807V13.4088L331.807 13.4016L330.307 13.416ZM331.525 15.8535L330.476 16.9253L330.482 16.9309L330.488 16.9365L331.525 15.8535ZM334.454 19.8015C337.538 21.6756 339.439 23.3526 340.372 24.7934L342.89 23.1636C341.588 21.1513 339.223 19.1889 336.011 17.2376L334.454 19.8015ZM340.375 24.7991C341.312 26.2328 341.807 27.9532 341.807 30.0215H344.807C344.807 27.4517 344.184 25.1435 342.887 23.158L340.375 24.7991ZM341.807 30.0215C341.807 32.9163 340.858 35.1066 339.028 36.7518L341.034 38.9826C343.572 36.7007 344.807 33.6605 344.807 30.0215H341.807ZM339.033 36.7475C337.198 38.3838 334.604 39.2871 331.068 39.2871V42.2871C335.116 42.2871 338.498 41.2438 341.029 38.9869L339.033 36.7475ZM331.068 39.2871C326.869 39.2871 323.563 38.3038 321.036 36.4538L319.264 38.8744C322.425 41.1884 326.398 42.2871 331.068 42.2871V39.2871ZM321.612 37.9993L323.441 30.0267L320.516 29.3562L318.688 37.3288L321.612 37.9993ZM321.105 30.9105C324.077 33.0412 327.044 34.2129 329.977 34.2129V31.2129C327.865 31.2129 325.5 30.3702 322.852 28.4723L321.105 30.9105ZM329.977 34.2129C331.434 34.2129 332.791 33.977 333.821 33.2857C334.958 32.5232 335.488 31.3515 335.488 30.0215H332.488C332.488 30.4857 332.35 30.6598 332.15 30.7944C331.843 31.0002 331.193 31.2129 329.977 31.2129V34.2129ZM335.488 30.0215C335.488 28.8202 334.951 27.7536 334.147 26.8446L331.899 28.8312C332.383 29.3779 332.488 29.767 332.488 30.0215H335.488ZM334.147 26.8446C333.334 25.9236 331.88 24.8999 329.976 23.778L328.453 26.3626C330.341 27.4751 331.427 28.2965 331.899 28.8312L334.147 26.8446ZM329.956 23.7661C327.081 22.1326 325.147 20.4889 324.02 18.8781L321.562 20.5985C323.041 22.7116 325.391 24.6227 328.474 26.3745L329.956 23.7661ZM324.024 18.8833C322.911 17.2795 322.336 15.3923 322.336 13.1621H319.336C319.336 15.9423 320.064 18.4393 321.559 20.5933L324.024 18.8833ZM322.336 13.1621C322.336 10.4484 323.272 8.38272 325.111 6.81262L323.163 4.53113C320.601 6.71884 319.336 9.64668 319.336 13.1621H322.336ZM325.116 6.80829C326.98 5.20178 329.523 4.32812 332.896 4.32812V1.32812C328.992 1.32812 325.694 2.3503 323.158 4.53546L325.116 6.80829ZM332.896 4.32812C336.356 4.32812 339.256 4.95549 341.646 6.15023L342.987 3.46695C340.095 2.02107 336.715 1.32812 332.896 1.32812V4.32812ZM340.829 4.61738L339.788 12.717L342.763 13.0994L343.804 4.99981L340.829 4.61738ZM342.088 11.6473C341.174 11.0586 339.965 10.5373 338.52 10.0616L337.582 12.9111C338.913 13.3494 339.853 13.7761 340.463 14.1691L342.088 11.6473ZM338.535 10.0668C337.032 9.55346 335.596 9.27539 334.242 9.27539V12.2754C335.19 12.2754 336.293 12.4713 337.566 12.9059L338.535 10.0668ZM334.242 9.27539C332.804 9.27539 331.461 9.50629 330.442 10.1899C329.313 10.9474 328.794 12.1133 328.807 13.4304L331.807 13.4016C331.802 12.9583 331.931 12.8039 332.114 12.6811C332.407 12.4846 333.04 12.2754 334.242 12.2754V9.27539ZM328.807 13.416C328.807 14.78 329.485 15.955 330.476 16.9253L332.575 14.7817C331.941 14.1609 331.807 13.7109 331.807 13.416H328.807ZM330.488 16.9365C331.418 17.8278 332.762 18.7833 334.459 19.8046L336.006 17.2345C334.385 16.2584 333.258 15.4365 332.563 14.7705L330.488 16.9365ZM12.543 57.5898H14.043V56.0898H12.543V57.5898ZM12.543 85.5195H11.043V87.0195H12.543V85.5195ZM23.1309 85.5195H24.6309V84.0195H23.1309V85.5195ZM23.1309 94V95.5H24.6309V94H23.1309ZM3.22461 94H1.72461V95.5H3.22461V94ZM3.22461 57.5898V56.0898H1.72461V57.5898H3.22461ZM11.043 57.5898V85.5195H14.043V57.5898H11.043ZM12.543 87.0195H23.1309V84.0195H12.543V87.0195ZM21.6309 85.5195V94H24.6309V85.5195H21.6309ZM23.1309 92.5H3.22461V95.5H23.1309V92.5ZM4.72461 94V57.5898H1.72461V94H4.72461ZM3.22461 59.0898H12.543V56.0898H3.22461V59.0898ZM47.1758 90.293L48.3523 91.2235L48.3548 91.2203L47.1758 90.293ZM27.6758 90.293L26.4968 91.2203L26.4993 91.2235L27.6758 90.293ZM28.8548 62.275C30.9158 59.6546 33.7146 58.3281 37.4258 58.3281V55.3281C32.8766 55.3281 29.1754 57.0147 26.4968 60.4203L28.8548 62.275ZM37.4258 58.3281C41.137 58.3281 43.9358 59.6546 45.9968 62.275L48.3548 60.4203C45.6762 57.0147 41.975 55.3281 37.4258 55.3281V58.3281ZM45.9968 62.275C48.0544 64.8911 49.2305 69.2925 49.2305 75.7949H52.2305C52.2305 69.0603 51.0367 63.8302 48.3548 60.4203L45.9968 62.275ZM49.2305 75.7949C49.2305 82.3333 48.0536 86.7505 45.9968 89.3657L48.3548 91.2203C51.0375 87.8094 52.2305 82.5612 52.2305 75.7949H49.2305ZM45.9993 89.3624C43.9395 91.9666 41.1402 93.2871 37.4258 93.2871V96.2871C41.9718 96.2871 45.6725 94.6115 48.3523 91.2235L45.9993 89.3624ZM37.4258 93.2871C33.7114 93.2871 30.912 91.9666 28.8523 89.3624L26.4993 91.2235C29.1791 94.6115 32.8798 96.2871 37.4258 96.2871V93.2871ZM28.8548 89.3657C26.7979 86.7505 25.6211 82.3333 25.6211 75.7949H22.6211C22.6211 82.5612 23.8141 87.8094 26.4968 91.2203L28.8548 89.3657ZM25.6211 75.7949C25.6211 69.2925 26.7971 64.8911 28.8548 62.275L26.4968 60.4203C23.8148 63.8302 22.6211 69.0603 22.6211 75.7949H25.6211ZM33.1123 84.6618C33.5199 85.5686 34.0688 86.3619 34.8115 86.9318C35.5753 87.5178 36.4664 87.8066 37.4258 87.8066V84.8066C37.0987 84.8066 36.8557 84.7189 36.6377 84.5516C36.3986 84.3682 36.1181 84.0316 35.8486 83.432L33.1123 84.6618ZM37.4258 87.8066C38.3851 87.8066 39.2763 87.5178 40.04 86.9318C40.7828 86.3619 41.3317 85.5686 41.7393 84.6618L39.0029 83.432C38.7334 84.0316 38.4529 84.3682 38.2139 84.5516C37.9959 84.7189 37.7529 84.8066 37.4258 84.8066V87.8066ZM41.7393 84.6618C42.5622 82.8308 42.8867 79.7829 42.8867 75.7949H39.8867C39.8867 79.7965 39.5342 82.2499 39.0029 83.432L41.7393 84.6618ZM42.8867 75.7949C42.8867 71.852 42.5609 68.8276 41.7418 66.9845L39.0004 68.203C39.5354 69.4068 39.8867 71.8499 39.8867 75.7949H42.8867ZM41.7418 66.9845C41.3357 66.0707 40.7884 65.2704 40.0464 64.6948C39.2827 64.1022 38.3893 63.8086 37.4258 63.8086V66.8086C37.7487 66.8086 37.9895 66.8959 38.2075 67.065C38.4473 67.2511 38.7295 67.5934 39.0004 68.203L41.7418 66.9845ZM37.4258 63.8086C36.4623 63.8086 35.5689 64.1022 34.8051 64.6948C34.0632 65.2704 33.5159 66.0707 33.1098 66.9845L35.8512 68.203C36.1221 67.5934 36.4042 67.2511 36.6441 67.065C36.8621 66.8959 37.1028 66.8086 37.4258 66.8086V63.8086ZM33.1098 66.9845C32.2906 68.8276 31.9648 71.852 31.9648 75.7949H34.9648C34.9648 71.8499 35.3162 69.4068 35.8512 68.203L33.1098 66.9845ZM31.9648 75.7949C31.9648 79.7829 32.2894 82.8308 33.1123 84.6618L35.8486 83.432C35.3174 82.2499 34.9648 79.7965 34.9648 75.7949H31.9648ZM69.0371 72.5195L69.8159 71.2376L69.8108 71.2345L69.0371 72.5195ZM75.4355 77.9785L74.1762 78.7934L74.1799 78.7991L75.4355 77.9785ZM73.8359 91.8672L74.8341 92.9869L74.8389 92.9826L73.8359 91.8672ZM53.9551 91.6641L52.493 91.3288L52.2724 92.2911L53.069 92.8744L53.9551 91.6641ZM55.7832 83.6914L56.6571 82.4723L54.825 81.1589L54.3211 83.3562L55.7832 83.6914ZM63.0195 79.0703L63.7811 77.778L63.7709 77.772L63.7605 77.7661L63.0195 79.0703ZM56.5957 73.7383L55.3632 74.5933L55.3669 74.5985L56.5957 73.7383ZM57.9414 59.6719L58.9154 60.8126L58.9205 60.8083L57.9414 59.6719ZM76.1211 58.8086L77.6089 58.9998L77.7446 57.9433L76.7919 57.467L76.1211 58.8086ZM75.0801 66.9082L74.2675 68.1691L76.2649 69.4563L76.5678 67.0994L75.0801 66.9082ZM71.8555 65.4863L71.3708 66.9059L71.3785 66.9085L71.3863 66.9111L71.8555 65.4863ZM64.1113 67.416H65.6113V67.4088L65.6113 67.4016L64.1113 67.416ZM65.3301 69.8535L64.2806 70.9253L64.2864 70.9309L64.2922 70.9365L65.3301 69.8535ZM68.2583 73.8015C71.3432 75.6756 73.2439 77.3526 74.1762 78.7934L76.6949 77.1636C75.3928 75.1513 73.0279 73.1889 69.8159 71.2376L68.2583 73.8015ZM74.1799 78.7991C75.1168 80.2328 75.6113 81.9532 75.6113 84.0215H78.6113C78.6113 81.4517 77.9887 79.1435 76.6912 77.158L74.1799 78.7991ZM75.6113 84.0215C75.6113 86.9163 74.6626 89.1066 72.833 90.7518L74.8389 92.9826C77.3765 90.7007 78.6113 87.6605 78.6113 84.0215H75.6113ZM72.8378 90.7475C71.0023 92.3838 68.4084 93.2871 64.873 93.2871V96.2871C68.921 96.2871 72.3024 95.2438 74.8341 92.9869L72.8378 90.7475ZM64.873 93.2871C60.6737 93.2871 57.368 92.3038 54.8412 90.4538L53.069 92.8744C56.2296 95.1884 60.2026 96.2871 64.873 96.2871V93.2871ZM55.4171 91.9993L57.2453 84.0267L54.3211 83.3562L52.493 91.3288L55.4171 91.9993ZM54.9093 84.9105C57.8815 87.0412 60.8484 88.2129 63.7812 88.2129V85.2129C61.6698 85.2129 59.3047 84.3702 56.6571 82.4723L54.9093 84.9105ZM63.7812 88.2129C65.239 88.2129 66.5953 87.977 67.6257 87.2857C68.7623 86.5232 69.293 85.3515 69.293 84.0215H66.293C66.293 84.4857 66.155 84.6598 65.9544 84.7944C65.6475 85.0002 64.998 85.2129 63.7812 85.2129V88.2129ZM69.293 84.0215C69.293 82.8202 68.7554 81.7536 67.9521 80.8446L65.7041 82.8312C66.1873 83.3779 66.293 83.767 66.293 84.0215H69.293ZM67.9521 80.8446C67.1382 79.9236 65.685 78.8999 63.7811 77.778L62.258 80.3626C64.1458 81.4751 65.2316 82.2965 65.7041 82.8312L67.9521 80.8446ZM63.7605 77.7661C60.8855 76.1326 58.9521 74.4889 57.8246 72.8781L55.3669 74.5985C56.8461 76.7116 59.1953 78.6227 62.2785 80.3745L63.7605 77.7661ZM57.8282 72.8833C56.7156 71.2795 56.1406 69.3923 56.1406 67.1621H53.1406C53.1406 69.9423 53.869 72.4393 55.3632 74.5933L57.8282 72.8833ZM56.1406 67.1621C56.1406 64.4484 57.0766 62.3827 58.9154 60.8126L56.9674 58.5311C54.4052 60.7188 53.1406 63.6467 53.1406 67.1621H56.1406ZM58.9205 60.8083C60.7852 59.2018 63.3274 58.3281 66.7012 58.3281V55.3281C62.7963 55.3281 59.4987 56.3503 56.9623 58.5355L58.9205 60.8083ZM66.7012 58.3281C70.1608 58.3281 73.0608 58.9555 75.4503 60.1502L76.7919 57.467C73.9002 56.0211 70.5202 55.3281 66.7012 55.3281V58.3281ZM74.6333 58.6174L73.5923 66.717L76.5678 67.0994L77.6089 58.9998L74.6333 58.6174ZM75.8926 65.6473C74.979 65.0586 73.7695 64.5373 72.3246 64.0616L71.3863 66.9111C72.7175 67.3494 73.6577 67.7761 74.2675 68.1691L75.8926 65.6473ZM72.3402 64.0668C70.8368 63.5535 69.4009 63.2754 68.0469 63.2754V66.2754C68.9949 66.2754 70.0981 66.4713 71.3708 66.9059L72.3402 64.0668ZM68.0469 63.2754C66.6084 63.2754 65.2657 63.5063 64.2468 64.1899C63.1179 64.9474 62.5987 66.1133 62.6114 67.4304L65.6113 67.4016C65.607 66.9583 65.7353 66.8039 65.9183 66.6811C66.2112 66.4846 66.8447 66.2754 68.0469 66.2754V63.2754ZM62.6113 67.416C62.6113 68.78 63.2897 69.955 64.2806 70.9253L66.3795 68.7817C65.7455 68.1609 65.6113 67.7109 65.6113 67.416H62.6113ZM64.2922 70.9365C65.2222 71.8278 66.567 72.7833 68.2634 73.8046L69.8108 71.2345C68.1895 70.2584 67.0629 69.4365 66.3679 68.7705L64.2922 70.9365ZM99.8105 57.5898V56.0898H98.5993L98.3442 57.2739L99.8105 57.5898ZM111.516 57.5898L112.982 57.2719L112.725 56.0898H111.516V57.5898ZM119.412 94V95.5H121.272L120.878 93.6821L119.412 94ZM110.043 94L108.561 94.2343L108.762 95.5H110.043V94ZM109.18 88.541L110.661 88.3067L110.461 87.041H109.18V88.541ZM102.197 88.541V87.041H100.922L100.717 88.3L102.197 88.541ZM101.309 94V95.5H102.584L102.789 94.241L101.309 94ZM91.9648 94L90.4985 93.684L90.1072 95.5H91.9648V94ZM103.441 81.1016L101.962 80.8545L101.67 82.6016H103.441V81.1016ZM107.91 81.1016V82.6016H109.689L109.389 80.8486L107.91 81.1016ZM105.777 68.6348L107.256 68.3818L107.043 67.1348H105.777V68.6348ZM105.523 68.6348V67.1348H104.253L104.044 68.3877L105.523 68.6348ZM99.8105 59.0898H111.516V56.0898H99.8105V59.0898ZM110.05 57.9078L117.946 94.3179L120.878 93.6821L112.982 57.2719L110.05 57.9078ZM119.412 92.5H110.043V95.5H119.412V92.5ZM111.525 93.7657L110.661 88.3067L107.698 88.7753L108.561 94.2343L111.525 93.7657ZM109.18 87.041H102.197V90.041H109.18V87.041ZM100.717 88.3L99.8281 93.759L102.789 94.241L103.678 88.782L100.717 88.3ZM101.309 92.5H91.9648V95.5H101.309V92.5ZM93.4312 94.316L101.277 57.9058L98.3442 57.2739L90.4985 93.684L93.4312 94.316ZM103.441 82.6016H107.91V79.6016H103.441V82.6016ZM109.389 80.8486L107.256 68.3818L104.299 68.8877L106.432 81.3545L109.389 80.8486ZM105.777 67.1348H105.523V70.1348H105.777V67.1348ZM104.044 68.3877L101.962 80.8545L104.921 81.3486L107.003 68.8819L104.044 68.3877ZM131.625 57.5898H133.125V56.0898H131.625V57.5898ZM131.625 85.5195H130.125V87.0195H131.625V85.5195ZM142.213 85.5195H143.713V84.0195H142.213V85.5195ZM142.213 94V95.5H143.713V94H142.213ZM122.307 94H120.807V95.5H122.307V94ZM122.307 57.5898V56.0898H120.807V57.5898H122.307ZM130.125 57.5898V85.5195H133.125V57.5898H130.125ZM131.625 87.0195H142.213V84.0195H131.625V87.0195ZM140.713 85.5195V94H143.713V85.5195H140.713ZM142.213 92.5H122.307V95.5H142.213V92.5ZM123.807 94V57.5898H120.807V94H123.807ZM122.307 59.0898H131.625V56.0898H122.307V59.0898ZM161.611 75.3887V76.8887H162.711L163.042 75.8397L161.611 75.3887ZM167.223 57.5898V56.0898H166.123L165.792 57.1388L167.223 57.5898ZM176.795 57.5898H178.295V56.0898H176.795V57.5898ZM176.795 94V95.5H178.295V94H176.795ZM167.756 94H166.256V95.5H167.756V94ZM167.756 78.7148H169.256V77.2148H167.756V78.7148ZM167.527 78.7148V77.2148H166.431L166.098 78.2591L167.527 78.7148ZM162.652 94V95.5H163.748L164.081 94.4558L162.652 94ZM160.418 94L158.988 94.4536L159.32 95.5H160.418V94ZM155.568 78.7148L156.998 78.2612L156.666 77.2148H155.568V78.7148ZM155.365 78.7148V77.2148H153.865V78.7148H155.365ZM155.365 94V95.5H156.865V94H155.365ZM146.326 94H144.826V95.5H146.326V94ZM146.326 57.5898V56.0898H144.826V57.5898H146.326ZM155.898 57.5898L157.329 57.1388L156.998 56.0898H155.898V57.5898ZM161.51 75.3887L160.079 75.8397L160.41 76.8887H161.51V75.3887ZM163.042 75.8397L168.653 58.0409L165.792 57.1388L160.181 74.9377L163.042 75.8397ZM167.223 59.0898H176.795V56.0898H167.223V59.0898ZM175.295 57.5898V94H178.295V57.5898H175.295ZM176.795 92.5H167.756V95.5H176.795V92.5ZM169.256 94V78.7148H166.256V94H169.256ZM167.756 77.2148H167.527V80.2148H167.756V77.2148ZM166.098 78.2591L161.223 93.5442L164.081 94.4558L168.956 79.1706L166.098 78.2591ZM162.652 92.5H160.418V95.5H162.652V92.5ZM161.848 93.5464L156.998 78.2612L154.139 79.1685L158.988 94.4536L161.848 93.5464ZM155.568 77.2148H155.365V80.2148H155.568V77.2148ZM153.865 78.7148V94H156.865V78.7148H153.865ZM155.365 92.5H146.326V95.5H155.365V92.5ZM147.826 94V57.5898H144.826V94H147.826ZM146.326 59.0898H155.898V56.0898H146.326V59.0898ZM154.468 58.0409L160.079 75.8397L162.94 74.9377L157.329 57.1388L154.468 58.0409ZM161.51 76.8887H161.611V73.8887H161.51V76.8887ZM196.498 57.5898V56.0898H194.998V57.5898H196.498ZM205.816 57.5898H207.316V56.0898H205.816V57.5898ZM183.092 57.5898V56.0898H181.592V57.5898H183.092ZM192.41 57.5898H193.91V56.0898H192.41V57.5898ZM192.969 85.5703L191.774 86.4769L191.783 86.4898L191.794 86.5024L192.969 85.5703ZM195.889 85.5703L194.733 84.614L194.723 84.626L194.713 84.6382L195.889 85.5703ZM197.998 83.6914V57.5898H194.998V83.6914H197.998ZM196.498 59.0898H205.816V56.0898H196.498V59.0898ZM204.316 57.5898V83.2344H207.316V57.5898H204.316ZM204.316 83.2344C204.316 86.4106 203.362 88.8007 201.565 90.5696L203.669 92.7078C206.138 90.2787 207.316 87.066 207.316 83.2344H204.316ZM201.565 90.5696C199.746 92.3597 197.406 93.2871 194.416 93.2871V96.2871C198.095 96.2871 201.223 95.1155 203.669 92.7078L201.565 90.5696ZM194.416 93.2871C191.445 93.2871 189.124 92.3613 187.322 90.5738L185.209 92.7036C187.639 95.1139 190.752 96.2871 194.416 96.2871V93.2871ZM187.322 90.5738C185.54 88.8057 184.592 86.4141 184.592 83.2344H181.592C181.592 87.0624 182.76 90.2738 185.209 92.7036L187.322 90.5738ZM184.592 83.2344V57.5898H181.592V83.2344H184.592ZM183.092 59.0898H192.41V56.0898H183.092V59.0898ZM190.91 57.5898V83.6914H193.91V57.5898H190.91ZM190.91 83.6914C190.91 84.7016 191.161 85.6686 191.774 86.4769L194.164 84.6637C194.032 84.4902 193.91 84.2046 193.91 83.6914H190.91ZM191.794 86.5024C192.438 87.3156 193.338 87.8066 194.416 87.8066V84.8066C194.349 84.8066 194.32 84.7944 194.303 84.7856C194.282 84.775 194.226 84.7412 194.144 84.6382L191.794 86.5024ZM194.416 87.8066C195.496 87.8066 196.409 87.3282 197.064 86.5024L194.713 84.6382C194.59 84.7942 194.521 84.8066 194.416 84.8066V87.8066ZM197.044 86.5267C197.715 85.7167 197.998 84.7311 197.998 83.6914H194.998C194.998 84.1751 194.875 84.4422 194.733 84.614L197.044 86.5267ZM221.559 80.2129V78.7129H220.059V80.2129H221.559ZM221.559 85.5195H220.059V87.0195H221.559V85.5195ZM233.518 85.5195H235.018V84.0195H233.518V85.5195ZM233.518 94V95.5H235.018V94H233.518ZM212.24 94H210.74V95.5H212.24V94ZM212.24 57.5898V56.0898H210.74V57.5898H212.24ZM233.188 57.5898H234.688V56.0898H233.188V57.5898ZM233.188 66.0703V67.5703H234.688V66.0703H233.188ZM221.559 66.0703V64.5703H220.059V66.0703H221.559ZM221.559 72.5703H220.059V74.0703H221.559V72.5703ZM232.045 72.5703H233.545V71.0703H232.045V72.5703ZM232.045 80.2129V81.7129H233.545V80.2129H232.045ZM220.059 80.2129V85.5195H223.059V80.2129H220.059ZM221.559 87.0195H233.518V84.0195H221.559V87.0195ZM232.018 85.5195V94H235.018V85.5195H232.018ZM233.518 92.5H212.24V95.5H233.518V92.5ZM213.74 94V57.5898H210.74V94H213.74ZM212.24 59.0898H233.188V56.0898H212.24V59.0898ZM231.688 57.5898V66.0703H234.688V57.5898H231.688ZM233.188 64.5703H221.559V67.5703H233.188V64.5703ZM220.059 66.0703V72.5703H223.059V66.0703H220.059ZM221.559 74.0703H232.045V71.0703H221.559V74.0703ZM230.545 72.5703V80.2129H233.545V72.5703H230.545ZM232.045 78.7129H221.559V81.7129H232.045V78.7129ZM257.512 78.1309H256.012V79.2286L257.058 79.5606L257.512 78.1309ZM260.914 83.1328L262.39 82.8672L262.39 82.8629L260.914 83.1328ZM262.869 94V95.5H264.663L264.345 93.7344L262.869 94ZM253.094 94L251.615 94.2496L251.826 95.5H253.094V94ZM251.393 83.9199L252.872 83.6703L252.868 83.648L252.863 83.6257L251.393 83.9199ZM248.422 81.3555L248.437 79.8555L248.43 79.8555H248.422V81.3555ZM247.965 81.3555V79.8555H246.465V81.3555H247.965ZM247.965 94V95.5H249.465V94H247.965ZM238.646 94H237.146V95.5H238.646V94ZM238.646 57.5898V56.0898H237.146V57.5898H238.646ZM257.512 77.877L256.696 76.6182L256.012 77.0616V77.877H257.512ZM247.965 66.0703V64.5703H246.465V66.0703H247.965ZM247.965 74.043H246.465V75.543H247.965V74.043ZM257.058 79.5606C258.041 79.8726 258.973 80.8568 259.439 83.4027L262.39 82.8629C261.84 79.8568 260.503 77.5063 257.965 76.7011L257.058 79.5606ZM259.438 83.3984L261.393 94.2656L264.345 93.7344L262.39 82.8672L259.438 83.3984ZM262.869 92.5H253.094V95.5H262.869V92.5ZM254.573 93.7504L252.872 83.6703L249.913 84.1695L251.615 94.2496L254.573 93.7504ZM252.863 83.6257C252.65 82.5569 252.194 81.5801 251.376 80.8738C250.55 80.1604 249.52 79.8667 248.437 79.8555L248.406 82.8554C248.966 82.8612 249.252 83.0034 249.416 83.1447C249.588 83.2933 249.797 83.5903 249.922 84.2141L252.863 83.6257ZM248.422 79.8555H247.965V82.8555H248.422V79.8555ZM246.465 81.3555V94H249.465V81.3555H246.465ZM247.965 92.5H238.646V95.5H247.965V92.5ZM240.146 94V57.5898H237.146V94H240.146ZM238.646 59.0898H251.393V56.0898H238.646V59.0898ZM251.393 59.0898C254.189 59.0898 256.351 59.9696 258.016 61.663L260.156 59.5597C257.859 57.2244 254.893 56.0898 251.393 56.0898V59.0898ZM258.016 61.663C259.663 63.3382 260.557 65.6538 260.557 68.7871H263.557C263.557 65.048 262.469 61.9131 260.156 59.5597L258.016 61.663ZM260.557 68.7871C260.557 72.4554 259.236 74.9722 256.696 76.6182L258.327 79.1357C261.847 76.8546 263.557 73.3115 263.557 68.7871H260.557ZM256.012 77.877V78.1309H259.012V77.877H256.012ZM249.311 75.543C250.754 75.543 252.015 75.0002 252.972 73.9207L250.727 71.9308C250.364 72.341 249.932 72.543 249.311 72.543V75.543ZM252.972 73.9207C253.913 72.8591 254.34 71.5387 254.34 70.082H251.34C251.34 70.9275 251.106 71.5029 250.727 71.9308L252.972 73.9207ZM254.34 70.082C254.34 68.6041 253.92 67.2622 252.972 66.1925L250.727 68.1825C251.099 68.6024 251.34 69.1902 251.34 70.082H254.34ZM252.972 66.1925C252.015 65.1131 250.754 64.5703 249.311 64.5703V67.5703C249.932 67.5703 250.364 67.7723 250.727 68.1825L252.972 66.1925ZM249.311 64.5703H247.965V67.5703H249.311V64.5703ZM246.465 66.0703V74.043H249.465V66.0703H246.465ZM247.965 75.543H249.311V72.543H247.965V75.543ZM277.367 85.3672L276.02 84.7075L275.867 85.0196V85.3672H277.367ZM277.367 85.5195H275.867V87.0195H277.367V85.5195ZM288.031 85.5195H289.531V84.0195H288.031V85.5195ZM288.031 94V95.5H289.531V94H288.031ZM265.916 94H264.416V95.5H265.916V94ZM265.916 87.8555L264.571 87.191L264.416 87.5051V87.8555H265.916ZM276.58 66.2734L277.925 66.9379L278.08 66.6238V66.2734H276.58ZM276.58 66.0703H278.08V64.5703H276.58V66.0703ZM266.297 66.0703H264.797V67.5703H266.297V66.0703ZM266.297 57.5898V56.0898H264.797V57.5898H266.297ZM287.65 57.5898H289.15V56.0898H287.65V57.5898ZM287.65 64.3691L288.998 65.0289L289.15 64.7167V64.3691H287.65ZM275.867 85.3672V85.5195H278.867V85.3672H275.867ZM277.367 87.0195H288.031V84.0195H277.367V87.0195ZM286.531 85.5195V94H289.531V85.5195H286.531ZM288.031 92.5H265.916V95.5H288.031V92.5ZM267.416 94V87.8555H264.416V94H267.416ZM267.261 88.52L277.925 66.9379L275.235 65.609L264.571 87.191L267.261 88.52ZM278.08 66.2734V66.0703H275.08V66.2734H278.08ZM276.58 64.5703H266.297V67.5703H276.58V64.5703ZM267.797 66.0703V57.5898H264.797V66.0703H267.797ZM266.297 59.0898H287.65V56.0898H266.297V59.0898ZM286.15 57.5898V64.3691H289.15V57.5898H286.15ZM286.303 63.7094L276.02 84.7075L278.714 86.0269L288.998 65.0289L286.303 63.7094ZM313.371 90.293L314.548 91.2235L314.55 91.2203L313.371 90.293ZM293.871 90.293L292.692 91.2203L292.695 91.2235L293.871 90.293ZM295.05 62.275C297.111 59.6546 299.91 58.3281 303.621 58.3281V55.3281C299.072 55.3281 295.371 57.0147 292.692 60.4203L295.05 62.275ZM303.621 58.3281C307.332 58.3281 310.131 59.6546 312.192 62.275L314.55 60.4203C311.871 57.0147 308.17 55.3281 303.621 55.3281V58.3281ZM312.192 62.275C314.25 64.8911 315.426 69.2925 315.426 75.7949H318.426C318.426 69.0603 317.232 63.8302 314.55 60.4203L312.192 62.275ZM315.426 75.7949C315.426 82.3333 314.249 86.7505 312.192 89.3657L314.55 91.2203C317.233 87.8094 318.426 82.5612 318.426 75.7949H315.426ZM312.195 89.3624C310.135 91.9666 307.335 93.2871 303.621 93.2871V96.2871C308.167 96.2871 311.868 94.6115 314.548 91.2235L312.195 89.3624ZM303.621 93.2871C299.907 93.2871 297.107 91.9666 295.048 89.3624L292.695 91.2235C295.374 94.6115 299.075 96.2871 303.621 96.2871V93.2871ZM295.05 89.3657C292.993 86.7505 291.816 82.3333 291.816 75.7949H288.816C288.816 82.5612 290.009 87.8094 292.692 91.2203L295.05 89.3657ZM291.816 75.7949C291.816 69.2925 292.992 64.8911 295.05 62.275L292.692 60.4203C290.01 63.8302 288.816 69.0603 288.816 75.7949H291.816ZM299.308 84.6618C299.715 85.5686 300.264 86.3619 301.007 86.9318C301.771 87.5178 302.662 87.8066 303.621 87.8066V84.8066C303.294 84.8066 303.051 84.7189 302.833 84.5516C302.594 84.3682 302.313 84.0316 302.044 83.432L299.308 84.6618ZM303.621 87.8066C304.58 87.8066 305.472 87.5178 306.235 86.9318C306.978 86.3619 307.527 85.5686 307.935 84.6618L305.198 83.432C304.929 84.0316 304.648 84.3682 304.409 84.5516C304.191 84.7189 303.948 84.8066 303.621 84.8066V87.8066ZM307.935 84.6618C308.757 82.8308 309.082 79.7829 309.082 75.7949H306.082C306.082 79.7965 305.73 82.2499 305.198 83.432L307.935 84.6618ZM309.082 75.7949C309.082 71.852 308.756 68.8276 307.937 66.9845L305.196 68.203C305.731 69.4068 306.082 71.8499 306.082 75.7949H309.082ZM307.937 66.9845C307.531 66.0707 306.984 65.2704 306.242 64.6948C305.478 64.1022 304.585 63.8086 303.621 63.8086V66.8086C303.944 66.8086 304.185 66.8959 304.403 67.065C304.643 67.2511 304.925 67.5934 305.196 68.203L307.937 66.9845ZM303.621 63.8086C302.658 63.8086 301.764 64.1022 301 64.6948C300.259 65.2704 299.711 66.0707 299.305 66.9845L302.046 68.203C302.317 67.5934 302.6 67.2511 302.839 67.065C303.057 66.8959 303.298 66.8086 303.621 66.8086V63.8086ZM299.305 66.9845C298.486 68.8276 298.16 71.852 298.16 75.7949H301.16C301.16 71.8499 301.511 69.4068 302.046 68.203L299.305 66.9845ZM298.16 75.7949C298.16 79.7829 298.485 82.8308 299.308 84.6618L302.044 83.432C301.513 82.2499 301.16 79.7965 301.16 75.7949H298.16ZM335.232 72.5195L336.011 71.2376L336.006 71.2345L335.232 72.5195ZM341.631 77.9785L340.371 78.7934L340.375 78.7991L341.631 77.9785ZM340.031 91.8672L341.029 92.9869L341.034 92.9826L340.031 91.8672ZM320.15 91.6641L318.688 91.3288L318.468 92.2911L319.264 92.8744L320.15 91.6641ZM321.979 83.6914L322.852 82.4723L321.02 81.1589L320.516 83.3562L321.979 83.6914ZM329.215 79.0703L329.976 77.778L329.966 77.772L329.956 77.7661L329.215 79.0703ZM322.791 73.7383L321.559 74.5933L321.562 74.5985L322.791 73.7383ZM324.137 59.6719L325.111 60.8126L325.116 60.8083L324.137 59.6719ZM342.316 58.8086L343.804 58.9998L343.94 57.9433L342.987 57.467L342.316 58.8086ZM341.275 66.9082L340.463 68.1691L342.46 69.4563L342.763 67.0994L341.275 66.9082ZM338.051 65.4863L337.566 66.9059L337.574 66.9085L337.582 66.9111L338.051 65.4863ZM330.307 67.416H331.807V67.4088L331.807 67.4016L330.307 67.416ZM331.525 69.8535L330.476 70.9253L330.482 70.9309L330.488 70.9365L331.525 69.8535ZM334.454 73.8015C337.538 75.6756 339.439 77.3526 340.372 78.7934L342.89 77.1636C341.588 75.1513 339.223 73.1889 336.011 71.2376L334.454 73.8015ZM340.375 78.7991C341.312 80.2328 341.807 81.9532 341.807 84.0215H344.807C344.807 81.4517 344.184 79.1435 342.887 77.158L340.375 78.7991ZM341.807 84.0215C341.807 86.9163 340.858 89.1066 339.028 90.7518L341.034 92.9826C343.572 90.7007 344.807 87.6605 344.807 84.0215H341.807ZM339.033 90.7475C337.198 92.3838 334.604 93.2871 331.068 93.2871V96.2871C335.116 96.2871 338.498 95.2438 341.029 92.9869L339.033 90.7475ZM331.068 93.2871C326.869 93.2871 323.563 92.3038 321.036 90.4538L319.264 92.8744C322.425 95.1884 326.398 96.2871 331.068 96.2871V93.2871ZM321.612 91.9993L323.441 84.0267L320.516 83.3562L318.688 91.3288L321.612 91.9993ZM321.105 84.9105C324.077 87.0412 327.044 88.2129 329.977 88.2129V85.2129C327.865 85.2129 325.5 84.3702 322.852 82.4723L321.105 84.9105ZM329.977 88.2129C331.434 88.2129 332.791 87.977 333.821 87.2857C334.958 86.5232 335.488 85.3515 335.488 84.0215H332.488C332.488 84.4857 332.35 84.6598 332.15 84.7944C331.843 85.0002 331.193 85.2129 329.977 85.2129V88.2129ZM335.488 84.0215C335.488 82.8202 334.951 81.7536 334.147 80.8446L331.899 82.8312C332.383 83.3779 332.488 83.767 332.488 84.0215H335.488ZM334.147 80.8446C333.334 79.9236 331.88 78.8999 329.976 77.778L328.453 80.3626C330.341 81.4751 331.427 82.2965 331.899 82.8312L334.147 80.8446ZM329.956 77.7661C327.081 76.1326 325.147 74.4889 324.02 72.8781L321.562 74.5985C323.041 76.7116 325.391 78.6227 328.474 80.3745L329.956 77.7661ZM324.024 72.8833C322.911 71.2795 322.336 69.3923 322.336 67.1621H319.336C319.336 69.9423 320.064 72.4393 321.559 74.5933L324.024 72.8833ZM322.336 67.1621C322.336 64.4484 323.272 62.3827 325.111 60.8126L323.163 58.5311C320.601 60.7188 319.336 63.6467 319.336 67.1621H322.336ZM325.116 60.8083C326.98 59.2018 329.523 58.3281 332.896 58.3281V55.3281C328.992 55.3281 325.694 56.3503 323.158 58.5355L325.116 60.8083ZM332.896 58.3281C336.356 58.3281 339.256 58.9555 341.646 60.1502L342.987 57.467C340.095 56.0211 336.715 55.3281 332.896 55.3281V58.3281ZM340.829 58.6174L339.788 66.717L342.763 67.0994L343.804 58.9998L340.829 58.6174ZM342.088 65.6473C341.174 65.0586 339.965 64.5373 338.52 64.0616L337.582 66.9111C338.913 67.3494 339.853 67.7761 340.463 68.1691L342.088 65.6473ZM338.535 64.0668C337.032 63.5535 335.596 63.2754 334.242 63.2754V66.2754C335.19 66.2754 336.293 66.4713 337.566 66.9059L338.535 64.0668ZM334.242 63.2754C332.804 63.2754 331.461 63.5063 330.442 64.1899C329.313 64.9474 328.794 66.1133 328.807 67.4304L331.807 67.4016C331.802 66.9583 331.931 66.8039 332.114 66.6811C332.407 66.4846 333.04 66.2754 334.242 66.2754V63.2754ZM328.807 67.416C328.807 68.78 329.485 69.955 330.476 70.9253L332.575 68.7817C331.941 68.1609 331.807 67.7109 331.807 67.416H328.807ZM330.488 70.9365C331.418 71.8278 332.762 72.7833 334.459 73.8046L336.006 71.2345C334.385 70.2584 333.258 69.4365 332.563 68.7705L330.488 70.9365Z" fill="white" mask="url(#path-1-outside-1_13_948)"/>
<path d="M12.543 112.59V140.52H23.1309V149H3.22461V112.59H12.543ZM27.6758 116.348C30.0456 113.335 33.2956 111.828 37.4258 111.828C41.556 111.828 44.806 113.335 47.1758 116.348C49.5456 119.361 50.7305 124.176 50.7305 130.795C50.7305 137.447 49.5456 142.28 47.1758 145.293C44.806 148.289 41.556 149.787 37.4258 149.787C33.2956 149.787 30.0456 148.289 27.6758 145.293C25.306 142.28 24.1211 137.447 24.1211 130.795C24.1211 124.176 25.306 119.361 27.6758 116.348ZM34.4805 139.047C35.1576 140.553 36.1393 141.307 37.4258 141.307C38.7122 141.307 39.694 140.553 40.3711 139.047C41.0482 137.54 41.3867 134.79 41.3867 130.795C41.3867 126.851 41.0482 124.117 40.3711 122.594C39.694 121.07 38.7122 120.309 37.4258 120.309C36.1393 120.309 35.1576 121.07 34.4805 122.594C33.8034 124.117 33.4648 126.851 33.4648 130.795C33.4648 134.79 33.8034 137.54 34.4805 139.047ZM69.0371 127.52C72.1855 129.432 74.3184 131.252 75.4355 132.979C76.5527 134.688 77.1113 136.702 77.1113 139.021C77.1113 142.288 76.0195 144.904 73.8359 146.867C71.6523 148.814 68.6647 149.787 64.873 149.787C60.4382 149.787 56.7988 148.746 53.9551 146.664L55.7832 138.691C58.5931 140.706 61.2591 141.713 63.7812 141.713C66.4557 141.713 67.793 140.816 67.793 139.021C67.793 138.294 67.4714 137.566 66.8281 136.838C66.1849 136.11 64.9154 135.188 63.0195 134.07C60.0404 132.378 57.8991 130.6 56.5957 128.738C55.2923 126.859 54.6406 124.667 54.6406 122.162C54.6406 119.048 55.7409 116.551 57.9414 114.672C60.1419 112.776 63.0618 111.828 66.7012 111.828C70.3405 111.828 73.4805 112.488 76.1211 113.809L75.0801 121.908C74.3184 121.417 73.2435 120.943 71.8555 120.486C70.4674 120.012 69.1979 119.775 68.0469 119.775C65.4062 119.775 64.0944 120.656 64.1113 122.416C64.1113 123.245 64.5176 124.058 65.3301 124.854C66.1426 125.632 67.3783 126.521 69.0371 127.52ZM99.8105 112.59H111.516L119.412 149H110.043L109.18 143.541H102.197L101.309 149H91.9648L99.8105 112.59ZM103.441 136.102H107.91L105.777 123.635H105.523L103.441 136.102ZM131.625 112.59V140.52H142.213V149H122.307V112.59H131.625ZM161.611 130.389L167.223 112.59H176.795V149H167.756V133.715H167.527L162.652 149H160.418L155.568 133.715H155.365V149H146.326V112.59H155.898L161.51 130.389H161.611ZM196.498 138.691V112.59H205.816V138.234C205.816 141.738 204.75 144.54 202.617 146.639C200.484 148.738 197.751 149.787 194.416 149.787C191.098 149.787 188.382 148.738 186.266 146.639C184.15 144.54 183.092 141.738 183.092 138.234V112.59H192.41V138.691C192.41 139.453 192.596 140.079 192.969 140.57C193.358 141.061 193.84 141.307 194.416 141.307C195.008 141.307 195.499 141.061 195.889 140.57C196.295 140.079 196.498 139.453 196.498 138.691ZM221.559 135.213V140.52H233.518V149H212.24V112.59H233.188V121.07H221.559V127.57H232.045V135.213H221.559ZM257.512 133.131C259.272 133.689 260.406 135.357 260.914 138.133L262.869 149H253.094L251.393 138.92C251.054 137.227 250.064 136.372 248.422 136.355H247.965V149H238.646V112.59H251.393C254.541 112.59 257.105 113.597 259.086 115.611C261.066 117.626 262.057 120.351 262.057 123.787C262.057 127.883 260.542 130.913 257.512 132.877V133.131ZM249.311 129.043C250.343 129.043 251.189 128.671 251.85 127.926C252.51 127.181 252.84 126.233 252.84 125.082C252.84 123.897 252.51 122.932 251.85 122.188C251.189 121.443 250.343 121.07 249.311 121.07H247.965V129.043H249.311ZM277.367 140.367V140.52H288.031V149H265.916V142.855L276.58 121.273V121.07H266.297V112.59H287.65V119.369L277.367 140.367ZM293.871 116.348C296.241 113.335 299.491 111.828 303.621 111.828C307.751 111.828 311.001 113.335 313.371 116.348C315.741 119.361 316.926 124.176 316.926 130.795C316.926 137.447 315.741 142.28 313.371 145.293C311.001 148.289 307.751 149.787 303.621 149.787C299.491 149.787 296.241 148.289 293.871 145.293C291.501 142.28 290.316 137.447 290.316 130.795C290.316 124.176 291.501 119.361 293.871 116.348ZM300.676 139.047C301.353 140.553 302.335 141.307 303.621 141.307C304.908 141.307 305.889 140.553 306.566 139.047C307.243 137.54 307.582 134.79 307.582 130.795C307.582 126.851 307.243 124.117 306.566 122.594C305.889 121.07 304.908 120.309 303.621 120.309C302.335 120.309 301.353 121.07 300.676 122.594C299.999 124.117 299.66 126.851 299.66 130.795C299.66 134.79 299.999 137.54 300.676 139.047ZM335.232 127.52C338.381 129.432 340.514 131.252 341.631 132.979C342.748 134.688 343.307 136.702 343.307 139.021C343.307 142.288 342.215 144.904 340.031 146.867C337.848 148.814 334.86 149.787 331.068 149.787C326.633 149.787 322.994 148.746 320.15 146.664L321.979 138.691C324.788 140.706 327.454 141.713 329.977 141.713C332.651 141.713 333.988 140.816 333.988 139.021C333.988 138.294 333.667 137.566 333.023 136.838C332.38 136.11 331.111 135.188 329.215 134.07C326.236 132.378 324.094 130.6 322.791 128.738C321.488 126.859 320.836 124.667 320.836 122.162C320.836 119.048 321.936 116.551 324.137 114.672C326.337 112.776 329.257 111.828 332.896 111.828C336.536 111.828 339.676 112.488 342.316 113.809L341.275 121.908C340.514 121.417 339.439 120.943 338.051 120.486C336.663 120.012 335.393 119.775 334.242 119.775C331.602 119.775 330.29 120.656 330.307 122.416C330.307 123.245 330.713 124.058 331.525 124.854C332.338 125.632 333.574 126.521 335.232 127.52Z" fill="white"/>
<path d="M232.037 98.9999C220.094 99.1377 208.152 99.2812 196.215 99.6142C184.278 99.9471 172.263 100.464 160.315 101.359C148.366 102.255 136.532 103.524 124.746 105.343C118.95 106.239 113.173 107.255 107.437 108.455C102.874 109.408 98.3651 110.579 94.0558 112.319C89.7466 114.058 85.9087 116.314 82.8566 119.523C79.8044 122.732 77.9067 126.458 77.272 130.603C75.9787 138.99 79.466 147.487 85.1834 153.807C91.6383 160.937 101.254 164.858 110.676 167.057C115.711 168.228 120.848 168.957 125.998 169.526C131.775 170.169 137.572 170.645 143.374 171.024C155.365 171.805 167.386 172.097 179.401 171.965C191.416 171.833 203.353 171.288 215.295 170.404C227.238 169.52 239.205 168.291 251.111 166.804C263.018 165.318 275.081 163.544 287.006 161.586C292.923 160.616 298.834 159.594 304.732 158.538C309.815 157.625 314.91 156.729 319.957 155.621C328.89 153.652 338.004 150.966 345.565 145.885C353.119 140.816 360.596 132.17 358.71 122.778C356.824 113.386 344.706 109.747 336.082 107.473C324.756 104.494 313.073 102.915 301.396 101.836C289.719 100.757 277.372 100.056 265.339 99.7175C253.305 99.3788 241 99.4075 228.84 99.8151C216.679 100.223 204.634 100.992 192.571 102.14C186.738 102.691 180.918 103.334 175.11 104.058C174.3 104.161 173.599 104.643 173.599 105.493C173.599 106.187 174.294 107.031 175.11 106.928C186.926 105.453 198.796 104.333 210.684 103.57C222.572 102.806 234.394 102.41 246.264 102.358C258.134 102.307 270.107 102.622 282.007 103.288C293.908 103.954 305.143 104.792 316.584 106.486C322.266 107.33 327.917 108.392 333.477 109.781C338.288 110.981 343.274 112.255 347.692 114.483C351.469 116.383 354.836 119.185 355.755 123.324C356.728 127.727 354.721 132.354 352.086 135.896C347.033 142.693 339.067 146.918 330.975 149.651C321.722 152.78 311.961 154.347 302.339 156.058C290.771 158.119 279.173 160.025 267.538 161.712C255.904 163.4 244.209 164.864 232.49 166.041C220.771 167.218 208.998 168.096 197.212 168.607C185.427 169.118 173.768 169.267 162.049 168.986C150.33 168.705 138.726 168.01 127.128 166.782C117.385 165.748 107.37 164.158 98.5585 159.887C94.4608 157.9 90.6713 155.375 87.6131 152.091C84.8571 149.129 82.6934 145.609 81.3879 141.849C80.0824 138.089 79.605 134.352 80.3302 130.609C81.0555 126.866 83.0862 123.272 86.0538 120.522C92.4663 114.592 101.828 112.502 110.302 110.803C121.725 108.518 133.274 106.842 144.873 105.619C156.471 104.396 168.129 103.604 179.794 103.076C191.459 102.548 203.28 102.278 215.023 102.094C220.699 102.008 226.374 101.939 232.043 101.87C233.989 101.847 233.989 98.9769 232.043 98.9999H232.037Z" fill="#FF7145"/>
</svg>
