<svg width="1728" height="867" viewBox="0 0 1728 867" fill="none" xmlns="http://www.w3.org/2000/svg">
<path d="M1269 197.444L1281.83 162L1283.07 199.669L1306.23 169.934L1295.78 206.138L1326.99 185.013L1305.86 216.222L1342.07 205.772L1312.33 228.916L1350 230.174L1314.56 243L1350 255.826L1312.33 257.074L1342.07 280.228L1305.86 269.778L1326.99 300.987L1295.78 279.862L1306.23 316.066L1283.07 286.331L1281.83 324L1269 288.556L1256.17 324L1254.92 286.331L1231.77 316.066L1242.22 279.862L1211.01 300.987L1232.14 269.778L1195.93 280.228L1225.67 257.074L1188 255.826L1223.44 243L1188 230.174L1225.67 228.916L1195.93 205.772L1232.14 216.222L1211.01 185.013L1242.22 206.138L1231.77 169.934L1254.92 199.669L1256.17 162L1269 197.444Z" stroke="#2F2F2F" stroke-width="0.88" stroke-miterlimit="10"/>
</svg>
