<svg width="372" height="381" viewBox="0 0 372 381" fill="none" xmlns="http://www.w3.org/2000/svg">
<g clip-path="url(#clip0_61_793)">
<path d="M217.989 250.837C282.049 261.252 342.422 217.764 352.837 153.705C363.251 89.6456 319.764 29.2724 255.705 18.8576C191.645 8.44285 131.272 51.9304 120.857 115.99C110.442 180.049 153.93 240.422 217.989 250.837Z" fill="#FFB9CD"/>
<path d="M220.017 238.362C277.187 247.657 331.067 208.847 340.362 151.677C349.656 94.507 310.846 40.627 253.676 31.3323C196.506 22.0376 142.626 60.8481 133.332 118.018C124.037 175.188 162.847 229.068 220.017 238.362Z" fill="#FF6533"/>
<path d="M204.609 99.0266C206.984 103.383 201.697 107.197 198.311 103.563C198.271 103.52 198.232 103.466 198.204 103.414C195.83 99.0519 201.122 95.2453 204.502 98.8783C204.543 98.9206 204.581 98.9746 204.609 99.0266ZM202.67 108.79L202.275 118.285C202.275 118.285 202.268 118.332 202.264 118.355L201.082 125.628C201.03 125.947 200.726 126.165 200.407 126.113L194.469 125.148C194.15 125.096 193.931 124.793 193.983 124.474L195.165 117.201C195.165 117.201 195.173 117.155 195.177 117.131L197.81 107.999C197.892 107.715 198.177 107.535 198.467 107.582L202.167 108.184C202.463 108.232 202.671 108.492 202.659 108.788L202.67 108.79Z" fill="#FCF9CA"/>
<path d="M233.022 118.79L234.683 121.239C234.871 121.513 234.792 121.888 234.513 122.068L230.319 124.726C230.053 124.897 229.696 124.821 229.518 124.56L227.624 121.782C227.485 121.575 227.226 121.485 226.983 121.553C225.009 122.089 222.853 122.238 220.673 121.884C212.745 120.595 207.332 113.322 208.653 105.197C209.974 97.0714 217.412 91.8875 225.34 93.1764C233.268 94.4653 238.681 101.739 237.36 109.864C236.826 113.152 235.281 115.949 233.102 118.041C232.891 118.239 232.851 118.56 233.015 118.795L233.022 118.79ZM223.005 114.899L220.686 111.475C220.499 111.2 220.578 110.826 220.856 110.651L225.05 107.993C225.316 107.822 225.673 107.898 225.851 108.159L228.709 112.398C228.945 112.746 229.462 112.747 229.692 112.397C230.35 111.385 230.83 110.195 231.051 108.832C231.853 103.903 228.835 100.055 224.341 99.3239C219.846 98.5931 215.765 101.287 214.963 106.217C214.162 111.146 217.18 114.994 221.674 115.725C221.941 115.768 222.204 115.799 222.469 115.818C222.962 115.857 223.278 115.307 222.999 114.898L223.005 114.899Z" fill="#FCF9CA"/>
<path d="M261.618 108.325L258.601 126.883C258.549 127.202 258.246 127.421 257.927 127.369L253.125 126.588C252.829 126.54 252.63 126.264 252.678 125.968C252.75 125.527 252.276 125.182 251.888 125.411C250.605 126.161 248.877 126.463 246.865 126.136C242.881 125.488 239.956 122.096 240.821 116.772L242.695 105.248C242.747 104.929 243.05 104.711 243.369 104.763L248.125 105.536C248.444 105.588 248.662 105.891 248.61 106.21L246.877 116.87C246.479 119.317 247.83 120.709 249.727 121.018C251.896 121.37 253.598 120.349 254.052 117.554L255.708 107.37C255.76 107.051 256.063 106.833 256.382 106.884L261.138 107.658C261.457 107.709 261.675 108.013 261.623 108.332L261.618 108.325Z" fill="#FCF9CA"/>
<path d="M274.616 125.225C276.06 125.46 277.394 125.165 278.324 124.572C278.53 124.439 278.799 124.47 278.988 124.62L282.411 127.403C282.701 127.635 282.696 128.068 282.418 128.315C280.115 130.322 277.156 131.061 273.676 130.495C266.931 129.399 263.493 124.184 264.448 118.31C265.403 112.435 270.397 108.592 276.632 109.605C282.391 110.541 285.923 115.688 284.955 121.644C284.848 122.299 284.699 122.924 284.497 123.51C284.405 123.781 284.129 123.938 283.845 123.892L271.266 121.847C270.808 121.772 270.44 122.242 270.633 122.667C271.316 124.177 272.801 124.93 274.616 125.225ZM278.585 118.501C279.019 118.571 279.367 118.157 279.239 117.732C278.713 115.956 277.277 115.085 275.745 114.836C273.82 114.523 272.308 115.111 271.362 116.499C271.127 116.848 271.353 117.319 271.765 117.386L278.585 118.495L278.585 118.501ZM278.577 107.856L274.169 107.139C273.723 107.067 273.523 106.54 273.806 106.187L277.009 102.231C277.143 102.069 277.352 101.99 277.561 102.024L283.088 102.922C283.581 103.002 283.754 103.62 283.38 103.946L279.057 107.72C278.926 107.835 278.751 107.884 278.577 107.856Z" fill="#FCF9CA"/>
<path d="M151.667 139.762C153.111 139.997 154.445 139.702 155.375 139.109C155.581 138.976 155.85 139.007 156.039 139.157L159.462 141.94C159.752 142.172 159.747 142.606 159.469 142.852C157.166 144.859 154.207 145.598 150.727 145.032C143.982 143.936 140.544 138.722 141.499 132.847C142.454 126.972 147.448 123.129 153.683 124.142C159.442 125.079 162.974 130.225 162.006 136.181C161.899 136.836 161.744 137.46 161.548 138.047C161.456 138.318 161.18 138.475 160.896 138.429L148.317 136.384C147.859 136.309 147.491 136.779 147.684 137.204C148.367 138.714 149.852 139.467 151.667 139.762ZM155.635 133.038C156.07 133.108 156.418 132.695 156.29 132.269C155.764 130.493 154.328 129.622 152.796 129.374C150.871 129.06 149.359 129.648 148.413 131.036C148.178 131.385 148.404 131.856 148.816 131.923L155.636 133.032L155.635 133.038Z" fill="#FCF9CA"/>
<path d="M187.89 130.864L183.59 157.31C183.539 157.629 183.235 157.848 182.916 157.796L178.161 157.023C177.842 156.971 177.623 156.667 177.675 156.348L178.946 148.531C179.025 148.043 178.517 147.693 178.086 147.926C176.694 148.688 174.968 148.979 172.898 148.643C167.73 147.803 164.211 142.575 165.166 136.7C166.121 130.825 171.115 126.982 176.283 127.822C178.394 128.166 179.964 129.016 181.043 130.216C181.345 130.55 181.896 130.384 181.968 129.943L181.981 129.862C182.029 129.566 182.306 129.367 182.601 129.415L187.403 130.196C187.722 130.248 187.941 130.551 187.889 130.87L187.89 130.864ZM180.466 139.182C180.947 136.224 179.277 134.048 176.557 133.606C173.837 133.163 171.563 134.699 171.082 137.656C170.601 140.614 172.273 142.785 174.992 143.227C177.712 143.669 179.986 142.134 180.466 139.182Z" fill="#FCF9CA"/>
<path d="M211.865 134.762L208.847 153.321C208.796 153.64 208.492 153.858 208.173 153.806L203.371 153.026C203.075 152.978 202.876 152.701 202.924 152.405C202.996 151.965 202.522 151.62 202.134 151.848C200.851 152.598 199.123 152.901 197.111 152.573C193.127 151.926 190.202 148.533 191.067 143.209L192.941 131.686C192.993 131.367 193.296 131.148 193.615 131.2L198.371 131.973C198.69 132.025 198.908 132.328 198.856 132.647L197.123 143.307C196.725 145.754 198.077 147.147 199.973 147.455C202.142 147.808 203.844 146.787 204.298 143.991L205.954 133.807C206.006 133.488 206.309 133.27 206.628 133.322L211.384 134.095C211.703 134.147 211.921 134.45 211.869 134.769L211.865 134.762Z" fill="#FCF9CA"/>
<path d="M218.09 132.316C215.778 128.231 220.875 124.56 224.018 128.041C224.053 128.082 224.087 128.13 224.115 128.176C226.427 132.26 221.33 135.932 218.187 132.451C218.152 132.409 218.118 132.362 218.09 132.316ZM217.863 135.142L222.619 135.915C222.937 135.967 223.156 136.271 223.104 136.59L220.087 155.148C220.035 155.467 219.732 155.685 219.413 155.634L214.657 154.86C214.338 154.809 214.12 154.505 214.171 154.186L217.189 135.628C217.241 135.309 217.544 135.09 217.863 135.142Z" fill="#FCF9CA"/>
<path d="M248.134 150.183C247.179 156.058 242.185 159.901 237.018 159.061C234.947 158.725 233.408 157.903 232.324 156.739C231.989 156.381 231.396 156.552 231.316 157.039L230.045 164.857C229.993 165.176 229.69 165.394 229.371 165.342L224.616 164.569C224.297 164.517 224.078 164.214 224.13 163.895L228.429 137.449C228.481 137.13 228.785 136.912 229.104 136.964L233.906 137.744C234.201 137.793 234.401 138.069 234.352 138.365L234.339 138.446C234.267 138.892 234.737 139.219 235.131 138.997C236.54 138.202 238.293 137.892 240.404 138.235C245.571 139.075 249.09 144.303 248.135 150.178L248.134 150.183ZM242.219 149.222C242.7 146.264 241.03 144.088 238.31 143.645C235.59 143.203 233.316 144.738 232.835 147.696C232.354 150.654 234.026 152.824 236.745 153.267C239.465 153.709 241.739 152.174 242.219 149.222Z" fill="#FCF9CA"/>
<path d="M274.209 144.898L271.192 163.457C271.14 163.776 270.837 163.994 270.518 163.942L265.716 163.162C265.42 163.113 265.221 162.837 265.269 162.541L265.282 162.46C265.355 162.014 264.884 161.687 264.491 161.909C263.082 162.704 261.329 163.014 259.218 162.671C254.051 161.831 250.531 156.603 251.486 150.728C252.441 144.853 257.436 141.01 262.603 141.85C264.714 142.194 266.284 143.044 267.363 144.244C267.666 144.578 268.217 144.412 268.288 143.971L268.301 143.89C268.35 143.594 268.626 143.395 268.922 143.443L273.724 144.224C274.043 144.276 274.261 144.579 274.209 144.898ZM266.791 153.217C267.272 150.259 265.602 148.082 262.882 147.64C260.162 147.198 257.888 148.733 257.408 151.691C256.927 154.649 258.598 156.819 261.318 157.262C264.038 157.704 266.311 156.169 266.791 153.217Z" fill="#FCF9CA"/>
<path d="M292.408 162.429L291.699 166.791C291.647 167.11 291.344 167.328 291.025 167.276L276.41 164.9C276.091 164.848 275.873 164.545 275.925 164.226L276.44 161.054C276.46 160.932 276.521 160.817 276.606 160.729L284.774 152.634C285.115 152.297 284.924 151.712 284.454 151.636L279.113 150.767C278.794 150.715 278.575 150.412 278.627 150.093L279.336 145.732C279.388 145.413 279.691 145.194 280.01 145.246L293.836 147.494C294.155 147.546 294.374 147.849 294.322 148.168L293.806 151.34C293.787 151.462 293.726 151.577 293.64 151.665L285.473 159.76C285.132 160.098 285.323 160.682 285.793 160.759L291.923 161.755C292.242 161.807 292.46 162.11 292.408 162.429Z" fill="#FCF9CA"/>
<path d="M295.58 157.897C296.535 152.022 301.924 148.243 307.723 149.186C313.523 150.129 317.436 155.42 316.481 161.295C315.526 167.17 310.138 170.949 304.338 170.006C298.539 169.063 294.625 163.772 295.58 157.897ZM310.56 160.333C311.015 157.531 309.344 155.361 306.781 154.944C304.218 154.527 301.944 156.063 301.49 158.858C301.035 161.653 302.705 163.83 305.269 164.246C307.832 164.663 310.106 163.128 310.56 160.333Z" fill="#FCF9CA"/>
<path d="M319.891 171.41C317.505 167.045 322.804 163.228 326.188 166.874C326.229 166.916 326.262 166.969 326.29 167.015C328.659 171.371 323.379 175.179 319.993 171.551C319.952 171.509 319.919 171.456 319.891 171.41ZM322.23 152.075L323.413 144.802C323.465 144.483 323.768 144.264 324.087 144.316L330.026 145.282C330.345 145.334 330.563 145.637 330.511 145.956L329.329 153.229C329.329 153.229 329.321 153.275 329.318 153.298L326.684 162.43C326.602 162.715 326.317 162.894 326.027 162.847L322.327 162.246C322.031 162.198 321.823 161.938 321.836 161.642L322.231 152.146C322.231 152.146 322.238 152.1 322.242 152.076L322.23 152.075Z" fill="#FCF9CA"/>
<path d="M270.137 59.0815C266.596 57.2439 262.812 55.8786 258.915 55.0247C258.249 50.9878 257.583 46.9566 256.912 42.9187C256.726 41.7931 256.338 40.4442 255.231 40.1869C254.043 39.9163 253.085 41.1237 252.495 42.1886C250.489 45.815 248.839 49.6304 247.555 53.5708C243.964 53.3619 240.378 53.154 236.787 52.9452C236.251 52.9116 235.695 52.8867 235.185 53.0597C234.675 53.2327 234.212 53.6635 234.171 54.2046C234.117 54.8684 234.684 55.4071 235.199 55.83C237.638 57.8517 240.078 59.8734 242.512 61.8884C241.474 64.7556 240.566 67.6677 239.784 70.6122C239.478 71.7648 239.225 73.0988 239.94 74.0484C240.576 74.8959 241.803 75.1074 242.823 74.8387C243.849 74.5709 244.718 73.9145 245.56 73.2717C247.517 71.7802 249.475 70.2829 251.432 68.7914C252.639 71.6902 254.275 74.4087 256.294 76.8204C256.912 77.5578 257.756 78.3379 258.699 78.1342C259.656 77.9265 260.096 76.8313 260.334 75.8818C261.212 72.3816 261.472 68.7331 261.103 65.1431C263.754 64.1811 266.404 63.2249 269.054 62.2629C269.402 62.1349 269.765 61.9915 270.108 61.8211C271.235 61.2602 271.257 59.6625 270.137 59.0815Z" fill="#FAB31B"/>
<path d="M187.086 98.9041C183.905 96.4999 180.4 94.5192 176.701 93.0309C176.717 88.938 176.733 84.851 176.755 80.7591C176.761 79.6231 176.602 78.2222 175.554 77.7839C174.428 77.3151 173.278 78.3484 172.522 79.3029C169.941 82.5443 167.672 86.0269 165.754 89.6974C162.248 88.8894 158.747 88.088 155.241 87.2799C154.714 87.1584 154.174 87.035 153.642 87.1211C153.11 87.2073 152.583 87.5561 152.451 88.0764C152.287 88.7223 152.751 89.3454 153.186 89.8508C155.254 92.2526 157.318 94.6477 159.386 97.0495C157.883 99.7042 156.5 102.42 155.239 105.197C154.748 106.278 154.272 107.558 154.821 108.612C155.305 109.554 156.482 109.965 157.533 109.874C158.584 109.777 159.552 109.28 160.49 108.783C162.67 107.638 164.851 106.492 167.026 105.346C167.73 108.407 168.893 111.364 170.476 114.074C170.96 114.903 171.663 115.815 172.629 115.769C173.607 115.72 174.222 114.719 174.612 113.824C176.059 110.523 176.929 106.968 177.169 103.37C179.941 102.868 182.72 102.361 185.492 101.859C185.854 101.793 186.236 101.713 186.606 101.6C187.814 101.237 188.099 99.6641 187.092 98.905L187.086 98.9041Z" fill="#FAB31B"/>
<path d="M207.838 195.01C204.589 192.696 201.031 190.82 197.292 189.432C197.195 185.345 197.097 181.257 196.995 177.163C196.965 176.027 196.77 174.632 195.704 174.227C194.567 173.792 193.448 174.854 192.717 175.831C190.227 179.14 188.06 182.693 186.246 186.416C182.723 185.713 179.196 185.002 175.673 184.298C175.142 184.194 174.6 184.088 174.072 184.187C173.544 184.286 173.027 184.648 172.905 185.176C172.757 185.831 173.241 186.439 173.692 186.929C175.823 189.27 177.96 191.611 180.093 193.946C178.666 196.643 177.361 199.401 176.178 202.209C175.714 203.306 175.278 204.593 175.852 205.639C176.362 206.567 177.551 206.945 178.6 206.824C179.651 206.697 180.606 206.167 181.529 205.651C183.672 204.445 185.821 203.235 187.964 202.03C188.755 205.07 190.001 207.992 191.657 210.655C192.167 211.47 192.897 212.362 193.856 212.286C194.833 212.213 195.422 211.189 195.789 210.285C197.142 206.945 197.909 203.361 198.048 199.758C200.809 199.178 203.565 198.596 206.326 198.015C206.69 197.937 207.067 197.85 207.433 197.724C208.629 197.324 208.874 195.744 207.843 195.017L207.838 195.01Z" fill="#FAB31B"/>
<path d="M334.452 113.737C330.68 112.445 326.736 111.656 322.756 111.389C321.502 107.495 320.241 103.605 318.987 99.7104C318.639 98.6299 318.05 97.3495 316.915 97.2603C315.699 97.1637 314.933 98.5037 314.503 99.6481C313.056 103.532 311.986 107.549 311.304 111.635C307.722 111.957 304.144 112.286 300.562 112.609C300.024 112.658 299.474 112.712 298.993 112.961C298.512 113.21 298.122 113.7 298.159 114.242C298.205 114.91 298.842 115.353 299.416 115.702C302.126 117.34 304.836 118.977 307.547 120.614C306.948 123.6 306.475 126.619 306.143 129.648C306.011 130.829 305.962 132.19 306.809 133.024C307.563 133.766 308.808 133.796 309.781 133.377C310.754 132.958 311.517 132.183 312.254 131.422C313.97 129.653 315.68 127.889 317.396 126.12C319.018 128.813 321.044 131.255 323.39 133.339C324.107 133.98 325.062 134.623 325.963 134.281C326.877 133.93 327.152 132.79 327.246 131.811C327.592 128.218 327.309 124.571 326.418 121.081C328.899 119.74 331.379 118.399 333.86 117.052C334.185 116.879 334.521 116.683 334.837 116.461C335.871 115.736 335.652 114.153 334.463 113.745L334.452 113.737Z" fill="#FAB31B"/>
<path d="M287.872 199.302C284.173 197.813 280.275 196.816 276.31 196.344C275.256 192.393 274.209 188.437 273.155 184.485C272.863 183.384 272.344 182.074 271.212 181.931C270.005 181.777 269.164 183.069 268.679 184.186C267.032 187.984 265.756 191.95 264.861 195.989C261.267 196.125 257.679 196.268 254.085 196.404C253.546 196.423 252.994 196.447 252.5 196.67C252.005 196.893 251.589 197.367 251.597 197.904C251.607 198.573 252.219 199.053 252.772 199.423C255.394 201.2 258.017 202.972 260.639 204.75C259.885 207.705 259.256 210.692 258.768 213.696C258.576 214.873 258.451 216.228 259.256 217.103C259.968 217.886 261.209 217.974 262.203 217.612C263.197 217.244 264.002 216.506 264.774 215.786C266.576 214.108 268.379 212.431 270.186 210.761C271.665 213.531 273.56 216.077 275.797 218.286C276.484 218.964 277.402 219.654 278.319 219.357C279.249 219.056 279.582 217.925 279.727 216.961C280.259 213.392 280.169 209.735 279.459 206.196C282.007 204.985 284.549 203.774 287.098 202.563C287.433 202.403 287.777 202.227 288.102 202.024C289.174 201.359 289.041 199.765 287.867 199.295L287.872 199.302Z" fill="#FAB31B"/>
<path d="M167.309 182.653C167.013 182.605 166.741 182.448 166.552 182.185C160.809 174.34 156.761 165.55 154.511 156.065C154.364 155.434 154.753 154.8 155.384 154.653C156.015 154.505 156.648 154.894 156.796 155.525C158.97 164.707 162.886 173.207 168.443 180.802C168.828 181.328 168.715 182.06 168.188 182.445C167.924 182.64 167.604 182.707 167.308 182.659L167.309 182.653Z" fill="#FAB31B"/>
<path d="M223.727 215.577C218.288 214.693 212.905 213.347 207.683 211.558C207.069 211.345 206.743 210.679 206.956 210.065C207.169 209.45 207.829 209.123 208.449 209.337C221.778 213.909 236.118 215.484 249.929 213.908C250.578 213.835 251.157 214.298 251.231 214.941C251.306 215.584 250.841 216.17 250.198 216.244C241.464 217.241 232.519 217.007 223.739 215.579L223.727 215.577Z" fill="#FAB31B"/>
<path d="M294.789 196.444C294.54 196.403 294.298 196.281 294.116 196.078C293.676 195.602 293.708 194.857 294.184 194.417C299.359 189.645 303.799 184.086 307.377 177.894C307.7 177.333 308.422 177.141 308.983 177.464C309.543 177.788 309.735 178.509 309.412 179.07C305.717 185.47 301.128 191.212 295.778 196.146C295.505 196.399 295.137 196.5 294.789 196.444Z" fill="#FAB31B"/>
<path d="M305.816 93.289C305.485 93.2352 305.183 93.0432 304.995 92.7329C299.107 82.9654 290.962 74.5515 280.785 67.7299C280.248 67.3688 280.099 66.6362 280.46 66.0997C280.821 65.5631 281.554 65.4143 282.09 65.7754C292.557 72.7929 300.942 81.4542 307.008 91.5185C307.341 92.0726 307.164 92.7939 306.609 93.1322C306.358 93.282 306.078 93.3256 305.817 93.2832L305.816 93.289Z" fill="#FAB31B"/>
<path d="M181.606 72.8867C181.334 72.8423 181.076 72.7052 180.888 72.4722C180.475 71.9706 180.548 71.2323 181.049 70.8198C192.989 61.0161 208.159 54.9582 224.924 53.3025C225.572 53.2352 226.143 53.7091 226.211 54.357C226.272 55.0039 225.804 55.5767 225.156 55.644C208.857 57.2563 194.122 63.129 182.545 72.6405C182.271 72.8637 181.93 72.9453 181.611 72.8934L181.606 72.8867Z" fill="#FAB31B"/>
</g>
<g clip-path="url(#clip1_61_793)">
<path d="M118 381C183.17 381 236 328.17 236 263C236 197.83 183.17 145 118 145C52.8304 145 0 197.83 0 263C0 328.17 52.8304 381 118 381Z" fill="#FFB9CD"/>
<path d="M97.9999 242.332C91.2975 240.733 86.3592 237.187 81.002 233.087C82.418 227.358 83.834 221.629 85.2559 215.9C90.6131 220.007 95.5455 223.547 102.254 225.146C100.838 230.874 99.4218 236.603 97.9999 242.332Z" fill="#342E2E"/>
<path d="M116.756 244.45C110.419 244.238 104.16 244.031 98 242.332C99.416 236.603 100.832 230.874 102.254 225.146C108.419 226.845 114.673 227.051 121.01 227.264L116.756 244.45Z" fill="#FCF9CA"/>
<path d="M136.102 244.197C129.653 244.256 123.205 244.391 116.756 244.456L121.01 227.27C127.458 227.211 133.907 227.075 140.356 227.01C138.94 232.739 137.524 238.468 136.102 244.197Z" fill="#342E2E"/>
<path d="M154.864 246.315C148.698 244.616 142.444 244.409 136.107 244.197C137.523 238.468 138.939 232.739 140.361 227.01C146.698 227.222 152.958 227.429 159.117 229.128C157.701 234.857 156.285 240.586 154.864 246.315Z" fill="#FCF9CA"/>
<path d="M171.856 255.56C166.499 251.454 161.567 247.914 154.858 246.315C156.274 240.586 157.69 234.857 159.112 229.128C165.425 230.638 170.175 233.866 175.184 237.671C175.744 238.096 175.998 238.822 175.833 239.506C174.511 244.857 173.184 250.215 171.862 255.566L171.856 255.56Z" fill="#342E2E"/>
<path d="M93.7459 259.519C87.0435 257.92 82.1052 254.374 76.748 250.274C78.164 244.545 79.58 238.816 81.0019 233.087C86.3591 237.193 91.2915 240.733 97.9998 242.332C96.5838 248.061 95.1678 253.79 93.7459 259.519Z" fill="#FCF9CA"/>
<path d="M112.508 261.637C106.171 261.425 99.9116 261.218 93.752 259.519C95.168 253.79 96.584 248.061 98.0059 242.332C104.171 244.031 110.425 244.238 116.762 244.45C115.346 250.179 113.93 255.908 112.508 261.637Z" fill="#342E2E"/>
<path d="M131.854 261.383C125.405 261.442 118.957 261.578 112.508 261.643C113.924 255.914 115.34 250.185 116.762 244.456C123.21 244.397 129.659 244.262 136.108 244.197C134.692 249.926 133.276 255.654 131.854 261.383Z" fill="#FCF9CA"/>
<path d="M150.61 263.501C144.444 261.802 138.19 261.596 131.854 261.383C133.27 255.654 134.686 249.926 136.107 244.197C142.444 244.409 148.704 244.616 154.864 246.315C153.448 252.044 152.032 257.773 150.61 263.501Z" fill="#342E2E"/>
<path d="M167.608 272.747C162.251 268.64 157.319 265.1 150.61 263.501C152.026 257.773 153.442 252.044 154.864 246.315C161.567 247.914 166.505 251.46 171.862 255.56C170.446 261.289 169.03 267.018 167.608 272.747Z" fill="#FCF9CA"/>
<path d="M89.4979 276.706C82.7955 275.107 77.8572 271.561 72.5 267.46C73.916 261.731 75.332 256.003 76.7539 250.274C82.1111 254.38 87.0435 257.92 93.7518 259.519C92.3358 265.248 90.9198 270.977 89.4979 276.706Z" fill="#342E2E"/>
<path d="M108.254 278.824C101.918 278.611 95.6576 278.405 89.498 276.706C90.914 270.977 92.33 265.248 93.7519 259.519C99.9174 261.218 106.171 261.425 112.508 261.637C111.092 267.366 109.676 273.095 108.254 278.824Z" fill="#FCF9CA"/>
<path d="M127.6 278.57C121.151 278.629 114.703 278.765 108.254 278.83C109.67 273.101 111.086 267.372 112.508 261.643C118.957 261.584 125.405 261.448 131.854 261.383C130.438 267.112 129.022 272.841 127.6 278.57Z" fill="#342E2E"/>
<path d="M146.363 280.688C140.197 278.989 133.943 278.782 127.606 278.57C129.022 272.841 130.438 267.112 131.86 261.383C138.197 261.596 144.457 261.802 150.616 263.501C149.2 269.23 147.784 274.959 146.363 280.688Z" fill="#FCF9CA"/>
<path d="M163.354 289.933C157.997 285.827 153.065 282.287 146.356 280.688C147.772 274.959 149.188 269.23 150.61 263.501C157.313 265.1 162.251 268.646 167.608 272.747C166.192 278.476 164.776 284.205 163.354 289.933Z" fill="#342E2E"/>
<path d="M85.244 293.892C78.5416 292.293 73.6033 288.748 68.2461 284.647C69.6621 278.918 71.0781 273.189 72.5 267.46C77.8572 271.567 82.7896 275.107 89.4979 276.706C88.0819 282.435 86.6659 288.163 85.244 293.892Z" fill="#FCF9CA"/>
<path d="M104 296.01C97.6636 295.798 91.4037 295.592 85.2441 293.892C86.6601 288.163 88.0761 282.435 89.498 276.706C95.6635 278.405 101.918 278.611 108.254 278.824C106.838 284.553 105.422 290.282 104 296.01Z" fill="#342E2E"/>
<path d="M123.352 295.757C116.903 295.816 110.455 295.951 104.006 296.016C105.422 290.287 106.838 284.559 108.26 278.83C114.708 278.771 121.157 278.635 127.606 278.57C126.19 284.299 124.774 290.028 123.352 295.757Z" fill="#FCF9CA"/>
<path d="M142.109 297.875C135.943 296.176 129.689 295.969 123.353 295.757C124.769 290.028 126.185 284.299 127.606 278.57C133.943 278.782 140.203 278.989 146.363 280.688C144.947 286.417 143.531 292.146 142.109 297.875Z" fill="#342E2E"/>
<path d="M156.97 305.504C152.398 302.099 147.914 299.261 142.108 297.875C143.524 292.146 144.94 286.417 146.362 280.688C153.065 282.287 158.003 285.833 163.36 289.933C162.157 294.795 160.953 299.657 159.755 304.512C159.448 305.745 157.991 306.259 156.976 305.504H156.97Z" fill="#FCF9CA"/>
<path d="M146.893 262.646C143.637 275.632 129.252 283.32 116.668 283.792C103.646 284.281 94.2595 273.136 97.4632 260.374C100.72 247.389 115.104 239.701 127.689 239.229C140.71 238.739 150.091 249.89 146.893 262.646Z" fill="#FAB31B"/>
<path d="M116.822 256.085C116.497 257.389 115.046 258.457 113.588 258.451C112.125 258.445 111.211 257.354 111.535 256.05C111.86 254.746 113.299 253.719 114.757 253.725C116.214 253.731 117.146 254.775 116.822 256.079V256.085Z" fill="#342E2E"/>
<path d="M135.578 255.867C135.253 257.171 133.814 258.197 132.356 258.191C130.893 258.186 129.967 257.141 130.291 255.837C130.616 254.533 132.067 253.466 133.525 253.471C134.982 253.477 135.902 254.569 135.578 255.873V255.867Z" fill="#342E2E"/>
<path d="M108.556 263.791C108.243 265.047 108.172 266.269 108.308 267.413C108.845 272.121 112.981 275.437 118.751 275.366C123.966 275.301 130.462 271.815 133.17 267.248C133.861 266.121 134.392 264.923 134.704 263.661" stroke="#342E2E" stroke-width="3" stroke-miterlimit="10" stroke-linecap="round"/>
<path d="M85.8866 212.956C85.2022 212.785 84.4883 212.891 83.8806 213.257C83.2729 213.623 82.8422 214.207 82.6711 214.891L49.0293 334.124C48.6753 335.546 49.5426 336.986 50.9645 337.34C51.1179 337.375 51.2713 337.405 51.4247 337.411C51.4896 337.411 51.5486 337.417 51.6135 337.417C52.823 337.417 53.8909 336.597 54.1859 335.399L87.8277 216.166C88.1817 214.744 87.3085 213.304 85.8925 212.95L85.8866 212.956Z" fill="#342E2E"/>
<path d="M71.7619 320.277C71.5731 320.277 71.3843 320.372 71.2722 320.543L69.514 323.192C69.3311 323.463 69.4078 323.829 69.6792 324.012L72.9478 326.177C73.2192 326.36 73.2959 326.726 73.113 326.997L65.2188 338.904C65.0359 339.175 65.1126 339.541 65.384 339.724L68.1806 341.576C68.2809 341.641 68.393 341.677 68.5051 341.677C68.6939 341.677 68.8827 341.582 68.9948 341.411L76.889 329.505C77.0011 329.334 77.1899 329.239 77.3787 329.239C77.4908 329.239 77.6029 329.269 77.7032 329.34L80.9718 331.505C81.0721 331.57 81.1842 331.605 81.2963 331.605C81.4851 331.605 81.6739 331.511 81.786 331.34L83.5442 328.691C83.7271 328.419 83.6504 328.053 83.379 327.871L72.0864 320.383C71.9861 320.319 71.874 320.283 71.7619 320.283V320.277Z" fill="#119349"/>
<path d="M84.9954 328.632C84.7653 328.632 84.547 328.767 84.4526 328.997L77.2841 346.208C77.1602 346.509 77.3018 346.857 77.6027 346.981L88.0162 351.317C88.0929 351.347 88.1696 351.364 88.2404 351.364C88.4705 351.364 88.6888 351.229 88.7832 350.999L90.0045 348.06C90.1284 347.759 89.9868 347.411 89.6859 347.287L83.4555 344.691C83.1546 344.568 83.013 344.219 83.1369 343.919L84.0337 341.765C84.1281 341.541 84.3464 341.399 84.5765 341.399C84.6532 341.399 84.7299 341.411 84.8007 341.446L90.2464 343.718C90.3231 343.747 90.3998 343.765 90.4706 343.765C90.7007 343.765 90.919 343.629 91.0134 343.399L92.217 340.514C92.3409 340.213 92.1993 339.865 91.8984 339.741L86.4527 337.47C86.1518 337.346 86.0102 336.998 86.1341 336.697L86.9424 334.756C87.0368 334.532 87.2551 334.39 87.4852 334.39C87.5619 334.39 87.6386 334.402 87.7094 334.437L93.81 336.98C93.8867 337.01 93.9634 337.027 94.0342 337.027C94.2643 337.027 94.4826 336.892 94.577 336.662L95.7983 333.723C95.9222 333.422 95.7806 333.074 95.4797 332.95L85.196 328.667C85.1193 328.638 85.0426 328.62 84.9718 328.62L84.9954 328.632Z" fill="#119349"/>
<path d="M102.784 334.726C102.571 334.726 102.371 334.838 102.265 335.033L92.7656 352.279C92.5709 352.633 92.7833 353.075 93.1786 353.146L96.8189 353.795C96.8543 353.801 96.8897 353.807 96.9251 353.807C97.1434 353.807 97.344 353.689 97.4443 353.494L98.5653 351.364C98.6656 351.17 98.8721 351.052 99.0845 351.052C99.1199 351.052 99.1553 351.052 99.1907 351.063L105.592 352.202C105.846 352.249 106.041 352.45 106.076 352.704L106.395 355.087C106.43 355.341 106.625 355.547 106.878 355.589L110.525 356.238C110.56 356.244 110.595 356.25 110.631 356.25C110.985 356.25 111.268 355.931 111.215 355.571L108.23 336.107C108.194 335.859 107.999 335.659 107.752 335.617L102.896 334.756C102.861 334.75 102.825 334.744 102.79 334.744L102.784 334.726ZM104.737 347.712C104.701 347.712 104.666 347.712 104.631 347.7L101.645 347.169C101.25 347.099 101.037 346.668 101.226 346.314L103.545 341.907C103.657 341.688 103.864 341.594 104.064 341.594C104.336 341.594 104.607 341.777 104.654 342.107L105.315 347.046C105.362 347.405 105.079 347.712 104.731 347.712H104.737Z" fill="#119349"/>
<path d="M133.878 335.128C133.878 335.128 133.842 335.128 133.824 335.128L130.231 335.458C130.025 335.476 129.848 335.599 129.753 335.782L125.771 343.883C125.665 344.101 125.452 344.213 125.24 344.213C125.063 344.213 124.886 344.137 124.768 343.978L119.381 336.738C119.269 336.591 119.092 336.502 118.909 336.502C118.892 336.502 118.874 336.502 118.856 336.502L115.257 336.833C114.933 336.862 114.697 337.151 114.726 337.476L116.425 356.043C116.455 356.35 116.709 356.58 117.009 356.58C117.027 356.58 117.045 356.58 117.063 356.58L120.402 356.273C120.726 356.244 120.962 355.955 120.933 355.63L120.125 346.833C120.089 346.444 120.402 346.19 120.721 346.19C120.892 346.19 121.063 346.261 121.187 346.432L125.806 352.651L126.314 352.603L129.724 345.647C129.836 345.423 130.043 345.317 130.249 345.317C130.532 345.317 130.81 345.511 130.839 345.854L131.647 354.651C131.677 354.957 131.931 355.188 132.231 355.188C132.249 355.188 132.267 355.188 132.285 355.188L135.624 354.881C135.948 354.851 136.19 354.562 136.155 354.238L134.456 335.67C134.426 335.364 134.173 335.133 133.872 335.133L133.878 335.128Z" fill="#119349"/>
<path d="M153.371 327.469C153.288 327.469 153.206 327.487 153.129 327.522L143.223 331.959C142.928 332.095 142.792 332.443 142.928 332.738L150.545 349.754C150.645 349.972 150.857 350.102 151.082 350.102C151.164 350.102 151.247 350.084 151.323 350.049L154.38 348.68C154.675 348.544 154.81 348.196 154.675 347.901L152.185 342.337C152.049 342.042 152.185 341.688 152.48 341.559L158.12 339.033C158.415 338.898 158.551 338.549 158.415 338.254L157.117 335.352C157.017 335.133 156.805 335.004 156.58 335.004C156.498 335.004 156.415 335.021 156.338 335.057L150.698 337.582C150.621 337.617 150.539 337.635 150.456 337.635C150.232 337.635 150.014 337.505 149.919 337.287L148.84 334.874C148.704 334.579 148.84 334.225 149.135 334.095L154.905 331.511C155.2 331.375 155.335 331.027 155.2 330.732L153.902 327.829C153.801 327.611 153.589 327.481 153.365 327.481L153.371 327.469Z" fill="#119349"/>
<path d="M164.946 319.634C164.828 319.634 164.71 319.67 164.61 319.74L155.483 326.124C155.217 326.313 155.152 326.679 155.335 326.944L166.02 342.219C166.132 342.385 166.315 342.473 166.504 342.473C166.622 342.473 166.74 342.438 166.84 342.367L176.086 335.9C176.351 335.712 176.416 335.346 176.233 335.08L174.41 332.473C174.298 332.307 174.115 332.219 173.926 332.219C173.808 332.219 173.69 332.254 173.59 332.325L168.062 336.195C167.961 336.266 167.843 336.302 167.725 336.302C167.536 336.302 167.353 336.213 167.241 336.048L165.908 334.136C165.719 333.871 165.784 333.499 166.056 333.316L170.888 329.936C171.153 329.747 171.218 329.381 171.035 329.115L169.247 326.555C169.135 326.39 168.952 326.301 168.764 326.301C168.646 326.301 168.528 326.337 168.427 326.407L163.595 329.788C163.495 329.859 163.377 329.894 163.259 329.894C163.07 329.894 162.887 329.806 162.775 329.641L161.566 327.918C161.377 327.652 161.442 327.281 161.713 327.098L167.129 323.31C167.395 323.121 167.46 322.755 167.277 322.49L165.454 319.882C165.342 319.717 165.159 319.628 164.97 319.628L164.946 319.634Z" fill="#119349"/>
<path d="M169.437 315.268C169.283 315.268 169.13 315.327 169.018 315.445L166.664 317.835C166.434 318.065 166.44 318.442 166.67 318.666L179.951 331.753C180.063 331.865 180.216 331.924 180.364 331.924C180.511 331.924 180.67 331.865 180.782 331.747L188.104 324.319C188.334 324.089 188.329 323.711 188.098 323.487L185.833 321.251C185.721 321.139 185.567 321.08 185.42 321.08C185.266 321.08 185.113 321.139 185.001 321.257L180.859 325.457C180.741 325.575 180.594 325.634 180.44 325.634C180.287 325.634 180.139 325.575 180.027 325.463L169.856 315.439C169.744 315.327 169.59 315.268 169.443 315.268H169.437Z" fill="#119349"/>
<path d="M177.862 305.391C177.679 305.391 177.502 305.474 177.39 305.627L175.39 308.318C175.195 308.577 175.248 308.949 175.508 309.144L190.464 320.277C190.571 320.354 190.694 320.395 190.818 320.395C191.001 320.395 191.178 320.313 191.29 320.159L193.29 317.469C193.485 317.209 193.432 316.837 193.167 316.643L178.216 305.509C178.11 305.433 177.986 305.391 177.862 305.391Z" fill="#119349"/>
<path d="M185.655 292.04C185.443 292.04 185.242 292.152 185.136 292.352L179.407 303.043C179.254 303.332 179.36 303.686 179.649 303.84L182.451 305.344C182.54 305.391 182.634 305.415 182.729 305.415C182.941 305.415 183.142 305.303 183.248 305.102L185.98 300.005C186.092 299.798 186.292 299.692 186.499 299.692C186.699 299.692 186.9 299.792 187.012 299.993L193.349 311.244C193.402 311.345 193.484 311.421 193.585 311.474L196.01 312.772C196.098 312.82 196.193 312.843 196.287 312.843C196.499 312.843 196.7 312.731 196.806 312.531L202.671 301.592C202.824 301.303 202.718 300.949 202.429 300.795L199.626 299.291C199.538 299.244 199.443 299.22 199.349 299.22C199.137 299.22 198.936 299.332 198.83 299.533L195.962 304.878C195.85 305.085 195.65 305.191 195.443 305.191C195.237 305.191 195.042 305.091 194.93 304.89L188.593 293.639C188.54 293.538 188.458 293.462 188.357 293.409L185.932 292.111C185.844 292.063 185.75 292.04 185.655 292.04Z" fill="#119349"/>
<path d="M46.2385 247.748L45.9435 251.088C45.914 251.412 45.6308 251.654 45.3063 251.625L36.5035 250.852C35.9076 250.799 35.6244 251.56 36.1023 251.914L42.3386 256.51L42.2973 257.017L35.353 260.457C34.8161 260.723 34.9695 261.519 35.5654 261.572L44.3682 262.345C44.6927 262.375 44.9346 262.658 44.9051 262.982L44.6101 266.322C44.5806 266.646 44.2974 266.888 43.9729 266.859L25.3997 265.224C25.0752 265.195 24.8333 264.912 24.8628 264.587L25.1814 260.988C25.1991 260.782 25.323 260.605 25.5059 260.51L33.5889 256.498C33.9842 256.303 34.0314 255.755 33.6774 255.495L26.4204 250.132C26.2552 250.008 26.1667 249.813 26.1844 249.607L26.503 246.008C26.5325 245.683 26.8157 245.442 27.1402 245.471L45.7134 247.105C46.0379 247.135 46.2798 247.418 46.2503 247.743L46.2385 247.748Z" fill="#342E2E"/>
<path d="M47.5958 232.491L50.6048 233.518C50.9116 233.624 51.0768 233.96 50.9706 234.267L47.3362 244.946C47.23 245.253 46.8937 245.418 46.5869 245.312L28.94 239.3C28.6332 239.193 28.468 238.857 28.5742 238.55L32.1673 228.007C32.2735 227.7 32.6098 227.535 32.9166 227.641L35.9256 228.668C36.2324 228.774 36.3976 229.11 36.2914 229.417L34.1615 235.671C34.0553 235.978 34.2205 236.314 34.5273 236.42L36.5215 237.099C36.8283 237.205 37.1646 237.04 37.2708 236.733L39.1706 231.146C39.2768 230.839 39.6131 230.674 39.9199 230.78L42.8758 231.789C43.1826 231.895 43.3478 232.231 43.2416 232.538L41.3418 238.126C41.2356 238.432 41.4008 238.769 41.7076 238.875L43.9142 239.624C44.221 239.73 44.5573 239.565 44.6635 239.258L46.8406 232.869C46.9468 232.562 47.2831 232.397 47.5899 232.503L47.5958 232.491Z" fill="#342E2E"/>
<path d="M44.6931 213.747L42.752 217.145C42.5927 217.428 42.6871 217.788 42.9703 217.948L55.3721 225.033C55.6553 225.193 55.7556 225.553 55.5904 225.836L53.9266 228.745C53.7673 229.028 53.4074 229.128 53.1242 228.963L40.7224 221.877C40.4392 221.718 40.0793 221.812 39.92 222.095L37.9789 225.494C37.8196 225.777 37.4597 225.877 37.1765 225.712L34.4153 224.137C34.1321 223.977 34.0318 223.617 34.197 223.334L40.9171 211.576C41.0764 211.292 41.4363 211.192 41.7195 211.357L44.4807 212.933C44.7639 213.092 44.8642 213.452 44.699 213.735L44.6931 213.747Z" fill="#342E2E"/>
<path d="M63.0001 210.932L58.7226 215.829C58.5515 216.024 58.5279 216.301 58.6636 216.526L59.9085 218.585C60.0442 218.803 60.0147 219.086 59.8495 219.281L57.4128 222.066C57.1473 222.373 56.6576 222.325 56.457 221.971L46.5922 204.926C46.4683 204.708 46.4919 204.431 46.6571 204.242L49.9021 200.531C50.0673 200.342 50.3387 200.277 50.5688 200.371L68.7762 207.87C69.1479 208.024 69.26 208.502 68.9945 208.803L66.5578 211.587C66.3867 211.782 66.1153 211.841 65.8793 211.741L63.6727 210.779C63.4367 210.679 63.1594 210.738 62.9942 210.932H63.0001ZM58.4512 208.513L53.8787 206.531C53.3536 206.301 52.8403 206.885 53.1412 207.375L55.7195 211.64C55.926 211.983 56.4039 212.024 56.6694 211.723L58.6636 209.44C58.9291 209.139 58.8229 208.667 58.4571 208.508L58.4512 208.513Z" fill="#342E2E"/>
<path d="M69.473 195.722C66.6292 190.631 68.234 184.613 73.4555 181.698C76.3819 180.064 79.7449 179.963 82.5179 181.261C82.8424 181.415 82.9722 181.798 82.7893 182.105L81.2258 184.736C80.9308 185.226 80.6181 185.338 80.3526 185.214C78.9189 184.559 77.1961 184.677 75.609 185.557C72.541 187.268 71.7091 190.424 73.4319 193.516C75.1547 196.607 78.2817 197.557 81.3438 195.846C82.925 194.967 83.9457 193.557 84.1345 192.011C84.1699 191.71 84.4236 191.492 84.7245 191.498L87.7807 191.551C88.4179 191.563 88.6716 191.875 88.6362 192.229C88.3058 195.256 86.4532 198.065 83.4973 199.711C78.2817 202.619 72.3168 200.826 69.473 195.728V195.722Z" fill="#342E2E"/>
<path d="M89.5269 189.144L86.0223 176.801C85.9338 176.488 86.1167 176.164 86.4294 176.069L89.6508 175.155C89.9635 175.066 90.288 175.249 90.3824 175.562L93.7808 187.527C94.1879 188.973 95.2204 190.005 97.5332 189.344C99.846 188.689 100.182 187.268 99.7693 185.822L96.3709 173.863C96.2824 173.55 96.4653 173.226 96.778 173.131L99.9994 172.217C100.312 172.128 100.637 172.311 100.731 172.624L104.236 184.967C105.398 189.055 102.932 192.401 98.7368 193.592C94.5419 194.784 90.6833 193.232 89.5269 189.144Z" fill="#342E2E"/>
<path d="M126.603 190.477L123.251 190.513C122.927 190.513 122.661 190.253 122.655 189.928L122.561 181.096C122.555 180.5 121.77 180.288 121.464 180.801L117.505 187.462H116.997L112.897 180.896C112.578 180.388 111.799 180.618 111.805 181.214L111.9 190.046C111.9 190.371 111.64 190.636 111.316 190.642L107.964 190.678C107.64 190.678 107.374 190.418 107.369 190.094L107.168 171.45C107.168 171.125 107.428 170.86 107.752 170.854L111.363 170.812C111.569 170.812 111.758 170.913 111.87 171.09L116.655 178.742C116.891 179.114 117.434 179.108 117.664 178.73L122.284 170.978C122.39 170.801 122.579 170.694 122.785 170.689L126.396 170.647C126.721 170.647 126.986 170.907 126.992 171.231L127.193 189.875C127.193 190.2 126.933 190.465 126.608 190.471L126.603 190.477Z" fill="#342E2E"/>
<path d="M145.966 181.863C145.069 185.521 141.399 187.74 137.606 186.807L135.293 186.241C134.974 186.164 134.656 186.359 134.579 186.672L133.375 191.575C133.299 191.893 132.98 192.082 132.662 192.005L129.405 191.209C129.086 191.132 128.897 190.813 128.974 190.495L133.423 172.388C133.499 172.069 133.818 171.88 134.137 171.957L140.851 173.609C144.644 174.541 146.869 178.205 145.966 181.863ZM141.565 180.783C141.907 179.379 141.181 178.064 139.836 177.733L137.523 177.167C137.205 177.09 136.886 177.285 136.809 177.597L135.877 181.403C135.8 181.722 135.995 182.04 136.308 182.117L138.621 182.683C139.966 183.014 141.222 182.188 141.565 180.783Z" fill="#342E2E"/>
<path d="M155.949 196.566L154.616 199.457C154.48 199.752 154.126 199.882 153.831 199.746L144.356 195.38C144.061 195.244 143.931 194.89 144.067 194.595L151.872 177.662C152.008 177.367 152.362 177.238 152.657 177.373L155.701 178.777C155.996 178.913 156.126 179.267 155.99 179.562L150.008 192.536C149.872 192.831 150.002 193.185 150.297 193.321L155.654 195.793C155.949 195.929 156.079 196.283 155.943 196.578L155.949 196.566Z" fill="#342E2E"/>
<path d="M169.59 187.138L159.53 202.838C159.353 203.115 158.988 203.192 158.716 203.015L155.896 201.209C155.619 201.032 155.542 200.666 155.719 200.395L165.779 184.695C165.956 184.418 166.321 184.341 166.593 184.518L169.413 186.324C169.684 186.501 169.767 186.866 169.59 187.138Z" fill="#342E2E"/>
<path d="M181.036 209.009C177.224 213.121 171.248 213.458 167.236 209.741L161.849 204.755C161.607 204.531 161.595 204.159 161.82 203.923L174.487 190.241C174.711 189.999 175.083 189.987 175.319 190.212L180.705 195.197C184.717 198.914 184.847 204.897 181.036 209.015V209.009ZM177.838 206.041C180.145 203.546 180.033 200.507 177.744 198.389L175.685 196.483C175.443 196.259 175.071 196.277 174.853 196.513L168.109 203.793C167.885 204.035 167.902 204.407 168.138 204.625L170.198 206.531C172.481 208.649 175.525 208.531 177.832 206.035L177.838 206.041Z" fill="#342E2E"/>
<path d="M183.136 224.178L179.549 218.756C179.407 218.543 179.142 218.443 178.894 218.514L176.581 219.169C176.333 219.24 176.068 219.139 175.926 218.927L173.879 215.841C173.655 215.505 173.832 215.045 174.221 214.944L193.266 209.935C193.508 209.87 193.768 209.971 193.909 210.177L196.635 214.29C196.777 214.502 196.765 214.773 196.612 214.974L184.564 230.556C184.316 230.874 183.826 230.857 183.608 230.52L181.567 227.435C181.425 227.222 181.437 226.939 181.596 226.739L183.106 224.862C183.266 224.662 183.283 224.379 183.136 224.166V224.178ZM186.67 220.431L189.791 216.543C190.151 216.095 189.72 215.452 189.172 215.605L184.375 216.962C183.991 217.068 183.826 217.523 184.045 217.853L185.72 220.378C185.938 220.709 186.422 220.732 186.67 220.42V220.431Z" fill="#342E2E"/>
</g>
<defs>
<clipPath id="clip0_61_793">
<rect width="235.025" height="235.025" fill="white" transform="translate(139.715) rotate(9.23436)"/>
</clipPath>
<clipPath id="clip1_61_793">
<rect width="236" height="236" fill="white" transform="translate(0 145)"/>
</clipPath>
</defs>
</svg>
