<?xml version="1.0" encoding="utf-8"?>
<!-- Generator: Adobe Illustrator 24.3.0, SVG Export Plug-In . SVG Version: 6.00 Build 0)  -->
<svg version="1.1" id="Capa_1" xmlns="http://www.w3.org/2000/svg" xmlns:xlink="http://www.w3.org/1999/xlink" x="0px" y="0px"
	 viewBox="0 0 2560 1354" style="enable-background:new 0 0 2560 1354;" xml:space="preserve">
<style type="text/css">
	.st0{fill:#FAFAF8;}
	.st1{fill:none;}
	.st2{fill:#FFFF5F;}
	.st3{fill:none;stroke:#000000;stroke-width:2;stroke-miterlimit:10;}
	.st4{fill:#FFFFFF;}
</style>
<rect x="-45.8" y="1483.2" class="st0" width="1316.5" height="1401.3"/>
<g>
	<g>
		<rect y="-2855.8" class="st0" width="2560" height="1233.5"/>
	</g>
	<g>
		<polygon class="st1" points="190.8,-2006 69.8,-2255.3 69.8,-2006.2 69.8,-2006 69.8,-2005.8 69.8,-1756.7 		"/>
		<polygon class="st1" points="1783.7,-2813.3 1783.7,-2533.7 1890,-2533.7 1904.8,-2564 		"/>
		<polygon class="st1" points="68.4,-2006 0,-2146.7 0,-1865.3 		"/>
		<polygon class="st1" points="2138.6,-2533.7 2153.3,-2564 2032.2,-2813.3 2032.2,-2564.2 2032.3,-2564 2032.2,-2563.9 
			2032.2,-2533.7 		"/>
		<polygon class="st1" points="2252.6,-2533.7 2258.3,-2528 2275.8,-2564 2154.7,-2813.3 2154.7,-2564.2 2154.8,-2564 
			2154.7,-2563.9 2154.7,-2533.7 		"/>
		<polygon class="st1" points="2140.1,-2533.7 2153.4,-2533.7 2153.4,-2561.1 		"/>
		<polygon class="st1" points="2017.6,-2533.7 2030.9,-2533.7 2030.9,-2561.1 		"/>
		<polygon class="st1" points="1909.8,-2813.3 1909.8,-2533.7 2016.1,-2533.7 2030.8,-2564 		"/>
		<polygon class="st2" points="2032.2,-2314.8 2138.6,-2533.7 2032.2,-2533.7 		"/>
		<polygon class="st2" points="2154.7,-2533.7 2154.7,-2314.8 2258.3,-2528 2252.6,-2533.7 		"/>
		<polygon class="st2" points="1909.8,-2314.8 2016.1,-2533.7 1909.8,-2533.7 		"/>
		<polygon class="st2" points="1783.7,-2314.8 1890,-2533.7 1783.7,-2533.7 		"/>
		<polygon class="st2" points="2153.4,-2309 2153.4,-2533.7 2140.1,-2533.7 2030.9,-2309 2030.9,-2533.7 2017.6,-2533.7 
			1908.4,-2309 1908.4,-2533.7 1891.5,-2533.7 1782.4,-2309 1782.4,-2533.7 1497.9,-2533.7 2229.8,-1799.4 2560,-1799.4 
			2560,-2225.3 2259.3,-2527 		"/>
		<polygon class="st2" points="2216.2,-1799.4 1461.5,-1799.4 1638.1,-1622.3 2392.8,-1622.3 		"/>
		<polygon class="st2" points="22.7,-2955.8 -100,-2955.8 -100,-2448.6 528.2,-2448.6 		"/>
		<polygon points="69.8,-2006.2 69.8,-2005.8 69.8,-2006 		"/>
		<polygon points="68.4,-2008.9 0,-2149.8 0,-2146.7 68.4,-2006 0,-1865.3 0,-1862.2 68.4,-2003.1 		"/>
		<polygon points="69.8,-2255.3 190.8,-2006 69.8,-1756.7 69.8,-2005.8 69.7,-2005.7 68.4,-2003.1 68.4,-1750.9 192.2,-2005.7 
			192.3,-2006 68.4,-2261.1 68.4,-2008.9 69.8,-2006.2 		"/>
		<polygon points="69.7,-2005.7 69.8,-2005.8 69.8,-2006.2 68.4,-2008.9 68.4,-2003.1 		"/>
		<polygon points="1783.7,-2813.3 1904.8,-2564 1890,-2533.7 1891.5,-2533.7 1906.1,-2563.7 1906.2,-2564 1782.4,-2819.1 
			1782.4,-2533.7 1783.7,-2533.7 		"/>
		<polygon points="1891.5,-2533.7 1890,-2533.7 1783.7,-2314.8 1783.7,-2533.7 1782.4,-2533.7 1782.4,-2309 		"/>
		<polygon points="2032.2,-2564.2 2032.2,-2563.9 2032.3,-2564 		"/>
		<polygon points="1909.8,-2813.3 2030.8,-2564 2016.1,-2533.7 2017.6,-2533.7 2030.9,-2561.1 2030.9,-2566.9 1908.4,-2819.1 
			1908.4,-2533.7 1909.8,-2533.7 		"/>
		<polygon points="2017.6,-2533.7 2016.1,-2533.7 1909.8,-2314.8 1909.8,-2533.7 1908.4,-2533.7 1908.4,-2309 		"/>
		<polygon points="2154.7,-2564.2 2154.7,-2563.9 2154.8,-2564 		"/>
		<polygon points="2032.2,-2563.9 2032.2,-2563.7 2030.9,-2561.1 2030.9,-2533.7 2032.2,-2533.7 		"/>
		<polygon points="2032.2,-2813.3 2153.3,-2564 2138.6,-2533.7 2140.1,-2533.7 2153.4,-2561.1 2153.4,-2566.9 2030.9,-2819.1 
			2030.9,-2566.9 2032.2,-2564.2 		"/>
		<polygon points="2032.2,-2314.8 2032.2,-2533.7 2030.9,-2533.7 2030.9,-2309 2140.1,-2533.7 2138.6,-2533.7 		"/>
		<polygon points="2032.2,-2563.7 2032.2,-2563.9 2032.2,-2564.2 2030.9,-2566.9 2030.9,-2561.1 		"/>
		<polygon points="2154.7,-2563.9 2154.7,-2563.7 2153.4,-2561.1 2153.4,-2533.7 2154.7,-2533.7 		"/>
		<polygon points="2154.7,-2813.3 2275.8,-2564 2258.3,-2528 2259.3,-2527 2277.1,-2563.7 2277.3,-2564 2153.4,-2819.1 
			2153.4,-2566.9 2154.7,-2564.2 		"/>
		<polygon points="2154.7,-2314.8 2154.7,-2533.7 2153.4,-2533.7 2153.4,-2309 2259.3,-2527 2258.3,-2528 		"/>
		<polygon points="2154.7,-2563.7 2154.7,-2563.9 2154.7,-2564.2 2153.4,-2566.9 2153.4,-2561.1 		"/>
	</g>
</g>
<g>
	<g>
		<polygon class="st2" points="2197.6,-1460.1 2197.6,-716.4 2378.8,-1088.3 		"/>
	</g>
	<g>
		<polygon class="st2" points="2378.8,-1460.1 2378.8,-716.4 2560,-1088.3 		"/>
	</g>
</g>
<g>
	<g>
		<g>
			<polygon class="st2" points="1632.5,144.4 1632.5,1086 1864.4,615.2 			"/>
		</g>
		<g>
			<polygon class="st2" points="1864.4,144.4 1864.4,1086 2096.3,615.2 			"/>
		</g>
	</g>
	<g>
		<g>
			<polygon class="st2" points="2096.3,144.4 2096.3,1086 2328.1,615.2 			"/>
		</g>
		<g>
			<polygon class="st2" points="2328.1,144.4 2328.1,1086 2560,615.2 			"/>
		</g>
	</g>
</g>
<polygon class="st3" points="2208.2,339.2 2186.6,298.9 2174,342.9 2173.5,297.2 2142,330.2 2162.8,289.6 2119.5,304.2 
	2156.9,277.8 2111.8,270.6 2157.1,264.7 2120.4,237.4 2163.3,253.1 2143.6,211.9 2174.3,245.8 2175.9,200.2 2187.3,244.4 
	2210,204.8 2199.5,249.3 2238.1,224.7 2208.1,259.2 2253.7,255.4 2211.1,272 2253.2,289.8 2207.8,284.7 2236.8,320 2198.9,294.4 "/>
<polygon class="st3" points="1746.4,1194.2 1735.5,1174.4 1728.2,1195.7 1728.6,1173.2 1711.6,1188 1723.3,1168.7 1701.2,1173.1 
	1720.9,1162.2 1699.6,1154.9 1722.1,1155.3 1707.3,1138.3 1726.6,1150 1722.3,1127.9 1733.1,1147.6 1740.4,1126.3 1740,1148.8 
	1757,1134 1745.3,1153.3 1767.5,1149 1747.7,1159.8 1769,1167.1 1746.5,1166.7 1761.3,1183.7 1742,1172 "/>
<circle class="st4" cx="575.4" cy="2183.9" r="677"/>
<rect x="1261.8" y="1483.2" class="st0" width="1316.5" height="1401.3"/>
<circle class="st4" cx="1883" cy="2183.9" r="677"/>
<g>
	<g>
		<path d="M1280,1817.2v-173.5l42.1,86.8l-0.2,0.4L1280,1817.2z M1282,1652.3v156.3l38-78.1L1282,1652.3z"/>
	</g>
	<g>
		<path d="M1321.2,1817.2v-173.5l42.1,86.8l-0.2,0.4L1321.2,1817.2z M1323.2,1652.3v156.3l37.9-78.1L1323.2,1652.3z"/>
	</g>
	<g>
		<path d="M1361.3,1817.2v-173.5l42.1,86.8l-0.2,0.4L1361.3,1817.2z M1363.3,1652.3v156.3l37.9-78.1L1363.3,1652.3z"/>
	</g>
	<g>
		<path d="M1401.3,1817.2v-173.5l42.1,86.8l-0.2,0.4L1401.3,1817.2z M1403.3,1652.3v156.3l38-78.1L1403.3,1652.3z"/>
	</g>
</g>
</svg>
