<svg width="434" height="37" viewBox="0 0 434 37" fill="none" xmlns="http://www.w3.org/2000/svg">
<g clip-path="url(#clip0_10_243)">
<path d="M2.49092 20.9393V12.1001H6.19363V21.6471C6.19363 23.5262 5.86543 24.8744 5.21746 25.6833C4.56948 26.4923 3.56807 26.8967 2.23004 26.8967C1.31278 26.8967 0.563822 26.7451 0 26.4417L0.201966 23.1302C0.65639 23.3829 1.06874 23.5009 1.42218 23.5009C1.8766 23.5009 2.17114 23.2987 2.29736 22.9026C2.42359 22.5066 2.49092 21.8494 2.49092 20.9393Z" fill="white"/>
<path d="M14.8361 22.4813V12.1001H18.5388V22.3044C18.5388 23.6947 18.1181 24.8154 17.2681 25.6496C16.4182 26.4838 15.3326 26.9052 14.0114 26.9052C12.6902 26.9052 11.6047 26.4838 10.7716 25.6496C9.93004 24.8154 9.50928 23.7031 9.50928 22.3044V12.1001H13.212V22.4813C13.212 22.7847 13.2877 23.0375 13.4392 23.2313C13.5907 23.4251 13.7842 23.5262 14.0114 23.5262C14.2387 23.5262 14.4406 23.4251 14.5921 23.2313C14.752 23.0375 14.8277 22.7847 14.8277 22.4813H14.8361Z" fill="white"/>
<path d="M26.7016 21.1416V18.1586H31.229V25.3631C30.1266 26.3827 28.7045 26.8967 26.9541 26.8967C25.2037 26.8967 23.8741 26.2985 22.8811 25.0935C21.8881 23.8885 21.3916 21.9758 21.3916 19.3383C21.3916 16.7009 21.9133 14.805 22.9737 13.6C24.0256 12.395 25.4225 11.7883 27.1561 11.7883C27.804 11.7883 28.4436 11.8557 29.0747 11.9821C29.7059 12.117 30.1603 12.2686 30.4212 12.4456L29.5376 15.6392C29.3524 15.5043 29.0831 15.3948 28.7213 15.3021C28.3594 15.2094 28.0481 15.1673 27.7872 15.1673C26.0116 15.1673 25.1196 16.5576 25.1111 19.3383C25.1111 20.9309 25.3131 22.0179 25.7086 22.6246C26.1126 23.2229 26.6932 23.5262 27.4506 23.5262C27.4758 23.5262 27.5179 23.5262 27.5684 23.5178C27.6189 23.5178 27.661 23.5094 27.6862 23.5094V21.15H26.7016V21.1416Z" fill="white"/>
<path d="M39.5012 22.4813V12.1001H43.2039V22.3044C43.2039 23.6947 42.7831 24.8154 41.9332 25.6496C41.0832 26.4838 39.9977 26.9052 38.6765 26.9052C37.3553 26.9052 36.2697 26.4838 35.4366 25.6496C34.5951 24.8154 34.1743 23.7031 34.1743 22.3044V12.1001H37.877V22.4813C37.877 22.7847 37.9528 23.0375 38.1042 23.2313C38.2557 23.4251 38.4493 23.5262 38.6765 23.5262C38.9037 23.5262 39.1057 23.4251 39.2571 23.2313C39.417 23.0375 39.4928 22.7847 39.4928 22.4813H39.5012Z" fill="white"/>
<path d="M50.2812 21.0994V23.206H55.0274V26.5765H46.5785V12.1001H54.9012V15.4706H50.2812V18.0575H54.4468V21.0994H50.2812Z" fill="white"/>
<path d="M57.0133 15.4706V12.1001H66.0008V15.4706H63.35V26.5765H59.6557V15.4706H57.0133Z" fill="white"/>
<path d="M72.0935 21.0994V23.206H76.8397V26.5765H68.3907V12.1001H76.7134V15.4706H72.0935V18.0575H76.259V21.0994H72.0935Z" fill="white"/>
<path d="M84.9267 18.0407C86.1806 18.799 87.0221 19.5237 87.4681 20.2062C87.9141 20.8888 88.1329 21.6893 88.1329 22.6162C88.1329 23.9138 87.6953 24.9587 86.8286 25.7339C85.9618 26.5091 84.7752 26.8967 83.2689 26.8967C81.5101 26.8967 80.0627 26.4838 78.9351 25.6581L79.6588 22.4898C80.778 23.2903 81.8299 23.6947 82.8397 23.6947C83.9001 23.6947 84.4302 23.3408 84.4302 22.6246C84.4302 22.3381 84.304 22.0432 84.0431 21.7567C83.7822 21.4702 83.2857 21.0994 82.5284 20.6528C81.3418 19.9787 80.4919 19.2709 79.9785 18.5294C79.4652 17.7879 79.2043 16.9115 79.2043 15.9172C79.2043 14.6786 79.6419 13.6842 80.5171 12.9343C81.3923 12.1844 82.5536 11.8052 83.9926 11.8052C85.4316 11.8052 86.6855 12.0664 87.7374 12.5888L87.3251 15.8077C87.0221 15.6139 86.5929 15.4201 86.0459 15.2347C85.499 15.0493 84.994 14.9566 84.5312 14.9566C83.4793 14.9566 82.9575 15.3105 82.966 16.0099C82.966 16.3385 83.1259 16.6587 83.454 16.9705C83.7738 17.2823 84.2703 17.6362 84.9267 18.0322V18.0407Z" fill="white"/>
<path d="M121.02 12.1003V23.2062H125.227V26.5768H117.317V12.1003H121.02Z" fill="white"/>
<path d="M127.744 26.5852V12.1003H131.446V26.5852H127.744Z" fill="white"/>
<path d="M141.805 18.9257C142.521 19.2122 143.076 19.6672 143.489 20.2907C143.901 20.9143 144.103 21.6558 144.103 22.5237C144.103 23.695 143.707 24.664 142.916 25.4308C142.125 26.1976 141.124 26.5768 139.912 26.5768H134.829V12.1003H139.517C140.77 12.1003 141.772 12.4542 142.546 13.1536C143.312 13.853 143.699 14.7799 143.699 15.9259C143.699 17.2404 143.068 18.201 141.814 18.8246V18.9257H141.805ZM138.524 15.3361V18.083H139.079C139.365 18.083 139.601 17.9482 139.777 17.687C139.954 17.4258 140.047 17.0972 140.047 16.7011C140.047 16.3051 139.954 15.9765 139.777 15.7237C139.601 15.4709 139.365 15.3361 139.079 15.3361H138.524ZM139.264 23.3832C139.592 23.3832 139.862 23.2568 140.064 22.9956C140.265 22.7428 140.366 22.4057 140.366 22.0097C140.366 21.6137 140.265 21.2682 140.064 21.007C139.862 20.7542 139.601 20.6194 139.264 20.6194H138.524V23.3748H139.264V23.3832Z" fill="white"/>
<path d="M154.504 20.2739C155.203 20.493 155.657 21.1586 155.859 22.2625L156.633 26.5852H152.754L152.081 22.5743C151.946 21.9002 151.55 21.5631 150.902 21.5547H150.717V26.5852H147.015V12.1003H152.081C153.334 12.1003 154.353 12.5048 155.135 13.3053C155.926 14.1058 156.313 15.1928 156.313 16.5579C156.313 18.1841 155.716 19.3891 154.513 20.1728V20.2739H154.504ZM151.239 18.6476C151.651 18.6476 151.988 18.4959 152.249 18.201C152.51 17.9061 152.644 17.5269 152.644 17.0719C152.644 16.6169 152.51 16.2208 152.249 15.9175C151.988 15.6225 151.651 15.4709 151.239 15.4709H150.709V18.6392H151.239V18.6476Z" fill="white"/>
<path d="M160.168 13.5917C161.11 12.3951 162.398 11.7969 164.039 11.7969C165.68 11.7969 166.967 12.3951 167.91 13.5917C168.852 14.7882 169.323 16.7094 169.323 19.3384C169.323 21.9675 168.852 23.9055 167.91 25.102C166.967 26.2986 165.68 26.8969 164.039 26.8969C162.398 26.8969 161.11 26.2986 160.168 25.102C159.225 23.9055 158.754 21.9843 158.754 19.3384C158.754 16.6926 159.225 14.7882 160.168 13.5917ZM162.869 22.6247C163.138 23.223 163.525 23.5263 164.039 23.5263C164.552 23.5263 164.939 23.223 165.208 22.6247C165.478 22.0264 165.612 20.931 165.612 19.3384C165.612 17.7459 165.478 16.6841 165.208 16.0774C164.939 15.4708 164.552 15.1674 164.039 15.1674C163.525 15.1674 163.138 15.4708 162.869 16.0774C162.6 16.6841 162.465 17.7711 162.465 19.3384C162.465 20.9057 162.6 22.018 162.869 22.6247Z" fill="white"/>
<path d="M177.427 18.0409C178.681 18.7993 179.523 19.5239 179.969 20.2065C180.415 20.889 180.634 21.6895 180.634 22.6164C180.634 23.9141 180.196 24.9589 179.329 25.7341C178.462 26.5094 177.276 26.897 175.77 26.897C174.011 26.897 172.563 26.4841 171.436 25.6583L172.159 22.49C173.279 23.2905 174.331 23.695 175.34 23.695C176.401 23.695 176.931 23.3411 176.931 22.6248C176.931 22.3383 176.805 22.0434 176.544 21.7569C176.283 21.4704 175.786 21.0997 175.029 20.6531C173.842 19.979 172.992 19.2711 172.479 18.5296C171.966 17.7881 171.705 16.9118 171.705 15.9175C171.705 14.6788 172.143 13.6845 173.018 12.9345C173.893 12.1846 175.054 11.8054 176.493 11.8054C177.932 11.8054 179.186 12.0666 180.238 12.5891L179.826 15.8079C179.523 15.6141 179.094 15.4203 178.547 15.2349C178 15.0496 177.495 14.9569 177.032 14.9569C175.98 14.9569 175.458 15.3108 175.467 16.0102C175.467 16.3388 175.626 16.659 175.955 16.9708C176.274 17.2825 176.771 17.6364 177.427 18.0325V18.0409Z" fill="white"/>
<path d="M220.261 11.0976L221.742 0.303467H225.403L223.08 14.7883H217.358L215.052 0.303467H218.704L220.194 11.0976H220.253H220.261Z" fill="white"/>
<path d="M228.121 1.79481C229.063 0.598269 230.351 0 231.992 0C233.633 0 234.92 0.598269 235.863 1.79481C236.805 2.99135 237.277 4.91255 237.277 7.54156C237.277 10.1706 236.805 12.1086 235.863 13.3052C234.92 14.5017 233.633 15.1 231.992 15.1C230.351 15.1 229.063 14.5017 228.121 13.3052C227.178 12.1086 226.707 10.1874 226.707 7.54156C226.707 4.8957 227.178 2.99135 228.121 1.79481ZM230.822 10.8278C231.091 11.4261 231.478 11.7294 231.992 11.7294C232.505 11.7294 232.892 11.4261 233.162 10.8278C233.431 10.2296 233.565 9.13414 233.565 7.54156C233.565 5.94899 233.431 4.88727 233.162 4.28057C232.892 3.67388 232.505 3.37053 231.992 3.37053C231.478 3.37053 231.091 3.67388 230.822 4.28057C230.553 4.88727 230.418 5.97427 230.418 7.54156C230.418 9.10886 230.553 10.2211 230.822 10.8278Z" fill="white"/>
<path d="M245.473 10.6847V0.303467H249.176V10.5077C249.176 11.8981 248.755 13.0188 247.905 13.853C247.055 14.6872 245.969 15.1085 244.648 15.1085C243.327 15.1085 242.242 14.6872 241.408 13.853C240.567 13.0188 240.146 11.9065 240.146 10.5077V0.303467H243.849V10.6847C243.849 10.988 243.925 11.2408 244.076 11.4346C244.228 11.6284 244.421 11.7296 244.648 11.7296C244.875 11.7296 245.077 11.6284 245.229 11.4346C245.389 11.2408 245.465 10.988 245.465 10.6847H245.473Z" fill="white"/>
<path d="M258.214 11.7294C258.82 11.7294 259.51 11.4345 260.284 10.8447L260.991 14.2405C260.149 14.8219 259.022 15.1084 257.599 15.1084C255.883 15.1084 254.519 14.5101 253.526 13.3052C252.533 12.1002 252.037 10.1874 252.037 7.54998C252.037 4.91254 252.533 3.00819 253.526 1.81165C254.519 0.615115 255.874 0.0168457 257.599 0.0168457C259.139 0.0168457 260.2 0.202225 260.78 0.572983L259.897 3.86768C259.476 3.54748 258.912 3.3958 258.222 3.3958C257.448 3.3958 256.842 3.69915 256.413 4.30585C255.975 4.91254 255.765 5.99111 255.765 7.54998C255.765 9.10885 255.984 10.2043 256.413 10.8194C256.85 11.4261 257.448 11.7294 258.222 11.7294H258.214Z" fill="white"/>
<path d="M268.952 5.90697V0.303467H272.612V14.7883H268.952V9.49659H266.949V14.7883H263.297V0.303467H266.949V5.90697H268.952Z" fill="white"/>
<path d="M279.673 9.30278V11.4094H284.419V14.7799H275.97V0.303467H284.293V3.674H279.673V6.26088H283.838V9.30278H279.673Z" fill="white"/>
<path d="M294.778 8.477C295.476 8.69609 295.931 9.36177 296.133 10.4656L296.907 14.7883H293.028L292.354 10.7774C292.22 10.1033 291.824 9.76623 291.176 9.75781H290.991V14.7883H287.288V0.303467H292.354C293.608 0.303467 294.627 0.70793 295.409 1.50843C296.2 2.30893 296.587 3.39593 296.587 4.76099C296.587 6.38727 295.99 7.59224 294.786 8.37589V8.477H294.778ZM291.521 6.85072C291.934 6.85072 292.27 6.69905 292.531 6.40413C292.792 6.10921 292.927 5.73002 292.927 5.275C292.927 4.81998 292.792 4.42394 292.531 4.12059C292.27 3.82567 291.934 3.674 291.521 3.674H290.991V6.8423H291.521V6.85072Z" fill="white"/>
<path d="M304.859 6.24403C306.113 7.0024 306.955 7.72706 307.401 8.40959C307.847 9.09212 308.066 9.89263 308.066 10.8195C308.066 12.1172 307.628 13.162 306.761 13.9373C305.895 14.7125 304.708 15.1001 303.202 15.1001C301.443 15.1001 299.995 14.6872 298.868 13.8614L299.592 10.6931C300.711 11.4936 301.763 11.8981 302.772 11.8981C303.833 11.8981 304.363 11.5442 304.363 10.8279C304.363 10.5415 304.237 10.2465 303.976 9.96004C303.715 9.67354 303.219 9.30278 302.461 8.85619C301.275 8.18208 300.425 7.47427 299.911 6.73275C299.398 5.99124 299.137 5.1149 299.137 4.12059C299.137 2.88192 299.575 1.88762 300.45 1.13767C301.325 0.38773 302.486 0.00854492 303.925 0.00854492C305.364 0.00854492 306.618 0.269761 307.67 0.792193L307.258 4.01105C306.955 3.81724 306.526 3.62344 305.979 3.43806C305.432 3.25268 304.927 3.15999 304.464 3.15999C303.412 3.15999 302.89 3.5139 302.899 4.21328C302.899 4.54191 303.059 4.86211 303.387 5.17388C303.707 5.48566 304.203 5.83956 304.859 6.2356V6.24403Z" fill="white"/>
<path d="M221.01 22.2034C222.525 22.2034 223.762 22.8859 224.738 24.2425C225.706 25.5992 226.194 27.335 226.194 29.45C226.194 31.565 225.706 33.2924 224.738 34.6491C223.762 36.0057 222.525 36.6882 221.01 36.6882H216.457V22.2034H221.01ZM220.463 33.3093C221.052 33.3093 221.54 32.9469 221.91 32.2223C222.281 31.4976 222.474 30.5707 222.474 29.4416C222.474 28.3125 222.289 27.3856 221.91 26.6609C221.54 25.9362 221.052 25.5739 220.463 25.5739H220.16V33.3093H220.463Z" fill="white"/>
<path d="M229.08 36.6882V22.2034H232.783V36.6882H229.08Z" fill="white"/>
<path d="M240.946 31.2448V28.2619H245.473V35.458C244.371 36.4776 242.948 36.9916 241.198 36.9916C239.448 36.9916 238.118 36.3933 237.125 35.1883C236.132 33.9834 235.636 32.0706 235.636 29.4332C235.636 26.7957 236.157 24.8998 237.218 23.6948C238.27 22.4899 239.667 21.8916 241.4 21.8916C242.048 21.8916 242.688 21.959 243.319 22.0854C243.95 22.2202 244.404 22.3719 244.665 22.5404L243.782 25.734C243.596 25.5992 243.327 25.4896 242.965 25.397C242.603 25.3043 242.292 25.2621 242.031 25.2621C240.256 25.2621 239.364 26.6525 239.355 29.4332C239.355 31.0257 239.557 32.1127 239.953 32.7194C240.357 33.3177 240.937 33.6211 241.695 33.6211C241.72 33.6211 241.762 33.621 241.812 33.6126C241.863 33.6126 241.905 33.6042 241.93 33.6042V31.2448H240.946Z" fill="white"/>
<path d="M248.418 36.6882V22.2034H252.121V36.6882H248.418Z" fill="white"/>
<path d="M254.511 25.5739V22.2034H263.498V25.5739H260.848V36.6798H257.153V25.5739H254.511Z" fill="white"/>
<path d="M266.73 22.2034H271.384L274.522 36.6882H270.803L270.458 34.5142H267.681L267.327 36.6882H263.616L266.73 22.2034ZM268.177 31.5566H269.953L269.103 26.6019H269.002L268.177 31.5566Z" fill="white"/>
<path d="M280.194 22.2033V33.3091H284.402V36.6797H276.492V22.1948H280.194V22.2033Z" fill="white"/>
<path d="M290.629 31.2026V33.3091H295.375V36.6797H286.927V22.1948H295.249V25.5654H290.629V28.1522H294.795V31.1941H290.629V31.2026Z" fill="white"/>
<path d="M303.463 28.1439C304.716 28.9023 305.558 29.627 306.004 30.3095C306.45 30.992 306.669 31.7925 306.669 32.7194C306.669 34.0171 306.231 35.0535 305.364 35.8372C304.498 36.6124 303.311 37 301.805 37C300.046 37 298.599 36.5871 297.471 35.7613L298.195 32.593C299.314 33.3935 300.366 33.798 301.376 33.798C302.436 33.798 302.966 33.4441 302.966 32.7279C302.966 32.4414 302.84 32.1464 302.579 31.8599C302.327 31.5734 301.822 31.2027 301.064 30.7561C299.878 30.082 299.028 29.3742 298.514 28.6327C298.001 27.8911 297.74 27.0148 297.74 26.0205C297.74 24.7818 298.178 23.7875 299.053 23.0376C299.928 22.2876 301.09 21.9084 302.529 21.9084C303.968 21.9084 305.221 22.1697 306.273 22.6921L305.861 25.911C305.558 25.7171 305.129 25.5233 304.582 25.338C304.035 25.1526 303.53 25.0599 303.067 25.0599C302.015 25.0599 301.493 25.4138 301.502 26.1132C301.502 26.4418 301.662 26.762 301.99 27.0738C302.31 27.3856 302.806 27.7395 303.463 28.1355V28.1439Z" fill="white"/>
<path d="M349.368 9.30278V11.4094H354.114V14.7799H345.665V0.303467H353.988V3.674H349.368V6.26088H353.533V9.30278H349.368Z" fill="white"/>
<path d="M362.395 6.0755V0.303467H366.089V14.7883H363.699L360.745 9.04157H360.703V14.7883H356.984V0.303467H359.382L362.327 6.08393H362.395V6.0755Z" fill="white"/>
<path d="M368.487 3.674V0.303467H377.475V3.674H374.824V14.7799H371.13V3.674H368.487Z" fill="white"/>
<path d="M387.354 8.477C388.053 8.69609 388.507 9.36177 388.709 10.4656L389.483 14.7883H385.604L384.931 10.7774C384.796 10.1033 384.4 9.76623 383.752 9.75781H383.567V14.7883H379.865V0.303467H384.931C386.184 0.303467 387.203 0.70793 387.985 1.50843C388.776 2.30893 389.163 3.39593 389.163 4.76099C389.163 6.38727 388.566 7.59224 387.363 8.37589V8.477H387.354ZM384.097 6.85072C384.51 6.85072 384.846 6.69905 385.107 6.40413C385.368 6.10921 385.503 5.73002 385.503 5.275C385.503 4.81998 385.368 4.42394 385.107 4.12059C384.846 3.82567 384.51 3.674 384.097 3.674H383.567V6.8423H384.097V6.85072Z" fill="white"/>
<path d="M395.904 9.30278V11.4094H400.65V14.7799H392.201V0.303467H400.524V3.674H395.904V6.26088H400.07V9.30278H395.904Z" fill="white"/>
<path d="M402.636 3.674V0.303467H411.624V3.674H408.973V14.7799H405.279V3.674H402.636Z" fill="white"/>
<path d="M417.717 9.30278V11.4094H422.463V14.7799H414.014V0.303467H422.336V3.674H417.717V6.26088H421.882V9.30278H417.717Z" fill="white"/>
<path d="M434 6.39575V9.89268H424.23V6.39575H434Z" fill="white"/>
<path d="M351.076 27.9838V22.2034H354.77V36.6882H352.38L349.427 30.9415H349.385V36.6882H345.665V22.2034H348.063L351.009 27.9838H351.076Z" fill="white"/>
<path d="M358.162 36.6882V22.2034H361.864V36.6882H358.162Z" fill="white"/>
<path d="M371.247 29.2815L373.477 22.2034H377.281V36.6882H373.688V30.6128H373.595L371.66 36.6882H370.776L368.849 30.6128H368.765V36.6882H365.172V22.2034H368.975L371.205 29.2815H371.247Z" fill="white"/>
<path d="M380.597 36.6882V22.2034H384.3V36.6882H380.597Z" fill="white"/>
<path d="M391.377 31.2028V33.3094H396.123V36.6799H387.674V22.1951H395.997V25.5656H391.377V28.1525H395.542V31.1944H391.377V31.2028Z" fill="white"/>
<path d="M404.412 27.9838V22.2034H408.106V36.6882H405.716L402.763 30.9415H402.721V36.6882H399.001V22.2034H401.399L404.345 27.9838H404.412Z" fill="white"/>
<path d="M410.505 25.5739V22.2034H419.492V25.5739H416.841V36.6798H413.147V25.5739H410.505Z" fill="white"/>
<path d="M422.177 23.695C423.119 22.4984 424.407 21.9001 426.048 21.9001C427.689 21.9001 428.976 22.4984 429.919 23.695C430.861 24.8915 431.332 26.8127 431.332 29.4417C431.332 32.0707 430.861 34.0088 429.919 35.2053C428.976 36.4019 427.689 37.0001 426.048 37.0001C424.407 37.0001 423.119 36.4019 422.177 35.2053C421.234 34.0088 420.763 32.0876 420.763 29.4417C420.763 26.7958 421.234 24.8915 422.177 23.695ZM424.886 32.728C425.156 33.3262 425.543 33.6296 426.056 33.6296C426.569 33.6296 426.956 33.3262 427.226 32.728C427.495 32.1297 427.63 31.0343 427.63 29.4417C427.63 27.8491 427.495 26.7874 427.226 26.1807C426.956 25.574 426.569 25.2707 426.056 25.2707C425.543 25.2707 425.156 25.574 424.886 26.1807C424.617 26.7874 424.482 27.8744 424.482 29.4417C424.482 31.009 424.617 32.1213 424.886 32.728Z" fill="white"/>
</g>
<defs>
<clipPath id="clip0_10_243">
<rect width="434" height="37" fill="white"/>
</clipPath>
</defs>
</svg>
