<svg width="434" height="129" viewBox="0 0 434 129" fill="none" xmlns="http://www.w3.org/2000/svg">
<path d="M107.461 122.53C117.231 121.875 127.001 121.216 136.757 120.389C146.513 119.562 156.324 118.569 166.063 117.244C175.801 115.918 185.428 114.267 194.988 112.131C199.69 111.08 204.371 109.923 209.009 108.605C212.698 107.558 216.333 106.32 219.777 104.588C223.221 102.856 226.254 100.688 228.598 97.7112C230.942 94.7343 232.316 91.3516 232.635 87.6542C233.29 80.1718 230.025 72.8061 225.04 67.4658C219.412 61.4418 211.351 58.3996 203.532 56.8733C199.354 56.061 195.113 55.6447 190.87 55.3711C186.109 55.0595 181.341 54.8961 176.573 54.8194C166.719 54.6628 156.864 54.9396 147.034 55.5921C137.204 56.2447 127.458 57.2596 117.724 58.5746C107.99 59.8897 98.2526 61.5107 88.5772 63.3577C78.9017 65.2047 69.1115 67.3129 59.4439 69.5774C54.6468 70.7 49.8571 71.8681 45.079 73.0662C40.9619 74.1008 36.8341 75.1207 32.7561 76.3265C25.5383 78.4679 18.2065 81.2525 12.2618 86.0871C6.32142 90.9112 0.617806 98.8979 2.61428 107.128C4.61074 115.358 14.7065 118.039 21.8766 119.667C31.2923 121.8 40.9325 122.677 50.5436 123.111C60.1548 123.546 70.2969 123.616 80.1642 123.379C90.0316 123.143 100.104 122.569 110.039 121.666C119.974 120.763 129.798 119.545 139.619 117.99C144.367 117.243 149.1 116.414 153.82 115.515C154.478 115.387 155.029 114.929 154.988 114.177C154.955 113.562 154.345 112.846 153.682 112.974C144.08 114.807 134.417 116.327 124.721 117.533C115.026 118.738 105.367 119.616 95.6521 120.191C85.9371 120.766 76.1204 121.02 66.3461 120.961C56.5718 120.902 47.3335 120.661 37.8857 119.672C33.1941 119.178 28.5167 118.49 23.8978 117.508C19.9015 116.661 15.7582 115.755 12.034 113.98C8.85 112.466 5.95904 110.136 5.00744 106.513C3.99858 102.659 5.41819 98.4733 7.40466 95.2203C11.2133 88.9781 17.5308 84.8827 24.0242 82.1029C31.4484 78.9207 39.3635 77.0982 47.1579 75.1549C56.5286 72.8147 65.9315 70.6105 75.3746 68.5977C84.8177 66.585 94.3211 64.7677 103.858 63.2035C113.395 61.6392 122.991 60.3368 132.615 59.3591C142.238 58.3814 151.775 57.7295 161.382 57.456C170.99 57.1826 180.523 57.2802 190.077 57.8506C198.103 58.331 206.378 59.2923 213.798 62.6803C217.248 64.256 220.472 66.3231 223.134 69.0936C225.533 71.593 227.474 74.6117 228.724 77.8822C229.974 81.1526 230.545 84.4397 230.131 87.7854C229.718 91.1311 228.229 94.403 225.932 96.9695C220.968 102.505 213.405 104.772 206.55 106.654C197.309 109.186 187.935 111.185 178.499 112.784C169.063 114.384 159.557 115.605 150.033 116.592C140.509 117.58 130.845 118.346 121.24 119.032C116.598 119.361 111.955 119.675 107.318 119.989C105.726 120.096 105.864 122.637 107.456 122.53L107.461 122.53Z" fill="#FF7145"/>
<mask id="path-2-outside-1_13_956" maskUnits="userSpaceOnUse" x="21" y="0" width="207" height="53" fill="black">
<rect fill="white" x="21" width="207" height="53"/>
<path d="M34.6758 14.5898C38.4844 14.5898 41.6074 16.2995 44.0449 19.7188C46.4993 23.138 47.7266 27.5052 47.7266 32.8203C47.7266 38.1185 46.4993 42.4772 44.0449 45.8965C41.6074 49.2988 38.4844 51 34.6758 51H23.2246V14.5898H34.6758ZM33.3047 42.5195C34.7943 42.5195 36.0046 41.6139 36.9355 39.8027C37.8835 37.9746 38.3574 35.6387 38.3574 32.7949C38.3574 29.9512 37.8835 27.6237 36.9355 25.8125C36.0046 23.9844 34.7943 23.0703 33.3047 23.0703H32.543V42.5195H33.3047ZM52.3477 51V14.5898H61.666V51H52.3477ZM58.2891 2.17383H66.1855L59.4316 11.416H53.5664L58.2891 2.17383ZM71.7715 14.5898H83.4766L91.373 51H82.0039L81.1406 45.541H74.1582L73.2695 51H63.9258L71.7715 14.5898ZM75.4023 38.1016H79.8711L77.7383 25.6348H77.4844L75.4023 38.1016ZM119.176 14.5898C122.984 14.5898 126.107 16.2995 128.545 19.7188C130.999 23.138 132.227 27.5052 132.227 32.8203C132.227 38.1185 130.999 42.4772 128.545 45.8965C126.107 49.2988 122.984 51 119.176 51H107.725V14.5898H119.176ZM117.805 42.5195C119.294 42.5195 120.505 41.6139 121.436 39.8027C122.383 37.9746 122.857 35.6387 122.857 32.7949C122.857 29.9512 122.383 27.6237 121.436 25.8125C120.505 23.9844 119.294 23.0703 117.805 23.0703H117.043V42.5195H117.805ZM146.75 37.2129V42.5195H158.709V51H137.432V14.5898H158.379V23.0703H146.75V29.5703H157.236V37.2129H146.75ZM186.613 14.5898V42.5195H197.201V51H177.295V14.5898H186.613ZM206.088 14.5898H217.793L225.689 51H216.32L215.457 45.541H208.475L207.586 51H198.242L206.088 14.5898ZM209.719 38.1016H214.188L212.055 25.6348H211.801L209.719 38.1016Z"/>
</mask>
<path d="M44.0449 19.7188L42.8235 20.5895L42.8264 20.5935L44.0449 19.7188ZM44.0449 45.8965L42.8264 45.0218L42.8256 45.0229L44.0449 45.8965ZM23.2246 51H21.7246V52.5H23.2246V51ZM23.2246 14.5898V13.0898H21.7246V14.5898H23.2246ZM36.9355 39.8027L35.6039 39.1123L35.6015 39.117L36.9355 39.8027ZM36.9355 25.8125L35.5989 26.4932L35.6027 26.5006L35.6066 26.508L36.9355 25.8125ZM32.543 23.0703V21.5703H31.043V23.0703H32.543ZM32.543 42.5195H31.043V44.0195H32.543V42.5195ZM34.6758 16.0898C37.9443 16.0898 40.6339 17.5179 42.8235 20.5895L45.2663 18.848C42.581 15.081 39.0244 13.0898 34.6758 13.0898V16.0898ZM42.8264 20.5935C45.0547 23.6977 46.2266 27.736 46.2266 32.8203H49.2266C49.2266 27.2744 47.944 22.5783 45.2635 18.844L42.8264 20.5935ZM46.2266 32.8203C46.2266 37.8865 45.0552 41.9167 42.8264 45.0218L45.2635 46.7712C47.9435 43.0377 49.2266 38.3505 49.2266 32.8203H46.2266ZM42.8256 45.0229C40.6373 48.0773 37.9475 49.5 34.6758 49.5V52.5C39.0212 52.5 42.5775 50.5203 45.2643 46.7701L42.8256 45.0229ZM34.6758 49.5H23.2246V52.5H34.6758V49.5ZM24.7246 51V14.5898H21.7246V51H24.7246ZM23.2246 16.0898H34.6758V13.0898H23.2246V16.0898ZM33.3047 44.0195C35.5601 44.0195 37.1904 42.588 38.2696 40.4885L35.6015 39.117C34.8187 40.6398 34.0284 41.0195 33.3047 41.0195V44.0195ZM38.2672 40.4932C39.3597 38.3862 39.8574 35.7923 39.8574 32.7949H36.8574C36.8574 35.485 36.4072 37.563 35.6039 39.1123L38.2672 40.4932ZM39.8574 32.7949C39.8574 29.7984 39.36 27.2101 38.2645 25.117L35.6066 26.508C36.4069 28.0373 36.8574 30.1039 36.8574 32.7949H39.8574ZM38.2722 25.1318C37.1964 23.0193 35.5676 21.5703 33.3047 21.5703V24.5703C34.021 24.5703 34.8127 24.9494 35.5989 26.4932L38.2722 25.1318ZM33.3047 21.5703H32.543V24.5703H33.3047V21.5703ZM31.043 23.0703V42.5195H34.043V23.0703H31.043ZM32.543 44.0195H33.3047V41.0195H32.543V44.0195ZM52.3477 51H50.8477V52.5H52.3477V51ZM52.3477 14.5898V13.0898H50.8477V14.5898H52.3477ZM61.666 14.5898H63.166V13.0898H61.666V14.5898ZM61.666 51V52.5H63.166V51H61.666ZM58.2891 2.17383V0.673828H57.3711L56.9533 1.49129L58.2891 2.17383ZM66.1855 2.17383L67.3966 3.05885L69.1395 0.673828H66.1855V2.17383ZM59.4316 11.416V12.916H60.1933L60.6427 12.301L59.4316 11.416ZM53.5664 11.416L52.2307 10.7335L51.1154 12.916H53.5664V11.416ZM53.8477 51V14.5898H50.8477V51H53.8477ZM52.3477 16.0898H61.666V13.0898H52.3477V16.0898ZM60.166 14.5898V51H63.166V14.5898H60.166ZM61.666 49.5H52.3477V52.5H61.666V49.5ZM58.2891 3.67383H66.1855V0.673828H58.2891V3.67383ZM64.9745 1.2888L58.2206 10.531L60.6427 12.301L67.3966 3.05885L64.9745 1.2888ZM59.4316 9.91602H53.5664V12.916H59.4316V9.91602ZM54.9021 12.0986L59.6248 2.85637L56.9533 1.49129L52.2307 10.7335L54.9021 12.0986ZM71.7715 14.5898V13.0898H70.5603L70.3051 14.2739L71.7715 14.5898ZM83.4766 14.5898L84.9425 14.2719L84.6861 13.0898H83.4766V14.5898ZM91.373 51V52.5H93.2332L92.839 50.6821L91.373 51ZM82.0039 51L80.5223 51.2343L80.7225 52.5H82.0039V51ZM81.1406 45.541L82.6222 45.3067L82.4221 44.041H81.1406V45.541ZM74.1582 45.541V44.041H72.8826L72.6777 45.3L74.1582 45.541ZM73.2695 51V52.5H74.5451L74.75 51.241L73.2695 51ZM63.9258 51L62.4594 50.684L62.0681 52.5H63.9258V51ZM75.4023 38.1016L73.9228 37.8545L73.6311 39.6016H75.4023V38.1016ZM79.8711 38.1016V39.6016H81.6495L81.3496 37.8486L79.8711 38.1016ZM77.7383 25.6348L79.2168 25.3818L79.0035 24.1348H77.7383V25.6348ZM77.4844 25.6348V24.1348H76.2141L76.0049 25.3877L77.4844 25.6348ZM71.7715 16.0898H83.4766V13.0898H71.7715V16.0898ZM82.0106 14.9078L89.9071 51.3179L92.839 50.6821L84.9425 14.2719L82.0106 14.9078ZM91.373 49.5H82.0039V52.5H91.373V49.5ZM83.4855 50.7657L82.6222 45.3067L79.659 45.7753L80.5223 51.2343L83.4855 50.7657ZM81.1406 44.041H74.1582V47.041H81.1406V44.041ZM72.6777 45.3L71.789 50.759L74.75 51.241L75.6387 45.782L72.6777 45.3ZM73.2695 49.5H63.9258V52.5H73.2695V49.5ZM65.3921 51.316L73.2378 14.9058L70.3051 14.2739L62.4594 50.684L65.3921 51.316ZM75.4023 39.6016H79.8711V36.6016H75.4023V39.6016ZM81.3496 37.8486L79.2168 25.3818L76.2598 25.8877L78.3926 38.3545L81.3496 37.8486ZM77.7383 24.1348H77.4844V27.1348H77.7383V24.1348ZM76.0049 25.3877L73.9228 37.8545L76.8819 38.3486L78.9639 25.8819L76.0049 25.3877ZM128.545 19.7188L127.323 20.5895L127.326 20.5935L128.545 19.7188ZM128.545 45.8965L127.326 45.0218L127.326 45.0229L128.545 45.8965ZM107.725 51H106.225V52.5H107.725V51ZM107.725 14.5898V13.0898H106.225V14.5898H107.725ZM121.436 39.8027L120.104 39.1123L120.101 39.117L121.436 39.8027ZM121.436 25.8125L120.099 26.4932L120.103 26.5006L120.107 26.508L121.436 25.8125ZM117.043 23.0703V21.5703H115.543V23.0703H117.043ZM117.043 42.5195H115.543V44.0195H117.043V42.5195ZM119.176 16.0898C122.444 16.0898 125.134 17.5179 127.324 20.5895L129.766 18.848C127.081 15.081 123.524 13.0898 119.176 13.0898V16.0898ZM127.326 20.5935C129.555 23.6977 130.727 27.736 130.727 32.8203H133.727C133.727 27.2744 132.444 22.5783 129.763 18.844L127.326 20.5935ZM130.727 32.8203C130.727 37.8865 129.555 41.9167 127.326 45.0218L129.763 46.7712C132.443 43.0377 133.727 38.3505 133.727 32.8203H130.727ZM127.326 45.0229C125.137 48.0773 122.448 49.5 119.176 49.5V52.5C123.521 52.5 127.078 50.5203 129.764 46.7701L127.326 45.0229ZM119.176 49.5H107.725V52.5H119.176V49.5ZM109.225 51V14.5898H106.225V51H109.225ZM107.725 16.0898H119.176V13.0898H107.725V16.0898ZM117.805 44.0195C120.06 44.0195 121.69 42.588 122.77 40.4885L120.101 39.117C119.319 40.6398 118.528 41.0195 117.805 41.0195V44.0195ZM122.767 40.4932C123.86 38.3862 124.357 35.7923 124.357 32.7949H121.357C121.357 35.485 120.907 37.563 120.104 39.1123L122.767 40.4932ZM124.357 32.7949C124.357 29.7984 123.86 27.2101 122.765 25.117L120.107 26.508C120.907 28.0373 121.357 30.1039 121.357 32.7949H124.357ZM122.772 25.1318C121.696 23.0193 120.068 21.5703 117.805 21.5703V24.5703C118.521 24.5703 119.313 24.9494 120.099 26.4932L122.772 25.1318ZM117.805 21.5703H117.043V24.5703H117.805V21.5703ZM115.543 23.0703V42.5195H118.543V23.0703H115.543ZM117.043 44.0195H117.805V41.0195H117.043V44.0195ZM146.75 37.2129V35.7129H145.25V37.2129H146.75ZM146.75 42.5195H145.25V44.0195H146.75V42.5195ZM158.709 42.5195H160.209V41.0195H158.709V42.5195ZM158.709 51V52.5H160.209V51H158.709ZM137.432 51H135.932V52.5H137.432V51ZM137.432 14.5898V13.0898H135.932V14.5898H137.432ZM158.379 14.5898H159.879V13.0898H158.379V14.5898ZM158.379 23.0703V24.5703H159.879V23.0703H158.379ZM146.75 23.0703V21.5703H145.25V23.0703H146.75ZM146.75 29.5703H145.25V31.0703H146.75V29.5703ZM157.236 29.5703H158.736V28.0703H157.236V29.5703ZM157.236 37.2129V38.7129H158.736V37.2129H157.236ZM145.25 37.2129V42.5195H148.25V37.2129H145.25ZM146.75 44.0195H158.709V41.0195H146.75V44.0195ZM157.209 42.5195V51H160.209V42.5195H157.209ZM158.709 49.5H137.432V52.5H158.709V49.5ZM138.932 51V14.5898H135.932V51H138.932ZM137.432 16.0898H158.379V13.0898H137.432V16.0898ZM156.879 14.5898V23.0703H159.879V14.5898H156.879ZM158.379 21.5703H146.75V24.5703H158.379V21.5703ZM145.25 23.0703V29.5703H148.25V23.0703H145.25ZM146.75 31.0703H157.236V28.0703H146.75V31.0703ZM155.736 29.5703V37.2129H158.736V29.5703H155.736ZM157.236 35.7129H146.75V38.7129H157.236V35.7129ZM186.613 14.5898H188.113V13.0898H186.613V14.5898ZM186.613 42.5195H185.113V44.0195H186.613V42.5195ZM197.201 42.5195H198.701V41.0195H197.201V42.5195ZM197.201 51V52.5H198.701V51H197.201ZM177.295 51H175.795V52.5H177.295V51ZM177.295 14.5898V13.0898H175.795V14.5898H177.295ZM185.113 14.5898V42.5195H188.113V14.5898H185.113ZM186.613 44.0195H197.201V41.0195H186.613V44.0195ZM195.701 42.5195V51H198.701V42.5195H195.701ZM197.201 49.5H177.295V52.5H197.201V49.5ZM178.795 51V14.5898H175.795V51H178.795ZM177.295 16.0898H186.613V13.0898H177.295V16.0898ZM206.088 14.5898V13.0898H204.877L204.622 14.2739L206.088 14.5898ZM217.793 14.5898L219.259 14.2719L219.003 13.0898H217.793V14.5898ZM225.689 51V52.5H227.55L227.155 50.6821L225.689 51ZM216.32 51L214.839 51.2343L215.039 52.5H216.32V51ZM215.457 45.541L216.939 45.3067L216.738 44.041H215.457V45.541ZM208.475 45.541V44.041H207.199L206.994 45.3L208.475 45.541ZM207.586 51V52.5H208.861L209.066 51.241L207.586 51ZM198.242 51L196.776 50.684L196.385 52.5H198.242V51ZM209.719 38.1016L208.239 37.8545L207.947 39.6016H209.719V38.1016ZM214.188 38.1016V39.6016H215.966L215.666 37.8486L214.188 38.1016ZM212.055 25.6348L213.533 25.3818L213.32 24.1348H212.055V25.6348ZM211.801 25.6348V24.1348H210.531L210.321 25.3877L211.801 25.6348ZM206.088 16.0898H217.793V13.0898H206.088V16.0898ZM216.327 14.9078L224.224 51.3179L227.155 50.6821L219.259 14.2719L216.327 14.9078ZM225.689 49.5H216.32V52.5H225.689V49.5ZM217.802 50.7657L216.939 45.3067L213.975 45.7753L214.839 51.2343L217.802 50.7657ZM215.457 44.041H208.475V47.041H215.457V44.041ZM206.994 45.3L206.105 50.759L209.066 51.241L209.955 45.782L206.994 45.3ZM207.586 49.5H198.242V52.5H207.586V49.5ZM199.709 51.316L207.554 14.9058L204.622 14.2739L196.776 50.684L199.709 51.316ZM209.719 39.6016H214.188V36.6016H209.719V39.6016ZM215.666 37.8486L213.533 25.3818L210.576 25.8877L212.709 38.3545L215.666 37.8486ZM212.055 24.1348H211.801V27.1348H212.055V24.1348ZM210.321 25.3877L208.239 37.8545L211.198 38.3486L213.28 25.8819L210.321 25.3877Z" fill="white" mask="url(#path-2-outside-1_13_956)"/>
<path d="M23.2246 105V68.5898H32.543V105H23.2246ZM52.6016 83.1133V68.5898H61.8945V105H55.877L48.4375 90.5527H48.3359V105H38.9668V68.5898H45.0098L52.4238 83.1133H52.6016ZM68.3691 105V68.5898H88.5547V77.0703H77.6875V85.3984H87.0312V93.041H77.6875V105H68.3691ZM95.3848 68.5898H107.09L114.986 105H105.617L104.754 99.541H97.7715L96.8828 105H87.5391L95.3848 68.5898ZM99.0156 92.1016H103.484L101.352 79.6348H101.098L99.0156 92.1016ZM131.516 83.1133V68.5898H140.809V105H134.791L127.352 90.5527H127.25V105H117.881V68.5898H123.924L131.338 83.1133H131.516ZM161.527 97.3066C163.051 97.3066 164.786 96.5618 166.732 95.0723L168.51 103.604C166.394 105.059 163.55 105.787 159.979 105.787C155.645 105.787 152.226 104.281 149.721 101.268C147.232 98.2376 145.988 93.4134 145.988 86.7949C145.988 80.1764 147.232 75.3691 149.721 72.373C152.226 69.377 155.645 67.8789 159.979 67.8789C163.855 67.8789 166.521 68.3444 167.977 69.2754L165.742 77.5527C164.676 76.7572 163.271 76.3594 161.527 76.3594C159.581 76.3594 158.057 77.1211 156.957 78.6445C155.874 80.168 155.332 82.8848 155.332 86.7949C155.332 90.7389 155.874 93.4811 156.957 95.0215C158.057 96.5449 159.581 97.3066 161.527 97.3066ZM172.268 105V68.5898H181.586V105H172.268ZM192.326 68.5898H204.031L211.928 105H202.559L201.695 99.541H194.713L193.824 105H184.48L192.326 68.5898ZM195.957 92.1016H200.426L198.293 79.6348H198.039L195.957 92.1016Z" fill="white"/>
</svg>
