<svg id="Capa_1" data-name="Capa 1" xmlns="http://www.w3.org/2000/svg" xmlns:xlink="http://www.w3.org/1999/xlink" viewBox="0 0 230.51 122.84"><defs><style>.cls-1{fill:#fff;}.cls-2{fill:#ff7145;}.cls-3{mask:url(#mask);}</style><mask id="mask" x="18.79" y="-0.67" width="207" height="53" maskUnits="userSpaceOnUse"><g transform="translate(-2.21 -0.67)"><g id="path-2-outside-1_13_956" data-name="path-2-outside-1 13 956"><rect class="cls-1" x="21" width="207" height="53"/><path d="M34.68,14.59A11.06,11.06,0,0,1,44,19.72q3.69,5.13,3.69,13.1T44,45.9A11.08,11.08,0,0,1,34.68,51H23.22V14.59ZM33.3,42.52q2.23,0,3.64-2.72a15.28,15.28,0,0,0,1.42-7,15.12,15.12,0,0,0-1.42-7q-1.41-2.74-3.64-2.74h-.76V42.52ZM52.35,51V14.59h9.32V51ZM58.29,2.17h7.9l-6.76,9.25H53.57ZM71.77,14.59H83.48L91.37,51H82l-.86-5.46h-7L73.27,51H63.93ZM75.4,38.1h4.47L77.74,25.63h-.26Zm43.78-23.51a11.06,11.06,0,0,1,9.36,5.13q3.69,5.13,3.69,13.1T128.54,45.9a11.08,11.08,0,0,1-9.36,5.1H107.72V14.59Zm-1.37,27.93q2.22,0,3.63-2.72a15.28,15.28,0,0,0,1.42-7,15.12,15.12,0,0,0-1.42-7q-1.41-2.74-3.63-2.74H117V42.52Zm28.94-5.31v5.31h12V51H137.43V14.59h20.95v8.48H146.75v6.5h10.49v7.64Zm39.86-22.62V42.52H197.2V51H177.29V14.59Zm19.48,0h11.7L225.69,51h-9.37l-.86-5.46h-7L207.59,51h-9.35Zm3.63,23.51h4.47l-2.14-12.47h-.25Z"/></g></g></mask></defs><path class="cls-2" d="M107.46,122.53c9.77-.65,19.54-1.31,29.3-2.14s19.56-1.82,29.3-3.15,19.37-3,28.93-5.11c4.7-1,9.38-2.21,14-3.52a61.23,61.23,0,0,0,10.77-4,25.5,25.5,0,0,0,8.82-6.88,18.59,18.59,0,0,0,4-10.06c.66-7.48-2.61-14.84-7.59-20.18-5.63-6-13.69-9.07-21.51-10.6a99.82,99.82,0,0,0-12.66-1.5c-4.76-.31-9.53-.47-14.3-.55-9.85-.16-19.71.12-29.54.77s-19.57,1.67-29.31,3-19.47,2.94-29.14,4.79-19.47,4-29.14,6.22q-7.19,1.68-14.36,3.49c-4.12,1-8.25,2.05-12.32,3.26-7.22,2.14-14.55,4.92-20.5,9.76S.62,98.9,2.61,107.13,14.71,118,21.88,119.67a162.58,162.58,0,0,0,28.66,3.44c9.61.44,19.76.51,29.62.27s19.94-.81,29.88-1.71,19.76-2.13,29.58-3.68q7.13-1.12,14.2-2.48a1.29,1.29,0,0,0,1.17-1.33c0-.62-.64-1.33-1.31-1.21q-14.4,2.76-29,4.56c-9.69,1.21-19.35,2.09-29.07,2.66s-19.53.83-29.3.77-19-.3-28.46-1.29a134.63,134.63,0,0,1-14-2.16A53.5,53.5,0,0,1,12,114c-3.18-1.51-6.07-3.84-7-7.47-1-3.85.41-8,2.39-11.29C11.21,89,17.53,84.88,24,82.1c7.43-3.18,15.34-5,23.14-6.95q14.06-3.51,28.21-6.55t28.49-5.4c9.53-1.56,19.13-2.86,28.76-3.84s19.15-1.63,28.76-1.9,19.14-.18,28.7.39c8,.48,16.3,1.44,23.72,4.83a30.17,30.17,0,0,1,9.33,6.41,26.4,26.4,0,0,1,5.59,8.79,20.49,20.49,0,0,1,1.41,9.91,17,17,0,0,1-4.2,9.18c-5,5.53-12.53,7.8-19.38,9.68a286.75,286.75,0,0,1-28.05,6.13c-9.44,1.6-18.94,2.83-28.47,3.81s-19.18,1.76-28.79,2.44q-7,.5-13.92,1a1.27,1.27,0,0,0,.14,2.54Z" transform="translate(-2.21 -0.67)"/><g class="cls-3"><path class="cls-1" d="M44,19.72l-1.22.87h0ZM44,45.9,42.83,45h0ZM23.22,51h-1.5v1.5h1.5Zm0-36.41v-1.5h-1.5v1.5ZM36.94,39.8l-1.34-.69h0Zm0-14-1.34.68h0Zm-4.4-2.74v-1.5H31v1.5Zm0,19.45H31V44h1.5Zm2.14-26.43c3.26,0,6,1.43,8.14,4.5l2.45-1.74c-2.69-3.77-6.25-5.76-10.59-5.76Zm8.15,4.5c2.22,3.11,3.4,7.15,3.4,12.23h3c0-5.55-1.29-10.24-4-14Zm3.4,12.23c0,5.07-1.17,9.1-3.4,12.2l2.43,1.75c2.68-3.73,4-8.42,4-14ZM42.83,45C40.64,48.08,38,49.5,34.68,49.5v3a12.57,12.57,0,0,0,10.58-5.73ZM34.68,49.5H23.22v3H34.68Zm-10,1.5V14.59h-3V51Zm-1.5-34.91H34.68v-3H23.22ZM33.3,44c2.26,0,3.89-1.43,5-3.53L35.6,39.12C34.82,40.64,34,41,33.3,41Zm5-3.53a16.66,16.66,0,0,0,1.59-7.7h-3a13.61,13.61,0,0,1-1.26,6.32Zm1.59-7.7a16.41,16.41,0,0,0-1.6-7.67l-2.65,1.39a13.53,13.53,0,0,1,1.25,6.28Zm-1.59-7.66c-1.07-2.11-2.7-3.56-5-3.56v3c.72,0,1.51.38,2.3,1.92Zm-5-3.56h-.76v3h.76ZM31,23.07V42.52h3V23.07Zm1.5,21h.76V41h-.76Zm19.81,7h-1.5v1.5h1.5Zm0-36.41v-1.5h-1.5v1.5Zm9.32,0h1.5v-1.5h-1.5Zm0,36.41v1.5h1.5V51ZM58.29,2.17V.67h-.92L57,1.49Zm7.9,0,1.21.89L69.14.67h-3Zm-6.76,9.25v1.5h.76l.45-.62Zm-5.86,0-1.34-.69-1.11,2.19h2.45ZM53.85,51V14.59h-3V51Zm-1.5-34.91h9.32v-3H52.35Zm7.82-1.5V51h3V14.59Zm1.5,34.91H52.35v3h9.32ZM58.29,3.67h7.9v-3h-7.9ZM65,1.29l-6.75,9.24,2.42,1.77L67.4,3.06ZM59.43,9.92H53.57v3h5.86ZM54.9,12.1l4.72-9.24L57,1.49l-4.72,9.24Zm16.87,2.49v-1.5H70.56l-.25,1.18Zm11.71,0,1.46-.32-.25-1.18H83.48ZM91.37,51v1.5h1.86l-.39-1.82ZM82,51l-1.48.23.2,1.27H82Zm-.86-5.46,1.48-.23L82.42,44H81.14Zm-7,0V44H72.88l-.2,1.26ZM73.27,51v1.5h1.28l.2-1.26Zm-9.34,0-1.47-.32-.39,1.82h1.86ZM75.4,38.1l-1.48-.25-.29,1.75H75.4Zm4.47,0v1.5h1.78l-.3-1.75ZM77.74,25.63l1.48-.25L79,24.13H77.74Zm-.26,0v-1.5H76.21L76,25.39Zm-5.71-9.54H83.48v-3H71.77ZM82,14.91l7.9,36.41,2.93-.64-7.9-36.41ZM91.37,49.5H82v3h9.37Zm-7.88,1.27-.87-5.46-3,.47.86,5.45ZM81.14,44h-7v3h7ZM72.68,45.3l-.89,5.46,3,.48.89-5.46Zm.59,4.2H63.93v3h9.34Zm-7.88,1.82,7.85-36.41-2.93-.64L62.46,50.68Zm10-11.72h4.47v-3H75.4Zm5.95-1.75L79.22,25.38l-3,.51,2.13,12.46ZM77.74,24.13h-.26v3h.26ZM76,25.39,73.92,37.85l3,.5L79,25.88Zm52.54-5.67-1.22.87h0Zm0,26.18L127.33,45h0ZM107.72,51h-1.5v1.5h1.5Zm0-36.41v-1.5h-1.5v1.5ZM121.44,39.8l-1.34-.69h0Zm0-14-1.34.68h0ZM117,23.07v-1.5h-1.5v1.5Zm0,19.45h-1.5V44H117Zm2.14-26.43c3.26,0,5.95,1.43,8.14,4.5l2.45-1.74c-2.69-3.77-6.25-5.76-10.59-5.76Zm8.15,4.5c2.22,3.11,3.4,7.15,3.4,12.23h3c0-5.55-1.29-10.24-4-14Zm3.4,12.23c0,5.07-1.18,9.1-3.4,12.2l2.43,1.75c2.68-3.73,4-8.42,4-14ZM127.33,45c-2.19,3.06-4.88,4.48-8.15,4.48v3a12.57,12.57,0,0,0,10.58-5.73Zm-8.15,4.48H107.72v3h11.46Zm-10,1.5V14.59h-3V51Zm-1.5-34.91h11.46v-3H107.72ZM117.81,44c2.25,0,3.88-1.43,5-3.53l-2.67-1.37c-.78,1.52-1.57,1.9-2.29,1.9Zm5-3.53a16.66,16.66,0,0,0,1.59-7.7h-3a13.61,13.61,0,0,1-1.26,6.32Zm1.59-7.7a16.41,16.41,0,0,0-1.6-7.67l-2.65,1.39a13.53,13.53,0,0,1,1.25,6.28Zm-1.59-7.66c-1.07-2.11-2.7-3.56-5-3.56v3c.71,0,1.5.38,2.29,1.92Zm-5-3.56H117v3h.77Zm-2.27,1.5V42.52h3V23.07ZM117,44h.77V41H117Zm29.71-6.81v-1.5h-1.5v1.5Zm0,5.31h-1.5V44h1.5Zm12,0h1.5V41h-1.5Zm0,8.48v1.5h1.5V51Zm-21.28,0h-1.5v1.5h1.5Zm0-36.41v-1.5h-1.5v1.5Zm20.95,0h1.5v-1.5h-1.5Zm0,8.48v1.5h1.5v-1.5Zm-11.63,0v-1.5h-1.5v1.5Zm0,6.5h-1.5v1.5h1.5Zm10.49,0h1.5v-1.5h-1.5Zm0,7.64v1.5h1.5v-1.5Zm-12,0v5.31h3V37.21Zm1.5,6.81h12V41h-12Zm10.46-1.5V51h3V42.52Zm1.5,7H137.43v3h21.28ZM138.93,51V14.59h-3V51Zm-1.5-34.91h20.95v-3H137.43Zm19.45-1.5v8.48h3V14.59Zm1.5,7H146.75v3h11.63Zm-13.13,1.5v6.5h3v-6.5Zm1.5,8h10.49v-3H146.75Zm9-1.5v7.64h3V29.57Zm1.5,6.14H146.75v3h10.49Zm29.37-21.12h1.5v-1.5h-1.5Zm0,27.93h-1.5V44h1.5Zm10.59,0h1.5V41h-1.5Zm0,8.48v1.5h1.5V51Zm-19.91,0h-1.5v1.5h1.5Zm0-36.41v-1.5h-1.5v1.5Zm7.82,0V42.52h3V14.59ZM186.61,44H197.2V41H186.61Zm9.09-1.5V51h3V42.52Zm1.5,7H177.29v3H197.2ZM178.79,51V14.59h-3V51Zm-1.5-34.91h9.32v-3h-9.32Zm28.8-1.5v-1.5h-1.21l-.26,1.18Zm11.7,0,1.47-.32L219,13.09h-1.21ZM225.69,51v1.5h1.86l-.4-1.82Zm-9.37,0-1.48.23.2,1.27h1.28Zm-.86-5.46,1.48-.23-.2-1.27h-1.28Zm-7,0V44H207.2L207,45.3ZM207.59,51v1.5h1.27l.21-1.26Zm-9.35,0-1.46-.32-.4,1.82h1.86Zm11.48-12.9-1.48-.25L208,39.6h1.77Zm4.47,0v1.5H216l-.3-1.75Zm-2.14-12.47,1.48-.25-.21-1.25h-1.27Zm-.25,0v-1.5h-1.27l-.21,1.26Zm-5.71-9.54h11.7v-3h-11.7Zm10.24-1.18,7.89,36.41,2.93-.64-7.89-36.41Zm9.36,34.59h-9.37v3h9.37Zm-7.89,1.27-.86-5.46-3,.47.86,5.45ZM215.46,44h-7v3h7ZM207,45.3l-.89,5.46,3,.48.89-5.46Zm.6,4.2h-9.35v3h9.35Zm-7.88,1.82,7.84-36.41-2.93-.64-7.84,36.41Zm10-11.72h4.47v-3h-4.47Zm5.95-1.75-2.14-12.47-2.95.51,2.13,12.46Zm-3.62-13.72h-.25v3h.25Zm-1.73,1.26-2.08,12.46,3,.5,2.08-12.47Z" transform="translate(-2.21 -0.67)"/></g><path class="cls-1" d="M23.22,105V68.59h9.32V105ZM52.6,83.11V68.59h9.29V105h-6L48.44,90.55h-.1V105H39V68.59h6l7.41,14.52ZM68.37,105V68.59H88.55v8.48H77.69V85.4H87V93H77.69v12Zm27-36.41h11.71L115,105h-9.37l-.87-5.46h-7L96.88,105H87.54ZM99,92.1h4.46l-2.13-12.47h-.25Zm32.5-9V68.59h9.29V105h-6l-7.44-14.45h-.1V105h-9.37V68.59h6l7.42,14.52Zm30,14.2a9,9,0,0,0,5.2-2.24l1.78,8.53a14.79,14.79,0,0,1-8.53,2.19,12.66,12.66,0,0,1-10.26-4.52Q146,96.73,146,86.79t3.73-14.42A12.69,12.69,0,0,1,160,67.88c3.87,0,6.54.46,8,1.4l-2.24,8.27a6.89,6.89,0,0,0-4.21-1.19A5.32,5.32,0,0,0,157,78.64c-1.09,1.53-1.63,4.24-1.63,8.15s.54,6.69,1.63,8.23A5.33,5.33,0,0,0,161.53,97.31ZM172.27,105V68.59h9.32V105Zm20.06-36.41H204l7.9,36.41h-9.37l-.86-5.46h-7l-.89,5.46h-9.34ZM196,92.1h4.47l-2.14-12.47H198Z" transform="translate(-2.21 -0.67)"/></svg>