<svg width="309" height="309" viewBox="0 0 309 309" fill="none" xmlns="http://www.w3.org/2000/svg">
<path d="M185.898 277.525C253.857 260.171 294.88 191.01 277.526 123.051C260.171 55.0916 191.01 14.0685 123.051 31.4232C55.0918 48.7779 14.0688 117.939 31.4235 185.898C48.7781 253.857 117.939 294.88 185.898 277.525Z" fill="#FF6533"/>
<path d="M124.124 245.89L122.8 249.047C122.666 249.369 122.293 249.523 121.97 249.39L111.614 245.048C111.291 244.914 111.137 244.541 111.271 244.218L119.031 225.714C119.165 225.392 119.538 225.237 119.861 225.371L123.185 226.764C123.508 226.898 123.662 227.271 123.528 227.594L117.587 241.773C117.453 242.095 117.601 242.47 117.93 242.603L123.787 245.059C124.11 245.193 124.264 245.566 124.13 245.889L124.124 245.89Z" fill="#FCF9CA"/>
<path d="M127.348 240.447C128.504 234.273 134.272 230.453 140.295 231.583C146.318 232.712 150.316 238.356 149.159 244.53C148.003 250.705 142.235 254.524 136.212 253.395C130.189 252.265 126.191 246.621 127.348 240.447ZM144.362 243.632C145.064 239.888 142.831 236.893 139.418 236.257C136.005 235.621 132.841 237.602 132.139 241.347C131.437 245.091 133.67 248.086 137.083 248.722C140.496 249.358 143.66 247.377 144.362 243.632Z" fill="#FCF9CA"/>
<path d="M173.837 236.072L169.662 236.686C169.314 236.736 169.075 237.059 169.125 237.407L171.37 252.615C171.42 252.962 171.181 253.286 170.833 253.335L167.264 253.86C166.916 253.909 166.593 253.671 166.544 253.323L164.299 238.115C164.249 237.767 163.926 237.528 163.578 237.578L159.409 238.19C159.061 238.24 158.738 238.001 158.689 237.653L158.191 234.268C158.142 233.92 158.38 233.597 158.728 233.547L173.153 231.417C173.501 231.367 173.824 231.606 173.873 231.954L174.371 235.339C174.42 235.687 174.182 236.01 173.834 236.06L173.837 236.072Z" fill="#FCF9CA"/>
<path d="M179.367 244.766L174.548 231.821C174.424 231.492 174.593 231.128 174.922 231.004L178.304 229.748C178.633 229.624 178.998 229.793 179.121 230.122L183.792 242.666C184.356 244.18 185.547 245.2 187.977 244.298C190.408 243.395 190.64 241.842 190.076 240.327L185.405 227.784C185.282 227.455 185.451 227.09 185.78 226.967L189.162 225.71C189.491 225.587 189.855 225.756 189.978 226.085L194.798 239.03C196.391 243.316 194.04 247.121 189.64 248.756C185.242 250.396 180.974 249.055 179.375 244.771L179.367 244.766Z" fill="#FCF9CA"/>
<path d="M207.005 230.217L211.069 236.402C211.261 236.694 211.178 237.088 210.887 237.281L207.873 239.263C207.582 239.455 207.187 239.372 206.995 239.081L202.931 232.896C202.875 232.806 202.792 232.735 202.701 232.686L190.584 226.225C190.16 225.999 190.131 225.397 190.536 225.136L193.948 222.895C194.151 222.765 194.411 222.757 194.62 222.881L201.075 226.679C201.529 226.943 202.091 226.577 202.03 226.055L201.102 218.624C201.073 218.382 201.183 218.144 201.385 218.014L204.798 215.773C205.202 215.506 205.74 215.768 205.778 216.25L206.907 229.934C206.914 230.038 206.953 230.139 207.008 230.23L207.005 230.217Z" fill="#FCF9CA"/>
<path d="M211.858 224.043C207.281 219.746 207.172 212.827 211.366 208.361C215.56 203.895 222.471 203.572 227.048 207.869C231.626 212.166 231.735 219.085 227.54 223.551C223.346 228.017 216.435 228.34 211.858 224.043ZM223.709 211.422C220.933 208.815 217.207 209.084 214.831 211.611C212.45 214.146 212.42 217.877 215.196 220.484C217.972 223.091 221.698 222.821 224.074 220.294C226.454 217.759 226.485 214.029 223.709 211.422Z" fill="#FCF9CA"/>
<path d="M72.1891 162.649L70.3497 159.501C70.185 159.215 70.2679 158.847 70.5411 158.659C71.4036 158.058 71.862 157.338 71.8534 155.945C71.8396 153.812 70.6166 153.18 69.3075 153.187L55.4623 153.275C55.1096 153.28 54.8263 152.992 54.823 152.645L54.8002 149.04C54.7954 148.687 55.0835 148.404 55.43 148.401L69.2752 148.312C73.9663 148.281 76.5795 151.559 76.6063 155.95C76.6267 159.084 75.4125 161.413 73.0835 162.866C72.7718 163.057 72.3694 162.97 72.1845 162.656L72.1891 162.649Z" fill="#FCF9CA"/>
<path d="M64.8976 129.271L78.5834 132.074C78.9288 132.143 79.1461 132.481 79.077 132.826L78.4157 136.062C78.3466 136.408 78.0088 136.625 77.6635 136.556L76.8819 136.395C77.8204 137.427 78.2322 139.065 77.8309 141.035C77.2116 144.051 74.5379 146.182 70.5063 145.357L61.9591 143.607C61.6137 143.538 61.3964 143.2 61.4655 142.855L62.1268 139.619C62.1959 139.274 62.5337 139.056 62.879 139.125L70.7695 140.741C72.6226 141.12 73.7265 140.13 74.0165 138.7C74.3501 137.055 73.6304 135.725 71.509 135.296L63.9777 133.753C63.6324 133.684 63.415 133.346 63.4842 133L64.1455 129.764C64.2146 129.419 64.5523 129.202 64.8976 129.271Z" fill="#FCF9CA"/>
<path d="M71.8456 110.516C71.9872 110.198 72.3623 110.05 72.6803 110.191L85.3375 115.794C90.0223 117.868 90.3855 122.395 88.7424 126.098C87.5668 128.758 85.648 130.611 83.1416 131.113C82.7739 131.188 82.4199 130.931 82.3765 130.555L82.0291 127.347C81.9905 127.016 82.2231 126.721 82.5539 126.656C83.537 126.451 84.4459 125.878 85.1281 124.341C85.993 122.39 85.5212 120.747 83.5408 119.87L82.255 119.301C82.9922 120.725 83.0682 122.357 82.2672 124.173C80.5192 128.133 75.9986 129.602 72.1551 127.896C68.307 126.198 66.3615 121.865 68.1096 117.906C68.9121 116.095 70.1728 115.052 71.7186 114.638L70.8758 114.263C70.5578 114.122 70.4096 113.747 70.5512 113.429L71.8395 110.518L71.8456 110.516ZM76.9929 116.968C75.0712 116.115 73.1424 116.929 72.2653 118.909C71.3882 120.889 72.082 122.862 74.0037 123.715C75.9255 124.567 77.8542 123.754 78.7313 121.773C79.6084 119.793 78.9147 117.82 76.9868 116.969L76.9929 116.968Z" fill="#FCF9CA"/>
<path d="M84.5204 93.2673L95.7528 101.58C96.0357 101.789 96.0917 102.188 95.8882 102.469L93.9257 105.127C93.7161 105.409 93.3175 105.465 93.0362 105.262L92.3977 104.789C92.7287 106.291 92.4073 107.906 91.1881 109.548C88.8094 112.757 84.0379 113.321 80.3849 110.616C76.732 107.912 75.8718 103.183 78.2505 99.9738C79.4635 98.3336 80.915 97.5501 82.4437 97.4284L81.8053 96.9557C81.5224 96.7462 81.4664 96.3476 81.6699 96.0662L83.634 93.415C83.8436 93.1321 84.2422 93.0762 84.5235 93.2796L84.5204 93.2673ZM87.4168 101.093C85.5818 99.7335 83.5215 100.109 82.2686 101.799C81.0158 103.488 81.265 105.568 83.1 106.928C84.935 108.288 86.9953 107.912 88.2482 106.222C89.501 104.533 89.2518 102.453 87.4168 101.093Z" fill="#FCF9CA"/>
<path d="M94.4687 83.4126L97.0839 86.1855C97.3348 86.4491 97.3014 86.8574 97.0362 87.1021C95.6977 88.3025 94.7797 90.4047 96.6145 92.3545L100.904 96.9086C101.145 97.1615 101.13 97.5651 100.877 97.8066L98.4739 100.072C98.221 100.313 97.8174 100.299 97.5759 100.046L87.9989 89.8753C87.7574 89.6224 87.7723 89.2188 88.0252 88.9773L90.4501 86.6933C90.6939 86.4673 91.0759 86.4746 91.3019 86.7183C91.6627 87.1046 92.3177 86.8718 92.3396 86.3419C92.3836 85.2821 92.8481 84.2525 93.5309 83.4358C93.7712 83.1451 94.2163 83.1428 94.4764 83.4172L94.4687 83.4126Z" fill="#FCF9CA"/>
<path d="M116.519 82.2186C117.459 81.7164 118.115 80.9723 118.426 80.2176C118.528 79.9753 118.766 79.8293 119.024 79.8357L122.03 79.9329C122.434 79.9479 122.721 80.3268 122.632 80.7231C122.112 82.8942 120.674 84.631 118.378 85.8531C113.773 88.3005 109.274 86.723 107.148 82.711C105.017 78.7005 106.276 74.0599 110.529 71.8006C114.46 69.7155 118.983 71.2081 121.143 75.277C121.356 75.6748 121.529 76.0698 121.677 76.471C121.783 76.7585 121.643 77.0826 121.373 77.2303L113.264 81.5358C112.785 81.7892 112.82 82.5145 113.336 82.6905C114.338 83.0443 115.435 82.797 116.519 82.2186ZM115.544 76.4511C115.971 76.2241 116.008 75.5986 115.591 75.3512C114.527 74.7252 113.373 74.8758 112.409 75.3904C111.227 76.0201 110.589 76.9366 110.518 78.0428C110.485 78.5296 111.021 78.8581 111.454 78.6295L115.552 76.4557L115.544 76.4511Z" fill="#FCF9CA"/>
<path d="M137.311 68.5792L139.732 76.9591C139.831 77.2943 139.633 77.6465 139.297 77.7452L136.123 78.6606C135.788 78.7594 135.436 78.5609 135.337 78.2257L133.106 70.4917C132.584 68.6785 131.193 68.1557 129.788 68.5602C128.177 69.0242 127.338 70.2805 127.935 72.3628L130.07 79.7477C130.169 80.083 129.97 80.4351 129.635 80.5338L126.461 81.4493C126.125 81.548 125.773 81.3496 125.675 81.0143L121.795 67.5933C121.696 67.258 121.895 66.9059 122.23 66.8071L125.404 65.8917C125.739 65.793 126.092 65.9914 126.19 66.3267L126.413 67.0956C126.89 65.781 128.15 64.6596 130.085 64.1C133.045 63.2457 136.169 64.6238 137.311 68.5792Z" fill="#FCF9CA"/>
<path d="M156.805 72.8744C157.866 72.8983 158.802 72.5609 159.44 72.0572C159.641 71.8944 159.926 71.8807 160.15 72.0135L162.728 73.5637C163.076 73.7699 163.145 74.2439 162.867 74.5441C161.354 76.1889 159.256 77.0065 156.66 76.9549C151.451 76.8565 148.285 73.287 148.378 68.7478C148.464 64.2102 151.826 60.7695 156.639 60.8577C161.084 60.9415 164.313 64.449 164.224 69.0529C164.214 69.5011 164.175 69.9372 164.111 70.3533C164.064 70.66 163.785 70.8755 163.476 70.8694L154.3 70.6893C153.753 70.6782 153.441 71.3282 153.8 71.7345C154.502 72.5318 155.579 72.8467 156.811 72.8728L156.805 72.8744ZM158.754 67.3694C159.241 67.3762 159.573 66.8524 159.327 66.4301C158.701 65.3644 157.615 64.9341 156.529 64.9165C155.192 64.8909 154.182 65.378 153.588 66.3097C153.325 66.7176 153.636 67.2674 154.123 67.2742L158.759 67.3617L158.754 67.3694Z" fill="#FCF9CA"/>
<path d="M183.618 66.2105L178.977 85.7395C178.894 86.0819 178.555 86.293 178.213 86.2101L174.996 85.4455C174.654 85.3625 174.443 85.0232 174.526 84.6808L175.795 79.3364C175.916 78.8337 175.418 78.4235 174.934 78.6061C173.899 78.9948 172.678 79.0641 171.269 78.7293C167.383 77.8079 164.993 73.6339 166.042 69.2177C167.09 64.8015 171.105 62.1507 174.991 63.0721C176.98 63.5472 178.271 64.5741 178.979 65.9336L179.161 65.1595C179.244 64.8172 179.584 64.606 179.926 64.689L183.143 65.4536C183.485 65.5366 183.696 65.8759 183.613 66.2182L183.618 66.2105ZM177.56 71.9518C178.086 69.7268 176.939 67.9815 174.889 67.4959C172.844 67.0087 171.026 68.0498 170.499 70.2749C169.973 72.4999 171.12 74.2452 173.171 74.7308C175.216 75.2179 177.034 74.1769 177.56 71.9518Z" fill="#FCF9CA"/>
<path d="M201.307 74.1915L195.261 86.7786C195.111 87.092 194.727 87.2295 194.412 87.074L191.439 85.6444C191.125 85.495 190.988 85.1107 191.143 84.7957L191.491 84.0778C190.264 84.7386 188.572 84.7378 186.757 83.8645C183.984 82.5278 182.568 79.4224 184.353 75.7094L188.133 67.8496C188.282 67.5362 188.667 67.3987 188.982 67.5542L191.955 68.9838C192.269 69.1332 192.406 69.5175 192.251 69.8325L188.762 77.0871C187.945 78.79 188.634 80.1018 189.949 80.7358C191.459 81.4644 192.928 81.0827 193.865 79.1328L197.195 72.207C197.345 71.8936 197.729 71.7562 198.044 71.9117L201.018 73.3413C201.331 73.4906 201.469 73.875 201.313 74.1899L201.307 74.1915Z" fill="#FCF9CA"/>
<path d="M206.109 76.7271L208.834 78.5939C209.12 78.7896 209.196 79.1896 209 79.4755L201.111 91.0062C200.916 91.2921 200.516 91.368 200.23 91.1723L197.505 89.3056C197.219 89.1099 197.143 88.7099 197.339 88.424L205.228 76.8933C205.423 76.6074 205.824 76.5314 206.109 76.7271ZM207.031 74.7157C206.782 71.1747 211.447 70.2979 212.503 73.6855C212.517 73.7409 212.534 73.8085 212.536 73.867C212.775 77.3973 208.122 78.271 207.064 74.8973C207.05 74.8419 207.033 74.7742 207.031 74.7157Z" fill="#FCF9CA"/>
<path d="M220.076 98.4647C216.952 101.759 212.147 102.036 209.25 99.2894C208.202 98.2921 207.591 97.2355 207.349 96.1571C207.232 95.6495 206.62 95.4585 206.264 95.8376L202.485 99.8241C202.241 100.076 201.844 100.086 201.587 99.8501L199.192 97.5782C198.939 97.3346 198.93 96.9373 199.166 96.6805L212.973 82.1244C213.217 81.8722 213.614 81.8625 213.871 82.0983L216.267 84.3702C216.519 84.6138 216.529 85.0111 216.293 85.268L215.746 85.8468C217.274 85.6989 218.842 86.2162 220.321 87.621C223.218 90.3678 223.195 95.1777 220.071 98.4724L220.076 98.4647ZM216.756 95.3211C218.331 93.6606 218.211 91.5744 216.682 90.1297C215.153 88.6851 213.066 88.6741 211.492 90.3346C209.917 91.9951 210.037 94.0813 211.566 95.526C213.094 96.9706 215.181 96.9816 216.756 95.3211Z" fill="#FCF9CA"/>
<path d="M221.325 100.02C225.085 97.4737 230.005 98.4915 232.519 102.201C235.026 105.913 234.14 110.858 230.379 113.404C226.619 115.95 221.699 114.933 219.185 111.223C216.678 107.512 217.565 102.566 221.327 100.026L221.325 100.02ZM227.813 109.616C229.607 108.404 229.938 106.34 228.831 104.696C227.723 103.053 225.68 102.598 223.885 103.81C222.091 105.022 221.76 107.085 222.868 108.729C223.975 110.373 226.018 110.828 227.813 109.616Z" fill="#FCF9CA"/>
<path d="M224.855 119.055C226.568 115.728 231.202 117.375 230.422 121.041C230.405 121.105 230.384 121.176 230.353 121.236C228.64 124.564 224.006 122.916 224.786 119.25C224.803 119.186 224.824 119.115 224.855 119.055ZM234.218 114.606C235.937 111.277 240.559 112.928 239.785 116.593C239.768 116.656 239.747 116.727 239.716 116.787C238.007 120.127 233.364 118.475 234.149 114.801C234.166 114.737 234.187 114.666 234.218 114.606Z" fill="#FCF9CA"/>
<path d="M200.734 165.317C197.701 156.648 195.233 163.203 191.835 166.325C181.233 176.058 166.718 165.386 168.948 152.305C170.284 144.499 177.622 139.486 185.464 141.376C189.662 142.388 195.318 147.445 193.75 137.995C193.669 137.524 193.577 137.01 193.474 136.48C192.078 132.321 191.08 127.024 190.068 122.42C189.48 120.348 188.886 118.436 188.36 116.912C187.78 115.231 186.983 113.397 185.525 112.484C184.542 112.047 183.435 111.845 182.531 111.951C181.666 112.054 180.548 112.242 179.271 112.502C173.408 113.849 165.606 117.021 159.734 117.74C157.732 117.983 155.953 117.946 154.555 117.451C147.31 114.87 153.571 107.773 153.718 103.548C154.024 94.7134 145.614 90.2417 137.769 92.7039C131.114 94.7967 127.818 102.599 131.143 108.742C133.352 112.825 141.965 116.55 137.196 121.871C136.18 123.002 133.408 124.155 131.275 124.916C130.68 125.127 130.138 125.311 129.696 125.457C126.103 126.63 121.651 127.393 117.476 128.315C113.564 129.419 110.164 130.53 108.936 131.289C108.619 131.488 108.302 131.707 108.009 131.945C107.387 132.72 106.981 133.669 106.796 134.641C108.959 142.595 110.219 152.071 112.934 159.754C115.833 167.946 119.969 159.248 122.788 157.073C131.222 150.575 142.072 155.878 144.231 165.767C146.353 175.462 139.103 184.647 128.859 182.59C124.866 181.788 118.345 176.886 119.537 185.508C119.648 186.325 119.819 187.278 120.023 188.333C120.883 191.24 121.604 194.628 122.3 197.891C123.204 201.251 124.15 204.444 124.892 206.581C125.772 209.102 126.742 210.565 127.843 211.333C128.553 211.649 129.314 211.809 130.039 211.722C131.8 211.508 133.908 211.14 136.111 210.682C137.013 210.413 137.963 210.157 138.972 209.952C139.309 209.886 139.646 209.845 139.98 209.819C142.755 209.163 145.447 208.436 147.591 207.797C149.259 207.299 156.132 205.006 156.806 204.336C159.641 201.502 153.676 198.621 151.977 196.59C136.298 177.872 175.663 162.203 177.67 186.792C178.05 191.466 171.709 198.715 178.038 199.32C187.004 197.345 196.093 195.057 204.883 192.216C205.363 191.989 205.729 191.6 206.008 191.129C206.513 189.899 206.483 188.419 206.247 186.933C205.366 181.351 202.601 170.68 200.728 165.319L200.734 165.317Z" fill="#FFB9CD"/>
<path d="M141.574 136.856C142.941 136.33 144.76 136.835 145.626 138.095C145.918 138.519 146.455 138.722 146.929 138.45C147.347 138.213 147.578 137.577 147.285 137.147C145.941 135.196 143.318 134.189 141.043 135.032C138.852 135.847 137.307 138.135 137.522 140.492C137.568 141.005 137.904 141.45 138.459 141.466C138.927 141.477 139.479 141.048 139.432 140.529C139.29 138.999 140.137 137.413 141.58 136.854L141.574 136.856Z" fill="#342E2E"/>
<path d="M164.263 133.316C163.219 130.922 160.486 129.535 157.943 129.969C155.362 130.411 153.414 132.79 153.222 135.349C153.134 136.571 155.036 136.603 155.125 135.387C155.251 133.645 156.681 132.087 158.409 131.822C160.181 131.547 161.91 132.672 162.605 134.264C162.81 134.735 163.49 134.857 163.908 134.619C164.395 134.344 164.471 133.794 164.263 133.316Z" fill="#342E2E"/>
<path d="M162.692 139.996L157.563 139.156C157.071 139.079 156.518 139.272 156.386 139.81C156.279 140.264 156.515 140.905 157.041 140.987C157.391 141.048 157.745 141.102 158.095 141.163C157.832 143.727 156.036 146.139 153.545 146.932C150.916 147.774 148.037 146.819 146.279 144.758C146.372 144.662 146.464 144.559 146.558 144.464C146.898 144.101 146.953 143.471 146.568 143.117C146.2 142.779 145.588 142.719 145.222 143.107C144.235 144.146 143.256 145.189 142.27 146.227C141.929 146.589 141.874 147.219 142.259 147.573C142.628 147.912 143.239 147.972 143.606 147.583C144.061 147.107 144.514 146.624 144.969 146.147C147.169 148.705 151.006 149.848 154.21 148.716C157.336 147.609 159.592 144.74 159.977 141.476L162.172 141.833C162.664 141.91 163.217 141.717 163.348 141.178C163.455 140.725 163.22 140.084 162.694 140.002L162.692 139.996Z" fill="#342E2E"/>
</svg>
