<svg width="28" height="26" viewBox="0 0 28 26" fill="none" xmlns="http://www.w3.org/2000/svg">
<path d="M26.4297 2.00998C22.5897 4.68998 18.7597 7.35998 14.9197 10.04V1.21997C14.9197 0.219971 13.3697 0.219971 13.3697 1.21997V10.34C11.5097 8.05997 9.64973 5.76996 7.78973 3.48996C7.15973 2.70996 6.05974 3.81997 6.68974 4.58997C8.51974 6.82997 10.3497 9.07998 12.1697 11.32C8.37973 11.15 4.59973 10.9 0.809731 10.57C-0.190269 10.48 -0.180269 12.04 0.809731 12.12C4.17973 12.41 7.54973 12.64 10.9197 12.81C8.62973 14.41 6.32973 16.01 4.03973 17.61C3.22973 18.18 3.99973 19.53 4.81973 18.95C7.66973 16.97 10.5097 14.98 13.3597 13V24.57C13.3597 25.57 14.9097 25.57 14.9097 24.57V14.69C17.3497 17.68 19.7897 20.68 22.2297 23.67C22.8597 24.45 23.9597 23.34 23.3297 22.57C20.7297 19.38 18.1297 16.18 15.5297 12.99C19.0497 13.09 22.5597 13.12 26.0897 13.04C27.0897 13.02 27.0897 11.46 26.0897 11.49C22.5897 11.57 19.0897 11.55 15.5997 11.45C19.4697 8.74998 23.3397 6.04998 27.2197 3.34998C28.0297 2.77998 27.2597 1.42998 26.4397 2.00998H26.4297Z" fill="#1D1D1B"/>
</svg>
