<svg width="23" height="23" viewBox="0 0 23 23" fill="none" xmlns="http://www.w3.org/2000/svg">
<path d="M8.09185 2.16132C9.11345 8.60275 9.40678 15.1453 9.0123 21.6575C8.91115 23.2856 11.4399 23.2754 11.541 21.6575C11.9557 14.9127 11.5916 8.15781 10.5295 1.48381C10.2767 -0.113903 7.83898 0.563613 8.09185 2.15122V2.16132Z" fill="white"/>
<path d="M0.92045 13.1836C6.42291 14.0735 11.9861 14.3061 17.529 13.8207C19.1372 13.6791 19.1473 11.1511 17.529 11.2926C12.2187 11.7578 6.85785 11.596 1.58803 10.7466C0.910335 10.6354 0.222528 10.9185 0.0303464 11.6263C-0.131491 12.2331 0.232643 13.0724 0.910335 13.1836H0.92045Z" fill="white"/>
<path d="M20.6848 3.67806C14.0091 8.12739 7.72777 13.1329 1.90164 18.644C0.718203 19.7664 2.50852 21.5462 3.69196 20.4339C9.36637 15.0744 15.4757 10.2004 21.9694 5.86228C23.3147 4.9623 22.0503 2.77808 20.695 3.67806H20.6848Z" fill="white"/>
<path d="M3.87387 7.33882C8.21313 12.496 13.22 17.0465 18.7325 20.9194C19.2888 21.3138 20.1385 21.0205 20.4622 20.4644C20.8364 19.8374 20.5734 19.1295 20.007 18.7352C14.6664 14.9836 9.85173 10.5342 5.65408 5.54897C5.21914 5.02314 4.31892 5.09392 3.86376 5.54897C3.3479 6.06469 3.41871 6.81299 3.86376 7.33882H3.87387Z" fill="white"/>
</svg>
