<svg width="1113" height="47" viewBox="0 0 1113 47" fill="none" xmlns="http://www.w3.org/2000/svg">
<path d="M766.51 23.1C772.89 23.1 778.07 28.27 778.07 34.66C784.45 34.66 789.63 29.49 789.63 23.1C789.63 16.71 784.45 11.55 778.07 11.55C778.07 17.93 772.9 23.1 766.51 23.1ZM754.95 34.66C754.95 41.04 760.12 46.21 766.5 46.21C772.88 46.21 778.06 41.04 778.06 34.66H754.95ZM754.95 34.66C754.95 28.28 760.12 23.1 766.5 23.1C760.12 23.1 754.95 17.93 754.95 11.55C748.57 11.55 743.4 16.72 743.4 23.1C743.4 29.48 748.57 34.66 754.95 34.66ZM754.95 11.55C754.95 5.17 760.12 0 766.5 0C772.88 0 778.06 5.17 778.06 11.55H754.95Z" fill="white"/>
<path d="M854.43 30.41H852.39V15.77H854.43C860.04 15.77 862.06 19.43 862.06 23.09C862.06 26.75 860.04 30.41 854.43 30.41ZM854.76 11.53H847.4V34.62H854.76C860.88 34.62 867.09 31.08 867.09 23.1C867.09 15.12 860.88 11.54 854.76 11.54M844.77 18.38C844.77 13.82 841.26 11.16 837.07 11.16C832.88 11.16 828.37 13.59 828.37 18.32C828.37 22.42 832.89 24.53 835.46 25.2C836.88 25.57 840.45 25.97 840.45 28.53C840.45 31.09 837.96 31.62 836.09 31.62C833.68 31.62 832.27 29.93 832.48 27.39H827.74C827.58 33.14 831.48 35.28 836.05 35.38C841.32 35.5 845.35 33.25 845.35 28.17C845.35 23.09 840.78 22.26 837.21 21.1C835.83 20.65 833.27 20.25 833.27 17.89C833.27 15.92 834.97 14.97 836.72 14.97C838.96 14.97 840.13 16.08 840.29 18.38H844.78H844.77ZM818.74 11.55H825.9V34.65H820.59V19.11L813.81 34.65L806.66 19.09V34.65H801.71V11.55H808.79L813.89 23.51L818.74 11.55Z" fill="white"/>
<path d="M981.46 31.9899L974.7 24.3399V32.5999H970.35V18.7099C970.35 18.2499 970.47 17.8899 970.72 17.6399C970.97 17.3899 971.32 17.2699 971.79 17.2699H972.62C972.99 17.2699 973.32 17.3299 973.6 17.4499C973.89 17.5699 974.15 17.7599 974.39 18.0199L981.13 25.6399V17.4099H985.51V31.2999C985.51 31.7599 985.39 32.1199 985.14 32.3699C984.89 32.6199 984.53 32.7399 984.07 32.7399H983.24C982.87 32.7399 982.54 32.6799 982.26 32.5599C981.97 32.4399 981.71 32.2499 981.47 31.9899" fill="white"/>
<path d="M994.91 33.0399C993.88 33.0399 992.91 32.8299 992.03 32.4199C991.14 31.9999 990.38 31.4399 989.74 30.7299C989.1 30.0199 988.6 29.1699 988.24 28.1899C987.88 27.2099 987.7 26.1599 987.7 25.0299C987.7 23.8999 987.88 22.8699 988.25 21.8799C988.62 20.8899 989.12 20.0399 989.76 19.3199C990.4 18.5999 991.16 18.0299 992.06 17.5999C992.96 17.1799 993.92 16.9599 994.96 16.9599C995.87 16.9599 996.71 17.1399 997.48 17.4899C998.26 17.8399 998.93 18.3599 999.5 19.0399V17.3999H1003.69V32.5899H999.73V30.7299C999.16 31.4899 998.46 32.0599 997.62 32.4499C996.79 32.8399 995.88 33.0299 994.9 33.0299M995.88 29.1899C997.03 29.1899 997.97 28.7799 998.71 27.9699C999.45 27.1599 999.82 26.1599 999.82 24.9799C999.82 23.8699 999.45 22.9099 998.71 22.0799C997.97 21.2599 997.03 20.8499 995.88 20.8499C994.73 20.8499 993.86 21.2599 993.15 22.0799C992.44 22.8999 992.08 23.8899 992.08 25.0299C992.08 26.1699 992.44 27.1799 993.15 27.9799C993.86 28.7799 994.77 29.1899 995.88 29.1899Z" fill="white"/>
<path d="M1012.18 32.5999C1010.41 32.5999 1009.01 32.1199 1008.01 31.1599C1007 30.1999 1006.5 28.8799 1006.5 27.1999V13.1699H1010.99V17.4099H1014.95V21.2099H1010.99V26.8899C1010.99 27.4799 1011.17 27.9499 1011.52 28.2899C1011.87 28.6299 1012.38 28.7999 1013.04 28.7999H1014.95V32.5999H1012.18Z" fill="white"/>
<path d="M1024.79 33.0399C1022.42 33.0399 1020.59 32.3799 1019.29 31.0699C1017.99 29.7599 1017.34 27.9899 1017.34 25.7799V17.4099H1021.94V26.0299C1021.94 26.9699 1022.17 27.7399 1022.63 28.3399C1023.09 28.9399 1023.81 29.2399 1024.79 29.2399C1025.77 29.2399 1026.51 28.9399 1026.97 28.3399C1027.42 27.7399 1027.65 26.9699 1027.65 26.0299V17.4099H1032.25V25.7799C1032.25 28.0199 1031.6 29.7899 1030.3 31.0899C1029 32.3899 1027.16 33.0399 1024.8 33.0399" fill="white"/>
<path d="M1040.54 17.4099H1043.31V21.2099H1041.4C1040.74 21.2099 1040.23 21.3799 1039.88 21.7199C1039.53 22.0599 1039.35 22.5299 1039.35 23.1199V32.5999H1034.86V22.8099C1034.86 21.1299 1035.36 19.8099 1036.37 18.8499C1037.38 17.8899 1038.77 17.4099 1040.54 17.4099Z" fill="white"/>
<path d="M1051.46 33.0399C1050.42 33.0399 1049.46 32.8299 1048.58 32.4199C1047.69 31.9999 1046.93 31.4399 1046.29 30.7299C1045.65 30.0199 1045.15 29.1699 1044.79 28.1899C1044.43 27.2099 1044.25 26.1599 1044.25 25.0299C1044.25 23.8999 1044.43 22.8699 1044.8 21.8799C1045.17 20.8899 1045.67 20.0399 1046.31 19.3199C1046.95 18.5999 1047.71 18.0299 1048.61 17.5999C1049.51 17.1799 1050.47 16.9599 1051.51 16.9599C1052.42 16.9599 1053.26 17.1399 1054.03 17.4899C1054.81 17.8399 1055.48 18.3599 1056.05 19.0399V17.3999H1060.24V32.5899H1056.28V30.7299C1055.71 31.4899 1055.01 32.0599 1054.17 32.4499C1053.34 32.8399 1052.43 33.0299 1051.45 33.0299M1052.43 29.1899C1053.58 29.1899 1054.52 28.7799 1055.26 27.9699C1056 27.1599 1056.37 26.1599 1056.37 24.9799C1056.37 23.8699 1056 22.9099 1055.26 22.0799C1054.52 21.2599 1053.58 20.8499 1052.43 20.8499C1051.28 20.8499 1050.41 21.2599 1049.7 22.0799C1048.99 22.8999 1048.63 23.8899 1048.63 25.0299C1048.63 26.1699 1048.99 27.1799 1049.7 27.9799C1050.41 28.7799 1051.32 29.1899 1052.43 29.1899Z" fill="white"/>
<path d="M1070.75 32.9299C1069.88 32.9299 1069.11 32.8099 1068.45 32.5799C1067.78 32.3499 1067.23 32.0399 1066.79 31.6699C1066.35 31.2899 1066.01 30.8499 1065.79 30.3499C1065.57 29.8499 1065.46 29.3299 1065.46 28.7999C1065.46 28.0799 1065.65 27.3799 1066.04 26.6899C1066.43 26.0099 1067.16 25.3799 1068.23 24.8099L1068.98 24.3899C1068.41 23.7599 1068 23.1399 1067.76 22.5299C1067.52 21.9199 1067.4 21.3499 1067.4 20.8099C1067.4 19.6299 1067.87 18.6299 1068.81 17.8199C1069.75 17.0099 1070.9 16.5999 1072.25 16.5999C1072.99 16.5999 1073.65 16.7199 1074.22 16.9499C1074.79 17.1799 1075.27 17.4899 1075.66 17.8799C1076.05 18.2699 1076.34 18.6999 1076.55 19.1799C1076.75 19.6599 1076.85 20.1499 1076.85 20.6499C1076.85 21.5199 1076.6 22.3099 1076.1 23.0299C1075.6 23.7499 1074.91 24.3899 1074.02 24.9399L1075.82 26.9099C1076.06 26.6099 1076.29 26.2999 1076.51 25.9699C1076.73 25.6399 1076.91 25.2999 1077.04 24.9399H1080.75C1080.4 25.7899 1079.99 26.5799 1079.53 27.3199C1079.07 28.0599 1078.57 28.7199 1078.03 29.3199L1081.05 32.5899H1076.86L1075.67 31.3399C1074.88 31.8599 1074.06 32.2499 1073.23 32.5199C1072.4 32.7899 1071.57 32.9199 1070.74 32.9199M1069.3 28.4999C1069.3 28.7999 1069.44 29.0799 1069.72 29.3499C1070 29.6199 1070.39 29.7499 1070.91 29.7499C1071.32 29.7499 1071.73 29.6899 1072.16 29.5599C1072.59 29.4299 1073 29.2499 1073.41 29.0099L1071.08 26.5999L1070.44 26.9299C1070.02 27.1699 1069.72 27.4199 1069.55 27.6799C1069.38 27.9399 1069.3 28.2199 1069.3 28.5099M1071.74 22.4799L1071.96 22.7299C1072.37 22.4899 1072.69 22.2199 1072.93 21.9299C1073.17 21.6299 1073.29 21.3099 1073.29 20.9599C1073.29 20.6999 1073.2 20.4599 1073.01 20.2299C1072.83 19.9999 1072.56 19.8799 1072.21 19.8799C1071.9 19.8799 1071.62 19.9899 1071.39 20.2099C1071.16 20.4299 1071.04 20.7099 1071.04 21.0399C1071.04 21.2599 1071.09 21.4899 1071.19 21.7199C1071.29 21.9499 1071.47 22.2099 1071.73 22.4799" fill="white"/>
<path d="M1090.56 33.0399C1089.27 33.0399 1088.08 32.8299 1087.01 32.4199C1085.94 31.9999 1085.03 31.4399 1084.28 30.7199C1083.53 29.9999 1082.95 29.1399 1082.53 28.1599C1082.11 27.1699 1081.91 26.1099 1081.91 24.9899C1081.91 23.8699 1082.12 22.8399 1082.53 21.8599C1082.95 20.8799 1083.53 20.0399 1084.28 19.3199C1085.03 18.6099 1085.94 18.0399 1087.01 17.6199C1088.08 17.1999 1089.27 16.9799 1090.59 16.9799C1091.2 16.9799 1091.81 17.0399 1092.42 17.1699C1093.03 17.2999 1093.54 17.4599 1093.94 17.6399V21.5999C1093.66 21.4699 1093.27 21.3399 1092.78 21.1999C1092.28 21.0599 1091.69 20.9899 1091.01 20.9899C1089.57 20.9899 1088.44 21.3799 1087.63 22.1499C1086.82 22.9299 1086.41 23.8699 1086.41 24.9799C1086.41 26.1399 1086.82 27.1099 1087.63 27.8899C1088.44 28.6699 1089.57 29.0499 1091.01 29.0499C1091.69 29.0499 1092.29 28.9799 1092.78 28.8299C1093.28 28.6799 1093.67 28.5399 1093.94 28.4099V32.3699C1093.55 32.5599 1093.05 32.7099 1092.43 32.8399C1091.81 32.9699 1091.19 33.0299 1090.56 33.0299" fill="white"/>
<path d="M1103.76 33.0399C1102.58 33.0399 1101.48 32.8299 1100.47 32.4199C1099.46 31.9999 1098.59 31.4399 1097.86 30.7199C1097.13 29.9999 1096.56 29.1499 1096.14 28.1699C1095.72 27.1899 1095.52 26.1299 1095.52 24.9799C1095.52 23.8299 1095.73 22.8299 1096.14 21.8499C1096.56 20.8699 1097.13 20.0199 1097.86 19.2999C1098.59 18.5799 1099.46 18.0099 1100.47 17.5999C1101.48 17.1799 1102.57 16.9799 1103.76 16.9799C1104.95 16.9799 1106.04 17.1899 1107.06 17.5999C1108.08 18.0199 1108.95 18.5799 1109.68 19.2999C1110.41 20.0199 1110.98 20.8699 1111.4 21.8499C1111.82 22.8299 1112.02 23.8699 1112.02 24.9799C1112.02 26.0899 1111.81 27.1899 1111.4 28.1699C1110.98 29.1499 1110.41 29.9999 1109.68 30.7199C1108.95 31.4399 1108.08 32.0099 1107.06 32.4199C1106.04 32.8399 1104.94 33.0399 1103.76 33.0399ZM1103.76 29.1899C1104.91 29.1899 1105.84 28.7899 1106.56 27.9799C1107.28 27.1799 1107.64 26.1699 1107.64 24.9699C1107.64 23.7699 1107.28 22.8499 1106.56 22.0499C1105.84 21.2499 1104.91 20.8399 1103.76 20.8399C1102.61 20.8399 1101.73 21.2399 1101 22.0499C1100.27 22.8499 1099.9 23.8299 1099.9 24.9699C1099.9 26.1699 1100.26 27.1699 1101 27.9799C1101.73 28.7799 1102.65 29.1899 1103.76 29.1899Z" fill="white"/>
<path d="M8.41 6.77994C8.41 6.99994 7.92 7.97994 7.28 9.74994C6.62 11.5899 5.97 14.1999 5.97 17.3399C5.97 19.2099 6.44 21.6899 6.82 24.1999L5.69 25.7299C3.89 23.5299 2.76 21.0599 2.76 16.8199C2.76 10.8099 6.39 6.63994 8.27 6.63994L8.41 6.77994ZM58.72 23.6299C58.94 24.2399 59.04 24.7299 59.04 25.2199C59.04 25.7899 58.83 26.3499 58.44 26.3499C58.16 26.3499 57.88 26.0299 57.88 25.5299C57.88 24.9999 58.34 24.1599 58.73 23.6199M7.13 26.0399C7.41 27.9099 7.67 29.7499 7.67 31.1999C7.67 34.5899 6.54 38.5499 4.59 38.5099C3.84 38.5099 3.21 37.7599 3.18 36.4599C3.11 32.2199 5.12 28.6199 7.13 26.0399ZM65.34 18.3399C64.73 19.1899 64.24 20.3899 64.24 21.9399C64.24 24.9099 65.93 27.7399 69.22 27.7399C72.51 27.7399 74.63 25.2299 74.63 21.7299C74.63 20.7099 74.59 20.5699 74.52 20.1499C75.26 19.8299 75.9 19.3399 76.4 18.9399C76.82 18.6199 77.14 18.4499 77.39 18.4499C77.71 18.4499 77.85 18.6999 77.85 19.1599V26.0899C77.85 27.2199 78.21 27.7499 79.09 27.7499C79.9 27.7499 80.47 27.1799 80.78 26.5099C81.95 24.0699 83.64 20.8199 84.38 19.5799C84.55 19.2999 84.7 19.0799 84.8 19.0799C84.95 19.0799 85.02 19.1899 85.02 19.6399V25.1599C85.02 26.7099 85.73 27.7399 87.28 27.7399C88.91 27.7399 89.72 26.1799 91.14 23.7799C91.21 23.6399 91.24 23.5299 91.24 23.4299C91.24 23.1099 90.96 22.9299 90.68 22.9299C90.36 22.9299 90.18 23.2499 89.12 24.4099C88.9 24.6299 88.7 24.9399 88.31 24.9399C88.17 24.9399 88.06 24.7699 88.06 24.5499V18.3699C88.06 16.6999 87.32 16.0399 86.36 16.0399C85.58 16.0399 84.95 16.3599 84.28 17.3499C83.08 19.1199 81.84 21.6299 81.17 22.8999C81.1 23.0499 80.99 23.2599 80.92 23.2599C80.85 23.2599 80.82 23.1499 80.82 22.8999V18.3799C80.82 17.0699 80.47 16.0499 79.09 16.0499C77.64 16.0499 76.9 17.0399 75.84 17.7799C75.17 18.2799 74.57 18.6299 74.11 18.8399C73.4 17.0399 72.1 16.1199 71 16.1599C69.9 16.1899 69.13 16.8699 69.13 17.9999C69.13 19.1299 69.84 19.9699 70.79 20.3299C71.32 20.5399 71.82 20.5799 72.52 20.5799C72.73 20.5799 72.95 20.5799 73.08 20.5399C73.15 20.8899 73.12 21.3899 73.12 21.7799C73.12 23.5099 72.1 25.2399 70.19 25.2399C68.28 25.2399 67.04 23.3299 67.04 21.1399C67.04 19.4799 67.53 18.0999 68.34 17.1499C68.66 16.7899 68.91 16.5799 68.91 16.2499C68.91 16.0799 68.66 16.0399 68.45 16.0399C67.1 16.0399 65.62 16.6499 64.6 17.1699C63.25 17.8699 61.66 19.0499 60.36 20.2099C59.72 18.7899 58.95 17.5599 58.55 16.5999C58.41 16.2099 58.31 15.7599 58.02 15.7599C57.77 15.7599 57.66 16.0099 57.49 16.4999C56.86 18.3699 53.47 23.8599 52.72 24.5999L52.51 24.8099C52.44 24.8099 52.39 24.7699 52.39 24.5599V18.3799C52.39 16.7099 51.72 16.0499 50.81 16.0499C50.03 16.0499 49.36 16.3699 48.72 17.3599C47.55 19.1299 46.14 21.7099 45.46 22.9799C45.36 23.1999 45.25 23.2599 45.21 23.2599C45.18 23.2599 45.15 23.1199 45.15 22.8999V18.3799C45.15 16.7099 44.48 16.0499 43.56 16.0499C42.78 16.0499 42.04 16.3399 41.43 17.3599C39.95 19.8699 37.48 23.7299 37.02 24.3599L36.81 24.5699C36.74 24.5699 36.7 24.4999 36.7 24.3199V18.3799C36.7 16.7099 36.03 16.0499 35.11 16.0499C33.83 16.0499 33.13 17.2199 32.67 17.9599C32.03 18.9899 31.19 20.3599 30.52 21.6399C30.06 22.4899 29.67 23.2599 29.52 23.2599C29.45 23.2599 29.45 22.9399 29.45 22.3399V17.6099C31.68 15.1299 33.06 12.0999 33.06 8.77994C33.06 6.86994 32.21 5.80994 30.91 5.80994C28.47 5.80994 26.6 9.62994 26.6 14.1499V17.8199C25.47 18.5299 24.41 18.8699 23.1 19.1299C22.43 17.1599 21.01 16.1299 19.89 16.1599C18.8 16.1899 18.02 16.8699 18.02 17.9999C18.02 19.8699 19.86 20.6499 21.48 20.6499H21.94C22.01 21.0099 22.01 21.3899 22.01 21.7799C22.01 23.5099 20.98 25.2399 19.08 25.2399C17.18 25.2399 15.94 23.3299 15.94 21.1399C15.94 19.4799 16.43 18.0999 17.24 17.1499C17.56 16.7899 17.81 16.4699 17.81 16.2499C17.81 16.0799 17.56 16.0399 17.34 16.0399C16 16.0399 13.03 17.8499 9.49 21.3799C9.18 18.5499 8.82 15.7899 8.82 13.1099C8.82 10.1099 9.41 7.54994 9.56 6.81994C9.63 6.36994 9.68 6.07994 9.68 5.86994C9.68 5.58994 9.53 5.43994 9.15 5.43994C6.28 5.43994 0 9.99994 0 16.8199C0 21.6499 1.77 23.9899 4.83 26.9899C2.97 29.9899 1.47 33.5599 1.47 36.7399C1.47 39.0399 2.01 40.7799 3.7 40.7799C7.24 40.7799 9.89 33.4299 9.89 27.9799C9.89 26.3599 9.82 24.7299 9.69 23.1099C10.99 21.7199 13.01 19.8499 13.49 19.6799C13.28 20.4199 13.14 21.1999 13.14 21.9399C13.14 24.9099 14.83 27.7399 18.12 27.7399C21.2 27.7399 23.53 25.2299 23.53 21.7299C23.53 21.2799 23.5 20.8799 23.46 20.4599C24.59 20.2499 25.62 19.9599 26.61 19.3699V26.4699C26.61 27.3799 27.24 27.7399 27.84 27.7399C28.65 27.7399 29.08 27.1699 29.68 25.8699C30.18 24.8099 31.52 22.3699 32.33 20.9199C32.97 19.7899 33.32 19.0499 33.61 19.0499C33.68 19.0499 33.75 19.2199 33.75 19.6399V25.6799C33.75 27.3099 34.6 27.7399 35.33 27.7399C36.06 27.7399 36.5 27.3499 36.96 26.7099C38.8 24.0899 40.74 20.9899 41.52 19.6399C41.67 19.3999 41.84 19.2199 41.98 19.2199C42.12 19.2199 42.19 19.2899 42.19 19.7499V26.0799C42.19 27.2099 42.54 27.7399 43.43 27.7399C44.24 27.7399 44.77 27.1699 45.08 26.4999C46.26 24.0599 47.98 20.8399 48.73 19.5699C48.9 19.2899 49.08 19.0399 49.18 19.0399C49.33 19.0399 49.36 19.2099 49.36 19.6799V25.6799C49.36 27.3099 50.21 27.7399 50.95 27.7399C51.93 27.7399 52.57 27.0299 53.21 26.2199C54.37 24.6999 56.07 21.9799 57.09 20.2399C57.45 20.8099 57.83 21.4799 58.15 22.2199C57.3 23.2499 56.45 24.4099 56.45 25.6499C56.45 26.9499 57.37 27.7399 58.32 27.7399C59.94 27.7399 61.43 26.1799 61.43 24.0299C61.43 23.1899 61.18 22.2999 60.87 21.4499C62.31 20.0299 64.05 18.6599 65.33 18.3399M29.46 13.1499C29.46 7.87994 30.49 7.06994 30.81 7.06994C31.38 7.06994 31.45 7.41994 31.45 9.43994C31.45 11.4599 30.57 14.2299 29.47 15.7199V13.1399L29.46 13.1499ZM19.61 18.2299C19.61 17.9099 19.82 17.7399 20.11 17.7399C20.56 17.7399 21.23 18.2299 21.62 19.2199C20.32 19.2199 19.61 18.9399 19.61 18.2399M70.7 18.2299C70.7 17.9099 70.92 17.7399 71.19 17.7399C71.65 17.7399 72.35 18.2299 72.74 19.2199C72.6 19.2199 72.39 19.2699 72.25 19.2699C71.4 19.2699 70.7 18.8599 70.7 18.2399" fill="white"/>
<path d="M99.1799 24.0999C98.5899 24.1699 98.2199 24.1699 97.5899 24.1699C96.2099 24.1699 95.1899 23.6399 95.1899 22.8699C95.1899 22.3799 95.4299 22.0899 96.1399 22.0899C97.2699 22.0899 98.1799 22.8699 99.1799 24.0999ZM106.14 24.4499C106.78 25.2999 107.55 26.1099 108.47 26.9899C106.59 29.9899 105.11 33.5599 105.11 36.7399C105.11 39.0299 105.64 40.7699 107.34 40.7699C110.87 40.7699 113.52 33.4299 113.52 27.9799C113.52 26.3499 113.45 24.7299 113.31 23.0999C114.62 21.7099 116.62 19.8499 117.13 19.6699C116.91 20.4099 116.77 21.1899 116.77 21.9299C116.77 24.8999 118.47 27.7299 121.76 27.7299C124.83 27.7299 127.16 25.2199 127.16 21.7099C127.16 21.2599 127.13 20.8699 127.09 20.4399C128.23 20.2299 129.25 19.9399 130.24 19.3499V26.4499C130.24 27.3599 130.87 27.7199 131.47 27.7199C132.29 27.7199 132.72 27.1499 133.31 25.8499C133.8 24.7899 135.15 22.3499 135.96 20.8899C136.59 19.7599 136.94 19.0299 137.24 19.0299C137.31 19.0299 137.37 19.1999 137.37 19.6199V25.6599C137.37 27.2899 138.22 27.7199 138.96 27.7199C139.7 27.7199 140.12 27.3299 140.59 26.6899C142.43 24.0699 144.37 20.9599 145.14 19.6199C145.29 19.3799 145.47 19.1999 145.6 19.1999C145.74 19.1999 145.82 19.2699 145.82 19.7299V26.0599C145.82 27.1899 146.17 27.7199 147.05 27.7199C147.86 27.7199 148.39 27.1499 148.71 26.4799C149.88 24.0499 151.6 20.8299 152.34 19.5599C152.52 19.2799 152.7 19.0299 152.81 19.0299C152.95 19.0299 152.99 19.1999 152.99 19.6699V25.6699C152.99 27.2999 153.83 27.7299 154.57 27.7299C155.56 27.7299 156.2 27.0199 156.83 26.2099C158 24.6899 159.7 21.9799 160.72 20.2399C161.07 20.8099 161.46 21.4799 161.78 22.2199C160.93 23.2499 160.09 24.4099 160.09 25.6499C160.09 26.9499 161 27.7399 161.96 27.7399C163.59 27.7399 165.07 26.1799 165.07 24.0299C165.07 23.1899 164.82 22.2999 164.51 21.4499C165.95 20.0299 167.69 18.6599 168.96 18.3399C168.36 19.1899 167.87 20.3899 167.87 21.9399C167.87 24.9099 169.56 27.7399 172.85 27.7399C176.14 27.7399 178.25 25.2299 178.25 21.7199C178.25 20.6999 178.22 20.5599 178.15 20.1399C178.89 19.8199 179.53 19.3299 180.03 18.9299C180.45 18.6099 180.77 18.4399 181.01 18.4399C181.33 18.4399 181.48 18.6899 181.48 19.1499V26.0799C181.48 27.2099 181.83 27.7399 182.71 27.7399C183.52 27.7399 184.09 27.1699 184.41 26.4999C185.57 24.0699 187.27 20.8099 188.01 19.5799C188.18 19.2999 188.33 19.0799 188.44 19.0799C188.59 19.0799 188.66 19.1899 188.66 19.6399V25.1599C188.66 26.7099 189.36 27.7399 190.92 27.7399C192.48 27.7399 193.36 26.1799 194.78 23.7799C194.85 23.6399 194.88 23.5299 194.88 23.4299C194.88 23.1099 194.59 22.9299 194.32 22.9299C194 22.9299 193.82 23.2499 192.77 24.4099C192.56 24.6299 192.35 24.9399 191.96 24.9399C191.81 24.9399 191.71 24.7699 191.71 24.5499V18.3699C191.71 16.7099 190.95 16.0399 190 16.0399C189.23 16.0399 188.6 16.3599 187.92 17.3499C186.71 19.1199 185.48 21.6299 184.81 22.8999C184.74 23.0499 184.63 23.2599 184.55 23.2599C184.47 23.2599 184.45 23.1499 184.45 22.8999V18.3799C184.45 17.0699 184.1 16.0499 182.72 16.0499C181.27 16.0499 180.53 17.0399 179.47 17.7799C178.79 18.2799 178.19 18.6299 177.73 18.8399C177.03 17.0399 175.71 16.1299 174.63 16.1499C173.53 16.1899 172.76 16.8599 172.76 17.9999C172.76 19.1399 173.47 19.9599 174.41 20.3299C174.94 20.5399 175.44 20.5799 176.15 20.5799C176.36 20.5799 176.56 20.5799 176.71 20.5399C176.78 20.8899 176.74 21.3899 176.74 21.7799C176.74 23.5099 175.71 25.2399 173.8 25.2399C171.89 25.2399 170.66 23.3299 170.66 21.1399C170.66 19.4799 171.15 18.0999 171.96 17.1499C172.28 16.7899 172.53 16.5899 172.53 16.2599C172.53 16.0899 172.28 16.0499 172.07 16.0499C170.72 16.0499 169.24 16.6599 168.22 17.1799C166.88 17.8799 165.28 19.0599 163.98 20.2199C163.34 18.7999 162.57 17.5699 162.17 16.6099C162.03 16.2199 161.93 15.7699 161.63 15.7699C161.39 15.7699 161.28 16.0199 161.1 16.5099C160.46 18.3799 157.08 23.8699 156.34 24.5999L156.12 24.8199C156.05 24.8199 156.02 24.7799 156.02 24.5699V18.3899C156.02 16.7299 155.35 16.0599 154.42 16.0599C153.65 16.0599 152.98 16.3799 152.34 17.3699C151.18 19.1399 149.76 21.7199 149.09 22.9899C148.99 23.2099 148.89 23.2699 148.85 23.2699C148.81 23.2699 148.77 23.1299 148.77 22.9099V18.3899C148.77 16.7299 148.11 16.0599 147.19 16.0599C146.41 16.0599 145.66 16.3499 145.07 17.3699C143.58 19.8799 141.11 23.7399 140.65 24.3599L140.44 24.5799C140.38 24.5799 140.34 24.5099 140.34 24.3299V18.3899C140.34 16.7299 139.67 16.0599 138.75 16.0599C137.48 16.0599 136.77 17.2299 136.31 17.9699C135.68 18.9899 134.83 20.3799 134.16 21.6499C133.71 22.4999 133.32 23.2699 133.18 23.2699C133.11 23.2699 133.11 22.9499 133.11 22.3499V17.6199C135.34 15.1399 136.71 12.1099 136.71 8.78992C136.71 6.87992 135.87 5.81992 134.55 5.81992C132.12 5.81992 130.25 9.63992 130.25 14.1599V17.8399C129.11 18.5499 128.06 18.8899 126.74 19.1499C126.07 17.1699 124.66 16.1499 123.53 16.1799C122.43 16.2199 121.65 16.8899 121.65 18.0299C121.65 19.8999 123.49 20.6799 125.11 20.6799H125.57C125.64 21.0299 125.64 21.4199 125.64 21.8099C125.64 23.5399 124.62 25.2699 122.71 25.2699C120.8 25.2699 119.57 23.3599 119.57 21.1699C119.57 19.5099 120.07 18.1299 120.87 17.1799C121.19 16.8199 121.43 16.5099 121.43 16.2899C121.43 16.1199 121.18 16.0799 120.97 16.0799C119.63 16.0799 116.66 17.8899 113.12 21.4199C112.81 18.5899 112.45 15.8299 112.45 13.1499C112.45 10.1499 113.05 7.59992 113.19 6.85992C113.26 6.40992 113.3 6.11992 113.3 5.90992C113.3 5.62992 113.15 5.47992 112.78 5.47992C109.91 5.47992 103.63 10.0399 103.63 16.8599C103.63 19.6499 104.23 21.6299 105.29 23.3599C104.9 23.2899 104.58 23.2899 104.3 23.2899C103.17 23.2899 102.11 23.5699 101.45 23.7099V22.9999C101.45 21.4799 101.09 19.3899 100.46 18.6899L100.18 18.5799C99.8899 18.5799 99.5399 18.7199 99.1499 18.9299C98.7199 19.1399 98.2999 19.3599 98.2999 19.4899C98.2999 19.5599 98.2999 19.6299 98.4099 19.8099C98.6599 20.1699 99.3299 20.8699 99.5699 22.5399C98.3699 21.3299 96.9899 20.7999 95.1999 20.7999C93.0699 20.7999 92.4399 21.7499 92.4399 22.7099C92.4399 24.5499 94.8799 25.4599 97.9599 25.4599C98.5199 25.4599 99.1599 25.3599 99.7899 25.2099C99.7899 25.7699 99.8599 26.2699 99.8599 26.6999C99.8599 27.2999 99.9599 27.7599 100.35 27.7599C100.94 27.7599 101.31 26.5499 101.37 24.8299C102.47 24.5399 103.6 24.2999 104.56 24.2999C105.02 24.2999 105.59 24.3599 106.15 24.4699M112.03 6.77992C112.03 6.99992 111.54 7.97992 110.9 9.74992C110.23 11.5899 109.6 14.1999 109.6 17.3399C109.6 19.2099 110.07 21.6899 110.45 24.1999L109.32 25.7199C107.53 23.5199 106.38 21.0599 106.38 16.8099C106.38 10.7999 110.03 6.63992 111.9 6.63992L112.03 6.77992ZM162.35 23.6299C162.57 24.2299 162.67 24.7299 162.67 25.2199C162.67 25.7899 162.46 26.3499 162.07 26.3499C161.79 26.3499 161.5 26.0299 161.5 25.5399C161.5 25.0099 161.97 24.1599 162.36 23.6299M110.77 26.0399C111.04 27.9099 111.3 29.7499 111.3 31.1899C111.3 34.5799 110.17 38.5399 108.22 38.5099C107.48 38.5099 106.85 37.7599 106.81 36.4599C106.74 32.2199 108.75 28.6199 110.77 26.0399ZM133.09 13.1399C133.09 7.86992 134.11 7.05992 134.43 7.05992C135 7.05992 135.07 7.40992 135.07 9.42992C135.07 11.4499 134.19 14.2199 133.09 15.7099V13.1299V13.1399ZM123.23 18.2299C123.23 17.9099 123.45 17.7399 123.73 17.7399C124.19 17.7399 124.86 18.2299 125.25 19.2199C123.95 19.2199 123.24 18.9399 123.24 18.2399M174.33 18.2299C174.33 17.9099 174.54 17.7399 174.82 17.7399C175.28 17.7399 175.98 18.2299 176.37 19.2199C176.23 19.2199 176.02 19.2599 175.87 19.2599C175.02 19.2599 174.32 18.8599 174.32 18.2299" fill="white"/>
<path d="M349.55 9.39014C349.54 9.61014 349.52 9.82014 349.52 10.0401C349.52 18.5901 349.52 27.1401 349.52 35.6901V36.3601H344.54V35.0001C344.39 35.0801 344.3 35.1101 344.22 35.1601C342.88 36.0101 341.43 36.5501 339.85 36.7301C339.75 36.7401 339.66 36.7901 339.57 36.8201H337.55C337.44 36.7901 337.33 36.7401 337.22 36.7201C331.42 36.0101 327.34 30.5301 328.3 24.7501C329.51 17.4301 337.72 13.6801 344.05 17.5601C344.18 17.6401 344.32 17.7201 344.51 17.8301V9.39014C346.19 9.39014 347.87 9.39014 349.55 9.39014ZM344.55 26.4301C344.55 23.2401 342.03 20.6901 338.85 20.6701C335.64 20.6501 333.06 23.1901 333.04 26.3901C333.02 29.5701 335.6 32.1801 338.78 32.1901C341.97 32.2001 344.55 29.6401 344.55 26.4401V26.4301Z" fill="white"/>
<path d="M306.7 36.8202C306.1 36.6902 305.49 36.5802 304.9 36.4202C300.24 35.1402 297.11 30.7602 297.35 25.8902C297.58 21.0702 301.21 16.9602 305.94 16.1802C308.56 15.7502 311.02 16.2002 313.29 17.6202C313.39 17.6802 313.49 17.7402 313.67 17.8502V9.41016C315.35 9.41016 317.03 9.41016 318.71 9.41016C318.71 9.63016 318.69 9.85016 318.69 10.0602C318.69 18.6102 318.69 27.1602 318.69 35.7102V36.3702H313.66V35.1702C312.56 35.6202 311.49 36.0802 310.39 36.4802C309.86 36.6702 309.28 36.7202 308.73 36.8302H306.71L306.7 36.8202ZM307.94 20.6702C304.76 20.6702 302.22 23.2202 302.2 26.4002C302.19 29.5902 304.76 32.1802 307.95 32.1802C311.14 32.1802 313.72 29.6002 313.72 26.4102C313.72 23.2102 311.15 20.6602 307.94 20.6702Z" fill="white"/>
<path d="M360.95 36.8201C360.48 36.7201 360 36.6301 359.53 36.5201C354.7 35.4001 351.42 31.0301 351.58 25.9401C351.73 21.1601 355.4 16.9701 360.16 16.1701C362.76 15.7401 365.21 16.1801 367.46 17.5701C367.58 17.6501 367.71 17.7101 367.9 17.8201V16.2801H372.88V36.3501H367.93V35.0001C367.77 35.0801 367.69 35.1101 367.61 35.1601C366.26 36.0201 364.79 36.5601 363.19 36.7301C363.11 36.7301 363.04 36.7801 362.96 36.8101H360.94L360.95 36.8201ZM367.96 26.4001C367.94 23.1901 365.39 20.6501 362.18 20.6701C359 20.6801 356.45 23.2301 356.45 26.4101C356.45 29.6101 359.05 32.2001 362.27 32.1801C365.43 32.1601 367.99 29.5701 367.97 26.4001H367.96Z" fill="white"/>
<path d="M273.92 25.4301C274.05 24.8401 274.15 24.2501 274.31 23.6701C276.16 16.9801 283.86 13.9401 289.78 17.5601C289.92 17.6401 290.06 17.7201 290.26 17.8401V16.3001H295.24V36.3701H290.29V35.0001C290.07 35.1201 289.93 35.2001 289.8 35.2801C288.52 36.0601 287.14 36.5601 285.65 36.7301C285.54 36.7401 285.43 36.7901 285.32 36.8201H283.3C283.19 36.7901 283.08 36.7401 282.97 36.7201C278.72 36.2001 275.19 33.0301 274.22 28.8501C274.11 28.3801 274.02 27.9101 273.92 27.4401C273.92 26.7701 273.92 26.1001 273.92 25.4201V25.4301ZM284.56 20.6701C281.36 20.6701 278.79 23.2401 278.8 26.4301C278.8 29.6001 281.37 32.1701 284.53 32.1801C287.72 32.1901 290.3 29.6201 290.32 26.4301C290.33 23.2301 287.77 20.6701 284.56 20.6601V20.6701Z" fill="white"/>
<path d="M383.84 36.8201C382.71 36.6501 381.57 36.5601 380.47 36.2901C378.73 35.8701 377.23 35.0101 376.11 33.5701C375.28 32.5001 374.87 31.2801 374.79 29.9001H379.86C380.21 31.7101 381.17 32.6801 383.03 32.8801C383.95 32.9801 384.89 32.8701 385.82 32.7801C386.13 32.7501 386.45 32.5501 386.72 32.3601C387.8 31.5901 387.73 30.1201 386.52 29.5901C385.69 29.2201 384.76 29.0601 383.87 28.8601C382.28 28.5001 380.67 28.2601 379.11 27.8101C377.23 27.2701 375.82 26.1501 375.38 24.1101C374.74 21.1601 375.98 18.4001 378.73 17.0901C381.94 15.5601 385.25 15.5901 388.46 17.1001C390.42 18.0201 391.57 19.6601 391.97 21.8001C392.01 22.0301 392.02 22.2601 392.04 22.5401H387.09C387.09 22.5401 387.04 22.4701 387.03 22.4301C386.84 20.7801 385.62 19.9701 384.08 19.8801C383.4 19.8401 382.71 19.9001 382.03 19.9901C381.69 20.0301 381.35 20.2001 381.06 20.3901C379.98 21.0801 380.01 22.4901 381.18 23.0001C382.04 23.3801 382.99 23.5801 383.92 23.8001C385.47 24.1701 387.04 24.4301 388.58 24.8401C389.28 25.0201 389.96 25.3801 390.58 25.7601C391.79 26.5001 392.49 27.6201 392.72 29.0201C392.74 29.1301 392.79 29.2401 392.82 29.3501V31.0601C392.78 31.1701 392.74 31.2701 392.72 31.3801C392.45 32.9301 391.68 34.1601 390.41 35.0801C389.5 35.7401 388.48 36.1801 387.39 36.3901C386.46 36.5701 385.5 36.6701 384.56 36.8001H383.85L383.84 36.8201Z" fill="white"/>
<path d="M326.16 9.39014C326.15 10.8301 326.13 12.2701 326.12 13.7101C326.12 14.4001 326.12 14.4001 325.45 14.4001C324.03 14.4001 322.61 14.4001 321.12 14.4001V9.39014H326.16Z" fill="white"/>
<path d="M321.15 16.2701H326.07V36.3701H321.15V16.2701Z" fill="white"/>
<path d="M626.01 38.92V38.14L624.92 37.91V32.15C624.92 30.17 624.26 29.39 622.59 29.39C621.58 29.39 620.88 29.74 619.91 30.75C619.44 29.82 618.78 29.43 617.73 29.43C616.76 29.43 615.94 29.78 615.05 30.64V29.28H614.62L612.29 29.9V30.44L613.38 30.63V37.94L612.29 38.17V38.91H616.06V38.13L615.13 37.9V31.48C615.91 30.74 616.37 30.51 617 30.51C617.86 30.51 618.32 31.13 618.32 32.3V37.94L617.23 38.17V38.91H621.04V38.13L620.03 37.9V31.52C620.89 30.74 621.31 30.51 621.94 30.51C622.76 30.51 623.18 31.13 623.18 32.26V37.94L622.13 38.17V38.91H626.02L626.01 38.92ZM610.45 38.92V38.18L609.36 37.95V29.39H608.97L606.64 30.01V30.55L607.61 30.78V37.94L606.64 38.17V38.91H610.45V38.92ZM608.35 24.64C607.65 24.64 607.14 25.11 607.14 25.81C607.14 26.47 607.65 27.02 608.31 27.02C608.97 27.02 609.52 26.48 609.52 25.81C609.52 25.14 609.01 24.64 608.35 24.64ZM631.3 9.43004H630.87L628.57 10.05V10.59L629.7 10.78V18.06L628.57 18.29V19.03H632.73V18.29L631.37 18.06V12.89C631.37 12.27 631.91 11.57 632.65 11.18L633.7 11.69C634.17 11.42 634.32 11.11 634.32 10.56C634.32 9.94004 633.93 9.55004 633.31 9.55004C632.57 9.55004 632.22 9.86004 631.29 11.46V9.44004L631.3 9.43004ZM621.62 13.28C621.85 11.1 622.36 10.17 623.33 10.17C624.3 10.17 624.69 11.03 624.77 13.28H621.62ZM626.56 14.02C626.52 12.78 626.44 12.27 626.33 11.76C625.9 10.16 624.89 9.35004 623.41 9.35004C621.19 9.35004 619.87 11.3 619.87 14.52C619.87 17.52 621.15 19.23 623.37 19.23C624.85 19.23 625.7 18.65 626.48 17.09L625.82 16.74C625.28 17.63 624.77 17.98 623.99 17.98C622.51 17.98 621.81 16.81 621.62 14.01H626.56V14.02ZM612.78 18.65C616.75 18.88 617.06 18.96 617.06 19.93C617.06 20.9 615.85 21.64 614.18 21.64C612.82 21.64 612 21.06 612 20.16C612 19.58 612.23 19.11 612.78 18.64M614.15 10.05C615.16 10.05 615.63 10.87 615.63 12.62C615.63 14.18 615.16 14.92 614.23 14.92C613.3 14.92 612.79 14.14 612.79 12.43C612.79 10.83 613.22 10.06 614.15 10.06M618.35 10.52V9.59004L616.83 9.63004H616.52C616.33 9.67004 616.21 9.67004 616.13 9.67004C615.94 9.67004 615.7 9.63004 615.24 9.51004C614.7 9.39004 614.46 9.35004 614.11 9.35004C612.36 9.35004 610.96 10.75 610.96 12.58C610.96 13.83 611.43 14.53 612.59 15.23C611.27 16.05 610.76 16.63 610.76 17.33C610.76 17.91 611.11 18.26 611.89 18.54C610.8 19.2 610.37 19.82 610.37 20.6C610.37 21.81 611.65 22.55 613.72 22.55C616.48 22.55 618.27 21.23 618.27 19.2C618.27 17.68 617.45 17.02 615.55 16.94L613.41 16.9C612.71 16.86 612.44 16.74 612.44 16.47C612.44 16.24 612.71 15.93 613.3 15.5C613.69 15.62 613.92 15.66 614.31 15.66C616.14 15.66 617.5 14.38 617.5 12.63C617.5 11.89 617.31 11.31 616.72 10.53H618.35V10.52ZM609.01 19.04V18.26L608 18.03V12.04C608 10.29 607.26 9.43004 605.74 9.43004C604.88 9.43004 604.3 9.70004 603.13 10.68V9.40004H602.66L600.36 10.02V10.68L601.45 10.8V18.08L600.36 18.31V19.05H604.21V18.27L603.16 18.04V11.62C604.05 10.84 604.48 10.65 605.07 10.65C605.85 10.65 606.28 11.27 606.28 12.4V18.12L605.19 18.31V19.05H609L609.01 19.04ZM599.71 33.16C599.94 30.98 600.45 30.05 601.42 30.05C602.39 30.05 602.78 30.91 602.86 33.16H599.71ZM604.65 33.9C604.61 32.65 604.53 32.15 604.42 31.64C603.99 30.04 602.98 29.23 601.46 29.23C599.28 29.23 597.96 31.18 597.96 34.4C597.96 37.4 599.24 39.11 601.46 39.11C602.94 39.11 603.79 38.53 604.57 36.97L603.91 36.62C603.37 37.51 602.86 37.87 602.08 37.87C600.6 37.87 599.9 36.7 599.71 33.9H604.65ZM596.29 38.92V38.18L595.28 37.95V31.88C595.28 30.28 594.5 29.39 593.06 29.39C592.2 29.39 591.5 29.7 590.41 30.6V24.65H589.98L587.65 25.16V25.78L588.7 26.01V37.95L587.57 38.18V38.92H591.38V38.18L590.41 37.95V31.57C591.23 30.83 591.69 30.6 592.32 30.6C593.18 30.6 593.49 31.14 593.49 32.66V37.99L592.52 38.18V38.92H596.29ZM585.86 38.92V38.14L584.85 37.91V24.6H584.46L582.09 25.14V25.72L583.18 25.88V37.94L582.05 38.17V38.91H585.86V38.92ZM575.51 33.16C575.74 30.98 576.25 30.05 577.22 30.05C578.19 30.05 578.58 30.91 578.66 33.16H575.51ZM580.45 33.9C580.41 32.65 580.33 32.15 580.22 31.64C579.79 30.04 578.78 29.23 577.26 29.23C575.08 29.23 573.76 31.18 573.76 34.4C573.76 37.4 575.04 39.11 577.26 39.11C578.74 39.11 579.59 38.53 580.37 36.97L579.71 36.62C579.17 37.51 578.66 37.87 577.88 37.87C576.4 37.87 575.7 36.7 575.51 33.9H580.45ZM598.58 19.04V18.3L597.49 18.07V9.51004H597.1L594.77 10.13V10.67L595.74 10.9V18.06L594.77 18.29V19.03H598.58V19.04ZM596.48 4.76004C595.78 4.76004 595.27 5.23004 595.27 5.93004C595.27 6.59004 595.78 7.14004 596.44 7.14004C597.1 7.14004 597.65 6.60004 597.65 5.93004C597.65 5.26004 597.14 4.76004 596.48 4.76004ZM590.3 9.43004H589.87L587.57 10.05V10.59L588.7 10.78V18.06L587.57 18.29V19.03H591.73V18.29L590.37 18.06V12.89C590.37 12.27 590.91 11.57 591.65 11.18L592.7 11.69C593.17 11.42 593.32 11.11 593.32 10.56C593.32 9.94004 592.93 9.55004 592.31 9.55004C591.57 9.55004 591.22 9.86004 590.29 11.46V9.44004L590.3 9.43004ZM585.9 19.04V18.3L584.89 18.07V12C584.89 10.4 584.11 9.51004 582.67 9.51004C581.81 9.51004 581.11 9.82004 580.02 10.72V4.77004H579.59L577.26 5.28004V5.90004L578.31 6.13004V18.07L577.18 18.3V19.04H580.99V18.3L580.02 18.07V11.69C580.84 10.95 581.3 10.72 581.93 10.72C582.79 10.72 583.1 11.26 583.1 12.78V18.11L582.13 18.3V19.04H585.9ZM566.68 38.53C570.69 38.8 570.96 38.88 570.96 39.81C570.96 40.74 569.75 41.52 568.08 41.52C566.72 41.52 565.9 40.94 565.9 40.04C565.9 39.46 566.13 39.03 566.68 38.52M568.04 29.93C569.05 29.93 569.52 30.75 569.52 32.5C569.52 34.06 569.05 34.8 568.12 34.8C567.19 34.8 566.68 34.02 566.68 32.31C566.68 30.71 567.11 29.94 568.04 29.94M572.24 30.4V29.47L570.72 29.51H570.41C570.22 29.55 570.1 29.55 570.02 29.55C569.83 29.55 569.59 29.51 569.13 29.39C568.59 29.27 568.35 29.23 568 29.23C566.25 29.23 564.85 30.63 564.85 32.46C564.85 33.7 565.32 34.44 566.48 35.11C565.2 35.93 564.65 36.55 564.65 37.25C564.65 37.79 565 38.14 565.78 38.42C564.69 39.12 564.26 39.7 564.26 40.52C564.26 41.69 565.54 42.43 567.61 42.43C570.37 42.43 572.16 41.11 572.16 39.08C572.16 37.56 571.34 36.9 569.44 36.86L567.3 36.78C566.6 36.74 566.33 36.62 566.33 36.35C566.33 36.12 566.6 35.81 567.19 35.38C567.58 35.5 567.81 35.54 568.2 35.54C570.03 35.54 571.39 34.26 571.39 32.51C571.39 31.77 571.2 31.19 570.61 30.41H572.24V30.4ZM562.91 38.92V38.14L561.9 37.91V31.92C561.9 30.17 561.16 29.31 559.64 29.31C558.78 29.31 558.2 29.58 557.03 30.55V29.27H556.56L554.26 29.89V30.55L555.35 30.67V37.95L554.26 38.18V38.92H558.11V38.14L557.06 37.91V31.49C557.95 30.71 558.38 30.52 558.97 30.52C559.75 30.52 560.18 31.14 560.18 32.27V37.99L559.09 38.18V38.92H562.9H562.91ZM552.56 38.92V38.14L551.39 37.91V26.51L552.6 26.28V25.5H548.32V26.32L549.53 26.48V37.96L548.32 38.19V38.93H552.56V38.92ZM570.73 13.28C570.96 11.1 571.47 10.17 572.44 10.17C573.41 10.17 573.8 11.03 573.88 13.28H570.73ZM575.67 14.02C575.63 12.78 575.55 12.27 575.44 11.76C575.01 10.16 574 9.35004 572.48 9.35004C570.3 9.35004 568.98 11.3 568.98 14.52C568.98 17.52 570.26 19.23 572.48 19.23C573.96 19.23 574.81 18.65 575.59 17.09L574.93 16.74C574.39 17.63 573.88 17.98 573.1 17.98C571.62 17.98 570.92 16.81 570.73 14.01H575.67V14.02ZM563.37 10.05C564.54 10.05 565.2 11.53 565.2 14.17C565.2 16.81 564.5 18.41 563.29 18.41C562.08 18.41 561.5 16.97 561.5 14.4C561.5 11.68 562.2 10.04 563.37 10.04M563.45 9.31004C561.19 9.31004 559.6 11.41 559.6 14.45C559.6 17.25 561.12 19.24 563.26 19.24C565.52 19.24 567.11 17.14 567.11 14.1C567.11 11.06 565.67 9.31004 563.45 9.31004ZM551.31 12.43H552.24C554.57 12.43 555.62 13.32 555.62 15.35C555.62 17.38 554.65 18.31 552.74 18.31C552.04 18.31 551.73 18.23 551.3 17.92V12.43H551.31ZM551.31 11.65V6.59004C551.78 6.40004 552.24 6.32004 552.71 6.32004C554.07 6.32004 554.89 7.25004 554.89 8.85004C554.89 10.76 554.07 11.65 552.36 11.65H551.31ZM550.5 5.66004H548.2V6.44004L549.52 6.67004V18.07L548.2 18.3V19.04H550.38L553.38 19.08C554.9 19.08 555.75 18.85 556.45 18.26C557.23 17.6 557.69 16.59 557.69 15.46C557.69 13.48 556.6 12.35 554.34 11.92C556.17 11.14 556.91 10.21 556.91 8.69004C556.91 6.74004 555.51 5.54004 553.29 5.54004C553.1 5.54004 552.63 5.58004 552.05 5.62004L550.49 5.66004H550.5ZM528.36 12.27L522.76 7.87004L517.16 12.31L518.13 13.4L522.76 9.78004L527.39 13.4L528.36 12.27ZM531 26.98H529.29V39.55C529.87 39.36 530.34 39.12 531 38.81V26.98ZM527.27 15.07H525.6V40.59C526.07 40.51 526.42 40.4 527.27 40.12V15.07ZM523.57 15.07H521.9V40.71C522.21 40.75 522.41 40.75 522.76 40.75C523.11 40.75 523.27 40.75 523.58 40.71V15.07H523.57ZM519.88 15.07H518.21V40.16C518.56 40.28 519.22 40.47 519.88 40.59V15.07ZM516.18 26.98H514.51V38.81C514.86 39 515.05 39.08 515.33 39.2C515.68 39.36 515.84 39.43 516.19 39.55V26.98H516.18ZM512.52 26.98H510.81V34.53C507.19 30.13 505.79 26.75 505.79 22.39C505.79 12.86 513.38 5.15004 522.75 5.15004C532.12 5.15004 539.67 12.81 539.67 22.31C539.67 26.86 538.15 30.52 534.65 34.53V26.98H532.98V37.64C535.35 35.85 536.4 34.92 537.49 33.48C539.9 30.41 541.22 26.44 541.22 22.35C541.22 12.08 532.97 3.79004 522.74 3.79004C512.51 3.79004 504.26 12.08 504.26 22.46C504.26 26.04 505.27 29.39 507.26 32.38C508.82 34.68 510.61 36.5 512.51 37.63V26.97L512.52 26.98Z" fill="white"/>
</svg>
