<?xml version="1.0" encoding="utf-8"?>
<!-- Generator: Adobe Illustrator 24.3.0, SVG Export Plug-In . SVG Version: 6.00 Build 0)  -->
<svg version="1.1" id="Capa_1" xmlns="http://www.w3.org/2000/svg" xmlns:xlink="http://www.w3.org/1999/xlink" x="0px" y="0px"
	 viewBox="0 0 362.6 172" style="enable-background:new 0 0 362.6 172;" xml:space="preserve">
<style type="text/css">
	.st0{fill:#FFFFFF;filter:url(#Adobe_OpacityMaskFilter);}
	.st1{mask:url(#path-1-outside-1_13_948_1_);fill:#FFFFFF;}
	.st2{fill:#FFFFFF;}
	.st3{fill:#FF7145;}
</style>
<defs>
	<filter id="Adobe_OpacityMaskFilter" filterUnits="userSpaceOnUse" x="1.7" y="1.3" width="343.1" height="95">
		<feColorMatrix  type="matrix" values="1 0 0 0 0  0 1 0 0 0  0 0 1 0 0  0 0 0 1 0"/>
	</filter>
</defs>
<mask maskUnits="userSpaceOnUse" x="1.7" y="1.3" width="343.1" height="95" id="path-1-outside-1_13_948_1_">
	<rect x="1" y="1" class="st0" width="344" height="96"/>
	<path d="M12.5,3.6v27.9h10.6V40H3.2V3.6H12.5z M27.7,7.3c2.4-3,5.6-4.5,9.8-4.5s7.4,1.5,9.8,4.5c2.4,3,3.6,7.8,3.6,14.4
		c0,6.7-1.2,11.5-3.6,14.5c-2.4,3-5.6,4.5-9.8,4.5s-7.4-1.5-9.8-4.5c-2.4-3-3.6-7.8-3.6-14.5C24.1,15.2,25.3,10.4,27.7,7.3z
		 M34.5,30c0.7,1.5,1.7,2.3,2.9,2.3c1.3,0,2.3-0.8,2.9-2.3c0.7-1.5,1-4.3,1-8.3c0-3.9-0.3-6.7-1-8.2c-0.7-1.5-1.7-2.3-2.9-2.3
		c-1.3,0-2.3,0.8-2.9,2.3c-0.7,1.5-1,4.3-1,8.2C33.5,25.8,33.8,28.5,34.5,30z M69,18.5c3.1,1.9,5.3,3.7,6.4,5.5
		c1.1,1.7,1.7,3.7,1.7,6c0,3.3-1.1,5.9-3.3,7.8c-2.2,1.9-5.2,2.9-9,2.9c-4.4,0-8.1-1-10.9-3.1l1.8-8c2.8,2,5.5,3,8,3
		c2.7,0,4-0.9,4-2.7c0-0.7-0.3-1.5-1-2.2c-0.6-0.7-1.9-1.7-3.8-2.8c-3-1.7-5.1-3.5-6.4-5.3c-1.3-1.9-2-4.1-2-6.6
		c0-3.1,1.1-5.6,3.3-7.5c2.2-1.9,5.1-2.8,8.8-2.8c3.6,0,6.8,0.7,9.4,2l-1,8.1c-0.8-0.5-1.8-1-3.2-1.4c-1.4-0.5-2.7-0.7-3.8-0.7
		c-2.6,0-4,0.9-3.9,2.6c0,0.8,0.4,1.6,1.2,2.4C66.1,16.6,67.4,17.5,69,18.5z M99.8,3.6h11.7l7.9,36.4H110l-0.9-5.5h-7l-0.9,5.5H92
		L99.8,3.6z M103.4,27.1h4.5l-2.1-12.5h-0.3L103.4,27.1z M131.6,3.6v27.9h10.6V40h-19.9V3.6H131.6z M161.6,21.4l5.6-17.8h9.6V40h-9
		V24.7h-0.2L162.7,40h-2.2l-4.9-15.3h-0.2V40h-9V3.6h9.6l5.6,17.8H161.6z M196.5,29.7V3.6h9.3v25.6c0,3.5-1.1,6.3-3.2,8.4
		c-2.1,2.1-4.9,3.1-8.2,3.1c-3.3,0-6-1-8.1-3.1c-2.1-2.1-3.2-4.9-3.2-8.4V3.6h9.3v26.1c0,0.8,0.2,1.4,0.6,1.9
		c0.4,0.5,0.9,0.7,1.4,0.7c0.6,0,1.1-0.2,1.5-0.7C196.3,31.1,196.5,30.5,196.5,29.7z M221.6,26.2v5.3h12V40h-21.3V3.6h20.9v8.5
		h-11.6v6.5H232v7.6H221.6z M257.5,24.1c1.8,0.6,2.9,2.2,3.4,5l2,10.9h-9.8l-1.7-10.1c-0.3-1.7-1.3-2.5-3-2.6H248V40h-9.3V3.6h12.7
		c3.1,0,5.7,1,7.7,3c2,2,3,4.7,3,8.2c0,4.1-1.5,7.1-4.5,9.1V24.1z M249.3,20c1,0,1.9-0.4,2.5-1.1c0.7-0.7,1-1.7,1-2.8
		c0-1.2-0.3-2.1-1-2.9c-0.7-0.7-1.5-1.1-2.5-1.1H248v8H249.3z M277.4,31.4v0.2H288V40h-22.1v-6.1l10.7-21.6v-0.2h-10.3V3.6h21.4v6.8
		L277.4,31.4z M293.9,7.3c2.4-3,5.6-4.5,9.8-4.5s7.4,1.5,9.8,4.5c2.4,3,3.6,7.8,3.6,14.4c0,6.7-1.2,11.5-3.6,14.5
		c-2.4,3-5.6,4.5-9.8,4.5s-7.4-1.5-9.8-4.5c-2.4-3-3.6-7.8-3.6-14.5C290.3,15.2,291.5,10.4,293.9,7.3z M300.7,30
		c0.7,1.5,1.7,2.3,2.9,2.3c1.3,0,2.3-0.8,2.9-2.3s1-4.3,1-8.3c0-3.9-0.3-6.7-1-8.2c-0.7-1.5-1.7-2.3-2.9-2.3c-1.3,0-2.3,0.8-2.9,2.3
		c-0.7,1.5-1,4.3-1,8.2C299.7,25.8,300,28.5,300.7,30z M335.2,18.5c3.1,1.9,5.3,3.7,6.4,5.5c1.1,1.7,1.7,3.7,1.7,6
		c0,3.3-1.1,5.9-3.3,7.8c-2.2,1.9-5.2,2.9-9,2.9c-4.4,0-8.1-1-10.9-3.1l1.8-8c2.8,2,5.5,3,8,3c2.7,0,4-0.9,4-2.7
		c0-0.7-0.3-1.5-1-2.2c-0.6-0.7-1.9-1.7-3.8-2.8c-3-1.7-5.1-3.5-6.4-5.3c-1.3-1.9-2-4.1-2-6.6c0-3.1,1.1-5.6,3.3-7.5
		c2.2-1.9,5.1-2.8,8.8-2.8c3.6,0,6.8,0.7,9.4,2l-1,8.1c-0.8-0.5-1.8-1-3.2-1.4c-1.4-0.5-2.7-0.7-3.8-0.7c-2.6,0-4,0.9-3.9,2.6
		c0,0.8,0.4,1.6,1.2,2.4C332.3,16.6,333.6,17.5,335.2,18.5z M12.5,57.6v27.9h10.6V94H3.2V57.6H12.5z M27.7,61.3
		c2.4-3,5.6-4.5,9.8-4.5s7.4,1.5,9.8,4.5c2.4,3,3.6,7.8,3.6,14.4c0,6.7-1.2,11.5-3.6,14.5c-2.4,3-5.6,4.5-9.8,4.5s-7.4-1.5-9.8-4.5
		c-2.4-3-3.6-7.8-3.6-14.5C24.1,69.2,25.3,64.4,27.7,61.3z M34.5,84c0.7,1.5,1.7,2.3,2.9,2.3c1.3,0,2.3-0.8,2.9-2.3
		c0.7-1.5,1-4.3,1-8.3c0-3.9-0.3-6.7-1-8.2c-0.7-1.5-1.7-2.3-2.9-2.3c-1.3,0-2.3,0.8-2.9,2.3c-0.7,1.5-1,4.3-1,8.2
		C33.5,79.8,33.8,82.5,34.5,84z M69,72.5c3.1,1.9,5.3,3.7,6.4,5.5c1.1,1.7,1.7,3.7,1.7,6c0,3.3-1.1,5.9-3.3,7.8
		c-2.2,1.9-5.2,2.9-9,2.9c-4.4,0-8.1-1-10.9-3.1l1.8-8c2.8,2,5.5,3,8,3c2.7,0,4-0.9,4-2.7c0-0.7-0.3-1.5-1-2.2
		c-0.6-0.7-1.9-1.7-3.8-2.8c-3-1.7-5.1-3.5-6.4-5.3c-1.3-1.9-2-4.1-2-6.6c0-3.1,1.1-5.6,3.3-7.5c2.2-1.9,5.1-2.8,8.8-2.8
		c3.6,0,6.8,0.7,9.4,2l-1,8.1c-0.8-0.5-1.8-1-3.2-1.4c-1.4-0.5-2.7-0.7-3.8-0.7c-2.6,0-4,0.9-3.9,2.6c0,0.8,0.4,1.6,1.2,2.4
		C66.1,70.6,67.4,71.5,69,72.5z M99.8,57.6h11.7l7.9,36.4H110l-0.9-5.5h-7l-0.9,5.5H92L99.8,57.6z M103.4,81.1h4.5l-2.1-12.5h-0.3
		L103.4,81.1z M131.6,57.6v27.9h10.6V94h-19.9V57.6H131.6z M161.6,75.4l5.6-17.8h9.6V94h-9V78.7h-0.2L162.7,94h-2.2l-4.9-15.3h-0.2
		V94h-9V57.6h9.6l5.6,17.8H161.6z M196.5,83.7V57.6h9.3v25.6c0,3.5-1.1,6.3-3.2,8.4c-2.1,2.1-4.9,3.1-8.2,3.1c-3.3,0-6-1-8.1-3.1
		c-2.1-2.1-3.2-4.9-3.2-8.4V57.6h9.3v26.1c0,0.8,0.2,1.4,0.6,1.9c0.4,0.5,0.9,0.7,1.4,0.7c0.6,0,1.1-0.2,1.5-0.7
		C196.3,85.1,196.5,84.5,196.5,83.7z M221.6,80.2v5.3h12V94h-21.3V57.6h20.9v8.5h-11.6v6.5H232v7.6H221.6z M257.5,78.1
		c1.8,0.6,2.9,2.2,3.4,5l2,10.9h-9.8l-1.7-10.1c-0.3-1.7-1.3-2.5-3-2.6H248V94h-9.3V57.6h12.7c3.1,0,5.7,1,7.7,3c2,2,3,4.7,3,8.2
		c0,4.1-1.5,7.1-4.5,9.1V78.1z M249.3,74c1,0,1.9-0.4,2.5-1.1c0.7-0.7,1-1.7,1-2.8c0-1.2-0.3-2.1-1-2.9c-0.7-0.7-1.5-1.1-2.5-1.1
		H248v8H249.3z M277.4,85.4v0.2H288V94h-22.1v-6.1l10.7-21.6v-0.2h-10.3v-8.5h21.4v6.8L277.4,85.4z M293.9,61.3
		c2.4-3,5.6-4.5,9.8-4.5s7.4,1.5,9.8,4.5c2.4,3,3.6,7.8,3.6,14.4c0,6.7-1.2,11.5-3.6,14.5c-2.4,3-5.6,4.5-9.8,4.5s-7.4-1.5-9.8-4.5
		c-2.4-3-3.6-7.8-3.6-14.5C290.3,69.2,291.5,64.4,293.9,61.3z M300.7,84c0.7,1.5,1.7,2.3,2.9,2.3c1.3,0,2.3-0.8,2.9-2.3s1-4.3,1-8.3
		c0-3.9-0.3-6.7-1-8.2c-0.7-1.5-1.7-2.3-2.9-2.3c-1.3,0-2.3,0.8-2.9,2.3c-0.7,1.5-1,4.3-1,8.2C299.7,79.8,300,82.5,300.7,84z
		 M335.2,72.5c3.1,1.9,5.3,3.7,6.4,5.5c1.1,1.7,1.7,3.7,1.7,6c0,3.3-1.1,5.9-3.3,7.8c-2.2,1.9-5.2,2.9-9,2.9c-4.4,0-8.1-1-10.9-3.1
		l1.8-8c2.8,2,5.5,3,8,3c2.7,0,4-0.9,4-2.7c0-0.7-0.3-1.5-1-2.2c-0.6-0.7-1.9-1.7-3.8-2.8c-3-1.7-5.1-3.5-6.4-5.3
		c-1.3-1.9-2-4.1-2-6.6c0-3.1,1.1-5.6,3.3-7.5c2.2-1.9,5.1-2.8,8.8-2.8c3.6,0,6.8,0.7,9.4,2l-1,8.1c-0.8-0.5-1.8-1-3.2-1.4
		c-1.4-0.5-2.7-0.7-3.8-0.7c-2.6,0-4,0.9-3.9,2.6c0,0.8,0.4,1.6,1.2,2.4C332.3,70.6,333.6,71.5,335.2,72.5z"/>
</mask>
<path class="st1" d="M12.5,3.6H14V2.1h-1.5V3.6z M12.5,31.5H11V33h1.5V31.5z M23.1,31.5h1.5V30h-1.5V31.5z M23.1,40v1.5h1.5V40H23.1
	z M3.2,40H1.7v1.5h1.5V40z M3.2,3.6V2.1H1.7v1.5H3.2z M11,3.6v27.9h3V3.6H11z M12.5,33h10.6v-3H12.5V33z M21.6,31.5V40h3v-8.5H21.6z
	 M23.1,38.5H3.2v3h19.9V38.5z M4.7,40V3.6h-3V40H4.7z M3.2,5.1h9.3v-3H3.2V5.1z M47.2,36.3l1.2,0.9l0,0L47.2,36.3z M27.7,36.3
	l-1.2,0.9l0,0L27.7,36.3z M28.9,8.3c2.1-2.6,4.9-3.9,8.6-3.9v-3c-4.5,0-8.3,1.7-10.9,5.1L28.9,8.3z M37.4,4.3c3.7,0,6.5,1.3,8.6,3.9
	l2.4-1.9C45.7,3,42,1.3,37.4,1.3V4.3z M46,8.3c2.1,2.6,3.2,7,3.2,13.5h3c0-6.7-1.2-12-3.9-15.4L46,8.3z M49.2,21.8
	c0,6.5-1.2,11-3.2,13.6l2.4,1.9c2.7-3.4,3.9-8.7,3.9-15.4H49.2z M46,35.4c-2.1,2.6-4.9,3.9-8.6,3.9v3c4.5,0,8.2-1.7,10.9-5.1
	L46,35.4z M37.4,39.3c-3.7,0-6.5-1.3-8.6-3.9l-2.4,1.9c2.7,3.4,6.4,5.1,10.9,5.1V39.3z M28.9,35.4c-2.1-2.6-3.2-7-3.2-13.6h-3
	c0,6.8,1.2,12,3.9,15.4L28.9,35.4z M25.6,21.8c0-6.5,1.2-10.9,3.2-13.5l-2.4-1.9c-2.7,3.4-3.9,8.6-3.9,15.4H25.6z M33.1,30.7
	c0.4,0.9,1,1.7,1.7,2.3c0.8,0.6,1.7,0.9,2.6,0.9v-3c-0.3,0-0.6-0.1-0.8-0.3c-0.2-0.2-0.5-0.5-0.8-1.1L33.1,30.7z M37.4,33.8
	c1,0,1.9-0.3,2.6-0.9c0.7-0.6,1.3-1.4,1.7-2.3L39,29.4c-0.3,0.6-0.5,0.9-0.8,1.1c-0.2,0.2-0.5,0.3-0.8,0.3V33.8z M41.7,30.7
	c0.8-1.8,1.1-4.9,1.1-8.9h-3c0,4-0.4,6.5-0.9,7.6L41.7,30.7z M42.9,21.8c0-3.9-0.3-7-1.1-8.8L39,14.2c0.5,1.2,0.9,3.6,0.9,7.6H42.9z
	 M41.7,13c-0.4-0.9-1-1.7-1.7-2.3c-0.8-0.6-1.7-0.9-2.6-0.9v3c0.3,0,0.6,0.1,0.8,0.3c0.2,0.2,0.5,0.5,0.8,1.1L41.7,13z M37.4,9.8
	c-1,0-1.9,0.3-2.6,0.9c-0.7,0.6-1.3,1.4-1.7,2.3l2.7,1.2c0.3-0.6,0.6-1,0.8-1.1c0.2-0.2,0.5-0.3,0.8-0.3V9.8z M33.1,13
	c-0.8,1.8-1.1,4.9-1.1,8.8h3c0-3.9,0.4-6.4,0.9-7.6L33.1,13z M32,21.8c0,4,0.3,7,1.1,8.9l2.7-1.2c-0.5-1.2-0.9-3.6-0.9-7.6H32z
	 M69,18.5l0.8-1.3l0,0L69,18.5z M75.4,24l-1.3,0.8l0,0L75.4,24z M73.8,37.9l1,1.1l0,0L73.8,37.9z M54,37.7l-1.5-0.3l-0.2,1l0.8,0.6
	L54,37.7z M55.8,29.7l0.9-1.2l-1.8-1.3l-0.5,2.2L55.8,29.7z M63,25.1l0.8-1.3l0,0l0,0L63,25.1z M56.6,19.7l-1.2,0.9l0,0L56.6,19.7z
	 M57.9,5.7l1,1.1l0,0L57.9,5.7z M76.1,4.8L77.6,5l0.1-1.1l-1-0.5L76.1,4.8z M75.1,12.9l-0.8,1.3l2,1.3l0.3-2.4L75.1,12.9z
	 M71.9,11.5l-0.5,1.4l0,0l0,0L71.9,11.5z M64.1,13.4h1.5v0v0L64.1,13.4z M65.3,15.9l-1,1.1l0,0l0,0L65.3,15.9z M68.3,19.8
	c3.1,1.9,5,3.6,5.9,5l2.5-1.6c-1.3-2-3.7-4-6.9-5.9L68.3,19.8z M74.2,24.8c0.9,1.4,1.4,3.2,1.4,5.2h3c0-2.6-0.6-4.9-1.9-6.9
	L74.2,24.8z M75.6,30c0,2.9-0.9,5.1-2.8,6.7l2,2.2c2.5-2.3,3.8-5.3,3.8-9H75.6z M72.8,36.7c-1.8,1.6-4.4,2.5-8,2.5v3
	c4,0,7.4-1,10-3.3L72.8,36.7z M64.9,39.3c-4.2,0-7.5-1-10-2.8l-1.8,2.4c3.2,2.3,7.1,3.4,11.8,3.4V39.3z M55.4,38l1.8-8l-2.9-0.7
	l-1.8,8L55.4,38z M54.9,30.9c3,2.1,5.9,3.3,8.9,3.3v-3c-2.1,0-4.5-0.8-7.1-2.7L54.9,30.9z M63.8,34.2c1.5,0,2.8-0.2,3.8-0.9
	c1.1-0.8,1.7-1.9,1.7-3.3h-3c0,0.5-0.1,0.6-0.3,0.8c-0.3,0.2-1,0.4-2.2,0.4V34.2z M69.3,30c0-1.2-0.5-2.3-1.3-3.2l-2.2,2
	c0.5,0.5,0.6,0.9,0.6,1.2H69.3z M68,26.8c-0.8-0.9-2.3-1.9-4.2-3.1l-1.5,2.6c1.9,1.1,3,1.9,3.4,2.5L68,26.8z M63.8,23.8
	c-2.9-1.6-4.8-3.3-5.9-4.9l-2.5,1.7c1.5,2.1,3.8,4,6.9,5.8L63.8,23.8z M57.8,18.9c-1.1-1.6-1.7-3.5-1.7-5.7h-3
	c0,2.8,0.7,5.3,2.2,7.4L57.8,18.9z M56.1,13.2c0-2.7,0.9-4.8,2.8-6.3L57,4.5c-2.6,2.2-3.8,5.1-3.8,8.6H56.1z M58.9,6.8
	c1.9-1.6,4.4-2.5,7.8-2.5v-3c-3.9,0-7.2,1-9.7,3.2L58.9,6.8z M66.7,4.3c3.5,0,6.4,0.6,8.7,1.8l1.3-2.7C73.9,2,70.5,1.3,66.7,1.3V4.3
	z M74.6,4.6l-1,8.1l3,0.4l1-8.1L74.6,4.6z M75.9,11.6c-0.9-0.6-2.1-1.1-3.6-1.6l-0.9,2.8c1.3,0.4,2.3,0.9,2.9,1.3L75.9,11.6z
	 M72.3,10.1c-1.5-0.5-2.9-0.8-4.3-0.8v3c0.9,0,2.1,0.2,3.3,0.6L72.3,10.1z M68,9.3c-1.4,0-2.8,0.2-3.8,0.9c-1.1,0.8-1.6,1.9-1.6,3.2
	l3,0c0-0.4,0.1-0.6,0.3-0.7c0.3-0.2,0.9-0.4,2.1-0.4V9.3z M62.6,13.4c0,1.4,0.7,2.5,1.7,3.5l2.1-2.1c-0.6-0.6-0.8-1.1-0.8-1.4H62.6z
	 M64.3,16.9c0.9,0.9,2.3,1.8,4,2.9l1.5-2.6c-1.6-1-2.7-1.8-3.4-2.5L64.3,16.9z M99.8,3.6V2.1h-1.2l-0.3,1.2L99.8,3.6z M111.5,3.6
	l1.5-0.3l-0.3-1.2h-1.2V3.6z M119.4,40v1.5h1.9l-0.4-1.8L119.4,40z M110,40l-1.5,0.2l0.2,1.3h1.3V40z M109.2,34.5l1.5-0.2l-0.2-1.3
	h-1.3V34.5z M102.2,34.5V33h-1.3l-0.2,1.3L102.2,34.5z M101.3,40v1.5h1.3l0.2-1.3L101.3,40z M92,40l-1.5-0.3l-0.4,1.8H92V40z
	 M103.4,27.1l-1.5-0.2l-0.3,1.7h1.8V27.1z M107.9,27.1v1.5h1.8l-0.3-1.8L107.9,27.1z M105.8,14.6l1.5-0.3l-0.2-1.2h-1.3V14.6z
	 M105.5,14.6v-1.5h-1.3l-0.2,1.3L105.5,14.6z M99.8,5.1h11.7v-3H99.8V5.1z M110.1,3.9l7.9,36.4l2.9-0.6L113,3.3L110.1,3.9z
	 M119.4,38.5H110v3h9.4V38.5z M111.5,39.8l-0.9-5.5l-3,0.5l0.9,5.5L111.5,39.8z M109.2,33h-7v3h7V33z M100.7,34.3l-0.9,5.5l3,0.5
	l0.9-5.5L100.7,34.3z M101.3,38.5H92v3h9.3V38.5z M93.4,40.3l7.8-36.4l-2.9-0.6l-7.8,36.4L93.4,40.3z M103.4,28.6h4.5v-3h-4.5V28.6z
	 M109.4,26.8l-2.1-12.5l-3,0.5l2.1,12.5L109.4,26.8z M105.8,13.1h-0.3v3h0.3V13.1z M104,14.4L102,26.9l3,0.5l2.1-12.5L104,14.4z
	 M131.6,3.6h1.5V2.1h-1.5V3.6z M131.6,31.5h-1.5V33h1.5V31.5z M142.2,31.5h1.5V30h-1.5V31.5z M142.2,40v1.5h1.5V40H142.2z M122.3,40
	h-1.5v1.5h1.5V40z M122.3,3.6V2.1h-1.5v1.5H122.3z M130.1,3.6v27.9h3V3.6H130.1z M131.6,33h10.6v-3h-10.6V33z M140.7,31.5V40h3v-8.5
	H140.7z M142.2,38.5h-19.9v3h19.9V38.5z M123.8,40V3.6h-3V40H123.8z M122.3,5.1h9.3v-3h-9.3V5.1z M161.6,21.4v1.5h1.1l0.3-1
	L161.6,21.4z M167.2,3.6V2.1h-1.1l-0.3,1L167.2,3.6z M176.8,3.6h1.5V2.1h-1.5V3.6z M176.8,40v1.5h1.5V40H176.8z M167.8,40h-1.5v1.5
	h1.5V40z M167.8,24.7h1.5v-1.5h-1.5V24.7z M167.5,24.7v-1.5h-1.1l-0.3,1L167.5,24.7z M162.7,40v1.5h1.1l0.3-1L162.7,40z M160.4,40
	l-1.4,0.5l0.3,1h1.1V40z M155.6,24.7l1.4-0.5l-0.3-1h-1.1V24.7z M155.4,24.7v-1.5h-1.5v1.5H155.4z M155.4,40v1.5h1.5V40H155.4z
	 M146.3,40h-1.5v1.5h1.5V40z M146.3,3.6V2.1h-1.5v1.5H146.3z M155.9,3.6l1.4-0.5l-0.3-1h-1.1V3.6z M161.5,21.4l-1.4,0.5l0.3,1h1.1
	V21.4z M163,21.8L168.7,4l-2.9-0.9l-5.6,17.8L163,21.8z M167.2,5.1h9.6v-3h-9.6V5.1z M175.3,3.6V40h3V3.6H175.3z M176.8,38.5h-9v3h9
	V38.5z M169.3,40V24.7h-3V40H169.3z M167.8,23.2h-0.2v3h0.2V23.2z M166.1,24.3l-4.9,15.3l2.9,0.9l4.9-15.3L166.1,24.3z M162.7,38.5
	h-2.2v3h2.2V38.5z M161.8,39.5L157,24.3l-2.9,0.9l4.8,15.3L161.8,39.5z M155.6,23.2h-0.2v3h0.2V23.2z M153.9,24.7V40h3V24.7H153.9z
	 M155.4,38.5h-9v3h9V38.5z M147.8,40V3.6h-3V40H147.8z M146.3,5.1h9.6v-3h-9.6V5.1z M154.5,4l5.6,17.8l2.9-0.9l-5.6-17.8L154.5,4z
	 M161.5,22.9h0.1v-3h-0.1V22.9z M196.5,3.6V2.1H195v1.5H196.5z M205.8,3.6h1.5V2.1h-1.5V3.6z M183.1,3.6V2.1h-1.5v1.5H183.1z
	 M192.4,3.6h1.5V2.1h-1.5V3.6z M193,31.6l-1.2,0.9l0,0l0,0L193,31.6z M195.9,31.6l-1.2-1l0,0l0,0L195.9,31.6z M198,29.7V3.6h-3v26.1
	H198z M196.5,5.1h9.3v-3h-9.3V5.1z M204.3,3.6v25.6h3V3.6H204.3z M204.3,29.2c0,3.2-1,5.6-2.8,7.3l2.1,2.1c2.5-2.4,3.6-5.6,3.6-9.5
	H204.3z M201.6,36.6c-1.8,1.8-4.2,2.7-7.1,2.7v3c3.7,0,6.8-1.2,9.3-3.6L201.6,36.6z M194.4,39.3c-3,0-5.3-0.9-7.1-2.7l-2.1,2.1
	c2.4,2.4,5.5,3.6,9.2,3.6V39.3z M187.3,36.6c-1.8-1.8-2.7-4.2-2.7-7.3h-3c0,3.8,1.2,7,3.6,9.5L187.3,36.6z M184.6,29.2V3.6h-3v25.6
	H184.6z M183.1,5.1h9.3v-3h-9.3V5.1z M190.9,3.6v26.1h3V3.6H190.9z M190.9,29.7c0,1,0.3,2,0.9,2.8l2.4-1.8c-0.1-0.2-0.3-0.5-0.3-1
	H190.9z M191.8,32.5c0.6,0.8,1.5,1.3,2.6,1.3v-3c-0.1,0-0.1,0-0.1,0c0,0-0.1,0-0.2-0.1L191.8,32.5z M194.4,33.8c1.1,0,2-0.5,2.6-1.3
	l-2.4-1.9c-0.1,0.2-0.2,0.2-0.3,0.2V33.8z M197,32.5c0.7-0.8,1-1.8,1-2.8h-3c0,0.5-0.1,0.8-0.3,0.9L197,32.5z M221.6,26.2v-1.5h-1.5
	v1.5H221.6z M221.6,31.5h-1.5V33h1.5V31.5z M233.5,31.5h1.5V30h-1.5V31.5z M233.5,40v1.5h1.5V40H233.5z M212.2,40h-1.5v1.5h1.5V40z
	 M212.2,3.6V2.1h-1.5v1.5H212.2z M233.2,3.6h1.5V2.1h-1.5V3.6z M233.2,12.1v1.5h1.5v-1.5H233.2z M221.6,12.1v-1.5h-1.5v1.5H221.6z
	 M221.6,18.6h-1.5v1.5h1.5V18.6z M232,18.6h1.5v-1.5H232V18.6z M232,26.2v1.5h1.5v-1.5H232z M220.1,26.2v5.3h3v-5.3H220.1z
	 M221.6,33h12v-3h-12V33z M232,31.5V40h3v-8.5H232z M233.5,38.5h-21.3v3h21.3V38.5z M213.7,40V3.6h-3V40H213.7z M212.2,5.1h20.9v-3
	h-20.9V5.1z M231.7,3.6v8.5h3V3.6H231.7z M233.2,10.6h-11.6v3h11.6V10.6z M220.1,12.1v6.5h3v-6.5H220.1z M221.6,20.1H232v-3h-10.5
	V20.1z M230.5,18.6v7.6h3v-7.6H230.5z M232,24.7h-10.5v3H232V24.7z M257.5,24.1H256v1.1l1,0.3L257.5,24.1z M260.9,29.1l1.5-0.3v0
	L260.9,29.1z M262.9,40v1.5h1.8l-0.3-1.8L262.9,40z M253.1,40l-1.5,0.2l0.2,1.3h1.3V40z M251.4,29.9l1.5-0.2l0,0l0,0L251.4,29.9z
	 M248.4,27.4l0-1.5h0h0V27.4z M248,27.4v-1.5h-1.5v1.5H248z M248,40v1.5h1.5V40H248z M238.6,40h-1.5v1.5h1.5V40z M238.6,3.6V2.1
	h-1.5v1.5H238.6z M257.5,23.9l-0.8-1.3l-0.7,0.4v0.8H257.5z M248,12.1v-1.5h-1.5v1.5H248z M248,20h-1.5v1.5h1.5V20z M257.1,25.6
	c1,0.3,1.9,1.3,2.4,3.8l3-0.5c-0.6-3-1.9-5.4-4.4-6.2L257.1,25.6z M259.4,29.4l2,10.9l3-0.5l-2-10.9L259.4,29.4z M262.9,38.5h-9.8v3
	h9.8V38.5z M254.6,39.8l-1.7-10.1l-3,0.5l1.7,10.1L254.6,39.8z M252.9,29.6c-0.2-1.1-0.7-2-1.5-2.8c-0.8-0.7-1.9-1-2.9-1l0,3
	c0.6,0,0.8,0.1,1,0.3c0.2,0.1,0.4,0.4,0.5,1.1L252.9,29.6z M248.4,25.9H248v3h0.5V25.9z M246.5,27.4V40h3V27.4H246.5z M248,38.5
	h-9.3v3h9.3V38.5z M240.1,40V3.6h-3V40H240.1z M238.6,5.1h12.7v-3h-12.7V5.1z M251.4,5.1c2.8,0,5,0.9,6.6,2.6l2.1-2.1
	c-2.3-2.3-5.3-3.5-8.8-3.5V5.1z M258,7.7c1.6,1.7,2.5,4,2.5,7.1h3c0-3.7-1.1-6.9-3.4-9.2L258,7.7z M260.6,14.8
	c0,3.7-1.3,6.2-3.9,7.8l1.6,2.5c3.5-2.3,5.2-5.8,5.2-10.3H260.6z M256,23.9v0.3h3v-0.3H256z M249.3,21.5c1.4,0,2.7-0.5,3.7-1.6
	l-2.2-2c-0.4,0.4-0.8,0.6-1.4,0.6V21.5z M253,19.9c0.9-1.1,1.4-2.4,1.4-3.8h-3c0,0.8-0.2,1.4-0.6,1.8L253,19.9z M254.3,16.1
	c0-1.5-0.4-2.8-1.4-3.9l-2.2,2c0.4,0.4,0.6,1,0.6,1.9H254.3z M253,12.2c-1-1.1-2.2-1.6-3.7-1.6v3c0.6,0,1.1,0.2,1.4,0.6L253,12.2z
	 M249.3,10.6H248v3h1.3V10.6z M246.5,12.1v8h3v-8H246.5z M248,21.5h1.3v-3H248V21.5z M277.4,31.4l-1.3-0.7l-0.2,0.3v0.3H277.4z
	 M277.4,31.5h-1.5V33h1.5V31.5z M288,31.5h1.5V30H288V31.5z M288,40v1.5h1.5V40H288z M265.9,40h-1.5v1.5h1.5V40z M265.9,33.9
	l-1.3-0.7l-0.2,0.3v0.4H265.9z M276.6,12.3l1.3,0.7l0.2-0.3v-0.4H276.6z M276.6,12.1h1.5v-1.5h-1.5V12.1z M266.3,12.1h-1.5v1.5h1.5
	V12.1z M266.3,3.6V2.1h-1.5v1.5H266.3z M287.6,3.6h1.5V2.1h-1.5V3.6z M287.6,10.4L289,11l0.2-0.3v-0.3H287.6z M275.9,31.4v0.2h3
	v-0.2H275.9z M277.4,33H288v-3h-10.7V33z M286.5,31.5V40h3v-8.5H286.5z M288,38.5h-22.1v3H288V38.5z M267.4,40v-6.1h-3V40H267.4z
	 M267.3,34.5l10.7-21.6l-2.7-1.3l-10.7,21.6L267.3,34.5z M278.1,12.3v-0.2h-3v0.2H278.1z M276.6,10.6h-10.3v3h10.3V10.6z
	 M267.8,12.1V3.6h-3v8.5H267.8z M266.3,5.1h21.4v-3h-21.4V5.1z M286.1,3.6v6.8h3V3.6H286.1z M286.3,9.7l-10.3,21l2.7,1.3L289,11
	L286.3,9.7z M313.4,36.3l1.2,0.9l0,0L313.4,36.3z M293.9,36.3l-1.2,0.9l0,0L293.9,36.3z M295,8.3c2.1-2.6,4.9-3.9,8.6-3.9v-3
	c-4.5,0-8.2,1.7-10.9,5.1L295,8.3z M303.6,4.3c3.7,0,6.5,1.3,8.6,3.9l2.4-1.9c-2.7-3.4-6.4-5.1-10.9-5.1V4.3z M312.2,8.3
	c2.1,2.6,3.2,7,3.2,13.5h3c0-6.7-1.2-12-3.9-15.4L312.2,8.3z M315.4,21.8c0,6.5-1.2,11-3.2,13.6l2.4,1.9c2.7-3.4,3.9-8.7,3.9-15.4
	H315.4z M312.2,35.4c-2.1,2.6-4.9,3.9-8.6,3.9v3c4.5,0,8.2-1.7,10.9-5.1L312.2,35.4z M303.6,39.3c-3.7,0-6.5-1.3-8.6-3.9l-2.4,1.9
	c2.7,3.4,6.4,5.1,10.9,5.1V39.3z M295,35.4c-2.1-2.6-3.2-7-3.2-13.6h-3c0,6.8,1.2,12,3.9,15.4L295,35.4z M291.8,21.8
	c0-6.5,1.2-10.9,3.2-13.5l-2.4-1.9c-2.7,3.4-3.9,8.6-3.9,15.4H291.8z M299.3,30.7c0.4,0.9,1,1.7,1.7,2.3c0.8,0.6,1.7,0.9,2.6,0.9v-3
	c-0.3,0-0.6-0.1-0.8-0.3c-0.2-0.2-0.5-0.5-0.8-1.1L299.3,30.7z M303.6,33.8c1,0,1.9-0.3,2.6-0.9c0.7-0.6,1.3-1.4,1.7-2.3l-2.7-1.2
	c-0.3,0.6-0.5,0.9-0.8,1.1c-0.2,0.2-0.5,0.3-0.8,0.3V33.8z M307.9,30.7c0.8-1.8,1.1-4.9,1.1-8.9h-3c0,4-0.4,6.5-0.9,7.6L307.9,30.7z
	 M309.1,21.8c0-3.9-0.3-7-1.1-8.8l-2.7,1.2c0.5,1.2,0.9,3.6,0.9,7.6H309.1z M307.9,13c-0.4-0.9-1-1.7-1.7-2.3
	c-0.8-0.6-1.7-0.9-2.6-0.9v3c0.3,0,0.6,0.1,0.8,0.3c0.2,0.2,0.5,0.5,0.8,1.1L307.9,13z M303.6,9.8c-1,0-1.9,0.3-2.6,0.9
	c-0.7,0.6-1.3,1.4-1.7,2.3l2.7,1.2c0.3-0.6,0.6-1,0.8-1.1c0.2-0.2,0.5-0.3,0.8-0.3V9.8z M299.3,13c-0.8,1.8-1.1,4.9-1.1,8.8h3
	c0-3.9,0.4-6.4,0.9-7.6L299.3,13z M298.2,21.8c0,4,0.3,7,1.1,8.9l2.7-1.2c-0.5-1.2-0.9-3.6-0.9-7.6H298.2z M335.2,18.5l0.8-1.3l0,0
	L335.2,18.5z M341.6,24l-1.3,0.8l0,0L341.6,24z M340,37.9l1,1.1l0,0L340,37.9z M320.1,37.7l-1.5-0.3l-0.2,1l0.8,0.6L320.1,37.7z
	 M322,29.7l0.9-1.2l-1.8-1.3l-0.5,2.2L322,29.7z M329.2,25.1l0.8-1.3l0,0l0,0L329.2,25.1z M322.8,19.7l-1.2,0.9l0,0L322.8,19.7z
	 M324.1,5.7l1,1.1l0,0L324.1,5.7z M342.3,4.8l1.5,0.2l0.1-1.1l-1-0.5L342.3,4.8z M341.3,12.9l-0.8,1.3l2,1.3l0.3-2.4L341.3,12.9z
	 M338.1,11.5l-0.5,1.4l0,0l0,0L338.1,11.5z M330.3,13.4h1.5v0v0L330.3,13.4z M331.5,15.9l-1,1.1l0,0l0,0L331.5,15.9z M334.5,19.8
	c3.1,1.9,5,3.6,5.9,5l2.5-1.6c-1.3-2-3.7-4-6.9-5.9L334.5,19.8z M340.4,24.8c0.9,1.4,1.4,3.2,1.4,5.2h3c0-2.6-0.6-4.9-1.9-6.9
	L340.4,24.8z M341.8,30c0,2.9-0.9,5.1-2.8,6.7l2,2.2c2.5-2.3,3.8-5.3,3.8-9H341.8z M339,36.7c-1.8,1.6-4.4,2.5-8,2.5v3
	c4,0,7.4-1,10-3.3L339,36.7z M331.1,39.3c-4.2,0-7.5-1-10-2.8l-1.8,2.4c3.2,2.3,7.1,3.4,11.8,3.4V39.3z M321.6,38l1.8-8l-2.9-0.7
	l-1.8,8L321.6,38z M321.1,30.9c3,2.1,5.9,3.3,8.9,3.3v-3c-2.1,0-4.5-0.8-7.1-2.7L321.1,30.9z M330,34.2c1.5,0,2.8-0.2,3.8-0.9
	c1.1-0.8,1.7-1.9,1.7-3.3h-3c0,0.5-0.1,0.6-0.3,0.8c-0.3,0.2-1,0.4-2.2,0.4V34.2z M335.5,30c0-1.2-0.5-2.3-1.3-3.2l-2.2,2
	c0.5,0.5,0.6,0.9,0.6,1.2H335.5z M334.1,26.8c-0.8-0.9-2.3-1.9-4.2-3.1l-1.5,2.6c1.9,1.1,3,1.9,3.4,2.5L334.1,26.8z M330,23.8
	c-2.9-1.6-4.8-3.3-5.9-4.9l-2.5,1.7c1.5,2.1,3.8,4,6.9,5.8L330,23.8z M324,18.9c-1.1-1.6-1.7-3.5-1.7-5.7h-3c0,2.8,0.7,5.3,2.2,7.4
	L324,18.9z M322.3,13.2c0-2.7,0.9-4.8,2.8-6.3l-1.9-2.3c-2.6,2.2-3.8,5.1-3.8,8.6H322.3z M325.1,6.8c1.9-1.6,4.4-2.5,7.8-2.5v-3
	c-3.9,0-7.2,1-9.7,3.2L325.1,6.8z M332.9,4.3c3.5,0,6.4,0.6,8.8,1.8l1.3-2.7c-2.9-1.4-6.3-2.1-10.1-2.1V4.3z M340.8,4.6l-1,8.1
	l3,0.4l1-8.1L340.8,4.6z M342.1,11.6c-0.9-0.6-2.1-1.1-3.6-1.6l-0.9,2.8c1.3,0.4,2.3,0.9,2.9,1.3L342.1,11.6z M338.5,10.1
	c-1.5-0.5-2.9-0.8-4.3-0.8v3c0.9,0,2.1,0.2,3.3,0.6L338.5,10.1z M334.2,9.3c-1.4,0-2.8,0.2-3.8,0.9c-1.1,0.8-1.6,1.9-1.6,3.2l3,0
	c0-0.4,0.1-0.6,0.3-0.7c0.3-0.2,0.9-0.4,2.1-0.4V9.3z M328.8,13.4c0,1.4,0.7,2.5,1.7,3.5l2.1-2.1c-0.6-0.6-0.8-1.1-0.8-1.4H328.8z
	 M330.5,16.9c0.9,0.9,2.3,1.8,4,2.9l1.5-2.6c-1.6-1-2.7-1.8-3.4-2.5L330.5,16.9z M12.5,57.6H14v-1.5h-1.5V57.6z M12.5,85.5H11V87
	h1.5V85.5z M23.1,85.5h1.5V84h-1.5V85.5z M23.1,94v1.5h1.5V94H23.1z M3.2,94H1.7v1.5h1.5V94z M3.2,57.6v-1.5H1.7v1.5H3.2z M11,57.6
	v27.9h3V57.6H11z M12.5,87h10.6v-3H12.5V87z M21.6,85.5V94h3v-8.5H21.6z M23.1,92.5H3.2v3h19.9V92.5z M4.7,94V57.6h-3V94H4.7z
	 M3.2,59.1h9.3v-3H3.2V59.1z M47.2,90.3l1.2,0.9l0,0L47.2,90.3z M27.7,90.3l-1.2,0.9l0,0L27.7,90.3z M28.9,62.3
	c2.1-2.6,4.9-3.9,8.6-3.9v-3c-4.5,0-8.3,1.7-10.9,5.1L28.9,62.3z M37.4,58.3c3.7,0,6.5,1.3,8.6,3.9l2.4-1.9
	c-2.7-3.4-6.4-5.1-10.9-5.1V58.3z M46,62.3c2.1,2.6,3.2,7,3.2,13.5h3c0-6.7-1.2-12-3.9-15.4L46,62.3z M49.2,75.8
	c0,6.5-1.2,11-3.2,13.6l2.4,1.9c2.7-3.4,3.9-8.7,3.9-15.4H49.2z M46,89.4c-2.1,2.6-4.9,3.9-8.6,3.9v3c4.5,0,8.2-1.7,10.9-5.1
	L46,89.4z M37.4,93.3c-3.7,0-6.5-1.3-8.6-3.9l-2.4,1.9c2.7,3.4,6.4,5.1,10.9,5.1V93.3z M28.9,89.4c-2.1-2.6-3.2-7-3.2-13.6h-3
	c0,6.8,1.2,12,3.9,15.4L28.9,89.4z M25.6,75.8c0-6.5,1.2-10.9,3.2-13.5l-2.4-1.9c-2.7,3.4-3.9,8.6-3.9,15.4H25.6z M33.1,84.7
	c0.4,0.9,1,1.7,1.7,2.3c0.8,0.6,1.7,0.9,2.6,0.9v-3c-0.3,0-0.6-0.1-0.8-0.3c-0.2-0.2-0.5-0.5-0.8-1.1L33.1,84.7z M37.4,87.8
	c1,0,1.9-0.3,2.6-0.9c0.7-0.6,1.3-1.4,1.7-2.3L39,83.4c-0.3,0.6-0.5,0.9-0.8,1.1c-0.2,0.2-0.5,0.3-0.8,0.3V87.8z M41.7,84.7
	c0.8-1.8,1.1-4.9,1.1-8.9h-3c0,4-0.4,6.5-0.9,7.6L41.7,84.7z M42.9,75.8c0-3.9-0.3-7-1.1-8.8L39,68.2c0.5,1.2,0.9,3.6,0.9,7.6H42.9z
	 M41.7,67c-0.4-0.9-1-1.7-1.7-2.3c-0.8-0.6-1.7-0.9-2.6-0.9v3c0.3,0,0.6,0.1,0.8,0.3c0.2,0.2,0.5,0.5,0.8,1.1L41.7,67z M37.4,63.8
	c-1,0-1.9,0.3-2.6,0.9c-0.7,0.6-1.3,1.4-1.7,2.3l2.7,1.2c0.3-0.6,0.6-1,0.8-1.1c0.2-0.2,0.5-0.3,0.8-0.3V63.8z M33.1,67
	c-0.8,1.8-1.1,4.9-1.1,8.8h3c0-3.9,0.4-6.4,0.9-7.6L33.1,67z M32,75.8c0,4,0.3,7,1.1,8.9l2.7-1.2c-0.5-1.2-0.9-3.6-0.9-7.6H32z
	 M69,72.5l0.8-1.3l0,0L69,72.5z M75.4,78l-1.3,0.8l0,0L75.4,78z M73.8,91.9l1,1.1l0,0L73.8,91.9z M54,91.7l-1.5-0.3l-0.2,1l0.8,0.6
	L54,91.7z M55.8,83.7l0.9-1.2l-1.8-1.3l-0.5,2.2L55.8,83.7z M63,79.1l0.8-1.3l0,0l0,0L63,79.1z M56.6,73.7l-1.2,0.9l0,0L56.6,73.7z
	 M57.9,59.7l1,1.1l0,0L57.9,59.7z M76.1,58.8l1.5,0.2l0.1-1.1l-1-0.5L76.1,58.8z M75.1,66.9l-0.8,1.3l2,1.3l0.3-2.4L75.1,66.9z
	 M71.9,65.5l-0.5,1.4l0,0l0,0L71.9,65.5z M64.1,67.4h1.5v0v0L64.1,67.4z M65.3,69.9l-1,1.1l0,0l0,0L65.3,69.9z M68.3,73.8
	c3.1,1.9,5,3.6,5.9,5l2.5-1.6c-1.3-2-3.7-4-6.9-5.9L68.3,73.8z M74.2,78.8c0.9,1.4,1.4,3.2,1.4,5.2h3c0-2.6-0.6-4.9-1.9-6.9
	L74.2,78.8z M75.6,84c0,2.9-0.9,5.1-2.8,6.7l2,2.2c2.5-2.3,3.8-5.3,3.8-9H75.6z M72.8,90.7c-1.8,1.6-4.4,2.5-8,2.5v3
	c4,0,7.4-1,10-3.3L72.8,90.7z M64.9,93.3c-4.2,0-7.5-1-10-2.8l-1.8,2.4c3.2,2.3,7.1,3.4,11.8,3.4V93.3z M55.4,92l1.8-8l-2.9-0.7
	l-1.8,8L55.4,92z M54.9,84.9c3,2.1,5.9,3.3,8.9,3.3v-3c-2.1,0-4.5-0.8-7.1-2.7L54.9,84.9z M63.8,88.2c1.5,0,2.8-0.2,3.8-0.9
	c1.1-0.8,1.7-1.9,1.7-3.3h-3c0,0.5-0.1,0.6-0.3,0.8c-0.3,0.2-1,0.4-2.2,0.4V88.2z M69.3,84c0-1.2-0.5-2.3-1.3-3.2l-2.2,2
	c0.5,0.5,0.6,0.9,0.6,1.2H69.3z M68,80.8c-0.8-0.9-2.3-1.9-4.2-3.1l-1.5,2.6c1.9,1.1,3,1.9,3.4,2.5L68,80.8z M63.8,77.8
	c-2.9-1.6-4.8-3.3-5.9-4.9l-2.5,1.7c1.5,2.1,3.8,4,6.9,5.8L63.8,77.8z M57.8,72.9c-1.1-1.6-1.7-3.5-1.7-5.7h-3
	c0,2.8,0.7,5.3,2.2,7.4L57.8,72.9z M56.1,67.2c0-2.7,0.9-4.8,2.8-6.3L57,58.5c-2.6,2.2-3.8,5.1-3.8,8.6H56.1z M58.9,60.8
	c1.9-1.6,4.4-2.5,7.8-2.5v-3c-3.9,0-7.2,1-9.7,3.2L58.9,60.8z M66.7,58.3c3.5,0,6.4,0.6,8.7,1.8l1.3-2.7c-2.9-1.4-6.3-2.1-10.1-2.1
	V58.3z M74.6,58.6l-1,8.1l3,0.4l1-8.1L74.6,58.6z M75.9,65.6c-0.9-0.6-2.1-1.1-3.6-1.6l-0.9,2.8c1.3,0.4,2.3,0.9,2.9,1.3L75.9,65.6z
	 M72.3,64.1c-1.5-0.5-2.9-0.8-4.3-0.8v3c0.9,0,2.1,0.2,3.3,0.6L72.3,64.1z M68,63.3c-1.4,0-2.8,0.2-3.8,0.9
	c-1.1,0.8-1.6,1.9-1.6,3.2l3,0c0-0.4,0.1-0.6,0.3-0.7c0.3-0.2,0.9-0.4,2.1-0.4V63.3z M62.6,67.4c0,1.4,0.7,2.5,1.7,3.5l2.1-2.1
	c-0.6-0.6-0.8-1.1-0.8-1.4H62.6z M64.3,70.9c0.9,0.9,2.3,1.8,4,2.9l1.5-2.6c-1.6-1-2.7-1.8-3.4-2.5L64.3,70.9z M99.8,57.6v-1.5h-1.2
	l-0.3,1.2L99.8,57.6z M111.5,57.6l1.5-0.3l-0.3-1.2h-1.2V57.6z M119.4,94v1.5h1.9l-0.4-1.8L119.4,94z M110,94l-1.5,0.2l0.2,1.3h1.3
	V94z M109.2,88.5l1.5-0.2l-0.2-1.3h-1.3V88.5z M102.2,88.5V87h-1.3l-0.2,1.3L102.2,88.5z M101.3,94v1.5h1.3l0.2-1.3L101.3,94z
	 M92,94l-1.5-0.3l-0.4,1.8H92V94z M103.4,81.1l-1.5-0.2l-0.3,1.7h1.8V81.1z M107.9,81.1v1.5h1.8l-0.3-1.8L107.9,81.1z M105.8,68.6
	l1.5-0.3l-0.2-1.2h-1.3V68.6z M105.5,68.6v-1.5h-1.3l-0.2,1.3L105.5,68.6z M99.8,59.1h11.7v-3H99.8V59.1z M110.1,57.9l7.9,36.4
	l2.9-0.6L113,57.3L110.1,57.9z M119.4,92.5H110v3h9.4V92.5z M111.5,93.8l-0.9-5.5l-3,0.5l0.9,5.5L111.5,93.8z M109.2,87h-7v3h7V87z
	 M100.7,88.3l-0.9,5.5l3,0.5l0.9-5.5L100.7,88.3z M101.3,92.5H92v3h9.3V92.5z M93.4,94.3l7.8-36.4l-2.9-0.6l-7.8,36.4L93.4,94.3z
	 M103.4,82.6h4.5v-3h-4.5V82.6z M109.4,80.8l-2.1-12.5l-3,0.5l2.1,12.5L109.4,80.8z M105.8,67.1h-0.3v3h0.3V67.1z M104,68.4
	L102,80.9l3,0.5l2.1-12.5L104,68.4z M131.6,57.6h1.5v-1.5h-1.5V57.6z M131.6,85.5h-1.5V87h1.5V85.5z M142.2,85.5h1.5V84h-1.5V85.5z
	 M142.2,94v1.5h1.5V94H142.2z M122.3,94h-1.5v1.5h1.5V94z M122.3,57.6v-1.5h-1.5v1.5H122.3z M130.1,57.6v27.9h3V57.6H130.1z
	 M131.6,87h10.6v-3h-10.6V87z M140.7,85.5V94h3v-8.5H140.7z M142.2,92.5h-19.9v3h19.9V92.5z M123.8,94V57.6h-3V94H123.8z
	 M122.3,59.1h9.3v-3h-9.3V59.1z M161.6,75.4v1.5h1.1l0.3-1L161.6,75.4z M167.2,57.6v-1.5h-1.1l-0.3,1L167.2,57.6z M176.8,57.6h1.5
	v-1.5h-1.5V57.6z M176.8,94v1.5h1.5V94H176.8z M167.8,94h-1.5v1.5h1.5V94z M167.8,78.7h1.5v-1.5h-1.5V78.7z M167.5,78.7v-1.5h-1.1
	l-0.3,1L167.5,78.7z M162.7,94v1.5h1.1l0.3-1L162.7,94z M160.4,94l-1.4,0.5l0.3,1h1.1V94z M155.6,78.7l1.4-0.5l-0.3-1h-1.1V78.7z
	 M155.4,78.7v-1.5h-1.5v1.5H155.4z M155.4,94v1.5h1.5V94H155.4z M146.3,94h-1.5v1.5h1.5V94z M146.3,57.6v-1.5h-1.5v1.5H146.3z
	 M155.9,57.6l1.4-0.5l-0.3-1h-1.1V57.6z M161.5,75.4l-1.4,0.5l0.3,1h1.1V75.4z M163,75.8l5.6-17.8l-2.9-0.9l-5.6,17.8L163,75.8z
	 M167.2,59.1h9.6v-3h-9.6V59.1z M175.3,57.6V94h3V57.6H175.3z M176.8,92.5h-9v3h9V92.5z M169.3,94V78.7h-3V94H169.3z M167.8,77.2
	h-0.2v3h0.2V77.2z M166.1,78.3l-4.9,15.3l2.9,0.9l4.9-15.3L166.1,78.3z M162.7,92.5h-2.2v3h2.2V92.5z M161.8,93.5L157,78.3l-2.9,0.9
	l4.8,15.3L161.8,93.5z M155.6,77.2h-0.2v3h0.2V77.2z M153.9,78.7V94h3V78.7H153.9z M155.4,92.5h-9v3h9V92.5z M147.8,94V57.6h-3V94
	H147.8z M146.3,59.1h9.6v-3h-9.6V59.1z M154.5,58l5.6,17.8l2.9-0.9l-5.6-17.8L154.5,58z M161.5,76.9h0.1v-3h-0.1V76.9z M196.5,57.6
	v-1.5H195v1.5H196.5z M205.8,57.6h1.5v-1.5h-1.5V57.6z M183.1,57.6v-1.5h-1.5v1.5H183.1z M192.4,57.6h1.5v-1.5h-1.5V57.6z M193,85.6
	l-1.2,0.9l0,0l0,0L193,85.6z M195.9,85.6l-1.2-1l0,0l0,0L195.9,85.6z M198,83.7V57.6h-3v26.1H198z M196.5,59.1h9.3v-3h-9.3V59.1z
	 M204.3,57.6v25.6h3V57.6H204.3z M204.3,83.2c0,3.2-1,5.6-2.8,7.3l2.1,2.1c2.5-2.4,3.6-5.6,3.6-9.5H204.3z M201.6,90.6
	c-1.8,1.8-4.2,2.7-7.1,2.7v3c3.7,0,6.8-1.2,9.3-3.6L201.6,90.6z M194.4,93.3c-3,0-5.3-0.9-7.1-2.7l-2.1,2.1c2.4,2.4,5.5,3.6,9.2,3.6
	V93.3z M187.3,90.6c-1.8-1.8-2.7-4.2-2.7-7.3h-3c0,3.8,1.2,7,3.6,9.5L187.3,90.6z M184.6,83.2V57.6h-3v25.6H184.6z M183.1,59.1h9.3
	v-3h-9.3V59.1z M190.9,57.6v26.1h3V57.6H190.9z M190.9,83.7c0,1,0.3,2,0.9,2.8l2.4-1.8c-0.1-0.2-0.3-0.5-0.3-1H190.9z M191.8,86.5
	c0.6,0.8,1.5,1.3,2.6,1.3v-3c-0.1,0-0.1,0-0.1,0c0,0-0.1,0-0.2-0.1L191.8,86.5z M194.4,87.8c1.1,0,2-0.5,2.6-1.3l-2.4-1.9
	c-0.1,0.2-0.2,0.2-0.3,0.2V87.8z M197,86.5c0.7-0.8,1-1.8,1-2.8h-3c0,0.5-0.1,0.8-0.3,0.9L197,86.5z M221.6,80.2v-1.5h-1.5v1.5
	H221.6z M221.6,85.5h-1.5V87h1.5V85.5z M233.5,85.5h1.5V84h-1.5V85.5z M233.5,94v1.5h1.5V94H233.5z M212.2,94h-1.5v1.5h1.5V94z
	 M212.2,57.6v-1.5h-1.5v1.5H212.2z M233.2,57.6h1.5v-1.5h-1.5V57.6z M233.2,66.1v1.5h1.5v-1.5H233.2z M221.6,66.1v-1.5h-1.5v1.5
	H221.6z M221.6,72.6h-1.5v1.5h1.5V72.6z M232,72.6h1.5v-1.5H232V72.6z M232,80.2v1.5h1.5v-1.5H232z M220.1,80.2v5.3h3v-5.3H220.1z
	 M221.6,87h12v-3h-12V87z M232,85.5V94h3v-8.5H232z M233.5,92.5h-21.3v3h21.3V92.5z M213.7,94V57.6h-3V94H213.7z M212.2,59.1h20.9
	v-3h-20.9V59.1z M231.7,57.6v8.5h3v-8.5H231.7z M233.2,64.6h-11.6v3h11.6V64.6z M220.1,66.1v6.5h3v-6.5H220.1z M221.6,74.1H232v-3
	h-10.5V74.1z M230.5,72.6v7.6h3v-7.6H230.5z M232,78.7h-10.5v3H232V78.7z M257.5,78.1H256v1.1l1,0.3L257.5,78.1z M260.9,83.1
	l1.5-0.3v0L260.9,83.1z M262.9,94v1.5h1.8l-0.3-1.8L262.9,94z M253.1,94l-1.5,0.2l0.2,1.3h1.3V94z M251.4,83.9l1.5-0.2l0,0l0,0
	L251.4,83.9z M248.4,81.4l0-1.5h0h0V81.4z M248,81.4v-1.5h-1.5v1.5H248z M248,94v1.5h1.5V94H248z M238.6,94h-1.5v1.5h1.5V94z
	 M238.6,57.6v-1.5h-1.5v1.5H238.6z M257.5,77.9l-0.8-1.3l-0.7,0.4v0.8H257.5z M248,66.1v-1.5h-1.5v1.5H248z M248,74h-1.5v1.5h1.5V74
	z M257.1,79.6c1,0.3,1.9,1.3,2.4,3.8l3-0.5c-0.6-3-1.9-5.4-4.4-6.2L257.1,79.6z M259.4,83.4l2,10.9l3-0.5l-2-10.9L259.4,83.4z
	 M262.9,92.5h-9.8v3h9.8V92.5z M254.6,93.8l-1.7-10.1l-3,0.5l1.7,10.1L254.6,93.8z M252.9,83.6c-0.2-1.1-0.7-2-1.5-2.8
	c-0.8-0.7-1.9-1-2.9-1l0,3c0.6,0,0.8,0.1,1,0.3c0.2,0.1,0.4,0.4,0.5,1.1L252.9,83.6z M248.4,79.9H248v3h0.5V79.9z M246.5,81.4V94h3
	V81.4H246.5z M248,92.5h-9.3v3h9.3V92.5z M240.1,94V57.6h-3V94H240.1z M238.6,59.1h12.7v-3h-12.7V59.1z M251.4,59.1
	c2.8,0,5,0.9,6.6,2.6l2.1-2.1c-2.3-2.3-5.3-3.5-8.8-3.5V59.1z M258,61.7c1.6,1.7,2.5,4,2.5,7.1h3c0-3.7-1.1-6.9-3.4-9.2L258,61.7z
	 M260.6,68.8c0,3.7-1.3,6.2-3.9,7.8l1.6,2.5c3.5-2.3,5.2-5.8,5.2-10.3H260.6z M256,77.9v0.3h3v-0.3H256z M249.3,75.5
	c1.4,0,2.7-0.5,3.7-1.6l-2.2-2c-0.4,0.4-0.8,0.6-1.4,0.6V75.5z M253,73.9c0.9-1.1,1.4-2.4,1.4-3.8h-3c0,0.8-0.2,1.4-0.6,1.8
	L253,73.9z M254.3,70.1c0-1.5-0.4-2.8-1.4-3.9l-2.2,2c0.4,0.4,0.6,1,0.6,1.9H254.3z M253,66.2c-1-1.1-2.2-1.6-3.7-1.6v3
	c0.6,0,1.1,0.2,1.4,0.6L253,66.2z M249.3,64.6H248v3h1.3V64.6z M246.5,66.1v8h3v-8H246.5z M248,75.5h1.3v-3H248V75.5z M277.4,85.4
	l-1.3-0.7l-0.2,0.3v0.3H277.4z M277.4,85.5h-1.5V87h1.5V85.5z M288,85.5h1.5V84H288V85.5z M288,94v1.5h1.5V94H288z M265.9,94h-1.5
	v1.5h1.5V94z M265.9,87.9l-1.3-0.7l-0.2,0.3v0.4H265.9z M276.6,66.3l1.3,0.7l0.2-0.3v-0.4H276.6z M276.6,66.1h1.5v-1.5h-1.5V66.1z
	 M266.3,66.1h-1.5v1.5h1.5V66.1z M266.3,57.6v-1.5h-1.5v1.5H266.3z M287.6,57.6h1.5v-1.5h-1.5V57.6z M287.6,64.4L289,65l0.2-0.3
	v-0.3H287.6z M275.9,85.4v0.2h3v-0.2H275.9z M277.4,87H288v-3h-10.7V87z M286.5,85.5V94h3v-8.5H286.5z M288,92.5h-22.1v3H288V92.5z
	 M267.4,94v-6.1h-3V94H267.4z M267.3,88.5l10.7-21.6l-2.7-1.3l-10.7,21.6L267.3,88.5z M278.1,66.3v-0.2h-3v0.2H278.1z M276.6,64.6
	h-10.3v3h10.3V64.6z M267.8,66.1v-8.5h-3v8.5H267.8z M266.3,59.1h21.4v-3h-21.4V59.1z M286.1,57.6v6.8h3v-6.8H286.1z M286.3,63.7
	l-10.3,21l2.7,1.3L289,65L286.3,63.7z M313.4,90.3l1.2,0.9l0,0L313.4,90.3z M293.9,90.3l-1.2,0.9l0,0L293.9,90.3z M295,62.3
	c2.1-2.6,4.9-3.9,8.6-3.9v-3c-4.5,0-8.2,1.7-10.9,5.1L295,62.3z M303.6,58.3c3.7,0,6.5,1.3,8.6,3.9l2.4-1.9
	c-2.7-3.4-6.4-5.1-10.9-5.1V58.3z M312.2,62.3c2.1,2.6,3.2,7,3.2,13.5h3c0-6.7-1.2-12-3.9-15.4L312.2,62.3z M315.4,75.8
	c0,6.5-1.2,11-3.2,13.6l2.4,1.9c2.7-3.4,3.9-8.7,3.9-15.4H315.4z M312.2,89.4c-2.1,2.6-4.9,3.9-8.6,3.9v3c4.5,0,8.2-1.7,10.9-5.1
	L312.2,89.4z M303.6,93.3c-3.7,0-6.5-1.3-8.6-3.9l-2.4,1.9c2.7,3.4,6.4,5.1,10.9,5.1V93.3z M295,89.4c-2.1-2.6-3.2-7-3.2-13.6h-3
	c0,6.8,1.2,12,3.9,15.4L295,89.4z M291.8,75.8c0-6.5,1.2-10.9,3.2-13.5l-2.4-1.9c-2.7,3.4-3.9,8.6-3.9,15.4H291.8z M299.3,84.7
	c0.4,0.9,1,1.7,1.7,2.3c0.8,0.6,1.7,0.9,2.6,0.9v-3c-0.3,0-0.6-0.1-0.8-0.3c-0.2-0.2-0.5-0.5-0.8-1.1L299.3,84.7z M303.6,87.8
	c1,0,1.9-0.3,2.6-0.9c0.7-0.6,1.3-1.4,1.7-2.3l-2.7-1.2c-0.3,0.6-0.5,0.9-0.8,1.1c-0.2,0.2-0.5,0.3-0.8,0.3V87.8z M307.9,84.7
	c0.8-1.8,1.1-4.9,1.1-8.9h-3c0,4-0.4,6.5-0.9,7.6L307.9,84.7z M309.1,75.8c0-3.9-0.3-7-1.1-8.8l-2.7,1.2c0.5,1.2,0.9,3.6,0.9,7.6
	H309.1z M307.9,67c-0.4-0.9-1-1.7-1.7-2.3c-0.8-0.6-1.7-0.9-2.6-0.9v3c0.3,0,0.6,0.1,0.8,0.3c0.2,0.2,0.5,0.5,0.8,1.1L307.9,67z
	 M303.6,63.8c-1,0-1.9,0.3-2.6,0.9c-0.7,0.6-1.3,1.4-1.7,2.3l2.7,1.2c0.3-0.6,0.6-1,0.8-1.1c0.2-0.2,0.5-0.3,0.8-0.3V63.8z
	 M299.3,67c-0.8,1.8-1.1,4.9-1.1,8.8h3c0-3.9,0.4-6.4,0.9-7.6L299.3,67z M298.2,75.8c0,4,0.3,7,1.1,8.9l2.7-1.2
	c-0.5-1.2-0.9-3.6-0.9-7.6H298.2z M335.2,72.5l0.8-1.3l0,0L335.2,72.5z M341.6,78l-1.3,0.8l0,0L341.6,78z M340,91.9l1,1.1l0,0
	L340,91.9z M320.1,91.7l-1.5-0.3l-0.2,1l0.8,0.6L320.1,91.7z M322,83.7l0.9-1.2l-1.8-1.3l-0.5,2.2L322,83.7z M329.2,79.1l0.8-1.3
	l0,0l0,0L329.2,79.1z M322.8,73.7l-1.2,0.9l0,0L322.8,73.7z M324.1,59.7l1,1.1l0,0L324.1,59.7z M342.3,58.8l1.5,0.2l0.1-1.1l-1-0.5
	L342.3,58.8z M341.3,66.9l-0.8,1.3l2,1.3l0.3-2.4L341.3,66.9z M338.1,65.5l-0.5,1.4l0,0l0,0L338.1,65.5z M330.3,67.4h1.5v0v0
	L330.3,67.4z M331.5,69.9l-1,1.1l0,0l0,0L331.5,69.9z M334.5,73.8c3.1,1.9,5,3.6,5.9,5l2.5-1.6c-1.3-2-3.7-4-6.9-5.9L334.5,73.8z
	 M340.4,78.8c0.9,1.4,1.4,3.2,1.4,5.2h3c0-2.6-0.6-4.9-1.9-6.9L340.4,78.8z M341.8,84c0,2.9-0.9,5.1-2.8,6.7l2,2.2
	c2.5-2.3,3.8-5.3,3.8-9H341.8z M339,90.7c-1.8,1.6-4.4,2.5-8,2.5v3c4,0,7.4-1,10-3.3L339,90.7z M331.1,93.3c-4.2,0-7.5-1-10-2.8
	l-1.8,2.4c3.2,2.3,7.1,3.4,11.8,3.4V93.3z M321.6,92l1.8-8l-2.9-0.7l-1.8,8L321.6,92z M321.1,84.9c3,2.1,5.9,3.3,8.9,3.3v-3
	c-2.1,0-4.5-0.8-7.1-2.7L321.1,84.9z M330,88.2c1.5,0,2.8-0.2,3.8-0.9c1.1-0.8,1.7-1.9,1.7-3.3h-3c0,0.5-0.1,0.6-0.3,0.8
	c-0.3,0.2-1,0.4-2.2,0.4V88.2z M335.5,84c0-1.2-0.5-2.3-1.3-3.2l-2.2,2c0.5,0.5,0.6,0.9,0.6,1.2H335.5z M334.1,80.8
	c-0.8-0.9-2.3-1.9-4.2-3.1l-1.5,2.6c1.9,1.1,3,1.9,3.4,2.5L334.1,80.8z M330,77.8c-2.9-1.6-4.8-3.3-5.9-4.9l-2.5,1.7
	c1.5,2.1,3.8,4,6.9,5.8L330,77.8z M324,72.9c-1.1-1.6-1.7-3.5-1.7-5.7h-3c0,2.8,0.7,5.3,2.2,7.4L324,72.9z M322.3,67.2
	c0-2.7,0.9-4.8,2.8-6.3l-1.9-2.3c-2.6,2.2-3.8,5.1-3.8,8.6H322.3z M325.1,60.8c1.9-1.6,4.4-2.5,7.8-2.5v-3c-3.9,0-7.2,1-9.7,3.2
	L325.1,60.8z M332.9,58.3c3.5,0,6.4,0.6,8.8,1.8l1.3-2.7c-2.9-1.4-6.3-2.1-10.1-2.1V58.3z M340.8,58.6l-1,8.1l3,0.4l1-8.1
	L340.8,58.6z M342.1,65.6c-0.9-0.6-2.1-1.1-3.6-1.6l-0.9,2.8c1.3,0.4,2.3,0.9,2.9,1.3L342.1,65.6z M338.5,64.1
	c-1.5-0.5-2.9-0.8-4.3-0.8v3c0.9,0,2.1,0.2,3.3,0.6L338.5,64.1z M334.2,63.3c-1.4,0-2.8,0.2-3.8,0.9c-1.1,0.8-1.6,1.9-1.6,3.2l3,0
	c0-0.4,0.1-0.6,0.3-0.7c0.3-0.2,0.9-0.4,2.1-0.4V63.3z M328.8,67.4c0,1.4,0.7,2.5,1.7,3.5l2.1-2.1c-0.6-0.6-0.8-1.1-0.8-1.4H328.8z
	 M330.5,70.9c0.9,0.9,2.3,1.8,4,2.9l1.5-2.6c-1.6-1-2.7-1.8-3.4-2.5L330.5,70.9z"/>
<path class="st2" d="M12.5,112.6v27.9h10.6v8.5H3.2v-36.4H12.5z M27.7,116.3c2.4-3,5.6-4.5,9.8-4.5s7.4,1.5,9.8,4.5
	s3.6,7.8,3.6,14.4c0,6.7-1.2,11.5-3.6,14.5c-2.4,3-5.6,4.5-9.8,4.5s-7.4-1.5-9.8-4.5c-2.4-3-3.6-7.8-3.6-14.5
	C24.1,124.2,25.3,119.4,27.7,116.3z M34.5,139c0.7,1.5,1.7,2.3,2.9,2.3c1.3,0,2.3-0.8,2.9-2.3c0.7-1.5,1-4.3,1-8.3
	c0-3.9-0.3-6.7-1-8.2c-0.7-1.5-1.7-2.3-2.9-2.3c-1.3,0-2.3,0.8-2.9,2.3c-0.7,1.5-1,4.3-1,8.2C33.5,134.8,33.8,137.5,34.5,139z
	 M69,127.5c3.1,1.9,5.3,3.7,6.4,5.5c1.1,1.7,1.7,3.7,1.7,6c0,3.3-1.1,5.9-3.3,7.8c-2.2,1.9-5.2,2.9-9,2.9c-4.4,0-8.1-1-10.9-3.1
	l1.8-8c2.8,2,5.5,3,8,3c2.7,0,4-0.9,4-2.7c0-0.7-0.3-1.5-1-2.2c-0.6-0.7-1.9-1.6-3.8-2.8c-3-1.7-5.1-3.5-6.4-5.3
	c-1.3-1.9-2-4.1-2-6.6c0-3.1,1.1-5.6,3.3-7.5c2.2-1.9,5.1-2.8,8.8-2.8c3.6,0,6.8,0.7,9.4,2l-1,8.1c-0.8-0.5-1.8-1-3.2-1.4
	c-1.4-0.5-2.7-0.7-3.8-0.7c-2.6,0-4,0.9-3.9,2.6c0,0.8,0.4,1.6,1.2,2.4C66.1,125.6,67.4,126.5,69,127.5z M99.8,112.6h11.7l7.9,36.4
	H110l-0.9-5.5h-7l-0.9,5.5H92L99.8,112.6z M103.4,136.1h4.5l-2.1-12.5h-0.3L103.4,136.1z M131.6,112.6v27.9h10.6v8.5h-19.9v-36.4
	H131.6z M161.6,130.4l5.6-17.8h9.6V149h-9v-15.3h-0.2l-4.9,15.3h-2.2l-4.9-15.3h-0.2V149h-9v-36.4h9.6l5.6,17.8H161.6z M196.5,138.7
	v-26.1h9.3v25.6c0,3.5-1.1,6.3-3.2,8.4c-2.1,2.1-4.9,3.1-8.2,3.1c-3.3,0-6-1-8.1-3.1c-2.1-2.1-3.2-4.9-3.2-8.4v-25.6h9.3v26.1
	c0,0.8,0.2,1.4,0.6,1.9c0.4,0.5,0.9,0.7,1.4,0.7c0.6,0,1.1-0.2,1.5-0.7C196.3,140.1,196.5,139.5,196.5,138.7z M221.6,135.2v5.3h12
	v8.5h-21.3v-36.4h20.9v8.5h-11.6v6.5H232v7.6H221.6z M257.5,133.1c1.8,0.6,2.9,2.2,3.4,5l2,10.9h-9.8l-1.7-10.1
	c-0.3-1.7-1.3-2.5-3-2.6H248V149h-9.3v-36.4h12.7c3.1,0,5.7,1,7.7,3c2,2,3,4.7,3,8.2c0,4.1-1.5,7.1-4.5,9.1V133.1z M249.3,129
	c1,0,1.9-0.4,2.5-1.1c0.7-0.7,1-1.7,1-2.8c0-1.2-0.3-2.2-1-2.9c-0.7-0.7-1.5-1.1-2.5-1.1H248v8H249.3z M277.4,140.4v0.2H288v8.5
	h-22.1v-6.1l10.7-21.6v-0.2h-10.3v-8.5h21.4v6.8L277.4,140.4z M293.9,116.3c2.4-3,5.6-4.5,9.8-4.5s7.4,1.5,9.8,4.5s3.6,7.8,3.6,14.4
	c0,6.7-1.2,11.5-3.6,14.5c-2.4,3-5.6,4.5-9.8,4.5s-7.4-1.5-9.8-4.5c-2.4-3-3.6-7.8-3.6-14.5C290.3,124.2,291.5,119.4,293.9,116.3z
	 M300.7,139c0.7,1.5,1.7,2.3,2.9,2.3c1.3,0,2.3-0.8,2.9-2.3c0.7-1.5,1-4.3,1-8.3c0-3.9-0.3-6.7-1-8.2c-0.7-1.5-1.7-2.3-2.9-2.3
	c-1.3,0-2.3,0.8-2.9,2.3c-0.7,1.5-1,4.3-1,8.2C299.7,134.8,300,137.5,300.7,139z M335.2,127.5c3.1,1.9,5.3,3.7,6.4,5.5
	c1.1,1.7,1.7,3.7,1.7,6c0,3.3-1.1,5.9-3.3,7.8c-2.2,1.9-5.2,2.9-9,2.9c-4.4,0-8.1-1-10.9-3.1l1.8-8c2.8,2,5.5,3,8,3
	c2.7,0,4-0.9,4-2.7c0-0.7-0.3-1.5-1-2.2c-0.6-0.7-1.9-1.6-3.8-2.8c-3-1.7-5.1-3.5-6.4-5.3c-1.3-1.9-2-4.1-2-6.6
	c0-3.1,1.1-5.6,3.3-7.5c2.2-1.9,5.1-2.8,8.8-2.8c3.6,0,6.8,0.7,9.4,2l-1,8.1c-0.8-0.5-1.8-1-3.2-1.4c-1.4-0.5-2.7-0.7-3.8-0.7
	c-2.6,0-4,0.9-3.9,2.6c0,0.8,0.4,1.6,1.2,2.4C332.3,125.6,333.6,126.5,335.2,127.5z"/>
<path class="st3" d="M232,99c-11.9,0.1-23.9,0.3-35.8,0.6c-11.9,0.3-24,0.8-35.9,1.7c-11.9,0.9-23.8,2.2-35.6,4
	c-5.8,0.9-11.6,1.9-17.3,3.1c-4.6,1-9.1,2.1-13.4,3.9c-4.3,1.7-8.1,4-11.2,7.2c-3.1,3.2-4.9,6.9-5.6,11.1
	c-1.3,8.4,2.2,16.9,7.9,23.2c6.5,7.1,16.1,11.1,25.5,13.2c5,1.2,10.2,1.9,15.3,2.5c5.8,0.6,11.6,1.1,17.4,1.5c12,0.8,24,1.1,36,0.9
	s24-0.7,35.9-1.6c11.9-0.9,23.9-2.1,35.8-3.6c11.9-1.5,24-3.3,35.9-5.2c5.9-1,11.8-2,17.7-3c5.1-0.9,10.2-1.8,15.2-2.9
	c8.9-2,18-4.7,25.6-9.7c7.6-5.1,15-13.7,13.1-23.1c-1.9-9.4-14-13-22.6-15.3c-11.3-3-23-4.6-34.7-5.6c-11.7-1.1-24-1.8-36.1-2.1
	c-12-0.3-24.3-0.3-36.5,0.1c-12.2,0.4-24.2,1.2-36.3,2.3c-5.8,0.6-11.7,1.2-17.5,1.9c-0.8,0.1-1.5,0.6-1.5,1.4
	c0,0.7,0.7,1.5,1.5,1.4c11.8-1.5,23.7-2.6,35.6-3.4c11.9-0.8,23.7-1.2,35.6-1.2c11.9-0.1,23.8,0.3,35.7,0.9
	c11.9,0.7,23.1,1.5,34.6,3.2c5.7,0.8,11.3,1.9,16.9,3.3c4.8,1.2,9.8,2.5,14.2,4.7c3.8,1.9,7.1,4.7,8.1,8.8c1,4.4-1,9-3.7,12.6
	c-5.1,6.8-13,11-21.1,13.8c-9.3,3.1-19,4.7-28.6,6.4c-11.6,2.1-23.2,4-34.8,5.7c-11.6,1.7-23.3,3.2-35,4.3
	c-11.7,1.2-23.5,2.1-35.3,2.6c-11.8,0.5-23.4,0.7-35.2,0.4c-11.7-0.3-23.3-1-34.9-2.2c-9.7-1-19.8-2.6-28.6-6.9
	c-4.1-2-7.9-4.5-10.9-7.8c-2.8-3-4.9-6.5-6.2-10.2c-1.3-3.8-1.8-7.5-1.1-11.2c0.7-3.7,2.8-7.3,5.7-10.1c6.4-5.9,15.8-8,24.2-9.7
	c11.4-2.3,23-4,34.6-5.2c11.6-1.2,23.3-2,34.9-2.5c11.7-0.5,23.5-0.8,35.2-1c5.7-0.1,11.4-0.2,17-0.2C234,101.8,234,99,232,99
	L232,99z"/>
</svg>
