<svg width="429" height="156" viewBox="0 0 429 156" fill="none" xmlns="http://www.w3.org/2000/svg">
<path d="M14.83 34L7.368 25.732V34H5.002V15.878H7.368V24.276L14.856 15.878H17.846L9.63 24.952L17.924 34H14.83ZM21.7885 17.438C21.3378 17.438 20.9565 17.282 20.6445 16.97C20.3325 16.658 20.1765 16.2767 20.1765 15.826C20.1765 15.3753 20.3325 14.994 20.6445 14.682C20.9565 14.37 21.3378 14.214 21.7885 14.214C22.2218 14.214 22.5858 14.37 22.8805 14.682C23.1925 14.994 23.3485 15.3753 23.3485 15.826C23.3485 16.2767 23.1925 16.658 22.8805 16.97C22.5858 17.282 22.2218 17.438 21.7885 17.438ZM22.9325 19.752V34H20.5665V19.752H22.9325ZM29.8509 21.702V30.1C29.8509 30.7933 29.9982 31.2873 30.2929 31.582C30.5876 31.8593 31.0989 31.998 31.8269 31.998H33.5689V34H31.4369C30.1196 34 29.1316 33.6967 28.4729 33.09C27.8142 32.4833 27.4849 31.4867 27.4849 30.1V21.702H25.6389V19.752H27.4849V16.164H29.8509V19.752H33.5689V21.702H29.8509ZM41.4796 34.234C40.3876 34.234 39.4083 34.052 38.5416 33.688C37.6749 33.3067 36.9903 32.7867 36.4876 32.128C35.9849 31.452 35.7076 30.6807 35.6556 29.814H38.0996C38.1689 30.5247 38.4983 31.1053 39.0876 31.556C39.6943 32.0067 40.4829 32.232 41.4536 32.232C42.3549 32.232 43.0656 32.0327 43.5856 31.634C44.1056 31.2353 44.3656 30.7327 44.3656 30.126C44.3656 29.502 44.0883 29.0427 43.5336 28.748C42.9789 28.436 42.1209 28.1327 40.9596 27.838C39.9023 27.5607 39.0356 27.2833 38.3596 27.006C37.7009 26.7113 37.1289 26.2867 36.6436 25.732C36.1756 25.16 35.9416 24.4147 35.9416 23.496C35.9416 22.768 36.1583 22.1007 36.5916 21.494C37.0249 20.8873 37.6403 20.4107 38.4376 20.064C39.2349 19.7 40.1449 19.518 41.1676 19.518C42.7449 19.518 44.0189 19.9167 44.9896 20.714C45.9603 21.5113 46.4803 22.6033 46.5496 23.99H44.1836C44.1316 23.2447 43.8283 22.6467 43.2736 22.196C42.7363 21.7453 42.0083 21.52 41.0896 21.52C40.2403 21.52 39.5643 21.702 39.0616 22.066C38.5589 22.43 38.3076 22.9067 38.3076 23.496C38.3076 23.964 38.4549 24.354 38.7496 24.666C39.0616 24.9607 39.4429 25.2033 39.8936 25.394C40.3616 25.5673 41.0029 25.7667 41.8176 25.992C42.8403 26.2693 43.6723 26.5467 44.3136 26.824C44.9549 27.084 45.5009 27.4827 45.9516 28.02C46.4196 28.5573 46.6623 29.2593 46.6796 30.126C46.6796 30.906 46.4629 31.608 46.0296 32.232C45.5963 32.856 44.9809 33.35 44.1836 33.714C43.4036 34.0607 42.5023 34.234 41.4796 34.234ZM66.0252 24.666C66.6839 24.77 67.2819 25.0387 67.8192 25.472C68.3739 25.9053 68.8072 26.4427 69.1192 27.084C69.4486 27.7253 69.6132 28.41 69.6132 29.138C69.6132 30.0567 69.3792 30.8887 68.9112 31.634C68.4432 32.362 67.7586 32.9427 66.8572 33.376C65.9732 33.792 64.9246 34 63.7112 34H56.9512V15.878H63.4512C64.6819 15.878 65.7306 16.086 66.5972 16.502C67.4639 16.9007 68.1139 17.4467 68.5472 18.14C68.9806 18.8333 69.1972 19.6133 69.1972 20.48C69.1972 21.5547 68.9026 22.4473 68.3132 23.158C67.7412 23.8513 66.9786 24.354 66.0252 24.666ZM59.3172 23.704H63.2952C64.4046 23.704 65.2626 23.444 65.8692 22.924C66.4759 22.404 66.7792 21.6847 66.7792 20.766C66.7792 19.8473 66.4759 19.128 65.8692 18.608C65.2626 18.088 64.3872 17.828 63.2432 17.828H59.3172V23.704ZM63.5032 32.05C64.6819 32.05 65.6006 31.7727 66.2592 31.218C66.9179 30.6633 67.2472 29.892 67.2472 28.904C67.2472 27.8987 66.9006 27.11 66.2072 26.538C65.5139 25.9487 64.5866 25.654 63.4252 25.654H59.3172V32.05H63.5032ZM79.1105 34.234C77.7759 34.234 76.5625 33.9307 75.4705 33.324C74.3959 32.7173 73.5465 31.8593 72.9225 30.75C72.3159 29.6233 72.0125 28.3233 72.0125 26.85C72.0125 25.394 72.3245 24.1113 72.9485 23.002C73.5899 21.8753 74.4565 21.0173 75.5485 20.428C76.6405 19.8213 77.8625 19.518 79.2145 19.518C80.5665 19.518 81.7885 19.8213 82.8805 20.428C83.9725 21.0173 84.8305 21.8667 85.4545 22.976C86.0959 24.0853 86.4165 25.3767 86.4165 26.85C86.4165 28.3233 86.0872 29.6233 85.4285 30.75C84.7872 31.8593 83.9119 32.7173 82.8025 33.324C81.6932 33.9307 80.4625 34.234 79.1105 34.234ZM79.1105 32.154C79.9599 32.154 80.7572 31.9547 81.5025 31.556C82.2479 31.1573 82.8459 30.5593 83.2965 29.762C83.7645 28.9647 83.9985 27.994 83.9985 26.85C83.9985 25.706 83.7732 24.7353 83.3225 23.938C82.8719 23.1407 82.2825 22.5513 81.5545 22.17C80.8265 21.7713 80.0379 21.572 79.1885 21.572C78.3219 21.572 77.5245 21.7713 76.7965 22.17C76.0859 22.5513 75.5139 23.1407 75.0805 23.938C74.6472 24.7353 74.4305 25.706 74.4305 26.85C74.4305 28.0113 74.6385 28.9907 75.0545 29.788C75.4879 30.5853 76.0599 31.1833 76.7705 31.582C77.4812 31.9633 78.2612 32.154 79.1105 32.154ZM91.8934 22.066C92.3094 21.2513 92.8987 20.6187 93.6614 20.168C94.4414 19.7173 95.3861 19.492 96.4954 19.492V21.936H95.8714C93.2194 21.936 91.8934 23.3747 91.8934 26.252V34H89.5274V19.752H91.8934V22.066ZM106.169 19.492C107.902 19.492 109.306 20.0207 110.381 21.078C111.455 22.118 111.993 23.626 111.993 25.602V34H109.653V25.94C109.653 24.5187 109.297 23.4353 108.587 22.69C107.876 21.9273 106.905 21.546 105.675 21.546C104.427 21.546 103.43 21.936 102.685 22.716C101.957 23.496 101.593 24.6313 101.593 26.122V34H99.2266V19.752H101.593V21.78C102.061 21.052 102.693 20.4887 103.491 20.09C104.305 19.6913 105.198 19.492 106.169 19.492ZM125.675 21.702V30.1C125.675 30.7933 125.822 31.2873 126.117 31.582C126.412 31.8593 126.923 31.998 127.651 31.998H129.393V34H127.261C125.944 34 124.956 33.6967 124.297 33.09C123.638 32.4833 123.309 31.4867 123.309 30.1V21.702H121.463V19.752H123.309V16.164H125.675V19.752H129.393V21.702H125.675ZM138.474 34.234C137.139 34.234 135.926 33.9307 134.834 33.324C133.759 32.7173 132.91 31.8593 132.286 30.75C131.679 29.6233 131.376 28.3233 131.376 26.85C131.376 25.394 131.688 24.1113 132.312 23.002C132.953 21.8753 133.82 21.0173 134.912 20.428C136.004 19.8213 137.226 19.518 138.578 19.518C139.93 19.518 141.152 19.8213 142.244 20.428C143.336 21.0173 144.194 21.8667 144.818 22.976C145.459 24.0853 145.78 25.3767 145.78 26.85C145.78 28.3233 145.45 29.6233 144.792 30.75C144.15 31.8593 143.275 32.7173 142.166 33.324C141.056 33.9307 139.826 34.234 138.474 34.234ZM138.474 32.154C139.323 32.154 140.12 31.9547 140.866 31.556C141.611 31.1573 142.209 30.5593 142.66 29.762C143.128 28.9647 143.362 27.994 143.362 26.85C143.362 25.706 143.136 24.7353 142.686 23.938C142.235 23.1407 141.646 22.5513 140.918 22.17C140.19 21.7713 139.401 21.572 138.552 21.572C137.685 21.572 136.888 21.7713 136.16 22.17C135.449 22.5513 134.877 23.1407 134.444 23.938C134.01 24.7353 133.794 25.706 133.794 26.85C133.794 28.0113 134.002 28.9907 134.418 29.788C134.851 30.5853 135.423 31.1833 136.134 31.582C136.844 31.9633 137.624 32.154 138.474 32.154ZM161.568 34.182C160.372 34.182 159.298 33.974 158.344 33.558C157.408 33.1247 156.672 32.5353 156.134 31.79C155.597 31.0273 155.32 30.152 155.302 29.164H157.824C157.911 30.0133 158.258 30.7327 158.864 31.322C159.488 31.894 160.39 32.18 161.568 32.18C162.695 32.18 163.579 31.9027 164.22 31.348C164.879 30.776 165.208 30.048 165.208 29.164C165.208 28.4707 165.018 27.9073 164.636 27.474C164.255 27.0407 163.778 26.7113 163.206 26.486C162.634 26.2607 161.863 26.018 160.892 25.758C159.696 25.446 158.734 25.134 158.006 24.822C157.296 24.51 156.68 24.0247 156.16 23.366C155.658 22.69 155.406 21.7887 155.406 20.662C155.406 19.674 155.658 18.7987 156.16 18.036C156.663 17.2733 157.365 16.684 158.266 16.268C159.185 15.852 160.234 15.644 161.412 15.644C163.111 15.644 164.498 16.0687 165.572 16.918C166.664 17.7673 167.28 18.894 167.418 20.298H164.818C164.732 19.6047 164.368 18.998 163.726 18.478C163.085 17.9407 162.236 17.672 161.178 17.672C160.19 17.672 159.384 17.932 158.76 18.452C158.136 18.9547 157.824 19.6653 157.824 20.584C157.824 21.2427 158.006 21.78 158.37 22.196C158.752 22.612 159.211 22.9327 159.748 23.158C160.303 23.366 161.074 23.6087 162.062 23.886C163.258 24.2153 164.22 24.5447 164.948 24.874C165.676 25.186 166.3 25.68 166.82 26.356C167.34 27.0147 167.6 27.916 167.6 29.06C167.6 29.944 167.366 30.776 166.898 31.556C166.43 32.336 165.737 32.9687 164.818 33.454C163.9 33.9393 162.816 34.182 161.568 34.182ZM183.718 19.752V34H181.352V31.894C180.901 32.622 180.269 33.194 179.454 33.61C178.657 34.0087 177.773 34.208 176.802 34.208C175.693 34.208 174.696 33.9827 173.812 33.532C172.928 33.064 172.226 32.3707 171.706 31.452C171.203 30.5333 170.952 29.4153 170.952 28.098V19.752H173.292V27.786C173.292 29.19 173.647 30.2733 174.358 31.036C175.069 31.7813 176.039 32.154 177.27 32.154C178.535 32.154 179.532 31.764 180.26 30.984C180.988 30.204 181.352 29.0687 181.352 27.578V19.752H183.718ZM190.079 22.066C190.495 21.2513 191.084 20.6187 191.847 20.168C192.627 19.7173 193.572 19.492 194.681 19.492V21.936H194.057C191.405 21.936 190.079 23.3747 190.079 26.252V34H187.713V19.752H190.079V22.066ZM199.778 22.378C200.246 21.5633 200.939 20.8873 201.858 20.35C202.794 19.7953 203.877 19.518 205.108 19.518C206.373 19.518 207.517 19.8213 208.54 20.428C209.58 21.0347 210.395 21.8927 210.984 23.002C211.573 24.094 211.868 25.368 211.868 26.824C211.868 28.2627 211.573 29.5453 210.984 30.672C210.395 31.7987 209.58 32.674 208.54 33.298C207.517 33.922 206.373 34.234 205.108 34.234C203.895 34.234 202.82 33.9653 201.884 33.428C200.965 32.8733 200.263 32.1887 199.778 31.374V40.76H197.412V19.752H199.778V22.378ZM209.45 26.824C209.45 25.7493 209.233 24.8133 208.8 24.016C208.367 23.2187 207.777 22.612 207.032 22.196C206.304 21.78 205.498 21.572 204.614 21.572C203.747 21.572 202.941 21.7887 202.196 22.222C201.468 22.638 200.879 23.2533 200.428 24.068C199.995 24.8653 199.778 25.7927 199.778 26.85C199.778 27.9247 199.995 28.8693 200.428 29.684C200.879 30.4813 201.468 31.0967 202.196 31.53C202.941 31.946 203.747 32.154 204.614 32.154C205.498 32.154 206.304 31.946 207.032 31.53C207.777 31.0967 208.367 30.4813 208.8 29.684C209.233 28.8693 209.45 27.916 209.45 26.824ZM217.348 22.066C217.764 21.2513 218.354 20.6187 219.116 20.168C219.896 19.7173 220.841 19.492 221.95 19.492V21.936H221.326C218.674 21.936 217.348 23.3747 217.348 26.252V34H214.982V19.752H217.348V22.066ZM225.904 17.438C225.453 17.438 225.072 17.282 224.76 16.97C224.448 16.658 224.292 16.2767 224.292 15.826C224.292 15.3753 224.448 14.994 224.76 14.682C225.072 14.37 225.453 14.214 225.904 14.214C226.337 14.214 226.701 14.37 226.996 14.682C227.308 14.994 227.464 15.3753 227.464 15.826C227.464 16.2767 227.308 16.658 226.996 16.97C226.701 17.282 226.337 17.438 225.904 17.438ZM227.048 19.752V34H224.682V19.752H227.048ZM236.124 34.234C235.032 34.234 234.053 34.052 233.186 33.688C232.319 33.3067 231.635 32.7867 231.132 32.128C230.629 31.452 230.352 30.6807 230.3 29.814H232.744C232.813 30.5247 233.143 31.1053 233.732 31.556C234.339 32.0067 235.127 32.232 236.098 32.232C236.999 32.232 237.71 32.0327 238.23 31.634C238.75 31.2353 239.01 30.7327 239.01 30.126C239.01 29.502 238.733 29.0427 238.178 28.748C237.623 28.436 236.765 28.1327 235.604 27.838C234.547 27.5607 233.68 27.2833 233.004 27.006C232.345 26.7113 231.773 26.2867 231.288 25.732C230.82 25.16 230.586 24.4147 230.586 23.496C230.586 22.768 230.803 22.1007 231.236 21.494C231.669 20.8873 232.285 20.4107 233.082 20.064C233.879 19.7 234.789 19.518 235.812 19.518C237.389 19.518 238.663 19.9167 239.634 20.714C240.605 21.5113 241.125 22.6033 241.194 23.99H238.828C238.776 23.2447 238.473 22.6467 237.918 22.196C237.381 21.7453 236.653 21.52 235.734 21.52C234.885 21.52 234.209 21.702 233.706 22.066C233.203 22.43 232.952 22.9067 232.952 23.496C232.952 23.964 233.099 24.354 233.394 24.666C233.706 24.9607 234.087 25.2033 234.538 25.394C235.006 25.5673 235.647 25.7667 236.462 25.992C237.485 26.2693 238.317 26.5467 238.958 26.824C239.599 27.084 240.145 27.4827 240.596 28.02C241.064 28.5573 241.307 29.2593 241.324 30.126C241.324 30.906 241.107 31.608 240.674 32.232C240.241 32.856 239.625 33.35 238.828 33.714C238.048 34.0607 237.147 34.234 236.124 34.234ZM257.664 26.33C257.664 26.7807 257.638 27.2573 257.586 27.76H246.198C246.285 29.164 246.761 30.2647 247.628 31.062C248.512 31.842 249.578 32.232 250.826 32.232C251.849 32.232 252.698 31.998 253.374 31.53C254.067 31.0447 254.553 30.4033 254.83 29.606H257.378C256.997 30.9753 256.234 32.0933 255.09 32.96C253.946 33.8093 252.525 34.234 250.826 34.234C249.474 34.234 248.261 33.9307 247.186 33.324C246.129 32.7173 245.297 31.8593 244.69 30.75C244.083 29.6233 243.78 28.3233 243.78 26.85C243.78 25.3767 244.075 24.0853 244.664 22.976C245.253 21.8667 246.077 21.0173 247.134 20.428C248.209 19.8213 249.439 19.518 250.826 19.518C252.178 19.518 253.374 19.8127 254.414 20.402C255.454 20.9913 256.251 21.806 256.806 22.846C257.378 23.8687 257.664 25.03 257.664 26.33ZM255.22 25.836C255.22 24.9347 255.021 24.1633 254.622 23.522C254.223 22.8633 253.677 22.3693 252.984 22.04C252.308 21.6933 251.554 21.52 250.722 21.52C249.526 21.52 248.503 21.9013 247.654 22.664C246.822 23.4267 246.345 24.484 246.224 25.836H255.22Z" fill="black"/>
<path d="M3 153C135.502 149.982 405.605 145.756 426 153" stroke="#FFFC8A" stroke-width="5" stroke-linecap="round"/>
</svg>
