<svg width="456" height="156" viewBox="0 0 456 156" fill="none" xmlns="http://www.w3.org/2000/svg">
<mask id="path-1-outside-1_96_152" maskUnits="userSpaceOnUse" x="4" y="67" width="407" height="69" fill="black">
<rect fill="white" x="4" y="67" width="407" height="69"/>
<path d="M5.58105 69.9824H21.709V118.322H40.0342V133H5.58105V69.9824ZM67.8076 115.158V69.9824H83.9355V114.367C83.9355 120.402 82.0898 125.251 78.3984 128.913C74.7363 132.546 70.0195 134.362 64.248 134.362C58.4473 134.362 53.7305 132.546 50.0977 128.913C46.4355 125.251 44.6045 120.402 44.6045 114.367V69.9824H60.7324V115.158C60.7324 116.477 61.0547 117.561 61.6992 118.41C62.373 119.26 63.2227 119.685 64.248 119.685C65.2734 119.685 66.123 119.26 66.7969 118.41C67.4707 117.561 67.8076 116.477 67.8076 115.158ZM118.345 95.1191H118.652V69.9824H134.736V133H124.321L111.445 107.995H111.27V133H95.0537V69.9824H105.513L118.345 95.1191ZM170.596 119.685C173.232 119.685 176.235 118.396 179.604 115.817L182.681 130.583C179.019 133.103 174.097 134.362 167.915 134.362C160.415 134.362 154.512 131.74 150.205 126.496C145.869 121.281 143.701 112.946 143.701 101.491C143.701 90.0068 145.869 81.6865 150.205 76.5303C154.512 71.3447 160.415 68.752 167.915 68.752C174.653 68.752 179.268 69.5576 181.758 71.1689L177.891 85.4951C176.016 84.1182 173.584 83.4297 170.596 83.4297C167.256 83.4297 164.634 84.748 162.729 87.3848C160.825 90.0508 159.873 94.7529 159.873 101.491C159.873 108.288 160.825 113.02 162.729 115.686C164.604 118.352 167.227 119.685 170.596 119.685ZM205.093 94.3721H213.838V69.9824H229.79V133H213.838V109.973H205.093V133H189.185V69.9824H205.093V94.3721Z"/>
<path d="M248.071 84.6602H236.558V69.9824H275.713V84.6602H264.155V133H248.071V84.6602ZM298.652 133H282.524V69.9824H298.652V133ZM335.786 100.788H335.962L345.674 69.9824H362.241V133H346.597V106.545H346.201L337.764 133H333.896L325.503 106.545H325.151V133H309.507V69.9824H326.074L335.786 100.788ZM407.417 109.138H389.268V118.322H409.966V133H373.14V69.9824H409.395V84.6602H389.268V95.9102H407.417V109.138Z"/>
</mask>
<path d="M5.58105 69.9824H21.709V118.322H40.0342V133H5.58105V69.9824ZM67.8076 115.158V69.9824H83.9355V114.367C83.9355 120.402 82.0898 125.251 78.3984 128.913C74.7363 132.546 70.0195 134.362 64.248 134.362C58.4473 134.362 53.7305 132.546 50.0977 128.913C46.4355 125.251 44.6045 120.402 44.6045 114.367V69.9824H60.7324V115.158C60.7324 116.477 61.0547 117.561 61.6992 118.41C62.373 119.26 63.2227 119.685 64.248 119.685C65.2734 119.685 66.123 119.26 66.7969 118.41C67.4707 117.561 67.8076 116.477 67.8076 115.158ZM118.345 95.1191H118.652V69.9824H134.736V133H124.321L111.445 107.995H111.27V133H95.0537V69.9824H105.513L118.345 95.1191ZM170.596 119.685C173.232 119.685 176.235 118.396 179.604 115.817L182.681 130.583C179.019 133.103 174.097 134.362 167.915 134.362C160.415 134.362 154.512 131.74 150.205 126.496C145.869 121.281 143.701 112.946 143.701 101.491C143.701 90.0068 145.869 81.6865 150.205 76.5303C154.512 71.3447 160.415 68.752 167.915 68.752C174.653 68.752 179.268 69.5576 181.758 71.1689L177.891 85.4951C176.016 84.1182 173.584 83.4297 170.596 83.4297C167.256 83.4297 164.634 84.748 162.729 87.3848C160.825 90.0508 159.873 94.7529 159.873 101.491C159.873 108.288 160.825 113.02 162.729 115.686C164.604 118.352 167.227 119.685 170.596 119.685ZM205.093 94.3721H213.838V69.9824H229.79V133H213.838V109.973H205.093V133H189.185V69.9824H205.093V94.3721Z" fill="black"/>
<path d="M5.58105 69.9824V68.9824H4.58105V69.9824H5.58105ZM21.709 69.9824H22.709V68.9824H21.709V69.9824ZM21.709 118.322H20.709V119.322H21.709V118.322ZM40.0342 118.322H41.0342V117.322H40.0342V118.322ZM40.0342 133V134H41.0342V133H40.0342ZM5.58105 133H4.58105V134H5.58105V133ZM5.58105 69.9824V70.9824H21.709V69.9824V68.9824H5.58105V69.9824ZM21.709 69.9824H20.709V118.322H21.709H22.709V69.9824H21.709ZM21.709 118.322V119.322H40.0342V118.322V117.322H21.709V118.322ZM40.0342 118.322H39.0342V133H40.0342H41.0342V118.322H40.0342ZM40.0342 133V132H5.58105V133V134H40.0342V133ZM5.58105 133H6.58105V69.9824H5.58105H4.58105V133H5.58105ZM67.8076 69.9824V68.9824H66.8076V69.9824H67.8076ZM83.9355 69.9824H84.9355V68.9824H83.9355V69.9824ZM78.3984 128.913L79.1027 129.623L79.1027 129.623L78.3984 128.913ZM44.6045 69.9824V68.9824H43.6045V69.9824H44.6045ZM60.7324 69.9824H61.7324V68.9824H60.7324V69.9824ZM61.6992 118.41L60.9025 119.015L60.909 119.023L60.9157 119.032L61.6992 118.41ZM67.8076 115.158H68.8076V69.9824H67.8076H66.8076V115.158H67.8076ZM67.8076 69.9824V70.9824H83.9355V69.9824V68.9824H67.8076V69.9824ZM83.9355 69.9824H82.9355V114.367H83.9355H84.9355V69.9824H83.9355ZM83.9355 114.367H82.9355C82.9355 120.182 81.1657 124.759 77.6942 128.203L78.3984 128.913L79.1027 129.623C83.014 125.743 84.9355 120.623 84.9355 114.367H83.9355ZM78.3984 128.913L77.6942 128.203C74.2423 131.627 69.7899 133.362 64.248 133.362V134.362V135.362C70.2491 135.362 75.2303 133.464 79.1027 129.623L78.3984 128.913ZM64.248 134.362V133.362C58.6752 133.362 54.2252 131.626 50.8048 128.206L50.0977 128.913L49.3905 129.62C53.2357 133.465 58.2194 135.362 64.248 135.362V134.362ZM50.0977 128.913L50.8048 128.206C47.3612 124.762 45.6045 120.184 45.6045 114.367H44.6045H43.6045C43.6045 120.62 45.5099 125.74 49.3905 129.62L50.0977 128.913ZM44.6045 114.367H45.6045V69.9824H44.6045H43.6045V114.367H44.6045ZM44.6045 69.9824V70.9824H60.7324V69.9824V68.9824H44.6045V69.9824ZM60.7324 69.9824H59.7324V115.158H60.7324H61.7324V69.9824H60.7324ZM60.7324 115.158H59.7324C59.7324 116.642 60.0975 117.953 60.9025 119.015L61.6992 118.41L62.4959 117.806C62.0119 117.168 61.7324 116.311 61.7324 115.158H60.7324ZM61.6992 118.41L60.9157 119.032C61.7666 120.104 62.8977 120.685 64.248 120.685V119.685V118.685C63.5476 118.685 62.9795 118.415 62.4827 117.789L61.6992 118.41ZM64.248 119.685V120.685C65.5984 120.685 66.7295 120.104 67.5804 119.032L66.7969 118.41L66.0134 117.789C65.5166 118.415 64.9484 118.685 64.248 118.685V119.685ZM66.7969 118.41L67.5804 119.032C68.4227 117.969 68.8076 116.652 68.8076 115.158H67.8076H66.8076C66.8076 116.301 66.5187 117.152 66.0134 117.789L66.7969 118.41ZM118.345 95.1191L117.454 95.5738L117.732 96.1191H118.345V95.1191ZM118.652 95.1191V96.1191H119.652V95.1191H118.652ZM118.652 69.9824V68.9824H117.652V69.9824H118.652ZM134.736 69.9824H135.736V68.9824H134.736V69.9824ZM134.736 133V134H135.736V133H134.736ZM124.321 133L123.432 133.458L123.711 134H124.321V133ZM111.445 107.995L112.334 107.537L112.055 106.995H111.445V107.995ZM111.27 107.995V106.995H110.27V107.995H111.27ZM111.27 133V134H112.27V133H111.27ZM95.0537 133H94.0537V134H95.0537V133ZM95.0537 69.9824V68.9824H94.0537V69.9824H95.0537ZM105.513 69.9824L106.403 69.5278L106.125 68.9824H105.513V69.9824ZM118.345 95.1191V96.1191H118.652V95.1191V94.1191H118.345V95.1191ZM118.652 95.1191H119.652V69.9824H118.652H117.652V95.1191H118.652ZM118.652 69.9824V70.9824H134.736V69.9824V68.9824H118.652V69.9824ZM134.736 69.9824H133.736V133H134.736H135.736V69.9824H134.736ZM134.736 133V132H124.321V133V134H134.736V133ZM124.321 133L125.21 132.542L112.334 107.537L111.445 107.995L110.556 108.453L123.432 133.458L124.321 133ZM111.445 107.995V106.995H111.27V107.995V108.995H111.445V107.995ZM111.27 107.995H110.27V133H111.27H112.27V107.995H111.27ZM111.27 133V132H95.0537V133V134H111.27V133ZM95.0537 133H96.0537V69.9824H95.0537H94.0537V133H95.0537ZM95.0537 69.9824V70.9824H105.513V69.9824V68.9824H95.0537V69.9824ZM105.513 69.9824L104.622 70.4371L117.454 95.5738L118.345 95.1191L119.235 94.6645L106.403 69.5278L105.513 69.9824ZM179.604 115.817L180.583 115.613L180.259 114.057L178.997 115.023L179.604 115.817ZM182.681 130.583L183.247 131.407L183.795 131.03L183.66 130.379L182.681 130.583ZM150.205 126.496L150.978 125.861L150.974 125.857L150.205 126.496ZM150.205 76.5303L150.97 77.1739L150.974 77.1692L150.205 76.5303ZM181.758 71.1689L182.723 71.4296L182.913 70.7255L182.301 70.3294L181.758 71.1689ZM177.891 85.4951L177.299 86.3011L178.476 87.1654L178.856 85.7557L177.891 85.4951ZM162.729 87.3848L161.919 86.7993L161.916 86.8035L162.729 87.3848ZM162.729 115.686L163.547 115.11L163.543 115.104L162.729 115.686ZM170.596 119.685V120.685C173.55 120.685 176.767 119.248 180.212 116.612L179.604 115.817L178.997 115.023C175.704 117.543 172.915 118.685 170.596 118.685V119.685ZM179.604 115.817L178.626 116.021L181.702 130.787L182.681 130.583L183.66 130.379L180.583 115.613L179.604 115.817ZM182.681 130.583L182.114 129.759C178.672 132.127 173.971 133.362 167.915 133.362V134.362V135.362C174.222 135.362 179.365 134.078 183.247 131.407L182.681 130.583ZM167.915 134.362V133.362C160.679 133.362 155.073 130.848 150.978 125.861L150.205 126.496L149.432 127.131C153.95 132.632 160.151 135.362 167.915 135.362V134.362ZM150.205 126.496L150.974 125.857C146.86 120.909 144.701 112.86 144.701 101.491H143.701H142.701C142.701 113.032 144.878 121.653 149.436 127.135L150.205 126.496ZM143.701 101.491H144.701C144.701 90.0907 146.861 82.0605 150.97 77.1739L150.205 76.5303L149.44 75.8867C144.877 81.3125 142.701 89.923 142.701 101.491H143.701ZM150.205 76.5303L150.974 77.1692C155.068 72.24 160.675 69.752 167.915 69.752V68.752V67.752C160.156 67.752 153.955 70.4495 149.436 75.8914L150.205 76.5303ZM167.915 68.752V69.752C171.249 69.752 174.026 69.9516 176.257 70.3413C178.5 70.7329 180.128 71.3057 181.215 72.0085L181.758 71.1689L182.301 70.3294C180.897 69.4208 178.973 68.7851 176.601 68.3711C174.219 67.9551 171.319 67.752 167.915 67.752V68.752ZM181.758 71.1689L180.792 70.9083L176.925 85.2345L177.891 85.4951L178.856 85.7557L182.723 71.4296L181.758 71.1689ZM177.891 85.4951L178.483 84.6891C176.393 83.1544 173.736 82.4297 170.596 82.4297V83.4297V84.4297C173.432 84.4297 175.639 85.082 177.299 86.3011L177.891 85.4951ZM170.596 83.4297V82.4297C166.945 82.4297 164.017 83.8941 161.919 86.7993L162.729 87.3848L163.54 87.9703C165.251 85.602 167.567 84.4297 170.596 84.4297V83.4297ZM162.729 87.3848L161.916 86.8035C159.816 89.743 158.873 94.7252 158.873 101.491H159.873H160.873C160.873 94.7806 161.834 90.3586 163.543 87.966L162.729 87.3848ZM159.873 101.491H158.873C158.873 108.314 159.816 113.326 161.916 116.267L162.729 115.686L163.543 115.104C161.835 112.713 160.873 108.263 160.873 101.491H159.873ZM162.729 115.686L161.912 116.261C163.981 119.204 166.914 120.685 170.596 120.685V119.685V118.685C167.539 118.685 165.228 117.5 163.547 115.11L162.729 115.686ZM205.093 94.3721H204.093V95.3721H205.093V94.3721ZM213.838 94.3721V95.3721H214.838V94.3721H213.838ZM213.838 69.9824V68.9824H212.838V69.9824H213.838ZM229.79 69.9824H230.79V68.9824H229.79V69.9824ZM229.79 133V134H230.79V133H229.79ZM213.838 133H212.838V134H213.838V133ZM213.838 109.973H214.838V108.973H213.838V109.973ZM205.093 109.973V108.973H204.093V109.973H205.093ZM205.093 133V134H206.093V133H205.093ZM189.185 133H188.185V134H189.185V133ZM189.185 69.9824V68.9824H188.185V69.9824H189.185ZM205.093 69.9824H206.093V68.9824H205.093V69.9824ZM205.093 94.3721V95.3721H213.838V94.3721V93.3721H205.093V94.3721ZM213.838 94.3721H214.838V69.9824H213.838H212.838V94.3721H213.838ZM213.838 69.9824V70.9824H229.79V69.9824V68.9824H213.838V69.9824ZM229.79 69.9824H228.79V133H229.79H230.79V69.9824H229.79ZM229.79 133V132H213.838V133V134H229.79V133ZM213.838 133H214.838V109.973H213.838H212.838V133H213.838ZM213.838 109.973V108.973H205.093V109.973V110.973H213.838V109.973ZM205.093 109.973H204.093V133H205.093H206.093V109.973H205.093ZM205.093 133V132H189.185V133V134H205.093V133ZM189.185 133H190.185V69.9824H189.185H188.185V133H189.185ZM189.185 69.9824V70.9824H205.093V69.9824V68.9824H189.185V69.9824ZM205.093 69.9824H204.093V94.3721H205.093H206.093V69.9824H205.093ZM248.071 84.6602H249.071V83.6602H248.071V84.6602ZM236.558 84.6602H235.558V85.6602H236.558V84.6602ZM236.558 69.9824V68.9824H235.558V69.9824H236.558ZM275.713 69.9824H276.713V68.9824H275.713V69.9824ZM275.713 84.6602V85.6602H276.713V84.6602H275.713ZM264.155 84.6602V83.6602H263.155V84.6602H264.155ZM264.155 133V134H265.155V133H264.155ZM248.071 133H247.071V134H248.071V133ZM248.071 84.6602V83.6602H236.558V84.6602V85.6602H248.071V84.6602ZM236.558 84.6602H237.558V69.9824H236.558H235.558V84.6602H236.558ZM236.558 69.9824V70.9824H275.713V69.9824V68.9824H236.558V69.9824ZM275.713 69.9824H274.713V84.6602H275.713H276.713V69.9824H275.713ZM275.713 84.6602V83.6602H264.155V84.6602V85.6602H275.713V84.6602ZM264.155 84.6602H263.155V133H264.155H265.155V84.6602H264.155ZM264.155 133V132H248.071V133V134H264.155V133ZM248.071 133H249.071V84.6602H248.071H247.071V133H248.071ZM298.652 133V134H299.652V133H298.652ZM282.524 133H281.524V134H282.524V133ZM282.524 69.9824V68.9824H281.524V69.9824H282.524ZM298.652 69.9824H299.652V68.9824H298.652V69.9824ZM298.652 133V132H282.524V133V134H298.652V133ZM282.524 133H283.524V69.9824H282.524H281.524V133H282.524ZM282.524 69.9824V70.9824H298.652V69.9824V68.9824H282.524V69.9824ZM298.652 69.9824H297.652V133H298.652H299.652V69.9824H298.652ZM335.786 100.788L334.832 101.089L335.053 101.788H335.786V100.788ZM335.962 100.788V101.788H336.695L336.916 101.089L335.962 100.788ZM345.674 69.9824V68.9824H344.941L344.72 69.6817L345.674 69.9824ZM362.241 69.9824H363.241V68.9824H362.241V69.9824ZM362.241 133V134H363.241V133H362.241ZM346.597 133H345.597V134H346.597V133ZM346.597 106.545H347.597V105.545H346.597V106.545ZM346.201 106.545V105.545H345.47L345.248 106.241L346.201 106.545ZM337.764 133V134H338.494L338.716 133.304L337.764 133ZM333.896 133L332.943 133.302L333.165 134H333.896V133ZM325.503 106.545L326.456 106.243L326.235 105.545H325.503V106.545ZM325.151 106.545V105.545H324.151V106.545H325.151ZM325.151 133V134H326.151V133H325.151ZM309.507 133H308.507V134H309.507V133ZM309.507 69.9824V68.9824H308.507V69.9824H309.507ZM326.074 69.9824L327.028 69.6817L326.807 68.9824H326.074V69.9824ZM335.786 100.788V101.788H335.962V100.788V99.7881H335.786V100.788ZM335.962 100.788L336.916 101.089L346.628 70.2831L345.674 69.9824L344.72 69.6817L335.008 100.487L335.962 100.788ZM345.674 69.9824V70.9824H362.241V69.9824V68.9824H345.674V69.9824ZM362.241 69.9824H361.241V133H362.241H363.241V69.9824H362.241ZM362.241 133V132H346.597V133V134H362.241V133ZM346.597 133H347.597V106.545H346.597H345.597V133H346.597ZM346.597 106.545V105.545H346.201V106.545V107.545H346.597V106.545ZM346.201 106.545L345.248 106.241L336.811 132.696L337.764 133L338.716 133.304L347.154 106.849L346.201 106.545ZM337.764 133V132H333.896V133V134H337.764V133ZM333.896 133L334.85 132.698L326.456 106.243L325.503 106.545L324.55 106.847L332.943 133.302L333.896 133ZM325.503 106.545V105.545H325.151V106.545V107.545H325.503V106.545ZM325.151 106.545H324.151V133H325.151H326.151V106.545H325.151ZM325.151 133V132H309.507V133V134H325.151V133ZM309.507 133H310.507V69.9824H309.507H308.507V133H309.507ZM309.507 69.9824V70.9824H326.074V69.9824V68.9824H309.507V69.9824ZM326.074 69.9824L325.12 70.2831L334.832 101.089L335.786 100.788L336.74 100.487L327.028 69.6817L326.074 69.9824ZM407.417 109.138V110.138H408.417V109.138H407.417ZM389.268 109.138V108.138H388.268V109.138H389.268ZM389.268 118.322H388.268V119.322H389.268V118.322ZM409.966 118.322H410.966V117.322H409.966V118.322ZM409.966 133V134H410.966V133H409.966ZM373.14 133H372.14V134H373.14V133ZM373.14 69.9824V68.9824H372.14V69.9824H373.14ZM409.395 69.9824H410.395V68.9824H409.395V69.9824ZM409.395 84.6602V85.6602H410.395V84.6602H409.395ZM389.268 84.6602V83.6602H388.268V84.6602H389.268ZM389.268 95.9102H388.268V96.9102H389.268V95.9102ZM407.417 95.9102H408.417V94.9102H407.417V95.9102ZM407.417 109.138V108.138H389.268V109.138V110.138H407.417V109.138ZM389.268 109.138H388.268V118.322H389.268H390.268V109.138H389.268ZM389.268 118.322V119.322H409.966V118.322V117.322H389.268V118.322ZM409.966 118.322H408.966V133H409.966H410.966V118.322H409.966ZM409.966 133V132H373.14V133V134H409.966V133ZM373.14 133H374.14V69.9824H373.14H372.14V133H373.14ZM373.14 69.9824V70.9824H409.395V69.9824V68.9824H373.14V69.9824ZM409.395 69.9824H408.395V84.6602H409.395H410.395V69.9824H409.395ZM409.395 84.6602V83.6602H389.268V84.6602V85.6602H409.395V84.6602ZM389.268 84.6602H388.268V95.9102H389.268H390.268V84.6602H389.268ZM389.268 95.9102V96.9102H407.417V95.9102V94.9102H389.268V95.9102ZM407.417 95.9102H406.417V109.138H407.417H408.417V95.9102H407.417Z" fill="black" mask="url(#path-1-outside-1_96_152)"/>
<path d="M18.83 34L11.368 25.732V34H9.002V15.878H11.368V24.276L18.856 15.878H21.846L13.63 24.952L21.924 34H18.83ZM25.7885 17.438C25.3378 17.438 24.9565 17.282 24.6445 16.97C24.3325 16.658 24.1765 16.2767 24.1765 15.826C24.1765 15.3753 24.3325 14.994 24.6445 14.682C24.9565 14.37 25.3378 14.214 25.7885 14.214C26.2218 14.214 26.5858 14.37 26.8805 14.682C27.1925 14.994 27.3485 15.3753 27.3485 15.826C27.3485 16.2767 27.1925 16.658 26.8805 16.97C26.5858 17.282 26.2218 17.438 25.7885 17.438ZM26.9325 19.752V34H24.5665V19.752H26.9325ZM33.8509 21.702V30.1C33.8509 30.7933 33.9982 31.2873 34.2929 31.582C34.5876 31.8593 35.0989 31.998 35.8269 31.998H37.5689V34H35.4369C34.1196 34 33.1316 33.6967 32.4729 33.09C31.8142 32.4833 31.4849 31.4867 31.4849 30.1V21.702H29.6389V19.752H31.4849V16.164H33.8509V19.752H37.5689V21.702H33.8509ZM45.4796 34.234C44.3876 34.234 43.4083 34.052 42.5416 33.688C41.6749 33.3067 40.9903 32.7867 40.4876 32.128C39.9849 31.452 39.7076 30.6807 39.6556 29.814H42.0996C42.1689 30.5247 42.4983 31.1053 43.0876 31.556C43.6943 32.0067 44.4829 32.232 45.4536 32.232C46.3549 32.232 47.0656 32.0327 47.5856 31.634C48.1056 31.2353 48.3656 30.7327 48.3656 30.126C48.3656 29.502 48.0883 29.0427 47.5336 28.748C46.9789 28.436 46.1209 28.1327 44.9596 27.838C43.9023 27.5607 43.0356 27.2833 42.3596 27.006C41.7009 26.7113 41.1289 26.2867 40.6436 25.732C40.1756 25.16 39.9416 24.4147 39.9416 23.496C39.9416 22.768 40.1583 22.1007 40.5916 21.494C41.0249 20.8873 41.6403 20.4107 42.4376 20.064C43.2349 19.7 44.1449 19.518 45.1676 19.518C46.7449 19.518 48.0189 19.9167 48.9896 20.714C49.9603 21.5113 50.4803 22.6033 50.5496 23.99H48.1836C48.1316 23.2447 47.8283 22.6467 47.2736 22.196C46.7363 21.7453 46.0083 21.52 45.0896 21.52C44.2403 21.52 43.5643 21.702 43.0616 22.066C42.5589 22.43 42.3076 22.9067 42.3076 23.496C42.3076 23.964 42.4549 24.354 42.7496 24.666C43.0616 24.9607 43.4429 25.2033 43.8936 25.394C44.3616 25.5673 45.0029 25.7667 45.8176 25.992C46.8403 26.2693 47.6723 26.5467 48.3136 26.824C48.9549 27.084 49.5009 27.4827 49.9516 28.02C50.4196 28.5573 50.6623 29.2593 50.6796 30.126C50.6796 30.906 50.4629 31.608 50.0296 32.232C49.5963 32.856 48.9809 33.35 48.1836 33.714C47.4036 34.0607 46.5023 34.234 45.4796 34.234ZM70.0252 24.666C70.6839 24.77 71.2819 25.0387 71.8192 25.472C72.3739 25.9053 72.8072 26.4427 73.1192 27.084C73.4486 27.7253 73.6132 28.41 73.6132 29.138C73.6132 30.0567 73.3792 30.8887 72.9112 31.634C72.4432 32.362 71.7586 32.9427 70.8572 33.376C69.9732 33.792 68.9246 34 67.7112 34H60.9512V15.878H67.4512C68.6819 15.878 69.7306 16.086 70.5972 16.502C71.4639 16.9007 72.1139 17.4467 72.5472 18.14C72.9806 18.8333 73.1972 19.6133 73.1972 20.48C73.1972 21.5547 72.9026 22.4473 72.3132 23.158C71.7412 23.8513 70.9786 24.354 70.0252 24.666ZM63.3172 23.704H67.2952C68.4046 23.704 69.2626 23.444 69.8692 22.924C70.4759 22.404 70.7792 21.6847 70.7792 20.766C70.7792 19.8473 70.4759 19.128 69.8692 18.608C69.2626 18.088 68.3872 17.828 67.2432 17.828H63.3172V23.704ZM67.5032 32.05C68.6819 32.05 69.6006 31.7727 70.2592 31.218C70.9179 30.6633 71.2472 29.892 71.2472 28.904C71.2472 27.8987 70.9006 27.11 70.2072 26.538C69.5139 25.9487 68.5866 25.654 67.4252 25.654H63.3172V32.05H67.5032ZM83.1105 34.234C81.7759 34.234 80.5625 33.9307 79.4705 33.324C78.3959 32.7173 77.5465 31.8593 76.9225 30.75C76.3159 29.6233 76.0125 28.3233 76.0125 26.85C76.0125 25.394 76.3245 24.1113 76.9485 23.002C77.5899 21.8753 78.4565 21.0173 79.5485 20.428C80.6405 19.8213 81.8625 19.518 83.2145 19.518C84.5665 19.518 85.7885 19.8213 86.8805 20.428C87.9725 21.0173 88.8305 21.8667 89.4545 22.976C90.0959 24.0853 90.4165 25.3767 90.4165 26.85C90.4165 28.3233 90.0872 29.6233 89.4285 30.75C88.7872 31.8593 87.9119 32.7173 86.8025 33.324C85.6932 33.9307 84.4625 34.234 83.1105 34.234ZM83.1105 32.154C83.9599 32.154 84.7572 31.9547 85.5025 31.556C86.2479 31.1573 86.8459 30.5593 87.2965 29.762C87.7645 28.9647 87.9985 27.994 87.9985 26.85C87.9985 25.706 87.7732 24.7353 87.3225 23.938C86.8719 23.1407 86.2825 22.5513 85.5545 22.17C84.8265 21.7713 84.0379 21.572 83.1885 21.572C82.3219 21.572 81.5245 21.7713 80.7965 22.17C80.0859 22.5513 79.5139 23.1407 79.0805 23.938C78.6472 24.7353 78.4305 25.706 78.4305 26.85C78.4305 28.0113 78.6385 28.9907 79.0545 29.788C79.4879 30.5853 80.0599 31.1833 80.7705 31.582C81.4812 31.9633 82.2612 32.154 83.1105 32.154ZM95.8934 22.066C96.3094 21.2513 96.8987 20.6187 97.6614 20.168C98.4414 19.7173 99.3861 19.492 100.495 19.492V21.936H99.8714C97.2194 21.936 95.8934 23.3747 95.8934 26.252V34H93.5274V19.752H95.8934V22.066ZM110.169 19.492C111.902 19.492 113.306 20.0207 114.381 21.078C115.455 22.118 115.993 23.626 115.993 25.602V34H113.653V25.94C113.653 24.5187 113.297 23.4353 112.587 22.69C111.876 21.9273 110.905 21.546 109.675 21.546C108.427 21.546 107.43 21.936 106.685 22.716C105.957 23.496 105.593 24.6313 105.593 26.122V34H103.227V19.752H105.593V21.78C106.061 21.052 106.693 20.4887 107.491 20.09C108.305 19.6913 109.198 19.492 110.169 19.492ZM129.675 21.702V30.1C129.675 30.7933 129.822 31.2873 130.117 31.582C130.412 31.8593 130.923 31.998 131.651 31.998H133.393V34H131.261C129.944 34 128.956 33.6967 128.297 33.09C127.638 32.4833 127.309 31.4867 127.309 30.1V21.702H125.463V19.752H127.309V16.164H129.675V19.752H133.393V21.702H129.675ZM142.474 34.234C141.139 34.234 139.926 33.9307 138.834 33.324C137.759 32.7173 136.91 31.8593 136.286 30.75C135.679 29.6233 135.376 28.3233 135.376 26.85C135.376 25.394 135.688 24.1113 136.312 23.002C136.953 21.8753 137.82 21.0173 138.912 20.428C140.004 19.8213 141.226 19.518 142.578 19.518C143.93 19.518 145.152 19.8213 146.244 20.428C147.336 21.0173 148.194 21.8667 148.818 22.976C149.459 24.0853 149.78 25.3767 149.78 26.85C149.78 28.3233 149.45 29.6233 148.792 30.75C148.15 31.8593 147.275 32.7173 146.166 33.324C145.056 33.9307 143.826 34.234 142.474 34.234ZM142.474 32.154C143.323 32.154 144.12 31.9547 144.866 31.556C145.611 31.1573 146.209 30.5593 146.66 29.762C147.128 28.9647 147.362 27.994 147.362 26.85C147.362 25.706 147.136 24.7353 146.686 23.938C146.235 23.1407 145.646 22.5513 144.918 22.17C144.19 21.7713 143.401 21.572 142.552 21.572C141.685 21.572 140.888 21.7713 140.16 22.17C139.449 22.5513 138.877 23.1407 138.444 23.938C138.01 24.7353 137.794 25.706 137.794 26.85C137.794 28.0113 138.002 28.9907 138.418 29.788C138.851 30.5853 139.423 31.1833 140.134 31.582C140.844 31.9633 141.624 32.154 142.474 32.154ZM165.568 34.182C164.372 34.182 163.298 33.974 162.344 33.558C161.408 33.1247 160.672 32.5353 160.134 31.79C159.597 31.0273 159.32 30.152 159.302 29.164H161.824C161.911 30.0133 162.258 30.7327 162.864 31.322C163.488 31.894 164.39 32.18 165.568 32.18C166.695 32.18 167.579 31.9027 168.22 31.348C168.879 30.776 169.208 30.048 169.208 29.164C169.208 28.4707 169.018 27.9073 168.636 27.474C168.255 27.0407 167.778 26.7113 167.206 26.486C166.634 26.2607 165.863 26.018 164.892 25.758C163.696 25.446 162.734 25.134 162.006 24.822C161.296 24.51 160.68 24.0247 160.16 23.366C159.658 22.69 159.406 21.7887 159.406 20.662C159.406 19.674 159.658 18.7987 160.16 18.036C160.663 17.2733 161.365 16.684 162.266 16.268C163.185 15.852 164.234 15.644 165.412 15.644C167.111 15.644 168.498 16.0687 169.572 16.918C170.664 17.7673 171.28 18.894 171.418 20.298H168.818C168.732 19.6047 168.368 18.998 167.726 18.478C167.085 17.9407 166.236 17.672 165.178 17.672C164.19 17.672 163.384 17.932 162.76 18.452C162.136 18.9547 161.824 19.6653 161.824 20.584C161.824 21.2427 162.006 21.78 162.37 22.196C162.752 22.612 163.211 22.9327 163.748 23.158C164.303 23.366 165.074 23.6087 166.062 23.886C167.258 24.2153 168.22 24.5447 168.948 24.874C169.676 25.186 170.3 25.68 170.82 26.356C171.34 27.0147 171.6 27.916 171.6 29.06C171.6 29.944 171.366 30.776 170.898 31.556C170.43 32.336 169.737 32.9687 168.818 33.454C167.9 33.9393 166.816 34.182 165.568 34.182ZM187.718 19.752V34H185.352V31.894C184.901 32.622 184.269 33.194 183.454 33.61C182.657 34.0087 181.773 34.208 180.802 34.208C179.693 34.208 178.696 33.9827 177.812 33.532C176.928 33.064 176.226 32.3707 175.706 31.452C175.203 30.5333 174.952 29.4153 174.952 28.098V19.752H177.292V27.786C177.292 29.19 177.647 30.2733 178.358 31.036C179.069 31.7813 180.039 32.154 181.27 32.154C182.535 32.154 183.532 31.764 184.26 30.984C184.988 30.204 185.352 29.0687 185.352 27.578V19.752H187.718ZM194.079 22.066C194.495 21.2513 195.084 20.6187 195.847 20.168C196.627 19.7173 197.572 19.492 198.681 19.492V21.936H198.057C195.405 21.936 194.079 23.3747 194.079 26.252V34H191.713V19.752H194.079V22.066ZM203.778 22.378C204.246 21.5633 204.939 20.8873 205.858 20.35C206.794 19.7953 207.877 19.518 209.108 19.518C210.373 19.518 211.517 19.8213 212.54 20.428C213.58 21.0347 214.395 21.8927 214.984 23.002C215.573 24.094 215.868 25.368 215.868 26.824C215.868 28.2627 215.573 29.5453 214.984 30.672C214.395 31.7987 213.58 32.674 212.54 33.298C211.517 33.922 210.373 34.234 209.108 34.234C207.895 34.234 206.82 33.9653 205.884 33.428C204.965 32.8733 204.263 32.1887 203.778 31.374V40.76H201.412V19.752H203.778V22.378ZM213.45 26.824C213.45 25.7493 213.233 24.8133 212.8 24.016C212.367 23.2187 211.777 22.612 211.032 22.196C210.304 21.78 209.498 21.572 208.614 21.572C207.747 21.572 206.941 21.7887 206.196 22.222C205.468 22.638 204.879 23.2533 204.428 24.068C203.995 24.8653 203.778 25.7927 203.778 26.85C203.778 27.9247 203.995 28.8693 204.428 29.684C204.879 30.4813 205.468 31.0967 206.196 31.53C206.941 31.946 207.747 32.154 208.614 32.154C209.498 32.154 210.304 31.946 211.032 31.53C211.777 31.0967 212.367 30.4813 212.8 29.684C213.233 28.8693 213.45 27.916 213.45 26.824ZM221.348 22.066C221.764 21.2513 222.354 20.6187 223.116 20.168C223.896 19.7173 224.841 19.492 225.95 19.492V21.936H225.326C222.674 21.936 221.348 23.3747 221.348 26.252V34H218.982V19.752H221.348V22.066ZM229.904 17.438C229.453 17.438 229.072 17.282 228.76 16.97C228.448 16.658 228.292 16.2767 228.292 15.826C228.292 15.3753 228.448 14.994 228.76 14.682C229.072 14.37 229.453 14.214 229.904 14.214C230.337 14.214 230.701 14.37 230.996 14.682C231.308 14.994 231.464 15.3753 231.464 15.826C231.464 16.2767 231.308 16.658 230.996 16.97C230.701 17.282 230.337 17.438 229.904 17.438ZM231.048 19.752V34H228.682V19.752H231.048ZM240.124 34.234C239.032 34.234 238.053 34.052 237.186 33.688C236.319 33.3067 235.635 32.7867 235.132 32.128C234.629 31.452 234.352 30.6807 234.3 29.814H236.744C236.813 30.5247 237.143 31.1053 237.732 31.556C238.339 32.0067 239.127 32.232 240.098 32.232C240.999 32.232 241.71 32.0327 242.23 31.634C242.75 31.2353 243.01 30.7327 243.01 30.126C243.01 29.502 242.733 29.0427 242.178 28.748C241.623 28.436 240.765 28.1327 239.604 27.838C238.547 27.5607 237.68 27.2833 237.004 27.006C236.345 26.7113 235.773 26.2867 235.288 25.732C234.82 25.16 234.586 24.4147 234.586 23.496C234.586 22.768 234.803 22.1007 235.236 21.494C235.669 20.8873 236.285 20.4107 237.082 20.064C237.879 19.7 238.789 19.518 239.812 19.518C241.389 19.518 242.663 19.9167 243.634 20.714C244.605 21.5113 245.125 22.6033 245.194 23.99H242.828C242.776 23.2447 242.473 22.6467 241.918 22.196C241.381 21.7453 240.653 21.52 239.734 21.52C238.885 21.52 238.209 21.702 237.706 22.066C237.203 22.43 236.952 22.9067 236.952 23.496C236.952 23.964 237.099 24.354 237.394 24.666C237.706 24.9607 238.087 25.2033 238.538 25.394C239.006 25.5673 239.647 25.7667 240.462 25.992C241.485 26.2693 242.317 26.5467 242.958 26.824C243.599 27.084 244.145 27.4827 244.596 28.02C245.064 28.5573 245.307 29.2593 245.324 30.126C245.324 30.906 245.107 31.608 244.674 32.232C244.241 32.856 243.625 33.35 242.828 33.714C242.048 34.0607 241.147 34.234 240.124 34.234ZM261.664 26.33C261.664 26.7807 261.638 27.2573 261.586 27.76H250.198C250.285 29.164 250.761 30.2647 251.628 31.062C252.512 31.842 253.578 32.232 254.826 32.232C255.849 32.232 256.698 31.998 257.374 31.53C258.067 31.0447 258.553 30.4033 258.83 29.606H261.378C260.997 30.9753 260.234 32.0933 259.09 32.96C257.946 33.8093 256.525 34.234 254.826 34.234C253.474 34.234 252.261 33.9307 251.186 33.324C250.129 32.7173 249.297 31.8593 248.69 30.75C248.083 29.6233 247.78 28.3233 247.78 26.85C247.78 25.3767 248.075 24.0853 248.664 22.976C249.253 21.8667 250.077 21.0173 251.134 20.428C252.209 19.8213 253.439 19.518 254.826 19.518C256.178 19.518 257.374 19.8127 258.414 20.402C259.454 20.9913 260.251 21.806 260.806 22.846C261.378 23.8687 261.664 25.03 261.664 26.33ZM259.22 25.836C259.22 24.9347 259.021 24.1633 258.622 23.522C258.223 22.8633 257.677 22.3693 256.984 22.04C256.308 21.6933 255.554 21.52 254.722 21.52C253.526 21.52 252.503 21.9013 251.654 22.664C250.822 23.4267 250.345 24.484 250.224 25.836H259.22Z" fill="black"/>
<path d="M7 153C139.502 149.982 409.605 145.756 430 153" stroke="#FFFC8A" stroke-width="5" stroke-linecap="round"/>
</svg>
