<svg width="481" height="229" viewBox="0 0 481 229" fill="none" xmlns="http://www.w3.org/2000/svg">
<path d="M16.1601 0.860107L9.32008 11.1101L17.2501 25.9501H14.3501L7.35008 13.3701H7.25008L3.45008 18.6401V25.9501H0.830078V0.860107H3.44008V14.9101H3.54008L13.2901 0.860107H16.1601Z" fill="black"/>
<path d="M20.9302 0.54C21.2702 0.18 21.7102 0 22.2302 0C22.7502 0 23.1902 0.18 23.5402 0.54C23.8902 0.9 24.0602 1.33 24.0602 1.83C24.0602 2.33 23.8802 2.75 23.5402 3.1C23.1902 3.44 22.7502 3.62 22.2302 3.62C21.7102 3.62 21.2702 3.45 20.9302 3.1C20.5902 2.76 20.4102 2.33 20.4102 1.83C20.4102 1.33 20.5802 0.9 20.9302 0.54ZM20.9902 25.95V7.93H23.4602V25.95H20.9902Z" fill="black"/>
<path d="M35.56 24.1301C36.4 24.1301 37.23 23.8901 38.06 23.4101L38.32 25.6301C37.2 26.1301 36.2 26.3801 35.31 26.3801C31.8 26.3801 30.04 24.4201 30.04 20.5001V10.0701H26.77V7.92011H30.08L30.68 2.11011H32.52V7.92011H38.29V10.0701H32.52V20.0901C32.52 22.7701 33.53 24.1101 35.56 24.1101V24.1301Z" fill="black"/>
<path d="M51.2799 21.43C51.2799 22.93 50.7699 24.14 49.7599 25.03C48.7499 25.93 47.4399 26.38 45.8399 26.38C43.7399 26.38 41.9999 25.73 40.6099 24.44L41.1999 22.43C41.7199 22.98 42.3999 23.43 43.2099 23.78C44.0199 24.13 44.8099 24.3 45.5699 24.3C46.5999 24.3 47.4199 24.05 48.0499 23.55C48.6699 23.05 48.9899 22.37 48.9899 21.5C48.9899 21.07 48.8899 20.66 48.6999 20.28C48.5099 19.9 48.1699 19.51 47.6899 19.12C47.2099 18.72 46.8299 18.42 46.5399 18.2C46.2499 17.98 45.7799 17.66 45.1099 17.23C44.2499 16.66 43.5799 16.19 43.1199 15.84C42.6499 15.48 42.1899 14.95 41.7399 14.25C41.2799 13.54 41.0599 12.78 41.0599 11.97C41.0599 10.63 41.5499 9.54999 42.5299 8.71999C43.5099 7.88999 44.7799 7.48999 46.3299 7.48999C48.1299 7.48999 49.6399 7.92999 50.8799 8.81999L50.2299 10.69C49.2699 9.89999 48.0599 9.49999 46.5899 9.49999C45.6799 9.49999 44.9199 9.72999 44.3199 10.18C43.7199 10.64 43.4199 11.22 43.4199 11.93C43.4199 12.41 43.6099 12.88 43.9799 13.35C44.3499 13.82 44.7299 14.19 45.1099 14.48C45.4899 14.77 46.0599 15.16 46.8299 15.66C47.4999 16.09 48.0299 16.46 48.4399 16.75C48.8499 17.05 49.2999 17.44 49.7999 17.93C50.2999 18.42 50.6699 18.95 50.9099 19.53C51.1499 20.11 51.2699 20.74 51.2699 21.43H51.2799Z" fill="black"/>
<path d="M71.6201 7.48999C73.6701 7.48999 75.3501 8.32999 76.6501 9.99999C77.9501 11.67 78.6001 13.99 78.6001 16.95C78.6001 19.91 77.9401 22.22 76.6301 23.89C75.3201 25.56 73.6501 26.38 71.6201 26.38C69.5901 26.38 67.9201 25.54 66.6001 23.87C65.2801 22.2 64.6201 19.88 64.6201 16.92C64.6201 13.96 65.2801 11.65 66.6001 9.97999C67.9201 8.31999 69.5901 7.48999 71.6201 7.48999ZM71.6201 24.09C72.9601 24.09 74.0601 23.45 74.9001 22.17C75.7501 20.89 76.1701 19.15 76.1701 16.96C76.1701 14.77 75.7401 13 74.8901 11.73C74.0401 10.46 72.9401 9.81999 71.6101 9.81999C70.2801 9.81999 69.1901 10.45 68.3601 11.72C67.5301 12.99 67.1101 14.73 67.1101 16.96C67.1101 19.19 67.5301 20.88 68.3601 22.16C69.1901 23.43 70.2801 24.08 71.6201 24.1V24.09Z" fill="black"/>
<path d="M91.0398 7.48999C92.7498 7.48999 94.1798 8.16999 95.3198 9.51999C96.4598 10.87 97.0298 12.69 97.0298 14.98V25.95H94.5598V15.28C94.5598 13.66 94.1498 12.34 93.3398 11.33C92.5198 10.32 91.4898 9.81999 90.2498 9.81999C89.0098 9.81999 87.9598 10.32 87.0998 11.32C86.2398 12.32 85.8098 13.64 85.8098 15.27V25.94H83.3398V7.92999H84.9498L85.5298 11.36H85.6698C86.1198 10.12 86.8198 9.16999 87.7698 8.49999C88.7098 7.82999 89.8098 7.48999 91.0398 7.48999Z" fill="black"/>
<path d="M110.38 7.49004C112.18 7.49004 113.67 8.36004 114.86 10.09C116.05 11.82 116.64 14.11 116.64 16.96C116.64 19.81 116.04 22.06 114.83 23.79C113.62 25.52 112.13 26.39 110.34 26.39C109.24 26.39 108.23 26.04 107.31 25.35C106.39 24.66 105.65 23.67 105.11 22.4H104.97L104.36 25.95H102.75V0.0400391H105.25V10.94H105.35C106.55 8.64004 108.23 7.49004 110.37 7.49004H110.38ZM109.7 24.04C110.99 24.06 112.06 23.41 112.91 22.07C113.76 20.73 114.18 19.03 114.18 16.95C114.18 14.87 113.76 13.14 112.91 11.81C112.06 10.48 110.99 9.82004 109.7 9.82004C108.41 9.82004 107.34 10.49 106.51 11.81C105.68 13.14 105.26 14.85 105.26 16.95C105.26 19.05 105.68 20.73 106.51 22.05C107.34 23.37 108.41 24.04 109.7 24.04Z" fill="black"/>
<path d="M127.5 7.48999C129.55 7.48999 131.23 8.32999 132.53 9.99999C133.83 11.67 134.48 13.99 134.48 16.95C134.48 19.91 133.82 22.22 132.51 23.89C131.2 25.56 129.53 26.38 127.5 26.38C125.47 26.38 123.8 25.54 122.48 23.87C121.16 22.2 120.5 19.88 120.5 16.92C120.5 13.96 121.16 11.65 122.48 9.97999C123.8 8.31999 125.47 7.48999 127.5 7.48999ZM127.5 24.09C128.84 24.09 129.94 23.45 130.78 22.17C131.63 20.89 132.05 19.15 132.05 16.96C132.05 14.77 131.62 13 130.77 11.73C129.92 10.46 128.82 9.81999 127.49 9.81999C126.16 9.81999 125.07 10.45 124.24 11.72C123.41 12.99 122.99 14.73 122.99 16.96C122.99 19.19 123.41 20.88 124.24 22.16C125.07 23.43 126.16 24.08 127.5 24.1V24.09Z" fill="black"/>
<path d="M144.11 7.48998C146.19 7.48998 147.76 8.01998 148.84 9.08998C149.92 10.16 150.46 11.93 150.46 14.42V25.95H148.85L148.31 22.77H148.17C147.19 25.18 145.55 26.39 143.25 26.39C141.79 26.39 140.56 25.83 139.56 24.72C138.56 23.61 138.06 22.23 138.06 20.58C138.06 18.78 138.59 17.33 139.66 16.21C140.73 15.09 142.28 14.53 144.31 14.53C145.63 14.53 146.86 14.85 148 15.49V14.37C148 12.84 147.68 11.7 147.03 10.93C146.38 10.17 145.33 9.77998 143.87 9.77998C143.21 9.77998 142.54 9.88998 141.87 10.12C141.2 10.35 140.7 10.57 140.36 10.79L139.87 11.1L139.08 8.94998C140.06 8.46998 140.65 8.18998 140.86 8.08998C141.96 7.67998 143.04 7.47998 144.11 7.47998V7.48998ZM147.99 18.09V17.39C147.06 16.77 145.95 16.46 144.68 16.45C143.32 16.45 142.27 16.84 141.53 17.61C140.8 18.39 140.43 19.37 140.43 20.58C140.43 21.79 140.73 22.66 141.32 23.39C141.91 24.12 142.73 24.48 143.75 24.48C144.99 24.48 146 23.85 146.78 22.6C147.56 21.35 147.96 19.84 147.99 18.1V18.09Z" fill="black"/>
<path d="M158.62 11.97C159.12 10.56 159.84 9.45999 160.77 8.66999C161.7 7.87999 162.76 7.48999 163.95 7.48999V9.81999C162.49 9.81999 161.25 10.51 160.22 11.88C159.19 13.25 158.68 15.12 158.68 17.46H158.64V25.95H156.17V7.92999H157.78L158.46 11.97H158.6H158.62Z" fill="black"/>
<path d="M172.52 7.49004C174.67 7.49004 176.33 8.64004 177.52 10.94H177.64V0.0400391H180.14V25.95H178.53L177.92 22.4H177.78C177.23 23.67 176.5 24.65 175.58 25.35C174.66 26.04 173.65 26.39 172.55 26.39C170.75 26.39 169.25 25.52 168.04 23.79C166.83 22.06 166.23 19.78 166.23 16.96C166.23 14.14 166.83 11.82 168.02 10.09C169.22 8.36004 170.71 7.49004 172.51 7.49004H172.52ZM173.2 24.04C174.49 24.04 175.56 23.38 176.39 22.05C177.22 20.72 177.64 19.03 177.64 16.95C177.64 14.87 177.22 13.14 176.38 11.81C175.54 10.48 174.48 9.82004 173.19 9.82004C171.9 9.82004 170.83 10.49 169.99 11.81C169.14 13.14 168.72 14.85 168.72 16.95C168.72 19.05 169.14 20.73 169.99 22.07C170.84 23.41 171.91 24.06 173.2 24.04Z" fill="black"/>
<path d="M185.89 0.54C186.23 0.18 186.67 0 187.19 0C187.71 0 188.15 0.18 188.5 0.54C188.85 0.9 189.02 1.33 189.02 1.83C189.02 2.33 188.84 2.75 188.5 3.1C188.15 3.44 187.71 3.62 187.19 3.62C186.67 3.62 186.23 3.45 185.89 3.1C185.55 2.76 185.37 2.33 185.37 1.83C185.37 1.33 185.54 0.9 185.89 0.54ZM185.95 25.95V7.93H188.42V25.95H185.95Z" fill="black"/>
<path d="M201.95 7.48999C203.66 7.48999 205.09 8.16999 206.23 9.51999C207.37 10.87 207.94 12.69 207.94 14.98V25.95H205.47V15.28C205.47 13.66 205.06 12.34 204.25 11.33C203.43 10.32 202.4 9.81999 201.16 9.81999C199.92 9.81999 198.87 10.32 198.01 11.32C197.15 12.32 196.72 13.64 196.72 15.27V25.94H194.25V7.92999H195.86L196.44 11.36H196.58C197.03 10.12 197.73 9.16999 198.68 8.49999C199.62 7.82999 200.72 7.48999 201.95 7.48999Z" fill="black"/>
<path d="M222.46 8.21008C222.92 7.48008 223.52 6.92008 224.27 6.53008C225.02 6.15008 225.79 6.00008 226.59 6.09008V8.17008C225.45 8.10008 224.54 8.42008 223.86 9.13008V9.29008C224.98 10.4601 225.55 11.9701 225.56 13.8401C225.56 15.7301 225.01 17.2301 223.91 18.3501C222.81 19.4701 221.35 20.0301 219.53 20.0301C217.98 20.0301 216.67 19.5601 215.59 18.6301C215.11 19.2001 214.87 19.7901 214.87 20.4001C214.87 21.9501 215.78 22.7301 217.6 22.7301H221.97C223.4 22.7501 224.52 23.1801 225.3 24.0001C226.09 24.8201 226.48 25.9901 226.48 27.4901C226.48 29.3601 225.82 30.9701 224.49 32.3301C223.16 33.6901 221.4 34.3701 219.21 34.3701C217.44 34.3701 215.94 33.9001 214.73 32.9501C213.52 32.0101 212.91 30.6601 212.91 28.9301C212.91 27.2001 213.54 25.7301 214.8 24.6601V24.5601C213.34 23.9401 212.61 22.7601 212.61 21.0101C212.61 19.4801 213.2 18.2201 214.38 17.2101C213.81 16.2101 213.52 15.0801 213.51 13.8201C213.51 11.9301 214.07 10.4101 215.18 9.24008C216.29 8.08008 217.74 7.50008 219.53 7.50008C220.6 7.50008 221.58 7.74008 222.47 8.22008L222.46 8.21008ZM216.67 24.9501C215.6 25.8101 215.05 27.0001 215.04 28.5201C215.04 29.8101 215.48 30.7801 216.35 31.4201C217.22 32.0601 218.21 32.3701 219.31 32.3701C220.79 32.3701 221.98 31.9201 222.86 31.0201C223.75 30.1201 224.19 29.0501 224.19 27.8001C224.19 25.8901 223.22 24.9401 221.29 24.9501H216.67ZM219.52 18.0601C220.66 18.0601 221.58 17.6801 222.27 16.9101C222.96 16.1501 223.3 15.1301 223.3 13.8701C223.3 12.6101 222.95 11.6101 222.26 10.8101C221.57 10.0101 220.65 9.60008 219.52 9.60008C218.39 9.60008 217.46 9.99008 216.78 10.7801C216.1 11.5701 215.76 12.5901 215.76 13.8601C215.76 15.1301 216.11 16.1401 216.8 16.9001C217.49 17.6601 218.4 18.0501 219.52 18.0501V18.0601Z" fill="black"/>
<path d="M73.7098 228.34C95.0298 228.04 116.34 227.77 137.66 227.55C158.98 227.33 180.3 227.15 201.62 227.01C222.86 226.87 244.09 226.77 265.33 226.71C286.57 226.65 307.97 226.63 329.29 226.66C350.61 226.69 371.77 226.75 393 226.85C395.67 226.86 398.33 226.88 401 226.89C404.22 226.91 404.22 221.91 401 221.89C379.68 221.77 358.36 221.7 337.04 221.67C315.72 221.64 294.4 221.64 273.08 221.69C251.76 221.74 230.6 221.83 209.37 221.96C188.05 222.09 166.73 222.26 145.41 222.47C124.09 222.68 102.94 222.93 81.7098 223.23C79.0498 223.27 76.3798 223.3 73.7198 223.34C70.5098 223.39 70.4998 228.39 73.7198 228.34H73.7098Z" fill="#FFFF5F"/>
<path d="M18.27 130.83V185.61H39.03V202.24H0V130.83H18.27Z" fill="black"/>
<path d="M70.56 182.02V130.83H88.83V181.12C88.83 187.99 86.74 193.49 82.56 197.6C78.38 201.72 73.02 203.77 66.5 203.77C59.98 203.77 54.64 201.71 50.49 197.6C46.34 193.48 44.27 187.99 44.27 181.12V130.83H62.54V182.02C62.54 183.51 62.91 184.74 63.66 185.71C64.41 186.67 65.35 187.15 66.5 187.15C67.65 187.15 68.61 186.67 69.39 185.71C70.17 184.75 70.56 183.52 70.56 182.02Z" fill="black"/>
<path d="M128.17 159.32V130.84H146.4V202.25H134.6L120.01 173.92H119.81V202.25H101.44V130.84H113.29L127.83 159.32H128.18H128.17Z" fill="black"/>
<path d="M186.98 187.15C189.97 187.15 193.37 185.69 197.19 182.77L200.68 199.5C196.53 202.35 190.95 203.78 183.95 203.78C175.45 203.78 168.75 200.82 163.86 194.89C158.96 188.96 156.52 179.51 156.52 166.53C156.52 153.55 158.97 144.12 163.86 138.25C168.76 132.37 175.45 129.44 183.95 129.44C191.55 129.44 196.78 130.35 199.64 132.18L195.26 148.41C193.17 146.85 190.41 146.07 186.99 146.07C183.17 146.07 180.19 147.56 178.05 150.55C175.91 153.54 174.84 158.87 174.84 166.53C174.84 174.19 175.91 179.63 178.05 182.64C180.19 185.64 183.17 187.15 186.99 187.15H186.98Z" fill="black"/>
<path d="M235.93 158.47V130.83H254.01V202.24H235.93V176.15H226.02V202.24H207.99V130.83H226.02V158.47H235.93Z" fill="black"/>
<path d="M284.03 147.47V130.84H328.4V147.47H315.3V202.25H297.07V147.47H284.02H284.03Z" fill="black"/>
<path d="M336.12 202.24V130.83H354.39V202.24H336.12Z" fill="black"/>
<path d="M396.67 165.74L407.67 130.83H426.44V202.24H408.71V172.26H408.26L398.7 202.24H394.32L384.81 172.26H384.41V202.24H366.68V130.83H385.45L396.45 165.74H396.65H396.67Z" fill="black"/>
<path d="M457.02 175.2V185.61H480.47V202.24H438.74V130.83H479.82V147.46H457.01V160.21H477.58V175.2H457.01H457.02Z" fill="black"/>
<path d="M43.11 97.7699L47.03 61.1099H61.56L54.21 119.01H35.68L31.4 88.5699H31.12L26.92 119.01H8.31004L1.04004 61.1099H15.49L19.49 97.7699H19.65L24.41 61.1099H38.06L42.86 97.7699H43.1H43.11Z" stroke="black"/>
<path d="M81.3002 97.0799V105.52H100.32V119.01H66.4902V61.1099H99.8002V74.5899H81.3102V84.9299H97.9802V97.0799H81.3102H81.3002Z" stroke="black"/>
<path d="M123.29 61.1099V105.52H140.13V119.01H108.48V61.1099H123.3H123.29Z" stroke="black"/>
<path d="M166.41 106.77C168.83 106.77 171.59 105.59 174.69 103.22L177.52 116.79C174.16 119.1 169.63 120.26 163.95 120.26C157.06 120.26 151.63 117.86 147.66 113.05C143.69 108.25 141.7 100.58 141.7 90.06C141.7 79.54 143.68 71.89 147.66 67.13C151.63 62.37 157.06 59.98 163.95 59.98C170.11 59.98 174.35 60.72 176.67 62.2L173.12 75.36C171.42 74.09 169.19 73.46 166.42 73.46C163.32 73.46 160.91 74.67 159.17 77.09C157.43 79.51 156.57 83.83 156.57 90.05C156.57 96.27 157.44 100.68 159.17 103.11C160.91 105.55 163.32 106.76 166.42 106.76L166.41 106.77Z" stroke="black"/>
<path d="M184.58 67.0899C188.35 62.2999 193.52 59.8999 200.08 59.8999C206.64 59.8999 211.81 62.2999 215.58 67.0899C219.35 71.8799 221.23 79.5399 221.23 90.0599C221.23 100.58 219.35 108.32 215.58 113.09C211.81 117.87 206.64 120.26 200.08 120.26C193.52 120.26 188.34 117.87 184.58 113.09C180.81 108.31 178.93 100.63 178.93 90.0599C178.93 79.4899 180.81 71.8799 184.58 67.0899ZM195.4 103.18C196.48 105.58 198.04 106.77 200.08 106.77C202.12 106.77 203.69 105.57 204.76 103.18C205.84 100.78 206.38 96.4099 206.38 90.0599C206.38 83.7099 205.84 79.4399 204.76 77.0199C203.68 74.5999 202.12 73.3899 200.08 73.3899C198.04 73.3899 196.47 74.5999 195.4 77.0199C194.32 79.4399 193.78 83.7899 193.78 90.0599C193.78 96.3299 194.32 100.79 195.4 103.18Z" stroke="black"/>
<path d="M253.5 89.4099L262.42 61.1099H277.64V119.01H263.27V94.6999H262.91L255.16 119.01H251.61L243.9 94.6999H243.58V119.01H229.21V61.1099H244.43L253.35 89.4099H253.51H253.5Z" stroke="black"/>
<path d="M302.44 97.0799V105.52H321.46V119.01H287.63V61.1099H320.94V74.5899H302.45V84.9299H319.12V97.0799H302.45H302.44Z" stroke="black"/>
</svg>
