<svg width="1113" height="47" viewBox="0 0 1113 47" fill="none" xmlns="http://www.w3.org/2000/svg">
<path d="M766.51 23.1C772.89 23.1 778.07 28.27 778.07 34.66C784.45 34.66 789.63 29.49 789.63 23.1C789.63 16.71 784.45 11.55 778.07 11.55C778.07 17.93 772.9 23.1 766.51 23.1ZM754.95 34.66C754.95 41.04 760.12 46.21 766.5 46.21C772.88 46.21 778.06 41.04 778.06 34.66H754.95ZM754.95 34.66C754.95 28.28 760.12 23.1 766.5 23.1C760.12 23.1 754.95 17.93 754.95 11.55C748.57 11.55 743.4 16.72 743.4 23.1C743.4 29.48 748.57 34.66 754.95 34.66ZM754.95 11.55C754.95 5.17 760.12 0 766.5 0C772.88 0 778.06 5.17 778.06 11.55H754.95Z" fill="black"/>
<path d="M854.43 30.4102H852.39V15.7702H854.43C860.04 15.7702 862.06 19.4302 862.06 23.0902C862.06 26.7502 860.04 30.4102 854.43 30.4102ZM854.76 11.5302H847.4V34.6202H854.76C860.88 34.6202 867.09 31.0802 867.09 23.1002C867.09 15.1202 860.88 11.5402 854.76 11.5402M844.77 18.3802C844.77 13.8202 841.26 11.1602 837.07 11.1602C832.88 11.1602 828.37 13.5902 828.37 18.3202C828.37 22.4202 832.89 24.5302 835.46 25.2002C836.88 25.5702 840.45 25.9702 840.45 28.5302C840.45 31.0902 837.96 31.6202 836.09 31.6202C833.68 31.6202 832.27 29.9302 832.48 27.3902H827.74C827.58 33.1402 831.48 35.2802 836.05 35.3802C841.32 35.5002 845.35 33.2502 845.35 28.1702C845.35 23.0902 840.78 22.2602 837.21 21.1002C835.83 20.6502 833.27 20.2502 833.27 17.8902C833.27 15.9202 834.97 14.9702 836.72 14.9702C838.96 14.9702 840.13 16.0802 840.29 18.3802H844.78H844.77ZM818.74 11.5502H825.9V34.6502H820.59V19.1102L813.81 34.6502L806.66 19.0902V34.6502H801.71V11.5502H808.79L813.89 23.5102L818.74 11.5502Z" fill="black"/>
<path d="M981.46 31.99L974.7 24.34V32.6H970.35V18.71C970.35 18.25 970.47 17.89 970.72 17.64C970.97 17.39 971.32 17.27 971.79 17.27H972.62C972.99 17.27 973.32 17.33 973.6 17.45C973.89 17.57 974.15 17.76 974.39 18.02L981.13 25.64V17.41H985.51V31.3C985.51 31.76 985.39 32.12 985.14 32.37C984.89 32.62 984.53 32.74 984.07 32.74H983.24C982.87 32.74 982.54 32.68 982.26 32.56C981.97 32.44 981.71 32.25 981.47 31.99" fill="black"/>
<path d="M994.91 33.04C993.88 33.04 992.91 32.83 992.03 32.42C991.14 32 990.38 31.44 989.74 30.73C989.1 30.02 988.6 29.17 988.24 28.19C987.88 27.21 987.7 26.16 987.7 25.03C987.7 23.9 987.88 22.87 988.25 21.88C988.62 20.89 989.12 20.04 989.76 19.32C990.4 18.6 991.16 18.03 992.06 17.6C992.96 17.18 993.92 16.96 994.96 16.96C995.87 16.96 996.71 17.14 997.48 17.49C998.26 17.84 998.93 18.36 999.5 19.04V17.4H1003.69V32.59H999.73V30.73C999.16 31.49 998.46 32.06 997.62 32.45C996.79 32.84 995.88 33.03 994.9 33.03M995.88 29.19C997.03 29.19 997.97 28.78 998.71 27.97C999.45 27.16 999.82 26.16 999.82 24.98C999.82 23.87 999.45 22.91 998.71 22.08C997.97 21.26 997.03 20.85 995.88 20.85C994.73 20.85 993.86 21.26 993.15 22.08C992.44 22.9 992.08 23.89 992.08 25.03C992.08 26.17 992.44 27.18 993.15 27.98C993.86 28.78 994.77 29.19 995.88 29.19Z" fill="black"/>
<path d="M1012.18 32.5999C1010.41 32.5999 1009.01 32.1199 1008.01 31.1599C1007 30.1999 1006.5 28.8799 1006.5 27.1999V13.1699H1010.99V17.4099H1014.95V21.2099H1010.99V26.8899C1010.99 27.4799 1011.17 27.9499 1011.52 28.2899C1011.87 28.6299 1012.38 28.7999 1013.04 28.7999H1014.95V32.5999H1012.18Z" fill="black"/>
<path d="M1024.79 33.0402C1022.42 33.0402 1020.59 32.3802 1019.29 31.0702C1017.99 29.7602 1017.34 27.9902 1017.34 25.7802V17.4102H1021.94V26.0302C1021.94 26.9702 1022.17 27.7402 1022.63 28.3402C1023.09 28.9402 1023.81 29.2402 1024.79 29.2402C1025.77 29.2402 1026.51 28.9402 1026.97 28.3402C1027.42 27.7402 1027.65 26.9702 1027.65 26.0302V17.4102H1032.25V25.7802C1032.25 28.0202 1031.6 29.7902 1030.3 31.0902C1029 32.3902 1027.16 33.0402 1024.8 33.0402" fill="black"/>
<path d="M1040.54 17.4102H1043.31V21.2102H1041.4C1040.74 21.2102 1040.23 21.3802 1039.88 21.7202C1039.53 22.0602 1039.35 22.5302 1039.35 23.1202V32.6002H1034.86V22.8102C1034.86 21.1302 1035.36 19.8102 1036.37 18.8502C1037.38 17.8902 1038.77 17.4102 1040.54 17.4102Z" fill="black"/>
<path d="M1051.46 33.04C1050.42 33.04 1049.46 32.83 1048.58 32.42C1047.69 32 1046.93 31.44 1046.29 30.73C1045.65 30.02 1045.15 29.17 1044.79 28.19C1044.43 27.21 1044.25 26.16 1044.25 25.03C1044.25 23.9 1044.43 22.87 1044.8 21.88C1045.17 20.89 1045.67 20.04 1046.31 19.32C1046.95 18.6 1047.71 18.03 1048.61 17.6C1049.51 17.18 1050.47 16.96 1051.51 16.96C1052.42 16.96 1053.26 17.14 1054.03 17.49C1054.81 17.84 1055.48 18.36 1056.05 19.04V17.4H1060.24V32.59H1056.28V30.73C1055.71 31.49 1055.01 32.06 1054.17 32.45C1053.34 32.84 1052.43 33.03 1051.45 33.03M1052.43 29.19C1053.58 29.19 1054.52 28.78 1055.26 27.97C1056 27.16 1056.37 26.16 1056.37 24.98C1056.37 23.87 1056 22.91 1055.26 22.08C1054.52 21.26 1053.58 20.85 1052.43 20.85C1051.28 20.85 1050.41 21.26 1049.7 22.08C1048.99 22.9 1048.63 23.89 1048.63 25.03C1048.63 26.17 1048.99 27.18 1049.7 27.98C1050.41 28.78 1051.32 29.19 1052.43 29.19Z" fill="black"/>
<path d="M1070.75 32.9301C1069.88 32.9301 1069.11 32.8101 1068.45 32.5801C1067.78 32.3501 1067.23 32.0401 1066.79 31.6701C1066.35 31.2901 1066.01 30.8501 1065.79 30.3501C1065.57 29.8501 1065.46 29.3301 1065.46 28.8001C1065.46 28.0801 1065.65 27.3801 1066.04 26.6901C1066.43 26.0101 1067.16 25.3801 1068.23 24.8101L1068.98 24.3901C1068.41 23.7601 1068 23.1401 1067.76 22.5301C1067.52 21.9201 1067.4 21.3501 1067.4 20.8101C1067.4 19.6301 1067.87 18.6301 1068.81 17.8201C1069.75 17.0101 1070.9 16.6001 1072.25 16.6001C1072.99 16.6001 1073.65 16.7201 1074.22 16.9501C1074.79 17.1801 1075.27 17.4901 1075.66 17.8801C1076.05 18.2701 1076.34 18.7001 1076.55 19.1801C1076.75 19.6601 1076.85 20.1501 1076.85 20.6501C1076.85 21.5201 1076.6 22.3101 1076.1 23.0301C1075.6 23.7501 1074.91 24.3901 1074.02 24.9401L1075.82 26.9101C1076.06 26.6101 1076.29 26.3001 1076.51 25.9701C1076.73 25.6401 1076.91 25.3001 1077.04 24.9401H1080.75C1080.4 25.7901 1079.99 26.5801 1079.53 27.3201C1079.07 28.0601 1078.57 28.7201 1078.03 29.3201L1081.05 32.5901H1076.86L1075.67 31.3401C1074.88 31.8601 1074.06 32.2501 1073.23 32.5201C1072.4 32.7901 1071.57 32.9201 1070.74 32.9201M1069.3 28.5001C1069.3 28.8001 1069.44 29.0801 1069.72 29.3501C1070 29.6201 1070.39 29.7501 1070.91 29.7501C1071.32 29.7501 1071.73 29.6901 1072.16 29.5601C1072.59 29.4301 1073 29.2501 1073.41 29.0101L1071.08 26.6001L1070.44 26.9301C1070.02 27.1701 1069.72 27.4201 1069.55 27.6801C1069.38 27.9401 1069.3 28.2201 1069.3 28.5101M1071.74 22.4801L1071.96 22.7301C1072.37 22.4901 1072.69 22.2201 1072.93 21.9301C1073.17 21.6301 1073.29 21.3101 1073.29 20.9601C1073.29 20.7001 1073.2 20.4601 1073.01 20.2301C1072.83 20.0001 1072.56 19.8801 1072.21 19.8801C1071.9 19.8801 1071.62 19.9901 1071.39 20.2101C1071.16 20.4301 1071.04 20.7101 1071.04 21.0401C1071.04 21.2601 1071.09 21.4901 1071.19 21.7201C1071.29 21.9501 1071.47 22.2101 1071.73 22.4801" fill="black"/>
<path d="M1090.56 33.04C1089.27 33.04 1088.08 32.83 1087.01 32.42C1085.94 32 1085.03 31.44 1084.28 30.72C1083.53 30 1082.95 29.14 1082.53 28.16C1082.11 27.17 1081.91 26.11 1081.91 24.99C1081.91 23.87 1082.12 22.84 1082.53 21.86C1082.95 20.88 1083.53 20.04 1084.28 19.32C1085.03 18.61 1085.94 18.04 1087.01 17.62C1088.08 17.2 1089.27 16.98 1090.59 16.98C1091.2 16.98 1091.81 17.04 1092.42 17.17C1093.03 17.3 1093.54 17.46 1093.94 17.64V21.6C1093.66 21.47 1093.27 21.34 1092.78 21.2C1092.28 21.06 1091.69 20.99 1091.01 20.99C1089.57 20.99 1088.44 21.38 1087.63 22.15C1086.82 22.93 1086.41 23.87 1086.41 24.98C1086.41 26.14 1086.82 27.11 1087.63 27.89C1088.44 28.67 1089.57 29.05 1091.01 29.05C1091.69 29.05 1092.29 28.98 1092.78 28.83C1093.28 28.68 1093.67 28.54 1093.94 28.41V32.37C1093.55 32.56 1093.05 32.71 1092.43 32.84C1091.81 32.97 1091.19 33.03 1090.56 33.03" fill="black"/>
<path d="M1103.76 33.04C1102.58 33.04 1101.48 32.83 1100.47 32.42C1099.46 32 1098.59 31.44 1097.86 30.72C1097.13 30 1096.56 29.15 1096.14 28.17C1095.72 27.19 1095.52 26.13 1095.52 24.98C1095.52 23.83 1095.73 22.83 1096.14 21.85C1096.56 20.87 1097.13 20.02 1097.86 19.3C1098.59 18.58 1099.46 18.01 1100.47 17.6C1101.48 17.18 1102.57 16.98 1103.76 16.98C1104.95 16.98 1106.04 17.19 1107.06 17.6C1108.08 18.02 1108.95 18.58 1109.68 19.3C1110.41 20.02 1110.98 20.87 1111.4 21.85C1111.82 22.83 1112.02 23.87 1112.02 24.98C1112.02 26.09 1111.81 27.19 1111.4 28.17C1110.98 29.15 1110.41 30 1109.68 30.72C1108.95 31.44 1108.08 32.01 1107.06 32.42C1106.04 32.84 1104.94 33.04 1103.76 33.04ZM1103.76 29.19C1104.91 29.19 1105.84 28.79 1106.56 27.98C1107.28 27.18 1107.64 26.17 1107.64 24.97C1107.64 23.77 1107.28 22.85 1106.56 22.05C1105.84 21.25 1104.91 20.84 1103.76 20.84C1102.61 20.84 1101.73 21.24 1101 22.05C1100.27 22.85 1099.9 23.83 1099.9 24.97C1099.9 26.17 1100.26 27.17 1101 27.98C1101.73 28.78 1102.65 29.19 1103.76 29.19Z" fill="black"/>
<path d="M8.41 6.77994C8.41 6.99994 7.92 7.97994 7.28 9.74994C6.62 11.5899 5.97 14.1999 5.97 17.3399C5.97 19.2099 6.44 21.6899 6.82 24.1999L5.69 25.7299C3.89 23.5299 2.76 21.0599 2.76 16.8199C2.76 10.8099 6.39 6.63994 8.27 6.63994L8.41 6.77994ZM58.72 23.6299C58.94 24.2399 59.04 24.7299 59.04 25.2199C59.04 25.7899 58.83 26.3499 58.44 26.3499C58.16 26.3499 57.88 26.0299 57.88 25.5299C57.88 24.9999 58.34 24.1599 58.73 23.6199M7.13 26.0399C7.41 27.9099 7.67 29.7499 7.67 31.1999C7.67 34.5899 6.54 38.5499 4.59 38.5099C3.84 38.5099 3.21 37.7599 3.18 36.4599C3.11 32.2199 5.12 28.6199 7.13 26.0399ZM65.34 18.3399C64.73 19.1899 64.24 20.3899 64.24 21.9399C64.24 24.9099 65.93 27.7399 69.22 27.7399C72.51 27.7399 74.63 25.2299 74.63 21.7299C74.63 20.7099 74.59 20.5699 74.52 20.1499C75.26 19.8299 75.9 19.3399 76.4 18.9399C76.82 18.6199 77.14 18.4499 77.39 18.4499C77.71 18.4499 77.85 18.6999 77.85 19.1599V26.0899C77.85 27.2199 78.21 27.7499 79.09 27.7499C79.9 27.7499 80.47 27.1799 80.78 26.5099C81.95 24.0699 83.64 20.8199 84.38 19.5799C84.55 19.2999 84.7 19.0799 84.8 19.0799C84.95 19.0799 85.02 19.1899 85.02 19.6399V25.1599C85.02 26.7099 85.73 27.7399 87.28 27.7399C88.91 27.7399 89.72 26.1799 91.14 23.7799C91.21 23.6399 91.24 23.5299 91.24 23.4299C91.24 23.1099 90.96 22.9299 90.68 22.9299C90.36 22.9299 90.18 23.2499 89.12 24.4099C88.9 24.6299 88.7 24.9399 88.31 24.9399C88.17 24.9399 88.06 24.7699 88.06 24.5499V18.3699C88.06 16.6999 87.32 16.0399 86.36 16.0399C85.58 16.0399 84.95 16.3599 84.28 17.3499C83.08 19.1199 81.84 21.6299 81.17 22.8999C81.1 23.0499 80.99 23.2599 80.92 23.2599C80.85 23.2599 80.82 23.1499 80.82 22.8999V18.3799C80.82 17.0699 80.47 16.0499 79.09 16.0499C77.64 16.0499 76.9 17.0399 75.84 17.7799C75.17 18.2799 74.57 18.6299 74.11 18.8399C73.4 17.0399 72.1 16.1199 71 16.1599C69.9 16.1899 69.13 16.8699 69.13 17.9999C69.13 19.1299 69.84 19.9699 70.79 20.3299C71.32 20.5399 71.82 20.5799 72.52 20.5799C72.73 20.5799 72.95 20.5799 73.08 20.5399C73.15 20.8899 73.12 21.3899 73.12 21.7799C73.12 23.5099 72.1 25.2399 70.19 25.2399C68.28 25.2399 67.04 23.3299 67.04 21.1399C67.04 19.4799 67.53 18.0999 68.34 17.1499C68.66 16.7899 68.91 16.5799 68.91 16.2499C68.91 16.0799 68.66 16.0399 68.45 16.0399C67.1 16.0399 65.62 16.6499 64.6 17.1699C63.25 17.8699 61.66 19.0499 60.36 20.2099C59.72 18.7899 58.95 17.5599 58.55 16.5999C58.41 16.2099 58.31 15.7599 58.02 15.7599C57.77 15.7599 57.66 16.0099 57.49 16.4999C56.86 18.3699 53.47 23.8599 52.72 24.5999L52.51 24.8099C52.44 24.8099 52.39 24.7699 52.39 24.5599V18.3799C52.39 16.7099 51.72 16.0499 50.81 16.0499C50.03 16.0499 49.36 16.3699 48.72 17.3599C47.55 19.1299 46.14 21.7099 45.46 22.9799C45.36 23.1999 45.25 23.2599 45.21 23.2599C45.18 23.2599 45.15 23.1199 45.15 22.8999V18.3799C45.15 16.7099 44.48 16.0499 43.56 16.0499C42.78 16.0499 42.04 16.3399 41.43 17.3599C39.95 19.8699 37.48 23.7299 37.02 24.3599L36.81 24.5699C36.74 24.5699 36.7 24.4999 36.7 24.3199V18.3799C36.7 16.7099 36.03 16.0499 35.11 16.0499C33.83 16.0499 33.13 17.2199 32.67 17.9599C32.03 18.9899 31.19 20.3599 30.52 21.6399C30.06 22.4899 29.67 23.2599 29.52 23.2599C29.45 23.2599 29.45 22.9399 29.45 22.3399V17.6099C31.68 15.1299 33.06 12.0999 33.06 8.77994C33.06 6.86994 32.21 5.80994 30.91 5.80994C28.47 5.80994 26.6 9.62994 26.6 14.1499V17.8199C25.47 18.5299 24.41 18.8699 23.1 19.1299C22.43 17.1599 21.01 16.1299 19.89 16.1599C18.8 16.1899 18.02 16.8699 18.02 17.9999C18.02 19.8699 19.86 20.6499 21.48 20.6499H21.94C22.01 21.0099 22.01 21.3899 22.01 21.7799C22.01 23.5099 20.98 25.2399 19.08 25.2399C17.18 25.2399 15.94 23.3299 15.94 21.1399C15.94 19.4799 16.43 18.0999 17.24 17.1499C17.56 16.7899 17.81 16.4699 17.81 16.2499C17.81 16.0799 17.56 16.0399 17.34 16.0399C16 16.0399 13.03 17.8499 9.49 21.3799C9.18 18.5499 8.82 15.7899 8.82 13.1099C8.82 10.1099 9.41 7.54994 9.56 6.81994C9.63 6.36994 9.68 6.07994 9.68 5.86994C9.68 5.58994 9.53 5.43994 9.15 5.43994C6.28 5.43994 0 9.99994 0 16.8199C0 21.6499 1.77 23.9899 4.83 26.9899C2.97 29.9899 1.47 33.5599 1.47 36.7399C1.47 39.0399 2.01 40.7799 3.7 40.7799C7.24 40.7799 9.89 33.4299 9.89 27.9799C9.89 26.3599 9.82 24.7299 9.69 23.1099C10.99 21.7199 13.01 19.8499 13.49 19.6799C13.28 20.4199 13.14 21.1999 13.14 21.9399C13.14 24.9099 14.83 27.7399 18.12 27.7399C21.2 27.7399 23.53 25.2299 23.53 21.7299C23.53 21.2799 23.5 20.8799 23.46 20.4599C24.59 20.2499 25.62 19.9599 26.61 19.3699V26.4699C26.61 27.3799 27.24 27.7399 27.84 27.7399C28.65 27.7399 29.08 27.1699 29.68 25.8699C30.18 24.8099 31.52 22.3699 32.33 20.9199C32.97 19.7899 33.32 19.0499 33.61 19.0499C33.68 19.0499 33.75 19.2199 33.75 19.6399V25.6799C33.75 27.3099 34.6 27.7399 35.33 27.7399C36.06 27.7399 36.5 27.3499 36.96 26.7099C38.8 24.0899 40.74 20.9899 41.52 19.6399C41.67 19.3999 41.84 19.2199 41.98 19.2199C42.12 19.2199 42.19 19.2899 42.19 19.7499V26.0799C42.19 27.2099 42.54 27.7399 43.43 27.7399C44.24 27.7399 44.77 27.1699 45.08 26.4999C46.26 24.0599 47.98 20.8399 48.73 19.5699C48.9 19.2899 49.08 19.0399 49.18 19.0399C49.33 19.0399 49.36 19.2099 49.36 19.6799V25.6799C49.36 27.3099 50.21 27.7399 50.95 27.7399C51.93 27.7399 52.57 27.0299 53.21 26.2199C54.37 24.6999 56.07 21.9799 57.09 20.2399C57.45 20.8099 57.83 21.4799 58.15 22.2199C57.3 23.2499 56.45 24.4099 56.45 25.6499C56.45 26.9499 57.37 27.7399 58.32 27.7399C59.94 27.7399 61.43 26.1799 61.43 24.0299C61.43 23.1899 61.18 22.2999 60.87 21.4499C62.31 20.0299 64.05 18.6599 65.33 18.3399M29.46 13.1499C29.46 7.87994 30.49 7.06994 30.81 7.06994C31.38 7.06994 31.45 7.41994 31.45 9.43994C31.45 11.4599 30.57 14.2299 29.47 15.7199V13.1399L29.46 13.1499ZM19.61 18.2299C19.61 17.9099 19.82 17.7399 20.11 17.7399C20.56 17.7399 21.23 18.2299 21.62 19.2199C20.32 19.2199 19.61 18.9399 19.61 18.2399M70.7 18.2299C70.7 17.9099 70.92 17.7399 71.19 17.7399C71.65 17.7399 72.35 18.2299 72.74 19.2199C72.6 19.2199 72.39 19.2699 72.25 19.2699C71.4 19.2699 70.7 18.8599 70.7 18.2399" fill="black"/>
<path d="M99.1799 24.1C98.5899 24.17 98.2199 24.17 97.5899 24.17C96.2099 24.17 95.1899 23.64 95.1899 22.87C95.1899 22.38 95.4299 22.09 96.1399 22.09C97.2699 22.09 98.1799 22.87 99.1799 24.1ZM106.14 24.45C106.78 25.3 107.55 26.11 108.47 26.99C106.59 29.99 105.11 33.56 105.11 36.74C105.11 39.03 105.64 40.77 107.34 40.77C110.87 40.77 113.52 33.43 113.52 27.98C113.52 26.35 113.45 24.73 113.31 23.1C114.62 21.71 116.62 19.85 117.13 19.67C116.91 20.41 116.77 21.19 116.77 21.93C116.77 24.9 118.47 27.73 121.76 27.73C124.83 27.73 127.16 25.22 127.16 21.71C127.16 21.26 127.13 20.87 127.09 20.44C128.23 20.23 129.25 19.94 130.24 19.35V26.45C130.24 27.36 130.87 27.72 131.47 27.72C132.29 27.72 132.72 27.15 133.31 25.85C133.8 24.79 135.15 22.35 135.96 20.89C136.59 19.76 136.94 19.03 137.24 19.03C137.31 19.03 137.37 19.2 137.37 19.62V25.66C137.37 27.29 138.22 27.72 138.96 27.72C139.7 27.72 140.12 27.33 140.59 26.69C142.43 24.07 144.37 20.96 145.14 19.62C145.29 19.38 145.47 19.2 145.6 19.2C145.74 19.2 145.82 19.27 145.82 19.73V26.06C145.82 27.19 146.17 27.72 147.05 27.72C147.86 27.72 148.39 27.15 148.71 26.48C149.88 24.05 151.6 20.83 152.34 19.56C152.52 19.28 152.7 19.03 152.81 19.03C152.95 19.03 152.99 19.2 152.99 19.67V25.67C152.99 27.3 153.83 27.73 154.57 27.73C155.56 27.73 156.2 27.02 156.83 26.21C158 24.69 159.7 21.98 160.72 20.24C161.07 20.81 161.46 21.48 161.78 22.22C160.93 23.25 160.09 24.41 160.09 25.65C160.09 26.95 161 27.74 161.96 27.74C163.59 27.74 165.07 26.18 165.07 24.03C165.07 23.19 164.82 22.3 164.51 21.45C165.95 20.03 167.69 18.66 168.96 18.34C168.36 19.19 167.87 20.39 167.87 21.94C167.87 24.91 169.56 27.74 172.85 27.74C176.14 27.74 178.25 25.23 178.25 21.72C178.25 20.7 178.22 20.56 178.15 20.14C178.89 19.82 179.53 19.33 180.03 18.93C180.45 18.61 180.77 18.44 181.01 18.44C181.33 18.44 181.48 18.69 181.48 19.15V26.08C181.48 27.21 181.83 27.74 182.71 27.74C183.52 27.74 184.09 27.17 184.41 26.5C185.57 24.07 187.27 20.81 188.01 19.58C188.18 19.3 188.33 19.08 188.44 19.08C188.59 19.08 188.66 19.19 188.66 19.64V25.16C188.66 26.71 189.36 27.74 190.92 27.74C192.48 27.74 193.36 26.18 194.78 23.78C194.85 23.64 194.88 23.53 194.88 23.43C194.88 23.11 194.59 22.93 194.32 22.93C194 22.93 193.82 23.25 192.77 24.41C192.56 24.63 192.35 24.94 191.96 24.94C191.81 24.94 191.71 24.77 191.71 24.55V18.37C191.71 16.71 190.95 16.04 190 16.04C189.23 16.04 188.6 16.36 187.92 17.35C186.71 19.12 185.48 21.63 184.81 22.9C184.74 23.05 184.63 23.26 184.55 23.26C184.47 23.26 184.45 23.15 184.45 22.9V18.38C184.45 17.07 184.1 16.05 182.72 16.05C181.27 16.05 180.53 17.04 179.47 17.78C178.79 18.28 178.19 18.63 177.73 18.84C177.03 17.04 175.71 16.13 174.63 16.15C173.53 16.19 172.76 16.86 172.76 18C172.76 19.14 173.47 19.96 174.41 20.33C174.94 20.54 175.44 20.58 176.15 20.58C176.36 20.58 176.56 20.58 176.71 20.54C176.78 20.89 176.74 21.39 176.74 21.78C176.74 23.51 175.71 25.24 173.8 25.24C171.89 25.24 170.66 23.33 170.66 21.14C170.66 19.48 171.15 18.1 171.96 17.15C172.28 16.79 172.53 16.59 172.53 16.26C172.53 16.09 172.28 16.05 172.07 16.05C170.72 16.05 169.24 16.66 168.22 17.18C166.88 17.88 165.28 19.06 163.98 20.22C163.34 18.8 162.57 17.57 162.17 16.61C162.03 16.22 161.93 15.77 161.63 15.77C161.39 15.77 161.28 16.02 161.1 16.51C160.46 18.38 157.08 23.87 156.34 24.6L156.12 24.82C156.05 24.82 156.02 24.78 156.02 24.57V18.39C156.02 16.73 155.35 16.06 154.42 16.06C153.65 16.06 152.98 16.38 152.34 17.37C151.18 19.14 149.76 21.72 149.09 22.99C148.99 23.21 148.89 23.27 148.85 23.27C148.81 23.27 148.77 23.13 148.77 22.91V18.39C148.77 16.73 148.11 16.06 147.19 16.06C146.41 16.06 145.66 16.35 145.07 17.37C143.58 19.88 141.11 23.74 140.65 24.36L140.44 24.58C140.38 24.58 140.34 24.51 140.34 24.33V18.39C140.34 16.73 139.67 16.06 138.75 16.06C137.48 16.06 136.77 17.23 136.31 17.97C135.68 18.99 134.83 20.38 134.16 21.65C133.71 22.5 133.32 23.27 133.18 23.27C133.11 23.27 133.11 22.95 133.11 22.35V17.62C135.34 15.14 136.71 12.11 136.71 8.78998C136.71 6.87998 135.87 5.81998 134.55 5.81998C132.12 5.81998 130.25 9.63998 130.25 14.16V17.84C129.11 18.55 128.06 18.89 126.74 19.15C126.07 17.17 124.66 16.15 123.53 16.18C122.43 16.22 121.65 16.89 121.65 18.03C121.65 19.9 123.49 20.68 125.11 20.68H125.57C125.64 21.03 125.64 21.42 125.64 21.81C125.64 23.54 124.62 25.27 122.71 25.27C120.8 25.27 119.57 23.36 119.57 21.17C119.57 19.51 120.07 18.13 120.87 17.18C121.19 16.82 121.43 16.51 121.43 16.29C121.43 16.12 121.18 16.08 120.97 16.08C119.63 16.08 116.66 17.89 113.12 21.42C112.81 18.59 112.45 15.83 112.45 13.15C112.45 10.15 113.05 7.59998 113.19 6.85998C113.26 6.40998 113.3 6.11998 113.3 5.90998C113.3 5.62998 113.15 5.47998 112.78 5.47998C109.91 5.47998 103.63 10.04 103.63 16.86C103.63 19.65 104.23 21.63 105.29 23.36C104.9 23.29 104.58 23.29 104.3 23.29C103.17 23.29 102.11 23.57 101.45 23.71V23C101.45 21.48 101.09 19.39 100.46 18.69L100.18 18.58C99.8899 18.58 99.5399 18.72 99.1499 18.93C98.7199 19.14 98.2999 19.36 98.2999 19.49C98.2999 19.56 98.2999 19.63 98.4099 19.81C98.6599 20.17 99.3299 20.87 99.5699 22.54C98.3699 21.33 96.9899 20.8 95.1999 20.8C93.0699 20.8 92.4399 21.75 92.4399 22.71C92.4399 24.55 94.8799 25.46 97.9599 25.46C98.5199 25.46 99.1599 25.36 99.7899 25.21C99.7899 25.77 99.8599 26.27 99.8599 26.7C99.8599 27.3 99.9599 27.76 100.35 27.76C100.94 27.76 101.31 26.55 101.37 24.83C102.47 24.54 103.6 24.3 104.56 24.3C105.02 24.3 105.59 24.36 106.15 24.47M112.03 6.77998C112.03 6.99998 111.54 7.97998 110.9 9.74998C110.23 11.59 109.6 14.2 109.6 17.34C109.6 19.21 110.07 21.69 110.45 24.2L109.32 25.72C107.53 23.52 106.38 21.06 106.38 16.81C106.38 10.8 110.03 6.63998 111.9 6.63998L112.03 6.77998ZM162.35 23.63C162.57 24.23 162.67 24.73 162.67 25.22C162.67 25.79 162.46 26.35 162.07 26.35C161.79 26.35 161.5 26.03 161.5 25.54C161.5 25.01 161.97 24.16 162.36 23.63M110.77 26.04C111.04 27.91 111.3 29.75 111.3 31.19C111.3 34.58 110.17 38.54 108.22 38.51C107.48 38.51 106.85 37.76 106.81 36.46C106.74 32.22 108.75 28.62 110.77 26.04ZM133.09 13.14C133.09 7.86998 134.11 7.05998 134.43 7.05998C135 7.05998 135.07 7.40998 135.07 9.42998C135.07 11.45 134.19 14.22 133.09 15.71V13.13V13.14ZM123.23 18.23C123.23 17.91 123.45 17.74 123.73 17.74C124.19 17.74 124.86 18.23 125.25 19.22C123.95 19.22 123.24 18.94 123.24 18.24M174.33 18.23C174.33 17.91 174.54 17.74 174.82 17.74C175.28 17.74 175.98 18.23 176.37 19.22C176.23 19.22 176.02 19.26 175.87 19.26C175.02 19.26 174.32 18.86 174.32 18.23" fill="black"/>
<path d="M349.55 9.39014C349.54 9.61014 349.52 9.82014 349.52 10.0401C349.52 18.5901 349.52 27.1401 349.52 35.6901V36.3601H344.54V35.0001C344.39 35.0801 344.3 35.1101 344.22 35.1601C342.88 36.0101 341.43 36.5501 339.85 36.7301C339.75 36.7401 339.66 36.7901 339.57 36.8201H337.55C337.44 36.7901 337.33 36.7401 337.22 36.7201C331.42 36.0101 327.34 30.5301 328.3 24.7501C329.51 17.4301 337.72 13.6801 344.05 17.5601C344.18 17.6401 344.32 17.7201 344.51 17.8301V9.39014C346.19 9.39014 347.87 9.39014 349.55 9.39014ZM344.55 26.4301C344.55 23.2401 342.03 20.6901 338.85 20.6701C335.64 20.6501 333.06 23.1901 333.04 26.3901C333.02 29.5701 335.6 32.1801 338.78 32.1901C341.97 32.2001 344.55 29.6401 344.55 26.4401V26.4301Z" fill="black"/>
<path d="M306.7 36.8202C306.1 36.6902 305.49 36.5802 304.9 36.4202C300.24 35.1402 297.11 30.7602 297.35 25.8902C297.58 21.0702 301.21 16.9602 305.94 16.1802C308.56 15.7502 311.02 16.2002 313.29 17.6202C313.39 17.6802 313.49 17.7402 313.67 17.8502V9.41016C315.35 9.41016 317.03 9.41016 318.71 9.41016C318.71 9.63016 318.69 9.85016 318.69 10.0602C318.69 18.6102 318.69 27.1602 318.69 35.7102V36.3702H313.66V35.1702C312.56 35.6202 311.49 36.0802 310.39 36.4802C309.86 36.6702 309.28 36.7202 308.73 36.8302H306.71L306.7 36.8202ZM307.94 20.6702C304.76 20.6702 302.22 23.2202 302.2 26.4002C302.19 29.5902 304.76 32.1802 307.95 32.1802C311.14 32.1802 313.72 29.6002 313.72 26.4102C313.72 23.2102 311.15 20.6602 307.94 20.6702Z" fill="black"/>
<path d="M360.95 36.8199C360.48 36.7199 360 36.6299 359.53 36.5199C354.7 35.3999 351.42 31.0299 351.58 25.9399C351.73 21.1599 355.4 16.9699 360.16 16.1699C362.76 15.7399 365.21 16.1799 367.46 17.5699C367.58 17.6499 367.71 17.7099 367.9 17.8199V16.2799H372.88V36.3499H367.93V34.9999C367.77 35.0799 367.69 35.1099 367.61 35.1599C366.26 36.0199 364.79 36.5599 363.19 36.7299C363.11 36.7299 363.04 36.7799 362.96 36.8099H360.94L360.95 36.8199ZM367.96 26.3999C367.94 23.1899 365.39 20.6499 362.18 20.6699C359 20.6799 356.45 23.2299 356.45 26.4099C356.45 29.6099 359.05 32.1999 362.27 32.1799C365.43 32.1599 367.99 29.5699 367.97 26.3999H367.96Z" fill="black"/>
<path d="M273.92 25.4301C274.05 24.8401 274.15 24.2501 274.31 23.6701C276.16 16.9801 283.86 13.9401 289.78 17.5601C289.92 17.6401 290.06 17.7201 290.26 17.8401V16.3001H295.24V36.3701H290.29V35.0001C290.07 35.1201 289.93 35.2001 289.8 35.2801C288.52 36.0601 287.14 36.5601 285.65 36.7301C285.54 36.7401 285.43 36.7901 285.32 36.8201H283.3C283.19 36.7901 283.08 36.7401 282.97 36.7201C278.72 36.2001 275.19 33.0301 274.22 28.8501C274.11 28.3801 274.02 27.9101 273.92 27.4401C273.92 26.7701 273.92 26.1001 273.92 25.4201V25.4301ZM284.56 20.6701C281.36 20.6701 278.79 23.2401 278.8 26.4301C278.8 29.6001 281.37 32.1701 284.53 32.1801C287.72 32.1901 290.3 29.6201 290.32 26.4301C290.33 23.2301 287.77 20.6701 284.56 20.6601V20.6701Z" fill="black"/>
<path d="M383.84 36.8201C382.71 36.6501 381.57 36.5601 380.47 36.2901C378.73 35.8701 377.23 35.0101 376.11 33.5701C375.28 32.5001 374.87 31.2801 374.79 29.9001H379.86C380.21 31.7101 381.17 32.6801 383.03 32.8801C383.95 32.9801 384.89 32.8701 385.82 32.7801C386.13 32.7501 386.45 32.5501 386.72 32.3601C387.8 31.5901 387.73 30.1201 386.52 29.5901C385.69 29.2201 384.76 29.0601 383.87 28.8601C382.28 28.5001 380.67 28.2601 379.11 27.8101C377.23 27.2701 375.82 26.1501 375.38 24.1101C374.74 21.1601 375.98 18.4001 378.73 17.0901C381.94 15.5601 385.25 15.5901 388.46 17.1001C390.42 18.0201 391.57 19.6601 391.97 21.8001C392.01 22.0301 392.02 22.2601 392.04 22.5401H387.09C387.09 22.5401 387.04 22.4701 387.03 22.4301C386.84 20.7801 385.62 19.9701 384.08 19.8801C383.4 19.8401 382.71 19.9001 382.03 19.9901C381.69 20.0301 381.35 20.2001 381.06 20.3901C379.98 21.0801 380.01 22.4901 381.18 23.0001C382.04 23.3801 382.99 23.5801 383.92 23.8001C385.47 24.1701 387.04 24.4301 388.58 24.8401C389.28 25.0201 389.96 25.3801 390.58 25.7601C391.79 26.5001 392.49 27.6201 392.72 29.0201C392.74 29.1301 392.79 29.2401 392.82 29.3501V31.0601C392.78 31.1701 392.74 31.2701 392.72 31.3801C392.45 32.9301 391.68 34.1601 390.41 35.0801C389.5 35.7401 388.48 36.1801 387.39 36.3901C386.46 36.5701 385.5 36.6701 384.56 36.8001H383.85L383.84 36.8201Z" fill="black"/>
<path d="M326.16 9.39014C326.15 10.8301 326.13 12.2701 326.12 13.7101C326.12 14.4001 326.12 14.4001 325.45 14.4001C324.03 14.4001 322.61 14.4001 321.12 14.4001V9.39014H326.16Z" fill="black"/>
<path d="M321.15 16.27H326.07V36.37H321.15V16.27Z" fill="black"/>
<path d="M626.01 38.92V38.14L624.92 37.91V32.15C624.92 30.17 624.26 29.39 622.59 29.39C621.58 29.39 620.88 29.74 619.91 30.75C619.44 29.82 618.78 29.43 617.73 29.43C616.76 29.43 615.94 29.78 615.05 30.64V29.28H614.62L612.29 29.9V30.44L613.38 30.63V37.94L612.29 38.17V38.91H616.06V38.13L615.13 37.9V31.48C615.91 30.74 616.37 30.51 617 30.51C617.86 30.51 618.32 31.13 618.32 32.3V37.94L617.23 38.17V38.91H621.04V38.13L620.03 37.9V31.52C620.89 30.74 621.31 30.51 621.94 30.51C622.76 30.51 623.18 31.13 623.18 32.26V37.94L622.13 38.17V38.91H626.02L626.01 38.92ZM610.45 38.92V38.18L609.36 37.95V29.39H608.97L606.64 30.01V30.55L607.61 30.78V37.94L606.64 38.17V38.91H610.45V38.92ZM608.35 24.64C607.65 24.64 607.14 25.11 607.14 25.81C607.14 26.47 607.65 27.02 608.31 27.02C608.97 27.02 609.52 26.48 609.52 25.81C609.52 25.14 609.01 24.64 608.35 24.64ZM631.3 9.43004H630.87L628.57 10.05V10.59L629.7 10.78V18.06L628.57 18.29V19.03H632.73V18.29L631.37 18.06V12.89C631.37 12.27 631.91 11.57 632.65 11.18L633.7 11.69C634.17 11.42 634.32 11.11 634.32 10.56C634.32 9.94004 633.93 9.55004 633.31 9.55004C632.57 9.55004 632.22 9.86004 631.29 11.46V9.44004L631.3 9.43004ZM621.62 13.28C621.85 11.1 622.36 10.17 623.33 10.17C624.3 10.17 624.69 11.03 624.77 13.28H621.62ZM626.56 14.02C626.52 12.78 626.44 12.27 626.33 11.76C625.9 10.16 624.89 9.35004 623.41 9.35004C621.19 9.35004 619.87 11.3 619.87 14.52C619.87 17.52 621.15 19.23 623.37 19.23C624.85 19.23 625.7 18.65 626.48 17.09L625.82 16.74C625.28 17.63 624.77 17.98 623.99 17.98C622.51 17.98 621.81 16.81 621.62 14.01H626.56V14.02ZM612.78 18.65C616.75 18.88 617.06 18.96 617.06 19.93C617.06 20.9 615.85 21.64 614.18 21.64C612.82 21.64 612 21.06 612 20.16C612 19.58 612.23 19.11 612.78 18.64M614.15 10.05C615.16 10.05 615.63 10.87 615.63 12.62C615.63 14.18 615.16 14.92 614.23 14.92C613.3 14.92 612.79 14.14 612.79 12.43C612.79 10.83 613.22 10.06 614.15 10.06M618.35 10.52V9.59004L616.83 9.63004H616.52C616.33 9.67004 616.21 9.67004 616.13 9.67004C615.94 9.67004 615.7 9.63004 615.24 9.51004C614.7 9.39004 614.46 9.35004 614.11 9.35004C612.36 9.35004 610.96 10.75 610.96 12.58C610.96 13.83 611.43 14.53 612.59 15.23C611.27 16.05 610.76 16.63 610.76 17.33C610.76 17.91 611.11 18.26 611.89 18.54C610.8 19.2 610.37 19.82 610.37 20.6C610.37 21.81 611.65 22.55 613.72 22.55C616.48 22.55 618.27 21.23 618.27 19.2C618.27 17.68 617.45 17.02 615.55 16.94L613.41 16.9C612.71 16.86 612.44 16.74 612.44 16.47C612.44 16.24 612.71 15.93 613.3 15.5C613.69 15.62 613.92 15.66 614.31 15.66C616.14 15.66 617.5 14.38 617.5 12.63C617.5 11.89 617.31 11.31 616.72 10.53H618.35V10.52ZM609.01 19.04V18.26L608 18.03V12.04C608 10.29 607.26 9.43004 605.74 9.43004C604.88 9.43004 604.3 9.70004 603.13 10.68V9.40004H602.66L600.36 10.02V10.68L601.45 10.8V18.08L600.36 18.31V19.05H604.21V18.27L603.16 18.04V11.62C604.05 10.84 604.48 10.65 605.07 10.65C605.85 10.65 606.28 11.27 606.28 12.4V18.12L605.19 18.31V19.05H609L609.01 19.04ZM599.71 33.16C599.94 30.98 600.45 30.05 601.42 30.05C602.39 30.05 602.78 30.91 602.86 33.16H599.71ZM604.65 33.9C604.61 32.65 604.53 32.15 604.42 31.64C603.99 30.04 602.98 29.23 601.46 29.23C599.28 29.23 597.96 31.18 597.96 34.4C597.96 37.4 599.24 39.11 601.46 39.11C602.94 39.11 603.79 38.53 604.57 36.97L603.91 36.62C603.37 37.51 602.86 37.87 602.08 37.87C600.6 37.87 599.9 36.7 599.71 33.9H604.65ZM596.29 38.92V38.18L595.28 37.95V31.88C595.28 30.28 594.5 29.39 593.06 29.39C592.2 29.39 591.5 29.7 590.41 30.6V24.65H589.98L587.65 25.16V25.78L588.7 26.01V37.95L587.57 38.18V38.92H591.38V38.18L590.41 37.95V31.57C591.23 30.83 591.69 30.6 592.32 30.6C593.18 30.6 593.49 31.14 593.49 32.66V37.99L592.52 38.18V38.92H596.29ZM585.86 38.92V38.14L584.85 37.91V24.6H584.46L582.09 25.14V25.72L583.18 25.88V37.94L582.05 38.17V38.91H585.86V38.92ZM575.51 33.16C575.74 30.98 576.25 30.05 577.22 30.05C578.19 30.05 578.58 30.91 578.66 33.16H575.51ZM580.45 33.9C580.41 32.65 580.33 32.15 580.22 31.64C579.79 30.04 578.78 29.23 577.26 29.23C575.08 29.23 573.76 31.18 573.76 34.4C573.76 37.4 575.04 39.11 577.26 39.11C578.74 39.11 579.59 38.53 580.37 36.97L579.71 36.62C579.17 37.51 578.66 37.87 577.88 37.87C576.4 37.87 575.7 36.7 575.51 33.9H580.45ZM598.58 19.04V18.3L597.49 18.07V9.51004H597.1L594.77 10.13V10.67L595.74 10.9V18.06L594.77 18.29V19.03H598.58V19.04ZM596.48 4.76004C595.78 4.76004 595.27 5.23004 595.27 5.93004C595.27 6.59004 595.78 7.14004 596.44 7.14004C597.1 7.14004 597.65 6.60004 597.65 5.93004C597.65 5.26004 597.14 4.76004 596.48 4.76004ZM590.3 9.43004H589.87L587.57 10.05V10.59L588.7 10.78V18.06L587.57 18.29V19.03H591.73V18.29L590.37 18.06V12.89C590.37 12.27 590.91 11.57 591.65 11.18L592.7 11.69C593.17 11.42 593.32 11.11 593.32 10.56C593.32 9.94004 592.93 9.55004 592.31 9.55004C591.57 9.55004 591.22 9.86004 590.29 11.46V9.44004L590.3 9.43004ZM585.9 19.04V18.3L584.89 18.07V12C584.89 10.4 584.11 9.51004 582.67 9.51004C581.81 9.51004 581.11 9.82004 580.02 10.72V4.77004H579.59L577.26 5.28004V5.90004L578.31 6.13004V18.07L577.18 18.3V19.04H580.99V18.3L580.02 18.07V11.69C580.84 10.95 581.3 10.72 581.93 10.72C582.79 10.72 583.1 11.26 583.1 12.78V18.11L582.13 18.3V19.04H585.9ZM566.68 38.53C570.69 38.8 570.96 38.88 570.96 39.81C570.96 40.74 569.75 41.52 568.08 41.52C566.72 41.52 565.9 40.94 565.9 40.04C565.9 39.46 566.13 39.03 566.68 38.52M568.04 29.93C569.05 29.93 569.52 30.75 569.52 32.5C569.52 34.06 569.05 34.8 568.12 34.8C567.19 34.8 566.68 34.02 566.68 32.31C566.68 30.71 567.11 29.94 568.04 29.94M572.24 30.4V29.47L570.72 29.51H570.41C570.22 29.55 570.1 29.55 570.02 29.55C569.83 29.55 569.59 29.51 569.13 29.39C568.59 29.27 568.35 29.23 568 29.23C566.25 29.23 564.85 30.63 564.85 32.46C564.85 33.7 565.32 34.44 566.48 35.11C565.2 35.93 564.65 36.55 564.65 37.25C564.65 37.79 565 38.14 565.78 38.42C564.69 39.12 564.26 39.7 564.26 40.52C564.26 41.69 565.54 42.43 567.61 42.43C570.37 42.43 572.16 41.11 572.16 39.08C572.16 37.56 571.34 36.9 569.44 36.86L567.3 36.78C566.6 36.74 566.33 36.62 566.33 36.35C566.33 36.12 566.6 35.81 567.19 35.38C567.58 35.5 567.81 35.54 568.2 35.54C570.03 35.54 571.39 34.26 571.39 32.51C571.39 31.77 571.2 31.19 570.61 30.41H572.24V30.4ZM562.91 38.92V38.14L561.9 37.91V31.92C561.9 30.17 561.16 29.31 559.64 29.31C558.78 29.31 558.2 29.58 557.03 30.55V29.27H556.56L554.26 29.89V30.55L555.35 30.67V37.95L554.26 38.18V38.92H558.11V38.14L557.06 37.91V31.49C557.95 30.71 558.38 30.52 558.97 30.52C559.75 30.52 560.18 31.14 560.18 32.27V37.99L559.09 38.18V38.92H562.9H562.91ZM552.56 38.92V38.14L551.39 37.91V26.51L552.6 26.28V25.5H548.32V26.32L549.53 26.48V37.96L548.32 38.19V38.93H552.56V38.92ZM570.73 13.28C570.96 11.1 571.47 10.17 572.44 10.17C573.41 10.17 573.8 11.03 573.88 13.28H570.73ZM575.67 14.02C575.63 12.78 575.55 12.27 575.44 11.76C575.01 10.16 574 9.35004 572.48 9.35004C570.3 9.35004 568.98 11.3 568.98 14.52C568.98 17.52 570.26 19.23 572.48 19.23C573.96 19.23 574.81 18.65 575.59 17.09L574.93 16.74C574.39 17.63 573.88 17.98 573.1 17.98C571.62 17.98 570.92 16.81 570.73 14.01H575.67V14.02ZM563.37 10.05C564.54 10.05 565.2 11.53 565.2 14.17C565.2 16.81 564.5 18.41 563.29 18.41C562.08 18.41 561.5 16.97 561.5 14.4C561.5 11.68 562.2 10.04 563.37 10.04M563.45 9.31004C561.19 9.31004 559.6 11.41 559.6 14.45C559.6 17.25 561.12 19.24 563.26 19.24C565.52 19.24 567.11 17.14 567.11 14.1C567.11 11.06 565.67 9.31004 563.45 9.31004ZM551.31 12.43H552.24C554.57 12.43 555.62 13.32 555.62 15.35C555.62 17.38 554.65 18.31 552.74 18.31C552.04 18.31 551.73 18.23 551.3 17.92V12.43H551.31ZM551.31 11.65V6.59004C551.78 6.40004 552.24 6.32004 552.71 6.32004C554.07 6.32004 554.89 7.25004 554.89 8.85004C554.89 10.76 554.07 11.65 552.36 11.65H551.31ZM550.5 5.66004H548.2V6.44004L549.52 6.67004V18.07L548.2 18.3V19.04H550.38L553.38 19.08C554.9 19.08 555.75 18.85 556.45 18.26C557.23 17.6 557.69 16.59 557.69 15.46C557.69 13.48 556.6 12.35 554.34 11.92C556.17 11.14 556.91 10.21 556.91 8.69004C556.91 6.74004 555.51 5.54004 553.29 5.54004C553.1 5.54004 552.63 5.58004 552.05 5.62004L550.49 5.66004H550.5ZM528.36 12.27L522.76 7.87004L517.16 12.31L518.13 13.4L522.76 9.78004L527.39 13.4L528.36 12.27ZM531 26.98H529.29V39.55C529.87 39.36 530.34 39.12 531 38.81V26.98ZM527.27 15.07H525.6V40.59C526.07 40.51 526.42 40.4 527.27 40.12V15.07ZM523.57 15.07H521.9V40.71C522.21 40.75 522.41 40.75 522.76 40.75C523.11 40.75 523.27 40.75 523.58 40.71V15.07H523.57ZM519.88 15.07H518.21V40.16C518.56 40.28 519.22 40.47 519.88 40.59V15.07ZM516.18 26.98H514.51V38.81C514.86 39 515.05 39.08 515.33 39.2C515.68 39.36 515.84 39.43 516.19 39.55V26.98H516.18ZM512.52 26.98H510.81V34.53C507.19 30.13 505.79 26.75 505.79 22.39C505.79 12.86 513.38 5.15004 522.75 5.15004C532.12 5.15004 539.67 12.81 539.67 22.31C539.67 26.86 538.15 30.52 534.65 34.53V26.98H532.98V37.64C535.35 35.85 536.4 34.92 537.49 33.48C539.9 30.41 541.22 26.44 541.22 22.35C541.22 12.08 532.97 3.79004 522.74 3.79004C512.51 3.79004 504.26 12.08 504.26 22.46C504.26 26.04 505.27 29.39 507.26 32.38C508.82 34.68 510.61 36.5 512.51 37.63V26.97L512.52 26.98Z" fill="black"/>
</svg>
