<svg width="846" height="198" viewBox="0 0 846 198" fill="none" xmlns="http://www.w3.org/2000/svg">
<mask id="path-1-outside-1_379_2" maskUnits="userSpaceOnUse" x="5" y="1" width="743" height="69" fill="black">
<rect fill="white" x="5" y="1" width="743" height="69"/>
<path d="M40.9727 42.668H23.2266V51.6484H43.4648V66H7.45703V4.38281H42.9062V18.7344H23.2266V29.7344H40.9727V42.668ZM52.1445 4.38281H67.9141V51.6484H85.832V66H52.1445V4.38281ZM141.262 34.5039H141.434L150.93 4.38281H167.129V66H151.832V40.1328H151.445L143.195 66H139.414L131.207 40.1328H130.863V66H115.566V4.38281H131.766L141.262 34.5039ZM211.301 42.668H193.555V51.6484H213.793V66H177.785V4.38281H213.234V18.7344H193.555V29.7344H211.301V42.668ZM228.746 41.9805V4.38281H244.516V44.9883C244.516 52.9805 243.141 58.6953 240.391 62.1328C237.612 65.599 233.358 67.332 227.629 67.332C223.704 67.332 220.539 66.6875 218.133 65.3984L218.992 51.3047C220.911 52.3646 222.645 52.8945 224.191 52.8945C226.111 52.8945 227.357 52.0352 227.93 50.3164C228.474 48.6836 228.746 45.9049 228.746 41.9805ZM258.953 10.7422C262.935 5.64323 268.435 3.09375 275.453 3.09375C282.471 3.09375 287.971 5.64323 291.953 10.7422C295.964 15.8698 297.969 24.0195 297.969 35.1914C297.969 46.4206 295.964 54.5846 291.953 59.6836C287.971 64.7826 282.471 67.332 275.453 67.332C268.435 67.332 262.935 64.7826 258.953 59.6836C254.943 54.5846 252.938 46.4206 252.938 35.1914C252.938 24.0195 254.943 15.8698 258.953 10.7422ZM270.469 49.1562C271.643 51.7057 273.305 52.9805 275.453 52.9805C277.602 52.9805 279.263 51.7057 280.438 49.1562C281.583 46.6641 282.156 42.0091 282.156 35.1914C282.156 28.4883 281.583 23.862 280.438 21.3125C279.292 18.7344 277.63 17.4453 275.453 17.4453C273.276 17.4453 271.615 18.7344 270.469 21.3125C269.323 23.862 268.75 28.4883 268.75 35.1914C268.75 42.0091 269.323 46.6641 270.469 49.1562ZM338.617 38.7148V39.1445C341.596 40.0898 343.516 42.9115 344.375 47.6094L347.684 66H331.141L328.262 48.9414C327.717 46.1055 326.042 44.6589 323.234 44.6016H322.461V66H306.691V4.38281H328.262C333.59 4.38281 337.93 6.08724 341.281 9.49609C344.633 12.8763 346.309 17.4883 346.309 23.332C346.309 30.2643 343.745 35.3919 338.617 38.7148ZM322.461 32.2266H324.738C326.486 32.2266 327.918 31.5964 329.035 30.3359C330.152 29.0755 330.711 27.4714 330.711 25.5234C330.711 23.5182 330.152 21.8854 329.035 20.625C327.918 19.3646 326.486 18.7344 324.738 18.7344H322.461V32.2266ZM408.27 33V33.4297C411.335 34.6615 413.727 36.6094 415.445 39.2734C417.193 41.9375 418.066 45.1029 418.066 48.7695C418.066 53.7826 416.376 57.8932 412.996 61.1016C409.587 64.3672 405.319 66 400.191 66H378.535V4.38281H398.516C403.815 4.38281 408.112 5.8724 411.406 8.85156C414.672 11.8594 416.305 15.7982 416.305 20.668C416.305 26.2826 413.626 30.3932 408.27 33ZM394.305 52.3789H397.441C398.845 52.3789 399.977 51.8346 400.836 50.7461C401.695 49.6576 402.125 48.2539 402.125 46.5352C402.125 44.7878 401.695 43.3698 400.836 42.2812C399.977 41.1927 398.845 40.6484 397.441 40.6484H394.305V52.3789ZM396.668 18.1328H394.305V29.8203H396.668C397.871 29.8203 398.859 29.276 399.633 28.1875C400.406 27.0703 400.793 25.6523 400.793 23.9336C400.793 22.2435 400.406 20.8542 399.633 19.7656C398.888 18.6771 397.9 18.1328 396.668 18.1328ZM460.434 42.668H442.688V51.6484H462.926V66H426.918V4.38281H462.367V18.7344H442.688V29.7344H460.434V42.668ZM494.379 28.9609H494.68V4.38281H510.406V66H500.223L487.633 41.5508H487.461V66H471.605V4.38281H481.832L494.379 28.9609ZM554.879 42.668H537.133V51.6484H557.371V66H521.363V4.38281H556.812V18.7344H537.133V29.7344H554.879V42.668ZM581.82 66H566.051V4.38281H600.211V18.7344H581.82V32.8281H597.633V45.7617H581.82V66ZM622.727 66H606.957V4.38281H622.727V66ZM657.703 52.9805C660.281 52.9805 663.217 51.7201 666.512 49.1992L669.52 63.6367C665.939 66.1003 661.126 67.332 655.082 67.332C647.749 67.332 641.977 64.7682 637.766 59.6406C633.526 54.5417 631.406 46.3919 631.406 35.1914C631.406 23.9622 633.526 15.8268 637.766 10.7852C641.977 5.71484 647.749 3.17969 655.082 3.17969C661.671 3.17969 666.182 3.96745 668.617 5.54297L664.836 19.5508C663.003 18.2044 660.625 17.5312 657.703 17.5312C654.438 17.5312 651.874 18.8203 650.012 21.3984C648.15 24.0052 647.219 28.6029 647.219 35.1914C647.219 41.8372 648.15 46.4635 650.012 49.0703C651.845 51.6771 654.409 52.9805 657.703 52.9805ZM691.648 66H675.879V4.38281H691.648V66ZM706.344 10.7422C710.326 5.64323 715.826 3.09375 722.844 3.09375C729.862 3.09375 735.362 5.64323 739.344 10.7422C743.354 15.8698 745.359 24.0195 745.359 35.1914C745.359 46.4206 743.354 54.5846 739.344 59.6836C735.362 64.7826 729.862 67.332 722.844 67.332C715.826 67.332 710.326 64.7826 706.344 59.6836C702.333 54.5846 700.328 46.4206 700.328 35.1914C700.328 24.0195 702.333 15.8698 706.344 10.7422ZM717.859 49.1562C719.034 51.7057 720.695 52.9805 722.844 52.9805C724.992 52.9805 726.654 51.7057 727.828 49.1562C728.974 46.6641 729.547 42.0091 729.547 35.1914C729.547 28.4883 728.974 23.862 727.828 21.3125C726.682 18.7344 725.021 17.4453 722.844 17.4453C720.667 17.4453 719.005 18.7344 717.859 21.3125C716.714 23.862 716.141 28.4883 716.141 35.1914C716.141 42.0091 716.714 46.6641 717.859 49.1562Z"/>
</mask>
<path d="M40.9727 42.668V44.668H42.9727V42.668H40.9727ZM23.2266 42.668V40.668H21.2266V42.668H23.2266ZM23.2266 51.6484H21.2266V53.6484H23.2266V51.6484ZM43.4648 51.6484H45.4648V49.6484H43.4648V51.6484ZM43.4648 66V68H45.4648V66H43.4648ZM7.45703 66H5.45703V68H7.45703V66ZM7.45703 4.38281V2.38281H5.45703V4.38281H7.45703ZM42.9062 4.38281H44.9062V2.38281H42.9062V4.38281ZM42.9062 18.7344V20.7344H44.9062V18.7344H42.9062ZM23.2266 18.7344V16.7344H21.2266V18.7344H23.2266ZM23.2266 29.7344H21.2266V31.7344H23.2266V29.7344ZM40.9727 29.7344H42.9727V27.7344H40.9727V29.7344ZM40.9727 42.668V40.668H23.2266V42.668V44.668H40.9727V42.668ZM23.2266 42.668H21.2266V51.6484H23.2266H25.2266V42.668H23.2266ZM23.2266 51.6484V53.6484H43.4648V51.6484V49.6484H23.2266V51.6484ZM43.4648 51.6484H41.4648V66H43.4648H45.4648V51.6484H43.4648ZM43.4648 66V64H7.45703V66V68H43.4648V66ZM7.45703 66H9.45703V4.38281H7.45703H5.45703V66H7.45703ZM7.45703 4.38281V6.38281H42.9062V4.38281V2.38281H7.45703V4.38281ZM42.9062 4.38281H40.9062V18.7344H42.9062H44.9062V4.38281H42.9062ZM42.9062 18.7344V16.7344H23.2266V18.7344V20.7344H42.9062V18.7344ZM23.2266 18.7344H21.2266V29.7344H23.2266H25.2266V18.7344H23.2266ZM23.2266 29.7344V31.7344H40.9727V29.7344V27.7344H23.2266V29.7344ZM40.9727 29.7344H38.9727V42.668H40.9727H42.9727V29.7344H40.9727ZM52.1445 4.38281V2.38281H50.1445V4.38281H52.1445ZM67.9141 4.38281H69.9141V2.38281H67.9141V4.38281ZM67.9141 51.6484H65.9141V53.6484H67.9141V51.6484ZM85.832 51.6484H87.832V49.6484H85.832V51.6484ZM85.832 66V68H87.832V66H85.832ZM52.1445 66H50.1445V68H52.1445V66ZM52.1445 4.38281V6.38281H67.9141V4.38281V2.38281H52.1445V4.38281ZM67.9141 4.38281H65.9141V51.6484H67.9141H69.9141V4.38281H67.9141ZM67.9141 51.6484V53.6484H85.832V51.6484V49.6484H67.9141V51.6484ZM85.832 51.6484H83.832V66H85.832H87.832V51.6484H85.832ZM85.832 66V64H52.1445V66V68H85.832V66ZM52.1445 66H54.1445V4.38281H52.1445H50.1445V66H52.1445ZM141.262 34.5039L139.354 35.1053L139.795 36.5039H141.262V34.5039ZM141.434 34.5039V36.5039H142.9L143.341 35.1053L141.434 34.5039ZM150.93 4.38281V2.38281H149.463L149.022 3.78146L150.93 4.38281ZM167.129 4.38281H169.129V2.38281H167.129V4.38281ZM167.129 66V68H169.129V66H167.129ZM151.832 66H149.832V68H151.832V66ZM151.832 40.1328H153.832V38.1328H151.832V40.1328ZM151.445 40.1328V38.1328H149.984L149.54 39.5251L151.445 40.1328ZM143.195 66V68H144.657L145.101 66.6077L143.195 66ZM139.414 66L137.508 66.6048L137.95 68H139.414V66ZM131.207 40.1328L133.113 39.528L132.671 38.1328H131.207V40.1328ZM130.863 40.1328V38.1328H128.863V40.1328H130.863ZM130.863 66V68H132.863V66H130.863ZM115.566 66H113.566V68H115.566V66ZM115.566 4.38281V2.38281H113.566V4.38281H115.566ZM131.766 4.38281L133.673 3.78146L133.232 2.38281H131.766V4.38281ZM141.262 34.5039V36.5039H141.434V34.5039V32.5039H141.262V34.5039ZM141.434 34.5039L143.341 35.1053L152.837 4.98416L150.93 4.38281L149.022 3.78146L139.526 33.9026L141.434 34.5039ZM150.93 4.38281V6.38281H167.129V4.38281V2.38281H150.93V4.38281ZM167.129 4.38281H165.129V66H167.129H169.129V4.38281H167.129ZM167.129 66V64H151.832V66V68H167.129V66ZM151.832 66H153.832V40.1328H151.832H149.832V66H151.832ZM151.832 40.1328V38.1328H151.445V40.1328V42.1328H151.832V40.1328ZM151.445 40.1328L149.54 39.5251L141.29 65.3923L143.195 66L145.101 66.6077L153.351 40.7405L151.445 40.1328ZM143.195 66V64H139.414V66V68H143.195V66ZM139.414 66L141.32 65.3952L133.113 39.528L131.207 40.1328L129.301 40.7377L137.508 66.6048L139.414 66ZM131.207 40.1328V38.1328H130.863V40.1328V42.1328H131.207V40.1328ZM130.863 40.1328H128.863V66H130.863H132.863V40.1328H130.863ZM130.863 66V64H115.566V66V68H130.863V66ZM115.566 66H117.566V4.38281H115.566H113.566V66H115.566ZM115.566 4.38281V6.38281H131.766V4.38281V2.38281H115.566V4.38281ZM131.766 4.38281L129.858 4.98416L139.354 35.1053L141.262 34.5039L143.169 33.9026L133.673 3.78146L131.766 4.38281ZM211.301 42.668V44.668H213.301V42.668H211.301ZM193.555 42.668V40.668H191.555V42.668H193.555ZM193.555 51.6484H191.555V53.6484H193.555V51.6484ZM213.793 51.6484H215.793V49.6484H213.793V51.6484ZM213.793 66V68H215.793V66H213.793ZM177.785 66H175.785V68H177.785V66ZM177.785 4.38281V2.38281H175.785V4.38281H177.785ZM213.234 4.38281H215.234V2.38281H213.234V4.38281ZM213.234 18.7344V20.7344H215.234V18.7344H213.234ZM193.555 18.7344V16.7344H191.555V18.7344H193.555ZM193.555 29.7344H191.555V31.7344H193.555V29.7344ZM211.301 29.7344H213.301V27.7344H211.301V29.7344ZM211.301 42.668V40.668H193.555V42.668V44.668H211.301V42.668ZM193.555 42.668H191.555V51.6484H193.555H195.555V42.668H193.555ZM193.555 51.6484V53.6484H213.793V51.6484V49.6484H193.555V51.6484ZM213.793 51.6484H211.793V66H213.793H215.793V51.6484H213.793ZM213.793 66V64H177.785V66V68H213.793V66ZM177.785 66H179.785V4.38281H177.785H175.785V66H177.785ZM177.785 4.38281V6.38281H213.234V4.38281V2.38281H177.785V4.38281ZM213.234 4.38281H211.234V18.7344H213.234H215.234V4.38281H213.234ZM213.234 18.7344V16.7344H193.555V18.7344V20.7344H213.234V18.7344ZM193.555 18.7344H191.555V29.7344H193.555H195.555V18.7344H193.555ZM193.555 29.7344V31.7344H211.301V29.7344V27.7344H193.555V29.7344ZM211.301 29.7344H209.301V42.668H211.301H213.301V29.7344H211.301ZM228.746 4.38281V2.38281H226.746V4.38281H228.746ZM244.516 4.38281H246.516V2.38281H244.516V4.38281ZM240.391 62.1328L241.951 63.3838L241.952 63.3822L240.391 62.1328ZM218.133 65.3984L216.137 65.2767L216.059 66.5561L217.188 67.1614L218.133 65.3984ZM218.992 51.3047L219.959 49.5539L217.189 48.0239L216.996 51.183L218.992 51.3047ZM227.93 50.3164L229.827 50.9489L227.93 50.3164ZM228.746 41.9805H230.746V4.38281H228.746H226.746V41.9805H228.746ZM228.746 4.38281V6.38281H244.516V4.38281V2.38281H228.746V4.38281ZM244.516 4.38281H242.516V44.9883H244.516H246.516V4.38281H244.516ZM244.516 44.9883H242.516C242.516 52.8533 241.143 57.9914 238.829 60.8834L240.391 62.1328L241.952 63.3822C245.139 59.3992 246.516 53.1077 246.516 44.9883H244.516ZM240.391 62.1328L238.83 60.8819C236.536 63.7435 232.942 65.332 227.629 65.332V67.332V69.332C233.774 69.332 238.688 67.4545 241.951 63.3838L240.391 62.1328ZM227.629 67.332V65.332C223.899 65.332 221.094 64.7157 219.077 63.6355L218.133 65.3984L217.188 67.1614C219.984 68.6593 223.51 69.332 227.629 69.332V67.332ZM218.133 65.3984L220.129 65.5202L220.988 51.4264L218.992 51.3047L216.996 51.183L216.137 65.2767L218.133 65.3984ZM218.992 51.3047L218.025 53.0555C220.124 54.2145 222.194 54.8945 224.191 54.8945V52.8945V50.8945C223.095 50.8945 221.699 50.5146 219.959 49.5539L218.992 51.3047ZM224.191 52.8945V54.8945C225.448 54.8945 226.664 54.6112 227.701 53.8964C228.747 53.1747 229.431 52.1365 229.827 50.9489L227.93 50.3164L226.032 49.684C225.855 50.2151 225.63 50.4659 225.43 50.6036C225.22 50.7481 224.854 50.8945 224.191 50.8945V52.8945ZM227.93 50.3164L229.827 50.9489C230.483 48.9817 230.746 45.9159 230.746 41.9805H228.746H226.746C226.746 45.894 226.465 48.3855 226.032 49.684L227.93 50.3164ZM258.953 10.7422L260.529 11.9743L260.529 11.9731L258.953 10.7422ZM291.953 10.7422L290.377 11.9731L290.378 11.9743L291.953 10.7422ZM291.953 59.6836L290.381 58.4472L290.377 58.4526L291.953 59.6836ZM258.953 59.6836L260.529 58.4526L260.525 58.4472L258.953 59.6836ZM270.469 49.1562L268.652 49.9917L268.652 49.9931L270.469 49.1562ZM280.438 49.1562L282.254 49.9931L282.255 49.9917L280.438 49.1562ZM280.438 21.3125L278.61 22.1248L278.613 22.1324L280.438 21.3125ZM270.469 21.3125L272.293 22.1324L272.296 22.1248L270.469 21.3125ZM258.953 10.7422L260.529 11.9731C264.097 7.405 268.991 5.09375 275.453 5.09375V3.09375V1.09375C267.879 1.09375 261.773 3.88146 257.377 9.51124L258.953 10.7422ZM275.453 3.09375V5.09375C281.916 5.09375 286.81 7.405 290.377 11.9731L291.953 10.7422L293.529 9.51124C289.133 3.88146 283.027 1.09375 275.453 1.09375V3.09375ZM291.953 10.7422L290.378 11.9743C293.976 16.5755 295.969 24.1773 295.969 35.1914H297.969H299.969C299.969 23.8618 297.951 15.164 293.529 9.51005L291.953 10.7422ZM297.969 35.1914H295.969C295.969 46.2672 293.975 53.878 290.381 58.4472L291.953 59.6836L293.525 60.92C297.952 55.2913 299.969 46.5739 299.969 35.1914H297.969ZM291.953 59.6836L290.377 58.4526C286.81 63.0208 281.916 65.332 275.453 65.332V67.332V69.332C283.027 69.332 289.133 66.5443 293.529 60.9145L291.953 59.6836ZM275.453 67.332V65.332C268.991 65.332 264.097 63.0208 260.529 58.4526L258.953 59.6836L257.377 60.9145C261.773 66.5443 267.879 69.332 275.453 69.332V67.332ZM258.953 59.6836L260.525 58.4472C256.931 53.878 254.938 46.2672 254.938 35.1914H252.938H250.938C250.938 46.5739 252.954 55.2913 257.381 60.92L258.953 59.6836ZM252.938 35.1914H254.938C254.938 24.1773 256.93 16.5755 260.529 11.9743L258.953 10.7422L257.378 9.51005C252.956 15.164 250.938 23.8618 250.938 35.1914H252.938ZM270.469 49.1562L268.652 49.9931C270.034 52.9915 272.273 54.9805 275.453 54.9805V52.9805V50.9805C274.336 50.9805 273.253 50.4199 272.285 48.3194L270.469 49.1562ZM275.453 52.9805V54.9805C278.633 54.9805 280.873 52.9915 282.254 49.9931L280.438 49.1562L278.621 48.3194C277.653 50.4199 276.57 50.9805 275.453 50.9805V52.9805ZM280.438 49.1562L282.255 49.9917C282.954 48.4717 283.415 46.4489 283.712 44.0402C284.011 41.6044 284.156 38.6488 284.156 35.1914H282.156H280.156C280.156 38.5517 280.015 41.3324 279.742 43.5516C279.465 45.7978 279.067 47.3486 278.62 48.3208L280.438 49.1562ZM282.156 35.1914H284.156C284.156 28.4945 283.602 23.4736 282.262 20.4926L280.438 21.3125L278.613 22.1324C279.565 24.2504 280.156 28.4821 280.156 35.1914H282.156ZM280.438 21.3125L282.265 20.5002C281.602 19.0083 280.723 17.7361 279.558 16.8319C278.363 15.9051 276.969 15.4453 275.453 15.4453V17.4453V19.4453C276.115 19.4453 276.639 19.63 277.106 19.9923C277.602 20.3771 278.127 21.0386 278.61 22.1248L280.438 21.3125ZM275.453 17.4453V15.4453C273.938 15.4453 272.543 15.9051 271.348 16.8319C270.183 17.7361 269.304 19.0083 268.641 20.5002L270.469 21.3125L272.296 22.1248C272.779 21.0386 273.304 20.3771 273.8 19.9923C274.267 19.63 274.792 19.4453 275.453 19.4453V17.4453ZM270.469 21.3125L268.645 20.4926C267.305 23.4736 266.75 28.4945 266.75 35.1914H268.75H270.75C270.75 28.4821 271.341 24.2504 272.293 22.1324L270.469 21.3125ZM268.75 35.1914H266.75C266.75 38.6488 266.895 41.6044 267.195 44.0402C267.491 46.4489 267.953 48.4717 268.652 49.9917L270.469 49.1562L272.286 48.3208C271.839 47.3486 271.441 45.7978 271.165 43.5516C270.892 41.3324 270.75 38.5517 270.75 35.1914H268.75ZM338.617 38.7148L337.53 37.0365L336.617 37.6277V38.7148H338.617ZM338.617 39.1445H336.617V40.6082L338.012 41.0509L338.617 39.1445ZM344.375 47.6094L346.343 47.2552L346.342 47.2495L344.375 47.6094ZM347.684 66V68H350.076L349.652 65.6459L347.684 66ZM331.141 66L329.169 66.3328L329.45 68H331.141V66ZM328.262 48.9414L330.234 48.6086L330.23 48.5865L330.226 48.5644L328.262 48.9414ZM323.234 44.6016L323.275 42.602L323.255 42.6016H323.234V44.6016ZM322.461 44.6016V42.6016H320.461V44.6016H322.461ZM322.461 66V68H324.461V66H322.461ZM306.691 66H304.691V68H306.691V66ZM306.691 4.38281V2.38281H304.691V4.38281H306.691ZM341.281 9.49609L339.855 10.8983L339.861 10.9043L341.281 9.49609ZM322.461 32.2266H320.461V34.2266H322.461V32.2266ZM322.461 18.7344V16.7344H320.461V18.7344H322.461ZM338.617 38.7148H336.617V39.1445H338.617H340.617V38.7148H338.617ZM338.617 39.1445L338.012 41.0509C339.955 41.6673 341.604 43.5782 342.408 47.9693L344.375 47.6094L346.342 47.2495C345.427 42.2448 343.238 38.5123 339.222 37.2382L338.617 39.1445ZM344.375 47.6094L342.407 47.9635L345.715 66.3541L347.684 66L349.652 65.6459L346.343 47.2552L344.375 47.6094ZM347.684 66V64H331.141V66V68H347.684V66ZM331.141 66L333.113 65.6672L330.234 48.6086L328.262 48.9414L326.29 49.2742L329.169 66.3328L331.141 66ZM328.262 48.9414L330.226 48.5644C329.895 46.8399 329.174 45.3121 327.904 44.2156C326.627 43.1136 325.017 42.6375 323.275 42.602L323.234 44.6016L323.194 46.6011C324.259 46.6229 324.89 46.8987 325.29 47.2434C325.695 47.5935 326.084 48.207 326.298 49.3184L328.262 48.9414ZM323.234 44.6016V42.6016H322.461V44.6016V46.6016H323.234V44.6016ZM322.461 44.6016H320.461V66H322.461H324.461V44.6016H322.461ZM322.461 66V64H306.691V66V68H322.461V66ZM306.691 66H308.691V4.38281H306.691H304.691V66H306.691ZM306.691 4.38281V6.38281H328.262V4.38281V2.38281H306.691V4.38281ZM328.262 4.38281V6.38281C333.121 6.38281 336.924 7.91739 339.855 10.8983L341.281 9.49609L342.707 8.09391C338.935 4.25709 334.059 2.38281 328.262 2.38281V4.38281ZM341.281 9.49609L339.861 10.9043C342.76 13.8282 344.309 17.8883 344.309 23.332H346.309H348.309C348.309 17.0882 346.505 11.9244 342.701 8.08791L341.281 9.49609ZM346.309 23.332H344.309C344.309 29.6936 342.004 34.137 337.53 37.0365L338.617 38.7148L339.705 40.3932C345.486 36.6469 348.309 30.835 348.309 23.332H346.309ZM322.461 32.2266V34.2266H324.738V32.2266V30.2266H322.461V32.2266ZM324.738 32.2266V34.2266C327.034 34.2266 329.019 33.3692 330.532 31.6626L329.035 30.3359L327.538 29.0093C326.817 29.8235 325.938 30.2266 324.738 30.2266V32.2266ZM329.035 30.3359L330.532 31.6626C332.023 29.9797 332.711 27.8788 332.711 25.5234H330.711H328.711C328.711 27.0639 328.281 28.1714 327.538 29.0093L329.035 30.3359ZM330.711 25.5234H332.711C332.711 23.1275 332.033 20.992 330.532 19.2984L329.035 20.625L327.538 21.9516C328.272 22.7789 328.711 23.9089 328.711 25.5234H330.711ZM329.035 20.625L330.532 19.2984C329.019 17.5918 327.034 16.7344 324.738 16.7344V18.7344V20.7344C325.938 20.7344 326.817 21.1374 327.538 21.9516L329.035 20.625ZM324.738 18.7344V16.7344H322.461V18.7344V20.7344H324.738V18.7344ZM322.461 18.7344H320.461V32.2266H322.461H324.461V18.7344H322.461ZM408.27 33L407.394 31.2016L406.27 31.749V33H408.27ZM408.27 33.4297H406.27V34.7814L407.524 35.2854L408.27 33.4297ZM415.445 39.2734L413.765 40.3577L413.769 40.364L413.773 40.3704L415.445 39.2734ZM412.996 61.1016L411.619 59.6509L411.613 59.6573L412.996 61.1016ZM378.535 66H376.535V68H378.535V66ZM378.535 4.38281V2.38281H376.535V4.38281H378.535ZM411.406 8.85156L412.761 7.38047L412.754 7.3743L412.748 7.36819L411.406 8.85156ZM394.305 52.3789H392.305V54.3789H394.305V52.3789ZM400.836 50.7461L399.266 49.5068L400.836 50.7461ZM394.305 40.6484V38.6484H392.305V40.6484H394.305ZM394.305 18.1328V16.1328H392.305V18.1328H394.305ZM394.305 29.8203H392.305V31.8203H394.305V29.8203ZM399.633 28.1875L401.263 29.3459L401.27 29.336L401.277 29.3259L399.633 28.1875ZM399.633 19.7656L397.982 20.895L397.992 20.9096L398.002 20.924L399.633 19.7656ZM408.27 33H406.27V33.4297H408.27H410.27V33H408.27ZM408.27 33.4297L407.524 35.2854C410.222 36.3698 412.28 38.0565 413.765 40.3577L415.445 39.2734L417.126 38.1892C415.173 35.1623 412.447 32.9531 409.015 31.5739L408.27 33.4297ZM415.445 39.2734L413.773 40.3704C415.276 42.6615 416.066 45.4323 416.066 48.7695H418.066H420.066C420.066 44.7734 419.11 41.2135 417.118 38.1765L415.445 39.2734ZM418.066 48.7695H416.066C416.066 53.2803 414.569 56.851 411.619 59.651L412.996 61.1016L414.373 62.5522C418.183 58.9355 420.066 54.2848 420.066 48.7695H418.066ZM412.996 61.1016L411.613 59.6573C408.61 62.534 404.852 64 400.191 64V66V68C405.786 68 410.565 66.2004 414.38 62.5458L412.996 61.1016ZM400.191 66V64H378.535V66V68H400.191V66ZM378.535 66H380.535V4.38281H378.535H376.535V66H378.535ZM378.535 4.38281V6.38281H398.516V4.38281V2.38281H378.535V4.38281ZM398.516 4.38281V6.38281C403.421 6.38281 407.207 7.7504 410.065 10.3349L411.406 8.85156L412.748 7.36819C409.017 3.9944 404.21 2.38281 398.516 2.38281V4.38281ZM411.406 8.85156L410.051 10.3227C412.863 12.9128 414.305 16.2968 414.305 20.668H416.305H418.305C418.305 15.2996 416.48 10.806 412.761 7.38047L411.406 8.85156ZM416.305 20.668H414.305C414.305 23.1451 413.718 25.1846 412.62 26.8701C411.517 28.5626 409.817 30.0229 407.394 31.2016L408.27 33L409.145 34.7984C412.079 33.3704 414.396 31.4719 415.972 29.0537C417.552 26.6285 418.305 23.8054 418.305 20.668H416.305ZM394.305 52.3789V54.3789H397.441V52.3789V50.3789H394.305V52.3789ZM397.441 52.3789V54.3789C399.448 54.3789 401.162 53.5611 402.406 51.9854L400.836 50.7461L399.266 49.5068C398.791 50.1082 398.242 50.3789 397.441 50.3789V52.3789ZM400.836 50.7461L402.406 51.9854C403.605 50.4661 404.125 48.5934 404.125 46.5352H402.125H400.125C400.125 47.9144 399.785 48.849 399.266 49.5068L400.836 50.7461ZM402.125 46.5352H404.125C404.125 44.4571 403.61 42.5668 402.406 41.042L400.836 42.2812L399.266 43.5205C399.781 44.1728 400.125 45.1184 400.125 46.5352H402.125ZM400.836 42.2812L402.406 41.042C401.162 39.4662 399.448 38.6484 397.441 38.6484V40.6484V42.6484C398.242 42.6484 398.791 42.9192 399.266 43.5205L400.836 42.2812ZM397.441 40.6484V38.6484H394.305V40.6484V42.6484H397.441V40.6484ZM394.305 40.6484H392.305V52.3789H394.305H396.305V40.6484H394.305ZM396.668 18.1328V16.1328H394.305V18.1328V20.1328H396.668V18.1328ZM394.305 18.1328H392.305V29.8203H394.305H396.305V18.1328H394.305ZM394.305 29.8203V31.8203H396.668V29.8203V27.8203H394.305V29.8203ZM396.668 29.8203V31.8203C398.597 31.8203 400.163 30.895 401.263 29.3459L399.633 28.1875L398.002 27.0291C397.556 27.6571 397.145 27.8203 396.668 27.8203V29.8203ZM399.633 28.1875L401.277 29.3259C402.337 27.7953 402.793 25.9512 402.793 23.9336H400.793H398.793C398.793 25.3535 398.476 26.3453 397.988 27.0491L399.633 28.1875ZM400.793 23.9336H402.793C402.793 21.9391 402.334 20.1145 401.263 18.6072L399.633 19.7656L398.002 20.924C398.478 21.5938 398.793 22.5478 398.793 23.9336H400.793ZM399.633 19.7656L401.283 18.6363C400.197 17.0485 398.613 16.1328 396.668 16.1328V18.1328V20.1328C397.186 20.1328 397.579 20.3057 397.982 20.895L399.633 19.7656ZM460.434 42.668V44.668H462.434V42.668H460.434ZM442.688 42.668V40.668H440.688V42.668H442.688ZM442.688 51.6484H440.688V53.6484H442.688V51.6484ZM462.926 51.6484H464.926V49.6484H462.926V51.6484ZM462.926 66V68H464.926V66H462.926ZM426.918 66H424.918V68H426.918V66ZM426.918 4.38281V2.38281H424.918V4.38281H426.918ZM462.367 4.38281H464.367V2.38281H462.367V4.38281ZM462.367 18.7344V20.7344H464.367V18.7344H462.367ZM442.688 18.7344V16.7344H440.688V18.7344H442.688ZM442.688 29.7344H440.688V31.7344H442.688V29.7344ZM460.434 29.7344H462.434V27.7344H460.434V29.7344ZM460.434 42.668V40.668H442.688V42.668V44.668H460.434V42.668ZM442.688 42.668H440.688V51.6484H442.688H444.688V42.668H442.688ZM442.688 51.6484V53.6484H462.926V51.6484V49.6484H442.688V51.6484ZM462.926 51.6484H460.926V66H462.926H464.926V51.6484H462.926ZM462.926 66V64H426.918V66V68H462.926V66ZM426.918 66H428.918V4.38281H426.918H424.918V66H426.918ZM426.918 4.38281V6.38281H462.367V4.38281V2.38281H426.918V4.38281ZM462.367 4.38281H460.367V18.7344H462.367H464.367V4.38281H462.367ZM462.367 18.7344V16.7344H442.688V18.7344V20.7344H462.367V18.7344ZM442.688 18.7344H440.688V29.7344H442.688H444.688V18.7344H442.688ZM442.688 29.7344V31.7344H460.434V29.7344V27.7344H442.688V29.7344ZM460.434 29.7344H458.434V42.668H460.434H462.434V29.7344H460.434ZM494.379 28.9609L492.598 29.8703L493.154 30.9609H494.379V28.9609ZM494.68 28.9609V30.9609H496.68V28.9609H494.68ZM494.68 4.38281V2.38281H492.68V4.38281H494.68ZM510.406 4.38281H512.406V2.38281H510.406V4.38281ZM510.406 66V68H512.406V66H510.406ZM500.223 66L498.445 66.9156L499.003 68H500.223V66ZM487.633 41.5508L489.411 40.6352L488.853 39.5508H487.633V41.5508ZM487.461 41.5508V39.5508H485.461V41.5508H487.461ZM487.461 66V68H489.461V66H487.461ZM471.605 66H469.605V68H471.605V66ZM471.605 4.38281V2.38281H469.605V4.38281H471.605ZM481.832 4.38281L483.613 3.47347L483.057 2.38281H481.832V4.38281ZM494.379 28.9609V30.9609H494.68V28.9609V26.9609H494.379V28.9609ZM494.68 28.9609H496.68V4.38281H494.68H492.68V28.9609H494.68ZM494.68 4.38281V6.38281H510.406V4.38281V2.38281H494.68V4.38281ZM510.406 4.38281H508.406V66H510.406H512.406V4.38281H510.406ZM510.406 66V64H500.223V66V68H510.406V66ZM500.223 66L502.001 65.0844L489.411 40.6352L487.633 41.5508L485.855 42.4664L498.445 66.9156L500.223 66ZM487.633 41.5508V39.5508H487.461V41.5508V43.5508H487.633V41.5508ZM487.461 41.5508H485.461V66H487.461H489.461V41.5508H487.461ZM487.461 66V64H471.605V66V68H487.461V66ZM471.605 66H473.605V4.38281H471.605H469.605V66H471.605ZM471.605 4.38281V6.38281H481.832V4.38281V2.38281H471.605V4.38281ZM481.832 4.38281L480.051 5.29216L492.598 29.8703L494.379 28.9609L496.16 28.0516L483.613 3.47347L481.832 4.38281ZM554.879 42.668V44.668H556.879V42.668H554.879ZM537.133 42.668V40.668H535.133V42.668H537.133ZM537.133 51.6484H535.133V53.6484H537.133V51.6484ZM557.371 51.6484H559.371V49.6484H557.371V51.6484ZM557.371 66V68H559.371V66H557.371ZM521.363 66H519.363V68H521.363V66ZM521.363 4.38281V2.38281H519.363V4.38281H521.363ZM556.812 4.38281H558.812V2.38281H556.812V4.38281ZM556.812 18.7344V20.7344H558.812V18.7344H556.812ZM537.133 18.7344V16.7344H535.133V18.7344H537.133ZM537.133 29.7344H535.133V31.7344H537.133V29.7344ZM554.879 29.7344H556.879V27.7344H554.879V29.7344ZM554.879 42.668V40.668H537.133V42.668V44.668H554.879V42.668ZM537.133 42.668H535.133V51.6484H537.133H539.133V42.668H537.133ZM537.133 51.6484V53.6484H557.371V51.6484V49.6484H537.133V51.6484ZM557.371 51.6484H555.371V66H557.371H559.371V51.6484H557.371ZM557.371 66V64H521.363V66V68H557.371V66ZM521.363 66H523.363V4.38281H521.363H519.363V66H521.363ZM521.363 4.38281V6.38281H556.812V4.38281V2.38281H521.363V4.38281ZM556.812 4.38281H554.812V18.7344H556.812H558.812V4.38281H556.812ZM556.812 18.7344V16.7344H537.133V18.7344V20.7344H556.812V18.7344ZM537.133 18.7344H535.133V29.7344H537.133H539.133V18.7344H537.133ZM537.133 29.7344V31.7344H554.879V29.7344V27.7344H537.133V29.7344ZM554.879 29.7344H552.879V42.668H554.879H556.879V29.7344H554.879ZM581.82 66V68H583.82V66H581.82ZM566.051 66H564.051V68H566.051V66ZM566.051 4.38281V2.38281H564.051V4.38281H566.051ZM600.211 4.38281H602.211V2.38281H600.211V4.38281ZM600.211 18.7344V20.7344H602.211V18.7344H600.211ZM581.82 18.7344V16.7344H579.82V18.7344H581.82ZM581.82 32.8281H579.82V34.8281H581.82V32.8281ZM597.633 32.8281H599.633V30.8281H597.633V32.8281ZM597.633 45.7617V47.7617H599.633V45.7617H597.633ZM581.82 45.7617V43.7617H579.82V45.7617H581.82ZM581.82 66V64H566.051V66V68H581.82V66ZM566.051 66H568.051V4.38281H566.051H564.051V66H566.051ZM566.051 4.38281V6.38281H600.211V4.38281V2.38281H566.051V4.38281ZM600.211 4.38281H598.211V18.7344H600.211H602.211V4.38281H600.211ZM600.211 18.7344V16.7344H581.82V18.7344V20.7344H600.211V18.7344ZM581.82 18.7344H579.82V32.8281H581.82H583.82V18.7344H581.82ZM581.82 32.8281V34.8281H597.633V32.8281V30.8281H581.82V32.8281ZM597.633 32.8281H595.633V45.7617H597.633H599.633V32.8281H597.633ZM597.633 45.7617V43.7617H581.82V45.7617V47.7617H597.633V45.7617ZM581.82 45.7617H579.82V66H581.82H583.82V45.7617H581.82ZM622.727 66V68H624.727V66H622.727ZM606.957 66H604.957V68H606.957V66ZM606.957 4.38281V2.38281H604.957V4.38281H606.957ZM622.727 4.38281H624.727V2.38281H622.727V4.38281ZM622.727 66V64H606.957V66V68H622.727V66ZM606.957 66H608.957V4.38281H606.957H604.957V66H606.957ZM606.957 4.38281V6.38281H622.727V4.38281V2.38281H606.957V4.38281ZM622.727 4.38281H620.727V66H622.727H624.727V4.38281H622.727ZM666.512 49.1992L668.47 48.7913L667.821 45.6788L665.296 47.6109L666.512 49.1992ZM669.52 63.6367L670.653 65.2844L671.749 64.5307L671.477 63.2288L669.52 63.6367ZM637.766 59.6406L639.311 58.3713L639.303 58.362L637.766 59.6406ZM637.766 10.7852L639.296 12.0724L639.304 12.063L637.766 10.7852ZM668.617 5.54297L670.548 6.06419L670.928 4.65614L669.704 3.86383L668.617 5.54297ZM664.836 19.5508L663.652 21.1628L666.006 22.8913L666.767 20.072L664.836 19.5508ZM650.012 21.3984L648.39 20.2274L648.384 20.236L650.012 21.3984ZM650.012 49.0703L651.648 47.9198L651.643 47.9138L651.639 47.9078L650.012 49.0703ZM657.703 52.9805V54.9805C660.917 54.9805 664.281 53.4248 667.727 50.7875L666.512 49.1992L665.296 47.6109C662.154 50.0153 659.646 50.9805 657.703 50.9805V52.9805ZM666.512 49.1992L664.554 49.6071L667.562 64.0446L669.52 63.6367L671.477 63.2288L668.47 48.7913L666.512 49.1992ZM669.52 63.6367L668.386 61.989C665.246 64.1494 660.875 65.332 655.082 65.332V67.332V69.332C661.378 69.332 666.632 68.0511 670.653 65.2844L669.52 63.6367ZM655.082 67.332V65.332C648.276 65.332 643.099 62.9838 639.311 58.3713L637.766 59.6406L636.22 60.9099C640.854 66.5526 647.222 69.332 655.082 69.332V67.332ZM637.766 59.6406L639.303 58.362C635.508 53.7975 633.406 46.2197 633.406 35.1914H631.406H629.406C629.406 46.5641 631.544 55.2858 636.228 60.9193L637.766 59.6406ZM631.406 35.1914H633.406C633.406 24.1299 635.51 16.5749 639.296 12.0724L637.766 10.7852L636.235 9.49796C631.542 15.0788 629.406 23.7946 629.406 35.1914H631.406ZM637.766 10.7852L639.304 12.063C643.089 7.50535 648.268 5.17969 655.082 5.17969V3.17969V1.17969C647.23 1.17969 640.864 3.92434 636.227 9.50735L637.766 10.7852ZM655.082 3.17969V5.17969C658.306 5.17969 660.958 5.37318 663.063 5.7407C665.191 6.11216 666.631 6.64013 667.531 7.22211L668.617 5.54297L669.704 3.86383C668.168 2.87028 666.135 2.21662 663.751 1.80031C661.344 1.38007 658.446 1.17969 655.082 1.17969V3.17969ZM668.617 5.54297L666.686 5.02175L662.905 19.0296L664.836 19.5508L666.767 20.072L670.548 6.06419L668.617 5.54297ZM664.836 19.5508L666.02 17.9388C663.757 16.2768 660.929 15.5312 657.703 15.5312V17.5312V19.5312C660.321 19.5312 662.249 20.132 663.652 21.1628L664.836 19.5508ZM657.703 17.5312V15.5312C653.816 15.5312 650.64 17.1124 648.39 20.2275L650.012 21.3984L651.633 22.5694C653.107 20.5283 655.059 19.5312 657.703 19.5312V17.5312ZM650.012 21.3984L648.384 20.236C646.132 23.3896 645.219 28.5475 645.219 35.1914H647.219H649.219C649.219 28.6582 650.168 24.6208 651.639 22.5609L650.012 21.3984ZM647.219 35.1914H645.219C645.219 41.8881 646.13 47.0774 648.384 50.2328L650.012 49.0703L651.639 47.9078C650.169 45.8497 649.219 41.7864 649.219 35.1914H647.219ZM650.012 49.0703L648.376 50.2209C650.598 53.3811 653.784 54.9805 657.703 54.9805V52.9805V50.9805C655.034 50.9805 653.092 49.973 651.648 47.9198L650.012 49.0703ZM691.648 66V68H693.648V66H691.648ZM675.879 66H673.879V68H675.879V66ZM675.879 4.38281V2.38281H673.879V4.38281H675.879ZM691.648 4.38281H693.648V2.38281H691.648V4.38281ZM691.648 66V64H675.879V66V68H691.648V66ZM675.879 66H677.879V4.38281H675.879H673.879V66H675.879ZM675.879 4.38281V6.38281H691.648V4.38281V2.38281H675.879V4.38281ZM691.648 4.38281H689.648V66H691.648H693.648V4.38281H691.648ZM706.344 10.7422L707.919 11.9743L707.92 11.9731L706.344 10.7422ZM739.344 10.7422L737.767 11.9731L737.768 11.9743L739.344 10.7422ZM739.344 59.6836L737.772 58.4472L737.767 58.4526L739.344 59.6836ZM706.344 59.6836L707.92 58.4526L707.916 58.4472L706.344 59.6836ZM717.859 49.1562L716.042 49.9917L716.043 49.9931L717.859 49.1562ZM727.828 49.1562L729.645 49.9931L729.645 49.9917L727.828 49.1562ZM727.828 21.3125L726 22.1248L726.004 22.1324L727.828 21.3125ZM717.859 21.3125L719.684 22.1324L719.687 22.1248L717.859 21.3125ZM706.344 10.7422L707.92 11.9731C711.487 7.405 716.381 5.09375 722.844 5.09375V3.09375V1.09375C715.27 1.09375 709.164 3.88146 704.767 9.51124L706.344 10.7422ZM722.844 3.09375V5.09375C729.306 5.09375 734.2 7.405 737.767 11.9731L739.344 10.7422L740.92 9.51124C736.524 3.88146 730.418 1.09375 722.844 1.09375V3.09375ZM739.344 10.7422L737.768 11.9743C741.367 16.5755 743.359 24.1773 743.359 35.1914H745.359H747.359C747.359 23.8618 745.341 15.164 740.919 9.51005L739.344 10.7422ZM745.359 35.1914H743.359C743.359 46.2672 741.365 53.878 737.772 58.4472L739.344 59.6836L740.916 60.92C745.343 55.2913 747.359 46.5739 747.359 35.1914H745.359ZM739.344 59.6836L737.767 58.4526C734.2 63.0208 729.306 65.332 722.844 65.332V67.332V69.332C730.418 69.332 736.524 66.5443 740.92 60.9145L739.344 59.6836ZM722.844 67.332V65.332C716.381 65.332 711.487 63.0208 707.92 58.4526L706.344 59.6836L704.767 60.9145C709.164 66.5443 715.27 69.332 722.844 69.332V67.332ZM706.344 59.6836L707.916 58.4472C704.322 53.878 702.328 46.2672 702.328 35.1914H700.328H698.328C698.328 46.5739 700.345 55.2913 704.772 60.92L706.344 59.6836ZM700.328 35.1914H702.328C702.328 24.1773 704.32 16.5755 707.919 11.9743L706.344 10.7422L704.768 9.51005C700.346 15.164 698.328 23.8618 698.328 35.1914H700.328ZM717.859 49.1562L716.043 49.9931C717.424 52.9915 719.664 54.9805 722.844 54.9805V52.9805V50.9805C721.727 50.9805 720.644 50.4199 719.676 48.3194L717.859 49.1562ZM722.844 52.9805V54.9805C726.023 54.9805 728.263 52.9915 729.645 49.9931L727.828 49.1562L726.012 48.3194C725.044 50.4199 723.961 50.9805 722.844 50.9805V52.9805ZM727.828 49.1562L729.645 49.9917C730.344 48.4717 730.806 46.4489 731.102 44.0402C731.402 41.6044 731.547 38.6488 731.547 35.1914H729.547H727.547C727.547 38.5517 727.405 41.3324 727.132 43.5516C726.856 45.7978 726.458 47.3486 726.011 48.3208L727.828 49.1562ZM729.547 35.1914H731.547C731.547 28.4945 730.992 23.4736 729.652 20.4926L727.828 21.3125L726.004 22.1324C726.956 24.2504 727.547 28.4821 727.547 35.1914H729.547ZM727.828 21.3125L729.656 20.5002C728.993 19.0083 728.114 17.7361 726.949 16.8319C725.754 15.9051 724.359 15.4453 722.844 15.4453V17.4453V19.4453C723.505 19.4453 724.03 19.63 724.497 19.9923C724.993 20.3771 725.518 21.0386 726 22.1248L727.828 21.3125ZM722.844 17.4453V15.4453C721.328 15.4453 719.933 15.9051 718.739 16.8319C717.573 17.7361 716.695 19.0083 716.032 20.5002L717.859 21.3125L719.687 22.1248C720.17 21.0386 720.695 20.3771 721.191 19.9923C721.658 19.63 722.182 19.4453 722.844 19.4453V17.4453ZM717.859 21.3125L716.035 20.4926C714.695 23.4736 714.141 28.4945 714.141 35.1914H716.141H718.141C718.141 28.4821 718.732 24.2504 719.684 22.1324L717.859 21.3125ZM716.141 35.1914H714.141C714.141 38.6488 714.286 41.6044 714.585 44.0402C714.882 46.4489 715.343 48.4717 716.042 49.9917L717.859 49.1562L719.677 48.3208C719.23 47.3486 718.832 45.7978 718.555 43.5516C718.282 41.3324 718.141 38.5517 718.141 35.1914H716.141Z" fill="black" mask="url(#path-1-outside-1_379_2)"/>
<path d="M478 180.778L737 185L511.927 177H697.281" stroke="#FFFF7A" stroke-width="15" stroke-linecap="round" stroke-linejoin="round"/>
<path d="M38.9727 134.668H21.2266V143.648H41.4648V158H5.45703V96.3828H40.9062V110.734H21.2266V121.734H38.9727V134.668ZM72.4023 121.648C77.7018 124.857 81.3112 127.922 83.2305 130.844C85.1211 133.766 86.0664 137.189 86.0664 141.113C86.0664 146.642 84.2188 151.053 80.5234 154.348C76.7995 157.671 71.7435 159.332 65.3555 159.332C57.8503 159.332 51.6914 157.57 46.8789 154.047L49.9727 140.555C54.7565 143.964 59.2682 145.668 63.5078 145.668C68.0339 145.668 70.2969 144.15 70.2969 141.113C70.2969 139.91 69.7526 138.678 68.6641 137.418C67.6042 136.215 65.4557 134.654 62.2188 132.734C57.1198 129.812 53.4961 126.79 51.3477 123.668C49.1419 120.517 48.0391 116.822 48.0391 112.582C48.0391 107.311 49.901 103.072 53.625 99.8633C57.349 96.6836 62.2904 95.0938 68.4492 95.0938C74.6081 95.0938 79.9219 96.2109 84.3906 98.4453L82.6289 112.152C81.3112 111.322 79.4922 110.505 77.1719 109.703C74.8229 108.93 72.6745 108.543 70.7266 108.543C68.4922 108.543 66.8164 108.915 65.6992 109.66C64.582 110.405 64.0378 111.522 64.0664 113.012C64.0664 114.358 64.7253 115.69 66.043 117.008C67.3607 118.326 69.4805 119.872 72.4023 121.648ZM150.691 134.668H132.945V143.648H153.184V158H117.176V96.3828H152.625V110.734H132.945V121.734H150.691V134.668ZM161.863 96.3828H177.633V143.648H195.551V158H161.863V96.3828ZM268.383 127.191C268.383 144.264 263.513 154.562 253.773 158.086V158.516C257.268 161.237 261.178 162.884 265.504 163.457L261.637 176.82C258.743 176.419 255.564 175.216 252.098 173.211C248.574 171.148 245.681 168.742 243.418 165.992C241.155 163.385 239.451 160.779 238.305 158.172C228.336 154.82 223.352 144.493 223.352 127.191C223.352 116.02 225.357 107.87 229.367 102.742C233.349 97.6432 238.849 95.0938 245.867 95.0938C252.885 95.0938 258.385 97.6432 262.367 102.742C266.378 107.87 268.383 116.02 268.383 127.191ZM240.883 141.156C242.057 143.706 243.719 144.98 245.867 144.98C248.016 144.98 249.677 143.706 250.852 141.156C251.997 138.664 252.57 134.009 252.57 127.191C252.57 120.488 251.997 115.862 250.852 113.312C249.706 110.734 248.044 109.445 245.867 109.445C243.69 109.445 242.029 110.734 240.883 113.312C239.737 115.862 239.164 120.488 239.164 127.191C239.164 134.009 239.737 138.664 240.883 141.156ZM299.793 140.555V96.3828H315.562V139.781C315.562 145.682 313.758 150.423 310.148 154.004C306.568 157.556 301.956 159.332 296.312 159.332C290.641 159.332 286.029 157.556 282.477 154.004C278.896 150.423 277.105 145.682 277.105 139.781V96.3828H292.875V140.555C292.875 141.844 293.19 142.904 293.82 143.734C294.479 144.565 295.31 144.98 296.312 144.98C297.315 144.98 298.146 144.565 298.805 143.734C299.464 142.904 299.793 141.844 299.793 140.555ZM359.949 134.668H342.203V143.648H362.441V158H326.434V96.3828H361.883V110.734H342.203V121.734H359.949V134.668ZM416.152 121.648C421.452 124.857 425.061 127.922 426.98 130.844C428.871 133.766 429.816 137.189 429.816 141.113C429.816 146.642 427.969 151.053 424.273 154.348C420.549 157.671 415.493 159.332 409.105 159.332C401.6 159.332 395.441 157.57 390.629 154.047L393.723 140.555C398.507 143.964 403.018 145.668 407.258 145.668C411.784 145.668 414.047 144.15 414.047 141.113C414.047 139.91 413.503 138.678 412.414 137.418C411.354 136.215 409.206 134.654 405.969 132.734C400.87 129.812 397.246 126.79 395.098 123.668C392.892 120.517 391.789 116.822 391.789 112.582C391.789 107.311 393.651 103.072 397.375 99.8633C401.099 96.6836 406.04 95.0938 412.199 95.0938C418.358 95.0938 423.672 96.2109 428.141 98.4453L426.379 112.152C425.061 111.322 423.242 110.505 420.922 109.703C418.573 108.93 416.424 108.543 414.477 108.543C412.242 108.543 410.566 108.915 409.449 109.66C408.332 110.405 407.788 111.522 407.816 113.012C407.816 114.358 408.475 115.69 409.793 117.008C411.111 118.326 413.23 119.872 416.152 121.648ZM471.668 134.668H453.922V143.648H474.16V158H438.152V96.3828H473.602V110.734H453.922V121.734H471.668V134.668ZM539.129 134.668H521.383V143.648H541.621V158H505.613V96.3828H541.062V110.734H521.383V121.734H539.129V134.668ZM550.301 96.3828H566.07V143.648H583.988V158H550.301V96.3828ZM606.977 158H591.207V96.3828H606.977V158ZM642.469 134.84H638.258V122.164H657.551V152.801C652.853 157.155 646.78 159.332 639.332 159.332C631.999 159.332 626.227 156.768 622.016 151.641C617.776 146.542 615.656 138.392 615.656 127.191C615.656 116.02 617.905 107.884 622.402 102.785C626.871 97.6576 632.801 95.0938 640.191 95.0938C643.027 95.0938 645.763 95.3659 648.398 95.9102C651.034 96.4544 652.939 97.1133 654.113 97.8867L650.332 111.465C649.501 110.863 648.341 110.376 646.852 110.004C645.362 109.632 644.03 109.445 642.855 109.445C635.322 109.445 631.526 115.361 631.469 127.191C631.469 133.98 632.328 138.635 634.047 141.156C635.737 143.706 638.201 144.98 641.438 144.98C641.495 144.98 641.667 144.966 641.953 144.938C642.24 144.909 642.411 144.895 642.469 144.895V134.84ZM700.09 134.668H682.344V143.648H702.582V158H666.574V96.3828H702.023V110.734H682.344V121.734H700.09V134.668ZM723.852 156.711C722.104 158.458 720.056 159.332 717.707 159.332C715.329 159.332 713.296 158.444 711.605 156.668C709.858 154.921 708.984 152.872 708.984 150.523C708.984 148.174 709.858 146.141 711.605 144.422C713.353 142.732 715.387 141.887 717.707 141.887C720.085 141.887 722.147 142.732 723.895 144.422C725.585 146.169 726.43 148.203 726.43 150.523C726.43 152.93 725.57 154.992 723.852 156.711Z" fill="black"/>
</svg>
