<svg width="414" height="110" viewBox="0 0 414 110" fill="none" xmlns="http://www.w3.org/2000/svg">
<path d="M12.543 3.58984V31.5195H23.1309V40H3.22461V3.58984H12.543ZM27.6758 7.34766C30.0456 4.33464 33.2956 2.82812 37.4258 2.82812C41.556 2.82812 44.806 4.33464 47.1758 7.34766C49.5456 10.3607 50.7305 15.1764 50.7305 21.7949C50.7305 28.4473 49.5456 33.2799 47.1758 36.293C44.806 39.2891 41.556 40.7871 37.4258 40.7871C33.2956 40.7871 30.0456 39.2891 27.6758 36.293C25.306 33.2799 24.1211 28.4473 24.1211 21.7949C24.1211 15.1764 25.306 10.3607 27.6758 7.34766ZM34.4805 30.0469C35.1576 31.5534 36.1393 32.3066 37.4258 32.3066C38.7122 32.3066 39.694 31.5534 40.3711 30.0469C41.0482 28.5404 41.3867 25.7897 41.3867 21.7949C41.3867 17.8509 41.0482 15.1172 40.3711 13.5938C39.694 12.0703 38.7122 11.3086 37.4258 11.3086C36.1393 11.3086 35.1576 12.0703 34.4805 13.5938C33.8034 15.1172 33.4648 17.8509 33.4648 21.7949C33.4648 25.7897 33.8034 28.5404 34.4805 30.0469ZM69.0371 18.5195C72.1855 20.4323 74.3184 22.252 75.4355 23.9785C76.5527 25.6882 77.1113 27.7025 77.1113 30.0215C77.1113 33.2884 76.0195 35.9036 73.8359 37.8672C71.6523 39.8138 68.6647 40.7871 64.873 40.7871C60.4382 40.7871 56.7988 39.7461 53.9551 37.6641L55.7832 29.6914C58.5931 31.7057 61.2591 32.7129 63.7812 32.7129C66.4557 32.7129 67.793 31.8158 67.793 30.0215C67.793 29.2936 67.4714 28.5658 66.8281 27.8379C66.1849 27.11 64.9154 26.1875 63.0195 25.0703C60.0404 23.3776 57.8991 21.6003 56.5957 19.7383C55.2923 17.8594 54.6406 15.6673 54.6406 13.1621C54.6406 10.0475 55.7409 7.55078 57.9414 5.67188C60.1419 3.77604 63.0618 2.82812 66.7012 2.82812C70.3405 2.82812 73.4805 3.48828 76.1211 4.80859L75.0801 12.9082C74.3184 12.4173 73.2435 11.9434 71.8555 11.4863C70.4674 11.0124 69.1979 10.7754 68.0469 10.7754C65.4062 10.7754 64.0944 11.6556 64.1113 13.416C64.1113 14.2454 64.5176 15.0579 65.3301 15.8535C66.1426 16.6322 67.3783 17.5208 69.0371 18.5195ZM109.129 18.1133V3.58984H118.422V40H112.404L104.965 25.5527H104.863V40H95.4941V3.58984H101.537L108.951 18.1133H109.129ZM129.213 3.58984H140.918L148.814 40H139.445L138.582 34.541H131.6L130.711 40H121.367L129.213 3.58984ZM132.844 27.1016H137.312L135.18 14.6348H134.926L132.844 27.1016ZM164.633 32.3066C166.156 32.3066 167.891 31.5618 169.838 30.0723L171.615 38.6035C169.499 40.0592 166.656 40.7871 163.084 40.7871C158.751 40.7871 155.331 39.2806 152.826 36.2676C150.338 33.2376 149.094 28.4134 149.094 21.7949C149.094 15.1764 150.338 10.3691 152.826 7.37305C155.331 4.37695 158.751 2.87891 163.084 2.87891C166.96 2.87891 169.626 3.3444 171.082 4.27539L168.848 12.5527C167.781 11.7572 166.376 11.3594 164.633 11.3594C162.686 11.3594 161.163 12.1211 160.062 13.6445C158.979 15.168 158.438 17.8848 158.438 21.7949C158.438 25.7389 158.979 28.4811 160.062 30.0215C161.163 31.5449 162.686 32.3066 164.633 32.3066ZM175.373 40V3.58984H184.691V40H175.373ZM206.248 21.3887L211.859 3.58984H221.432V40H212.393V24.7148H212.164L207.289 40H205.055L200.205 24.7148H200.002V40H190.963V3.58984H200.535L206.146 21.3887H206.248ZM227.729 40V3.58984H237.047V40H227.729ZM252.789 26.2129V31.5195H264.748V40H243.471V3.58984H264.418V12.0703H252.789V18.5703H263.275V26.2129H252.789ZM283.512 18.1133V3.58984H292.805V40H286.787L279.348 25.5527H279.246V40H269.877V3.58984H275.92L283.334 18.1133H283.512ZM296.791 12.0703V3.58984H319.414V12.0703H312.736V40H303.443V12.0703H296.791ZM324.086 7.34766C326.456 4.33464 329.706 2.82812 333.836 2.82812C337.966 2.82812 341.216 4.33464 343.586 7.34766C345.956 10.3607 347.141 15.1764 347.141 21.7949C347.141 28.4473 345.956 33.2799 343.586 36.293C341.216 39.2891 337.966 40.7871 333.836 40.7871C329.706 40.7871 326.456 39.2891 324.086 36.293C321.716 33.2799 320.531 28.4473 320.531 21.7949C320.531 15.1764 321.716 10.3607 324.086 7.34766ZM330.891 30.0469C331.568 31.5534 332.549 32.3066 333.836 32.3066C335.122 32.3066 336.104 31.5534 336.781 30.0469C337.458 28.5404 337.797 25.7897 337.797 21.7949C337.797 17.8509 337.458 15.1172 336.781 13.5938C336.104 12.0703 335.122 11.3086 333.836 11.3086C332.549 11.3086 331.568 12.0703 330.891 13.5938C330.214 15.1172 329.875 17.8509 329.875 21.7949C329.875 25.7897 330.214 28.5404 330.891 30.0469ZM365.447 18.5195C368.596 20.4323 370.729 22.252 371.846 23.9785C372.963 25.6882 373.521 27.7025 373.521 30.0215C373.521 33.2884 372.43 35.9036 370.246 37.8672C368.062 39.8138 365.075 40.7871 361.283 40.7871C356.848 40.7871 353.209 39.7461 350.365 37.6641L352.193 29.6914C355.003 31.7057 357.669 32.7129 360.191 32.7129C362.866 32.7129 364.203 31.8158 364.203 30.0215C364.203 29.2936 363.882 28.5658 363.238 27.8379C362.595 27.11 361.326 26.1875 359.43 25.0703C356.451 23.3776 354.309 21.6003 353.006 19.7383C351.702 17.8594 351.051 15.6673 351.051 13.1621C351.051 10.0475 352.151 7.55078 354.352 5.67188C356.552 3.77604 359.472 2.82812 363.111 2.82812C366.751 2.82812 369.891 3.48828 372.531 4.80859L371.49 12.9082C370.729 12.4173 369.654 11.9434 368.266 11.4863C366.878 11.0124 365.608 10.7754 364.457 10.7754C361.816 10.7754 360.505 11.6556 360.521 13.416C360.521 14.2454 360.928 15.0579 361.74 15.8535C362.553 16.6322 363.788 17.5208 365.447 18.5195Z" fill="black"/>
<mask id="path-2-outside-1_13_955" maskUnits="userSpaceOnUse" x="1" y="54" width="375" height="42" fill="black">
<rect fill="white" x="1" y="54" width="375" height="42"/>
<path d="M12.543 56.5898V84.5195H23.1309V93H3.22461V56.5898H12.543ZM27.6758 60.3477C30.0456 57.3346 33.2956 55.8281 37.4258 55.8281C41.556 55.8281 44.806 57.3346 47.1758 60.3477C49.5456 63.3607 50.7305 68.1764 50.7305 74.7949C50.7305 81.4473 49.5456 86.2799 47.1758 89.293C44.806 92.2891 41.556 93.7871 37.4258 93.7871C33.2956 93.7871 30.0456 92.2891 27.6758 89.293C25.306 86.2799 24.1211 81.4473 24.1211 74.7949C24.1211 68.1764 25.306 63.3607 27.6758 60.3477ZM34.4805 83.0469C35.1576 84.5534 36.1393 85.3066 37.4258 85.3066C38.7122 85.3066 39.694 84.5534 40.3711 83.0469C41.0482 81.5404 41.3867 78.7897 41.3867 74.7949C41.3867 70.8509 41.0482 68.1172 40.3711 66.5938C39.694 65.0703 38.7122 64.3086 37.4258 64.3086C36.1393 64.3086 35.1576 65.0703 34.4805 66.5938C33.8034 68.1172 33.4648 70.8509 33.4648 74.7949C33.4648 78.7897 33.8034 81.5404 34.4805 83.0469ZM69.0371 71.5195C72.1855 73.4323 74.3184 75.252 75.4355 76.9785C76.5527 78.6882 77.1113 80.7025 77.1113 83.0215C77.1113 86.2884 76.0195 88.9036 73.8359 90.8672C71.6523 92.8138 68.6647 93.7871 64.873 93.7871C60.4382 93.7871 56.7988 92.7461 53.9551 90.6641L55.7832 82.6914C58.5931 84.7057 61.2591 85.7129 63.7812 85.7129C66.4557 85.7129 67.793 84.8158 67.793 83.0215C67.793 82.2936 67.4714 81.5658 66.8281 80.8379C66.1849 80.11 64.9154 79.1875 63.0195 78.0703C60.0404 76.3776 57.8991 74.6003 56.5957 72.7383C55.2923 70.8594 54.6406 68.6673 54.6406 66.1621C54.6406 63.0475 55.7409 60.5508 57.9414 58.6719C60.1419 56.776 63.0618 55.8281 66.7012 55.8281C70.3405 55.8281 73.4805 56.4883 76.1211 57.8086L75.0801 65.9082C74.3184 65.4173 73.2435 64.9434 71.8555 64.4863C70.4674 64.0124 69.1979 63.7754 68.0469 63.7754C65.4062 63.7754 64.0944 64.6556 64.1113 66.416C64.1113 67.2454 64.5176 68.0579 65.3301 68.8535C66.1426 69.6322 67.3783 70.5208 69.0371 71.5195ZM109.129 71.1133V56.5898H118.422V93H112.404L104.965 78.5527H104.863V93H95.4941V56.5898H101.537L108.951 71.1133H109.129ZM129.213 56.5898H140.918L148.814 93H139.445L138.582 87.541H131.6L130.711 93H121.367L129.213 56.5898ZM132.844 80.1016H137.312L135.18 67.6348H134.926L132.844 80.1016ZM164.633 85.3066C166.156 85.3066 167.891 84.5618 169.838 83.0723L171.615 91.6035C169.499 93.0592 166.656 93.7871 163.084 93.7871C158.751 93.7871 155.331 92.2806 152.826 89.2676C150.338 86.2376 149.094 81.4134 149.094 74.7949C149.094 68.1764 150.338 63.3691 152.826 60.373C155.331 57.377 158.751 55.8789 163.084 55.8789C166.96 55.8789 169.626 56.3444 171.082 57.2754L168.848 65.5527C167.781 64.7572 166.376 64.3594 164.633 64.3594C162.686 64.3594 161.163 65.1211 160.062 66.6445C158.979 68.168 158.438 70.8848 158.438 74.7949C158.438 78.7389 158.979 81.4811 160.062 83.0215C161.163 84.5449 162.686 85.3066 164.633 85.3066ZM175.373 93V56.5898H184.691V93H175.373ZM206.248 74.3887L211.859 56.5898H221.432V93H212.393V77.7148H212.164L207.289 93H205.055L200.205 77.7148H200.002V93H190.963V56.5898H200.535L206.146 74.3887H206.248ZM227.729 93V56.5898H237.047V93H227.729ZM252.789 79.2129V84.5195H264.748V93H243.471V56.5898H264.418V65.0703H252.789V71.5703H263.275V79.2129H252.789ZM283.512 71.1133V56.5898H292.805V93H286.787L279.348 78.5527H279.246V93H269.877V56.5898H275.92L283.334 71.1133H283.512ZM296.791 65.0703V56.5898H319.414V65.0703H312.736V93H303.443V65.0703H296.791ZM324.086 60.3477C326.456 57.3346 329.706 55.8281 333.836 55.8281C337.966 55.8281 341.216 57.3346 343.586 60.3477C345.956 63.3607 347.141 68.1764 347.141 74.7949C347.141 81.4473 345.956 86.2799 343.586 89.293C341.216 92.2891 337.966 93.7871 333.836 93.7871C329.706 93.7871 326.456 92.2891 324.086 89.293C321.716 86.2799 320.531 81.4473 320.531 74.7949C320.531 68.1764 321.716 63.3607 324.086 60.3477ZM330.891 83.0469C331.568 84.5534 332.549 85.3066 333.836 85.3066C335.122 85.3066 336.104 84.5534 336.781 83.0469C337.458 81.5404 337.797 78.7897 337.797 74.7949C337.797 70.8509 337.458 68.1172 336.781 66.5938C336.104 65.0703 335.122 64.3086 333.836 64.3086C332.549 64.3086 331.568 65.0703 330.891 66.5938C330.214 68.1172 329.875 70.8509 329.875 74.7949C329.875 78.7897 330.214 81.5404 330.891 83.0469ZM365.447 71.5195C368.596 73.4323 370.729 75.252 371.846 76.9785C372.963 78.6882 373.521 80.7025 373.521 83.0215C373.521 86.2884 372.43 88.9036 370.246 90.8672C368.062 92.8138 365.075 93.7871 361.283 93.7871C356.848 93.7871 353.209 92.7461 350.365 90.6641L352.193 82.6914C355.003 84.7057 357.669 85.7129 360.191 85.7129C362.866 85.7129 364.203 84.8158 364.203 83.0215C364.203 82.2936 363.882 81.5658 363.238 80.8379C362.595 80.11 361.326 79.1875 359.43 78.0703C356.451 76.3776 354.309 74.6003 353.006 72.7383C351.702 70.8594 351.051 68.6673 351.051 66.1621C351.051 63.0475 352.151 60.5508 354.352 58.6719C356.552 56.776 359.472 55.8281 363.111 55.8281C366.751 55.8281 369.891 56.4883 372.531 57.8086L371.49 65.9082C370.729 65.4173 369.654 64.9434 368.266 64.4863C366.878 64.0124 365.608 63.7754 364.457 63.7754C361.816 63.7754 360.505 64.6556 360.521 66.416C360.521 67.2454 360.928 68.0579 361.74 68.8535C362.553 69.6322 363.788 70.5208 365.447 71.5195Z"/>
</mask>
<path d="M12.543 56.5898H14.043V55.0898H12.543V56.5898ZM12.543 84.5195H11.043V86.0195H12.543V84.5195ZM23.1309 84.5195H24.6309V83.0195H23.1309V84.5195ZM23.1309 93V94.5H24.6309V93H23.1309ZM3.22461 93H1.72461V94.5H3.22461V93ZM3.22461 56.5898V55.0898H1.72461V56.5898H3.22461ZM11.043 56.5898V84.5195H14.043V56.5898H11.043ZM12.543 86.0195H23.1309V83.0195H12.543V86.0195ZM21.6309 84.5195V93H24.6309V84.5195H21.6309ZM23.1309 91.5H3.22461V94.5H23.1309V91.5ZM4.72461 93V56.5898H1.72461V93H4.72461ZM3.22461 58.0898H12.543V55.0898H3.22461V58.0898ZM47.1758 89.293L48.3523 90.2235L48.3548 90.2203L47.1758 89.293ZM27.6758 89.293L26.4968 90.2203L26.4993 90.2235L27.6758 89.293ZM28.8548 61.275C30.9158 58.6546 33.7146 57.3281 37.4258 57.3281V54.3281C32.8766 54.3281 29.1754 56.0147 26.4968 59.4203L28.8548 61.275ZM37.4258 57.3281C41.137 57.3281 43.9358 58.6546 45.9968 61.275L48.3548 59.4203C45.6762 56.0147 41.975 54.3281 37.4258 54.3281V57.3281ZM45.9968 61.275C48.0544 63.8911 49.2305 68.2925 49.2305 74.7949H52.2305C52.2305 68.0603 51.0367 62.8302 48.3548 59.4203L45.9968 61.275ZM49.2305 74.7949C49.2305 81.3333 48.0536 85.7505 45.9968 88.3657L48.3548 90.2203C51.0375 86.8094 52.2305 81.5612 52.2305 74.7949H49.2305ZM45.9993 88.3624C43.9395 90.9666 41.1402 92.2871 37.4258 92.2871V95.2871C41.9718 95.2871 45.6725 93.6115 48.3523 90.2235L45.9993 88.3624ZM37.4258 92.2871C33.7114 92.2871 30.912 90.9666 28.8523 88.3624L26.4993 90.2235C29.1791 93.6115 32.8798 95.2871 37.4258 95.2871V92.2871ZM28.8548 88.3657C26.7979 85.7505 25.6211 81.3333 25.6211 74.7949H22.6211C22.6211 81.5612 23.8141 86.8094 26.4968 90.2203L28.8548 88.3657ZM25.6211 74.7949C25.6211 68.2925 26.7971 63.8911 28.8548 61.275L26.4968 59.4203C23.8148 62.8302 22.6211 68.0603 22.6211 74.7949H25.6211ZM33.1123 83.6618C33.5199 84.5686 34.0688 85.3619 34.8115 85.9318C35.5753 86.5178 36.4664 86.8066 37.4258 86.8066V83.8066C37.0987 83.8066 36.8557 83.7189 36.6377 83.5516C36.3986 83.3682 36.1181 83.0316 35.8486 82.432L33.1123 83.6618ZM37.4258 86.8066C38.3851 86.8066 39.2763 86.5178 40.04 85.9318C40.7828 85.3619 41.3317 84.5686 41.7393 83.6618L39.0029 82.432C38.7334 83.0316 38.4529 83.3682 38.2139 83.5516C37.9959 83.7189 37.7529 83.8066 37.4258 83.8066V86.8066ZM41.7393 83.6618C42.5622 81.8308 42.8867 78.7829 42.8867 74.7949H39.8867C39.8867 78.7965 39.5342 81.2499 39.0029 82.432L41.7393 83.6618ZM42.8867 74.7949C42.8867 70.852 42.5609 67.8276 41.7418 65.9845L39.0004 67.203C39.5354 68.4068 39.8867 70.8499 39.8867 74.7949H42.8867ZM41.7418 65.9845C41.3357 65.0707 40.7884 64.2704 40.0464 63.6948C39.2827 63.1022 38.3893 62.8086 37.4258 62.8086V65.8086C37.7487 65.8086 37.9895 65.8959 38.2075 66.065C38.4473 66.2511 38.7295 66.5934 39.0004 67.203L41.7418 65.9845ZM37.4258 62.8086C36.4623 62.8086 35.5689 63.1022 34.8051 63.6948C34.0632 64.2704 33.5159 65.0707 33.1098 65.9845L35.8512 67.203C36.1221 66.5934 36.4042 66.2511 36.6441 66.065C36.8621 65.8959 37.1028 65.8086 37.4258 65.8086V62.8086ZM33.1098 65.9845C32.2906 67.8276 31.9648 70.852 31.9648 74.7949H34.9648C34.9648 70.8499 35.3162 68.4068 35.8512 67.203L33.1098 65.9845ZM31.9648 74.7949C31.9648 78.7829 32.2894 81.8308 33.1123 83.6618L35.8486 82.432C35.3174 81.2499 34.9648 78.7965 34.9648 74.7949H31.9648ZM69.0371 71.5195L69.8159 70.2376L69.8108 70.2345L69.0371 71.5195ZM75.4355 76.9785L74.1762 77.7934L74.1799 77.7991L75.4355 76.9785ZM73.8359 90.8672L74.8341 91.9869L74.8389 91.9826L73.8359 90.8672ZM53.9551 90.6641L52.493 90.3288L52.2724 91.2911L53.069 91.8744L53.9551 90.6641ZM55.7832 82.6914L56.6571 81.4723L54.825 80.1589L54.3211 82.3562L55.7832 82.6914ZM63.0195 78.0703L63.7811 76.778L63.7709 76.772L63.7605 76.7661L63.0195 78.0703ZM56.5957 72.7383L55.3632 73.5933L55.3669 73.5985L56.5957 72.7383ZM57.9414 58.6719L58.9154 59.8126L58.9205 59.8083L57.9414 58.6719ZM76.1211 57.8086L77.6089 57.9998L77.7446 56.9433L76.7919 56.467L76.1211 57.8086ZM75.0801 65.9082L74.2675 67.1691L76.2649 68.4563L76.5678 66.0994L75.0801 65.9082ZM71.8555 64.4863L71.3708 65.9059L71.3785 65.9085L71.3863 65.9111L71.8555 64.4863ZM64.1113 66.416H65.6113V66.4088L65.6113 66.4016L64.1113 66.416ZM65.3301 68.8535L64.2806 69.9253L64.2864 69.9309L64.2922 69.9365L65.3301 68.8535ZM68.2583 72.8015C71.3432 74.6756 73.2439 76.3526 74.1762 77.7934L76.6949 76.1636C75.3928 74.1513 73.0279 72.1889 69.8159 70.2376L68.2583 72.8015ZM74.1799 77.7991C75.1168 79.2328 75.6113 80.9532 75.6113 83.0215H78.6113C78.6113 80.4517 77.9887 78.1435 76.6912 76.158L74.1799 77.7991ZM75.6113 83.0215C75.6113 85.9163 74.6626 88.1066 72.833 89.7518L74.8389 91.9826C77.3765 89.7007 78.6113 86.6605 78.6113 83.0215H75.6113ZM72.8378 89.7475C71.0023 91.3838 68.4084 92.2871 64.873 92.2871V95.2871C68.921 95.2871 72.3024 94.2438 74.8341 91.9869L72.8378 89.7475ZM64.873 92.2871C60.6737 92.2871 57.368 91.3038 54.8412 89.4538L53.069 91.8744C56.2296 94.1884 60.2026 95.2871 64.873 95.2871V92.2871ZM55.4171 90.9993L57.2453 83.0267L54.3211 82.3562L52.493 90.3288L55.4171 90.9993ZM54.9093 83.9105C57.8815 86.0412 60.8484 87.2129 63.7812 87.2129V84.2129C61.6698 84.2129 59.3047 83.3702 56.6571 81.4723L54.9093 83.9105ZM63.7812 87.2129C65.239 87.2129 66.5953 86.977 67.6257 86.2857C68.7623 85.5232 69.293 84.3515 69.293 83.0215H66.293C66.293 83.4857 66.155 83.6598 65.9544 83.7944C65.6475 84.0002 64.998 84.2129 63.7812 84.2129V87.2129ZM69.293 83.0215C69.293 81.8202 68.7554 80.7536 67.9521 79.8446L65.7041 81.8312C66.1873 82.3779 66.293 82.767 66.293 83.0215H69.293ZM67.9521 79.8446C67.1382 78.9236 65.685 77.8999 63.7811 76.778L62.258 79.3626C64.1458 80.4751 65.2316 81.2965 65.7041 81.8312L67.9521 79.8446ZM63.7605 76.7661C60.8855 75.1326 58.9521 73.4889 57.8246 71.8781L55.3669 73.5985C56.8461 75.7116 59.1953 77.6227 62.2785 79.3745L63.7605 76.7661ZM57.8282 71.8833C56.7156 70.2795 56.1406 68.3923 56.1406 66.1621H53.1406C53.1406 68.9423 53.869 71.4393 55.3632 73.5933L57.8282 71.8833ZM56.1406 66.1621C56.1406 63.4484 57.0766 61.3827 58.9154 59.8126L56.9674 57.5311C54.4052 59.7188 53.1406 62.6467 53.1406 66.1621H56.1406ZM58.9205 59.8083C60.7852 58.2018 63.3274 57.3281 66.7012 57.3281V54.3281C62.7963 54.3281 59.4987 55.3503 56.9623 57.5355L58.9205 59.8083ZM66.7012 57.3281C70.1608 57.3281 73.0608 57.9555 75.4503 59.1502L76.7919 56.467C73.9002 55.0211 70.5202 54.3281 66.7012 54.3281V57.3281ZM74.6333 57.6174L73.5923 65.717L76.5678 66.0994L77.6089 57.9998L74.6333 57.6174ZM75.8926 64.6473C74.979 64.0586 73.7695 63.5373 72.3246 63.0616L71.3863 65.9111C72.7175 66.3494 73.6577 66.7761 74.2675 67.1691L75.8926 64.6473ZM72.3402 63.0668C70.8368 62.5535 69.4009 62.2754 68.0469 62.2754V65.2754C68.9949 65.2754 70.0981 65.4713 71.3708 65.9059L72.3402 63.0668ZM68.0469 62.2754C66.6084 62.2754 65.2657 62.5063 64.2468 63.1899C63.1179 63.9474 62.5987 65.1133 62.6114 66.4304L65.6113 66.4016C65.607 65.9583 65.7353 65.8039 65.9183 65.6811C66.2112 65.4846 66.8447 65.2754 68.0469 65.2754V62.2754ZM62.6113 66.416C62.6113 67.78 63.2897 68.955 64.2806 69.9253L66.3795 67.7817C65.7455 67.1609 65.6113 66.7109 65.6113 66.416H62.6113ZM64.2922 69.9365C65.2222 70.8278 66.567 71.7833 68.2634 72.8046L69.8108 70.2345C68.1895 69.2584 67.0629 68.4365 66.3679 67.7705L64.2922 69.9365ZM109.129 71.1133V72.6133H110.629V71.1133H109.129ZM109.129 56.5898V55.0898H107.629V56.5898H109.129ZM118.422 56.5898H119.922V55.0898H118.422V56.5898ZM118.422 93V94.5H119.922V93H118.422ZM112.404 93L111.071 93.6867L111.49 94.5H112.404V93ZM104.965 78.5527L106.298 77.866L105.88 77.0527H104.965V78.5527ZM104.863 78.5527V77.0527H103.363V78.5527H104.863ZM104.863 93V94.5H106.363V93H104.863ZM95.4941 93H93.9941V94.5H95.4941V93ZM95.4941 56.5898V55.0898H93.9941V56.5898H95.4941ZM101.537 56.5898L102.873 55.9078L102.456 55.0898H101.537V56.5898ZM108.951 71.1133L107.615 71.7953L108.033 72.6133H108.951V71.1133ZM110.629 71.1133V56.5898H107.629V71.1133H110.629ZM109.129 58.0898H118.422V55.0898H109.129V58.0898ZM116.922 56.5898V93H119.922V56.5898H116.922ZM118.422 91.5H112.404V94.5H118.422V91.5ZM113.738 92.3133L106.298 77.866L103.631 79.2394L111.071 93.6867L113.738 92.3133ZM104.965 77.0527H104.863V80.0527H104.965V77.0527ZM103.363 78.5527V93H106.363V78.5527H103.363ZM104.863 91.5H95.4941V94.5H104.863V91.5ZM96.9941 93V56.5898H93.9941V93H96.9941ZM95.4941 58.0898H101.537V55.0898H95.4941V58.0898ZM100.201 57.2719L107.615 71.7953L110.287 70.4313L102.873 55.9078L100.201 57.2719ZM108.951 72.6133H109.129V69.6133H108.951V72.6133ZM129.213 56.5898V55.0898H128.002L127.747 56.2739L129.213 56.5898ZM140.918 56.5898L142.384 56.2719L142.128 55.0898H140.918V56.5898ZM148.814 93V94.5H150.675L150.28 92.6821L148.814 93ZM139.445 93L137.964 93.2343L138.164 94.5H139.445V93ZM138.582 87.541L140.064 87.3067L139.863 86.041H138.582V87.541ZM131.6 87.541V86.041H130.324L130.119 87.3L131.6 87.541ZM130.711 93V94.5H131.986L132.191 93.241L130.711 93ZM121.367 93L119.901 92.684L119.51 94.5H121.367V93ZM132.844 80.1016L131.364 79.8545L131.072 81.6016H132.844V80.1016ZM137.312 80.1016V81.6016H139.091L138.791 79.8486L137.312 80.1016ZM135.18 67.6348L136.658 67.3818L136.445 66.1348H135.18V67.6348ZM134.926 67.6348V66.1348H133.656L133.446 67.3877L134.926 67.6348ZM129.213 58.0898H140.918V55.0898H129.213V58.0898ZM139.452 56.9078L147.349 93.3179L150.28 92.6821L142.384 56.2719L139.452 56.9078ZM148.814 91.5H139.445V94.5H148.814V91.5ZM140.927 92.7657L140.064 87.3067L137.1 87.7753L137.964 93.2343L140.927 92.7657ZM138.582 86.041H131.6V89.041H138.582V86.041ZM130.119 87.3L129.23 92.759L132.191 93.241L133.08 87.782L130.119 87.3ZM130.711 91.5H121.367V94.5H130.711V91.5ZM122.834 93.316L130.679 56.9058L127.747 56.2739L119.901 92.684L122.834 93.316ZM132.844 81.6016H137.312V78.6016H132.844V81.6016ZM138.791 79.8486L136.658 67.3818L133.701 67.8877L135.834 80.3545L138.791 79.8486ZM135.18 66.1348H134.926V69.1348H135.18V66.1348ZM133.446 67.3877L131.364 79.8545L134.323 80.3486L136.405 67.8819L133.446 67.3877ZM169.838 83.0723L171.306 82.7663L170.82 80.4319L168.926 81.881L169.838 83.0723ZM171.615 91.6035L172.465 92.8393L173.287 92.274L173.084 91.2976L171.615 91.6035ZM152.826 89.2676L151.667 90.2196L151.673 90.2266L152.826 89.2676ZM152.826 60.373L151.675 59.4108L151.672 59.4147L152.826 60.373ZM171.082 57.2754L172.53 57.6663L172.817 56.6044L171.89 56.0117L171.082 57.2754ZM168.848 65.5527L167.951 66.755L169.72 68.0753L170.296 65.9437L168.848 65.5527ZM160.062 66.6445L158.846 65.7663L158.84 65.7752L160.062 66.6445ZM160.062 83.0215L158.836 83.8844L158.841 83.8921L158.846 83.8997L160.062 83.0215ZM164.633 86.8066C166.633 86.8066 168.689 85.8404 170.749 84.2635L168.926 81.881C167.094 83.2833 165.68 83.8066 164.633 83.8066V86.8066ZM168.369 83.3782L170.147 91.9094L173.084 91.2976L171.306 82.7663L168.369 83.3782ZM170.765 90.3677C168.98 91.5961 166.467 92.2871 163.084 92.2871V95.2871C166.844 95.2871 170.019 94.5224 172.465 92.8393L170.765 90.3677ZM163.084 92.2871C159.143 92.2871 156.167 90.9398 153.98 88.3086L151.673 90.2266C154.495 93.6214 158.358 95.2871 163.084 95.2871V92.2871ZM153.985 88.3156C151.825 85.6847 150.594 81.2848 150.594 74.7949H147.594C147.594 81.542 148.851 86.7906 151.667 90.2195L153.985 88.3156ZM150.594 74.7949C150.594 68.3028 151.826 63.9255 153.98 61.3314L151.672 59.4147C148.85 62.8128 147.594 68.0501 147.594 74.7949H150.594ZM153.977 61.3352C156.164 58.72 159.14 57.3789 163.084 57.3789V54.3789C158.361 54.3789 154.499 56.0339 151.675 59.4109L153.977 61.3352ZM163.084 57.3789C164.969 57.3789 166.513 57.4926 167.733 57.7057C168.969 57.9215 169.781 58.2239 170.274 58.5391L171.89 56.0117C170.927 55.3959 169.679 55.0001 168.249 54.7504C166.803 54.4979 165.075 54.3789 163.084 54.3789V57.3789ZM169.634 56.8845L167.399 65.1618L170.296 65.9437L172.53 57.6663L169.634 56.8845ZM169.745 64.3504C168.349 63.3092 166.599 62.8594 164.633 62.8594V65.8594C166.153 65.8594 167.214 66.2051 167.951 66.755L169.745 64.3504ZM164.633 62.8594C162.225 62.8594 160.24 63.8361 158.846 65.7663L161.279 67.5228C162.085 66.4061 163.147 65.8594 164.633 65.8594V62.8594ZM158.84 65.7752C157.464 67.7105 156.938 70.8498 156.938 74.7949H159.938C159.938 70.9197 160.494 68.6254 161.285 67.5138L158.84 65.7752ZM156.938 74.7949C156.938 78.7734 157.464 81.9342 158.836 83.8844L161.289 82.1586C160.494 81.0281 159.938 78.7045 159.938 74.7949H156.938ZM158.846 83.8997C160.24 85.8299 162.225 86.8066 164.633 86.8066V83.8066C163.147 83.8066 162.085 83.26 161.279 82.1432L158.846 83.8997ZM175.373 93H173.873V94.5H175.373V93ZM175.373 56.5898V55.0898H173.873V56.5898H175.373ZM184.691 56.5898H186.191V55.0898H184.691V56.5898ZM184.691 93V94.5H186.191V93H184.691ZM176.873 93V56.5898H173.873V93H176.873ZM175.373 58.0898H184.691V55.0898H175.373V58.0898ZM183.191 56.5898V93H186.191V56.5898H183.191ZM184.691 91.5H175.373V94.5H184.691V91.5ZM206.248 74.3887V75.8887H207.348L207.679 74.8397L206.248 74.3887ZM211.859 56.5898V55.0898H210.759L210.429 56.1388L211.859 56.5898ZM221.432 56.5898H222.932V55.0898H221.432V56.5898ZM221.432 93V94.5H222.932V93H221.432ZM212.393 93H210.893V94.5H212.393V93ZM212.393 77.7148H213.893V76.2148H212.393V77.7148ZM212.164 77.7148V76.2148H211.068L210.735 77.2591L212.164 77.7148ZM207.289 93V94.5H208.385L208.718 93.4558L207.289 93ZM205.055 93L203.625 93.4536L203.957 94.5H205.055V93ZM200.205 77.7148L201.635 77.2612L201.303 76.2148H200.205V77.7148ZM200.002 77.7148V76.2148H198.502V77.7148H200.002ZM200.002 93V94.5H201.502V93H200.002ZM190.963 93H189.463V94.5H190.963V93ZM190.963 56.5898V55.0898H189.463V56.5898H190.963ZM200.535 56.5898L201.966 56.1388L201.635 55.0898H200.535V56.5898ZM206.146 74.3887L204.716 74.8397L205.047 75.8887H206.146V74.3887ZM207.679 74.8397L213.29 57.0409L210.429 56.1388L204.817 73.9377L207.679 74.8397ZM211.859 58.0898H221.432V55.0898H211.859V58.0898ZM219.932 56.5898V93H222.932V56.5898H219.932ZM221.432 91.5H212.393V94.5H221.432V91.5ZM213.893 93V77.7148H210.893V93H213.893ZM212.393 76.2148H212.164V79.2148H212.393V76.2148ZM210.735 77.2591L205.86 92.5442L208.718 93.4558L213.593 78.1706L210.735 77.2591ZM207.289 91.5H205.055V94.5H207.289V91.5ZM206.484 92.5464L201.635 77.2612L198.775 78.1685L203.625 93.4536L206.484 92.5464ZM200.205 76.2148H200.002V79.2148H200.205V76.2148ZM198.502 77.7148V93H201.502V77.7148H198.502ZM200.002 91.5H190.963V94.5H200.002V91.5ZM192.463 93V56.5898H189.463V93H192.463ZM190.963 58.0898H200.535V55.0898H190.963V58.0898ZM199.105 57.0409L204.716 74.8397L207.577 73.9377L201.966 56.1388L199.105 57.0409ZM206.146 75.8887H206.248V72.8887H206.146V75.8887ZM227.729 93H226.229V94.5H227.729V93ZM227.729 56.5898V55.0898H226.229V56.5898H227.729ZM237.047 56.5898H238.547V55.0898H237.047V56.5898ZM237.047 93V94.5H238.547V93H237.047ZM229.229 93V56.5898H226.229V93H229.229ZM227.729 58.0898H237.047V55.0898H227.729V58.0898ZM235.547 56.5898V93H238.547V56.5898H235.547ZM237.047 91.5H227.729V94.5H237.047V91.5ZM252.789 79.2129V77.7129H251.289V79.2129H252.789ZM252.789 84.5195H251.289V86.0195H252.789V84.5195ZM264.748 84.5195H266.248V83.0195H264.748V84.5195ZM264.748 93V94.5H266.248V93H264.748ZM243.471 93H241.971V94.5H243.471V93ZM243.471 56.5898V55.0898H241.971V56.5898H243.471ZM264.418 56.5898H265.918V55.0898H264.418V56.5898ZM264.418 65.0703V66.5703H265.918V65.0703H264.418ZM252.789 65.0703V63.5703H251.289V65.0703H252.789ZM252.789 71.5703H251.289V73.0703H252.789V71.5703ZM263.275 71.5703H264.775V70.0703H263.275V71.5703ZM263.275 79.2129V80.7129H264.775V79.2129H263.275ZM251.289 79.2129V84.5195H254.289V79.2129H251.289ZM252.789 86.0195H264.748V83.0195H252.789V86.0195ZM263.248 84.5195V93H266.248V84.5195H263.248ZM264.748 91.5H243.471V94.5H264.748V91.5ZM244.971 93V56.5898H241.971V93H244.971ZM243.471 58.0898H264.418V55.0898H243.471V58.0898ZM262.918 56.5898V65.0703H265.918V56.5898H262.918ZM264.418 63.5703H252.789V66.5703H264.418V63.5703ZM251.289 65.0703V71.5703H254.289V65.0703H251.289ZM252.789 73.0703H263.275V70.0703H252.789V73.0703ZM261.775 71.5703V79.2129H264.775V71.5703H261.775ZM263.275 77.7129H252.789V80.7129H263.275V77.7129ZM283.512 71.1133V72.6133H285.012V71.1133H283.512ZM283.512 56.5898V55.0898H282.012V56.5898H283.512ZM292.805 56.5898H294.305V55.0898H292.805V56.5898ZM292.805 93V94.5H294.305V93H292.805ZM286.787 93L285.454 93.6867L285.872 94.5H286.787V93ZM279.348 78.5527L280.681 77.866L280.262 77.0527H279.348V78.5527ZM279.246 78.5527V77.0527H277.746V78.5527H279.246ZM279.246 93V94.5H280.746V93H279.246ZM269.877 93H268.377V94.5H269.877V93ZM269.877 56.5898V55.0898H268.377V56.5898H269.877ZM275.92 56.5898L277.256 55.9078L276.838 55.0898H275.92V56.5898ZM283.334 71.1133L281.998 71.7953L282.416 72.6133H283.334V71.1133ZM285.012 71.1133V56.5898H282.012V71.1133H285.012ZM283.512 58.0898H292.805V55.0898H283.512V58.0898ZM291.305 56.5898V93H294.305V56.5898H291.305ZM292.805 91.5H286.787V94.5H292.805V91.5ZM288.121 92.3133L280.681 77.866L278.014 79.2394L285.454 93.6867L288.121 92.3133ZM279.348 77.0527H279.246V80.0527H279.348V77.0527ZM277.746 78.5527V93H280.746V78.5527H277.746ZM279.246 91.5H269.877V94.5H279.246V91.5ZM271.377 93V56.5898H268.377V93H271.377ZM269.877 58.0898H275.92V55.0898H269.877V58.0898ZM274.584 57.2719L281.998 71.7953L284.67 70.4313L277.256 55.9078L274.584 57.2719ZM283.334 72.6133H283.512V69.6133H283.334V72.6133ZM296.791 65.0703H295.291V66.5703H296.791V65.0703ZM296.791 56.5898V55.0898H295.291V56.5898H296.791ZM319.414 56.5898H320.914V55.0898H319.414V56.5898ZM319.414 65.0703V66.5703H320.914V65.0703H319.414ZM312.736 65.0703V63.5703H311.236V65.0703H312.736ZM312.736 93V94.5H314.236V93H312.736ZM303.443 93H301.943V94.5H303.443V93ZM303.443 65.0703H304.943V63.5703H303.443V65.0703ZM298.291 65.0703V56.5898H295.291V65.0703H298.291ZM296.791 58.0898H319.414V55.0898H296.791V58.0898ZM317.914 56.5898V65.0703H320.914V56.5898H317.914ZM319.414 63.5703H312.736V66.5703H319.414V63.5703ZM311.236 65.0703V93H314.236V65.0703H311.236ZM312.736 91.5H303.443V94.5H312.736V91.5ZM304.943 93V65.0703H301.943V93H304.943ZM303.443 63.5703H296.791V66.5703H303.443V63.5703ZM343.586 89.293L344.762 90.2235L344.765 90.2203L343.586 89.293ZM324.086 89.293L322.907 90.2203L322.909 90.2235L324.086 89.293ZM325.265 61.275C327.326 58.6546 330.125 57.3281 333.836 57.3281V54.3281C329.287 54.3281 325.586 56.0147 322.907 59.4203L325.265 61.275ZM333.836 57.3281C337.547 57.3281 340.346 58.6546 342.407 61.275L344.765 59.4203C342.086 56.0147 338.385 54.3281 333.836 54.3281V57.3281ZM342.407 61.275C344.465 63.8911 345.641 68.2925 345.641 74.7949H348.641C348.641 68.0603 347.447 62.8302 344.765 59.4203L342.407 61.275ZM345.641 74.7949C345.641 81.3333 344.464 85.7505 342.407 88.3657L344.765 90.2203C347.448 86.8094 348.641 81.5612 348.641 74.7949H345.641ZM342.409 88.3624C340.35 90.9666 337.55 92.2871 333.836 92.2871V95.2871C338.382 95.2871 342.083 93.6115 344.762 90.2235L342.409 88.3624ZM333.836 92.2871C330.122 92.2871 327.322 90.9666 325.262 88.3624L322.909 90.2235C325.589 93.6115 329.29 95.2871 333.836 95.2871V92.2871ZM325.265 88.3657C323.208 85.7505 322.031 81.3333 322.031 74.7949H319.031C319.031 81.5612 320.224 86.8094 322.907 90.2203L325.265 88.3657ZM322.031 74.7949C322.031 68.2925 323.207 63.8911 325.265 61.275L322.907 59.4203C320.225 62.8302 319.031 68.0603 319.031 74.7949H322.031ZM329.522 83.6618C329.93 84.5686 330.479 85.3619 331.222 85.9318C331.985 86.5178 332.877 86.8066 333.836 86.8066V83.8066C333.509 83.8066 333.266 83.7189 333.048 83.5516C332.809 83.3682 332.528 83.0316 332.259 82.432L329.522 83.6618ZM333.836 86.8066C334.795 86.8066 335.686 86.5178 336.45 85.9318C337.193 85.3619 337.742 84.5686 338.149 83.6618L335.413 82.432C335.144 83.0316 334.863 83.3682 334.624 83.5516C334.406 83.7189 334.163 83.8066 333.836 83.8066V86.8066ZM338.149 83.6618C338.972 81.8308 339.297 78.7829 339.297 74.7949H336.297C336.297 78.7965 335.944 81.2499 335.413 82.432L338.149 83.6618ZM339.297 74.7949C339.297 70.852 338.971 67.8276 338.152 65.9845L335.411 67.203C335.946 68.4068 336.297 70.8499 336.297 74.7949H339.297ZM338.152 65.9845C337.746 65.0707 337.199 64.2704 336.457 63.6948C335.693 63.1022 334.799 62.8086 333.836 62.8086V65.8086C334.159 65.8086 334.4 65.8959 334.618 66.065C334.857 66.2511 335.14 66.5934 335.411 67.203L338.152 65.9845ZM333.836 62.8086C332.872 62.8086 331.979 63.1022 331.215 63.6948C330.473 64.2704 329.926 65.0707 329.52 65.9845L332.261 67.203C332.532 66.5934 332.814 66.2511 333.054 66.065C333.272 65.8959 333.513 65.8086 333.836 65.8086V62.8086ZM329.52 65.9845C328.701 67.8276 328.375 70.852 328.375 74.7949H331.375C331.375 70.8499 331.726 68.4068 332.261 67.203L329.52 65.9845ZM328.375 74.7949C328.375 78.7829 328.7 81.8308 329.522 83.6618L332.259 82.432C331.728 81.2499 331.375 78.7965 331.375 74.7949H328.375ZM365.447 71.5195L366.226 70.2376L366.221 70.2345L365.447 71.5195ZM371.846 76.9785L370.586 77.7934L370.59 77.7991L371.846 76.9785ZM370.246 90.8672L371.244 91.9869L371.249 91.9826L370.246 90.8672ZM350.365 90.6641L348.903 90.3288L348.683 91.2911L349.479 91.8744L350.365 90.6641ZM352.193 82.6914L353.067 81.4723L351.235 80.1589L350.731 82.3562L352.193 82.6914ZM359.43 78.0703L360.191 76.778L360.181 76.772L360.171 76.7661L359.43 78.0703ZM353.006 72.7383L351.773 73.5933L351.777 73.5985L353.006 72.7383ZM354.352 58.6719L355.326 59.8126L355.331 59.8083L354.352 58.6719ZM372.531 57.8086L374.019 57.9998L374.155 56.9433L373.202 56.467L372.531 57.8086ZM371.49 65.9082L370.678 67.1691L372.675 68.4563L372.978 66.0994L371.49 65.9082ZM368.266 64.4863L367.781 65.9059L367.789 65.9085L367.796 65.9111L368.266 64.4863ZM360.521 66.416H362.021V66.4088L362.021 66.4016L360.521 66.416ZM361.74 68.8535L360.691 69.9253L360.697 69.9309L360.702 69.9365L361.74 68.8535ZM364.668 72.8015C367.753 74.6756 369.654 76.3526 370.586 77.7934L373.105 76.1636C371.803 74.1513 369.438 72.1889 366.226 70.2376L364.668 72.8015ZM370.59 77.7991C371.527 79.2328 372.021 80.9532 372.021 83.0215H375.021C375.021 80.4517 374.399 78.1435 373.101 76.158L370.59 77.7991ZM372.021 83.0215C372.021 85.9163 371.073 88.1066 369.243 89.7518L371.249 91.9826C373.787 89.7007 375.021 86.6605 375.021 83.0215H372.021ZM369.248 89.7475C367.412 91.3838 364.819 92.2871 361.283 92.2871V95.2871C365.331 95.2871 368.713 94.2438 371.244 91.9869L369.248 89.7475ZM361.283 92.2871C357.084 92.2871 353.778 91.3038 351.251 89.4538L349.479 91.8744C352.64 94.1884 356.613 95.2871 361.283 95.2871V92.2871ZM351.827 90.9993L353.655 83.0267L350.731 82.3562L348.903 90.3288L351.827 90.9993ZM351.319 83.9105C354.292 86.0412 357.259 87.2129 360.191 87.2129V84.2129C358.08 84.2129 355.715 83.3702 353.067 81.4723L351.319 83.9105ZM360.191 87.2129C361.649 87.2129 363.005 86.977 364.036 86.2857C365.172 85.5232 365.703 84.3515 365.703 83.0215H362.703C362.703 83.4857 362.565 83.6598 362.365 83.7944C362.058 84.0002 361.408 84.2129 360.191 84.2129V87.2129ZM365.703 83.0215C365.703 81.8202 365.166 80.7536 364.362 79.8446L362.114 81.8312C362.597 82.3779 362.703 82.767 362.703 83.0215H365.703ZM364.362 79.8446C363.548 78.9236 362.095 77.8999 360.191 76.778L358.668 79.3626C360.556 80.4751 361.642 81.2965 362.114 81.8312L364.362 79.8446ZM360.171 76.7661C357.296 75.1326 355.362 73.4889 354.235 71.8781L351.777 73.5985C353.256 75.7116 355.605 77.6227 358.689 79.3745L360.171 76.7661ZM354.238 71.8833C353.126 70.2795 352.551 68.3923 352.551 66.1621H349.551C349.551 68.9423 350.279 71.4393 351.773 73.5933L354.238 71.8833ZM352.551 66.1621C352.551 63.4484 353.487 61.3827 355.326 59.8126L353.378 57.5311C350.815 59.7188 349.551 62.6467 349.551 66.1621H352.551ZM355.331 59.8083C357.195 58.2018 359.738 57.3281 363.111 57.3281V54.3281C359.207 54.3281 355.909 55.3503 353.372 57.5355L355.331 59.8083ZM363.111 57.3281C366.571 57.3281 369.471 57.9555 371.86 59.1502L373.202 56.467C370.31 55.0211 366.93 54.3281 363.111 54.3281V57.3281ZM371.043 57.6174L370.002 65.717L372.978 66.0994L374.019 57.9998L371.043 57.6174ZM372.303 64.6473C371.389 64.0586 370.18 63.5373 368.735 63.0616L367.796 65.9111C369.128 66.3494 370.068 66.7761 370.678 67.1691L372.303 64.6473ZM368.75 63.0668C367.247 62.5535 365.811 62.2754 364.457 62.2754V65.2754C365.405 65.2754 366.508 65.4713 367.781 65.9059L368.75 63.0668ZM364.457 62.2754C363.019 62.2754 361.676 62.5063 360.657 63.1899C359.528 63.9474 359.009 65.1133 359.022 66.4304L362.021 66.4016C362.017 65.9583 362.145 65.8039 362.328 65.6811C362.621 65.4846 363.255 65.2754 364.457 65.2754V62.2754ZM359.021 66.416C359.021 67.78 359.7 68.955 360.691 69.9253L362.79 67.7817C362.156 67.1609 362.021 66.7109 362.021 66.416H359.021ZM360.702 69.9365C361.632 70.8278 362.977 71.7833 364.674 72.8046L366.221 70.2345C364.6 69.2584 363.473 68.4365 362.778 67.7705L360.702 69.9365Z" fill="black" mask="url(#path-2-outside-1_13_955)"/>
<path d="M101.212 108.729C118.805 107.53 136.415 106.583 154.033 105.887C171.652 105.19 189.287 104.745 206.922 104.542C224.558 104.348 242.193 104.397 259.828 104.704C277.387 105.004 294.946 105.555 312.497 106.356C330.115 107.158 347.717 108.21 365.301 109.506C367.466 109.668 369.63 109.83 371.786 110C373.409 110.121 373.4 107.692 371.786 107.571C354.21 106.21 336.608 105.093 318.998 104.235C301.388 103.368 283.762 102.761 266.126 102.397C248.491 102.032 230.856 101.919 213.221 102.057C195.653 102.194 178.094 102.583 160.543 103.215C142.916 103.854 125.306 104.737 107.713 105.87C105.549 106.008 103.385 106.154 101.221 106.3C99.5974 106.413 99.5889 108.842 101.221 108.729" fill="white"/>
</svg>
