<svg width="414" height="113" viewBox="0 0 414 113" fill="none" xmlns="http://www.w3.org/2000/svg">
<path d="M12.543 3.58984V31.5195H23.1309V40H3.22461V3.58984H12.543ZM32.0176 3.58984H43.7227L51.6191 40H42.25L41.3867 34.541H34.4043L33.5156 40H24.1719L32.0176 3.58984ZM35.6484 27.1016H40.1172L37.9844 14.6348H37.7305L35.6484 27.1016ZM82.2148 32.3066C83.7383 32.3066 85.4733 31.5618 87.4199 30.0723L89.1973 38.6035C87.0814 40.0592 84.2376 40.7871 80.666 40.7871C76.3327 40.7871 72.9134 39.2806 70.4082 36.2676C67.9199 33.2376 66.6758 28.4134 66.6758 21.7949C66.6758 15.1764 67.9199 10.3691 70.4082 7.37305C72.9134 4.37695 76.3327 2.87891 80.666 2.87891C84.5423 2.87891 87.2083 3.3444 88.6641 4.27539L86.4297 12.5527C85.3633 11.7572 83.9583 11.3594 82.2148 11.3594C80.2682 11.3594 78.7448 12.1211 77.6445 13.6445C76.5612 15.168 76.0195 17.8848 76.0195 21.7949C76.0195 25.7389 76.5612 28.4811 77.6445 30.0215C78.7448 31.5449 80.2682 32.3066 82.2148 32.3066ZM97.7793 3.58984H109.484L117.381 40H108.012L107.148 34.541H100.166L99.2773 40H89.9336L97.7793 3.58984ZM101.41 27.1016H105.879L103.746 14.6348H103.492L101.41 27.1016ZM123.729 25.8066V3.58984H133.047V27.584C133.047 32.3066 132.226 35.6921 130.584 37.7402C128.959 39.7715 126.454 40.7871 123.068 40.7871C120.749 40.7871 118.879 40.4062 117.457 39.6445L117.965 31.3164C119.116 31.9427 120.14 32.2559 121.037 32.2559C122.188 32.2559 122.924 31.7565 123.246 30.7578C123.568 29.7422 123.729 28.0918 123.729 25.8066ZM143.381 3.58984H155.086L162.982 40H153.613L152.75 34.541H145.768L144.879 40H135.535L143.381 3.58984ZM147.012 27.1016H151.48L149.348 14.6348H149.094L147.012 27.1016Z" fill="black"/>
<mask id="path-2-outside-1_13_957" maskUnits="userSpaceOnUse" x="1" y="48" width="209" height="53" fill="black">
<rect fill="white" x="1" y="48" width="209" height="53"/>
<path d="M16.8594 77.1133V62.5898H26.1523V99H20.1348L12.6953 84.5527H12.5938V99H3.22461V62.5898H9.26758L16.6816 77.1133H16.8594ZM36.9434 62.5898H48.6484L56.5449 99H47.1758L46.3125 93.541H39.3301L38.4414 99H29.0977L36.9434 62.5898ZM40.5742 86.1016H45.043L42.9102 73.6348H42.6562L40.5742 86.1016ZM66.9805 89.7324L70.7129 62.5898H79.9297L74.0898 99H59.6934L53.8789 62.5898H63.0703L66.8281 89.7324H66.9805ZM82.8496 99V62.5898H92.168V99H82.8496ZM110.043 62.5898C113.852 62.5898 116.975 64.2995 119.412 67.7188C121.867 71.138 123.094 75.5052 123.094 80.8203C123.094 86.1185 121.867 90.4772 119.412 93.8965C116.975 97.2988 113.852 99 110.043 99H98.5918V62.5898H110.043ZM108.672 90.5195C110.161 90.5195 111.372 89.6139 112.303 87.8027C113.251 85.9746 113.725 83.6387 113.725 80.7949C113.725 77.9512 113.251 75.6237 112.303 73.8125C111.372 71.9844 110.161 71.0703 108.672 71.0703H107.91V90.5195H108.672ZM137.617 85.2129V90.5195H149.576V99H128.299V62.5898H149.246V71.0703H137.617V77.5703H148.104V85.2129H137.617ZM168.34 77.1133V62.5898H177.633V99H171.615L164.176 84.5527H164.074V99H154.705V62.5898H160.748L168.162 77.1133H168.34ZM170.523 50.377L174.408 51.2656C174.307 55.8021 172.732 58.0703 169.686 58.0703C168.568 58.0703 167.282 57.6217 165.826 56.7246C164.709 56.0645 163.964 55.7344 163.592 55.7344C162.695 55.7344 162.195 56.5807 162.094 58.2734L158.133 57.3086C158.201 55.1589 158.666 53.4831 159.529 52.2812C160.41 51.0794 161.527 50.4785 162.881 50.4785C163.913 50.4785 165.124 50.9102 166.512 51.7734C167.798 52.5352 168.594 52.916 168.898 52.916C169.846 52.916 170.388 52.0697 170.523 50.377ZM188.424 62.5898H200.129L208.025 99H198.656L197.793 93.541H190.811L189.922 99H180.578L188.424 62.5898ZM192.055 86.1016H196.523L194.391 73.6348H194.137L192.055 86.1016Z"/>
</mask>
<path d="M16.8594 77.1133V78.6133H18.3594V77.1133H16.8594ZM16.8594 62.5898V61.0898H15.3594V62.5898H16.8594ZM26.1523 62.5898H27.6523V61.0898H26.1523V62.5898ZM26.1523 99V100.5H27.6523V99H26.1523ZM20.1348 99L18.8012 99.6867L19.22 100.5H20.1348V99ZM12.6953 84.5527L14.0289 83.866L13.6101 83.0527H12.6953V84.5527ZM12.5938 84.5527V83.0527H11.0938V84.5527H12.5938ZM12.5938 99V100.5H14.0938V99H12.5938ZM3.22461 99H1.72461V100.5H3.22461V99ZM3.22461 62.5898V61.0898H1.72461V62.5898H3.22461ZM9.26758 62.5898L10.6036 61.9078L10.186 61.0898H9.26758V62.5898ZM16.6816 77.1133L15.3457 77.7953L15.7632 78.6133H16.6816V77.1133ZM18.3594 77.1133V62.5898H15.3594V77.1133H18.3594ZM16.8594 64.0898H26.1523V61.0898H16.8594V64.0898ZM24.6523 62.5898V99H27.6523V62.5898H24.6523ZM26.1523 97.5H20.1348V100.5H26.1523V97.5ZM21.4683 98.3133L14.0289 83.866L11.3617 85.2394L18.8012 99.6867L21.4683 98.3133ZM12.6953 83.0527H12.5938V86.0527H12.6953V83.0527ZM11.0938 84.5527V99H14.0938V84.5527H11.0938ZM12.5938 97.5H3.22461V100.5H12.5938V97.5ZM4.72461 99V62.5898H1.72461V99H4.72461ZM3.22461 64.0898H9.26758V61.0898H3.22461V64.0898ZM7.93159 63.2719L15.3457 77.7953L18.0176 76.4313L10.6036 61.9078L7.93159 63.2719ZM16.6816 78.6133H16.8594V75.6133H16.6816V78.6133ZM36.9434 62.5898V61.0898H35.7322L35.477 62.2739L36.9434 62.5898ZM48.6484 62.5898L50.1144 62.2719L49.858 61.0898H48.6484V62.5898ZM56.5449 99V100.5H58.4051L58.0108 98.6821L56.5449 99ZM47.1758 99L45.6942 99.2343L45.8944 100.5H47.1758V99ZM46.3125 93.541L47.7941 93.3067L47.5939 92.041H46.3125V93.541ZM39.3301 93.541V92.041H38.0545L37.8496 93.3L39.3301 93.541ZM38.4414 99V100.5H39.717L39.9219 99.241L38.4414 99ZM29.0977 99L27.6313 98.684L27.24 100.5H29.0977V99ZM40.5742 86.1016L39.0947 85.8545L38.8029 87.6016H40.5742V86.1016ZM45.043 86.1016V87.6016H46.8214L46.5215 85.8486L45.043 86.1016ZM42.9102 73.6348L44.3887 73.3818L44.1753 72.1348H42.9102V73.6348ZM42.6562 73.6348V72.1348H41.386L41.1767 73.3877L42.6562 73.6348ZM36.9434 64.0898H48.6484V61.0898H36.9434V64.0898ZM47.1825 62.9078L55.079 99.3179L58.0108 98.6821L50.1144 62.2719L47.1825 62.9078ZM56.5449 97.5H47.1758V100.5H56.5449V97.5ZM48.6574 98.7657L47.7941 93.3067L44.8309 93.7753L45.6942 99.2343L48.6574 98.7657ZM46.3125 92.041H39.3301V95.041H46.3125V92.041ZM37.8496 93.3L36.9609 98.759L39.9219 99.241L40.8106 93.782L37.8496 93.3ZM38.4414 97.5H29.0977V100.5H38.4414V97.5ZM30.564 99.316L38.4097 62.9058L35.477 62.2739L27.6313 98.684L30.564 99.316ZM40.5742 87.6016H45.043V84.6016H40.5742V87.6016ZM46.5215 85.8486L44.3887 73.3818L41.4316 73.8877L43.5644 86.3545L46.5215 85.8486ZM42.9102 72.1348H42.6562V75.1348H42.9102V72.1348ZM41.1767 73.3877L39.0947 85.8545L42.0537 86.3486L44.1358 73.8819L41.1767 73.3877ZM66.9805 89.7324V91.2324H68.2883L68.4665 89.9368L66.9805 89.7324ZM70.7129 62.5898V61.0898H69.405L69.2269 62.3855L70.7129 62.5898ZM79.9297 62.5898L81.4108 62.8274L81.6894 61.0898H79.9297V62.5898ZM74.0898 99V100.5H75.3684L75.5709 99.2375L74.0898 99ZM59.6934 99L58.2121 99.2365L58.4139 100.5H59.6934V99ZM53.8789 62.5898V61.0898H52.1204L52.3977 62.8264L53.8789 62.5898ZM63.0703 62.5898L64.5561 62.3841L64.3769 61.0898H63.0703V62.5898ZM66.8281 89.7324L65.3423 89.9381L65.5215 91.2324H66.8281V89.7324ZM68.4665 89.9368L72.1989 62.7942L69.2269 62.3855L65.4945 89.5281L68.4665 89.9368ZM70.7129 64.0898H79.9297V61.0898H70.7129V64.0898ZM78.4486 62.3523L72.6088 98.7625L75.5709 99.2375L81.4108 62.8274L78.4486 62.3523ZM74.0898 97.5H59.6934V100.5H74.0898V97.5ZM61.1746 98.7635L55.3601 62.3533L52.3977 62.8264L58.2121 99.2365L61.1746 98.7635ZM53.8789 64.0898H63.0703V61.0898H53.8789V64.0898ZM61.5845 62.7956L65.3423 89.9381L68.314 89.5267L64.5561 62.3841L61.5845 62.7956ZM66.8281 91.2324H66.9805V88.2324H66.8281V91.2324ZM82.8496 99H81.3496V100.5H82.8496V99ZM82.8496 62.5898V61.0898H81.3496V62.5898H82.8496ZM92.168 62.5898H93.668V61.0898H92.168V62.5898ZM92.168 99V100.5H93.668V99H92.168ZM84.3496 99V62.5898H81.3496V99H84.3496ZM82.8496 64.0898H92.168V61.0898H82.8496V64.0898ZM90.668 62.5898V99H93.668V62.5898H90.668ZM92.168 97.5H82.8496V100.5H92.168V97.5ZM119.412 67.7188L118.191 68.5895L118.194 68.5935L119.412 67.7188ZM119.412 93.8965L118.194 93.0218L118.193 93.0229L119.412 93.8965ZM98.5918 99H97.0918V100.5H98.5918V99ZM98.5918 62.5898V61.0898H97.0918V62.5898H98.5918ZM112.303 87.8027L110.971 87.1123L110.969 87.117L112.303 87.8027ZM112.303 73.8125L110.966 74.4932L110.97 74.5006L110.974 74.508L112.303 73.8125ZM107.91 71.0703V69.5703H106.41V71.0703H107.91ZM107.91 90.5195H106.41V92.0195H107.91V90.5195ZM110.043 64.0898C113.312 64.0898 116.001 65.5179 118.191 68.5895L120.634 66.848C117.948 63.081 114.392 61.0898 110.043 61.0898V64.0898ZM118.194 68.5935C120.422 71.6977 121.594 75.736 121.594 80.8203H124.594C124.594 75.2744 123.311 70.5783 120.631 66.844L118.194 68.5935ZM121.594 80.8203C121.594 85.8865 120.422 89.9167 118.194 93.0218L120.631 94.7712C123.311 91.0377 124.594 86.3505 124.594 80.8203H121.594ZM118.193 93.0229C116.004 96.0773 113.315 97.5 110.043 97.5V100.5C114.388 100.5 117.945 98.5203 120.631 94.7701L118.193 93.0229ZM110.043 97.5H98.5918V100.5H110.043V97.5ZM100.092 99V62.5898H97.0918V99H100.092ZM98.5918 64.0898H110.043V61.0898H98.5918V64.0898ZM108.672 92.0195C110.927 92.0195 112.558 90.588 113.637 88.4885L110.969 87.117C110.186 88.6398 109.396 89.0195 108.672 89.0195V92.0195ZM113.634 88.4932C114.727 86.3862 115.225 83.7923 115.225 80.7949H112.225C112.225 83.485 111.774 85.563 110.971 87.1123L113.634 88.4932ZM115.225 80.7949C115.225 77.7984 114.727 75.2101 113.632 73.117L110.974 74.508C111.774 76.0373 112.225 78.1039 112.225 80.7949H115.225ZM113.639 73.1318C112.564 71.0193 110.935 69.5703 108.672 69.5703V72.5703C109.388 72.5703 110.18 72.9494 110.966 74.4932L113.639 73.1318ZM108.672 69.5703H107.91V72.5703H108.672V69.5703ZM106.41 71.0703V90.5195H109.41V71.0703H106.41ZM107.91 92.0195H108.672V89.0195H107.91V92.0195ZM137.617 85.2129V83.7129H136.117V85.2129H137.617ZM137.617 90.5195H136.117V92.0195H137.617V90.5195ZM149.576 90.5195H151.076V89.0195H149.576V90.5195ZM149.576 99V100.5H151.076V99H149.576ZM128.299 99H126.799V100.5H128.299V99ZM128.299 62.5898V61.0898H126.799V62.5898H128.299ZM149.246 62.5898H150.746V61.0898H149.246V62.5898ZM149.246 71.0703V72.5703H150.746V71.0703H149.246ZM137.617 71.0703V69.5703H136.117V71.0703H137.617ZM137.617 77.5703H136.117V79.0703H137.617V77.5703ZM148.104 77.5703H149.604V76.0703H148.104V77.5703ZM148.104 85.2129V86.7129H149.604V85.2129H148.104ZM136.117 85.2129V90.5195H139.117V85.2129H136.117ZM137.617 92.0195H149.576V89.0195H137.617V92.0195ZM148.076 90.5195V99H151.076V90.5195H148.076ZM149.576 97.5H128.299V100.5H149.576V97.5ZM129.799 99V62.5898H126.799V99H129.799ZM128.299 64.0898H149.246V61.0898H128.299V64.0898ZM147.746 62.5898V71.0703H150.746V62.5898H147.746ZM149.246 69.5703H137.617V72.5703H149.246V69.5703ZM136.117 71.0703V77.5703H139.117V71.0703H136.117ZM137.617 79.0703H148.104V76.0703H137.617V79.0703ZM146.604 77.5703V85.2129H149.604V77.5703H146.604ZM148.104 83.7129H137.617V86.7129H148.104V83.7129ZM168.34 77.1133V78.6133H169.84V77.1133H168.34ZM168.34 62.5898V61.0898H166.84V62.5898H168.34ZM177.633 62.5898H179.133V61.0898H177.633V62.5898ZM177.633 99V100.5H179.133V99H177.633ZM171.615 99L170.282 99.6867L170.7 100.5H171.615V99ZM164.176 84.5527L165.509 83.866L165.091 83.0527H164.176V84.5527ZM164.074 84.5527V83.0527H162.574V84.5527H164.074ZM164.074 99V100.5H165.574V99H164.074ZM154.705 99H153.205V100.5H154.705V99ZM154.705 62.5898V61.0898H153.205V62.5898H154.705ZM160.748 62.5898L162.084 61.9078L161.666 61.0898H160.748V62.5898ZM168.162 77.1133L166.826 77.7953L167.244 78.6133H168.162V77.1133ZM170.523 50.377L170.858 48.9147L169.167 48.5278L169.028 50.2573L170.523 50.377ZM174.408 51.2656L175.908 51.2992L175.935 50.0762L174.743 49.8034L174.408 51.2656ZM165.826 56.7246L166.613 55.4476L166.601 55.4403L166.589 55.4332L165.826 56.7246ZM162.094 58.2734L161.739 59.7308L163.484 60.1558L163.591 58.3633L162.094 58.2734ZM158.133 57.3086L156.634 57.2614L156.595 58.4779L157.778 58.766L158.133 57.3086ZM159.529 52.2812L158.319 51.3949L158.311 51.4061L159.529 52.2812ZM166.512 51.7734L165.72 53.0472L165.733 53.0558L165.747 53.0642L166.512 51.7734ZM169.84 77.1133V62.5898H166.84V77.1133H169.84ZM168.34 64.0898H177.633V61.0898H168.34V64.0898ZM176.133 62.5898V99H179.133V62.5898H176.133ZM177.633 97.5H171.615V100.5H177.633V97.5ZM172.949 98.3133L165.509 83.866L162.842 85.2394L170.282 99.6867L172.949 98.3133ZM164.176 83.0527H164.074V86.0527H164.176V83.0527ZM162.574 84.5527V99H165.574V84.5527H162.574ZM164.074 97.5H154.705V100.5H164.074V97.5ZM156.205 99V62.5898H153.205V99H156.205ZM154.705 64.0898H160.748V61.0898H154.705V64.0898ZM159.412 63.2719L166.826 77.7953L169.498 76.4313L162.084 61.9078L159.412 63.2719ZM168.162 78.6133H168.34V75.6133H168.162V78.6133ZM170.189 51.8392L174.074 52.7279L174.743 49.8034L170.858 48.9147L170.189 51.8392ZM172.909 51.2321C172.861 53.3771 172.462 54.7316 171.919 55.5139C171.445 56.1976 170.777 56.5703 169.686 56.5703V59.5703C171.641 59.5703 173.284 58.8089 174.384 57.2244C175.415 55.7385 175.854 53.6906 175.908 51.2992L172.909 51.2321ZM169.686 56.5703C168.957 56.5703 167.948 56.2704 166.613 55.4476L165.039 58.0016C166.616 58.9731 168.18 59.5703 169.686 59.5703V56.5703ZM166.589 55.4332C166.006 55.0886 165.485 54.8088 165.037 54.6106C164.648 54.4379 164.118 54.2344 163.592 54.2344V57.2344C163.484 57.2344 163.446 57.2141 163.516 57.2348C163.574 57.252 163.674 57.2876 163.822 57.3533C164.119 57.4851 164.529 57.7004 165.063 58.016L166.589 55.4332ZM163.592 54.2344C162.554 54.2344 161.741 54.7792 161.253 55.6069C160.824 56.3332 160.653 57.249 160.596 58.1836L163.591 58.3633C163.637 57.6051 163.765 57.2515 163.836 57.1314C163.861 57.0899 163.847 57.1296 163.771 57.1759C163.688 57.226 163.614 57.2344 163.592 57.2344V54.2344ZM162.449 56.8161L158.488 55.8512L157.778 58.766L161.739 59.7308L162.449 56.8161ZM159.632 57.3558C159.694 55.3755 160.12 54.0296 160.748 53.1564L158.311 51.4061C157.212 52.9366 156.707 54.9422 156.634 57.2614L159.632 57.3558ZM160.739 53.1676C161.37 52.3067 162.058 51.9785 162.881 51.9785V48.9785C160.996 48.9785 159.449 49.8521 158.319 51.3949L160.739 53.1676ZM162.881 51.9785C163.515 51.9785 164.443 52.2531 165.72 53.0472L167.304 50.4997C165.805 49.5672 164.312 48.9785 162.881 48.9785V51.9785ZM165.747 53.0642C166.407 53.4544 166.97 53.7653 167.426 53.9833C167.652 54.0919 167.876 54.1891 168.087 54.2621C168.266 54.324 168.565 54.416 168.898 54.416V51.416C169.079 51.416 169.165 51.4604 169.069 51.4271C169.004 51.4049 168.892 51.3592 168.721 51.2774C168.381 51.1146 167.903 50.8542 167.276 50.4827L165.747 53.0642ZM168.898 54.416C169.92 54.416 170.752 53.9127 171.279 53.0898C171.744 52.3627 171.943 51.4399 172.019 50.4966L169.028 50.2573C168.968 51.0067 168.829 51.3534 168.752 51.4727C168.725 51.5146 168.733 51.4869 168.792 51.4531C168.855 51.4173 168.904 51.416 168.898 51.416V54.416ZM188.424 62.5898V61.0898H187.213L186.957 62.2739L188.424 62.5898ZM200.129 62.5898L201.595 62.2719L201.338 61.0898H200.129V62.5898ZM208.025 99V100.5H209.886L209.491 98.6821L208.025 99ZM198.656 99L197.175 99.2343L197.375 100.5H198.656V99ZM197.793 93.541L199.275 93.3067L199.074 92.041H197.793V93.541ZM190.811 93.541V92.041H189.535L189.33 93.3L190.811 93.541ZM189.922 99V100.5H191.197L191.402 99.241L189.922 99ZM180.578 99L179.112 98.684L178.72 100.5H180.578V99ZM192.055 86.1016L190.575 85.8545L190.283 87.6016H192.055V86.1016ZM196.523 86.1016V87.6016H198.302L198.002 85.8486L196.523 86.1016ZM194.391 73.6348L195.869 73.3818L195.656 72.1348H194.391V73.6348ZM194.137 73.6348V72.1348H192.866L192.657 73.3877L194.137 73.6348ZM188.424 64.0898H200.129V61.0898H188.424V64.0898ZM198.663 62.9078L206.559 99.3179L209.491 98.6821L201.595 62.2719L198.663 62.9078ZM208.025 97.5H198.656V100.5H208.025V97.5ZM200.138 98.7657L199.275 93.3067L196.311 93.7753L197.175 99.2343L200.138 98.7657ZM197.793 92.041H190.811V95.041H197.793V92.041ZM189.33 93.3L188.441 98.759L191.402 99.241L192.291 93.782L189.33 93.3ZM189.922 97.5H180.578V100.5H189.922V97.5ZM182.044 99.316L189.89 62.9058L186.957 62.2739L179.112 98.684L182.044 99.316ZM192.055 87.6016H196.523V84.6016H192.055V87.6016ZM198.002 85.8486L195.869 73.3818L192.912 73.8877L195.045 86.3545L198.002 85.8486ZM194.391 72.1348H194.137V75.1348H194.391V72.1348ZM192.657 73.3877L190.575 85.8545L193.534 86.3486L195.616 73.8819L192.657 73.3877Z" fill="black" mask="url(#path-2-outside-1_13_957)"/>
</svg>
