<svg width="412" height="142" viewBox="0 0 412 142" fill="none" xmlns="http://www.w3.org/2000/svg">
<path d="M7.48547 38.2644C8.21897 38.2644 9.05591 37.907 9.9963 37.1923L10.852 41.3018C9.83643 42.0071 8.46347 42.3551 6.74256 42.3551C4.65491 42.3551 3.00923 41.631 1.80554 40.1734C0.601845 38.7158 0 36.393 0 33.2051C0 30.0172 0.601845 27.7039 1.80554 26.2557C3.00923 24.8075 4.65491 24.0928 6.74256 24.0928C8.61393 24.0928 9.89286 24.3185 10.5981 24.7699L9.5261 28.7571C9.00889 28.3715 8.33181 28.1835 7.49487 28.1835C6.55448 28.1835 5.82099 28.5502 5.30377 29.2837C4.78656 30.0172 4.51385 31.3243 4.51385 33.2051C4.51385 35.0859 4.77716 36.4212 5.30377 37.1641C5.83039 37.907 6.56389 38.2738 7.49487 38.2738L7.48547 38.2644Z" fill="black"/>
<path d="M17.1337 24.4312V37.8881H22.2306V41.9693H12.6387V24.4312H17.1243H17.1337Z" fill="black"/>
<path d="M26.5188 24.4312H32.1611L35.9602 41.9694H31.4464L31.0326 39.3363H27.666L27.2334 41.9694H22.729L26.5094 24.4312H26.5188ZM30.0546 18.4785H33.8538L30.6 22.9453H27.7601L30.0452 18.4785H30.0546ZM28.2679 35.7628H30.4214L29.3963 29.7538H29.2741L28.2679 35.7628Z" fill="black"/>
<path d="M43.6902 31.6249C45.2042 32.5465 46.2386 33.4211 46.7747 34.2486C47.3107 35.0761 47.5834 36.0447 47.5834 37.1638C47.5834 38.7342 47.0568 39.9943 46.0035 40.9347C44.9503 41.8751 43.5115 42.3453 41.6872 42.3453C39.5525 42.3453 37.794 41.8469 36.4304 40.8407L37.3144 37.0039C38.6685 37.9725 39.9569 38.4615 41.17 38.4615C42.4583 38.4615 43.0977 38.0289 43.0977 37.1638C43.0977 36.8158 42.9379 36.4585 42.637 36.1105C42.336 35.7626 41.7154 35.3112 40.8032 34.7752C39.3644 33.9571 38.3394 33.1013 37.7093 32.1985C37.0793 31.2958 36.769 30.2426 36.769 29.0389C36.769 27.5342 37.2956 26.3305 38.3582 25.4278C39.4208 24.5156 40.822 24.0642 42.5805 24.0642C44.3391 24.0642 45.8437 24.3839 47.1226 25.014L46.6242 28.9166C46.2574 28.6815 45.7402 28.4464 45.0726 28.2301C44.4049 28.0138 43.7936 27.8916 43.2388 27.8916C41.9693 27.8916 41.3392 28.3148 41.3392 29.1611C41.3392 29.5561 41.5367 29.951 41.9223 30.3272C42.3078 30.7033 42.9097 31.1359 43.709 31.6155L43.6902 31.6249Z" fill="black"/>
<path d="M49.9534 41.9693V24.4312H54.439V41.9693H49.9534Z" fill="black"/>
<path d="M64.3976 38.2644C65.1311 38.2644 65.968 37.907 66.9084 37.1923L67.7642 41.3018C66.7485 42.0071 65.3756 42.3551 63.6547 42.3551C61.567 42.3551 59.9213 41.631 58.7176 40.1734C57.514 38.7158 56.9121 36.393 56.9121 33.2051C56.9121 30.0172 57.514 27.7039 58.7176 26.2557C59.9213 24.8075 61.567 24.0928 63.6547 24.0928C65.526 24.0928 66.805 24.3185 67.5103 24.7699L66.4382 28.7571C65.921 28.3715 65.2439 28.1835 64.407 28.1835C63.4666 28.1835 62.7331 28.5502 62.2159 29.2837C61.6987 30.0172 61.426 31.3243 61.426 33.2051C61.426 35.0859 61.6893 36.4212 62.2159 37.1641C62.7425 37.907 63.476 38.2738 64.407 38.2738L64.3976 38.2644Z" fill="black"/>
<path d="M71.883 24.4312H77.5253L81.3245 41.9693H76.8106L76.3969 39.3363H73.0303L72.5977 41.9693H68.0933L71.8736 24.4312H71.883ZM73.6321 35.7628H75.7856L74.7606 29.7537H74.6383L73.6321 35.7628Z" fill="black"/>
<path d="M29.2461 7.57935C29.0862 7.77683 28.8981 7.96491 28.6913 8.13418C28.4844 8.30344 28.2587 8.4445 28.0048 8.57616C27.7509 8.70781 27.4688 8.81127 27.1396 8.8865C26.6224 9.01816 26.124 9.03694 25.635 8.95231C25.1554 8.86767 24.7134 8.6984 24.3091 8.4539C23.9047 8.2094 23.5662 7.87088 23.2746 7.46651C22.9831 7.06214 22.7762 6.60135 22.6446 6.08414C22.5223 5.57633 22.4941 5.06852 22.5599 4.57952C22.6258 4.09052 22.7856 3.62975 23.0207 3.21598C23.2558 2.80221 23.5756 2.44484 23.9705 2.13451C24.3655 1.82418 24.8263 1.61733 25.3529 1.48567C25.682 1.40104 25.983 1.36341 26.2557 1.354C26.5284 1.354 26.7917 1.35399 27.0456 1.40101C27.2901 1.44803 27.5346 1.51386 27.7603 1.6079C27.986 1.70194 28.2117 1.81479 28.428 1.93704L28.0236 2.66115C27.6474 2.45427 27.2619 2.29438 26.8669 2.20035C26.472 2.10631 26.03 2.11572 25.541 2.23797C25.146 2.33201 24.7981 2.50128 24.4971 2.73637C24.1962 2.97147 23.9517 3.24417 23.773 3.5733C23.5944 3.90243 23.4721 4.2598 23.4157 4.65477C23.3593 5.04973 23.3875 5.45407 23.4909 5.86784C23.5944 6.28161 23.7542 6.65779 23.9893 6.97752C24.2244 7.29725 24.4877 7.56994 24.8075 7.77682C25.1178 7.98371 25.4657 8.11537 25.8419 8.1906C26.2181 8.26583 26.6036 8.24704 26.9986 8.153C27.4876 8.03075 27.8919 7.84265 28.2023 7.56994C28.5126 7.30663 28.7947 6.9587 29.058 6.55433L29.7163 6.94931C29.5752 7.18441 29.4342 7.40068 29.2649 7.60756L29.2461 7.57935Z" fill="black"/>
<path d="M40.0322 7.19394L39.1389 7.25036L38.1514 5.36021L34.1548 5.6141L33.4025 7.60771L32.5562 7.66414L35.4337 0.0470078L36.2143 0L40.0322 7.19394ZM35.8757 1.00622L34.4369 4.86181L37.7847 4.64551L35.8757 1.00622Z" fill="black"/>
<path d="M47.0758 6.32879C46.9347 6.63912 46.7561 6.89302 46.5398 7.0905C46.3235 7.28798 46.0696 7.42902 45.7781 7.51366C45.4865 7.59829 45.1856 7.62653 44.8565 7.59832C44.3017 7.5513 43.8597 7.39142 43.5117 7.11871C43.1638 6.846 42.8911 6.50745 42.6936 6.11249L43.3331 5.6423C43.5305 5.99964 43.7468 6.28177 43.9913 6.47926C44.2358 6.67674 44.5462 6.78958 44.9317 6.82719C45.3455 6.86481 45.7028 6.74255 45.9944 6.46984C46.2953 6.19713 46.4645 5.76454 46.5116 5.1909L46.9065 0.272705L47.7341 0.338539L47.3391 5.24735C47.3015 5.67053 47.2169 6.02785 47.0758 6.33817V6.32879Z" fill="black"/>
<path d="M57.3073 9.74265L56.4421 9.53576L56.066 7.43869L52.1728 6.48889L50.8656 8.17219L50.0381 7.97472L55.0503 1.56128L55.8027 1.74937L57.3167 9.75203L57.3073 9.74265ZM55.182 2.59571L52.6618 5.84944L55.9249 6.63936L55.182 2.59571Z" fill="black"/>
<path d="M161.445 35.3774V31.7663H166.937V40.4837C165.602 41.725 163.872 42.3457 161.756 42.3457C159.64 42.3457 158.022 41.6216 156.819 40.164C155.615 38.7064 155.013 36.3836 155.013 33.1957C155.013 30.0078 155.653 27.7039 156.932 26.2463C158.211 24.7887 159.894 24.0552 162 24.0552C162.781 24.0552 163.561 24.1304 164.332 24.2903C165.104 24.4501 165.649 24.6382 165.969 24.8451L164.897 28.7101C164.68 28.5502 164.342 28.4091 163.909 28.2963C163.467 28.1834 163.091 28.127 162.771 28.127C160.618 28.127 159.536 29.8103 159.527 33.1769C159.527 35.1047 159.772 36.4306 160.251 37.1547C160.731 37.8788 161.436 38.2456 162.358 38.2456C162.386 38.2456 162.442 38.2456 162.508 38.2362C162.574 38.2362 162.621 38.2268 162.659 38.2268V35.368H161.464L161.445 35.3774Z" fill="black"/>
<path d="M170.595 26.2459C171.733 24.7977 173.304 24.0642 175.288 24.0642C177.272 24.0642 178.842 24.7883 179.99 26.2459C181.128 27.6941 181.701 30.0169 181.701 33.2048C181.701 36.3927 181.128 38.7342 179.99 40.1824C178.852 41.6306 177.281 42.3547 175.288 42.3547C173.294 42.3547 171.733 41.6306 170.595 40.1824C169.457 38.7342 168.884 36.4115 168.884 33.2048C168.884 29.998 169.457 27.6941 170.595 26.2459ZM173.868 37.1732C174.197 37.8973 174.667 38.264 175.288 38.264C175.908 38.264 176.379 37.8973 176.708 37.1732C177.037 36.4491 177.197 35.1231 177.197 33.1953C177.197 31.2676 177.037 29.9792 176.708 29.2457C176.379 28.5122 175.908 28.1455 175.288 28.1455C174.667 28.1455 174.197 28.5122 173.868 29.2457C173.539 29.9792 173.379 31.2958 173.379 33.1953C173.379 35.0949 173.539 36.4491 173.868 37.1732Z" fill="black"/>
<path d="M190.644 37.0041V24.4312H195.13V36.7878C195.13 38.4711 194.613 39.8253 193.588 40.8315C192.563 41.8377 191.246 42.3455 189.648 42.3455C188.049 42.3455 186.732 41.8377 185.717 40.8315C184.701 39.8253 184.193 38.4711 184.193 36.7878V24.4312H188.679V37.0041C188.679 37.3709 188.773 37.6718 188.952 37.9069C189.14 38.142 189.365 38.2642 189.648 38.2642C189.93 38.2642 190.165 38.1514 190.353 37.9069C190.541 37.6718 190.644 37.3709 190.644 37.0041Z" fill="black"/>
<path d="M207.318 34.3244C208.164 34.5971 208.709 35.3964 208.954 36.7318L209.894 41.9697H205.183L204.365 37.1173C204.205 36.2992 203.725 35.8948 202.935 35.8854H202.719V41.9791H198.233V24.4409H204.374C205.888 24.4409 207.129 24.9299 208.079 25.8985C209.029 26.8671 209.509 28.1837 209.509 29.8388C209.509 31.8136 208.775 33.2712 207.318 34.2209V34.3432V34.3244ZM203.358 32.359C203.857 32.359 204.261 32.1803 204.581 31.8229C204.901 31.4656 205.061 31.0048 205.061 30.45C205.061 29.8952 204.901 29.4156 204.581 29.0582C204.261 28.7009 203.857 28.5222 203.358 28.5222H202.71V32.359H203.358Z" fill="black"/>
<path d="M219.486 33.0075L222.185 24.4312H226.793V41.9693H222.439V34.6061H222.326L219.975 41.9693H218.903L216.571 34.6061H216.477V41.9693H212.123V24.4312H216.731L219.43 33.0075H219.477H219.486Z" fill="black"/>
<path d="M234.306 35.3302V37.8881H240.071V41.9693H229.821V24.4312H239.911V28.5124H234.306V31.6439H239.356V35.3302H234.306Z" fill="black"/>
<path d="M241.463 28.5222V24.4409H252.362V28.5222H249.146V41.9791H244.67V28.5222H241.463Z" fill="black"/>
<path d="M192.516 7.57946C192.356 7.77694 192.168 7.96501 191.961 8.13428C191.754 8.30355 191.528 8.44461 191.275 8.57626C191.021 8.70792 190.739 8.81138 190.409 8.88661C189.892 9.01826 189.394 9.03705 188.905 8.95241C188.425 8.86778 187.983 8.69851 187.579 8.45401C187.174 8.20951 186.836 7.87098 186.544 7.46661C186.253 7.06225 186.046 6.60146 185.914 6.08425C185.792 5.57644 185.764 5.06862 185.83 4.57962C185.896 4.09062 186.055 3.62985 186.291 3.21608C186.526 2.80231 186.845 2.44494 187.24 2.13462C187.635 1.83369 188.096 1.61743 188.623 1.48578C188.952 1.40114 189.253 1.36351 189.525 1.35411C189.798 1.3447 190.061 1.3541 190.315 1.40112C190.56 1.44814 190.804 1.51396 191.03 1.608C191.256 1.70204 191.481 1.81489 191.698 1.93714L191.293 2.66126C190.917 2.45437 190.532 2.29449 190.137 2.20045C189.742 2.10641 189.3 2.11582 188.811 2.23807C188.416 2.33211 188.068 2.50138 187.767 2.73648C187.466 2.97157 187.222 3.24427 187.043 3.5734C186.864 3.90254 186.742 4.25991 186.685 4.65487C186.629 5.04983 186.657 5.45418 186.761 5.86795C186.864 6.28172 187.024 6.65789 187.259 6.97762C187.494 7.29736 187.758 7.57004 188.077 7.77693C188.388 7.98381 188.736 8.11547 189.112 8.1907C189.488 8.26593 189.873 8.24714 190.268 8.15311C190.757 8.03086 191.162 7.84275 191.472 7.57004C191.782 7.29733 192.064 6.9588 192.328 6.55444L192.986 6.94941C192.845 7.18451 192.704 7.40078 192.535 7.60767L192.516 7.57946Z" fill="black"/>
<path d="M203.302 7.19394L202.409 7.25036L201.421 5.36021L197.425 5.6141L196.672 7.60771L195.826 7.66414L198.704 0.0470078L199.484 0L203.302 7.19394ZM199.145 1.00622L197.707 4.86181L201.054 4.64551L199.145 1.00622Z" fill="black"/>
<path d="M210.346 6.32879C210.205 6.63912 210.026 6.89302 209.81 7.0905C209.593 7.28798 209.339 7.42902 209.048 7.51366C208.756 7.59829 208.455 7.62653 208.126 7.59832C207.571 7.5513 207.129 7.39142 206.782 7.11871C206.434 6.846 206.161 6.50745 205.963 6.11249L206.603 5.6423C206.8 5.99964 207.017 6.28177 207.261 6.47926C207.506 6.67674 207.816 6.78958 208.202 6.82719C208.615 6.86481 208.973 6.74255 209.264 6.46984C209.565 6.19713 209.734 5.76454 209.781 5.1909L210.176 0.272705L211.004 0.338539L210.609 5.24735C210.571 5.67053 210.487 6.02785 210.346 6.33817V6.32879Z" fill="black"/>
<path d="M220.586 9.74265L219.721 9.53576L219.345 7.43869L215.452 6.48889L214.145 8.17219L213.317 7.97472L218.329 1.56128L219.082 1.74937L220.596 9.75203L220.586 9.74265ZM218.452 2.59571L215.931 5.84944L219.195 6.63936L218.452 2.59571Z" fill="black"/>
<path d="M341.877 38.2637C342.611 38.2637 343.448 37.9063 344.388 37.1916L345.244 41.3011C344.228 42.0064 342.855 42.3543 341.134 42.3543C339.047 42.3543 337.401 41.6302 336.197 40.1726C334.994 38.715 334.392 36.3923 334.392 33.2044C334.392 30.0165 334.994 27.7031 336.197 26.2549C337.401 24.8068 339.047 24.092 341.134 24.092C343.006 24.092 344.285 24.3177 344.99 24.7691L343.918 28.7564C343.401 28.3708 342.724 28.1827 341.887 28.1827C340.946 28.1827 340.213 28.5495 339.696 29.283C339.178 30.0165 338.906 31.3236 338.906 33.2044C338.906 35.0851 339.169 36.4205 339.696 37.1634C340.222 37.9063 340.956 38.2731 341.887 38.2731L341.877 38.2637Z" fill="black"/>
<path d="M353.905 31.2205V24.4309H358.343V41.9691H353.905V35.5557H351.469V41.9691H347.04V24.4309H351.469V31.2205H353.905Z" fill="black"/>
<path d="M362.5 26.2457C363.638 24.7975 365.208 24.064 367.192 24.064C369.177 24.064 370.747 24.7881 371.894 26.2457C373.032 27.6939 373.606 30.0166 373.606 33.2045C373.606 36.3924 373.032 38.734 371.894 40.1822C370.756 41.6304 369.186 42.3545 367.192 42.3545C365.199 42.3545 363.638 41.6304 362.5 40.1822C361.362 38.734 360.788 36.4112 360.788 33.2045C360.788 29.9978 361.362 27.6939 362.5 26.2457ZM365.782 37.1729C366.111 37.897 366.581 38.2638 367.202 38.2638C367.822 38.2638 368.293 37.897 368.622 37.1729C368.951 36.4488 369.111 35.1229 369.111 33.1951C369.111 31.2673 368.951 29.979 368.622 29.2455C368.293 28.512 367.822 28.1452 367.202 28.1452C366.581 28.1452 366.111 28.512 365.782 29.2455C365.453 29.979 365.293 31.2955 365.293 33.1951C365.293 35.0947 365.453 36.4488 365.782 37.1729Z" fill="black"/>
<path d="M382.953 38.2637C383.687 38.2637 384.524 37.9063 385.464 37.1916L386.32 41.3011C385.304 42.0064 383.931 42.3543 382.21 42.3543C380.123 42.3543 378.477 41.6302 377.273 40.1726C376.07 38.715 375.468 36.3923 375.468 33.2044C375.468 30.0165 376.07 27.7031 377.273 26.2549C378.477 24.8068 380.123 24.092 382.21 24.092C384.082 24.092 385.361 24.3177 386.066 24.7691L384.994 28.7564C384.477 28.3708 383.8 28.1827 382.963 28.1827C382.022 28.1827 381.289 28.5495 380.772 29.283C380.254 30.0165 379.982 31.3236 379.982 33.2044C379.982 35.0851 380.245 36.4205 380.772 37.1634C381.298 37.9063 382.032 38.2731 382.963 38.2731L382.953 38.2637Z" fill="black"/>
<path d="M388.455 26.2457C389.592 24.7975 391.163 24.064 393.147 24.064C395.131 24.064 396.702 24.7881 397.849 26.2457C398.987 27.6939 399.561 30.0166 399.561 33.2045C399.561 36.3924 398.987 38.734 397.849 40.1822C396.711 41.6304 395.141 42.3545 393.147 42.3545C391.153 42.3545 389.592 41.6304 388.455 40.1822C387.317 38.734 386.743 36.4112 386.743 33.2045C386.743 29.9978 387.317 27.6939 388.455 26.2457ZM391.736 37.1729C392.066 37.897 392.536 38.2638 393.156 38.2638C393.777 38.2638 394.247 37.897 394.576 37.1729C394.906 36.4488 395.065 35.1229 395.065 33.1951C395.065 31.2673 394.906 29.979 394.576 29.2455C394.247 28.512 393.777 28.1452 393.156 28.1452C392.536 28.1452 392.066 28.512 391.736 29.2455C391.407 29.979 391.247 31.2955 391.247 33.1951C391.247 35.0947 391.407 36.4488 391.736 37.1729Z" fill="black"/>
<path d="M356.096 7.57935C355.936 7.77683 355.748 7.96491 355.541 8.13418C355.334 8.30344 355.108 8.4445 354.855 8.57616C354.601 8.70781 354.318 8.81127 353.989 8.8865C353.472 9.01816 352.974 9.03694 352.485 8.95231C352.005 8.86767 351.563 8.6984 351.159 8.4539C350.754 8.2094 350.416 7.87088 350.124 7.46651C349.833 7.06214 349.626 6.60135 349.494 6.08414C349.372 5.57633 349.344 5.06852 349.41 4.57952C349.476 4.09052 349.635 3.62975 349.87 3.21598C350.106 2.80221 350.425 2.44484 350.82 2.13451C351.215 1.82418 351.676 1.61733 352.203 1.48567C352.532 1.40104 352.833 1.36341 353.105 1.354C353.378 1.354 353.641 1.35399 353.895 1.40101C354.14 1.44803 354.384 1.51386 354.61 1.6079C354.836 1.70194 355.061 1.81479 355.278 1.93704L354.873 2.66115C354.497 2.45427 354.112 2.29438 353.717 2.20035C353.322 2.10631 352.88 2.11572 352.391 2.23797C351.996 2.33201 351.648 2.50128 351.347 2.73637C351.046 2.97147 350.801 3.24417 350.623 3.5733C350.444 3.90243 350.322 4.2598 350.265 4.65477C350.209 5.04973 350.237 5.45407 350.341 5.86784C350.444 6.28161 350.604 6.65779 350.839 6.97752C351.074 7.29725 351.337 7.56994 351.657 7.77682C351.968 7.98371 352.315 8.11537 352.692 8.1906C353.068 8.26583 353.453 8.24704 353.848 8.153C354.337 8.03075 354.742 7.84265 355.052 7.56994C355.362 7.30663 355.644 6.9587 355.908 6.55433L356.566 6.94931C356.425 7.18441 356.284 7.40068 356.115 7.60756L356.096 7.57935Z" fill="black"/>
<path d="M366.882 7.19394L365.989 7.25036L365.001 5.36021L361.005 5.6141L360.252 7.60771L359.406 7.66414L362.284 0.0470078L363.064 0L366.882 7.19394ZM362.726 1.00622L361.287 4.86181L364.635 4.64551L362.726 1.00622Z" fill="black"/>
<path d="M373.935 6.32879C373.794 6.63912 373.615 6.89302 373.399 7.0905C373.183 7.28798 372.929 7.42902 372.637 7.51366C372.346 7.59829 372.045 7.62653 371.716 7.59832C371.161 7.5513 370.719 7.39142 370.371 7.11871C370.023 6.846 369.75 6.50745 369.553 6.11249L370.192 5.6423C370.39 5.99964 370.606 6.28177 370.85 6.47926C371.095 6.67674 371.405 6.78958 371.791 6.82719C372.205 6.86481 372.562 6.74255 372.853 6.46984C373.154 6.19713 373.324 5.76454 373.371 5.1909L373.766 0.272705L374.593 0.338539L374.198 5.24735C374.161 5.67053 374.076 6.02785 373.935 6.33817V6.32879Z" fill="black"/>
<path d="M384.166 9.74265L383.301 9.53576L382.925 7.43869L379.032 6.48889L377.725 8.17219L376.897 7.97472L381.909 1.56128L382.662 1.74937L384.176 9.75203L384.166 9.74265ZM382.041 2.59571L379.521 5.84944L382.784 6.63936L382.041 2.59571Z" fill="black"/>
<path d="M11.7925 103.799C13.2313 103.799 14.4256 104.41 15.3848 105.642C16.344 106.874 16.833 108.379 16.833 110.175C16.833 111.971 16.3628 113.494 15.413 114.642C14.4632 115.789 13.2595 116.353 11.7925 116.353H9.46977V121.347H4.98413V103.808H11.7925V103.799ZM10.4666 112.357C11.0402 112.357 11.4822 112.14 11.8113 111.698C12.1405 111.266 12.3003 110.749 12.3003 110.147C12.3003 109.545 12.1405 108.999 11.8113 108.567C11.4822 108.134 11.0402 107.909 10.4666 107.909H9.47917V112.347H10.4666V112.357Z" fill="black"/>
<path d="M18.7795 121.347V103.809H23.2652V121.347H18.7795Z" fill="black"/>
<path d="M33.224 117.632C33.9575 117.632 34.7944 117.275 35.7348 116.56L36.5906 120.67C35.575 121.375 34.202 121.723 32.4811 121.723C30.3934 121.723 28.7478 120.999 27.5441 119.541C26.3404 118.084 25.7385 115.761 25.7385 112.573C25.7385 109.385 26.3404 107.072 27.5441 105.624C28.7478 104.175 30.3934 103.461 32.4811 103.461C34.3525 103.461 35.6314 103.686 36.3367 104.138L35.2646 108.125C34.7474 107.739 34.0703 107.551 33.2334 107.551C32.293 107.551 31.5595 107.918 31.0423 108.652C30.5251 109.385 30.2524 110.692 30.2524 112.573C30.2524 114.454 30.5157 115.789 31.0423 116.532C31.5689 117.275 32.3024 117.642 33.2334 117.642L33.224 117.632Z" fill="black"/>
<path d="M40.7094 103.799H46.3517L50.1509 121.337H45.637L45.2233 118.704H41.8567L41.4241 121.337H36.9197L40.7 103.799H40.7094ZM42.4585 115.131H44.612L43.587 109.122H43.4648L42.4585 115.131Z" fill="black"/>
<path d="M57.0628 103.799C58.8965 103.799 60.4012 104.627 61.586 106.272C62.7709 107.918 63.354 110.024 63.354 112.582C63.354 115.14 62.7615 117.237 61.586 118.883C60.4106 120.529 58.8965 121.347 57.0628 121.347H51.5427V103.808H57.0628V103.799ZM56.4045 117.256C57.1192 117.256 57.7117 116.814 58.163 115.939C58.6144 115.065 58.8401 113.936 58.8401 112.573C58.8401 111.209 58.6144 110.081 58.163 109.206C57.7117 108.332 57.1286 107.89 56.4045 107.89H56.0378V117.256H56.4045Z" fill="black"/>
<path d="M67.5293 103.799H73.1716L76.9707 121.337H72.4569L72.0431 118.704H68.6765L68.2439 121.337H63.7395L67.5199 103.799H67.5293ZM69.269 115.131H71.4225L70.3974 109.122H70.2752L69.269 115.131Z" fill="black"/>
<path d="M29.2461 86.9475C29.0862 87.145 28.8981 87.3331 28.6913 87.5023C28.4844 87.6716 28.2587 87.8127 28.0048 87.9443C27.7509 88.076 27.4688 88.1794 27.1396 88.2547C26.6224 88.3863 26.124 88.4051 25.635 88.3205C25.1554 88.2359 24.7134 88.0666 24.3091 87.8221C23.9047 87.5776 23.5662 87.239 23.2746 86.8347C22.9831 86.4303 22.7762 85.9695 22.6446 85.4523C22.5223 84.9445 22.4941 84.4367 22.5599 83.9477C22.6258 83.4587 22.7856 82.9979 23.0207 82.5841C23.2558 82.1704 23.5756 81.813 23.9705 81.5027C24.3655 81.1924 24.8263 80.9855 25.3529 80.8538C25.682 80.7692 25.983 80.7316 26.2557 80.7222C26.5284 80.7222 26.7917 80.7222 27.0456 80.7692C27.2901 80.8162 27.5346 80.8821 27.7603 80.9761C27.986 81.0701 28.2117 81.183 28.428 81.3052L28.0236 82.0293C27.6474 81.8224 27.2619 81.6625 26.8669 81.5685C26.472 81.4745 26.03 81.4839 25.541 81.6061C25.146 81.7002 24.7981 81.8694 24.4971 82.1045C24.1962 82.3396 23.9517 82.6124 23.773 82.9415C23.5944 83.2706 23.4721 83.628 23.4157 84.0229C23.3593 84.4179 23.3875 84.8223 23.4909 85.236C23.5944 85.6498 23.7542 86.026 23.9893 86.3457C24.2244 86.6654 24.4877 86.9381 24.8075 87.145C25.1178 87.3519 25.4657 87.4836 25.8419 87.5588C26.2181 87.634 26.6036 87.6152 26.9986 87.5212C27.4876 87.3989 27.8919 87.2108 28.2023 86.9381C28.5126 86.6748 28.7947 86.3269 29.058 85.9225L29.7163 86.3175C29.5752 86.5526 29.4342 86.7688 29.2649 86.9757L29.2461 86.9475Z" fill="black"/>
<path d="M40.0322 86.5619L39.1389 86.6183L38.1514 84.7281L34.1548 84.982L33.4025 86.9756L32.5562 87.0321L35.4337 79.415L36.2143 79.3679L40.0322 86.5619ZM35.8757 80.3741L34.4369 84.2297L37.7847 84.0134L35.8757 80.3741Z" fill="black"/>
<path d="M47.0758 85.6967C46.9347 86.007 46.7561 86.2609 46.5398 86.4584C46.3235 86.6559 46.0696 86.797 45.7781 86.8816C45.4865 86.9662 45.1856 86.9944 44.8565 86.9662C44.3017 86.9192 43.8597 86.7593 43.5117 86.4866C43.1638 86.2139 42.8911 85.8754 42.6936 85.4804L43.3331 85.0102C43.5305 85.3676 43.7468 85.6497 43.9913 85.8472C44.2358 86.0447 44.5462 86.1575 44.9317 86.1951C45.3455 86.2327 45.7028 86.1105 45.9944 85.8378C46.2953 85.5651 46.4645 85.1325 46.5116 84.5589L46.9065 79.6406L47.7341 79.7065L47.3391 84.6153C47.3015 85.0384 47.2169 85.3958 47.0758 85.7061V85.6967Z" fill="black"/>
<path d="M57.3073 89.1106L56.4421 88.9037L56.066 86.8066L52.1728 85.8568L50.8656 87.5401L50.0381 87.3426L55.0503 80.9292L55.8027 81.1173L57.3167 89.1199L57.3073 89.1106ZM55.182 81.9636L52.6618 85.2174L55.9249 86.0073L55.182 81.9636Z" fill="black"/>
<path d="M164.323 117.633C165.056 117.633 165.893 117.275 166.834 116.561L167.689 120.67C166.674 121.375 165.301 121.723 163.58 121.723C161.492 121.723 159.847 120.999 158.643 119.542C157.439 118.084 156.837 115.761 156.837 112.573C156.837 109.385 157.439 107.072 158.643 105.624C159.847 104.176 161.492 103.461 163.58 103.461C165.451 103.461 166.73 103.687 167.436 104.138L166.364 108.125C165.846 107.74 165.169 107.552 164.332 107.552C163.392 107.552 162.658 107.918 162.141 108.652C161.624 109.385 161.351 110.693 161.351 112.573C161.351 114.454 161.615 115.789 162.141 116.532C162.668 117.275 163.401 117.642 164.332 117.642L164.323 117.633Z" fill="black"/>
<path d="M169.834 105.615C170.971 104.166 172.542 103.433 174.526 103.433C176.51 103.433 178.081 104.157 179.228 105.615C180.366 107.063 180.94 109.386 180.94 112.573C180.94 115.761 180.366 118.103 179.228 119.551C178.09 120.999 176.52 121.723 174.526 121.723C172.532 121.723 170.971 120.999 169.834 119.551C168.696 118.103 168.122 115.78 168.122 112.573C168.122 109.367 168.696 107.063 169.834 105.615ZM173.106 116.551C173.435 117.275 173.905 117.642 174.526 117.642C175.147 117.642 175.617 117.275 175.946 116.551C176.275 115.827 176.435 114.501 176.435 112.573C176.435 110.646 176.275 109.357 175.946 108.624C175.617 107.89 175.147 107.524 174.526 107.524C173.905 107.524 173.435 107.89 173.106 108.624C172.777 109.357 172.617 110.674 172.617 112.573C172.617 114.473 172.777 115.827 173.106 116.551Z" fill="black"/>
<path d="M190.277 117.632C191.011 117.632 191.848 117.275 192.788 116.56L193.644 120.67C192.628 121.375 191.255 121.723 189.535 121.723C187.447 121.723 185.801 120.999 184.598 119.541C183.394 118.084 182.792 115.761 182.792 112.573C182.792 109.385 183.394 107.072 184.598 105.624C185.801 104.175 187.447 103.461 189.535 103.461C191.406 103.461 192.685 103.686 193.39 104.138L192.318 108.125C191.801 107.739 191.124 107.551 190.287 107.551C189.346 107.551 188.613 107.918 188.096 108.652C187.579 109.385 187.306 110.692 187.306 112.573C187.306 114.454 187.569 115.789 188.096 116.532C188.622 117.275 189.356 117.642 190.287 117.642L190.277 117.632Z" fill="black"/>
<path d="M207.364 103.799L204.186 110.768L207.966 121.338H203.057L200.697 114.52H200.575L199.926 115.996V121.328H195.44V103.79H199.926V110.006H200.076L202.662 103.79H207.374L207.364 103.799Z" fill="black"/>
<path d="M208.54 107.89V103.809H219.439V107.89H216.223V121.347H211.747V107.89H208.54Z" fill="black"/>
<path d="M222.363 103.8H228.006L231.805 121.338H227.291L226.877 118.705H223.511L223.078 121.338H218.574L222.354 103.8H222.363ZM224.113 115.131H226.266L225.241 109.122H225.119L224.113 115.131Z" fill="black"/>
<path d="M233.197 121.347V103.809H237.682V121.347H233.197Z" fill="black"/>
<path d="M245.271 103.8V117.256H250.368V121.338H240.776V103.8H245.262H245.271Z" fill="black"/>
<path d="M192.516 86.9474C192.356 87.1449 192.168 87.3329 191.961 87.5022C191.754 87.6715 191.528 87.8125 191.274 87.9442C191.02 88.0758 190.738 88.1793 190.409 88.2545C189.892 88.3862 189.394 88.405 188.905 88.3204C188.425 88.2357 187.983 88.0665 187.579 87.822C187.174 87.5775 186.836 87.2389 186.544 86.8345C186.253 86.4302 186.046 85.9694 185.914 85.4522C185.792 84.9444 185.764 84.4365 185.829 83.9475C185.895 83.4585 186.055 82.9978 186.29 82.584C186.525 82.1702 186.845 81.8129 187.24 81.5026C187.635 81.2016 188.096 80.9853 188.622 80.8537C188.952 80.7691 189.252 80.7314 189.525 80.722C189.798 80.7126 190.061 80.722 190.315 80.7691C190.56 80.8161 190.804 80.8819 191.03 80.9759C191.256 81.07 191.481 81.1828 191.697 81.3051L191.293 82.0292C190.917 81.8223 190.531 81.6624 190.136 81.5684C189.741 81.4743 189.3 81.4837 188.811 81.606C188.416 81.7 188.068 81.8693 187.767 82.1044C187.466 82.3395 187.221 82.6122 187.043 82.9413C186.864 83.2705 186.742 83.6278 186.685 84.0228C186.629 84.4177 186.657 84.8221 186.76 85.2359C186.864 85.6497 187.024 86.0258 187.259 86.3455C187.494 86.6653 187.757 86.938 188.077 87.1449C188.387 87.3518 188.735 87.4834 189.111 87.5586C189.488 87.6339 189.873 87.6151 190.268 87.521C190.757 87.3988 191.161 87.2107 191.472 86.938C191.782 86.6653 192.064 86.3267 192.328 85.9224L192.986 86.3173C192.845 86.5524 192.704 86.7687 192.534 86.9756L192.516 86.9474Z" fill="black"/>
<path d="M203.302 86.5619L202.408 86.6183L201.421 84.7281L197.424 84.982L196.672 86.9756L195.826 87.0321L198.703 79.415L199.484 79.3679L203.302 86.5619ZM199.145 80.3741L197.706 84.2297L201.054 84.0134L199.145 80.3741Z" fill="black"/>
<path d="M210.345 85.6967C210.204 86.007 210.026 86.2609 209.809 86.4584C209.593 86.6559 209.339 86.797 209.048 86.8816C208.756 86.9662 208.455 86.9944 208.126 86.9662C207.571 86.9192 207.129 86.7593 206.781 86.4866C206.433 86.2139 206.161 85.8754 205.963 85.4804L206.603 85.0102C206.8 85.3676 207.016 85.6497 207.261 85.8472C207.505 86.0447 207.816 86.1575 208.201 86.1951C208.615 86.2327 208.972 86.1105 209.264 85.8378C209.565 85.5651 209.734 85.1325 209.781 84.5589L210.176 79.6406L211.004 79.7065L210.609 84.6153C210.571 85.0384 210.486 85.3958 210.345 85.7061V85.6967Z" fill="black"/>
<path d="M220.586 89.1106L219.721 88.9037L219.345 86.8066L215.452 85.8568L214.144 87.5401L213.317 87.3426L218.329 80.9292L219.081 81.1173L220.595 89.1199L220.586 89.1106ZM218.451 81.9636L215.931 85.2174L219.194 86.0073L218.451 81.9636Z" fill="black"/>
<path d="M329.906 110.796V103.8H334.382V121.338H331.486L327.903 114.379H327.856V121.338H323.342V103.8H326.248L329.821 110.796H329.906Z" fill="black"/>
<path d="M339.573 103.799H345.216L349.015 121.337H344.501L344.087 118.704H340.72L340.288 121.337H335.783L339.564 103.799H339.573ZM341.322 115.131H343.476L342.451 109.122H342.329L341.322 115.131Z" fill="black"/>
<path d="M348.131 107.89V103.809H359.03V107.89H355.814V121.347H351.337V107.89H348.131Z" fill="black"/>
<path d="M367.39 116.372V103.799H371.875V116.156C371.875 117.839 371.358 119.193 370.333 120.2C369.308 121.206 367.992 121.714 366.393 121.714C364.794 121.714 363.478 121.206 362.462 120.2C361.447 119.193 360.939 117.839 360.939 116.156V103.799H365.424V116.372C365.424 116.739 365.518 117.04 365.697 117.275C365.885 117.51 366.111 117.632 366.393 117.632C366.675 117.632 366.91 117.52 367.098 117.275C367.286 117.04 367.39 116.739 367.39 116.372Z" fill="black"/>
<path d="M384.053 113.702C384.9 113.974 385.445 114.774 385.69 116.109L386.63 121.347H381.919L381.101 116.495C380.941 115.676 380.461 115.272 379.671 115.263H379.455V121.356H374.969V103.818H381.11C382.624 103.818 383.865 104.307 384.815 105.276C385.765 106.244 386.245 107.561 386.245 109.216C386.245 111.191 385.511 112.648 384.053 113.598V113.72V113.702ZM380.104 111.727C380.602 111.727 381.007 111.548 381.326 111.191C381.646 110.833 381.806 110.373 381.806 109.818C381.806 109.263 381.646 108.783 381.326 108.426C381.007 108.069 380.602 107.89 380.104 107.89H379.455V111.727H380.104Z" fill="black"/>
<path d="M391.238 103.799H396.88L400.679 121.337H396.166L395.752 118.704H392.385L391.953 121.337H387.448L391.229 103.799H391.238ZM392.987 115.131H395.141L394.116 109.122H393.993L392.987 115.131Z" fill="black"/>
<path d="M406.566 103.799V117.256H411.663V121.337H402.071V103.799H406.557H406.566Z" fill="black"/>
<path d="M340.608 137.522C340.655 137.644 340.739 137.757 340.871 137.851C340.993 137.955 341.172 138.039 341.398 138.124C341.623 138.209 341.905 138.284 342.253 138.359C342.959 138.519 343.476 138.735 343.805 139.008C344.134 139.281 344.303 139.666 344.303 140.155C344.303 140.428 344.247 140.673 344.143 140.898C344.04 141.124 343.89 141.312 343.702 141.462C343.513 141.622 343.288 141.735 343.024 141.82C342.761 141.904 342.47 141.942 342.159 141.942C341.651 141.942 341.191 141.857 340.777 141.698C340.363 141.538 339.959 141.284 339.583 140.945L340.025 140.419C340.354 140.72 340.692 140.945 341.021 141.086C341.36 141.237 341.746 141.312 342.187 141.312C342.629 141.312 342.959 141.209 343.213 141.011C343.466 140.814 343.598 140.55 343.598 140.231C343.598 140.08 343.57 139.948 343.523 139.826C343.476 139.713 343.391 139.6 343.269 139.506C343.147 139.412 342.977 139.318 342.771 139.243C342.554 139.168 342.282 139.093 341.952 139.017C341.595 138.942 341.275 138.848 341.012 138.745C340.739 138.641 340.523 138.519 340.344 138.378C340.166 138.237 340.043 138.068 339.959 137.87C339.874 137.673 339.837 137.447 339.837 137.184C339.837 136.92 339.884 136.704 339.987 136.488C340.09 136.281 340.231 136.093 340.42 135.942C340.608 135.792 340.824 135.67 341.078 135.585C341.332 135.5 341.604 135.453 341.905 135.453C342.366 135.453 342.771 135.519 343.118 135.641C343.466 135.773 343.796 135.961 344.125 136.215L343.711 136.76C343.419 136.516 343.118 136.347 342.827 136.234C342.535 136.121 342.216 136.074 341.896 136.074C341.689 136.074 341.51 136.102 341.341 136.159C341.172 136.215 341.031 136.281 340.918 136.375C340.805 136.469 340.711 136.572 340.645 136.704C340.579 136.826 340.551 136.967 340.551 137.108C340.551 137.249 340.579 137.391 340.626 137.513L340.608 137.522Z" fill="black"/>
<path d="M348.338 135.547V141.857H347.623V135.547H348.338Z" fill="black"/>
<path d="M356.632 135.547H357.328V141.857H356.763L352.692 136.685V141.857H351.996V135.547H352.663L356.641 140.606V135.547H356.632Z" fill="black"/>
<path d="M367.804 141.857H367.089V136.205H364.973V135.547H369.919V136.205H367.804V141.857Z" fill="black"/>
<path d="M378.138 141.857H377.367L376.624 140.193H373.192L372.44 141.857H371.706L374.584 135.5H375.251L378.129 141.857H378.138ZM374.922 136.337L373.484 139.553H376.361L374.932 136.337H374.922Z" fill="black"/>
<path d="M385.718 141.312C385.539 141.443 385.351 141.566 385.144 141.66C384.937 141.754 384.721 141.829 384.486 141.885C384.251 141.942 383.988 141.97 383.706 141.97C383.245 141.97 382.831 141.886 382.445 141.716C382.06 141.547 381.731 141.321 381.449 141.03C381.167 140.738 380.941 140.39 380.781 139.995C380.621 139.6 380.546 139.168 380.546 138.716C380.546 138.265 380.621 137.842 380.781 137.447C380.941 137.052 381.157 136.704 381.449 136.403C381.731 136.102 382.069 135.867 382.455 135.698C382.85 135.528 383.273 135.444 383.734 135.444C384.025 135.444 384.279 135.472 384.514 135.519C384.749 135.566 384.966 135.632 385.163 135.726C385.361 135.82 385.549 135.914 385.709 136.036C385.878 136.159 386.038 136.3 386.198 136.45L385.709 136.977C385.436 136.723 385.144 136.516 384.834 136.356C384.524 136.196 384.157 136.112 383.724 136.112C383.376 136.112 383.057 136.177 382.756 136.309C382.455 136.441 382.201 136.629 381.975 136.854C381.75 137.08 381.58 137.362 381.458 137.682C381.336 137.992 381.27 138.34 381.27 138.707C381.27 139.074 381.336 139.412 381.458 139.732C381.58 140.052 381.75 140.324 381.975 140.56C382.201 140.795 382.455 140.983 382.756 141.114C383.057 141.246 383.376 141.321 383.724 141.321C384.157 141.321 384.533 141.246 384.843 141.086C385.154 140.926 385.464 140.701 385.765 140.418L386.235 140.879C386.075 141.049 385.906 141.199 385.727 141.331L385.718 141.312Z" fill="black"/>
<path d="M394.003 141.312C393.824 141.443 393.636 141.566 393.429 141.66C393.222 141.754 393.006 141.829 392.771 141.885C392.536 141.942 392.272 141.97 391.99 141.97C391.529 141.97 391.116 141.886 390.73 141.716C390.345 141.547 390.015 141.321 389.733 141.03C389.451 140.738 389.226 140.39 389.066 139.995C388.906 139.6 388.831 139.168 388.831 138.716C388.831 138.265 388.906 137.842 389.066 137.447C389.226 137.052 389.442 136.704 389.733 136.403C390.015 136.102 390.354 135.867 390.74 135.698C391.135 135.528 391.558 135.444 392.018 135.444C392.31 135.444 392.564 135.472 392.799 135.519C393.034 135.566 393.25 135.632 393.448 135.726C393.645 135.82 393.833 135.914 393.993 136.036C394.163 136.159 394.322 136.3 394.482 136.45L393.993 136.977C393.721 136.723 393.429 136.516 393.119 136.356C392.808 136.196 392.442 136.112 392.009 136.112C391.661 136.112 391.341 136.177 391.04 136.309C390.74 136.441 390.486 136.629 390.26 136.854C390.034 137.08 389.865 137.362 389.743 137.682C389.62 137.992 389.555 138.34 389.555 138.707C389.555 139.074 389.62 139.412 389.743 139.732C389.865 140.052 390.034 140.324 390.26 140.56C390.486 140.795 390.74 140.983 391.04 141.114C391.341 141.246 391.661 141.321 392.009 141.321C392.442 141.321 392.818 141.246 393.128 141.086C393.438 140.926 393.749 140.701 394.05 140.418L394.52 140.879C394.36 141.049 394.191 141.199 394.012 141.331L394.003 141.312Z" fill="black"/>
<path d="M356.096 88.763C355.936 88.9605 355.748 89.1485 355.541 89.3178C355.334 89.4871 355.108 89.6281 354.855 89.7598C354.601 89.8914 354.318 89.9949 353.989 90.0701C353.472 90.2017 352.974 90.2206 352.485 90.1359C352.005 90.0513 351.563 89.882 351.159 89.6375C350.754 89.393 350.416 89.0545 350.124 88.6501C349.833 88.2457 349.626 87.7849 349.494 87.2677C349.372 86.7599 349.344 86.2521 349.41 85.7631C349.476 85.2741 349.635 84.8133 349.87 84.3996C350.106 83.9858 350.425 83.6285 350.82 83.3181C351.215 83.0078 351.676 82.8009 352.203 82.6693C352.532 82.5846 352.833 82.547 353.105 82.5376C353.378 82.5376 353.641 82.5376 353.895 82.5846C354.14 82.6317 354.384 82.6975 354.61 82.7915C354.836 82.8856 355.061 82.9984 355.278 83.1207L354.873 83.8447C354.497 83.6379 354.112 83.478 353.717 83.384C353.322 83.2899 352.88 83.2993 352.391 83.4216C351.996 83.5156 351.648 83.6849 351.347 83.92C351.046 84.1551 350.801 84.4278 350.623 84.7569C350.444 85.0861 350.322 85.4434 350.265 85.8384C350.209 86.2333 350.237 86.6377 350.341 87.0515C350.444 87.4652 350.604 87.8414 350.839 88.1611C351.074 88.4808 351.337 88.7536 351.657 88.9604C351.968 89.1673 352.315 89.299 352.692 89.3742C353.068 89.4494 353.453 89.4306 353.848 89.3366C354.337 89.2143 354.742 89.0263 355.052 88.7536C355.362 88.4903 355.644 88.1423 355.908 87.7379L356.566 88.1329C356.425 88.368 356.284 88.5843 356.115 88.7912L356.096 88.763Z" fill="black"/>
<path d="M366.882 88.3775L365.989 88.434L365.001 86.5438L361.005 86.7977L360.252 88.7913L359.406 88.8477L362.284 81.2306L363.064 81.1836L366.882 88.3775ZM362.726 82.1898L361.287 86.0454L364.635 85.8291L362.726 82.1898Z" fill="black"/>
<path d="M373.935 87.5124C373.794 87.8227 373.615 88.0766 373.399 88.2741C373.183 88.4716 372.929 88.6126 372.637 88.6973C372.346 88.7819 372.045 88.8101 371.716 88.7819C371.161 88.7349 370.719 88.575 370.371 88.3023C370.023 88.0296 369.75 87.6911 369.553 87.2961L370.192 86.8259C370.39 87.1833 370.606 87.4654 370.85 87.6628C371.095 87.8603 371.405 87.9732 371.791 88.0108C372.205 88.0484 372.562 87.9261 372.853 87.6534C373.154 87.3807 373.324 86.9482 373.371 86.3745L373.766 81.4563L374.593 81.5221L374.198 86.4309C374.161 86.8541 374.076 87.2115 373.935 87.5218V87.5124Z" fill="black"/>
<path d="M384.166 90.926L383.301 90.7191L382.925 88.622L379.032 87.6723L377.725 89.3555L376.897 89.1581L381.909 82.7446L382.662 82.9327L384.176 90.9354L384.166 90.926ZM382.041 83.7791L379.521 87.0328L382.784 87.8227L382.041 83.7791Z" fill="black"/>
</svg>
