<svg width="844" height="185" viewBox="0 0 844 185" fill="none" xmlns="http://www.w3.org/2000/svg">
<path d="M21.167 78.4854C26.6602 78.4854 31.1646 80.9512 34.6802 85.8828C38.2202 90.8145 39.9902 97.1133 39.9902 104.779C39.9902 112.421 38.2202 118.708 34.6802 123.639C31.1646 128.546 26.6602 131 21.167 131H4.65088V78.4854H21.167ZM19.1895 118.769C21.3379 118.769 23.0835 117.462 24.4263 114.85C25.7935 112.213 26.4771 108.844 26.4771 104.743C26.4771 100.641 25.7935 97.2842 24.4263 94.6719C23.0835 92.0352 21.3379 90.7168 19.1895 90.7168H18.0908V118.769H19.1895ZM61.6875 111.115V118.769H78.936V131H48.2476V78.4854H78.46V90.7168H61.6875V100.092H76.812V111.115H61.6875ZM126.908 99.4326V78.4854H140.312V131H131.632L120.902 110.163H120.756V131H107.243V78.4854H115.958L126.652 99.4326H126.908ZM169.736 116.132V78.4854H183.176V115.473C183.176 120.526 181.638 124.567 178.562 127.594C175.485 130.622 171.542 132.135 166.733 132.135C161.948 132.135 158.029 130.622 154.978 127.594C151.926 124.567 150.4 120.526 150.4 115.473V78.4854H163.84V116.132C163.84 117.23 164.108 118.134 164.646 118.842C165.207 119.55 165.903 119.904 166.733 119.904C167.587 119.904 168.295 119.55 168.857 118.842C169.443 118.134 169.736 117.23 169.736 116.132ZM206.631 111.115V118.769H223.879V131H193.191V78.4854H223.403V90.7168H206.631V100.092H221.755V111.115H206.631ZM250.997 100.019C255.538 102.777 258.614 105.402 260.225 107.892C261.836 110.358 262.642 113.263 262.642 116.608C262.642 121.32 261.067 125.092 257.918 127.924C254.769 130.731 250.459 132.135 244.991 132.135C238.594 132.135 233.345 130.634 229.244 127.631L231.88 116.132C235.933 119.037 239.778 120.49 243.416 120.49C247.273 120.49 249.202 119.196 249.202 116.608C249.202 115.558 248.738 114.508 247.811 113.458C246.883 112.409 245.052 111.078 242.317 109.467C238.021 107.025 234.932 104.462 233.052 101.776C231.172 99.0664 230.232 95.9048 230.232 92.2915C230.232 87.7993 231.819 84.1982 234.993 81.4883C238.167 78.7539 242.378 77.3867 247.627 77.3867C252.876 77.3867 257.405 78.3389 261.214 80.2432L259.712 91.9253C258.614 91.2173 257.063 90.5337 255.062 89.8745C253.06 89.1909 251.229 88.8491 249.568 88.8491C245.76 88.8491 243.868 90.1187 243.892 92.6577C243.892 93.854 244.478 95.0259 245.65 96.1733C246.822 97.2964 248.604 98.5781 250.997 100.019ZM266.908 90.7168V78.4854H299.537V90.7168H289.906V131H276.502V90.7168H266.908ZM333.173 108.112C335.712 108.917 337.348 111.322 338.08 115.326L340.9 131H326.801L324.347 116.461C323.859 114.02 322.431 112.787 320.062 112.763H319.403V131H305.963V78.4854H324.347C328.888 78.4854 332.587 79.938 335.443 82.8433C338.3 85.7485 339.728 89.6792 339.728 94.6353C339.728 100.543 337.543 104.914 333.173 107.746V108.112ZM321.344 102.216C322.833 102.216 324.054 101.679 325.006 100.604C325.958 99.5303 326.435 98.1631 326.435 96.5029C326.435 94.7939 325.958 93.4023 325.006 92.3281C324.054 91.2539 322.833 90.7168 321.344 90.7168H319.403V102.216H321.344ZM355.419 78.4854H372.302L383.691 131H370.178L368.933 123.126H358.862L357.58 131H344.104L355.419 78.4854ZM360.656 112.396H367.102L364.025 94.4155H363.659L360.656 112.396ZM407.585 100.019C412.126 102.777 415.203 105.402 416.814 107.892C418.425 110.358 419.231 113.263 419.231 116.608C419.231 121.32 417.656 125.092 414.507 127.924C411.357 130.731 407.048 132.135 401.58 132.135C395.183 132.135 389.934 130.634 385.833 127.631L388.469 116.132C392.522 119.037 396.367 120.49 400.005 120.49C403.862 120.49 405.791 119.196 405.791 116.608C405.791 115.558 405.327 114.508 404.399 113.458C403.472 112.409 401.641 111.078 398.906 109.467C394.609 107.025 391.521 104.462 389.641 101.776C387.761 99.0664 386.821 95.9048 386.821 92.2915C386.821 87.7993 388.408 84.1982 391.582 81.4883C394.756 78.7539 398.967 77.3867 404.216 77.3867C409.465 77.3867 413.994 78.3389 417.803 80.2432L416.301 91.9253C415.203 91.2173 413.652 90.5337 411.65 89.8745C409.648 89.1909 407.817 88.8491 406.157 88.8491C402.349 88.8491 400.457 90.1187 400.481 92.6577C400.481 93.854 401.067 95.0259 402.239 96.1733C403.411 97.2964 405.193 98.5781 407.585 100.019ZM467.789 119.904C469.986 119.904 472.489 118.83 475.296 116.681L477.86 128.986C474.808 131.085 470.707 132.135 465.555 132.135C459.305 132.135 454.374 129.962 450.76 125.617C447.171 121.247 445.377 114.289 445.377 104.743C445.377 95.1968 447.171 88.2632 450.76 83.9419C454.374 79.6206 459.305 77.46 465.555 77.46C471.146 77.46 474.991 78.1313 477.091 79.4741L473.868 91.4126C472.33 90.2651 470.304 89.6914 467.789 89.6914C464.981 89.6914 462.784 90.79 461.197 92.9873C459.635 95.1846 458.854 99.103 458.854 104.743C458.854 110.431 459.635 114.386 461.197 116.608C462.784 118.805 464.981 119.904 467.789 119.904ZM490.988 78.4854H507.87L519.259 131H505.746L504.501 123.126H494.43L493.148 131H479.672L490.988 78.4854ZM496.225 112.396H502.67L499.594 94.4155H499.228L496.225 112.396ZM546.01 104.157L554.104 78.4854H567.91V131H554.873V108.954H554.543L547.512 131H544.289L537.294 108.954H537.001V131H523.964V78.4854H537.771L545.864 104.157H546.01ZM598.14 78.4854C602.437 78.4854 606.025 80.3286 608.906 84.0151C611.787 87.6772 613.228 92.1938 613.228 97.5649C613.228 103.058 611.812 107.514 608.979 110.932C606.147 114.35 602.534 116.059 598.14 116.059H591.182V131H577.742V78.4854H598.14ZM594.148 104.083C595.857 104.083 597.2 103.437 598.176 102.143C599.153 100.824 599.641 99.2739 599.641 97.4917C599.641 95.6362 599.153 94.0615 598.176 92.7676C597.2 91.4492 595.857 90.79 594.148 90.79H591.182V104.083H594.148ZM621.485 78.4854H638.367L649.756 131H636.243L634.998 123.126H624.927L623.646 131H610.169L621.485 78.4854ZM626.722 112.396H633.167L630.091 94.4155H629.725L626.722 112.396ZM674.347 99.4326V78.4854H687.75V131H679.071L668.341 110.163H668.194V131H654.681V78.4854H663.397L674.09 99.4326H674.347ZM677.496 60.8706L683.099 62.1523C682.953 68.6953 680.682 71.9668 676.288 71.9668C674.676 71.9668 672.821 71.3198 670.721 70.0259C669.11 69.0737 668.036 68.5977 667.499 68.5977C666.205 68.5977 665.484 69.8184 665.338 72.2598L659.625 70.8682C659.723 67.7676 660.394 65.3506 661.639 63.6172C662.909 61.8838 664.52 61.0171 666.473 61.0171C667.962 61.0171 669.708 61.6396 671.71 62.8848C673.565 63.9834 674.713 64.5327 675.152 64.5327C676.52 64.5327 677.301 63.312 677.496 60.8706ZM704.064 78.4854H720.946L732.335 131H718.822L717.577 123.126H707.506L706.225 131H692.748L704.064 78.4854ZM709.301 112.396H715.746L712.67 94.4155H712.304L709.301 112.396ZM756.23 100.019C760.771 102.777 763.847 105.402 765.458 107.892C767.07 110.358 767.875 113.263 767.875 116.608C767.875 121.32 766.301 125.092 763.151 127.924C760.002 130.731 755.693 132.135 750.224 132.135C743.828 132.135 738.579 130.634 734.477 127.631L737.114 116.132C741.167 119.037 745.012 120.49 748.649 120.49C752.507 120.49 754.436 119.196 754.436 116.608C754.436 115.558 753.972 114.508 753.044 113.458C752.116 112.409 750.285 111.078 747.551 109.467C743.254 107.025 740.166 104.462 738.286 101.776C736.406 99.0664 735.466 95.9048 735.466 92.2915C735.466 87.7993 737.053 84.1982 740.227 81.4883C743.4 78.7539 747.612 77.3867 752.861 77.3867C758.11 77.3867 762.639 78.3389 766.447 80.2432L764.946 91.9253C763.847 91.2173 762.297 90.5337 760.295 89.8745C758.293 89.1909 756.462 88.8491 754.802 88.8491C750.993 88.8491 749.101 90.1187 749.125 92.6577C749.125 93.854 749.711 95.0259 750.883 96.1733C752.055 97.2964 753.837 98.5781 756.23 100.019Z" fill="white"/>
<mask id="path-2-outside-1_45_573" maskUnits="userSpaceOnUse" x="3" y="0" width="330" height="59" fill="black">
<rect fill="white" x="3" width="330" height="59"/>
<path d="M9.91016 8.90527C13.3281 4.55957 18.0156 2.38672 23.9727 2.38672C29.9297 2.38672 34.6172 4.55957 38.0352 8.90527C41.4531 13.251 43.1621 20.1968 43.1621 29.7427C43.1621 39.3374 41.4531 46.3076 38.0352 50.6533C34.6172 54.9746 29.9297 57.1353 23.9727 57.1353C18.0156 57.1353 13.3281 54.9746 9.91016 50.6533C6.49219 46.3076 4.7832 39.3374 4.7832 29.7427C4.7832 20.1968 6.49219 13.251 9.91016 8.90527ZM19.7246 41.6445C20.7012 43.8174 22.1172 44.9038 23.9727 44.9038C25.8281 44.9038 27.2441 43.8174 28.2207 41.6445C29.1973 39.4717 29.6855 35.5044 29.6855 29.7427C29.6855 24.0542 29.1973 20.1113 28.2207 17.9141C27.2441 15.7168 25.8281 14.6182 23.9727 14.6182C22.1172 14.6182 20.7012 15.7168 19.7246 17.9141C18.748 20.1113 18.2598 24.0542 18.2598 29.7427C18.2598 35.5044 18.748 39.4717 19.7246 41.6445ZM76.688 28.2412C79.2759 29.291 81.3145 30.9512 82.8037 33.2217C84.293 35.4678 85.0376 38.1655 85.0376 41.3149C85.0376 45.563 83.5972 49.0786 80.7163 51.8618C77.8354 54.6206 74.1978 56 69.8032 56H51.3462V3.48535H68.375C72.916 3.48535 76.5781 4.76709 79.3613 7.33057C82.1445 9.86963 83.5361 13.2144 83.5361 17.3647C83.5361 22.1255 81.2534 25.6289 76.688 27.875V28.2412ZM67.4595 44.3911C68.6558 44.3911 69.6201 43.9272 70.3525 42.9995C71.085 42.0718 71.4512 40.8755 71.4512 39.4106C71.4512 37.9214 71.085 36.7129 70.3525 35.7852C69.6201 34.8574 68.6558 34.3936 67.4595 34.3936H64.7861V44.3911H67.4595ZM64.7861 15.2041V25.165H66.8003C67.8501 25.165 68.6924 24.689 69.3271 23.7368C69.9863 22.7847 70.3159 21.5884 70.3159 20.1479C70.3159 18.7075 69.9863 17.5234 69.3271 16.5957C68.6924 15.668 67.8501 15.2041 66.8003 15.2041H64.7861ZM96.9937 35.5288V3.48535H110.434V38.0923C110.434 44.9038 109.25 49.7866 106.881 52.7407C104.538 55.6704 100.924 57.1353 96.0415 57.1353C92.6968 57.1353 89.999 56.5859 87.9482 55.4873L88.6807 43.4756C90.3408 44.3789 91.8179 44.8306 93.1118 44.8306C94.772 44.8306 95.834 44.1104 96.2979 42.6699C96.7617 41.2051 96.9937 38.8247 96.9937 35.5288ZM133.669 36.1147V43.7686H150.917V56H120.229V3.48535H150.441V15.7168H133.669V25.0918H148.793V36.1147H133.669ZM155.842 15.7168V3.48535H188.472V15.7168H178.84V56H165.437V15.7168H155.842ZM194.898 56V3.48535H208.338V56H194.898ZM232.159 42.6333L237.542 3.48535H250.836L242.413 56H221.649L213.263 3.48535H226.52L231.939 42.6333H232.159ZM258.471 8.90527C261.889 4.55957 266.576 2.38672 272.533 2.38672C278.49 2.38672 283.178 4.55957 286.596 8.90527C290.014 13.251 291.723 20.1968 291.723 29.7427C291.723 39.3374 290.014 46.3076 286.596 50.6533C283.178 54.9746 278.49 57.1353 272.533 57.1353C266.576 57.1353 261.889 54.9746 258.471 50.6533C255.053 46.3076 253.344 39.3374 253.344 29.7427C253.344 20.1968 255.053 13.251 258.471 8.90527ZM268.285 41.6445C269.262 43.8174 270.678 44.9038 272.533 44.9038C274.389 44.9038 275.805 43.8174 276.781 41.6445C277.758 39.4717 278.246 35.5044 278.246 29.7427C278.246 24.0542 277.758 20.1113 276.781 17.9141C275.805 15.7168 274.389 14.6182 272.533 14.6182C270.678 14.6182 269.262 15.7168 268.285 17.9141C267.309 20.1113 266.82 24.0542 266.82 29.7427C266.82 35.5044 267.309 39.4717 268.285 41.6445ZM318.876 25.0186C323.417 27.7773 326.494 30.4019 328.105 32.8921C329.716 35.3579 330.522 38.2632 330.522 41.6079C330.522 46.3198 328.947 50.0918 325.798 52.9238C322.648 55.7314 318.339 57.1353 312.871 57.1353C306.474 57.1353 301.225 55.6338 297.124 52.6309L299.76 41.1318C303.813 44.0371 307.658 45.4897 311.296 45.4897C315.153 45.4897 317.082 44.1958 317.082 41.6079C317.082 40.5581 316.618 39.5083 315.69 38.4585C314.763 37.4087 312.932 36.0781 310.197 34.4668C305.9 32.0254 302.812 29.4619 300.932 26.7764C299.052 24.0664 298.112 20.9048 298.112 17.2915C298.112 12.7993 299.699 9.19824 302.873 6.48828C306.047 3.75391 310.258 2.38672 315.507 2.38672C320.756 2.38672 325.285 3.33887 329.094 5.24316L327.592 16.9253C326.494 16.2173 324.943 15.5337 322.941 14.8745C320.939 14.1909 319.108 13.8491 317.448 13.8491C313.64 13.8491 311.748 15.1187 311.772 17.6577C311.772 18.854 312.358 20.0259 313.53 21.1733C314.702 22.2964 316.484 23.5781 318.876 25.0186Z"/>
</mask>
<path d="M38.0352 50.6533L39.2116 51.5839L39.2142 51.5806L38.0352 50.6533ZM9.91016 50.6533L8.73113 51.5806L8.73368 51.5839L9.91016 50.6533ZM9.91016 8.90527L11.0892 9.83259C14.1983 5.87953 18.4346 3.88672 23.9727 3.88672V2.38672V0.886719C17.5966 0.886719 12.4579 3.23961 8.73114 7.97796L9.91016 8.90527ZM23.9727 2.38672V3.88672C29.5107 3.88672 33.747 5.87953 36.8561 9.83259L38.0352 8.90527L39.2142 7.97796C35.4874 3.23961 30.3487 0.886719 23.9727 0.886719V2.38672ZM38.0352 8.90527L36.8561 9.83259C39.962 13.7814 41.6621 20.3129 41.6621 29.7427H43.1621H44.6621C44.6621 20.0807 42.9443 12.7205 39.2142 7.97796L38.0352 8.90527ZM43.1621 29.7427H41.6621C41.6621 39.2235 39.9612 45.7781 36.8561 49.726L38.0352 50.6533L39.2142 51.5806C42.9451 46.8371 44.6621 39.4513 44.6621 29.7427H43.1621ZM38.0352 50.6533L36.8587 49.7228C33.7507 53.6521 29.5139 55.6353 23.9727 55.6353V57.1353V58.6353C30.3455 58.6353 35.4837 56.2971 39.2116 51.5839L38.0352 50.6533ZM23.9727 57.1353V55.6353C18.4314 55.6353 14.1946 53.6521 11.0866 49.7228L9.91016 50.6533L8.73368 51.5839C12.4617 56.2971 17.5998 58.6353 23.9727 58.6353V57.1353ZM9.91016 50.6533L11.0892 49.726C7.98411 45.7781 6.2832 39.2235 6.2832 29.7427H4.7832H3.2832C3.2832 39.4513 5.00026 46.8371 8.73114 51.5806L9.91016 50.6533ZM4.7832 29.7427H6.2832C6.2832 20.3129 7.98334 13.7814 11.0892 9.83259L9.91016 8.90527L8.73114 7.97796C5.00104 12.7205 3.2832 20.0807 3.2832 29.7427H4.7832ZM19.7246 41.6445L18.3564 42.2594C18.9138 43.4995 19.6461 44.5426 20.606 45.2791C21.5869 46.0317 22.7288 46.4038 23.9727 46.4038V44.9038V43.4038C23.361 43.4038 22.8672 43.2327 22.4321 42.8989C21.9759 42.5489 21.512 41.9625 21.0928 41.0296L19.7246 41.6445ZM23.9727 44.9038V46.4038C25.2165 46.4038 26.3584 46.0317 27.3393 45.2791C28.2992 44.5426 29.0316 43.4995 29.5889 42.2594L28.2207 41.6445L26.8525 41.0296C26.4333 41.9625 25.9694 42.5489 25.5132 42.8989C25.0781 43.2327 24.5843 43.4038 23.9727 43.4038V44.9038ZM28.2207 41.6445L29.5889 42.2594C30.7113 39.7621 31.1855 35.4976 31.1855 29.7427H29.6855H28.1855C28.1855 35.5112 27.6833 39.1812 26.8525 41.0296L28.2207 41.6445ZM29.6855 29.7427H31.1855C31.1855 24.0553 30.71 19.8217 29.5914 17.3049L28.2207 17.9141L26.85 18.5233C27.6845 20.4009 28.1855 24.0531 28.1855 29.7427H29.6855ZM28.2207 17.9141L29.5914 17.3049C29.0355 16.0541 28.3048 15.0011 27.3458 14.257C26.3649 13.496 25.2207 13.1182 23.9727 13.1182V14.6182V16.1182C24.5801 16.1182 25.0717 16.2897 25.5068 16.6273C25.9638 16.9818 26.4293 17.5768 26.85 18.5233L28.2207 17.9141ZM23.9727 14.6182V13.1182C22.7246 13.1182 21.5804 13.496 20.5995 14.257C19.6405 15.0011 18.9098 16.0541 18.3539 17.3049L19.7246 17.9141L21.0953 18.5233C21.516 17.5768 21.9816 16.9818 22.4385 16.6273C22.8737 16.2897 23.3652 16.1182 23.9727 16.1182V14.6182ZM19.7246 17.9141L18.3539 17.3049C17.2353 19.8217 16.7598 24.0553 16.7598 29.7427H18.2598H19.7598C19.7598 24.0531 20.2608 20.4009 21.0953 18.5233L19.7246 17.9141ZM18.2598 29.7427H16.7598C16.7598 35.4976 17.2341 39.7621 18.3564 42.2594L19.7246 41.6445L21.0928 41.0296C20.262 39.1812 19.7598 35.5112 19.7598 29.7427H18.2598ZM76.688 28.2412H75.188V29.2514L76.1241 29.6312L76.688 28.2412ZM82.8037 33.2217L81.5494 34.0444L81.5536 34.0506L82.8037 33.2217ZM80.7163 51.8618L81.7538 52.9452L81.7585 52.9406L80.7163 51.8618ZM51.3462 56H49.8462V57.5H51.3462V56ZM51.3462 3.48535V1.98535H49.8462V3.48535H51.3462ZM79.3613 7.33057L78.3451 8.4339L78.3504 8.43871L79.3613 7.33057ZM76.688 27.875L76.0258 26.5291L75.188 26.9413V27.875H76.688ZM64.7861 34.3936V32.8936H63.2861V34.3936H64.7861ZM64.7861 44.3911H63.2861V45.8911H64.7861V44.3911ZM64.7861 15.2041V13.7041H63.2861V15.2041H64.7861ZM64.7861 25.165H63.2861V26.665H64.7861V25.165ZM69.3271 23.7368L68.0939 22.883L68.0864 22.8938L68.0791 22.9048L69.3271 23.7368ZM69.3271 16.5957L68.0892 17.4427L68.0967 17.4537L68.1044 17.4645L69.3271 16.5957ZM76.688 28.2412L76.1241 29.6312C78.4382 30.5699 80.2323 32.0363 81.5494 34.0444L82.8037 33.2217L84.058 32.399C82.3966 29.866 80.1136 28.0121 77.2519 26.8512L76.688 28.2412ZM82.8037 33.2217L81.5536 34.0506C82.8539 36.0117 83.5376 38.4095 83.5376 41.3149H85.0376H86.5376C86.5376 37.9215 85.7321 34.9238 84.0539 32.3928L82.8037 33.2217ZM85.0376 41.3149H83.5376C83.5376 45.1837 82.2432 48.301 79.6741 50.783L80.7163 51.8618L81.7585 52.9406C84.9511 49.8562 86.5376 45.9423 86.5376 41.3149H85.0376ZM80.7163 51.8618L79.6788 50.7785C77.1067 53.2416 73.8541 54.5 69.8032 54.5V56V57.5C74.5414 57.5 78.5642 55.9996 81.7538 52.9452L80.7163 51.8618ZM69.8032 56V54.5H51.3462V56V57.5H69.8032V56ZM51.3462 56H52.8462V3.48535H51.3462H49.8462V56H51.3462ZM51.3462 3.48535V4.98535H68.375V3.48535V1.98535H51.3462V3.48535ZM68.375 3.48535V4.98535C72.6191 4.98535 75.8923 6.17475 78.3451 8.43388L79.3613 7.33057L80.3775 6.22725C77.2639 3.35943 73.2129 1.98535 68.375 1.98535V3.48535ZM79.3613 7.33057L78.3504 8.43871C80.7884 10.6629 82.0361 13.5883 82.0361 17.3647H83.5361H85.0361C85.0361 12.8404 83.5007 9.07638 80.3723 6.22242L79.3613 7.33057ZM83.5361 17.3647H82.0361C82.0361 19.4958 81.5288 21.2684 80.5673 22.744C79.6021 24.2254 78.119 25.4993 76.0258 26.5291L76.688 27.875L77.3502 29.2209C79.8224 28.0046 81.7634 26.4038 83.0809 24.3817C84.4022 22.3539 85.0361 19.9944 85.0361 17.3647H83.5361ZM76.688 27.875H75.188V28.2412H76.688H78.188V27.875H76.688ZM67.4595 44.3911V45.8911C69.1083 45.8911 70.509 45.2221 71.5299 43.929L70.3525 42.9995L69.1752 42.07C68.7312 42.6324 68.2032 42.8911 67.4595 42.8911V44.3911ZM70.3525 42.9995L71.5299 43.929C72.5173 42.6782 72.9512 41.1301 72.9512 39.4106H71.4512H69.9512C69.9512 40.6209 69.6526 41.4654 69.1752 42.07L70.3525 42.9995ZM71.4512 39.4106H72.9512C72.9512 37.6734 72.5206 36.1106 71.5299 34.8557L70.3525 35.7852L69.1752 36.7146C69.6493 37.3151 69.9512 38.1693 69.9512 39.4106H71.4512ZM70.3525 35.7852L71.5299 34.8557C70.509 33.5626 69.1083 32.8936 67.4595 32.8936V34.3936V35.8936C68.2032 35.8936 68.7312 36.1523 69.1752 36.7146L70.3525 35.7852ZM67.4595 34.3936V32.8936H64.7861V34.3936V35.8936H67.4595V34.3936ZM64.7861 34.3936H63.2861V44.3911H64.7861H66.2861V34.3936H64.7861ZM64.7861 44.3911V45.8911H67.4595V44.3911V42.8911H64.7861V44.3911ZM64.7861 15.2041H63.2861V25.165H64.7861H66.2861V15.2041H64.7861ZM64.7861 25.165V26.665H66.8003V25.165V23.665H64.7861V25.165ZM66.8003 25.165V26.665C68.4028 26.665 69.6919 25.8939 70.5752 24.5689L69.3271 23.7368L68.0791 22.9048C67.6929 23.4841 67.2974 23.665 66.8003 23.665V25.165ZM69.3271 23.7368L70.5604 24.5906C71.4315 23.3324 71.8159 21.8185 71.8159 20.1479H70.3159H68.8159C68.8159 21.3582 68.5411 22.237 68.0939 22.883L69.3271 23.7368ZM70.3159 20.1479H71.8159C71.8159 18.4793 71.4322 16.9687 70.5499 15.7269L69.3271 16.5957L68.1044 17.4645C68.5404 18.0782 68.8159 18.9358 68.8159 20.1479H70.3159ZM69.3271 16.5957L70.5651 15.7487C69.6742 14.4465 68.3853 13.7041 66.8003 13.7041V15.2041V16.7041C67.3149 16.7041 67.7106 16.8894 68.0892 17.4427L69.3271 16.5957ZM66.8003 15.2041V13.7041H64.7861V15.2041V16.7041H66.8003V15.2041ZM96.9937 3.48535V1.98535H95.4937V3.48535H96.9937ZM110.434 3.48535H111.934V1.98535H110.434V3.48535ZM106.881 52.7407L105.711 51.8025L105.71 51.8037L106.881 52.7407ZM87.9482 55.4873L86.451 55.396L86.3925 56.3556L87.2399 56.8095L87.9482 55.4873ZM88.6807 43.4756L89.3976 42.158L87.3269 41.0313L87.1834 43.3843L88.6807 43.4756ZM96.2979 42.6699L97.7257 43.1297L97.7279 43.1228L96.2979 42.6699ZM96.9937 35.5288H98.4937V3.48535H96.9937H95.4937V35.5288H96.9937ZM96.9937 3.48535V4.98535H110.434V3.48535V1.98535H96.9937V3.48535ZM110.434 3.48535H108.934V38.0923H110.434H111.934V3.48535H110.434ZM110.434 38.0923H108.934C108.934 44.8044 107.752 49.2561 105.711 51.8025L106.881 52.7407L108.052 53.6789C110.747 50.3171 111.934 45.0033 111.934 38.0923H110.434ZM106.881 52.7407L105.71 51.8037C103.732 54.2758 100.617 55.6353 96.0415 55.6353V57.1353V58.6353C101.231 58.6353 105.343 57.065 108.053 53.6778L106.881 52.7407ZM96.0415 57.1353V55.6353C92.8428 55.6353 90.415 55.1071 88.6566 54.1651L87.9482 55.4873L87.2399 56.8095C89.583 58.0648 92.5508 58.6353 96.0415 58.6353V57.1353ZM87.9482 55.4873L89.4455 55.5786L90.1779 43.5669L88.6807 43.4756L87.1834 43.3843L86.451 55.396L87.9482 55.4873ZM88.6807 43.4756L87.9637 44.7932C89.7496 45.7649 91.4784 46.3306 93.1118 46.3306V44.8306V43.3306C92.1573 43.3306 90.9321 42.9929 89.3976 42.158L88.6807 43.4756ZM93.1118 44.8306V46.3306C94.1546 46.3306 95.1522 46.1036 95.9953 45.5319C96.8509 44.9516 97.4102 44.1092 97.7256 43.1297L96.2979 42.6699L94.8701 42.2101C94.7216 42.6711 94.518 42.909 94.3115 43.049C94.0927 43.1974 93.7292 43.3306 93.1118 43.3306V44.8306ZM96.2979 42.6699L97.7279 43.1228C98.2662 41.4228 98.4937 38.844 98.4937 35.5288H96.9937H95.4937C95.4937 38.8054 95.2572 40.9874 94.8678 42.2171L96.2979 42.6699ZM133.669 36.1147V34.6147H132.169V36.1147H133.669ZM133.669 43.7686H132.169V45.2686H133.669V43.7686ZM150.917 43.7686H152.417V42.2686H150.917V43.7686ZM150.917 56V57.5H152.417V56H150.917ZM120.229 56H118.729V57.5H120.229V56ZM120.229 3.48535V1.98535H118.729V3.48535H120.229ZM150.441 3.48535H151.941V1.98535H150.441V3.48535ZM150.441 15.7168V17.2168H151.941V15.7168H150.441ZM133.669 15.7168V14.2168H132.169V15.7168H133.669ZM133.669 25.0918H132.169V26.5918H133.669V25.0918ZM148.793 25.0918H150.293V23.5918H148.793V25.0918ZM148.793 36.1147V37.6147H150.293V36.1147H148.793ZM133.669 36.1147H132.169V43.7686H133.669H135.169V36.1147H133.669ZM133.669 43.7686V45.2686H150.917V43.7686V42.2686H133.669V43.7686ZM150.917 43.7686H149.417V56H150.917H152.417V43.7686H150.917ZM150.917 56V54.5H120.229V56V57.5H150.917V56ZM120.229 56H121.729V3.48535H120.229H118.729V56H120.229ZM120.229 3.48535V4.98535H150.441V3.48535V1.98535H120.229V3.48535ZM150.441 3.48535H148.941V15.7168H150.441H151.941V3.48535H150.441ZM150.441 15.7168V14.2168H133.669V15.7168V17.2168H150.441V15.7168ZM133.669 15.7168H132.169V25.0918H133.669H135.169V15.7168H133.669ZM133.669 25.0918V26.5918H148.793V25.0918V23.5918H133.669V25.0918ZM148.793 25.0918H147.293V36.1147H148.793H150.293V25.0918H148.793ZM148.793 36.1147V34.6147H133.669V36.1147V37.6147H148.793V36.1147ZM155.842 15.7168H154.342V17.2168H155.842V15.7168ZM155.842 3.48535V1.98535H154.342V3.48535H155.842ZM188.472 3.48535H189.972V1.98535H188.472V3.48535ZM188.472 15.7168V17.2168H189.972V15.7168H188.472ZM178.84 15.7168V14.2168H177.34V15.7168H178.84ZM178.84 56V57.5H180.34V56H178.84ZM165.437 56H163.937V57.5H165.437V56ZM165.437 15.7168H166.937V14.2168H165.437V15.7168ZM155.842 15.7168H157.342V3.48535H155.842H154.342V15.7168H155.842ZM155.842 3.48535V4.98535H188.472V3.48535V1.98535H155.842V3.48535ZM188.472 3.48535H186.972V15.7168H188.472H189.972V3.48535H188.472ZM188.472 15.7168V14.2168H178.84V15.7168V17.2168H188.472V15.7168ZM178.84 15.7168H177.34V56H178.84H180.34V15.7168H178.84ZM178.84 56V54.5H165.437V56V57.5H178.84V56ZM165.437 56H166.937V15.7168H165.437H163.937V56H165.437ZM165.437 15.7168V14.2168H155.842V15.7168V17.2168H165.437V15.7168ZM194.898 56H193.398V57.5H194.898V56ZM194.898 3.48535V1.98535H193.398V3.48535H194.898ZM208.338 3.48535H209.838V1.98535H208.338V3.48535ZM208.338 56V57.5H209.838V56H208.338ZM194.898 56H196.398V3.48535H194.898H193.398V56H194.898ZM194.898 3.48535V4.98535H208.338V3.48535V1.98535H194.898V3.48535ZM208.338 3.48535H206.838V56H208.338H209.838V3.48535H208.338ZM208.338 56V54.5H194.898V56V57.5H208.338V56ZM232.159 42.6333V44.1333H233.467L233.645 42.8376L232.159 42.6333ZM237.542 3.48535V1.98535H236.235L236.056 3.28101L237.542 3.48535ZM250.836 3.48535L252.317 3.7229L252.596 1.98535H250.836V3.48535ZM242.413 56V57.5H243.692L243.894 56.2375L242.413 56ZM221.649 56L220.168 56.2365L220.369 57.5H221.649V56ZM213.263 3.48535V1.98535H211.504L211.781 3.72189L213.263 3.48535ZM226.52 3.48535L228.005 3.27964L227.826 1.98535H226.52V3.48535ZM231.939 42.6333L230.454 42.839L230.633 44.1333H231.939V42.6333ZM232.159 42.6333L233.645 42.8376L239.029 3.6897L237.542 3.48535L236.056 3.28101L230.673 42.429L232.159 42.6333ZM237.542 3.48535V4.98535H250.836V3.48535V1.98535H237.542V3.48535ZM250.836 3.48535L249.355 3.2478L240.932 55.7625L242.413 56L243.894 56.2375L252.317 3.7229L250.836 3.48535ZM242.413 56V54.5H221.649V56V57.5H242.413V56ZM221.649 56L223.13 55.7635L214.744 3.24881L213.263 3.48535L211.781 3.72189L220.168 56.2365L221.649 56ZM213.263 3.48535V4.98535H226.52V3.48535V1.98535H213.263V3.48535ZM226.52 3.48535L225.034 3.69106L230.454 42.839L231.939 42.6333L233.425 42.4276L228.005 3.27964L226.52 3.48535ZM231.939 42.6333V44.1333H232.159V42.6333V41.1333H231.939V42.6333ZM286.596 50.6533L287.772 51.5839L287.775 51.5806L286.596 50.6533ZM258.471 50.6533L257.292 51.5806L257.294 51.5839L258.471 50.6533ZM258.471 8.90527L259.65 9.83259C262.759 5.87953 266.995 3.88672 272.533 3.88672V2.38672V0.886719C266.157 0.886719 261.018 3.23961 257.292 7.97796L258.471 8.90527ZM272.533 2.38672V3.88672C278.071 3.88672 282.308 5.87953 285.417 9.83259L286.596 8.90527L287.775 7.97796C284.048 3.23961 278.909 0.886719 272.533 0.886719V2.38672ZM286.596 8.90527L285.417 9.83259C288.523 13.7814 290.223 20.3129 290.223 29.7427H291.723H293.223C293.223 20.0807 291.505 12.7205 287.775 7.97796L286.596 8.90527ZM291.723 29.7427H290.223C290.223 39.2235 288.522 45.7781 285.417 49.726L286.596 50.6533L287.775 51.5806C291.506 46.8371 293.223 39.4513 293.223 29.7427H291.723ZM286.596 50.6533L285.419 49.7228C282.311 53.6521 278.074 55.6353 272.533 55.6353V57.1353V58.6353C278.906 58.6353 284.044 56.2971 287.772 51.5839L286.596 50.6533ZM272.533 57.1353V55.6353C266.992 55.6353 262.755 53.6521 259.647 49.7228L258.471 50.6533L257.294 51.5839C261.022 56.2971 266.16 58.6353 272.533 58.6353V57.1353ZM258.471 50.6533L259.65 49.726C256.545 45.7781 254.844 39.2235 254.844 29.7427H253.344H251.844C251.844 39.4513 253.561 46.8371 257.292 51.5806L258.471 50.6533ZM253.344 29.7427H254.844C254.844 20.3129 256.544 13.7814 259.65 9.83259L258.471 8.90527L257.292 7.97796C253.562 12.7205 251.844 20.0807 251.844 29.7427H253.344ZM268.285 41.6445L266.917 42.2594C267.474 43.4995 268.207 44.5426 269.167 45.2791C270.147 46.0317 271.289 46.4038 272.533 46.4038V44.9038V43.4038C271.922 43.4038 271.428 43.2327 270.993 42.8989C270.536 42.5489 270.073 41.9625 269.653 41.0296L268.285 41.6445ZM272.533 44.9038V46.4038C273.777 46.4038 274.919 46.0317 275.9 45.2791C276.86 44.5426 277.592 43.4995 278.149 42.2594L276.781 41.6445L275.413 41.0296C274.994 41.9625 274.53 42.5489 274.074 42.8989C273.639 43.2327 273.145 43.4038 272.533 43.4038V44.9038ZM276.781 41.6445L278.149 42.2594C279.272 39.7621 279.746 35.4976 279.746 29.7427H278.246H276.746C276.746 35.5112 276.244 39.1812 275.413 41.0296L276.781 41.6445ZM278.246 29.7427H279.746C279.746 24.0553 279.271 19.8217 278.152 17.3049L276.781 17.9141L275.411 18.5233C276.245 20.4009 276.746 24.0531 276.746 29.7427H278.246ZM276.781 17.9141L278.152 17.3049C277.596 16.0541 276.865 15.0011 275.906 14.257C274.925 13.496 273.781 13.1182 272.533 13.1182V14.6182V16.1182C273.141 16.1182 273.632 16.2897 274.067 16.6273C274.524 16.9818 274.99 17.5768 275.411 18.5233L276.781 17.9141ZM272.533 14.6182V13.1182C271.285 13.1182 270.141 13.496 269.16 14.257C268.201 15.0011 267.47 16.0541 266.914 17.3049L268.285 17.9141L269.656 18.5233C270.077 17.5768 270.542 16.9818 270.999 16.6273C271.434 16.2897 271.926 16.1182 272.533 16.1182V14.6182ZM268.285 17.9141L266.914 17.3049C265.796 19.8217 265.32 24.0553 265.32 29.7427H266.82H268.32C268.32 24.0531 268.821 20.4009 269.656 18.5233L268.285 17.9141ZM266.82 29.7427H265.32C265.32 35.4976 265.795 39.7621 266.917 42.2594L268.285 41.6445L269.653 41.0296C268.823 39.1812 268.32 35.5112 268.32 29.7427H266.82ZM318.876 25.0186L319.655 23.7366L319.65 23.7335L318.876 25.0186ZM328.105 32.8921L326.846 33.707L326.849 33.7126L328.105 32.8921ZM325.798 52.9238L326.796 54.0435L326.801 54.0392L325.798 52.9238ZM297.124 52.6309L295.661 52.2956L295.441 53.2579L296.237 53.8412L297.124 52.6309ZM299.76 41.1318L300.634 39.9127L298.802 38.5993L298.298 40.7966L299.76 41.1318ZM310.197 34.4668L310.959 33.1745L310.949 33.1685L310.938 33.1626L310.197 34.4668ZM300.932 26.7764L299.7 27.6313L299.703 27.6366L300.932 26.7764ZM302.873 6.48828L303.847 7.62903L303.852 7.62469L302.873 6.48828ZM329.094 5.24316L330.582 5.43438L330.717 4.37789L329.765 3.90152L329.094 5.24316ZM327.592 16.9253L326.78 18.1861L328.777 19.4734L329.08 17.1165L327.592 16.9253ZM322.941 14.8745L322.457 16.294L322.464 16.2967L322.472 16.2993L322.941 14.8745ZM311.772 17.6577H313.272V17.6505L313.272 17.6433L311.772 17.6577ZM313.53 21.1733L312.48 22.2451L312.486 22.2507L312.492 22.2563L313.53 21.1733ZM318.876 25.0186L318.098 26.3005C322.575 29.0207 325.419 31.5025 326.846 33.707L328.105 32.8921L329.364 32.0772C327.568 29.3012 324.26 26.534 319.655 23.7366L318.876 25.0186ZM328.105 32.8921L326.849 33.7126C328.28 35.9025 329.022 38.514 329.022 41.6079H330.522H332.022C332.022 38.0124 331.152 34.8133 329.361 32.0716L328.105 32.8921ZM330.522 41.6079H329.022C329.022 45.9477 327.59 49.2947 324.795 51.8085L325.798 52.9238L326.801 54.0392C330.304 50.8889 332.022 46.692 332.022 41.6079H330.522ZM325.798 52.9238L324.8 51.8042C321.998 54.3014 318.083 55.6353 312.871 55.6353V57.1353V58.6353C318.596 58.6353 323.298 57.1615 326.796 54.0435L325.798 52.9238ZM312.871 57.1353V55.6353C306.71 55.6353 301.794 54.1915 298.01 51.4206L297.124 52.6309L296.237 53.8412C300.656 57.0761 306.239 58.6353 312.871 58.6353V57.1353ZM297.124 52.6309L298.586 52.9661L301.222 41.4671L299.76 41.1318L298.298 40.7966L295.661 52.2956L297.124 52.6309ZM299.76 41.1318L298.886 42.3509C303.101 45.3726 307.247 46.9897 311.296 46.9897V45.4897V43.9897C308.069 43.9897 304.525 42.7016 300.634 39.9127L299.76 41.1318ZM311.296 45.4897V46.9897C313.345 46.9897 315.145 46.6546 316.471 45.7649C317.904 44.804 318.582 43.3348 318.582 41.6079H317.082H315.582C315.582 42.4689 315.296 42.9406 314.8 43.2736C314.197 43.6779 313.104 43.9897 311.296 43.9897V45.4897ZM317.082 41.6079H318.582C318.582 40.0847 317.902 38.6962 316.814 37.4652L315.69 38.4585L314.566 39.4518C315.334 40.3204 315.582 41.0315 315.582 41.6079H317.082ZM315.69 38.4585L316.814 37.4652C315.716 36.2222 313.701 34.7906 310.959 33.1745L310.197 34.4668L309.436 35.7591C312.162 37.3657 313.809 38.5951 314.566 39.4518L315.69 38.4585ZM310.197 34.4668L310.938 33.1626C306.745 30.7803 303.865 28.3506 302.161 25.9162L300.932 26.7764L299.703 27.6366C301.759 30.5733 305.055 33.2704 309.456 35.771L310.197 34.4668ZM300.932 26.7764L302.165 25.9214C300.476 23.4865 299.612 20.6298 299.612 17.2915H298.112H296.612C296.612 21.1798 297.629 24.6463 299.7 27.6313L300.932 26.7764ZM298.112 17.2915H299.612C299.612 13.2002 301.035 10.0302 303.847 7.62902L302.873 6.48828L301.899 5.34754C298.364 8.3663 296.612 12.3985 296.612 17.2915H298.112ZM302.873 6.48828L303.852 7.62469C306.69 5.17964 310.524 3.88672 315.507 3.88672V2.38672V0.886719C309.993 0.886719 305.404 2.32817 301.894 5.35187L302.873 6.48828ZM315.507 2.38672V3.88672C320.577 3.88672 324.865 4.80608 328.423 6.58481L329.094 5.24316L329.765 3.90152C325.705 1.87166 320.936 0.886719 315.507 0.886719V2.38672ZM329.094 5.24316L327.606 5.05195L326.105 16.7341L327.592 16.9253L329.08 17.1165L330.582 5.43438L329.094 5.24316ZM327.592 16.9253L328.405 15.6644C327.154 14.8585 325.469 14.1277 323.411 13.4498L322.941 14.8745L322.472 16.2993C324.417 16.9397 325.833 17.576 326.78 18.1861L327.592 16.9253ZM322.941 14.8745L323.426 13.455C321.309 12.732 319.311 12.3491 317.448 12.3491V13.8491V15.3491C318.905 15.3491 320.57 15.6498 322.457 16.294L322.941 14.8745ZM317.448 13.8491V12.3491C315.426 12.3491 313.646 12.6773 312.337 13.5557C310.918 14.5078 310.256 15.9657 310.272 17.6721L311.772 17.6577L313.272 17.6433C313.264 16.8107 313.535 16.3643 314.008 16.0469C314.592 15.6557 315.662 15.3491 317.448 15.3491V13.8491ZM311.772 17.6577H310.272C310.272 19.3886 311.13 20.9229 312.48 22.2451L313.53 21.1733L314.579 20.1016C313.586 19.1289 313.272 18.3194 313.272 17.6577H311.772ZM313.53 21.1733L312.492 22.2563C313.781 23.492 315.673 24.8406 318.103 26.3036L318.876 25.0186L319.65 23.7335C317.295 22.3157 315.622 21.1008 314.568 20.0904L313.53 21.1733Z" fill="white" mask="url(#path-2-outside-1_45_573)"/>
<path d="M630.646 50.0861C615.391 49.8347 600.135 49.5924 584.88 49.6493C569.625 49.7062 554.263 50.05 538.972 50.9943C523.681 51.9386 508.523 53.4764 493.407 55.8858C485.973 57.0716 478.557 58.4484 471.189 60.1168C465.327 61.4417 459.527 63.113 453.961 65.689C448.394 68.2651 443.411 71.675 439.396 76.6198C435.381 81.5646 432.821 87.37 431.859 93.8865C429.9 107.073 434.042 120.618 441.112 130.818C449.094 142.324 461.23 148.889 473.181 152.729C479.567 154.775 486.101 156.127 492.656 157.227C500.01 158.468 507.394 159.448 514.79 160.273C530.073 161.976 545.413 162.91 560.761 163.173C576.109 163.437 591.372 163.045 606.655 162.118C621.937 161.192 637.264 159.723 652.522 157.843C667.781 155.964 683.251 153.638 698.55 151.017C706.141 149.718 713.726 148.337 721.298 146.902C727.822 145.661 734.361 144.447 740.846 142.897C752.325 140.14 764.062 136.258 773.903 128.536C783.735 120.833 793.599 107.482 791.535 92.5855C789.47 77.6892 774.129 71.4694 763.199 67.543C748.845 62.3962 733.984 59.4461 719.113 57.2844C704.241 55.1228 688.499 53.5328 673.146 52.5258C657.792 51.5189 642.077 51.0812 626.534 51.2471C610.991 51.413 595.581 52.1542 580.134 53.4927C572.666 54.1335 565.21 54.9198 557.767 55.8333C556.729 55.9646 555.816 56.6981 555.785 58.039C555.76 59.1353 556.616 60.4944 557.662 60.3634C572.804 58.4988 588.003 57.198 603.212 56.4597C618.421 55.7214 633.532 55.5603 648.691 55.9447C663.851 56.3291 679.129 57.2974 694.301 58.8155C709.473 60.3337 723.79 62.0975 738.337 65.2193C745.561 66.7742 752.739 68.6721 759.788 71.0829C765.888 73.1653 772.208 75.3724 777.769 79.0611C782.523 82.2083 786.719 86.7618 787.741 93.3302C788.822 100.317 786.09 107.541 782.596 113.028C775.895 123.557 765.568 129.912 755.134 133.907C743.203 138.481 730.682 140.572 718.332 142.894C703.485 145.692 688.604 148.245 673.686 150.452C658.767 152.659 643.78 154.51 628.772 155.907C613.764 157.305 598.697 158.229 583.629 158.572C568.56 158.916 553.667 158.694 538.712 157.79C523.758 156.886 508.965 155.334 494.199 152.94C481.796 150.927 469.066 148.024 457.969 140.938C452.809 137.642 448.063 133.507 444.278 128.204C440.867 123.421 438.233 117.782 436.703 111.797C435.174 105.811 434.701 99.8943 435.764 94.0156C436.827 88.1369 439.552 82.545 443.442 78.3217C451.848 69.2144 463.879 66.284 474.762 63.9349C489.432 60.7774 504.242 58.5852 519.097 57.1107C533.953 55.6362 548.869 54.8436 563.784 54.4679C578.699 54.0923 593.805 54.1305 608.807 54.3016C616.058 54.3885 623.307 54.5025 630.549 54.6164C633.035 54.6565 633.14 50.1265 630.654 50.0863L630.646 50.0861Z" fill="#FF7145"/>
</svg>
