<svg width="498" height="69" viewBox="0 0 498 69" fill="none" xmlns="http://www.w3.org/2000/svg">
<mask id="path-1-outside-1_0_856" maskUnits="userSpaceOnUse" x="0" y="0" width="498" height="69" fill="black">
<rect fill="white" width="498" height="69"/>
<path d="M25.3555 2.98242C30.5117 2.98242 34.7598 5.12109 38.0996 9.39844C41.4688 13.6465 43.1533 18.9199 43.1533 25.2188C43.1533 31.6348 41.4834 36.8789 38.1436 40.9512C34.833 44.9941 30.5703 47.0156 25.3555 47.0156H15.5996V66H1.93262V2.98242H25.3555ZM21.1807 34.7549C23.6416 34.7549 25.6045 33.8174 27.0693 31.9424C28.5635 30.0381 29.3105 27.7676 29.3105 25.1309C29.3105 22.4355 28.5635 20.1797 27.0693 18.3633C25.6045 16.5176 23.6416 15.5947 21.1807 15.5947H15.5996V34.7549H21.1807ZM69.0547 40.9951V53.4756H91.4668V66H55.3877V2.98242H90.9395V15.5068H69.0547V29.7451H88.9619V40.9951H69.0547ZM136.572 38.1826C139.824 39.0908 141.86 42.0059 142.681 46.9277L146.196 66H131.694L128.618 48.1582C127.944 44.7305 126.055 43.0312 122.949 43.0605H119.39V66H105.591V2.98242H126.641C132.031 2.98242 136.411 4.69629 139.78 8.12402C143.149 11.5518 144.834 16.1807 144.834 22.0107C144.834 29.2178 142.08 34.4912 136.572 37.8311V38.1826ZM123.696 32.1621C125.923 32.1621 127.739 31.3857 129.146 29.833C130.552 28.251 131.255 26.2441 131.255 23.8125C131.255 21.3516 130.552 19.3594 129.146 17.8359C127.739 16.2832 125.923 15.5068 123.696 15.5068H119.39V32.1621H123.696ZM185.501 38.5342L196.927 2.98242H211.077V66H197.718V34.3154H197.366L187.127 66H183.611L173.328 34.3154H172.977V66H159.661V2.98242H173.899L185.237 38.5342H185.501ZM235.836 2.98242H253.019L267.872 66H253.985L252.008 55.2773H236.891L234.913 66H221.07L235.836 2.98242ZM239.088 44.291H249.854L244.625 19.0225H244.273L239.088 44.291ZM303.573 33.7881V2.98242H317.416V66H308.319L292.147 35.4141H291.884V66H278.085V2.98242H287.094L303.397 33.7881H303.573ZM347.492 40.9951V53.4756H369.904V66H333.825V2.98242H369.377V15.5068H347.492V29.7451H367.399V40.9951H347.492ZM408.242 54.75C411.611 54.75 414.966 53.2852 418.306 50.3555L421.03 62.8359C417.251 65.7656 412.241 67.2451 406.001 67.2744C398.618 67.2744 392.729 64.6084 388.335 59.2764C383.97 53.915 381.787 45.6826 381.787 34.5791C381.787 23.417 383.97 15.1553 388.335 9.79395C392.729 4.43262 398.618 1.75195 406.001 1.75195C412.534 1.75195 417.148 2.7334 419.844 4.69629L416.416 16.8691C414.248 15.1992 411.523 14.3496 408.242 14.3203C399.775 14.3203 395.542 21.0732 395.542 34.5791C395.542 48.0264 399.775 54.75 408.242 54.75ZM446.404 40.9951V53.4756H468.816V66H432.737V2.98242H468.289V15.5068H446.404V29.7451H466.312V40.9951H446.404ZM493.839 64.9014C492.286 66.4834 490.455 67.2744 488.346 67.2744C486.266 67.2744 484.449 66.4834 482.896 64.9014C481.373 63.29 480.611 61.4443 480.611 59.3643C480.611 57.2549 481.373 55.4531 482.896 53.959C484.449 52.4355 486.266 51.6738 488.346 51.6738C490.455 51.6738 492.286 52.4355 493.839 53.959C495.421 55.4531 496.212 57.2549 496.212 59.3643C496.212 61.4443 495.421 63.29 493.839 64.9014Z"/>
</mask>
<path d="M38.0996 9.39844L36.9173 10.3216L36.9244 10.3305L38.0996 9.39844ZM38.1436 40.9512L36.9837 40L36.983 40.0009L38.1436 40.9512ZM15.5996 47.0156V45.5156H14.0996V47.0156H15.5996ZM15.5996 66V67.5H17.0996V66H15.5996ZM1.93262 66H0.432617V67.5H1.93262V66ZM1.93262 2.98242V1.48242H0.432617V2.98242H1.93262ZM27.0693 31.9424L25.8892 31.0164L25.8873 31.0189L27.0693 31.9424ZM27.0693 18.3633L25.8944 19.2958L25.9026 19.306L25.9109 19.3162L27.0693 18.3633ZM15.5996 15.5947V14.0947H14.0996V15.5947H15.5996ZM15.5996 34.7549H14.0996V36.2549H15.5996V34.7549ZM25.3555 2.98242V4.48242C30.0224 4.48242 33.8444 6.38614 36.9173 10.3216L38.0996 9.39844L39.2819 8.47529C35.6751 3.85604 31.001 1.48242 25.3555 1.48242V2.98242ZM38.0996 9.39844L36.9244 10.3305C40.0502 14.2718 41.6533 19.2011 41.6533 25.2188H43.1533H44.6533C44.6533 18.6387 42.8873 13.0212 39.2749 8.46635L38.0996 9.39844ZM43.1533 25.2188H41.6533C41.6533 31.3663 40.0586 36.2508 36.9837 40L38.1436 40.9512L39.3034 41.9024C42.9082 37.507 44.6533 31.9033 44.6533 25.2188H43.1533ZM38.1436 40.9512L36.983 40.0009C33.9567 43.6967 30.1196 45.5156 25.3555 45.5156V47.0156V48.5156C31.0211 48.5156 35.7093 46.2916 39.3041 41.9015L38.1436 40.9512ZM25.3555 47.0156V45.5156H15.5996V47.0156V48.5156H25.3555V47.0156ZM15.5996 47.0156H14.0996V66H15.5996H17.0996V47.0156H15.5996ZM15.5996 66V64.5H1.93262V66V67.5H15.5996V66ZM1.93262 66H3.43262V2.98242H1.93262H0.432617V66H1.93262ZM1.93262 2.98242V4.48242H25.3555V2.98242V1.48242H1.93262V2.98242ZM21.1807 34.7549V36.2549C24.0849 36.2549 26.4911 35.119 28.2514 32.8658L27.0693 31.9424L25.8873 31.0189C24.7179 32.5158 23.1983 33.2549 21.1807 33.2549V34.7549ZM27.0693 31.9424L28.2494 32.8683C29.9697 30.6758 30.8105 28.0714 30.8105 25.1309H29.3105H27.8105C27.8105 27.4638 27.1572 29.4004 25.8892 31.0165L27.0693 31.9424ZM29.3105 25.1309H30.8105C30.8105 22.1415 29.9745 19.5339 28.2278 17.4104L27.0693 18.3633L25.9109 19.3162C27.1524 20.8255 27.8105 22.7296 27.8105 25.1309H29.3105ZM27.0693 18.3633L28.2443 17.4308C26.4806 15.2085 24.0758 14.0947 21.1807 14.0947V15.5947V17.0947C23.2074 17.0947 24.7284 17.8266 25.8944 19.2958L27.0693 18.3633ZM21.1807 15.5947V14.0947H15.5996V15.5947V17.0947H21.1807V15.5947ZM15.5996 15.5947H14.0996V34.7549H15.5996H17.0996V15.5947H15.5996ZM15.5996 34.7549V36.2549H21.1807V34.7549V33.2549H15.5996V34.7549ZM69.0547 40.9951V39.4951H67.5547V40.9951H69.0547ZM69.0547 53.4756H67.5547V54.9756H69.0547V53.4756ZM91.4668 53.4756H92.9668V51.9756H91.4668V53.4756ZM91.4668 66V67.5H92.9668V66H91.4668ZM55.3877 66H53.8877V67.5H55.3877V66ZM55.3877 2.98242V1.48242H53.8877V2.98242H55.3877ZM90.9395 2.98242H92.4395V1.48242H90.9395V2.98242ZM90.9395 15.5068V17.0068H92.4395V15.5068H90.9395ZM69.0547 15.5068V14.0068H67.5547V15.5068H69.0547ZM69.0547 29.7451H67.5547V31.2451H69.0547V29.7451ZM88.9619 29.7451H90.4619V28.2451H88.9619V29.7451ZM88.9619 40.9951V42.4951H90.4619V40.9951H88.9619ZM69.0547 40.9951H67.5547V53.4756H69.0547H70.5547V40.9951H69.0547ZM69.0547 53.4756V54.9756H91.4668V53.4756V51.9756H69.0547V53.4756ZM91.4668 53.4756H89.9668V66H91.4668H92.9668V53.4756H91.4668ZM91.4668 66V64.5H55.3877V66V67.5H91.4668V66ZM55.3877 66H56.8877V2.98242H55.3877H53.8877V66H55.3877ZM55.3877 2.98242V4.48242H90.9395V2.98242V1.48242H55.3877V2.98242ZM90.9395 2.98242H89.4395V15.5068H90.9395H92.4395V2.98242H90.9395ZM90.9395 15.5068V14.0068H69.0547V15.5068V17.0068H90.9395V15.5068ZM69.0547 15.5068H67.5547V29.7451H69.0547H70.5547V15.5068H69.0547ZM69.0547 29.7451V31.2451H88.9619V29.7451V28.2451H69.0547V29.7451ZM88.9619 29.7451H87.4619V40.9951H88.9619H90.4619V29.7451H88.9619ZM88.9619 40.9951V39.4951H69.0547V40.9951V42.4951H88.9619V40.9951ZM136.572 38.1826H135.072V39.3211L136.169 39.6273L136.572 38.1826ZM142.681 46.9277L141.201 47.1743L141.203 47.187L141.206 47.1996L142.681 46.9277ZM146.196 66V67.5H147.998L147.671 65.7281L146.196 66ZM131.694 66L130.216 66.2549L130.431 67.5H131.694V66ZM128.618 48.1582L130.096 47.9033L130.093 47.8861L130.09 47.8689L128.618 48.1582ZM122.949 43.0605V44.5605H122.956L122.963 44.5605L122.949 43.0605ZM119.39 43.0605V41.5605H117.89V43.0605H119.39ZM119.39 66V67.5H120.89V66H119.39ZM105.591 66H104.091V67.5H105.591V66ZM105.591 2.98242V1.48242H104.091V2.98242H105.591ZM136.572 37.8311L135.795 36.5484L135.072 36.9864V37.8311H136.572ZM129.146 29.833L130.257 30.84L130.267 30.8296L129.146 29.833ZM129.146 17.8359L128.034 18.8429L128.038 18.8481L128.043 18.8534L129.146 17.8359ZM119.39 15.5068V14.0068H117.89V15.5068H119.39ZM119.39 32.1621H117.89V33.6621H119.39V32.1621ZM136.572 38.1826L136.169 39.6273C138.609 40.3087 140.424 42.5147 141.201 47.1743L142.681 46.9277L144.16 46.6811C143.296 41.497 141.04 37.8729 136.976 36.7379L136.572 38.1826ZM142.681 46.9277L141.206 47.1996L144.721 66.2719L146.196 66L147.671 65.7281L144.156 46.6558L142.681 46.9277ZM146.196 66V64.5H131.694V66V67.5H146.196V66ZM131.694 66L133.173 65.7451L130.096 47.9033L128.618 48.1582L127.14 48.4131L130.216 66.2549L131.694 66ZM128.618 48.1582L130.09 47.8689C129.713 45.9535 128.961 44.3328 127.699 43.1976C126.416 42.0442 124.776 41.5433 122.935 41.5606L122.949 43.0605L122.963 44.5605C124.228 44.5485 125.086 44.8826 125.693 45.4284C126.32 45.9924 126.849 46.9352 127.146 48.4475L128.618 48.1582ZM122.949 43.0605V41.5605H119.39V43.0605V44.5605H122.949V43.0605ZM119.39 43.0605H117.89V66H119.39H120.89V43.0605H119.39ZM119.39 66V64.5H105.591V66V67.5H119.39V66ZM105.591 66H107.091V2.98242H105.591H104.091V66H105.591ZM105.591 2.98242V4.48242H126.641V2.98242V1.48242H105.591V2.98242ZM126.641 2.98242V4.48242C131.683 4.48242 135.659 6.07077 138.711 9.1755L139.78 8.12402L140.85 7.07255C137.163 3.32181 132.38 1.48242 126.641 1.48242V2.98242ZM139.78 8.12402L138.711 9.1755C141.747 12.265 143.334 16.4849 143.334 22.0107H144.834H146.334C146.334 15.8764 144.552 10.8385 140.85 7.07255L139.78 8.12402ZM144.834 22.0107H143.334C143.334 28.7679 140.794 33.517 135.795 36.5484L136.572 37.8311L137.35 39.1137C143.366 35.4654 146.334 29.6677 146.334 22.0107H144.834ZM136.572 37.8311H135.072V38.1826H136.572H138.072V37.8311H136.572ZM123.696 32.1621V33.6621C126.316 33.6621 128.547 32.7282 130.257 30.8399L129.146 29.833L128.034 28.8261C126.931 30.0433 125.529 30.6621 123.696 30.6621V32.1621ZM129.146 29.833L130.267 30.8296C131.953 28.9323 132.755 26.5532 132.755 23.8125H131.255H129.755C129.755 25.935 129.15 27.5696 128.024 28.8365L129.146 29.833ZM131.255 23.8125H132.755C132.755 21.0493 131.956 18.6695 130.248 16.8185L129.146 17.8359L128.043 18.8534C129.147 20.0492 129.755 21.6538 129.755 23.8125H131.255ZM129.146 17.8359L130.257 16.829C128.547 14.9407 126.316 14.0068 123.696 14.0068V15.5068V17.0068C125.529 17.0068 126.931 17.6257 128.034 18.8429L129.146 17.8359ZM123.696 15.5068V14.0068H119.39V15.5068V17.0068H123.696V15.5068ZM119.39 15.5068H117.89V32.1621H119.39H120.89V15.5068H119.39ZM119.39 32.1621V33.6621H123.696V32.1621V30.6621H119.39V32.1621ZM185.501 38.5342V40.0342H186.594L186.929 38.9931L185.501 38.5342ZM196.927 2.98242V1.48242H195.833L195.499 2.52347L196.927 2.98242ZM211.077 2.98242H212.577V1.48242H211.077V2.98242ZM211.077 66V67.5H212.577V66H211.077ZM197.718 66H196.218V67.5H197.718V66ZM197.718 34.3154H199.218V32.8154H197.718V34.3154ZM197.366 34.3154V32.8154H196.275L195.939 33.8542L197.366 34.3154ZM187.127 66V67.5H188.219L188.554 66.4613L187.127 66ZM183.611 66L182.185 66.4631L182.521 67.5H183.611V66ZM173.328 34.3154L174.755 33.8524L174.418 32.8154H173.328V34.3154ZM172.977 34.3154V32.8154H171.477V34.3154H172.977ZM172.977 66V67.5H174.477V66H172.977ZM159.661 66H158.161V67.5H159.661V66ZM159.661 2.98242V1.48242H158.161V2.98242H159.661ZM173.899 2.98242L175.329 2.52667L174.995 1.48242H173.899V2.98242ZM185.237 38.5342L183.808 38.9899L184.141 40.0342H185.237V38.5342ZM185.501 38.5342L186.929 38.9931L198.355 3.44138L196.927 2.98242L195.499 2.52347L184.073 38.0752L185.501 38.5342ZM196.927 2.98242V4.48242H211.077V2.98242V1.48242H196.927V2.98242ZM211.077 2.98242H209.577V66H211.077H212.577V2.98242H211.077ZM211.077 66V64.5H197.718V66V67.5H211.077V66ZM197.718 66H199.218V34.3154H197.718H196.218V66H197.718ZM197.718 34.3154V32.8154H197.366V34.3154V35.8154H197.718V34.3154ZM197.366 34.3154L195.939 33.8542L185.7 65.5387L187.127 66L188.554 66.4613L198.794 34.7767L197.366 34.3154ZM187.127 66V64.5H183.611V66V67.5H187.127V66ZM183.611 66L185.038 65.5369L174.755 33.8524L173.328 34.3154L171.901 34.7785L182.185 66.4631L183.611 66ZM173.328 34.3154V32.8154H172.977V34.3154V35.8154H173.328V34.3154ZM172.977 34.3154H171.477V66H172.977H174.477V34.3154H172.977ZM172.977 66V64.5H159.661V66V67.5H172.977V66ZM159.661 66H161.161V2.98242H159.661H158.161V66H159.661ZM159.661 2.98242V4.48242H173.899V2.98242V1.48242H159.661V2.98242ZM173.899 2.98242L172.47 3.43818L183.808 38.9899L185.237 38.5342L186.666 38.0784L175.329 2.52667L173.899 2.98242ZM185.237 38.5342V40.0342H185.501V38.5342V37.0342H185.237V38.5342ZM235.836 2.98242V1.48242H234.647L234.375 2.64023L235.836 2.98242ZM253.019 2.98242L254.479 2.6383L254.206 1.48242H253.019V2.98242ZM267.872 66V67.5H269.767L269.332 65.6559L267.872 66ZM253.985 66L252.51 66.272L252.737 67.5H253.985V66ZM252.008 55.2773L253.483 55.0053L253.256 53.7773H252.008V55.2773ZM236.891 55.2773V53.7773H235.642L235.415 55.0053L236.891 55.2773ZM234.913 66V67.5H236.162L236.388 66.272L234.913 66ZM221.07 66L219.61 65.6578L219.178 67.5H221.07V66ZM239.088 44.291L237.619 43.9895L237.249 45.791H239.088V44.291ZM249.854 44.291V45.791H251.697L251.323 43.987L249.854 44.291ZM244.625 19.0225L246.094 18.7185L245.846 17.5225H244.625V19.0225ZM244.273 19.0225V17.5225H243.05L242.804 18.7209L244.273 19.0225ZM235.836 2.98242V4.48242H253.019V2.98242V1.48242H235.836V2.98242ZM253.019 2.98242L251.559 3.32655L266.412 66.3441L267.872 66L269.332 65.6559L254.479 2.6383L253.019 2.98242ZM267.872 66V64.5H253.985V66V67.5H267.872V66ZM253.985 66L255.46 65.728L253.483 55.0053L252.008 55.2773L250.533 55.5494L252.51 66.272L253.985 66ZM252.008 55.2773V53.7773H236.891V55.2773V56.7773H252.008V55.2773ZM236.891 55.2773L235.415 55.0053L233.438 65.728L234.913 66L236.388 66.272L238.366 55.5494L236.891 55.2773ZM234.913 66V64.5H221.07V66V67.5H234.913V66ZM221.07 66L222.531 66.3422L237.296 3.32462L235.836 2.98242L234.375 2.64023L219.61 65.6578L221.07 66ZM239.088 44.291V45.791H249.854V44.291V42.791H239.088V44.291ZM249.854 44.291L251.323 43.987L246.094 18.7185L244.625 19.0225L243.156 19.3265L248.386 44.595L249.854 44.291ZM244.625 19.0225V17.5225H244.273V19.0225V20.5225H244.625V19.0225ZM244.273 19.0225L242.804 18.7209L237.619 43.9895L239.088 44.291L240.557 44.5926L245.743 19.324L244.273 19.0225ZM303.573 33.7881V35.2881H305.073V33.7881H303.573ZM303.573 2.98242V1.48242H302.073V2.98242H303.573ZM317.416 2.98242H318.916V1.48242H317.416V2.98242ZM317.416 66V67.5H318.916V66H317.416ZM308.319 66L306.993 66.7011L307.416 67.5H308.319V66ZM292.147 35.4141L293.474 34.7129L293.051 33.9141H292.147V35.4141ZM291.884 35.4141V33.9141H290.384V35.4141H291.884ZM291.884 66V67.5H293.384V66H291.884ZM278.085 66H276.585V67.5H278.085V66ZM278.085 2.98242V1.48242H276.585V2.98242H278.085ZM287.094 2.98242L288.42 2.28076L287.997 1.48242H287.094V2.98242ZM303.397 33.7881L302.072 34.4897L302.494 35.2881H303.397V33.7881ZM303.573 33.7881H305.073V2.98242H303.573H302.073V33.7881H303.573ZM303.573 2.98242V4.48242H317.416V2.98242V1.48242H303.573V2.98242ZM317.416 2.98242H315.916V66H317.416H318.916V2.98242H317.416ZM317.416 66V64.5H308.319V66V67.5H317.416V66ZM308.319 66L309.645 65.2989L293.474 34.7129L292.147 35.4141L290.821 36.1152L306.993 66.7011L308.319 66ZM292.147 35.4141V33.9141H291.884V35.4141V36.9141H292.147V35.4141ZM291.884 35.4141H290.384V66H291.884H293.384V35.4141H291.884ZM291.884 66V64.5H278.085V66V67.5H291.884V66ZM278.085 66H279.585V2.98242H278.085H276.585V66H278.085ZM278.085 2.98242V4.48242H287.094V2.98242V1.48242H278.085V2.98242ZM287.094 2.98242L285.768 3.68408L302.072 34.4897L303.397 33.7881L304.723 33.0864L288.42 2.28076L287.094 2.98242ZM303.397 33.7881V35.2881H303.573V33.7881V32.2881H303.397V33.7881ZM347.492 40.9951V39.4951H345.992V40.9951H347.492ZM347.492 53.4756H345.992V54.9756H347.492V53.4756ZM369.904 53.4756H371.404V51.9756H369.904V53.4756ZM369.904 66V67.5H371.404V66H369.904ZM333.825 66H332.325V67.5H333.825V66ZM333.825 2.98242V1.48242H332.325V2.98242H333.825ZM369.377 2.98242H370.877V1.48242H369.377V2.98242ZM369.377 15.5068V17.0068H370.877V15.5068H369.377ZM347.492 15.5068V14.0068H345.992V15.5068H347.492ZM347.492 29.7451H345.992V31.2451H347.492V29.7451ZM367.399 29.7451H368.899V28.2451H367.399V29.7451ZM367.399 40.9951V42.4951H368.899V40.9951H367.399ZM347.492 40.9951H345.992V53.4756H347.492H348.992V40.9951H347.492ZM347.492 53.4756V54.9756H369.904V53.4756V51.9756H347.492V53.4756ZM369.904 53.4756H368.404V66H369.904H371.404V53.4756H369.904ZM369.904 66V64.5H333.825V66V67.5H369.904V66ZM333.825 66H335.325V2.98242H333.825H332.325V66H333.825ZM333.825 2.98242V4.48242H369.377V2.98242V1.48242H333.825V2.98242ZM369.377 2.98242H367.877V15.5068H369.377H370.877V2.98242H369.377ZM369.377 15.5068V14.0068H347.492V15.5068V17.0068H369.377V15.5068ZM347.492 15.5068H345.992V29.7451H347.492H348.992V15.5068H347.492ZM347.492 29.7451V31.2451H367.399V29.7451V28.2451H347.492V29.7451ZM367.399 29.7451H365.899V40.9951H367.399H368.899V29.7451H367.399ZM367.399 40.9951V39.4951H347.492V40.9951V42.4951H367.399V40.9951ZM418.306 50.3555L419.771 50.0355L419.229 47.5505L417.316 49.2278L418.306 50.3555ZM421.03 62.8359L421.949 64.0214L422.698 63.4412L422.496 62.516L421.03 62.8359ZM406.001 67.2744V68.7744L406.008 68.7744L406.001 67.2744ZM388.335 59.2764L387.172 60.2235L387.177 60.2304L388.335 59.2764ZM388.335 9.79395L387.175 8.84305L387.172 8.84686L388.335 9.79395ZM419.844 4.69629L421.288 5.10286L421.57 4.0982L420.727 3.48376L419.844 4.69629ZM416.416 16.8691L415.501 18.0575L417.258 19.4115L417.86 17.2757L416.416 16.8691ZM408.242 14.3203L408.256 12.8203H408.242V14.3203ZM408.242 54.75V56.25C412.078 56.25 415.77 54.575 419.295 51.4831L418.306 50.3555L417.316 49.2278C414.162 51.9953 411.145 53.25 408.242 53.25V54.75ZM418.306 50.3555L416.84 50.6754L419.565 63.1559L421.03 62.8359L422.496 62.516L419.771 50.0355L418.306 50.3555ZM421.03 62.8359L420.111 61.6504C416.663 64.3235 412.005 65.7462 405.994 65.7744L406.001 67.2744L406.008 68.7744C412.477 68.744 417.839 67.2078 421.949 64.0214L421.03 62.8359ZM406.001 67.2744V65.7744C399.031 65.7744 393.58 63.2825 389.492 58.3224L388.335 59.2764L387.177 60.2304C391.879 65.9343 398.205 68.7744 406.001 68.7744V67.2744ZM388.335 59.2764L389.498 58.3293C385.448 53.3554 383.287 45.5328 383.287 34.5791H381.787H380.287C380.287 45.8324 382.491 54.4746 387.172 60.2235L388.335 59.2764ZM381.787 34.5791H383.287C383.287 23.5645 385.449 15.7138 389.498 10.741L388.335 9.79395L387.172 8.84686C382.49 14.5968 380.287 23.2695 380.287 34.5791H381.787ZM388.335 9.79395L389.495 10.7448C393.584 5.75619 399.034 3.25195 406.001 3.25195V1.75195V0.251953C398.202 0.251953 391.875 3.10905 387.175 8.84305L388.335 9.79395ZM406.001 1.75195V3.25195C412.473 3.25195 416.672 4.2417 418.961 5.90882L419.844 4.69629L420.727 3.48376C417.625 1.2251 412.595 0.251953 406.001 0.251953V1.75195ZM419.844 4.69629L418.4 4.28972L414.972 16.4626L416.416 16.8691L417.86 17.2757L421.288 5.10286L419.844 4.69629ZM416.416 16.8691L417.331 15.6808C414.856 13.7743 411.796 12.852 408.256 12.8204L408.242 14.3203L408.229 15.8203C411.25 15.8472 413.64 16.6242 415.501 18.0575L416.416 16.8691ZM408.242 14.3203V12.8203C403.531 12.8203 399.857 14.7423 397.446 18.5883C395.109 22.3171 394.042 27.718 394.042 34.5791H395.542H397.042C397.042 27.9344 398.092 23.2059 399.988 20.1817C401.81 17.2747 404.486 15.8203 408.242 15.8203V14.3203ZM395.542 34.5791H394.042C394.042 41.4117 395.109 46.7917 397.448 50.5065C399.86 54.3378 403.534 56.25 408.242 56.25V54.75V53.25C404.483 53.25 401.807 51.8003 399.986 48.9081C398.092 45.8992 397.042 41.1938 397.042 34.5791H395.542ZM446.404 40.9951V39.4951H444.904V40.9951H446.404ZM446.404 53.4756H444.904V54.9756H446.404V53.4756ZM468.816 53.4756H470.316V51.9756H468.816V53.4756ZM468.816 66V67.5H470.316V66H468.816ZM432.737 66H431.237V67.5H432.737V66ZM432.737 2.98242V1.48242H431.237V2.98242H432.737ZM468.289 2.98242H469.789V1.48242H468.289V2.98242ZM468.289 15.5068V17.0068H469.789V15.5068H468.289ZM446.404 15.5068V14.0068H444.904V15.5068H446.404ZM446.404 29.7451H444.904V31.2451H446.404V29.7451ZM466.312 29.7451H467.812V28.2451H466.312V29.7451ZM466.312 40.9951V42.4951H467.812V40.9951H466.312ZM446.404 40.9951H444.904V53.4756H446.404H447.904V40.9951H446.404ZM446.404 53.4756V54.9756H468.816V53.4756V51.9756H446.404V53.4756ZM468.816 53.4756H467.316V66H468.816H470.316V53.4756H468.816ZM468.816 66V64.5H432.737V66V67.5H468.816V66ZM432.737 66H434.237V2.98242H432.737H431.237V66H432.737ZM432.737 2.98242V4.48242H468.289V2.98242V1.48242H432.737V2.98242ZM468.289 2.98242H466.789V15.5068H468.289H469.789V2.98242H468.289ZM468.289 15.5068V14.0068H446.404V15.5068V17.0068H468.289V15.5068ZM446.404 15.5068H444.904V29.7451H446.404H447.904V15.5068H446.404ZM446.404 29.7451V31.2451H466.312V29.7451V28.2451H446.404V29.7451ZM466.312 29.7451H464.812V40.9951H466.312H467.812V29.7451H466.312ZM466.312 40.9951V39.4951H446.404V40.9951V42.4951H466.312V40.9951ZM493.839 64.9014L492.769 63.8505L492.768 63.8507L493.839 64.9014ZM482.896 64.9014L481.807 65.9319L481.816 65.9421L481.826 65.9521L482.896 64.9014ZM482.896 53.959L483.947 55.0299L483.947 55.0297L482.896 53.959ZM493.839 53.959L492.788 55.0297L492.799 55.0397L492.809 55.0495L493.839 53.959ZM493.839 64.9014L492.768 63.8507C491.482 65.1616 490.03 65.7744 488.346 65.7744V67.2744V68.7744C490.88 68.7744 493.091 67.8052 494.909 65.9521L493.839 64.9014ZM488.346 67.2744V65.7744C486.697 65.7744 485.258 65.1663 483.967 63.8507L482.896 64.9014L481.826 65.9521C483.64 67.8005 485.834 68.7744 488.346 68.7744V67.2744ZM482.896 64.9014L483.986 63.8708C482.707 62.5178 482.111 61.0341 482.111 59.3643H480.611H479.111C479.111 61.8546 480.039 64.0623 481.807 65.9319L482.896 64.9014ZM480.611 59.3643H482.111C482.111 57.663 482.707 56.2456 483.947 55.0299L482.896 53.959L481.846 52.8881C480.039 54.6606 479.111 56.8468 479.111 59.3643H480.611ZM482.896 53.959L483.947 55.0297C485.234 53.7674 486.678 53.1738 488.346 53.1738V51.6738V50.1738C485.853 50.1738 483.665 51.1037 481.846 52.8883L482.896 53.959ZM488.346 51.6738V53.1738C490.049 53.1738 491.506 53.7718 492.788 55.0297L493.839 53.959L494.889 52.8883C493.066 51.0993 490.861 50.1738 488.346 50.1738V51.6738ZM493.839 53.959L492.809 55.0495C494.102 56.2704 494.712 57.6821 494.712 59.3643H496.212H497.712C497.712 56.8277 496.74 54.6359 494.869 52.8685L493.839 53.959ZM496.212 59.3643H494.712C494.712 61.0158 494.101 62.4932 492.769 63.8505L493.839 64.9014L494.909 65.9523C496.741 64.0869 497.712 61.8729 497.712 59.3643H496.212Z" fill="black" mask="url(#path-1-outside-1_0_856)"/>
</svg>
