<svg width="645" height="797" viewBox="0 0 645 797" fill="none" xmlns="http://www.w3.org/2000/svg">
<path d="M0 0V797L213 398.505L0 0Z" fill="#FFFF7A"/>
<path d="M219 0V797L432 398.505L219 0Z" fill="#FFFF7A"/>
<path d="M432 0V797L645 398.505L432 0Z" fill="#FFFF7A"/>
<g clip-path="url(#clip0_45_572)">
<path d="M262.989 424.837C327.049 435.252 387.422 391.764 397.837 327.705C408.251 263.646 364.764 203.272 300.705 192.858C236.645 182.443 176.272 225.93 165.857 289.99C155.442 354.049 198.93 414.422 262.989 424.837Z" fill="#FFB9CD"/>
<path d="M265.017 412.362C322.187 421.657 376.067 382.847 385.362 325.677C394.656 268.507 355.846 214.627 298.676 205.332C241.506 196.038 187.626 234.848 178.332 292.018C169.037 349.188 207.847 403.068 265.017 412.362Z" fill="#FF6533"/>
<path d="M249.609 273.027C251.984 277.383 246.697 281.197 243.311 277.563C243.271 277.52 243.232 277.466 243.204 277.414C240.83 273.052 246.122 269.245 249.502 272.878C249.543 272.921 249.581 272.975 249.609 273.027ZM247.67 282.789L247.275 292.285C247.275 292.285 247.268 292.332 247.264 292.355L246.082 299.628C246.03 299.947 245.726 300.165 245.407 300.113L239.469 299.148C239.15 299.096 238.931 298.792 238.983 298.473L240.165 291.201C240.165 291.201 240.173 291.155 240.177 291.131L242.81 281.999C242.892 281.715 243.177 281.535 243.467 281.582L247.167 282.184C247.463 282.232 247.671 282.492 247.659 282.788L247.67 282.789Z" fill="#FCF9CA"/>
<path d="M278.022 292.79L279.683 295.239C279.871 295.513 279.792 295.888 279.513 296.068L275.319 298.726C275.053 298.897 274.696 298.821 274.518 298.56L272.624 295.782C272.485 295.575 272.226 295.485 271.983 295.553C270.009 296.089 267.853 296.238 265.673 295.884C257.745 294.595 252.332 287.322 253.653 279.197C254.974 271.071 262.412 265.887 270.34 267.176C278.268 268.465 283.681 275.739 282.36 283.864C281.826 287.152 280.281 289.949 278.102 292.041C277.891 292.239 277.851 292.56 278.015 292.795L278.022 292.79ZM268.005 288.899L265.686 285.475C265.499 285.2 265.578 284.826 265.856 284.651L270.05 281.993C270.316 281.822 270.673 281.898 270.851 282.159L273.709 286.398C273.945 286.746 274.462 286.747 274.692 286.397C275.35 285.385 275.83 284.195 276.051 282.832C276.853 277.903 273.835 274.055 269.341 273.324C264.846 272.593 260.765 275.287 259.963 280.217C259.162 285.146 262.18 288.994 266.674 289.725C266.941 289.768 267.204 289.799 267.469 289.818C267.962 289.857 268.278 289.307 267.999 288.898L268.005 288.899Z" fill="#FCF9CA"/>
<path d="M306.618 282.325L303.601 300.883C303.549 301.202 303.246 301.421 302.927 301.369L298.125 300.588C297.829 300.54 297.63 300.264 297.678 299.968C297.75 299.527 297.276 299.182 296.888 299.411C295.605 300.161 293.877 300.463 291.865 300.136C287.881 299.488 284.956 296.096 285.821 290.772L287.695 279.248C287.747 278.929 288.05 278.711 288.369 278.763L293.125 279.536C293.444 279.588 293.662 279.891 293.61 280.21L291.877 290.87C291.479 293.317 292.83 294.709 294.727 295.018C296.896 295.37 298.598 294.349 299.052 291.554L300.708 281.37C300.76 281.051 301.063 280.833 301.382 280.884L306.138 281.658C306.457 281.709 306.675 282.013 306.623 282.332L306.618 282.325Z" fill="#FCF9CA"/>
<path d="M319.616 299.225C321.06 299.46 322.394 299.165 323.324 298.572C323.53 298.438 323.799 298.47 323.988 298.62L327.411 301.403C327.701 301.635 327.696 302.068 327.418 302.315C325.115 304.322 322.156 305.061 318.676 304.495C311.931 303.398 308.493 298.184 309.448 292.309C310.403 286.435 315.397 282.591 321.632 283.605C327.391 284.541 330.923 289.687 329.955 295.643C329.848 296.299 329.699 296.923 329.497 297.51C329.405 297.78 329.129 297.938 328.845 297.892L316.266 295.847C315.808 295.772 315.44 296.242 315.633 296.666C316.316 298.176 317.801 298.93 319.616 299.225ZM323.585 292.5C324.019 292.571 324.367 292.157 324.239 291.732C323.713 289.956 322.277 289.085 320.745 288.836C318.82 288.523 317.308 289.111 316.362 290.499C316.127 290.847 316.353 291.319 316.765 291.386L323.585 292.495L323.585 292.5ZM323.577 281.856L319.169 281.139C318.723 281.066 318.523 280.54 318.806 280.187L322.009 276.231C322.143 276.069 322.352 275.989 322.561 276.023L328.088 276.922C328.581 277.002 328.754 277.62 328.38 277.946L324.057 281.72C323.926 281.835 323.751 281.884 323.577 281.856Z" fill="#FCF9CA"/>
<path d="M196.667 313.762C198.111 313.997 199.445 313.702 200.375 313.109C200.581 312.976 200.85 313.007 201.039 313.157L204.462 315.94C204.752 316.172 204.747 316.606 204.469 316.852C202.166 318.859 199.207 319.598 195.727 319.032C188.982 317.936 185.544 312.721 186.499 306.847C187.454 300.972 192.448 297.129 198.683 298.142C204.442 299.078 207.974 304.225 207.006 310.181C206.899 310.836 206.744 311.46 206.548 312.047C206.456 312.318 206.18 312.475 205.896 312.429L193.317 310.384C192.859 310.309 192.491 310.779 192.684 311.204C193.367 312.714 194.852 313.467 196.667 313.762ZM200.635 307.038C201.07 307.108 201.418 306.695 201.29 306.269C200.764 304.493 199.328 303.622 197.796 303.373C195.871 303.06 194.359 303.648 193.413 305.036C193.178 305.385 193.404 305.856 193.816 305.923L200.636 307.032L200.635 307.038Z" fill="#FCF9CA"/>
<path d="M232.89 304.864L228.59 331.31C228.539 331.629 228.235 331.847 227.916 331.796L223.161 331.022C222.842 330.971 222.623 330.667 222.675 330.348L223.946 322.531C224.025 322.043 223.517 321.693 223.086 321.926C221.694 322.688 219.968 322.979 217.898 322.642C212.73 321.802 209.211 316.575 210.166 310.7C211.121 304.825 216.115 300.982 221.283 301.822C223.394 302.166 224.964 303.016 226.043 304.215C226.345 304.55 226.896 304.384 226.968 303.943L226.981 303.862C227.029 303.566 227.306 303.367 227.601 303.415L232.403 304.196C232.722 304.248 232.941 304.551 232.889 304.87L232.89 304.864ZM225.466 313.182C225.947 310.224 224.277 308.048 221.557 307.605C218.837 307.163 216.563 308.698 216.082 311.656C215.601 314.614 217.273 316.785 219.992 317.227C222.712 317.669 224.986 316.134 225.466 313.182Z" fill="#FCF9CA"/>
<path d="M256.865 308.762L253.847 327.321C253.796 327.639 253.492 327.858 253.173 327.806L248.371 327.025C248.075 326.977 247.876 326.701 247.924 326.405C247.996 325.964 247.522 325.62 247.134 325.848C245.851 326.598 244.123 326.9 242.111 326.573C238.127 325.925 235.202 322.533 236.067 317.209L237.941 305.686C237.993 305.367 238.296 305.148 238.615 305.2L243.371 305.973C243.69 306.025 243.908 306.328 243.856 306.647L242.123 317.307C241.725 319.754 243.077 321.146 244.973 321.455C247.142 321.807 248.844 320.786 249.298 317.991L250.954 307.807C251.006 307.488 251.309 307.27 251.628 307.322L256.384 308.095C256.703 308.147 256.921 308.45 256.869 308.769L256.865 308.762Z" fill="#FCF9CA"/>
<path d="M263.09 306.316C260.778 302.231 265.875 298.56 269.018 302.041C269.053 302.082 269.087 302.13 269.115 302.176C271.427 306.26 266.33 309.932 263.187 306.451C263.152 306.409 263.118 306.362 263.09 306.316ZM262.863 309.142L267.619 309.915C267.937 309.967 268.156 310.271 268.104 310.59L265.087 329.148C265.035 329.467 264.732 329.685 264.413 329.634L259.657 328.86C259.338 328.809 259.12 328.505 259.171 328.186L262.189 309.628C262.241 309.309 262.544 309.09 262.863 309.142Z" fill="#FCF9CA"/>
<path d="M293.134 324.183C292.179 330.058 287.185 333.901 282.018 333.061C279.947 332.725 278.408 331.903 277.324 330.738C276.989 330.38 276.396 330.552 276.316 331.039L275.045 338.857C274.993 339.176 274.69 339.394 274.371 339.342L269.616 338.569C269.297 338.517 269.078 338.214 269.13 337.895L273.429 311.449C273.481 311.13 273.785 310.912 274.104 310.964L278.906 311.744C279.201 311.792 279.401 312.069 279.352 312.365L279.339 312.446C279.267 312.892 279.737 313.219 280.131 312.997C281.54 312.202 283.293 311.892 285.404 312.235C290.571 313.075 294.09 318.303 293.135 324.177L293.134 324.183ZM287.219 323.222C287.7 320.264 286.03 318.087 283.31 317.645C280.59 317.203 278.316 318.738 277.835 321.696C277.354 324.654 279.026 326.824 281.745 327.267C284.465 327.709 286.739 326.173 287.219 323.222Z" fill="#FCF9CA"/>
<path d="M319.209 318.898L316.192 337.457C316.14 337.776 315.837 337.994 315.518 337.942L310.716 337.162C310.42 337.113 310.221 336.837 310.269 336.541L310.282 336.46C310.355 336.013 309.884 335.687 309.491 335.909C308.082 336.704 306.329 337.014 304.218 336.671C299.051 335.83 295.531 330.603 296.486 324.728C297.441 318.853 302.436 315.01 307.603 315.85C309.714 316.194 311.284 317.044 312.363 318.243C312.666 318.578 313.217 318.412 313.288 317.971L313.301 317.89C313.35 317.594 313.626 317.395 313.922 317.443L318.724 318.224C319.043 318.276 319.261 318.579 319.209 318.898ZM311.791 327.217C312.272 324.259 310.602 322.082 307.882 321.64C305.162 321.198 302.888 322.733 302.408 325.691C301.927 328.649 303.598 330.819 306.318 331.262C309.038 331.704 311.311 330.169 311.791 327.217Z" fill="#FCF9CA"/>
<path d="M337.408 336.429L336.699 340.791C336.647 341.11 336.344 341.328 336.025 341.276L321.41 338.9C321.091 338.848 320.873 338.545 320.925 338.226L321.44 335.054C321.46 334.932 321.521 334.817 321.606 334.729L329.774 326.634C330.115 326.297 329.924 325.712 329.454 325.636L324.113 324.767C323.794 324.715 323.575 324.412 323.627 324.093L324.336 319.732C324.388 319.413 324.691 319.194 325.01 319.246L338.836 321.494C339.155 321.546 339.374 321.849 339.322 322.168L338.806 325.34C338.787 325.462 338.726 325.577 338.64 325.665L330.473 333.76C330.132 334.098 330.323 334.682 330.793 334.759L336.923 335.755C337.242 335.807 337.46 336.11 337.408 336.429Z" fill="#FCF9CA"/>
<path d="M340.58 331.897C341.535 326.022 346.924 322.243 352.723 323.186C358.523 324.129 362.436 329.42 361.481 335.295C360.526 341.17 355.138 344.949 349.338 344.006C343.539 343.063 339.625 337.772 340.58 331.897ZM355.56 334.332C356.015 331.531 354.344 329.361 351.781 328.944C349.218 328.527 346.944 330.062 346.49 332.858C346.035 335.653 347.705 337.83 350.269 338.246C352.832 338.663 355.106 337.128 355.56 334.332Z" fill="#FCF9CA"/>
<path d="M364.891 345.41C362.505 341.045 367.804 337.228 371.188 340.874C371.229 340.916 371.262 340.969 371.29 341.015C373.659 345.371 368.379 349.179 364.993 345.551C364.952 345.509 364.919 345.456 364.891 345.41ZM367.23 326.075L368.413 318.802C368.465 318.483 368.768 318.264 369.087 318.316L375.026 319.282C375.345 319.334 375.563 319.637 375.511 319.956L374.329 327.229C374.329 327.229 374.321 327.275 374.318 327.298L371.684 336.43C371.602 336.715 371.317 336.894 371.027 336.847L367.327 336.246C367.031 336.198 366.823 335.938 366.836 335.642L367.231 326.146C367.231 326.146 367.238 326.1 367.242 326.076L367.23 326.075Z" fill="#FCF9CA"/>
<path d="M315.137 233.082C311.596 231.244 307.812 229.879 303.915 229.025C303.249 224.988 302.583 220.957 301.912 216.919C301.726 215.793 301.338 214.444 300.231 214.187C299.043 213.916 298.085 215.124 297.495 216.189C295.489 219.815 293.839 223.63 292.555 227.571C288.964 227.362 285.378 227.154 281.787 226.945C281.251 226.912 280.695 226.887 280.185 227.06C279.675 227.233 279.212 227.663 279.171 228.205C279.117 228.868 279.684 229.407 280.199 229.83C282.638 231.852 285.078 233.873 287.512 235.888C286.474 238.756 285.566 241.668 284.784 244.612C284.478 245.765 284.225 247.099 284.94 248.048C285.576 248.896 286.803 249.107 287.823 248.839C288.849 248.571 289.718 247.914 290.56 247.272C292.517 245.78 294.475 244.283 296.432 242.791C297.639 245.69 299.275 248.409 301.294 250.82C301.912 251.558 302.756 252.338 303.699 252.134C304.656 251.927 305.096 250.831 305.334 249.882C306.212 246.382 306.472 242.733 306.103 239.143C308.754 238.181 311.404 237.225 314.054 236.263C314.402 236.135 314.765 235.992 315.108 235.821C316.235 235.26 316.257 233.662 315.137 233.082Z" fill="#FAB31B"/>
<path d="M232.086 272.904C228.905 270.5 225.4 268.519 221.701 267.031C221.717 262.938 221.733 258.851 221.755 254.759C221.761 253.623 221.602 252.222 220.554 251.784C219.428 251.315 218.278 252.348 217.522 253.303C214.941 256.544 212.672 260.027 210.754 263.697C207.248 262.889 203.747 262.088 200.241 261.28C199.714 261.158 199.174 261.035 198.642 261.121C198.11 261.207 197.583 261.556 197.451 262.076C197.287 262.722 197.751 263.345 198.186 263.851C200.254 266.253 202.318 268.648 204.386 271.05C202.883 273.704 201.5 276.42 200.239 279.197C199.748 280.278 199.272 281.558 199.821 282.612C200.305 283.554 201.482 283.965 202.533 283.874C203.584 283.777 204.552 283.28 205.49 282.783C207.67 281.638 209.851 280.492 212.026 279.346C212.73 282.407 213.893 285.364 215.476 288.074C215.96 288.903 216.663 289.815 217.629 289.769C218.607 289.72 219.222 288.719 219.612 287.824C221.059 284.523 221.929 280.968 222.169 277.37C224.941 276.868 227.72 276.361 230.492 275.859C230.854 275.793 231.236 275.713 231.606 275.6C232.814 275.237 233.099 273.664 232.092 272.905L232.086 272.904Z" fill="#FAB31B"/>
<path d="M252.838 369.01C249.589 366.696 246.031 364.82 242.292 363.432C242.195 359.345 242.097 355.257 241.995 351.163C241.965 350.027 241.77 348.632 240.704 348.227C239.567 347.792 238.448 348.854 237.717 349.831C235.227 353.14 233.06 356.693 231.246 360.416C227.723 359.713 224.196 359.002 220.673 358.298C220.142 358.194 219.6 358.088 219.072 358.187C218.544 358.286 218.027 358.648 217.905 359.176C217.757 359.831 218.241 360.439 218.692 360.929C220.823 363.27 222.96 365.611 225.093 367.946C223.666 370.643 222.361 373.401 221.178 376.209C220.714 377.306 220.278 378.593 220.852 379.639C221.362 380.567 222.551 380.945 223.6 380.824C224.651 380.697 225.606 380.167 226.529 379.651C228.672 378.445 230.821 377.235 232.964 376.03C233.755 379.07 235.001 381.992 236.657 384.655C237.167 385.47 237.897 386.362 238.856 386.286C239.833 386.213 240.422 385.189 240.789 384.285C242.142 380.945 242.909 377.361 243.048 373.758C245.809 373.178 248.565 372.596 251.326 372.015C251.69 371.937 252.067 371.85 252.433 371.724C253.629 371.324 253.874 369.744 252.843 369.017L252.838 369.01Z" fill="#FAB31B"/>
<path d="M379.452 287.737C375.68 286.445 371.736 285.655 367.756 285.389C366.502 281.495 365.241 277.605 363.987 273.71C363.639 272.63 363.05 271.349 361.915 271.26C360.699 271.164 359.933 272.504 359.503 273.648C358.056 277.532 356.986 281.549 356.304 285.635C352.722 285.957 349.144 286.286 345.562 286.609C345.024 286.658 344.474 286.712 343.993 286.961C343.512 287.21 343.122 287.7 343.159 288.242C343.205 288.91 343.842 289.353 344.416 289.702C347.126 291.339 349.836 292.977 352.547 294.614C351.948 297.6 351.475 300.619 351.143 303.648C351.011 304.829 350.962 306.19 351.809 307.024C352.563 307.766 353.808 307.796 354.781 307.377C355.754 306.958 356.517 306.183 357.254 305.421C358.97 303.653 360.68 301.889 362.396 300.12C364.018 302.813 366.044 305.255 368.39 307.339C369.107 307.979 370.062 308.623 370.963 308.281C371.877 307.93 372.152 306.79 372.246 305.811C372.592 302.218 372.309 298.571 371.418 295.081C373.899 293.74 376.379 292.399 378.86 291.052C379.185 290.879 379.521 290.683 379.837 290.461C380.871 289.736 380.652 288.153 379.463 287.745L379.452 287.737Z" fill="#FAB31B"/>
<path d="M332.872 373.302C329.173 371.813 325.275 370.816 321.31 370.344C320.256 366.393 319.209 362.437 318.155 358.485C317.863 357.384 317.344 356.074 316.212 355.931C315.005 355.777 314.164 357.069 313.679 358.186C312.032 361.984 310.756 365.95 309.861 369.989C306.267 370.125 302.679 370.268 299.085 370.404C298.546 370.423 297.994 370.447 297.5 370.67C297.005 370.893 296.589 371.367 296.597 371.904C296.607 372.573 297.219 373.053 297.772 373.423C300.394 375.2 303.017 376.972 305.639 378.75C304.885 381.705 304.256 384.692 303.768 387.696C303.576 388.873 303.451 390.228 304.256 391.103C304.968 391.886 306.209 391.974 307.203 391.612C308.197 391.244 309.002 390.506 309.774 389.786C311.576 388.108 313.379 386.431 315.186 384.761C316.665 387.531 318.56 390.077 320.797 392.286C321.484 392.964 322.402 393.654 323.319 393.357C324.249 393.056 324.582 391.925 324.727 390.961C325.259 387.392 325.169 383.735 324.459 380.196C327.007 378.985 329.549 377.774 332.098 376.563C332.433 376.403 332.777 376.227 333.102 376.024C334.174 375.359 334.041 373.765 332.867 373.295L332.872 373.302Z" fill="#FAB31B"/>
<path d="M212.309 356.653C212.013 356.605 211.741 356.448 211.552 356.185C205.809 348.34 201.761 339.55 199.511 330.065C199.364 329.434 199.753 328.8 200.384 328.653C201.015 328.505 201.648 328.894 201.796 329.525C203.97 338.707 207.886 347.207 213.443 354.802C213.828 355.328 213.715 356.06 213.188 356.445C212.924 356.64 212.604 356.707 212.308 356.659L212.309 356.653Z" fill="#FAB31B"/>
<path d="M268.727 389.577C263.288 388.693 257.905 387.347 252.683 385.558C252.069 385.345 251.743 384.679 251.956 384.064C252.169 383.45 252.829 383.123 253.449 383.337C266.778 387.909 281.118 389.484 294.929 387.908C295.578 387.835 296.157 388.298 296.231 388.941C296.306 389.584 295.841 390.17 295.198 390.244C286.464 391.24 277.519 391.007 268.739 389.579L268.727 389.577Z" fill="#FAB31B"/>
<path d="M339.789 370.444C339.54 370.403 339.298 370.281 339.116 370.078C338.676 369.602 338.708 368.857 339.184 368.417C344.359 363.645 348.799 358.086 352.377 351.894C352.7 351.333 353.422 351.141 353.983 351.464C354.543 351.788 354.735 352.509 354.412 353.07C350.717 359.47 346.128 365.212 340.778 370.146C340.505 370.399 340.137 370.5 339.789 370.444Z" fill="#FAB31B"/>
<path d="M350.816 267.289C350.485 267.235 350.183 267.043 349.995 266.733C344.107 256.965 335.962 248.552 325.785 241.73C325.248 241.369 325.099 240.636 325.46 240.1C325.821 239.563 326.554 239.414 327.09 239.775C337.557 246.793 345.942 255.454 352.008 265.518C352.341 266.073 352.164 266.794 351.609 267.132C351.358 267.282 351.078 267.326 350.817 267.283L350.816 267.289Z" fill="#FAB31B"/>
<path d="M226.606 246.887C226.334 246.842 226.076 246.705 225.888 246.472C225.475 245.971 225.548 245.232 226.049 244.82C237.989 235.016 253.159 228.958 269.924 227.302C270.572 227.235 271.143 227.709 271.211 228.357C271.272 229.004 270.804 229.577 270.156 229.644C253.857 231.256 239.122 237.129 227.545 246.64C227.271 246.864 226.93 246.945 226.611 246.893L226.606 246.887Z" fill="#FAB31B"/>
</g>
<g clip-path="url(#clip1_45_572)">
<path d="M163 555C228.17 555 281 502.17 281 437C281 371.83 228.17 319 163 319C97.8304 319 45 371.83 45 437C45 502.17 97.8304 555 163 555Z" fill="#FFB9CD"/>
<path d="M143 416.332C136.297 414.733 131.359 411.187 126.002 407.087C127.418 401.358 128.834 395.629 130.256 389.9C135.613 394.007 140.545 397.547 147.254 399.146C145.838 404.874 144.422 410.603 143 416.332Z" fill="#342E2E"/>
<path d="M161.756 418.45C155.419 418.238 149.16 418.031 143 416.332C144.416 410.603 145.832 404.874 147.254 399.146C153.419 400.845 159.673 401.051 166.01 401.264L161.756 418.45Z" fill="#FCF9CA"/>
<path d="M181.102 418.197C174.653 418.256 168.205 418.391 161.756 418.456L166.01 401.27C172.458 401.211 178.907 401.075 185.356 401.01C183.94 406.739 182.524 412.468 181.102 418.197Z" fill="#342E2E"/>
<path d="M199.864 420.315C193.698 418.616 187.444 418.409 181.107 418.197C182.523 412.468 183.939 406.739 185.361 401.01C191.698 401.222 197.958 401.429 204.117 403.128C202.701 408.857 201.285 414.586 199.864 420.315Z" fill="#FCF9CA"/>
<path d="M216.856 429.56C211.499 425.454 206.567 421.914 199.858 420.315C201.274 414.586 202.69 408.857 204.112 403.128C210.425 404.638 215.175 407.866 220.184 411.671C220.744 412.096 220.998 412.822 220.833 413.506C219.511 418.857 218.184 424.215 216.862 429.566L216.856 429.56Z" fill="#342E2E"/>
<path d="M138.746 433.519C132.044 431.92 127.105 428.374 121.748 424.274C123.164 418.545 124.58 412.816 126.002 407.087C131.359 411.193 136.292 414.733 143 416.332C141.584 422.061 140.168 427.79 138.746 433.519Z" fill="#FCF9CA"/>
<path d="M157.508 435.637C151.171 435.425 144.912 435.218 138.752 433.519C140.168 427.79 141.584 422.061 143.006 416.332C149.171 418.031 155.425 418.238 161.762 418.45C160.346 424.179 158.93 429.908 157.508 435.637Z" fill="#342E2E"/>
<path d="M176.854 435.383C170.405 435.442 163.957 435.578 157.508 435.643C158.924 429.914 160.34 424.185 161.762 418.456C168.21 418.397 174.659 418.262 181.108 418.197C179.692 423.926 178.276 429.654 176.854 435.383Z" fill="#FCF9CA"/>
<path d="M195.61 437.501C189.444 435.802 183.19 435.596 176.854 435.383C178.27 429.654 179.686 423.926 181.107 418.197C187.444 418.409 193.704 418.616 199.864 420.315C198.448 426.044 197.032 431.773 195.61 437.501Z" fill="#342E2E"/>
<path d="M212.608 446.747C207.251 442.64 202.319 439.1 195.61 437.502C197.026 431.773 198.442 426.044 199.864 420.315C206.567 421.914 211.505 425.46 216.862 429.56C215.446 435.289 214.03 441.018 212.608 446.747Z" fill="#FCF9CA"/>
<path d="M134.498 450.706C127.796 449.107 122.857 445.561 117.5 441.46C118.916 435.731 120.332 430.003 121.754 424.274C127.111 428.38 132.043 431.92 138.752 433.519C137.336 439.248 135.92 444.977 134.498 450.706Z" fill="#342E2E"/>
<path d="M153.254 452.824C146.918 452.611 140.658 452.405 134.498 450.706C135.914 444.977 137.33 439.248 138.752 433.519C144.917 435.218 151.171 435.425 157.508 435.637C156.092 441.366 154.676 447.095 153.254 452.824Z" fill="#FCF9CA"/>
<path d="M172.6 452.57C166.151 452.629 159.703 452.765 153.254 452.83C154.67 447.101 156.086 441.372 157.508 435.643C163.957 435.584 170.405 435.448 176.854 435.383C175.438 441.112 174.022 446.841 172.6 452.57Z" fill="#342E2E"/>
<path d="M191.363 454.688C185.197 452.989 178.943 452.783 172.606 452.57C174.022 446.841 175.438 441.112 176.86 435.383C183.197 435.596 189.457 435.802 195.616 437.502C194.2 443.23 192.784 448.959 191.363 454.688Z" fill="#FCF9CA"/>
<path d="M208.354 463.933C202.997 459.827 198.065 456.287 191.356 454.688C192.772 448.959 194.188 443.23 195.61 437.501C202.313 439.1 207.251 442.646 212.608 446.747C211.192 452.476 209.776 458.205 208.354 463.933Z" fill="#342E2E"/>
<path d="M130.244 467.892C123.542 466.293 118.603 462.748 113.246 458.647C114.662 452.918 116.078 447.189 117.5 441.46C122.857 445.567 127.79 449.107 134.498 450.706C133.082 456.435 131.666 462.163 130.244 467.892Z" fill="#FCF9CA"/>
<path d="M149 470.01C142.664 469.798 136.404 469.592 130.244 467.892C131.66 462.163 133.076 456.435 134.498 450.706C140.664 452.405 146.918 452.611 153.254 452.824C151.838 458.553 150.422 464.282 149 470.01Z" fill="#342E2E"/>
<path d="M168.352 469.757C161.903 469.816 155.455 469.951 149.006 470.016C150.422 464.287 151.838 458.559 153.26 452.83C159.708 452.771 166.157 452.635 172.606 452.57C171.19 458.299 169.774 464.028 168.352 469.757Z" fill="#FCF9CA"/>
<path d="M187.109 471.875C180.943 470.176 174.689 469.969 168.353 469.757C169.769 464.028 171.185 458.299 172.606 452.57C178.943 452.782 185.203 452.989 191.363 454.688C189.947 460.417 188.531 466.146 187.109 471.875Z" fill="#342E2E"/>
<path d="M201.97 479.504C197.398 476.099 192.914 473.261 187.108 471.875C188.524 466.146 189.94 460.417 191.362 454.688C198.065 456.287 203.003 459.833 208.36 463.933C207.157 468.795 205.953 473.657 204.755 478.512C204.448 479.745 202.991 480.259 201.976 479.504H201.97Z" fill="#FCF9CA"/>
<path d="M191.893 436.646C188.637 449.632 174.252 457.32 161.668 457.792C148.646 458.281 139.26 447.136 142.463 434.375C145.72 421.389 160.104 413.701 172.689 413.229C185.71 412.739 195.091 423.89 191.893 436.646Z" fill="#FAB31B"/>
<path d="M161.822 430.085C161.497 431.389 160.046 432.457 158.588 432.451C157.125 432.445 156.211 431.354 156.535 430.05C156.86 428.746 158.299 427.719 159.757 427.725C161.214 427.731 162.146 428.775 161.822 430.079V430.085Z" fill="#342E2E"/>
<path d="M180.578 429.867C180.253 431.171 178.814 432.197 177.356 432.192C175.893 432.186 174.967 431.141 175.291 429.837C175.616 428.534 177.067 427.466 178.525 427.472C179.982 427.477 180.902 428.569 180.578 429.873V429.867Z" fill="#342E2E"/>
<path d="M153.556 437.791C153.243 439.047 153.172 440.269 153.308 441.413C153.845 446.121 157.981 449.437 163.751 449.366C168.966 449.301 175.462 445.815 178.17 441.248C178.861 440.121 179.392 438.923 179.704 437.661" stroke="#342E2E" stroke-width="3" stroke-miterlimit="10" stroke-linecap="round"/>
<path d="M130.887 386.956C130.202 386.785 129.488 386.891 128.881 387.257C128.273 387.623 127.842 388.207 127.671 388.891L94.0293 508.124C93.6753 509.546 94.5426 510.986 95.9645 511.34C96.1179 511.375 96.2713 511.405 96.4247 511.411C96.4896 511.411 96.5486 511.417 96.6135 511.417C97.823 511.417 98.8909 510.597 99.1859 509.399L132.828 390.166C133.182 388.744 132.309 387.304 130.893 386.95L130.887 386.956Z" fill="#342E2E"/>
<path d="M116.762 494.277C116.573 494.277 116.384 494.372 116.272 494.543L114.514 497.192C114.331 497.463 114.408 497.829 114.679 498.012L117.948 500.177C118.219 500.36 118.296 500.726 118.113 500.997L110.219 512.904C110.036 513.175 110.113 513.541 110.384 513.724L113.181 515.576C113.281 515.641 113.393 515.677 113.505 515.677C113.694 515.677 113.883 515.582 113.995 515.411L121.889 503.505C122.001 503.334 122.19 503.239 122.379 503.239C122.491 503.239 122.603 503.269 122.703 503.34L125.972 505.505C126.072 505.57 126.184 505.605 126.296 505.605C126.485 505.605 126.674 505.511 126.786 505.34L128.544 502.691C128.727 502.419 128.65 502.053 128.379 501.871L117.086 494.383C116.986 494.319 116.874 494.283 116.762 494.283V494.277Z" fill="#119349"/>
<path d="M129.995 502.632C129.765 502.632 129.547 502.767 129.453 502.997L122.284 520.208C122.16 520.509 122.302 520.857 122.603 520.981L133.016 525.317C133.093 525.347 133.17 525.364 133.24 525.364C133.47 525.364 133.689 525.229 133.783 524.998L135.004 522.06C135.128 521.759 134.987 521.411 134.686 521.287L128.455 518.691C128.155 518.567 128.013 518.219 128.137 517.918L129.034 515.765C129.128 515.541 129.346 515.399 129.576 515.399C129.653 515.399 129.73 515.411 129.801 515.446L135.246 517.718C135.323 517.747 135.4 517.765 135.471 517.765C135.701 517.765 135.919 517.629 136.013 517.399L137.217 514.514C137.341 514.213 137.199 513.865 136.898 513.741L131.453 511.47C131.152 511.346 131.01 510.998 131.134 510.697L131.942 508.756C132.037 508.532 132.255 508.39 132.485 508.39C132.562 508.39 132.639 508.402 132.709 508.437L138.81 510.98C138.887 511.01 138.963 511.027 139.034 511.027C139.264 511.027 139.483 510.892 139.577 510.661L140.798 507.723C140.922 507.422 140.781 507.074 140.48 506.95L130.196 502.667C130.119 502.637 130.043 502.62 129.972 502.62L129.995 502.632Z" fill="#119349"/>
<path d="M147.784 508.726C147.571 508.726 147.371 508.838 147.265 509.033L137.766 526.279C137.571 526.633 137.783 527.075 138.179 527.146L141.819 527.795C141.854 527.801 141.89 527.807 141.925 527.807C142.143 527.807 142.344 527.689 142.444 527.494L143.565 525.364C143.666 525.17 143.872 525.052 144.085 525.052C144.12 525.052 144.155 525.052 144.191 525.063L150.592 526.202C150.846 526.249 151.041 526.45 151.076 526.704L151.395 529.087C151.43 529.341 151.625 529.547 151.878 529.589L155.525 530.238C155.56 530.244 155.595 530.25 155.631 530.25C155.985 530.25 156.268 529.931 156.215 529.571L153.23 510.107C153.194 509.859 152.999 509.659 152.752 509.617L147.896 508.756C147.861 508.75 147.825 508.744 147.79 508.744L147.784 508.726ZM149.737 521.712C149.701 521.712 149.666 521.712 149.631 521.7L146.645 521.169C146.25 521.099 146.037 520.668 146.226 520.314L148.545 515.907C148.657 515.688 148.864 515.594 149.064 515.594C149.336 515.594 149.607 515.777 149.654 516.107L150.315 521.046C150.362 521.405 150.079 521.712 149.731 521.712H149.737Z" fill="#119349"/>
<path d="M178.878 509.127C178.878 509.127 178.842 509.127 178.824 509.127L175.231 509.458C175.025 509.476 174.848 509.599 174.753 509.782L170.771 517.883C170.665 518.101 170.452 518.213 170.24 518.213C170.063 518.213 169.886 518.137 169.768 517.977L164.381 510.738C164.269 510.591 164.092 510.502 163.909 510.502C163.892 510.502 163.874 510.502 163.856 510.502L160.257 510.833C159.933 510.862 159.697 511.151 159.726 511.476L161.425 530.043C161.455 530.35 161.709 530.58 162.009 530.58C162.027 530.58 162.045 530.58 162.063 530.58L165.402 530.273C165.726 530.244 165.962 529.954 165.933 529.63L165.125 520.833C165.089 520.444 165.402 520.19 165.721 520.19C165.892 520.19 166.063 520.261 166.187 520.432L170.806 526.65L171.314 526.603L174.724 519.647C174.836 519.423 175.043 519.317 175.249 519.317C175.532 519.317 175.81 519.511 175.839 519.854L176.647 528.651C176.677 528.957 176.931 529.187 177.231 529.187C177.249 529.187 177.267 529.187 177.285 529.187L180.624 528.881C180.948 528.851 181.19 528.562 181.155 528.238L179.456 509.67C179.426 509.363 179.173 509.133 178.872 509.133L178.878 509.127Z" fill="#119349"/>
<path d="M198.371 501.469C198.288 501.469 198.206 501.487 198.129 501.522L188.223 505.959C187.928 506.095 187.792 506.443 187.928 506.738L195.545 523.754C195.645 523.972 195.857 524.102 196.082 524.102C196.164 524.102 196.247 524.084 196.323 524.049L199.38 522.68C199.675 522.544 199.81 522.196 199.675 521.901L197.185 516.337C197.049 516.042 197.185 515.688 197.48 515.558L203.12 513.033C203.415 512.898 203.551 512.549 203.415 512.254L202.117 509.352C202.017 509.133 201.805 509.004 201.58 509.004C201.498 509.004 201.415 509.021 201.338 509.057L195.698 511.582C195.621 511.617 195.539 511.635 195.456 511.635C195.232 511.635 195.014 511.505 194.919 511.287L193.84 508.874C193.704 508.579 193.84 508.225 194.135 508.095L199.905 505.511C200.2 505.375 200.335 505.027 200.2 504.732L198.902 501.829C198.801 501.611 198.589 501.481 198.365 501.481L198.371 501.469Z" fill="#119349"/>
<path d="M209.946 493.634C209.828 493.634 209.71 493.669 209.61 493.74L200.483 500.124C200.217 500.313 200.152 500.679 200.335 500.944L211.02 516.219C211.132 516.384 211.315 516.473 211.504 516.473C211.622 516.473 211.74 516.438 211.84 516.367L221.086 509.9C221.351 509.712 221.416 509.346 221.233 509.08L219.41 506.472C219.298 506.307 219.115 506.219 218.926 506.219C218.808 506.219 218.69 506.254 218.59 506.325L213.062 510.195C212.961 510.266 212.843 510.302 212.725 510.302C212.536 510.302 212.353 510.213 212.241 510.048L210.908 508.136C210.719 507.871 210.784 507.499 211.056 507.316L215.888 503.935C216.153 503.747 216.218 503.381 216.035 503.115L214.247 500.555C214.135 500.39 213.952 500.301 213.764 500.301C213.646 500.301 213.528 500.336 213.427 500.407L208.595 503.788C208.495 503.859 208.377 503.894 208.259 503.894C208.07 503.894 207.887 503.806 207.775 503.64L206.566 501.918C206.377 501.652 206.442 501.28 206.713 501.098L212.129 497.31C212.395 497.121 212.46 496.755 212.277 496.49L210.454 493.882C210.342 493.717 210.159 493.628 209.97 493.628L209.946 493.634Z" fill="#119349"/>
<path d="M214.437 489.268C214.283 489.268 214.13 489.327 214.018 489.445L211.664 491.835C211.434 492.065 211.44 492.442 211.67 492.666L224.951 505.753C225.063 505.865 225.216 505.924 225.364 505.924C225.511 505.924 225.67 505.865 225.782 505.747L233.104 498.319C233.334 498.089 233.329 497.711 233.098 497.487L230.833 495.251C230.721 495.139 230.567 495.08 230.42 495.08C230.266 495.08 230.113 495.139 230.001 495.257L225.859 499.457C225.741 499.575 225.594 499.634 225.44 499.634C225.287 499.634 225.139 499.575 225.027 499.463L214.856 489.439C214.744 489.327 214.59 489.268 214.443 489.268H214.437Z" fill="#119349"/>
<path d="M222.862 479.391C222.679 479.391 222.502 479.474 222.39 479.627L220.39 482.318C220.195 482.577 220.248 482.949 220.508 483.144L235.464 494.277C235.571 494.354 235.694 494.395 235.818 494.395C236.001 494.395 236.178 494.313 236.29 494.159L238.29 491.469C238.485 491.209 238.432 490.837 238.167 490.643L223.216 479.509C223.11 479.433 222.986 479.391 222.862 479.391Z" fill="#119349"/>
<path d="M230.655 466.04C230.443 466.04 230.242 466.152 230.136 466.352L224.407 477.043C224.254 477.332 224.36 477.686 224.649 477.84L227.451 479.344C227.54 479.391 227.634 479.415 227.729 479.415C227.941 479.415 228.142 479.303 228.248 479.102L230.98 474.005C231.092 473.798 231.292 473.692 231.499 473.692C231.699 473.692 231.9 473.792 232.012 473.993L238.349 485.244C238.402 485.345 238.484 485.421 238.585 485.474L241.01 486.772C241.098 486.82 241.193 486.843 241.287 486.843C241.499 486.843 241.7 486.731 241.806 486.531L247.671 475.592C247.824 475.303 247.718 474.949 247.429 474.795L244.626 473.291C244.538 473.244 244.443 473.22 244.349 473.22C244.137 473.22 243.936 473.332 243.83 473.533L240.962 478.878C240.85 479.085 240.65 479.191 240.443 479.191C240.237 479.191 240.042 479.091 239.93 478.89L233.593 467.639C233.54 467.538 233.458 467.462 233.357 467.409L230.932 466.111C230.844 466.063 230.75 466.04 230.655 466.04Z" fill="#119349"/>
<path d="M91.2385 421.749L90.9435 425.088C90.914 425.412 90.6308 425.654 90.3063 425.625L81.5035 424.852C80.9076 424.799 80.6244 425.56 81.1023 425.914L87.3386 430.51L87.2973 431.017L80.353 434.457C79.8161 434.723 79.9695 435.519 80.5654 435.572L89.3682 436.345C89.6927 436.375 89.9346 436.658 89.9051 436.982L89.6101 440.322C89.5806 440.646 89.2974 440.888 88.9729 440.859L70.3997 439.224C70.0752 439.195 69.8333 438.912 69.8628 438.587L70.1814 434.988C70.1991 434.782 70.323 434.605 70.5059 434.51L78.5889 430.498C78.9842 430.304 79.0314 429.755 78.6774 429.495L71.4204 424.132C71.2552 424.008 71.1667 423.814 71.1844 423.607L71.503 420.008C71.5325 419.684 71.8157 419.442 72.1402 419.471L90.7134 421.105C91.0379 421.135 91.2798 421.418 91.2503 421.743L91.2385 421.749Z" fill="#342E2E"/>
<path d="M92.5958 406.491L95.6048 407.518C95.9116 407.624 96.0768 407.96 95.9706 408.267L92.3362 418.946C92.23 419.253 91.8937 419.418 91.5869 419.312L73.94 413.3C73.6332 413.194 73.468 412.857 73.5742 412.55L77.1673 402.007C77.2735 401.7 77.6098 401.535 77.9166 401.641L80.9256 402.668C81.2324 402.774 81.3976 403.11 81.2914 403.417L79.1615 409.671C79.0553 409.978 79.2205 410.314 79.5273 410.421L81.5215 411.099C81.8283 411.205 82.1646 411.04 82.2708 410.733L84.1706 405.146C84.2768 404.839 84.6131 404.674 84.9199 404.78L87.8758 405.789C88.1826 405.895 88.3478 406.232 88.2416 406.538L86.3418 412.126C86.2356 412.432 86.4008 412.769 86.7076 412.875L88.9142 413.624C89.221 413.73 89.5573 413.565 89.6635 413.258L91.8406 406.869C91.9468 406.562 92.2831 406.397 92.5899 406.503L92.5958 406.491Z" fill="#342E2E"/>
<path d="M89.6931 387.747L87.752 391.145C87.5927 391.428 87.6871 391.788 87.9703 391.948L100.372 399.034C100.655 399.193 100.756 399.553 100.59 399.836L98.9266 402.745C98.7673 403.028 98.4074 403.128 98.1242 402.963L85.7224 395.877C85.4392 395.718 85.0793 395.812 84.92 396.095L82.9789 399.494C82.8196 399.777 82.4597 399.877 82.1765 399.712L79.4153 398.137C79.1321 397.977 79.0318 397.618 79.197 397.334L85.9171 385.576C86.0764 385.292 86.4363 385.192 86.7195 385.357L89.4807 386.933C89.7639 387.092 89.8642 387.452 89.699 387.735L89.6931 387.747Z" fill="#342E2E"/>
<path d="M108 384.933L103.723 389.83C103.551 390.024 103.528 390.302 103.664 390.526L104.908 392.585C105.044 392.803 105.015 393.086 104.849 393.281L102.413 396.066C102.147 396.373 101.658 396.325 101.457 395.971L91.5922 378.926C91.4683 378.708 91.4919 378.431 91.6571 378.242L94.9021 374.531C95.0673 374.342 95.3387 374.277 95.5688 374.372L113.776 381.87C114.148 382.024 114.26 382.502 113.994 382.803L111.558 385.587C111.387 385.782 111.115 385.841 110.879 385.741L108.673 384.779C108.437 384.679 108.159 384.738 107.994 384.933H108ZM103.451 382.514L98.8787 380.531C98.3536 380.301 97.8403 380.885 98.1412 381.375L100.719 385.641C100.926 385.983 101.404 386.024 101.669 385.723L103.664 383.44C103.929 383.139 103.823 382.667 103.457 382.508L103.451 382.514Z" fill="#342E2E"/>
<path d="M114.473 369.722C111.629 364.631 113.234 358.613 118.455 355.698C121.382 354.064 124.745 353.963 127.518 355.261C127.842 355.415 127.972 355.798 127.789 356.105L126.226 358.736C125.931 359.226 125.618 359.338 125.353 359.214C123.919 358.559 122.196 358.677 120.609 359.557C117.541 361.268 116.709 364.424 118.432 367.516C120.155 370.607 123.282 371.557 126.344 369.846C127.925 368.967 128.946 367.557 129.134 366.011C129.17 365.71 129.424 365.492 129.724 365.498L132.781 365.551C133.418 365.563 133.672 365.875 133.636 366.229C133.306 369.256 131.453 372.065 128.497 373.711C123.282 376.619 117.317 374.826 114.473 369.728V369.722Z" fill="#342E2E"/>
<path d="M134.527 363.144L131.022 350.801C130.934 350.488 131.117 350.164 131.429 350.069L134.651 349.155C134.963 349.066 135.288 349.249 135.382 349.562L138.781 361.527C139.188 362.973 140.22 364.005 142.533 363.344C144.846 362.69 145.182 361.268 144.769 359.822L141.371 347.863C141.282 347.55 141.465 347.226 141.778 347.131L144.999 346.217C145.312 346.128 145.637 346.311 145.731 346.624L149.236 358.967C150.398 363.055 147.932 366.401 143.737 367.592C139.542 368.784 135.683 367.233 134.527 363.144Z" fill="#342E2E"/>
<path d="M171.603 364.477L168.251 364.513C167.927 364.513 167.661 364.253 167.655 363.929L167.561 355.096C167.555 354.5 166.77 354.288 166.464 354.801L162.505 361.462H161.997L157.897 354.896C157.578 354.388 156.799 354.618 156.805 355.214L156.9 364.047C156.9 364.371 156.64 364.637 156.316 364.642L152.964 364.678C152.64 364.678 152.374 364.418 152.369 364.094L152.168 345.45C152.168 345.125 152.428 344.86 152.752 344.854L156.363 344.813C156.569 344.813 156.758 344.913 156.87 345.09L161.655 352.742C161.891 353.114 162.434 353.108 162.664 352.73L167.284 344.978C167.39 344.801 167.579 344.695 167.785 344.689L171.396 344.647C171.721 344.647 171.986 344.907 171.992 345.231L172.193 363.875C172.193 364.2 171.933 364.465 171.608 364.471L171.603 364.477Z" fill="#342E2E"/>
<path d="M190.966 355.863C190.069 359.521 186.399 361.74 182.606 360.807L180.293 360.241C179.974 360.164 179.656 360.359 179.579 360.672L178.375 365.575C178.299 365.893 177.98 366.082 177.662 366.005L174.405 365.209C174.086 365.132 173.897 364.814 173.974 364.495L178.423 346.388C178.499 346.069 178.818 345.88 179.137 345.957L185.851 347.609C189.644 348.541 191.869 352.205 190.966 355.863ZM186.565 354.784C186.907 353.379 186.181 352.064 184.836 351.733L182.523 351.167C182.205 351.09 181.886 351.285 181.809 351.598L180.877 355.403C180.8 355.722 180.995 356.04 181.308 356.117L183.621 356.683C184.966 357.014 186.222 356.188 186.565 354.784Z" fill="#342E2E"/>
<path d="M200.949 370.566L199.616 373.457C199.48 373.752 199.126 373.882 198.831 373.746L189.356 369.38C189.061 369.244 188.931 368.89 189.067 368.595L196.872 351.662C197.008 351.367 197.362 351.238 197.657 351.373L200.701 352.777C200.996 352.913 201.126 353.267 200.99 353.562L195.008 366.536C194.872 366.831 195.002 367.185 195.297 367.321L200.654 369.793C200.949 369.929 201.079 370.283 200.943 370.578L200.949 370.566Z" fill="#342E2E"/>
<path d="M214.59 361.138L204.53 376.838C204.353 377.115 203.988 377.192 203.716 377.015L200.896 375.209C200.619 375.032 200.542 374.667 200.719 374.395L210.779 358.695C210.956 358.418 211.321 358.341 211.593 358.518L214.413 360.324C214.684 360.501 214.767 360.866 214.59 361.138Z" fill="#342E2E"/>
<path d="M226.036 383.009C222.224 387.121 216.248 387.458 212.236 383.741L206.849 378.755C206.607 378.531 206.595 378.159 206.82 377.923L219.487 364.241C219.711 363.999 220.083 363.988 220.319 364.212L225.705 369.197C229.717 372.914 229.847 378.897 226.036 383.015V383.009ZM222.838 380.041C225.145 377.546 225.033 374.507 222.744 372.389L220.685 370.483C220.443 370.259 220.071 370.277 219.853 370.513L213.109 377.794C212.885 378.035 212.902 378.407 213.138 378.625L215.198 380.531C217.481 382.649 220.525 382.531 222.832 380.036L222.838 380.041Z" fill="#342E2E"/>
<path d="M228.136 398.178L224.549 392.756C224.407 392.544 224.142 392.443 223.894 392.514L221.581 393.169C221.333 393.24 221.068 393.139 220.926 392.927L218.879 389.841C218.655 389.505 218.832 389.045 219.221 388.945L238.266 383.935C238.508 383.871 238.768 383.971 238.909 384.177L241.635 388.29C241.777 388.502 241.765 388.773 241.612 388.974L229.564 404.556C229.316 404.875 228.826 404.857 228.608 404.521L226.567 401.435C226.425 401.222 226.437 400.939 226.596 400.739L228.106 398.862C228.266 398.662 228.283 398.379 228.136 398.166V398.178ZM231.67 394.432L234.791 390.543C235.151 390.095 234.72 389.452 234.172 389.605L229.375 390.962C228.991 391.069 228.826 391.523 229.045 391.853L230.72 394.378C230.938 394.709 231.422 394.732 231.67 394.42V394.432Z" fill="#342E2E"/>
</g>
<defs>
<clipPath id="clip0_45_572">
<rect width="235.025" height="235.025" fill="white" transform="translate(184.715 174) rotate(9.23436)"/>
</clipPath>
<clipPath id="clip1_45_572">
<rect width="236" height="236" fill="white" transform="translate(45 319)"/>
</clipPath>
</defs>
</svg>
