<svg width="624" height="141" viewBox="0 0 624 141" fill="none" xmlns="http://www.w3.org/2000/svg">
<path d="M24.0469 3.58594C28.1719 3.58594 31.6172 5.35547 34.3828 8.89453C37.1484 12.4102 38.5312 16.7461 38.5312 21.9023C38.5312 27.1758 37.1719 31.4531 34.4531 34.7344C31.7344 38.0156 28.2656 39.6562 24.0469 39.6562H17.3672V54H4.46484V3.58594H24.0469ZM20.2148 28.1602C21.8555 28.1602 23.1445 27.5391 24.082 26.2969C25.0195 25.0312 25.4883 23.543 25.4883 21.832C25.4883 20.0508 25.0195 18.5391 24.082 17.2969C23.1445 16.0312 21.8555 15.3984 20.2148 15.3984H17.3672V28.1602H20.2148ZM57.0234 3.58594V42.2578H71.6836V54H44.1211V3.58594H57.0234ZM83.9883 3.58594H100.195L111.129 54H98.1562L96.9609 46.4414H87.293L86.0625 54H73.125L83.9883 3.58594ZM89.0156 36.1406H95.2031L92.25 18.8789H91.8984L89.0156 36.1406ZM108.598 15.3281V3.58594H139.922V15.3281H130.676V54H117.809V15.3281H108.598ZM148.324 3.58594H164.531L175.465 54H162.492L161.297 46.4414H151.629L150.398 54H137.461L148.324 3.58594ZM153.352 36.1406H159.539L156.586 18.8789H156.234L153.352 36.1406ZM179.473 54V3.58594H207.422V15.3281H192.375V26.8594H205.312V37.4414H192.375V54H179.473ZM216.07 8.78906C219.352 4.61719 223.852 2.53125 229.57 2.53125C235.289 2.53125 239.789 4.61719 243.07 8.78906C246.352 12.9609 247.992 19.6289 247.992 28.793C247.992 38.0039 246.352 44.6953 243.07 48.8672C239.789 53.0156 235.289 55.0898 229.57 55.0898C223.852 55.0898 219.352 53.0156 216.07 48.8672C212.789 44.6953 211.148 38.0039 211.148 28.793C211.148 19.6289 212.789 12.9609 216.07 8.78906ZM225.492 40.2188C226.43 42.3047 227.789 43.3477 229.57 43.3477C231.352 43.3477 232.711 42.3047 233.648 40.2188C234.586 38.1328 235.055 34.3242 235.055 28.793C235.055 23.332 234.586 19.5469 233.648 17.4375C232.711 15.3281 231.352 14.2734 229.57 14.2734C227.789 14.2734 226.43 15.3281 225.492 17.4375C224.555 19.5469 224.086 23.332 224.086 28.793C224.086 34.3242 224.555 38.1328 225.492 40.2188ZM281.25 32.0273C283.688 32.8008 285.258 35.1094 285.961 38.9531L288.668 54H275.133L272.777 40.043C272.309 37.6992 270.938 36.5156 268.664 36.4922H268.031V54H255.129V3.58594H272.777C277.137 3.58594 280.688 4.98047 283.43 7.76953C286.172 10.5586 287.543 14.332 287.543 19.0898C287.543 24.7617 285.445 28.957 281.25 31.6758V32.0273ZM269.895 26.3672C271.324 26.3672 272.496 25.8516 273.41 24.8203C274.324 23.7891 274.781 22.4766 274.781 20.8828C274.781 19.2422 274.324 17.9062 273.41 16.875C272.496 15.8438 271.324 15.3281 269.895 15.3281H268.031V26.3672H269.895ZM316.23 28.2305L324 3.58594H337.254V54H324.738V32.8359H324.422L317.672 54H314.578L307.863 32.8359H307.582V54H295.066V3.58594H308.32L316.09 28.2305H316.23ZM351.738 3.58594H367.945L378.879 54H365.906L364.711 46.4414H355.043L353.812 54H340.875L351.738 3.58594ZM356.766 36.1406H362.953L360 18.8789H359.648L356.766 36.1406Z" fill="black"/>
<mask id="path-2-outside-1_13_953" maskUnits="userSpaceOnUse" x="2" y="66" width="437" height="56" fill="black">
<rect fill="white" x="2" y="66" width="437" height="56"/>
<path d="M20.3203 68.5859C25.5938 68.5859 29.918 70.9531 33.293 75.6875C36.6914 80.4219 38.3906 86.4688 38.3906 93.8281C38.3906 101.164 36.6914 107.199 33.293 111.934C29.918 116.645 25.5938 119 20.3203 119H4.46484V68.5859H20.3203ZM18.4219 107.258C20.4844 107.258 22.1602 106.004 23.4492 103.496C24.7617 100.965 25.418 97.7305 25.418 93.793C25.418 89.8555 24.7617 86.6328 23.4492 84.125C22.1602 81.5938 20.4844 80.3281 18.4219 80.3281H17.3672V107.258H18.4219ZM58.5 99.9102V107.258H75.0586V119H45.5977V68.5859H74.6016V80.3281H58.5V89.3281H73.0195V99.9102H58.5ZM125.121 92.3516C127.605 93.3594 129.562 94.9531 130.992 97.1328C132.422 99.2891 133.137 101.879 133.137 104.902C133.137 108.98 131.754 112.355 128.988 115.027C126.223 117.676 122.73 119 118.512 119H100.793V68.5859H117.141C121.5 68.5859 125.016 69.8164 127.688 72.2773C130.359 74.7148 131.695 77.9258 131.695 81.9102C131.695 86.4805 129.504 89.8438 125.121 92V92.3516ZM116.262 107.855C117.41 107.855 118.336 107.41 119.039 106.52C119.742 105.629 120.094 104.48 120.094 103.074C120.094 101.645 119.742 100.484 119.039 99.5938C118.336 98.7031 117.41 98.2578 116.262 98.2578H113.695V107.855H116.262ZM113.695 79.8359V89.3984H115.629C116.637 89.3984 117.445 88.9414 118.055 88.0273C118.688 87.1133 119.004 85.9648 119.004 84.582C119.004 83.1992 118.688 82.0625 118.055 81.1719C117.445 80.2812 116.637 79.8359 115.629 79.8359H113.695ZM153.281 99.9102V107.258H169.84V119H140.379V68.5859H169.383V80.3281H153.281V89.3281H167.801V99.9102H153.281ZM195.82 88.6953V68.5859H208.688V119H200.355L190.055 98.9961H189.914V119H176.941V68.5859H185.309L195.574 88.6953H195.82ZM230.555 99.9102V107.258H247.113V119H217.652V68.5859H246.656V80.3281H230.555V89.3281H245.074V99.9102H230.555ZM254.215 119V68.5859H282.164V80.3281H267.117V91.8594H280.055V102.441H267.117V119H254.215ZM287.684 119V68.5859H300.586V119H287.684ZM329.203 108.348C331.312 108.348 333.715 107.316 336.41 105.254L338.871 117.066C335.941 119.082 332.004 120.09 327.059 120.09C321.059 120.09 316.324 118.004 312.855 113.832C309.41 109.637 307.688 102.957 307.688 93.793C307.688 84.6289 309.41 77.9727 312.855 73.8242C316.324 69.6758 321.059 67.6016 327.059 67.6016C332.426 67.6016 336.117 68.2461 338.133 69.5352L335.039 80.9961C333.562 79.8945 331.617 79.3438 329.203 79.3438C326.508 79.3438 324.398 80.3984 322.875 82.5078C321.375 84.6172 320.625 88.3789 320.625 93.793C320.625 99.2539 321.375 103.051 322.875 105.184C324.398 107.293 326.508 108.348 329.203 108.348ZM344.074 119V68.5859H356.977V119H344.074ZM369 73.7891C372.281 69.6172 376.781 67.5312 382.5 67.5312C388.219 67.5312 392.719 69.6172 396 73.7891C399.281 77.9609 400.922 84.6289 400.922 93.793C400.922 103.004 399.281 109.695 396 113.867C392.719 118.016 388.219 120.09 382.5 120.09C376.781 120.09 372.281 118.016 369 113.867C365.719 109.695 364.078 103.004 364.078 93.793C364.078 84.6289 365.719 77.9609 369 73.7891ZM378.422 105.219C379.359 107.305 380.719 108.348 382.5 108.348C384.281 108.348 385.641 107.305 386.578 105.219C387.516 103.133 387.984 99.3242 387.984 93.793C387.984 88.332 387.516 84.5469 386.578 82.4375C385.641 80.3281 384.281 79.2734 382.5 79.2734C380.719 79.2734 379.359 80.3281 378.422 82.4375C377.484 84.5469 377.016 88.332 377.016 93.793C377.016 99.3242 377.484 103.133 378.422 105.219ZM426.27 89.2578C430.629 91.9062 433.582 94.4258 435.129 96.8164C436.676 99.1836 437.449 101.973 437.449 105.184C437.449 109.707 435.938 113.328 432.914 116.047C429.891 118.742 425.754 120.09 420.504 120.09C414.363 120.09 409.324 118.648 405.387 115.766L407.918 104.727C411.809 107.516 415.5 108.91 418.992 108.91C422.695 108.91 424.547 107.668 424.547 105.184C424.547 104.176 424.102 103.168 423.211 102.16C422.32 101.152 420.562 99.875 417.938 98.3281C413.812 95.9844 410.848 93.5234 409.043 90.9453C407.238 88.3438 406.336 85.3086 406.336 81.8398C406.336 77.5273 407.859 74.0703 410.906 71.4688C413.953 68.8438 417.996 67.5312 423.035 67.5312C428.074 67.5312 432.422 68.4453 436.078 70.2734L434.637 81.4883C433.582 80.8086 432.094 80.1523 430.172 79.5195C428.25 78.8633 426.492 78.5352 424.898 78.5352C421.242 78.5352 419.426 79.7539 419.449 82.1914C419.449 83.3398 420.012 84.4648 421.137 85.5664C422.262 86.6445 423.973 87.875 426.27 89.2578Z"/>
</mask>
<path d="M33.293 75.6875L32.0715 76.5582L32.0744 76.5622L33.293 75.6875ZM33.293 111.934L32.0744 111.059L32.0736 111.06L33.293 111.934ZM4.46484 119H2.96484V120.5H4.46484V119ZM4.46484 68.5859V67.0859H2.96484V68.5859H4.46484ZM23.4492 103.496L22.1176 102.806L22.1151 102.81L23.4492 103.496ZM23.4492 84.125L22.1126 84.8057L22.1164 84.8131L22.1202 84.8205L23.4492 84.125ZM17.3672 80.3281V78.8281H15.8672V80.3281H17.3672ZM17.3672 107.258H15.8672V108.758H17.3672V107.258ZM20.3203 70.0859C25.0537 70.0859 28.9444 72.1716 32.0716 76.5582L34.5144 74.8168C30.8915 69.7347 26.1338 67.0859 20.3203 67.0859V70.0859ZM32.0744 76.5622C35.2467 80.9816 36.8906 86.6996 36.8906 93.8281H39.8906C39.8906 86.2379 38.1361 79.8621 34.5115 74.8128L32.0744 76.5622ZM36.8906 93.8281C36.8906 100.932 35.2473 106.639 32.0744 111.059L34.5115 112.808C38.1355 107.76 39.8906 101.396 39.8906 93.8281H36.8906ZM32.0736 111.06C28.9478 115.423 25.0569 117.5 20.3203 117.5V120.5C26.1306 120.5 30.8881 117.866 34.5123 112.807L32.0736 111.06ZM20.3203 117.5H4.46484V120.5H20.3203V117.5ZM5.96484 119V68.5859H2.96484V119H5.96484ZM4.46484 70.0859H20.3203V67.0859H4.46484V70.0859ZM18.4219 108.758C21.2502 108.758 23.346 106.978 24.7833 104.182L22.1151 102.81C20.9743 105.03 19.7185 105.758 18.4219 105.758V108.758ZM24.7809 104.187C26.238 101.376 26.918 97.8841 26.918 93.793H23.918C23.918 97.5768 23.2855 100.553 22.1176 102.806L24.7809 104.187ZM26.918 93.793C26.918 89.7027 26.2383 86.2192 24.7782 83.4295L22.1202 84.8205C23.2852 87.0464 23.918 90.0082 23.918 93.793H26.918ZM24.7859 83.4443C23.352 80.6287 21.2577 78.8281 18.4219 78.8281V81.8281C19.7111 81.8281 20.9683 82.5588 22.1126 84.8057L24.7859 83.4443ZM18.4219 78.8281H17.3672V81.8281H18.4219V78.8281ZM15.8672 80.3281V107.258H18.8672V80.3281H15.8672ZM17.3672 108.758H18.4219V105.758H17.3672V108.758ZM58.5 99.9102V98.4102H57V99.9102H58.5ZM58.5 107.258H57V108.758H58.5V107.258ZM75.0586 107.258H76.5586V105.758H75.0586V107.258ZM75.0586 119V120.5H76.5586V119H75.0586ZM45.5977 119H44.0977V120.5H45.5977V119ZM45.5977 68.5859V67.0859H44.0977V68.5859H45.5977ZM74.6016 68.5859H76.1016V67.0859H74.6016V68.5859ZM74.6016 80.3281V81.8281H76.1016V80.3281H74.6016ZM58.5 80.3281V78.8281H57V80.3281H58.5ZM58.5 89.3281H57V90.8281H58.5V89.3281ZM73.0195 89.3281H74.5195V87.8281H73.0195V89.3281ZM73.0195 99.9102V101.41H74.5195V99.9102H73.0195ZM57 99.9102V107.258H60V99.9102H57ZM58.5 108.758H75.0586V105.758H58.5V108.758ZM73.5586 107.258V119H76.5586V107.258H73.5586ZM75.0586 117.5H45.5977V120.5H75.0586V117.5ZM47.0977 119V68.5859H44.0977V119H47.0977ZM45.5977 70.0859H74.6016V67.0859H45.5977V70.0859ZM73.1016 68.5859V80.3281H76.1016V68.5859H73.1016ZM74.6016 78.8281H58.5V81.8281H74.6016V78.8281ZM57 80.3281V89.3281H60V80.3281H57ZM58.5 90.8281H73.0195V87.8281H58.5V90.8281ZM71.5195 89.3281V99.9102H74.5195V89.3281H71.5195ZM73.0195 98.4102H58.5V101.41H73.0195V98.4102ZM125.121 92.3516H123.621V93.3618L124.557 93.7415L125.121 92.3516ZM130.992 97.1328L129.738 97.9555L129.742 97.9617L130.992 97.1328ZM128.988 115.027L130.026 116.111L130.03 116.106L128.988 115.027ZM100.793 119H99.293V120.5H100.793V119ZM100.793 68.5859V67.0859H99.293V68.5859H100.793ZM127.688 72.2773L126.671 73.3807L126.677 73.3855L127.688 72.2773ZM125.121 92L124.459 90.6541L123.621 91.0663V92H125.121ZM113.695 98.2578V96.7578H112.195V98.2578H113.695ZM113.695 107.855H112.195V109.355H113.695V107.855ZM113.695 79.8359V78.3359H112.195V79.8359H113.695ZM113.695 89.3984H112.195V90.8984H113.695V89.3984ZM118.055 88.0273L116.821 87.1735L116.814 87.1843L116.807 87.1953L118.055 88.0273ZM118.055 81.1719L116.817 82.0189L116.824 82.0299L116.832 82.0407L118.055 81.1719ZM124.557 93.7415C126.768 94.6383 128.48 96.0383 129.738 97.9555L132.246 96.3101C130.645 93.868 128.443 92.0805 125.685 90.9616L124.557 93.7415ZM129.742 97.9617C130.983 99.833 131.637 102.123 131.637 104.902H134.637C134.637 101.635 133.861 98.7451 132.242 96.3039L129.742 97.9617ZM131.637 104.902C131.637 108.601 130.4 111.578 127.946 113.949L130.03 116.106C133.108 113.133 134.637 109.36 134.637 104.902H131.637ZM127.951 113.944C125.494 116.297 122.387 117.5 118.512 117.5V120.5C123.074 120.5 126.951 119.055 130.026 116.111L127.951 113.944ZM118.512 117.5H100.793V120.5H118.512V117.5ZM102.293 119V68.5859H99.293V119H102.293ZM100.793 70.0859H117.141V67.0859H100.793V70.0859ZM117.141 70.0859C121.203 70.0859 124.33 71.2241 126.671 73.3807L128.704 71.174C125.701 68.4087 121.797 67.0859 117.141 67.0859V70.0859ZM126.677 73.3855C129.003 75.5081 130.195 78.2997 130.195 81.9102H133.195C133.195 77.5519 131.715 73.9216 128.698 71.1692L126.677 73.3855ZM130.195 81.9102C130.195 83.946 129.711 85.636 128.795 87.0415C127.875 88.4528 126.461 89.6692 124.459 90.6541L125.783 93.3459C128.164 92.1745 130.037 90.6312 131.309 88.6792C132.584 86.7214 133.195 84.4446 133.195 81.9102H130.195ZM123.621 92V92.3516H126.621V92H123.621ZM116.262 109.355C117.863 109.355 119.225 108.705 120.216 107.449L117.862 105.59C117.447 106.115 116.958 106.355 116.262 106.355V109.355ZM120.216 107.449C121.175 106.235 121.594 104.735 121.594 103.074H118.594C118.594 104.226 118.31 105.022 117.862 105.59L120.216 107.449ZM121.594 103.074C121.594 101.397 121.178 99.8821 120.216 98.6643L117.862 100.523C118.307 101.087 118.594 101.892 118.594 103.074H121.594ZM120.216 98.6643C119.225 97.4083 117.863 96.7578 116.262 96.7578V99.7578C116.958 99.7578 117.447 99.998 117.862 100.523L120.216 98.6643ZM116.262 96.7578H113.695V99.7578H116.262V96.7578ZM112.195 98.2578V107.855H115.195V98.2578H112.195ZM113.695 109.355H116.262V106.355H113.695V109.355ZM112.195 79.8359V89.3984H115.195V79.8359H112.195ZM113.695 90.8984H115.629V87.8984H113.695V90.8984ZM115.629 90.8984C117.189 90.8984 118.445 90.1463 119.303 88.8594L116.807 87.1953C116.446 87.7365 116.084 87.8984 115.629 87.8984V90.8984ZM119.288 88.8812C120.133 87.661 120.504 86.195 120.504 84.582H117.504C117.504 85.7347 117.242 86.5656 116.821 87.1735L119.288 88.8812ZM120.504 84.582C120.504 82.971 120.133 81.5077 119.277 80.3031L116.832 82.0407C117.242 82.6173 117.504 83.4275 117.504 84.582H120.504ZM119.293 80.3248C118.427 79.0598 117.172 78.3359 115.629 78.3359V81.3359C116.102 81.3359 116.464 81.5027 116.817 82.0189L119.293 80.3248ZM115.629 78.3359H113.695V81.3359H115.629V78.3359ZM153.281 99.9102V98.4102H151.781V99.9102H153.281ZM153.281 107.258H151.781V108.758H153.281V107.258ZM169.84 107.258H171.34V105.758H169.84V107.258ZM169.84 119V120.5H171.34V119H169.84ZM140.379 119H138.879V120.5H140.379V119ZM140.379 68.5859V67.0859H138.879V68.5859H140.379ZM169.383 68.5859H170.883V67.0859H169.383V68.5859ZM169.383 80.3281V81.8281H170.883V80.3281H169.383ZM153.281 80.3281V78.8281H151.781V80.3281H153.281ZM153.281 89.3281H151.781V90.8281H153.281V89.3281ZM167.801 89.3281H169.301V87.8281H167.801V89.3281ZM167.801 99.9102V101.41H169.301V99.9102H167.801ZM151.781 99.9102V107.258H154.781V99.9102H151.781ZM153.281 108.758H169.84V105.758H153.281V108.758ZM168.34 107.258V119H171.34V107.258H168.34ZM169.84 117.5H140.379V120.5H169.84V117.5ZM141.879 119V68.5859H138.879V119H141.879ZM140.379 70.0859H169.383V67.0859H140.379V70.0859ZM167.883 68.5859V80.3281H170.883V68.5859H167.883ZM169.383 78.8281H153.281V81.8281H169.383V78.8281ZM151.781 80.3281V89.3281H154.781V80.3281H151.781ZM153.281 90.8281H167.801V87.8281H153.281V90.8281ZM166.301 89.3281V99.9102H169.301V89.3281H166.301ZM167.801 98.4102H153.281V101.41H167.801V98.4102ZM195.82 88.6953V90.1953H197.32V88.6953H195.82ZM195.82 68.5859V67.0859H194.32V68.5859H195.82ZM208.688 68.5859H210.188V67.0859H208.688V68.5859ZM208.688 119V120.5H210.188V119H208.688ZM200.355 119L199.022 119.687L199.441 120.5H200.355V119ZM190.055 98.9961L191.388 98.3094L190.969 97.4961H190.055V98.9961ZM189.914 98.9961V97.4961H188.414V98.9961H189.914ZM189.914 119V120.5H191.414V119H189.914ZM176.941 119H175.441V120.5H176.941V119ZM176.941 68.5859V67.0859H175.441V68.5859H176.941ZM185.309 68.5859L186.645 67.9039L186.227 67.0859H185.309V68.5859ZM195.574 88.6953L194.238 89.3773L194.656 90.1953H195.574V88.6953ZM197.32 88.6953V68.5859H194.32V88.6953H197.32ZM195.82 70.0859H208.688V67.0859H195.82V70.0859ZM207.188 68.5859V119H210.188V68.5859H207.188ZM208.688 117.5H200.355V120.5H208.688V117.5ZM201.689 118.313L191.388 98.3094L188.721 99.6828L199.022 119.687L201.689 118.313ZM190.055 97.4961H189.914V100.496H190.055V97.4961ZM188.414 98.9961V119H191.414V98.9961H188.414ZM189.914 117.5H176.941V120.5H189.914V117.5ZM178.441 119V68.5859H175.441V119H178.441ZM176.941 70.0859H185.309V67.0859H176.941V70.0859ZM183.973 69.2679L194.238 89.3773L196.91 88.0133L186.645 67.9039L183.973 69.2679ZM195.574 90.1953H195.82V87.1953H195.574V90.1953ZM230.555 99.9102V98.4102H229.055V99.9102H230.555ZM230.555 107.258H229.055V108.758H230.555V107.258ZM247.113 107.258H248.613V105.758H247.113V107.258ZM247.113 119V120.5H248.613V119H247.113ZM217.652 119H216.152V120.5H217.652V119ZM217.652 68.5859V67.0859H216.152V68.5859H217.652ZM246.656 68.5859H248.156V67.0859H246.656V68.5859ZM246.656 80.3281V81.8281H248.156V80.3281H246.656ZM230.555 80.3281V78.8281H229.055V80.3281H230.555ZM230.555 89.3281H229.055V90.8281H230.555V89.3281ZM245.074 89.3281H246.574V87.8281H245.074V89.3281ZM245.074 99.9102V101.41H246.574V99.9102H245.074ZM229.055 99.9102V107.258H232.055V99.9102H229.055ZM230.555 108.758H247.113V105.758H230.555V108.758ZM245.613 107.258V119H248.613V107.258H245.613ZM247.113 117.5H217.652V120.5H247.113V117.5ZM219.152 119V68.5859H216.152V119H219.152ZM217.652 70.0859H246.656V67.0859H217.652V70.0859ZM245.156 68.5859V80.3281H248.156V68.5859H245.156ZM246.656 78.8281H230.555V81.8281H246.656V78.8281ZM229.055 80.3281V89.3281H232.055V80.3281H229.055ZM230.555 90.8281H245.074V87.8281H230.555V90.8281ZM243.574 89.3281V99.9102H246.574V89.3281H243.574ZM245.074 98.4102H230.555V101.41H245.074V98.4102ZM254.215 119H252.715V120.5H254.215V119ZM254.215 68.5859V67.0859H252.715V68.5859H254.215ZM282.164 68.5859H283.664V67.0859H282.164V68.5859ZM282.164 80.3281V81.8281H283.664V80.3281H282.164ZM267.117 80.3281V78.8281H265.617V80.3281H267.117ZM267.117 91.8594H265.617V93.3594H267.117V91.8594ZM280.055 91.8594H281.555V90.3594H280.055V91.8594ZM280.055 102.441V103.941H281.555V102.441H280.055ZM267.117 102.441V100.941H265.617V102.441H267.117ZM267.117 119V120.5H268.617V119H267.117ZM255.715 119V68.5859H252.715V119H255.715ZM254.215 70.0859H282.164V67.0859H254.215V70.0859ZM280.664 68.5859V80.3281H283.664V68.5859H280.664ZM282.164 78.8281H267.117V81.8281H282.164V78.8281ZM265.617 80.3281V91.8594H268.617V80.3281H265.617ZM267.117 93.3594H280.055V90.3594H267.117V93.3594ZM278.555 91.8594V102.441H281.555V91.8594H278.555ZM280.055 100.941H267.117V103.941H280.055V100.941ZM265.617 102.441V119H268.617V102.441H265.617ZM267.117 117.5H254.215V120.5H267.117V117.5ZM287.684 119H286.184V120.5H287.684V119ZM287.684 68.5859V67.0859H286.184V68.5859H287.684ZM300.586 68.5859H302.086V67.0859H300.586V68.5859ZM300.586 119V120.5H302.086V119H300.586ZM289.184 119V68.5859H286.184V119H289.184ZM287.684 70.0859H300.586V67.0859H287.684V70.0859ZM299.086 68.5859V119H302.086V68.5859H299.086ZM300.586 117.5H287.684V120.5H300.586V117.5ZM336.41 105.254L337.879 104.948L337.392 102.614L335.499 104.063L336.41 105.254ZM338.871 117.066L339.721 118.302L340.543 117.737L340.34 116.76L338.871 117.066ZM312.855 113.832L311.696 114.784L311.702 114.791L312.855 113.832ZM312.855 73.8242L311.705 72.862L311.702 72.8659L312.855 73.8242ZM338.133 69.5352L339.581 69.9261L339.868 68.8641L338.941 68.2715L338.133 69.5352ZM335.039 80.9961L334.142 82.1984L335.912 83.5186L336.487 81.387L335.039 80.9961ZM322.875 82.5078L321.659 81.6296L321.653 81.6385L322.875 82.5078ZM322.875 105.184L321.648 106.046L321.653 106.054L321.659 106.062L322.875 105.184ZM329.203 109.848C331.789 109.848 334.512 108.595 337.322 106.445L335.499 104.063C332.917 106.038 330.836 106.848 329.203 106.848V109.848ZM334.942 105.56L337.403 117.372L340.34 116.76L337.879 104.948L334.942 105.56ZM338.021 115.831C335.422 117.619 331.815 118.59 327.059 118.59V121.59C332.193 121.59 336.461 120.545 339.721 118.302L338.021 115.831ZM327.059 118.59C321.451 118.59 317.16 116.663 314.009 112.873L311.702 114.791C315.488 119.345 320.666 121.59 327.059 121.59V118.59ZM314.015 112.88C310.897 109.084 309.188 102.828 309.188 93.793H306.188C306.188 103.086 307.923 110.19 311.696 114.784L314.015 112.88ZM309.188 93.793C309.188 84.7553 310.898 78.529 314.009 74.7826L311.702 72.8659C307.922 77.4163 306.188 84.5025 306.188 93.793H309.188ZM314.006 74.7864C317.156 71.0188 321.448 69.1016 327.059 69.1016V66.1016C320.669 66.1016 315.492 68.3327 311.705 72.862L314.006 74.7864ZM327.059 69.1016C329.689 69.1016 331.862 69.2601 333.595 69.5626C335.343 69.8679 336.552 70.3046 337.325 70.7988L338.941 68.2715C337.698 67.4766 336.053 66.9465 334.111 66.6073C332.152 66.2653 329.795 66.1016 327.059 66.1016V69.1016ZM336.685 69.1442L333.591 80.6052L336.487 81.387L339.581 69.9261L336.685 69.1442ZM335.936 79.7938C334.13 78.4466 331.84 77.8438 329.203 77.8438V80.8438C331.394 80.8438 332.995 81.3425 334.142 82.1984L335.936 79.7938ZM329.203 77.8438C326.047 77.8438 323.476 79.1135 321.659 81.6296L324.091 83.386C325.321 81.6834 326.969 80.8438 329.203 80.8438V77.8438ZM321.653 81.6385C319.86 84.1598 319.125 88.344 319.125 93.793H322.125C322.125 88.4138 322.89 85.0746 324.097 83.3771L321.653 81.6385ZM319.125 93.793C319.125 99.2884 319.86 103.504 321.648 106.046L324.102 104.321C322.89 102.598 322.125 99.2194 322.125 93.793H319.125ZM321.659 106.062C323.476 108.578 326.047 109.848 329.203 109.848V106.848C326.969 106.848 325.321 106.008 324.091 104.305L321.659 106.062ZM344.074 119H342.574V120.5H344.074V119ZM344.074 68.5859V67.0859H342.574V68.5859H344.074ZM356.977 68.5859H358.477V67.0859H356.977V68.5859ZM356.977 119V120.5H358.477V119H356.977ZM345.574 119V68.5859H342.574V119H345.574ZM344.074 70.0859H356.977V67.0859H344.074V70.0859ZM355.477 68.5859V119H358.477V68.5859H355.477ZM356.977 117.5H344.074V120.5H356.977V117.5ZM396 113.867L397.176 114.798L397.179 114.795L396 113.867ZM369 113.867L367.821 114.795L367.824 114.798L369 113.867ZM370.179 74.7164C373.151 70.9371 377.2 69.0312 382.5 69.0312V66.0312C376.362 66.0312 371.411 68.2972 367.821 72.8617L370.179 74.7164ZM382.5 69.0312C387.8 69.0312 391.849 70.9371 394.821 74.7164L397.179 72.8617C393.589 68.2972 388.638 66.0312 382.5 66.0312V69.0312ZM394.821 74.7164C397.79 78.4914 399.422 84.745 399.422 93.793H402.422C402.422 84.5128 400.772 77.4305 397.179 72.8617L394.821 74.7164ZM399.422 93.793C399.422 102.89 397.789 109.166 394.821 112.94L397.179 114.795C400.773 110.225 402.422 103.118 402.422 93.793H399.422ZM394.824 112.937C391.852 116.693 387.803 118.59 382.5 118.59V121.59C388.635 121.59 393.585 119.338 397.176 114.798L394.824 112.937ZM382.5 118.59C377.197 118.59 373.148 116.693 370.176 112.937L367.824 114.798C371.415 119.338 376.365 121.59 382.5 121.59V118.59ZM370.179 112.94C367.211 109.166 365.578 102.89 365.578 93.793H362.578C362.578 103.118 364.227 110.225 367.821 114.795L370.179 112.94ZM365.578 93.793C365.578 84.745 367.21 78.4914 370.179 74.7164L367.821 72.8617C364.228 77.4305 362.578 84.5128 362.578 93.793H365.578ZM377.054 105.834C377.591 107.03 378.3 108.041 379.231 108.756C380.184 109.486 381.293 109.848 382.5 109.848V106.848C381.925 106.848 381.464 106.687 381.058 106.375C380.63 106.047 380.19 105.493 379.79 104.604L377.054 105.834ZM382.5 109.848C383.707 109.848 384.816 109.486 385.769 108.756C386.7 108.041 387.409 107.03 387.946 105.834L385.21 104.604C384.81 105.493 384.37 106.047 383.942 106.375C383.536 106.687 383.075 106.848 382.5 106.848V109.848ZM387.946 105.834C389.03 103.423 389.484 99.3174 389.484 93.793H386.484C386.484 99.331 386.002 102.842 385.21 104.604L387.946 105.834ZM389.484 93.793C389.484 88.3331 389.028 84.2573 387.949 81.8283L385.207 83.0467C386.003 84.8365 386.484 88.331 386.484 93.793H389.484ZM387.949 81.8283C387.412 80.6215 386.706 79.6014 385.775 78.8793C384.822 78.1403 383.711 77.7734 382.5 77.7734V80.7734C383.07 80.7734 383.529 80.934 383.936 81.2496C384.365 81.5822 384.806 82.1442 385.207 83.0467L387.949 81.8283ZM382.5 77.7734C381.289 77.7734 380.178 78.1403 379.225 78.8793C378.294 79.6014 377.588 80.6215 377.051 81.8283L379.793 83.0467C380.194 82.1442 380.635 81.5822 381.064 81.2496C381.471 80.934 381.93 80.7734 382.5 80.7734V77.7734ZM377.051 81.8283C375.972 84.2573 375.516 88.3331 375.516 93.793H378.516C378.516 88.331 378.997 84.8365 379.793 83.0467L377.051 81.8283ZM375.516 93.793C375.516 99.3174 375.97 103.423 377.054 105.834L379.79 104.604C378.998 102.842 378.516 99.331 378.516 93.793H375.516ZM426.27 89.2578L427.048 87.9758L427.043 87.9727L426.27 89.2578ZM435.129 96.8164L433.87 97.6313L433.873 97.6369L435.129 96.8164ZM432.914 116.047L433.912 117.167L433.917 117.162L432.914 116.047ZM405.387 115.766L403.925 115.43L403.704 116.393L404.501 116.976L405.387 115.766ZM407.918 104.727L408.792 103.507L406.96 102.194L406.456 104.391L407.918 104.727ZM417.938 98.3281L418.699 97.0358L418.689 97.0298L418.679 97.0239L417.938 98.3281ZM409.043 90.9453L407.81 91.8003L407.814 91.8055L409.043 90.9453ZM410.906 71.4688L411.88 72.6095L411.885 72.6052L410.906 71.4688ZM436.078 70.2734L437.566 70.4647L437.702 69.4082L436.749 68.9318L436.078 70.2734ZM434.637 81.4883L433.824 82.7491L435.822 84.0363L436.124 81.6795L434.637 81.4883ZM430.172 79.5195L429.687 80.9391L429.695 80.9417L429.703 80.9443L430.172 79.5195ZM419.449 82.1914H420.949V82.1842L420.949 82.177L419.449 82.1914ZM421.137 85.5664L420.087 86.6382L420.093 86.6438L420.099 86.6494L421.137 85.5664ZM425.491 90.5398C429.787 93.1496 432.508 95.5265 433.87 97.6313L436.388 96.0015C434.656 93.3251 431.471 90.6629 427.048 87.9758L425.491 90.5398ZM433.873 97.6369C435.24 99.7282 435.949 102.223 435.949 105.184H438.949C438.949 101.722 438.112 98.639 436.385 95.9959L433.873 97.6369ZM435.949 105.184C435.949 109.335 434.581 112.531 431.911 114.932L433.917 117.162C437.294 114.125 438.949 110.079 438.949 105.184H435.949ZM431.916 114.927C429.241 117.312 425.498 118.59 420.504 118.59V121.59C426.01 121.59 430.541 120.172 433.912 117.167L431.916 114.927ZM420.504 118.59C414.599 118.59 409.893 117.206 406.273 114.555L404.501 116.976C408.755 120.091 414.128 121.59 420.504 121.59V118.59ZM406.849 116.101L409.38 105.062L406.456 104.391L403.925 115.43L406.849 116.101ZM407.044 105.946C411.097 108.851 415.089 110.41 418.992 110.41V107.41C415.911 107.41 412.52 106.18 408.792 103.507L407.044 105.946ZM418.992 110.41C420.964 110.41 422.706 110.088 423.994 109.224C425.388 108.289 426.047 106.859 426.047 105.184H423.047C423.047 105.993 422.78 106.426 422.323 106.733C421.759 107.111 420.723 107.41 418.992 107.41V110.41ZM426.047 105.184C426.047 103.702 425.386 102.356 424.335 101.167L422.087 103.153C422.817 103.98 423.047 104.649 423.047 105.184H426.047ZM424.335 101.167C423.274 99.9659 421.332 98.5874 418.699 97.0358L417.176 99.6204C419.793 101.163 421.367 102.339 422.087 103.153L424.335 101.167ZM418.679 97.0239C414.658 94.7393 411.901 92.4121 410.272 90.0851L407.814 91.8055C409.795 94.6348 412.967 97.2294 417.196 99.6323L418.679 97.0239ZM410.275 90.0903C408.662 87.7639 407.836 85.0336 407.836 81.8398H404.836C404.836 85.5836 405.815 88.9236 407.81 91.8003L410.275 90.0903ZM407.836 81.8398C407.836 77.9282 409.195 74.9023 411.88 72.6095L409.932 70.328C406.524 73.2384 404.836 77.1265 404.836 81.8398H407.836ZM411.885 72.6052C414.596 70.2695 418.262 69.0312 423.035 69.0312V66.0312C417.731 66.0312 413.31 67.418 409.927 70.3323L411.885 72.6052ZM423.035 69.0312C427.895 69.0312 432.002 69.9125 435.407 71.6151L436.749 68.9318C432.842 66.9781 428.254 66.0312 423.035 66.0312V69.0312ZM434.59 70.0822L433.149 81.2971L436.124 81.6795L437.566 70.4647L434.59 70.0822ZM435.449 80.2274C434.243 79.4498 432.62 78.7463 430.641 78.0948L429.703 80.9443C431.568 81.5584 432.921 82.1673 433.824 82.7491L435.449 80.2274ZM430.657 78.1C428.619 77.4044 426.695 77.0352 424.898 77.0352V80.0352C426.289 80.0352 427.881 80.3222 429.687 80.9391L430.657 78.1ZM424.898 77.0352C422.952 77.0352 421.229 77.3507 419.958 78.2036C418.577 79.1303 417.933 80.5501 417.949 82.2058L420.949 82.177C420.942 81.3952 421.194 80.9868 421.63 80.6948C422.175 80.329 423.188 80.0352 424.898 80.0352V77.0352ZM417.949 82.1914C417.949 83.8744 418.784 85.3619 420.087 86.6382L422.186 84.4946C421.24 83.5678 420.949 82.8053 420.949 82.1914H417.949ZM420.099 86.6494C421.341 87.8401 423.161 89.1374 425.496 90.5429L427.043 87.9727C424.784 86.6126 423.182 85.4489 422.175 84.4834L420.099 86.6494Z" fill="black" mask="url(#path-2-outside-1_13_953)"/>
</svg>
