<svg width="1728" height="867" viewBox="0 0 1728 867" fill="none" xmlns="http://www.w3.org/2000/svg">
<g clip-path="url(#clip0_2004_1129)">
<g clip-path="url(#clip1_2004_1129)">
<path d="M1500.57 92.04L1512.39 68L1513.42 94.77L1534 77.62L1524.05 102.5L1549.83 95.2L1530.62 113.87L1557.14 117.69L1531.99 126.94L1554.66 141.22L1527.93 139.44L1542.84 161.7L1519.14 149.2L1523.7 175.6L1507.14 154.55L1500.57 180.52L1494 154.55L1477.43 175.6L1481.99 149.2L1458.3 161.7L1473.2 139.44L1446.47 141.22L1469.14 126.94L1444 117.69L1470.51 113.87L1451.31 95.2L1477.08 102.5L1467.13 77.62L1487.71 94.77L1488.74 68L1500.57 92.04Z" stroke="black" stroke-width="2" stroke-miterlimit="10"/>
<path d="M1041 738.657L1050.62 719L1051.46 740.886L1068.19 726.858L1060.1 747.194L1081.06 741.238L1065.45 756.5L1087 759.623L1066.56 767.191L1085 778.864L1063.25 777.403L1075.38 795.612L1056.1 785.387L1059.82 806.97L1046.35 789.757L1041 811L1035.66 789.757L1022.19 806.97L1025.9 785.387L1006.63 795.612L1018.75 777.403L997.016 778.864L1015.45 767.191L995 759.623L1016.57 756.5L1000.95 741.238L1021.91 747.194L1013.82 726.858L1030.56 740.886L1031.38 719L1041 738.657Z" stroke="black" stroke-width="2" stroke-miterlimit="10"/>
</g>
</g>
<defs>
<clipPath id="clip0_2004_1129">
<rect width="1728" height="867" fill="white"/>
</clipPath>
<clipPath id="clip1_2004_1129">
<rect width="857.91" height="876.69" fill="white" transform="translate(897 29)"/>
</clipPath>
</defs>
</svg>
