<svg width="604" height="177" viewBox="0 0 604 177" fill="none" xmlns="http://www.w3.org/2000/svg">
<g clip-path="url(#clip0_24_536)">
<rect width="604" height="177" fill="white"/>
<path d="M38.3555 10.9824C43.5117 10.9824 47.7598 13.1211 51.0996 17.3984C54.4688 21.6465 56.1533 26.9199 56.1533 33.2188C56.1533 39.6348 54.4834 44.8789 51.1436 48.9512C47.833 52.9941 43.5703 55.0156 38.3555 55.0156H28.5996V74H14.9326V10.9824H38.3555ZM34.1807 42.7549C36.6416 42.7549 38.6045 41.8174 40.0693 39.9424C41.5635 38.0381 42.3105 35.7676 42.3105 33.1309C42.3105 30.4355 41.5635 28.1797 40.0693 26.3633C38.6045 24.5176 36.6416 23.5947 34.1807 23.5947H28.5996V42.7549H34.1807ZM80.3865 10.9824V61.4756H100.426V74H66.5877V10.9824H80.3865ZM120.396 10.9824H137.579L152.432 74H138.546L136.568 63.2773H121.451L119.473 74H105.63L120.396 10.9824ZM123.648 52.291H134.415L129.185 27.0225H128.834L123.648 52.291ZM152.671 23.5068V10.9824H191.255V23.5068H178.863V74H165.064V23.5068H152.671ZM206.392 10.9824H223.574L238.428 74H224.541L222.564 63.2773H207.446L205.469 74H191.626L206.392 10.9824ZM209.644 52.291H220.41L215.181 27.0225H214.829L209.644 52.291ZM246.841 74V10.9824H281.03V23.5068H260.64V40.6016H278.525V51.9395H260.64V74H246.841ZM295.288 17.7061C299.419 12.4033 304.985 9.75195 311.987 9.75195C319.018 9.75195 324.599 12.4033 328.73 17.7061C332.861 23.0088 334.927 31.2705 334.927 42.4912C334.927 53.7119 332.861 61.9883 328.73 67.3203C324.599 72.623 319.018 75.2744 311.987 75.2744C304.985 75.2744 299.419 72.623 295.288 67.3203C291.186 61.9883 289.136 53.7119 289.136 42.4912C289.136 31.2705 291.186 23.0088 295.288 17.7061ZM311.987 62.75C318.11 62.75 321.172 55.9971 321.172 42.4912C321.172 29.0439 318.11 22.3203 311.987 22.3203C305.923 22.3203 302.89 29.0439 302.89 42.4912C302.89 55.9971 305.923 62.75 311.987 62.75ZM378.232 46.1826C381.484 47.0908 383.52 50.0059 384.34 54.9277L387.856 74H373.354L370.278 56.1582C369.604 52.7305 367.714 51.0312 364.609 51.0605H361.049V74H347.251V10.9824H368.3C373.691 10.9824 378.071 12.6963 381.44 16.124C384.809 19.5518 386.494 24.1807 386.494 30.0107C386.494 37.2178 383.74 42.4912 378.232 45.8311V46.1826ZM365.356 40.1621C367.583 40.1621 369.399 39.3857 370.805 37.833C372.212 36.251 372.915 34.2441 372.915 31.8125C372.915 29.3516 372.212 27.3594 370.805 25.8359C369.399 24.2832 367.583 23.5068 365.356 23.5068H361.049V40.1621H365.356ZM425.361 46.5342L436.787 10.9824H450.937V74H437.578V42.3154H437.226L426.987 74H423.471L413.188 42.3154H412.836V74H399.521V10.9824H413.759L425.097 46.5342H425.361ZM473.896 10.9824H491.078L505.932 74H492.045L490.068 63.2773H474.95L472.973 74H459.13L473.896 10.9824ZM477.148 52.291H487.914L482.685 27.0225H482.333L477.148 52.291ZM34.0928 100.982C40.6846 100.982 46.1045 103.941 50.3525 109.859C54.6299 115.777 56.7686 123.336 56.7686 132.535C56.7686 141.705 54.6445 149.249 50.3965 155.167C46.1484 161.056 40.7139 164 34.0928 164H14.9326V100.982H34.0928ZM32.1152 151.476C35.3086 151.476 37.916 149.703 39.9375 146.158C41.9883 142.584 43.0137 138.043 43.0137 132.535C43.0137 126.998 41.9883 122.442 39.9375 118.868C37.916 115.294 35.3086 113.507 32.1152 113.507H28.7314V151.476H32.1152ZM82.8914 138.995V151.476H105.304V164H69.2244V100.982H104.776V113.507H82.8914V127.745H102.799V138.995H82.8914Z" fill="black"/>
<mask id="path-2-outside-1_24_536" maskUnits="userSpaceOnUse" x="122.453" y="95.4775" width="462" height="69" fill="black">
<rect fill="white" x="122.453" y="95.4775" width="462" height="69"/>
<path d="M153.565 128.255C156.817 129.515 159.351 131.507 161.167 134.231C162.984 136.927 163.892 140.193 163.892 144.031C163.892 149.07 162.193 153.245 158.794 156.556C155.425 159.837 151.133 161.478 145.918 161.478H124.385V98.46H144.468C149.683 98.46 153.902 99.9834 157.125 103.03C160.376 106.048 162.002 109.988 162.002 114.852C162.002 120.857 159.19 125.208 153.565 127.903V128.255ZM143.545 149.612C145.391 149.612 146.929 148.909 148.16 147.503C149.419 146.067 150.049 144.251 150.049 142.054C150.049 139.827 149.449 138.025 148.248 136.648C147.046 135.271 145.479 134.583 143.545 134.583H138.052V149.612H143.545ZM138.052 110.457V125.047H142.754C144.424 125.047 145.816 124.373 146.929 123.025C148.042 121.648 148.599 119.891 148.599 117.752C148.599 115.584 148.042 113.826 146.929 112.479C145.816 111.131 144.424 110.457 142.754 110.457H138.052ZM191.859 136.473V148.953H214.271V161.478H178.192V98.46H213.744V110.984H191.859V125.223H211.766V136.473H191.859ZM253.883 129.266V98.46H267.726V161.478H258.629L242.458 130.892H242.194V161.478H228.395V98.46H237.404L253.708 129.266H253.883ZM297.802 136.473V148.953H320.214V161.478H284.135V98.46H319.687V110.984H297.802V125.223H317.709V136.473H297.802ZM334.338 161.478V98.46H368.528V110.984H348.137V128.079H366.023V139.417H348.137V161.478H334.338ZM380.674 161.478V98.46H394.473V161.478H380.674ZM435.052 150.228C438.421 150.228 441.776 148.763 445.116 145.833L447.84 158.313C444.061 161.243 439.051 162.723 432.811 162.752C425.428 162.752 419.54 160.086 415.145 154.754C410.78 149.393 408.597 141.16 408.597 130.057C408.597 118.895 410.78 110.633 415.145 105.271C419.54 99.9102 425.428 97.2295 432.811 97.2295C439.344 97.2295 443.958 98.2109 446.654 100.174L443.226 112.347C441.058 110.677 438.333 109.827 435.052 109.798C426.585 109.798 422.352 116.551 422.352 130.057C422.352 143.504 426.585 150.228 435.052 150.228ZM459.547 161.478V98.46H473.346V161.478H459.547ZM493.623 105.184C497.753 99.8809 503.32 97.2295 510.322 97.2295C517.353 97.2295 522.934 99.8809 527.065 105.184C531.196 110.486 533.261 118.748 533.261 129.969C533.261 141.189 531.196 149.466 527.065 154.798C522.934 160.101 517.353 162.752 510.322 162.752C503.32 162.752 497.753 160.101 493.623 154.798C489.521 149.466 487.47 141.189 487.47 129.969C487.47 118.748 489.521 110.486 493.623 105.184ZM510.322 150.228C516.445 150.228 519.506 143.475 519.506 129.969C519.506 116.521 516.445 109.798 510.322 109.798C504.257 109.798 501.225 116.521 501.225 129.969C501.225 143.475 504.257 150.228 510.322 150.228ZM568.743 125.135C574.016 128.445 577.664 131.565 579.685 134.495C581.736 137.425 582.761 140.809 582.761 144.646C582.761 150.096 580.93 154.476 577.268 157.786C573.606 161.097 568.625 162.752 562.327 162.752C555.061 162.752 548.967 161.009 544.045 157.522L546.858 145.833C551.838 149.202 556.482 150.872 560.789 150.843C563.367 150.843 565.374 150.315 566.809 149.261C568.274 148.177 569.006 146.639 569.006 144.646C569.006 143.094 568.347 141.57 567.029 140.076C565.71 138.553 563.308 136.81 559.822 134.847C554.724 131.858 550.989 128.768 548.616 125.574C546.243 122.381 545.056 118.719 545.056 114.588C545.056 109.314 546.917 105.11 550.637 101.976C554.358 98.8115 559.25 97.2295 565.315 97.2295C571.379 97.2295 576.624 98.3428 581.047 100.569L579.421 112.61C578.044 111.761 576.199 110.955 573.884 110.193C571.57 109.402 569.373 109.007 567.292 109.007C564.656 109.007 562.62 109.52 561.184 110.545C559.778 111.57 559.075 113.006 559.075 114.852C559.075 116.58 559.866 118.221 561.448 119.773C563.059 121.297 565.491 123.084 568.743 125.135Z"/>
</mask>
<path d="M153.565 128.255H152.065V129.282L153.023 129.654L153.565 128.255ZM161.167 134.231L159.919 135.064L159.924 135.07L161.167 134.231ZM158.794 156.556L159.841 157.63L159.841 157.63L158.794 156.556ZM124.385 161.478H122.885V162.978H124.385V161.478ZM124.385 98.46V96.96H122.885V98.46H124.385ZM157.125 103.03L156.094 104.12L156.104 104.13L157.125 103.03ZM153.565 127.903L152.917 126.551L152.065 126.959V127.903H153.565ZM148.16 147.503L147.032 146.514L147.031 146.515L148.16 147.503ZM138.052 134.583V133.083H136.552V134.583H138.052ZM138.052 149.612H136.552V151.112H138.052V149.612ZM138.052 110.457V108.957H136.552V110.457H138.052ZM138.052 125.047H136.552V126.547H138.052V125.047ZM146.929 123.025L148.086 123.981L148.091 123.975L148.096 123.968L146.929 123.025ZM153.565 128.255L153.023 129.654C156.007 130.809 158.286 132.613 159.919 135.063L161.167 134.231L162.416 133.399C160.416 130.401 157.627 128.22 154.107 126.856L153.565 128.255ZM161.167 134.231L159.924 135.07C161.545 137.475 162.392 140.437 162.392 144.031H163.892H165.392C165.392 139.95 164.423 136.378 162.411 133.393L161.167 134.231ZM163.892 144.031H162.392C162.392 148.694 160.837 152.472 157.748 155.481L158.794 156.556L159.841 157.63C163.549 154.018 165.392 149.447 165.392 144.031H163.892ZM158.794 156.556L157.748 155.481C154.69 158.459 150.789 159.978 145.918 159.978V161.478V162.978C151.478 162.978 156.16 161.215 159.841 157.63L158.794 156.556ZM145.918 161.478V159.978H124.385V161.478V162.978H145.918V161.478ZM124.385 161.478H125.885V98.46H124.385H122.885V161.478H124.385ZM124.385 98.46V99.96H144.468V98.46V96.96H124.385V98.46ZM144.468 98.46V99.96C149.372 99.96 153.198 101.382 156.094 104.12L157.125 103.03L158.155 101.94C154.606 98.5845 149.994 96.96 144.468 96.96V98.46ZM157.125 103.03L156.104 104.13C159.019 106.835 160.502 110.361 160.502 114.852H162.002H163.502C163.502 109.616 161.734 105.261 158.145 101.931L157.125 103.03ZM162.002 114.852H160.502C160.502 117.613 159.859 119.909 158.633 121.805C157.405 123.704 155.531 125.298 152.917 126.551L153.565 127.903L154.213 129.256C157.224 127.813 159.568 125.884 161.153 123.433C162.74 120.979 163.502 118.096 163.502 114.852H162.002ZM153.565 127.903H152.065V128.255H153.565H155.065V127.903H153.565ZM143.545 149.612V151.112C145.83 151.112 147.777 150.218 149.289 148.491L148.16 147.503L147.031 146.515C146.081 147.601 144.952 148.112 143.545 148.112V149.612ZM148.16 147.503L149.287 148.492C150.823 146.742 151.549 144.557 151.549 142.054H150.049H148.549C148.549 143.945 148.016 145.392 147.032 146.514L148.16 147.503ZM150.049 142.054H151.549C151.549 139.547 150.867 137.369 149.378 135.662L148.248 136.648L147.117 137.634C148.031 138.682 148.549 140.107 148.549 142.054H150.049ZM148.248 136.648L149.378 135.662C147.874 133.938 145.884 133.083 143.545 133.083V134.583V136.083C145.074 136.083 146.219 136.605 147.117 137.634L148.248 136.648ZM143.545 134.583V133.083H138.052V134.583V136.083H143.545V134.583ZM138.052 134.583H136.552V149.612H138.052H139.552V134.583H138.052ZM138.052 149.612V151.112H143.545V149.612V148.112H138.052V149.612ZM138.052 110.457H136.552V125.047H138.052H139.552V110.457H138.052ZM138.052 125.047V126.547H142.754V125.047V123.547H138.052V125.047ZM142.754 125.047V126.547C144.895 126.547 146.703 125.655 148.086 123.981L146.929 123.025L145.773 122.07C144.929 123.091 143.953 123.547 142.754 123.547V125.047ZM146.929 123.025L148.096 123.968C149.467 122.272 150.099 120.16 150.099 117.752H148.599H147.099C147.099 119.621 146.618 121.025 145.763 122.082L146.929 123.025ZM148.599 117.752H150.099C150.099 115.322 149.47 113.199 148.086 111.523L146.929 112.479L145.773 113.434C146.615 114.453 147.099 115.846 147.099 117.752H148.599ZM146.929 112.479L148.086 111.523C146.703 109.849 144.895 108.957 142.754 108.957V110.457V111.957C143.953 111.957 144.929 112.413 145.773 113.434L146.929 112.479ZM142.754 110.457V108.957H138.052V110.457V111.957H142.754V110.457ZM191.859 136.473V134.973H190.359V136.473H191.859ZM191.859 148.953H190.359V150.453H191.859V148.953ZM214.271 148.953H215.771V147.453H214.271V148.953ZM214.271 161.478V162.978H215.771V161.478H214.271ZM178.192 161.478H176.692V162.978H178.192V161.478ZM178.192 98.46V96.96H176.692V98.46H178.192ZM213.744 98.46H215.244V96.96H213.744V98.46ZM213.744 110.984V112.484H215.244V110.984H213.744ZM191.859 110.984V109.484H190.359V110.984H191.859ZM191.859 125.223H190.359V126.723H191.859V125.223ZM211.766 125.223H213.266V123.723H211.766V125.223ZM211.766 136.473V137.973H213.266V136.473H211.766ZM191.859 136.473H190.359V148.953H191.859H193.359V136.473H191.859ZM191.859 148.953V150.453H214.271V148.953V147.453H191.859V148.953ZM214.271 148.953H212.771V161.478H214.271H215.771V148.953H214.271ZM214.271 161.478V159.978H178.192V161.478V162.978H214.271V161.478ZM178.192 161.478H179.692V98.46H178.192H176.692V161.478H178.192ZM178.192 98.46V99.96H213.744V98.46V96.96H178.192V98.46ZM213.744 98.46H212.244V110.984H213.744H215.244V98.46H213.744ZM213.744 110.984V109.484H191.859V110.984V112.484H213.744V110.984ZM191.859 110.984H190.359V125.223H191.859H193.359V110.984H191.859ZM191.859 125.223V126.723H211.766V125.223V123.723H191.859V125.223ZM211.766 125.223H210.266V136.473H211.766H213.266V125.223H211.766ZM211.766 136.473V134.973H191.859V136.473V137.973H211.766V136.473ZM253.883 129.266V130.766H255.383V129.266H253.883ZM253.883 98.46V96.96H252.383V98.46H253.883ZM267.726 98.46H269.226V96.96H267.726V98.46ZM267.726 161.478V162.978H269.226V161.478H267.726ZM258.629 161.478L257.303 162.179L257.726 162.978H258.629V161.478ZM242.458 130.892L243.784 130.19L243.361 129.392H242.458V130.892ZM242.194 130.892V129.392H240.694V130.892H242.194ZM242.194 161.478V162.978H243.694V161.478H242.194ZM228.395 161.478H226.895V162.978H228.395V161.478ZM228.395 98.46V96.96H226.895V98.46H228.395ZM237.404 98.46L238.73 97.7583L238.307 96.96H237.404V98.46ZM253.708 129.266L252.382 129.967L252.804 130.766H253.708V129.266ZM253.883 129.266H255.383V98.46H253.883H252.383V129.266H253.883ZM253.883 98.46V99.96H267.726V98.46V96.96H253.883V98.46ZM267.726 98.46H266.226V161.478H267.726H269.226V98.46H267.726ZM267.726 161.478V159.978H258.629V161.478V162.978H267.726V161.478ZM258.629 161.478L259.955 160.776L243.784 130.19L242.458 130.892L241.131 131.593L257.303 162.179L258.629 161.478ZM242.458 130.892V129.392H242.194V130.892V132.392H242.458V130.892ZM242.194 130.892H240.694V161.478H242.194H243.694V130.892H242.194ZM242.194 161.478V159.978H228.395V161.478V162.978H242.194V161.478ZM228.395 161.478H229.895V98.46H228.395H226.895V161.478H228.395ZM228.395 98.46V99.96H237.404V98.46V96.96H228.395V98.46ZM237.404 98.46L236.078 99.1616L252.382 129.967L253.708 129.266L255.033 128.564L238.73 97.7583L237.404 98.46ZM253.708 129.266V130.766H253.883V129.266V127.766H253.708V129.266ZM297.802 136.473V134.973H296.302V136.473H297.802ZM297.802 148.953H296.302V150.453H297.802V148.953ZM320.214 148.953H321.714V147.453H320.214V148.953ZM320.214 161.478V162.978H321.714V161.478H320.214ZM284.135 161.478H282.635V162.978H284.135V161.478ZM284.135 98.46V96.96H282.635V98.46H284.135ZM319.687 98.46H321.187V96.96H319.687V98.46ZM319.687 110.984V112.484H321.187V110.984H319.687ZM297.802 110.984V109.484H296.302V110.984H297.802ZM297.802 125.223H296.302V126.723H297.802V125.223ZM317.709 125.223H319.209V123.723H317.709V125.223ZM317.709 136.473V137.973H319.209V136.473H317.709ZM297.802 136.473H296.302V148.953H297.802H299.302V136.473H297.802ZM297.802 148.953V150.453H320.214V148.953V147.453H297.802V148.953ZM320.214 148.953H318.714V161.478H320.214H321.714V148.953H320.214ZM320.214 161.478V159.978H284.135V161.478V162.978H320.214V161.478ZM284.135 161.478H285.635V98.46H284.135H282.635V161.478H284.135ZM284.135 98.46V99.96H319.687V98.46V96.96H284.135V98.46ZM319.687 98.46H318.187V110.984H319.687H321.187V98.46H319.687ZM319.687 110.984V109.484H297.802V110.984V112.484H319.687V110.984ZM297.802 110.984H296.302V125.223H297.802H299.302V110.984H297.802ZM297.802 125.223V126.723H317.709V125.223V123.723H297.802V125.223ZM317.709 125.223H316.209V136.473H317.709H319.209V125.223H317.709ZM317.709 136.473V134.973H297.802V136.473V137.973H317.709V136.473ZM334.338 161.478H332.838V162.978H334.338V161.478ZM334.338 98.46V96.96H332.838V98.46H334.338ZM368.528 98.46H370.028V96.96H368.528V98.46ZM368.528 110.984V112.484H370.028V110.984H368.528ZM348.137 110.984V109.484H346.637V110.984H348.137ZM348.137 128.079H346.637V129.579H348.137V128.079ZM366.023 128.079H367.523V126.579H366.023V128.079ZM366.023 139.417V140.917H367.523V139.417H366.023ZM348.137 139.417V137.917H346.637V139.417H348.137ZM348.137 161.478V162.978H349.637V161.478H348.137ZM334.338 161.478H335.838V98.46H334.338H332.838V161.478H334.338ZM334.338 98.46V99.96H368.528V98.46V96.96H334.338V98.46ZM368.528 98.46H367.028V110.984H368.528H370.028V98.46H368.528ZM368.528 110.984V109.484H348.137V110.984V112.484H368.528V110.984ZM348.137 110.984H346.637V128.079H348.137H349.637V110.984H348.137ZM348.137 128.079V129.579H366.023V128.079V126.579H348.137V128.079ZM366.023 128.079H364.523V139.417H366.023H367.523V128.079H366.023ZM366.023 139.417V137.917H348.137V139.417V140.917H366.023V139.417ZM348.137 139.417H346.637V161.478H348.137H349.637V139.417H348.137ZM348.137 161.478V159.978H334.338V161.478V162.978H348.137V161.478ZM380.674 161.478H379.174V162.978H380.674V161.478ZM380.674 98.46V96.96H379.174V98.46H380.674ZM394.473 98.46H395.973V96.96H394.473V98.46ZM394.473 161.478V162.978H395.973V161.478H394.473ZM380.674 161.478H382.174V98.46H380.674H379.174V161.478H380.674ZM380.674 98.46V99.96H394.473V98.46V96.96H380.674V98.46ZM394.473 98.46H392.973V161.478H394.473H395.973V98.46H394.473ZM394.473 161.478V159.978H380.674V161.478V162.978H394.473V161.478ZM445.116 145.833L446.581 145.513L446.039 143.028L444.127 144.705L445.116 145.833ZM447.84 158.313L448.759 159.499L449.508 158.919L449.306 157.994L447.84 158.313ZM432.811 162.752V164.252L432.818 164.252L432.811 162.752ZM415.145 154.754L413.982 155.701L413.987 155.708L415.145 154.754ZM415.145 105.271L413.985 104.321L413.982 104.324L415.145 105.271ZM446.654 100.174L448.098 100.58L448.381 99.5757L447.537 98.9613L446.654 100.174ZM443.226 112.347L442.311 113.535L444.069 114.889L444.67 112.753L443.226 112.347ZM435.052 109.798L435.066 108.298H435.052V109.798ZM435.052 150.228V151.728C438.888 151.728 442.58 150.053 446.105 146.961L445.116 145.833L444.127 144.705C440.972 147.473 437.955 148.728 435.052 148.728V150.228ZM445.116 145.833L443.65 146.153L446.375 158.633L447.84 158.313L449.306 157.994L446.581 145.513L445.116 145.833ZM447.84 158.313L446.921 157.128C443.473 159.801 438.815 161.224 432.804 161.252L432.811 162.752L432.818 164.252C439.288 164.222 444.649 162.685 448.759 159.499L447.84 158.313ZM432.811 162.752V161.252C425.841 161.252 420.391 158.76 416.303 153.8L415.145 154.754L413.987 155.708C418.689 161.412 425.015 164.252 432.811 164.252V162.752ZM415.145 154.754L416.308 153.807C412.258 148.833 410.097 141.01 410.097 130.057H408.597H407.097C407.097 141.31 409.301 149.952 413.982 155.701L415.145 154.754ZM408.597 130.057H410.097C410.097 119.042 412.259 111.191 416.308 106.219L415.145 105.271L413.982 104.324C409.3 110.074 407.097 118.747 407.097 130.057H408.597ZM415.145 105.271L416.305 106.222C420.394 101.234 425.844 98.7295 432.811 98.7295V97.2295V95.7295C425.012 95.7295 418.685 98.5866 413.985 104.321L415.145 105.271ZM432.811 97.2295V98.7295C439.283 98.7295 443.482 99.7192 445.771 101.386L446.654 100.174L447.537 98.9613C444.435 96.7026 439.405 95.7295 432.811 95.7295V97.2295ZM446.654 100.174L445.21 99.7673L441.782 111.94L443.226 112.347L444.67 112.753L448.098 100.58L446.654 100.174ZM443.226 112.347L444.141 111.158C441.666 109.252 438.606 108.33 435.066 108.298L435.052 109.798L435.039 111.298C438.06 111.325 440.45 112.102 442.311 113.535L443.226 112.347ZM435.052 109.798V108.298C430.341 108.298 426.667 110.22 424.256 114.066C421.919 117.795 420.852 123.195 420.852 130.057H422.352H423.852C423.852 123.412 424.902 118.683 426.798 115.659C428.62 112.752 431.297 111.298 435.052 111.298V109.798ZM422.352 130.057H420.852C420.852 136.889 421.919 142.269 424.258 145.984C426.67 149.815 430.344 151.728 435.052 151.728V150.228V148.728C431.294 148.728 428.618 147.278 426.796 144.386C424.902 141.377 423.852 136.671 423.852 130.057H422.352ZM459.547 161.478H458.047V162.978H459.547V161.478ZM459.547 98.46V96.96H458.047V98.46H459.547ZM473.346 98.46H474.846V96.96H473.346V98.46ZM473.346 161.478V162.978H474.846V161.478H473.346ZM459.547 161.478H461.047V98.46H459.547H458.047V161.478H459.547ZM459.547 98.46V99.96H473.346V98.46V96.96H459.547V98.46ZM473.346 98.46H471.846V161.478H473.346H474.846V98.46H473.346ZM473.346 161.478V159.978H459.547V161.478V162.978H473.346V161.478ZM493.623 105.184L492.439 104.262L492.436 104.266L493.623 105.184ZM527.065 154.798L528.248 155.72L528.251 155.717L527.065 154.798ZM493.623 154.798L492.434 155.712L492.439 155.72L493.623 154.798ZM493.623 105.184L494.806 106.105C498.639 101.185 503.76 98.7295 510.322 98.7295V97.2295V95.7295C502.88 95.7295 496.868 98.5769 492.439 104.262L493.623 105.184ZM510.322 97.2295V98.7295C516.915 98.7295 522.05 101.187 525.882 106.105L527.065 105.184L528.248 104.262C523.818 98.5751 517.791 95.7295 510.322 95.7295V97.2295ZM527.065 105.184L525.882 106.105C529.71 111.019 531.761 118.878 531.761 129.969H533.261H534.761C534.761 118.618 532.682 109.953 528.248 104.262L527.065 105.184ZM533.261 129.969H531.761C531.761 141.059 529.71 148.934 525.879 153.879L527.065 154.798L528.251 155.717C532.682 149.997 534.761 141.32 534.761 129.969H533.261ZM527.065 154.798L525.882 153.876C522.05 158.795 516.915 161.252 510.322 161.252V162.752V164.252C517.791 164.252 523.818 161.406 528.248 155.72L527.065 154.798ZM510.322 162.752V161.252C503.76 161.252 498.639 158.797 494.806 153.876L493.623 154.798L492.439 155.72C496.868 161.405 502.88 164.252 510.322 164.252V162.752ZM493.623 154.798L494.811 153.883C491.007 148.938 488.97 141.06 488.97 129.969H487.47H485.97C485.97 141.319 488.035 149.994 492.434 155.712L493.623 154.798ZM487.47 129.969H488.97C488.97 118.876 491.008 111.016 494.809 106.101L493.623 105.184L492.436 104.266C488.034 109.957 485.97 118.62 485.97 129.969H487.47ZM510.322 150.228V151.728C512.147 151.728 513.803 151.218 515.229 150.17C516.637 149.134 517.736 147.636 518.576 145.782C520.241 142.111 521.006 136.788 521.006 129.969H519.506H518.006C518.006 136.655 517.241 141.462 515.844 144.543C515.154 146.066 514.339 147.1 513.451 147.753C512.581 148.393 511.558 148.728 510.322 148.728V150.228ZM519.506 129.969H521.006C521.006 123.178 520.241 117.876 518.575 114.219C517.734 112.372 516.635 110.879 515.226 109.848C513.801 108.805 512.146 108.298 510.322 108.298V109.798V111.298C511.56 111.298 512.583 111.631 513.454 112.269C514.342 112.919 515.155 113.947 515.845 115.462C517.241 118.529 518.006 123.312 518.006 129.969H519.506ZM510.322 109.798V108.298C508.509 108.298 506.865 108.807 505.45 109.852C504.053 110.885 502.964 112.378 502.132 114.224C500.483 117.879 499.725 123.179 499.725 129.969H501.225H502.725C502.725 123.311 503.483 118.526 504.867 115.457C505.55 113.941 506.356 112.913 507.234 112.265C508.093 111.629 509.102 111.298 510.322 111.298V109.798ZM501.225 129.969H499.725C499.725 136.787 500.483 142.108 502.131 145.777C502.963 147.63 504.051 149.129 505.448 150.166C506.862 151.216 508.508 151.728 510.322 151.728V150.228V148.728C509.104 148.728 508.096 148.395 507.236 147.757C506.359 147.106 505.552 146.072 504.868 144.548C503.483 141.465 502.725 136.656 502.725 129.969H501.225ZM568.743 125.135L567.943 126.404L567.945 126.405L568.743 125.135ZM579.685 134.495L578.45 135.347L578.456 135.355L579.685 134.495ZM577.268 157.786L578.274 158.899L577.268 157.786ZM544.045 157.522L542.587 157.172L542.349 158.159L543.178 158.746L544.045 157.522ZM546.858 145.833L547.698 144.591L545.906 143.378L545.4 145.482L546.858 145.833ZM560.789 150.843V149.343L560.778 149.343L560.789 150.843ZM566.809 149.261L567.697 150.47L567.701 150.467L566.809 149.261ZM567.029 140.076L565.895 141.058L565.899 141.063L565.904 141.069L567.029 140.076ZM559.822 134.847L559.063 136.141L559.074 136.147L559.086 136.154L559.822 134.847ZM550.637 101.976L551.604 103.123L551.609 103.118L550.637 101.976ZM581.047 100.569L582.534 100.77L582.677 99.7103L581.722 99.2295L581.047 100.569ZM579.421 112.61L578.634 113.887L580.599 115.099L580.908 112.811L579.421 112.61ZM573.884 110.193L573.399 111.613L573.407 111.616L573.415 111.618L573.884 110.193ZM561.184 110.545L560.312 109.324L560.306 109.329L560.3 109.333L561.184 110.545ZM561.448 119.773L560.397 120.844L560.407 120.854L560.417 120.863L561.448 119.773ZM568.743 125.135L567.945 126.405C573.156 129.676 576.601 132.666 578.45 135.347L579.685 134.495L580.92 133.643C578.726 130.464 574.876 127.214 569.54 123.864L568.743 125.135ZM579.685 134.495L578.456 135.355C580.317 138.014 581.261 141.093 581.261 144.646H582.761H584.261C584.261 140.525 583.154 136.836 580.914 133.635L579.685 134.495ZM582.761 144.646H581.261C581.261 149.721 579.575 153.679 576.262 156.673L577.268 157.786L578.274 158.899C582.285 155.273 584.261 150.471 584.261 144.646H582.761ZM577.268 157.786L576.262 156.673C572.945 159.672 568.36 161.252 562.327 161.252V162.752V164.252C568.891 164.252 574.266 162.522 578.274 158.899L577.268 157.786ZM562.327 162.752V161.252C555.307 161.252 549.533 159.571 544.912 156.298L544.045 157.522L543.178 158.746C548.402 162.447 554.815 164.252 562.327 164.252V162.752ZM544.045 157.522L545.504 157.873L548.316 146.184L546.858 145.833L545.4 145.482L542.587 157.172L544.045 157.522ZM546.858 145.833L546.017 147.075C551.153 150.549 556.091 152.375 560.799 152.343L560.789 150.843L560.778 149.343C556.873 149.369 552.524 147.855 547.698 144.591L546.858 145.833ZM560.789 150.843V152.343C563.549 152.343 565.912 151.781 567.697 150.47L566.809 149.261L565.921 148.052C564.835 148.85 563.185 149.343 560.789 149.343V150.843ZM566.809 149.261L567.701 150.467C569.588 149.07 570.506 147.063 570.506 144.646H569.006H567.506C567.506 146.215 566.96 147.283 565.917 148.055L566.809 149.261ZM569.006 144.646H570.506C570.506 142.634 569.643 140.772 568.154 139.084L567.029 140.076L565.904 141.069C567.051 142.368 567.506 143.553 567.506 144.646H569.006ZM567.029 140.076L568.163 139.095C566.668 137.367 564.076 135.521 560.558 133.54L559.822 134.847L559.086 136.154C562.54 138.098 564.753 139.738 565.895 141.058L567.029 140.076ZM559.822 134.847L560.58 133.553C555.58 130.621 552.029 127.653 549.82 124.68L548.616 125.574L547.412 126.469C549.949 129.883 553.868 133.096 559.063 136.141L559.822 134.847ZM548.616 125.574L549.82 124.68C547.647 121.755 546.556 118.41 546.556 114.588H545.056H543.556C543.556 119.028 544.839 123.006 547.412 126.469L548.616 125.574ZM545.056 114.588H546.556C546.556 109.715 548.252 105.946 551.604 103.123L550.637 101.976L549.671 100.828C545.581 104.274 543.556 108.914 543.556 114.588H545.056ZM550.637 101.976L551.609 103.118C554.998 100.237 559.518 98.7295 565.315 98.7295V97.2295V95.7295C558.983 95.7295 553.718 97.3864 549.665 100.833L550.637 101.976ZM565.315 97.2295V98.7295C571.197 98.7295 576.2 99.809 580.373 101.909L581.047 100.569L581.722 99.2295C577.047 96.8766 571.562 95.7295 565.315 95.7295V97.2295ZM581.047 100.569L579.561 100.369L577.935 112.41L579.421 112.61L580.908 112.811L582.534 100.77L581.047 100.569ZM579.421 112.61L580.209 111.334C578.695 110.4 576.729 109.551 574.353 108.769L573.884 110.193L573.415 111.618C575.668 112.36 577.394 113.122 578.634 113.887L579.421 112.61ZM573.884 110.193L574.369 108.774C571.926 107.939 569.564 107.507 567.292 107.507V109.007V110.507C569.181 110.507 571.214 110.866 573.399 111.613L573.884 110.193ZM567.292 109.007V107.507C564.489 107.507 562.1 108.047 560.312 109.324L561.184 110.545L562.056 111.766C563.139 110.992 564.822 110.507 567.292 110.507V109.007ZM561.184 110.545L560.3 109.333C558.48 110.66 557.575 112.561 557.575 114.852H559.075H560.575C560.575 113.451 561.075 112.481 562.068 111.757L561.184 110.545ZM559.075 114.852H557.575C557.575 117.088 558.613 119.093 560.397 120.844L561.448 119.773L562.498 118.703C561.119 117.349 560.575 116.072 560.575 114.852H559.075ZM561.448 119.773L560.417 120.863C562.133 122.485 564.659 124.333 567.943 126.404L568.743 125.135L569.543 123.866C566.323 121.835 563.986 120.109 562.478 118.683L561.448 119.773Z" fill="black" mask="url(#path-2-outside-1_24_536)"/>
</g>
<defs>
<clipPath id="clip0_24_536">
<rect width="604" height="177" fill="white"/>
</clipPath>
</defs>
</svg>
