<svg width="575" height="121" viewBox="0 0 575 121" fill="none" xmlns="http://www.w3.org/2000/svg">
<path d="M38.2324 91.0947V91.5342C41.2793 92.501 43.2422 95.3867 44.1211 100.191L47.5049 119H30.5859L27.6416 101.554C27.085 98.6533 25.3711 97.1738 22.5 97.1152H21.709V119H5.58105V55.9824H27.6416C33.0908 55.9824 37.5293 57.7256 40.957 61.2119C44.3848 64.6689 46.0986 69.3857 46.0986 75.3623C46.0986 82.4521 43.4766 87.6963 38.2324 91.0947ZM21.709 84.459H24.0381C25.8252 84.459 27.29 83.8145 28.4326 82.5254C29.5752 81.2363 30.1465 79.5957 30.1465 77.6035C30.1465 75.5527 29.5752 73.8828 28.4326 72.5938C27.29 71.3047 25.8252 70.6602 24.0381 70.6602H21.709V84.459ZM50.4492 119L64.0283 55.9824H84.2871L97.9541 119H81.7383L80.2441 109.552H68.1592L66.6211 119H50.4492ZM73.916 75.0986L70.3125 96.6758H78.0469L74.3555 75.0986H73.916ZM119.092 119H102.964V55.9824H119.092V119ZM153.501 81.1191H153.809V55.9824H169.893V119H159.478L146.602 93.9951H146.426V119H130.21V55.9824H140.669L153.501 81.1191ZM203.862 81.8223C209.282 85.1035 212.974 88.2383 214.937 91.2266C216.87 94.2148 217.837 97.7158 217.837 101.729C217.837 107.384 215.947 111.896 212.168 115.265C208.359 118.663 203.188 120.362 196.655 120.362C188.979 120.362 182.681 118.561 177.759 114.957L180.923 101.158C185.815 104.645 190.43 106.388 194.766 106.388C199.395 106.388 201.709 104.835 201.709 101.729C201.709 100.499 201.152 99.2393 200.039 97.9502C198.955 96.7197 196.758 95.123 193.447 93.1602C188.232 90.1719 184.526 87.0811 182.329 83.8877C180.073 80.665 178.945 76.8857 178.945 72.5498C178.945 67.1592 180.85 62.8232 184.658 59.542C188.467 56.29 193.521 54.6641 199.819 54.6641C206.118 54.6641 211.553 55.8066 216.123 58.0918L214.321 72.1104C212.974 71.2607 211.113 70.4258 208.74 69.6055C206.338 68.8145 204.141 68.4189 202.148 68.4189C199.863 68.4189 198.149 68.7998 197.007 69.5615C195.864 70.3232 195.308 71.4658 195.337 72.9893C195.337 74.3662 196.011 75.7285 197.358 77.0762C198.706 78.4238 200.874 80.0059 203.862 81.8223ZM226.362 55.9824H250.84C255.996 55.9824 260.303 58.1797 263.76 62.5742C267.217 66.998 268.945 72.4326 268.945 78.8779C268.945 85.4697 267.246 90.8164 263.848 94.918C260.449 99.0195 256.113 101.07 250.84 101.07H242.49V119H226.362V55.9824ZM242.49 86.7002H246.05C248.071 86.7002 249.683 85.9092 250.884 84.3271C252.056 82.8037 252.642 80.958 252.642 78.79C252.642 76.5342 252.056 74.6299 250.884 73.0771C249.683 71.5244 248.071 70.748 246.05 70.748H242.49V86.7002ZM292.061 119H275.933V55.9824H292.061V119ZM335.83 91.0947V91.5342C338.877 92.501 340.84 95.3867 341.719 100.191L345.103 119H328.184L325.239 101.554C324.683 98.6533 322.969 97.1738 320.098 97.1152H319.307V119H303.179V55.9824H325.239C330.688 55.9824 335.127 57.7256 338.555 61.2119C341.982 64.6689 343.696 69.3857 343.696 75.3623C343.696 82.4521 341.074 87.6963 335.83 91.0947ZM319.307 84.459H321.636C323.423 84.459 324.888 83.8145 326.03 82.5254C327.173 81.2363 327.744 79.5957 327.744 77.6035C327.744 75.5527 327.173 73.8828 326.03 72.5938C324.888 71.3047 323.423 70.6602 321.636 70.6602H319.307V84.459ZM348.047 119L361.626 55.9824H381.885L395.552 119H379.336L377.842 109.552H365.757L364.219 119H348.047ZM371.514 75.0986L367.91 96.6758H375.645L371.953 75.0986H371.514ZM403.901 70.6602H392.388V55.9824H431.543V70.6602H419.985V119H403.901V70.6602ZM454.482 119H438.354V55.9824H454.482V119ZM469.512 62.4863C473.584 57.2715 479.209 54.6641 486.387 54.6641C493.564 54.6641 499.189 57.2715 503.262 62.4863C507.363 67.7305 509.414 76.0654 509.414 87.4912C509.414 98.9756 507.363 107.325 503.262 112.54C499.189 117.755 493.564 120.362 486.387 120.362C479.209 120.362 473.584 117.755 469.512 112.54C465.41 107.325 463.359 98.9756 463.359 87.4912C463.359 76.0654 465.41 67.7305 469.512 62.4863ZM481.289 101.773C482.49 104.381 484.189 105.685 486.387 105.685C488.584 105.685 490.283 104.381 491.484 101.773C492.656 99.2246 493.242 94.4639 493.242 87.4912C493.242 80.6357 492.656 75.9043 491.484 73.2969C490.312 70.6602 488.613 69.3418 486.387 69.3418C484.16 69.3418 482.461 70.6602 481.289 73.2969C480.117 75.9043 479.531 80.6357 479.531 87.4912C479.531 94.4639 480.117 99.2246 481.289 101.773ZM541.626 81.1191H541.934V55.9824H558.018V119H547.603L534.727 93.9951H534.551V119H518.335V55.9824H528.794L541.626 81.1191Z" fill="black"/>
<path d="M16.83 34L9.368 25.732V34H7.002V15.878H9.368V24.276L16.856 15.878H19.846L11.63 24.952L19.924 34H16.83ZM23.7885 17.438C23.3378 17.438 22.9565 17.282 22.6445 16.97C22.3325 16.658 22.1765 16.2767 22.1765 15.826C22.1765 15.3753 22.3325 14.994 22.6445 14.682C22.9565 14.37 23.3378 14.214 23.7885 14.214C24.2218 14.214 24.5858 14.37 24.8805 14.682C25.1925 14.994 25.3485 15.3753 25.3485 15.826C25.3485 16.2767 25.1925 16.658 24.8805 16.97C24.5858 17.282 24.2218 17.438 23.7885 17.438ZM24.9325 19.752V34H22.5665V19.752H24.9325ZM31.8509 21.702V30.1C31.8509 30.7933 31.9982 31.2873 32.2929 31.582C32.5876 31.8593 33.0989 31.998 33.8269 31.998H35.5689V34H33.4369C32.1196 34 31.1316 33.6967 30.4729 33.09C29.8142 32.4833 29.4849 31.4867 29.4849 30.1V21.702H27.6389V19.752H29.4849V16.164H31.8509V19.752H35.5689V21.702H31.8509ZM43.4796 34.234C42.3876 34.234 41.4083 34.052 40.5416 33.688C39.6749 33.3067 38.9903 32.7867 38.4876 32.128C37.9849 31.452 37.7076 30.6807 37.6556 29.814H40.0996C40.1689 30.5247 40.4983 31.1053 41.0876 31.556C41.6943 32.0067 42.4829 32.232 43.4536 32.232C44.3549 32.232 45.0656 32.0327 45.5856 31.634C46.1056 31.2353 46.3656 30.7327 46.3656 30.126C46.3656 29.502 46.0883 29.0427 45.5336 28.748C44.9789 28.436 44.1209 28.1327 42.9596 27.838C41.9023 27.5607 41.0356 27.2833 40.3596 27.006C39.7009 26.7113 39.1289 26.2867 38.6436 25.732C38.1756 25.16 37.9416 24.4147 37.9416 23.496C37.9416 22.768 38.1583 22.1007 38.5916 21.494C39.0249 20.8873 39.6403 20.4107 40.4376 20.064C41.2349 19.7 42.1449 19.518 43.1676 19.518C44.7449 19.518 46.0189 19.9167 46.9896 20.714C47.9603 21.5113 48.4803 22.6033 48.5496 23.99H46.1836C46.1316 23.2447 45.8283 22.6467 45.2736 22.196C44.7363 21.7453 44.0083 21.52 43.0896 21.52C42.2403 21.52 41.5643 21.702 41.0616 22.066C40.5589 22.43 40.3076 22.9067 40.3076 23.496C40.3076 23.964 40.4549 24.354 40.7496 24.666C41.0616 24.9607 41.4429 25.2033 41.8936 25.394C42.3616 25.5673 43.0029 25.7667 43.8176 25.992C44.8403 26.2693 45.6723 26.5467 46.3136 26.824C46.9549 27.084 47.5009 27.4827 47.9516 28.02C48.4196 28.5573 48.6623 29.2593 48.6796 30.126C48.6796 30.906 48.4629 31.608 48.0296 32.232C47.5963 32.856 46.9809 33.35 46.1836 33.714C45.4036 34.0607 44.5023 34.234 43.4796 34.234ZM68.0252 24.666C68.6839 24.77 69.2819 25.0387 69.8192 25.472C70.3739 25.9053 70.8072 26.4427 71.1192 27.084C71.4486 27.7253 71.6132 28.41 71.6132 29.138C71.6132 30.0567 71.3792 30.8887 70.9112 31.634C70.4432 32.362 69.7586 32.9427 68.8572 33.376C67.9732 33.792 66.9246 34 65.7112 34H58.9512V15.878H65.4512C66.6819 15.878 67.7306 16.086 68.5972 16.502C69.4639 16.9007 70.1139 17.4467 70.5472 18.14C70.9806 18.8333 71.1972 19.6133 71.1972 20.48C71.1972 21.5547 70.9026 22.4473 70.3132 23.158C69.7412 23.8513 68.9786 24.354 68.0252 24.666ZM61.3172 23.704H65.2952C66.4046 23.704 67.2626 23.444 67.8692 22.924C68.4759 22.404 68.7792 21.6847 68.7792 20.766C68.7792 19.8473 68.4759 19.128 67.8692 18.608C67.2626 18.088 66.3872 17.828 65.2432 17.828H61.3172V23.704ZM65.5032 32.05C66.6819 32.05 67.6006 31.7727 68.2592 31.218C68.9179 30.6633 69.2472 29.892 69.2472 28.904C69.2472 27.8987 68.9006 27.11 68.2072 26.538C67.5139 25.9487 66.5866 25.654 65.4252 25.654H61.3172V32.05H65.5032ZM81.1105 34.234C79.7759 34.234 78.5625 33.9307 77.4705 33.324C76.3959 32.7173 75.5465 31.8593 74.9225 30.75C74.3159 29.6233 74.0125 28.3233 74.0125 26.85C74.0125 25.394 74.3245 24.1113 74.9485 23.002C75.5899 21.8753 76.4565 21.0173 77.5485 20.428C78.6405 19.8213 79.8625 19.518 81.2145 19.518C82.5665 19.518 83.7885 19.8213 84.8805 20.428C85.9725 21.0173 86.8305 21.8667 87.4545 22.976C88.0959 24.0853 88.4165 25.3767 88.4165 26.85C88.4165 28.3233 88.0872 29.6233 87.4285 30.75C86.7872 31.8593 85.9119 32.7173 84.8025 33.324C83.6932 33.9307 82.4625 34.234 81.1105 34.234ZM81.1105 32.154C81.9599 32.154 82.7572 31.9547 83.5025 31.556C84.2479 31.1573 84.8459 30.5593 85.2965 29.762C85.7645 28.9647 85.9985 27.994 85.9985 26.85C85.9985 25.706 85.7732 24.7353 85.3225 23.938C84.8719 23.1407 84.2825 22.5513 83.5545 22.17C82.8265 21.7713 82.0379 21.572 81.1885 21.572C80.3219 21.572 79.5245 21.7713 78.7965 22.17C78.0859 22.5513 77.5139 23.1407 77.0805 23.938C76.6472 24.7353 76.4305 25.706 76.4305 26.85C76.4305 28.0113 76.6385 28.9907 77.0545 29.788C77.4879 30.5853 78.0599 31.1833 78.7705 31.582C79.4812 31.9633 80.2612 32.154 81.1105 32.154ZM93.8934 22.066C94.3094 21.2513 94.8987 20.6187 95.6614 20.168C96.4414 19.7173 97.3861 19.492 98.4954 19.492V21.936H97.8714C95.2194 21.936 93.8934 23.3747 93.8934 26.252V34H91.5274V19.752H93.8934V22.066ZM108.169 19.492C109.902 19.492 111.306 20.0207 112.381 21.078C113.455 22.118 113.993 23.626 113.993 25.602V34H111.653V25.94C111.653 24.5187 111.297 23.4353 110.587 22.69C109.876 21.9273 108.905 21.546 107.675 21.546C106.427 21.546 105.43 21.936 104.685 22.716C103.957 23.496 103.593 24.6313 103.593 26.122V34H101.227V19.752H103.593V21.78C104.061 21.052 104.693 20.4887 105.491 20.09C106.305 19.6913 107.198 19.492 108.169 19.492ZM127.675 21.702V30.1C127.675 30.7933 127.822 31.2873 128.117 31.582C128.412 31.8593 128.923 31.998 129.651 31.998H131.393V34H129.261C127.944 34 126.956 33.6967 126.297 33.09C125.638 32.4833 125.309 31.4867 125.309 30.1V21.702H123.463V19.752H125.309V16.164H127.675V19.752H131.393V21.702H127.675ZM140.474 34.234C139.139 34.234 137.926 33.9307 136.834 33.324C135.759 32.7173 134.91 31.8593 134.286 30.75C133.679 29.6233 133.376 28.3233 133.376 26.85C133.376 25.394 133.688 24.1113 134.312 23.002C134.953 21.8753 135.82 21.0173 136.912 20.428C138.004 19.8213 139.226 19.518 140.578 19.518C141.93 19.518 143.152 19.8213 144.244 20.428C145.336 21.0173 146.194 21.8667 146.818 22.976C147.459 24.0853 147.78 25.3767 147.78 26.85C147.78 28.3233 147.45 29.6233 146.792 30.75C146.15 31.8593 145.275 32.7173 144.166 33.324C143.056 33.9307 141.826 34.234 140.474 34.234ZM140.474 32.154C141.323 32.154 142.12 31.9547 142.866 31.556C143.611 31.1573 144.209 30.5593 144.66 29.762C145.128 28.9647 145.362 27.994 145.362 26.85C145.362 25.706 145.136 24.7353 144.686 23.938C144.235 23.1407 143.646 22.5513 142.918 22.17C142.19 21.7713 141.401 21.572 140.552 21.572C139.685 21.572 138.888 21.7713 138.16 22.17C137.449 22.5513 136.877 23.1407 136.444 23.938C136.01 24.7353 135.794 25.706 135.794 26.85C135.794 28.0113 136.002 28.9907 136.418 29.788C136.851 30.5853 137.423 31.1833 138.134 31.582C138.844 31.9633 139.624 32.154 140.474 32.154ZM163.568 34.182C162.372 34.182 161.298 33.974 160.344 33.558C159.408 33.1247 158.672 32.5353 158.134 31.79C157.597 31.0273 157.32 30.152 157.302 29.164H159.824C159.911 30.0133 160.258 30.7327 160.864 31.322C161.488 31.894 162.39 32.18 163.568 32.18C164.695 32.18 165.579 31.9027 166.22 31.348C166.879 30.776 167.208 30.048 167.208 29.164C167.208 28.4707 167.018 27.9073 166.636 27.474C166.255 27.0407 165.778 26.7113 165.206 26.486C164.634 26.2607 163.863 26.018 162.892 25.758C161.696 25.446 160.734 25.134 160.006 24.822C159.296 24.51 158.68 24.0247 158.16 23.366C157.658 22.69 157.406 21.7887 157.406 20.662C157.406 19.674 157.658 18.7987 158.16 18.036C158.663 17.2733 159.365 16.684 160.266 16.268C161.185 15.852 162.234 15.644 163.412 15.644C165.111 15.644 166.498 16.0687 167.572 16.918C168.664 17.7673 169.28 18.894 169.418 20.298H166.818C166.732 19.6047 166.368 18.998 165.726 18.478C165.085 17.9407 164.236 17.672 163.178 17.672C162.19 17.672 161.384 17.932 160.76 18.452C160.136 18.9547 159.824 19.6653 159.824 20.584C159.824 21.2427 160.006 21.78 160.37 22.196C160.752 22.612 161.211 22.9327 161.748 23.158C162.303 23.366 163.074 23.6087 164.062 23.886C165.258 24.2153 166.22 24.5447 166.948 24.874C167.676 25.186 168.3 25.68 168.82 26.356C169.34 27.0147 169.6 27.916 169.6 29.06C169.6 29.944 169.366 30.776 168.898 31.556C168.43 32.336 167.737 32.9687 166.818 33.454C165.9 33.9393 164.816 34.182 163.568 34.182ZM185.718 19.752V34H183.352V31.894C182.901 32.622 182.269 33.194 181.454 33.61C180.657 34.0087 179.773 34.208 178.802 34.208C177.693 34.208 176.696 33.9827 175.812 33.532C174.928 33.064 174.226 32.3707 173.706 31.452C173.203 30.5333 172.952 29.4153 172.952 28.098V19.752H175.292V27.786C175.292 29.19 175.647 30.2733 176.358 31.036C177.069 31.7813 178.039 32.154 179.27 32.154C180.535 32.154 181.532 31.764 182.26 30.984C182.988 30.204 183.352 29.0687 183.352 27.578V19.752H185.718ZM192.079 22.066C192.495 21.2513 193.084 20.6187 193.847 20.168C194.627 19.7173 195.572 19.492 196.681 19.492V21.936H196.057C193.405 21.936 192.079 23.3747 192.079 26.252V34H189.713V19.752H192.079V22.066ZM201.778 22.378C202.246 21.5633 202.939 20.8873 203.858 20.35C204.794 19.7953 205.877 19.518 207.108 19.518C208.373 19.518 209.517 19.8213 210.54 20.428C211.58 21.0347 212.395 21.8927 212.984 23.002C213.573 24.094 213.868 25.368 213.868 26.824C213.868 28.2627 213.573 29.5453 212.984 30.672C212.395 31.7987 211.58 32.674 210.54 33.298C209.517 33.922 208.373 34.234 207.108 34.234C205.895 34.234 204.82 33.9653 203.884 33.428C202.965 32.8733 202.263 32.1887 201.778 31.374V40.76H199.412V19.752H201.778V22.378ZM211.45 26.824C211.45 25.7493 211.233 24.8133 210.8 24.016C210.367 23.2187 209.777 22.612 209.032 22.196C208.304 21.78 207.498 21.572 206.614 21.572C205.747 21.572 204.941 21.7887 204.196 22.222C203.468 22.638 202.879 23.2533 202.428 24.068C201.995 24.8653 201.778 25.7927 201.778 26.85C201.778 27.9247 201.995 28.8693 202.428 29.684C202.879 30.4813 203.468 31.0967 204.196 31.53C204.941 31.946 205.747 32.154 206.614 32.154C207.498 32.154 208.304 31.946 209.032 31.53C209.777 31.0967 210.367 30.4813 210.8 29.684C211.233 28.8693 211.45 27.916 211.45 26.824ZM219.348 22.066C219.764 21.2513 220.354 20.6187 221.116 20.168C221.896 19.7173 222.841 19.492 223.95 19.492V21.936H223.326C220.674 21.936 219.348 23.3747 219.348 26.252V34H216.982V19.752H219.348V22.066ZM227.904 17.438C227.453 17.438 227.072 17.282 226.76 16.97C226.448 16.658 226.292 16.2767 226.292 15.826C226.292 15.3753 226.448 14.994 226.76 14.682C227.072 14.37 227.453 14.214 227.904 14.214C228.337 14.214 228.701 14.37 228.996 14.682C229.308 14.994 229.464 15.3753 229.464 15.826C229.464 16.2767 229.308 16.658 228.996 16.97C228.701 17.282 228.337 17.438 227.904 17.438ZM229.048 19.752V34H226.682V19.752H229.048ZM238.124 34.234C237.032 34.234 236.053 34.052 235.186 33.688C234.319 33.3067 233.635 32.7867 233.132 32.128C232.629 31.452 232.352 30.6807 232.3 29.814H234.744C234.813 30.5247 235.143 31.1053 235.732 31.556C236.339 32.0067 237.127 32.232 238.098 32.232C238.999 32.232 239.71 32.0327 240.23 31.634C240.75 31.2353 241.01 30.7327 241.01 30.126C241.01 29.502 240.733 29.0427 240.178 28.748C239.623 28.436 238.765 28.1327 237.604 27.838C236.547 27.5607 235.68 27.2833 235.004 27.006C234.345 26.7113 233.773 26.2867 233.288 25.732C232.82 25.16 232.586 24.4147 232.586 23.496C232.586 22.768 232.803 22.1007 233.236 21.494C233.669 20.8873 234.285 20.4107 235.082 20.064C235.879 19.7 236.789 19.518 237.812 19.518C239.389 19.518 240.663 19.9167 241.634 20.714C242.605 21.5113 243.125 22.6033 243.194 23.99H240.828C240.776 23.2447 240.473 22.6467 239.918 22.196C239.381 21.7453 238.653 21.52 237.734 21.52C236.885 21.52 236.209 21.702 235.706 22.066C235.203 22.43 234.952 22.9067 234.952 23.496C234.952 23.964 235.099 24.354 235.394 24.666C235.706 24.9607 236.087 25.2033 236.538 25.394C237.006 25.5673 237.647 25.7667 238.462 25.992C239.485 26.2693 240.317 26.5467 240.958 26.824C241.599 27.084 242.145 27.4827 242.596 28.02C243.064 28.5573 243.307 29.2593 243.324 30.126C243.324 30.906 243.107 31.608 242.674 32.232C242.241 32.856 241.625 33.35 240.828 33.714C240.048 34.0607 239.147 34.234 238.124 34.234ZM259.664 26.33C259.664 26.7807 259.638 27.2573 259.586 27.76H248.198C248.285 29.164 248.761 30.2647 249.628 31.062C250.512 31.842 251.578 32.232 252.826 32.232C253.849 32.232 254.698 31.998 255.374 31.53C256.067 31.0447 256.553 30.4033 256.83 29.606H259.378C258.997 30.9753 258.234 32.0933 257.09 32.96C255.946 33.8093 254.525 34.234 252.826 34.234C251.474 34.234 250.261 33.9307 249.186 33.324C248.129 32.7173 247.297 31.8593 246.69 30.75C246.083 29.6233 245.78 28.3233 245.78 26.85C245.78 25.3767 246.075 24.0853 246.664 22.976C247.253 21.8667 248.077 21.0173 249.134 20.428C250.209 19.8213 251.439 19.518 252.826 19.518C254.178 19.518 255.374 19.8127 256.414 20.402C257.454 20.9913 258.251 21.806 258.806 22.846C259.378 23.8687 259.664 25.03 259.664 26.33ZM257.22 25.836C257.22 24.9347 257.021 24.1633 256.622 23.522C256.223 22.8633 255.677 22.3693 254.984 22.04C254.308 21.6933 253.554 21.52 252.722 21.52C251.526 21.52 250.503 21.9013 249.654 22.664C248.822 23.4267 248.345 24.484 248.224 25.836H257.22Z" fill="black"/>
</svg>
