<svg width="465" height="69" viewBox="0 0 465 69" fill="none" xmlns="http://www.w3.org/2000/svg">
<mask id="path-1-outside-1_0_748" maskUnits="userSpaceOnUse" x="0" y="0" width="465" height="69" fill="black">
<rect fill="white" width="465" height="69"/>
<path d="M32.9141 38.1826C36.166 39.0908 38.2021 42.0059 39.0225 46.9277L42.5381 66H28.0361L24.96 48.1582C24.2861 44.7305 22.3965 43.0312 19.291 43.0605H15.7314V66H1.93262V2.98242H22.9824C28.373 2.98242 32.7529 4.69629 36.1221 8.12402C39.4912 11.5518 41.1758 16.1807 41.1758 22.0107C41.1758 29.2178 38.4219 34.4912 32.9141 37.8311V38.1826ZM20.0381 32.1621C22.2646 32.1621 24.0811 31.3857 25.4873 29.833C26.8936 28.251 27.5967 26.2441 27.5967 23.8125C27.5967 21.3516 26.8936 19.3594 25.4873 17.8359C24.0811 16.2832 22.2646 15.5068 20.0381 15.5068H15.7314V32.1621H20.0381ZM69.6699 40.9951V53.4756H92.082V66H56.0029V2.98242H91.5547V15.5068H69.6699V29.7451H89.5771V40.9951H69.6699ZM130.42 54.75C133.789 54.75 137.144 53.2852 140.483 50.3555L143.208 62.8359C139.429 65.7656 134.419 67.2451 128.179 67.2744C120.796 67.2744 114.907 64.6084 110.513 59.2764C106.147 53.915 103.965 45.6826 103.965 34.5791C103.965 23.417 106.147 15.1553 110.513 9.79395C114.907 4.43262 120.796 1.75195 128.179 1.75195C134.712 1.75195 139.326 2.7334 142.021 4.69629L138.594 16.8691C136.426 15.1992 133.701 14.3496 130.42 14.3203C121.953 14.3203 117.72 21.0732 117.72 34.5791C117.72 48.0264 121.953 54.75 130.42 54.75ZM156.102 9.70605C160.232 4.40332 165.799 1.75195 172.801 1.75195C179.832 1.75195 185.413 4.40332 189.544 9.70605C193.675 15.0088 195.74 23.2705 195.74 34.4912C195.74 45.7119 193.675 53.9883 189.544 59.3203C185.413 64.623 179.832 67.2744 172.801 67.2744C165.799 67.2744 160.232 64.623 156.102 59.3203C152 53.9883 149.949 45.7119 149.949 34.4912C149.949 23.2705 152 15.0088 156.102 9.70605ZM172.801 54.75C178.924 54.75 181.985 47.9971 181.985 34.4912C181.985 21.0439 178.924 14.3203 172.801 14.3203C166.736 14.3203 163.704 21.0439 163.704 34.4912C163.704 47.9971 166.736 54.75 172.801 54.75ZM235.353 33.7881V2.98242H249.195V66H240.099L223.927 35.4141H223.663V66H209.864V2.98242H218.873L235.177 33.7881H235.353ZM269.516 9.70605C273.646 4.40332 279.213 1.75195 286.215 1.75195C293.246 1.75195 298.827 4.40332 302.958 9.70605C307.089 15.0088 309.154 23.2705 309.154 34.4912C309.154 45.7119 307.089 53.9883 302.958 59.3203C298.827 64.623 293.246 67.2744 286.215 67.2744C279.213 67.2744 273.646 64.623 269.516 59.3203C265.414 53.9883 263.363 45.7119 263.363 34.4912C263.363 23.2705 265.414 15.0088 269.516 9.70605ZM286.215 54.75C292.338 54.75 295.399 47.9971 295.399 34.4912C295.399 21.0439 292.338 14.3203 286.215 14.3203C280.15 14.3203 277.118 21.0439 277.118 34.4912C277.118 47.9971 280.15 54.75 286.215 54.75ZM347.492 54.75C350.861 54.75 354.216 53.2852 357.556 50.3555L360.28 62.8359C356.501 65.7656 351.491 67.2451 345.251 67.2744C337.868 67.2744 331.979 64.6084 327.585 59.2764C323.22 53.915 321.037 45.6826 321.037 34.5791C321.037 23.417 323.22 15.1553 327.585 9.79395C331.979 4.43262 337.868 1.75195 345.251 1.75195C351.784 1.75195 356.398 2.7334 359.094 4.69629L355.666 16.8691C353.498 15.1992 350.773 14.3496 347.492 14.3203C339.025 14.3203 334.792 21.0732 334.792 34.5791C334.792 48.0264 339.025 54.75 347.492 54.75ZM385.654 40.9951V53.4756H408.066V66H371.987V2.98242H407.539V15.5068H385.654V29.7451H405.562V40.9951H385.654ZM453.172 38.1826C456.424 39.0908 458.46 42.0059 459.28 46.9277L462.796 66H448.294L445.218 48.1582C444.544 44.7305 442.654 43.0312 439.549 43.0605H435.989V66H422.19V2.98242H443.24C448.631 2.98242 453.011 4.69629 456.38 8.12402C459.749 11.5518 461.434 16.1807 461.434 22.0107C461.434 29.2178 458.68 34.4912 453.172 37.8311V38.1826ZM440.296 32.1621C442.522 32.1621 444.339 31.3857 445.745 29.833C447.151 28.251 447.854 26.2441 447.854 23.8125C447.854 21.3516 447.151 19.3594 445.745 17.8359C444.339 16.2832 442.522 15.5068 440.296 15.5068H435.989V32.1621H440.296Z"/>
</mask>
<path d="M32.9141 38.1826H31.4141V39.3211L32.5106 39.6273L32.9141 38.1826ZM39.0225 46.9277L37.5429 47.1743L37.545 47.187L37.5473 47.1996L39.0225 46.9277ZM42.5381 66V67.5H44.3399L44.0132 65.7281L42.5381 66ZM28.0361 66L26.5579 66.2549L26.7726 67.5H28.0361V66ZM24.96 48.1582L26.4382 47.9033L26.4352 47.8861L26.4318 47.8689L24.96 48.1582ZM19.291 43.0605V44.5605H19.2981L19.3052 44.5605L19.291 43.0605ZM15.7314 43.0605V41.5605H14.2314V43.0605H15.7314ZM15.7314 66V67.5H17.2314V66H15.7314ZM1.93262 66H0.432617V67.5H1.93262V66ZM1.93262 2.98242V1.48242H0.432617V2.98242H1.93262ZM32.9141 37.8311L32.1363 36.5484L31.4141 36.9864V37.8311H32.9141ZM25.4873 29.833L26.5992 30.84L26.6084 30.8296L25.4873 29.833ZM25.4873 17.8359L24.3755 18.8429L24.3803 18.8481L24.3851 18.8534L25.4873 17.8359ZM15.7314 15.5068V14.0068H14.2314V15.5068H15.7314ZM15.7314 32.1621H14.2314V33.6621H15.7314V32.1621ZM32.9141 38.1826L32.5106 39.6273C34.9503 40.3087 36.7663 42.5147 37.5429 47.1743L39.0225 46.9277L40.5021 46.6811C39.638 41.497 37.3817 37.8729 33.3175 36.7379L32.9141 38.1826ZM39.0225 46.9277L37.5473 47.1996L41.0629 66.2719L42.5381 66L44.0132 65.7281L40.4976 46.6558L39.0225 46.9277ZM42.5381 66V64.5H28.0361V66V67.5H42.5381V66ZM28.0361 66L29.5143 65.7451L26.4382 47.9033L24.96 48.1582L23.4818 48.4131L26.5579 66.2549L28.0361 66ZM24.96 48.1582L26.4318 47.8689C26.0553 45.9535 25.3027 44.3328 24.0403 43.1976C22.7576 42.0442 21.1173 41.5433 19.2769 41.5606L19.291 43.0605L19.3052 44.5605C20.5702 44.5485 21.4274 44.8826 22.0344 45.4284C22.6616 45.9924 23.1908 46.9352 23.4881 48.4475L24.96 48.1582ZM19.291 43.0605V41.5605H15.7314V43.0605V44.5605H19.291V43.0605ZM15.7314 43.0605H14.2314V66H15.7314H17.2314V43.0605H15.7314ZM15.7314 66V64.5H1.93262V66V67.5H15.7314V66ZM1.93262 66H3.43262V2.98242H1.93262H0.432617V66H1.93262ZM1.93262 2.98242V4.48242H22.9824V2.98242V1.48242H1.93262V2.98242ZM22.9824 2.98242V4.48242C28.0243 4.48242 32.0006 6.07077 35.0523 9.1755L36.1221 8.12402L37.1918 7.07255C33.5052 3.32181 28.7218 1.48242 22.9824 1.48242V2.98242ZM36.1221 8.12402L35.0523 9.1755C38.089 12.265 39.6758 16.4849 39.6758 22.0107H41.1758H42.6758C42.6758 15.8764 40.8934 10.8385 37.1918 7.07255L36.1221 8.12402ZM41.1758 22.0107H39.6758C39.6758 28.7679 37.1355 33.517 32.1363 36.5484L32.9141 37.8311L33.6918 39.1137C39.7083 35.4654 42.6758 29.6677 42.6758 22.0107H41.1758ZM32.9141 37.8311H31.4141V38.1826H32.9141H34.4141V37.8311H32.9141ZM20.0381 32.1621V33.6621C22.6582 33.6621 24.889 32.7282 26.5991 30.8399L25.4873 29.833L24.3755 28.8261C23.2731 30.0433 21.8711 30.6621 20.0381 30.6621V32.1621ZM25.4873 29.833L26.6084 30.8296C28.2949 28.9323 29.0967 26.5532 29.0967 23.8125H27.5967H26.0967C26.0967 25.935 25.4923 27.5696 24.3662 28.8365L25.4873 29.833ZM27.5967 23.8125H29.0967C29.0967 21.0493 28.2981 18.6695 26.5895 16.8185L25.4873 17.8359L24.3851 18.8534C25.489 20.0492 26.0967 21.6538 26.0967 23.8125H27.5967ZM25.4873 17.8359L26.5991 16.829C24.889 14.9407 22.6582 14.0068 20.0381 14.0068V15.5068V17.0068C21.8711 17.0068 23.2731 17.6257 24.3755 18.8429L25.4873 17.8359ZM20.0381 15.5068V14.0068H15.7314V15.5068V17.0068H20.0381V15.5068ZM15.7314 15.5068H14.2314V32.1621H15.7314H17.2314V15.5068H15.7314ZM15.7314 32.1621V33.6621H20.0381V32.1621V30.6621H15.7314V32.1621ZM69.6699 40.9951V39.4951H68.1699V40.9951H69.6699ZM69.6699 53.4756H68.1699V54.9756H69.6699V53.4756ZM92.082 53.4756H93.582V51.9756H92.082V53.4756ZM92.082 66V67.5H93.582V66H92.082ZM56.0029 66H54.5029V67.5H56.0029V66ZM56.0029 2.98242V1.48242H54.5029V2.98242H56.0029ZM91.5547 2.98242H93.0547V1.48242H91.5547V2.98242ZM91.5547 15.5068V17.0068H93.0547V15.5068H91.5547ZM69.6699 15.5068V14.0068H68.1699V15.5068H69.6699ZM69.6699 29.7451H68.1699V31.2451H69.6699V29.7451ZM89.5771 29.7451H91.0771V28.2451H89.5771V29.7451ZM89.5771 40.9951V42.4951H91.0771V40.9951H89.5771ZM69.6699 40.9951H68.1699V53.4756H69.6699H71.1699V40.9951H69.6699ZM69.6699 53.4756V54.9756H92.082V53.4756V51.9756H69.6699V53.4756ZM92.082 53.4756H90.582V66H92.082H93.582V53.4756H92.082ZM92.082 66V64.5H56.0029V66V67.5H92.082V66ZM56.0029 66H57.5029V2.98242H56.0029H54.5029V66H56.0029ZM56.0029 2.98242V4.48242H91.5547V2.98242V1.48242H56.0029V2.98242ZM91.5547 2.98242H90.0547V15.5068H91.5547H93.0547V2.98242H91.5547ZM91.5547 15.5068V14.0068H69.6699V15.5068V17.0068H91.5547V15.5068ZM69.6699 15.5068H68.1699V29.7451H69.6699H71.1699V15.5068H69.6699ZM69.6699 29.7451V31.2451H89.5771V29.7451V28.2451H69.6699V29.7451ZM89.5771 29.7451H88.0771V40.9951H89.5771H91.0771V29.7451H89.5771ZM89.5771 40.9951V39.4951H69.6699V40.9951V42.4951H89.5771V40.9951ZM140.483 50.3555L141.949 50.0355L141.406 47.5505L139.494 49.2278L140.483 50.3555ZM143.208 62.8359L144.127 64.0214L144.875 63.4412L144.673 62.516L143.208 62.8359ZM128.179 67.2744V68.7744L128.186 68.7744L128.179 67.2744ZM110.513 59.2764L109.349 60.2235L109.355 60.2304L110.513 59.2764ZM110.513 9.79395L109.353 8.84305L109.349 8.84686L110.513 9.79395ZM142.021 4.69629L143.465 5.10286L143.748 4.0982L142.905 3.48376L142.021 4.69629ZM138.594 16.8691L137.678 18.0575L139.436 19.4115L140.038 17.2757L138.594 16.8691ZM130.42 14.3203L130.433 12.8203H130.42V14.3203ZM130.42 54.75V56.25C134.256 56.25 137.948 54.575 141.473 51.4831L140.483 50.3555L139.494 49.2278C136.339 51.9953 133.322 53.25 130.42 53.25V54.75ZM140.483 50.3555L139.018 50.6754L141.743 63.1559L143.208 62.8359L144.673 62.516L141.949 50.0355L140.483 50.3555ZM143.208 62.8359L142.289 61.6504C138.841 64.3235 134.183 65.7462 128.172 65.7744L128.179 67.2744L128.186 68.7744C134.655 68.744 140.017 67.2078 144.127 64.0214L143.208 62.8359ZM128.179 67.2744V65.7744C121.209 65.7744 115.758 63.2825 111.67 58.3224L110.513 59.2764L109.355 60.2304C114.056 65.9343 120.383 68.7744 128.179 68.7744V67.2744ZM110.513 59.2764L111.676 58.3293C107.626 53.3554 105.465 45.5328 105.465 34.5791H103.965H102.465C102.465 45.8324 104.669 54.4746 109.349 60.2235L110.513 59.2764ZM103.965 34.5791H105.465C105.465 23.5645 107.627 15.7138 111.676 10.741L110.513 9.79395L109.349 8.84686C104.668 14.5968 102.465 23.2695 102.465 34.5791H103.965ZM110.513 9.79395L111.673 10.7448C115.762 5.75619 121.212 3.25195 128.179 3.25195V1.75195V0.251953C120.38 0.251953 114.053 3.10905 109.353 8.84305L110.513 9.79395ZM128.179 1.75195V3.25195C134.651 3.25195 138.849 4.2417 141.138 5.90882L142.021 4.69629L142.905 3.48376C139.803 1.2251 134.773 0.251953 128.179 0.251953V1.75195ZM142.021 4.69629L140.578 4.28972L137.15 16.4626L138.594 16.8691L140.038 17.2757L143.465 5.10286L142.021 4.69629ZM138.594 16.8691L139.509 15.6808C137.034 13.7743 133.974 12.852 130.433 12.8204L130.42 14.3203L130.407 15.8203C133.428 15.8472 135.818 16.6242 137.678 18.0575L138.594 16.8691ZM130.42 14.3203V12.8203C125.709 12.8203 122.035 14.7423 119.624 18.5883C117.286 22.3171 116.22 27.718 116.22 34.5791H117.72H119.22C119.22 27.9344 120.27 23.2059 122.166 20.1817C123.988 17.2747 126.664 15.8203 130.42 15.8203V14.3203ZM117.72 34.5791H116.22C116.22 41.4117 117.286 46.7917 119.625 50.5065C122.038 54.3378 125.712 56.25 130.42 56.25V54.75V53.25C126.661 53.25 123.985 51.8003 122.164 48.9081C120.27 45.8992 119.22 41.1938 119.22 34.5791H117.72ZM156.102 9.70605L154.918 8.78423L154.915 8.78832L156.102 9.70605ZM189.544 59.3203L190.727 60.2421L190.73 60.239L189.544 59.3203ZM156.102 59.3203L154.913 60.2349L154.918 60.2421L156.102 59.3203ZM156.102 9.70605L157.285 10.6279C161.118 5.70731 166.239 3.25195 172.801 3.25195V1.75195V0.251953C165.359 0.251953 159.347 3.09933 154.918 8.78424L156.102 9.70605ZM172.801 1.75195V3.25195C179.394 3.25195 184.529 5.70907 188.361 10.6279L189.544 9.70605L190.727 8.78424C186.297 3.09757 180.27 0.251953 172.801 0.251953V1.75195ZM189.544 9.70605L188.361 10.6279C192.189 15.5419 194.24 23.4003 194.24 34.4912H195.74H197.24C197.24 23.1407 195.161 14.4757 190.727 8.78424L189.544 9.70605ZM195.74 34.4912H194.24C194.24 45.5811 192.189 53.4568 188.358 58.4017L189.544 59.3203L190.73 60.239C195.161 54.5198 197.24 45.8427 197.24 34.4912H195.74ZM189.544 59.3203L188.361 58.3985C184.529 63.3173 179.394 65.7744 172.801 65.7744V67.2744V68.7744C180.27 68.7744 186.297 65.9288 190.727 60.2421L189.544 59.3203ZM172.801 67.2744V65.7744C166.239 65.7744 161.118 63.3191 157.285 58.3985L156.102 59.3203L154.918 60.2421C159.347 65.927 165.359 68.7744 172.801 68.7744V67.2744ZM156.102 59.3203L157.29 58.4057C153.486 53.4603 151.449 45.5827 151.449 34.4912H149.949H148.449C148.449 45.8411 150.514 54.5163 154.913 60.2349L156.102 59.3203ZM149.949 34.4912H151.449C151.449 23.3986 153.487 15.5384 157.288 10.6238L156.102 9.70605L154.915 8.78832C150.513 14.4792 148.449 23.1424 148.449 34.4912H149.949ZM172.801 54.75V56.25C174.626 56.25 176.282 55.7402 177.708 54.6923C179.116 53.6569 180.215 52.1585 181.055 50.3047C182.72 46.6336 183.485 41.3106 183.485 34.4912H181.985H180.485C180.485 41.1777 179.72 45.984 178.323 49.0659C177.633 50.5886 176.818 51.6225 175.93 52.2753C175.06 52.9157 174.037 53.25 172.801 53.25V54.75ZM181.985 34.4912H183.485C183.485 27.7007 182.72 22.3987 181.054 18.7414C180.213 16.8944 179.114 15.4017 177.705 14.3706C176.28 13.3274 174.625 12.8203 172.801 12.8203V14.3203V15.8203C174.039 15.8203 175.062 16.1537 175.933 16.7913C176.821 17.4411 177.634 18.4699 178.324 19.9846C179.72 23.051 180.485 27.8344 180.485 34.4912H181.985ZM172.801 14.3203V12.8203C170.988 12.8203 169.344 13.3294 167.929 14.3747C166.532 15.4073 165.443 16.9006 164.611 18.7464C162.962 22.4017 162.204 27.7016 162.204 34.4912H163.704H165.204C165.204 27.8335 165.962 23.048 167.346 19.9797C168.029 18.4637 168.835 17.4356 169.713 16.7873C170.572 16.1517 171.581 15.8203 172.801 15.8203V14.3203ZM163.704 34.4912H162.204C162.204 41.3097 162.962 46.6306 164.61 50.2997C165.442 52.1522 166.53 53.6514 167.927 54.6882C169.341 55.7382 170.987 56.25 172.801 56.25V54.75V53.25C171.583 53.25 170.575 52.9177 169.715 52.2794C168.838 51.628 168.031 50.5948 167.347 49.0709C165.962 45.9871 165.204 41.1786 165.204 34.4912H163.704ZM235.353 33.7881V35.2881H236.853V33.7881H235.353ZM235.353 2.98242V1.48242H233.853V2.98242H235.353ZM249.195 2.98242H250.695V1.48242H249.195V2.98242ZM249.195 66V67.5H250.695V66H249.195ZM240.099 66L238.773 66.7011L239.195 67.5H240.099V66ZM223.927 35.4141L225.253 34.7129L224.83 33.9141H223.927V35.4141ZM223.663 35.4141V33.9141H222.163V35.4141H223.663ZM223.663 66V67.5H225.163V66H223.663ZM209.864 66H208.364V67.5H209.864V66ZM209.864 2.98242V1.48242H208.364V2.98242H209.864ZM218.873 2.98242L220.199 2.28076L219.776 1.48242H218.873V2.98242ZM235.177 33.7881L233.851 34.4897L234.273 35.2881H235.177V33.7881ZM235.353 33.7881H236.853V2.98242H235.353H233.853V33.7881H235.353ZM235.353 2.98242V4.48242H249.195V2.98242V1.48242H235.353V2.98242ZM249.195 2.98242H247.695V66H249.195H250.695V2.98242H249.195ZM249.195 66V64.5H240.099V66V67.5H249.195V66ZM240.099 66L241.425 65.2989L225.253 34.7129L223.927 35.4141L222.601 36.1152L238.773 66.7011L240.099 66ZM223.927 35.4141V33.9141H223.663V35.4141V36.9141H223.927V35.4141ZM223.663 35.4141H222.163V66H223.663H225.163V35.4141H223.663ZM223.663 66V64.5H209.864V66V67.5H223.663V66ZM209.864 66H211.364V2.98242H209.864H208.364V66H209.864ZM209.864 2.98242V4.48242H218.873V2.98242V1.48242H209.864V2.98242ZM218.873 2.98242L217.547 3.68408L233.851 34.4897L235.177 33.7881L236.503 33.0864L220.199 2.28076L218.873 2.98242ZM235.177 33.7881V35.2881H235.353V33.7881V32.2881H235.177V33.7881ZM269.516 9.70605L268.332 8.78423L268.329 8.78832L269.516 9.70605ZM302.958 59.3203L304.141 60.2421L304.144 60.239L302.958 59.3203ZM269.516 59.3203L268.327 60.2349L268.332 60.2421L269.516 59.3203ZM269.516 9.70605L270.699 10.6279C274.532 5.70731 279.653 3.25195 286.215 3.25195V1.75195V0.251953C278.773 0.251953 272.761 3.09933 268.332 8.78424L269.516 9.70605ZM286.215 1.75195V3.25195C292.808 3.25195 297.943 5.70907 301.775 10.6279L302.958 9.70605L304.141 8.78424C299.711 3.09757 293.684 0.251953 286.215 0.251953V1.75195ZM302.958 9.70605L301.775 10.6279C305.603 15.5419 307.654 23.4003 307.654 34.4912H309.154H310.654C310.654 23.1407 308.575 14.4757 304.141 8.78424L302.958 9.70605ZM309.154 34.4912H307.654C307.654 45.5811 305.603 53.4568 301.772 58.4017L302.958 59.3203L304.144 60.239C308.575 54.5198 310.654 45.8427 310.654 34.4912H309.154ZM302.958 59.3203L301.775 58.3985C297.943 63.3173 292.808 65.7744 286.215 65.7744V67.2744V68.7744C293.684 68.7744 299.711 65.9288 304.141 60.2421L302.958 59.3203ZM286.215 67.2744V65.7744C279.653 65.7744 274.532 63.3191 270.699 58.3985L269.516 59.3203L268.332 60.2421C272.761 65.927 278.773 68.7744 286.215 68.7744V67.2744ZM269.516 59.3203L270.705 58.4057C266.9 53.4603 264.863 45.5827 264.863 34.4912H263.363H261.863C261.863 45.8411 263.928 54.5163 268.327 60.2349L269.516 59.3203ZM263.363 34.4912H264.863C264.863 23.3986 266.901 15.5384 270.702 10.6238L269.516 9.70605L268.329 8.78832C263.927 14.4792 261.863 23.1424 261.863 34.4912H263.363ZM286.215 54.75V56.25C288.04 56.25 289.696 55.7402 291.122 54.6923C292.53 53.6569 293.629 52.1585 294.469 50.3047C296.134 46.6336 296.899 41.3106 296.899 34.4912H295.399H293.899C293.899 41.1777 293.134 45.984 291.737 49.0659C291.047 50.5886 290.232 51.6225 289.345 52.2753C288.474 52.9157 287.451 53.25 286.215 53.25V54.75ZM295.399 34.4912H296.899C296.899 27.7007 296.134 22.3987 294.468 18.7414C293.627 16.8944 292.528 15.4017 291.119 14.3706C289.694 13.3274 288.039 12.8203 286.215 12.8203V14.3203V15.8203C287.453 15.8203 288.476 16.1537 289.347 16.7913C290.235 17.4411 291.048 18.4699 291.738 19.9846C293.134 23.051 293.899 27.8344 293.899 34.4912H295.399ZM286.215 14.3203V12.8203C284.402 12.8203 282.758 13.3294 281.343 14.3747C279.947 15.4073 278.857 16.9006 278.025 18.7464C276.376 22.4017 275.618 27.7016 275.618 34.4912H277.118H278.618C278.618 27.8335 279.376 23.048 280.76 19.9797C281.443 18.4637 282.249 17.4356 283.127 16.7873C283.987 16.1517 284.995 15.8203 286.215 15.8203V14.3203ZM277.118 34.4912H275.618C275.618 41.3097 276.376 46.6306 278.024 50.2997C278.856 52.1522 279.944 53.6514 281.341 54.6882C282.755 55.7382 284.401 56.25 286.215 56.25V54.75V53.25C284.997 53.25 283.989 52.9177 283.129 52.2794C282.252 51.628 281.445 50.5948 280.761 49.0709C279.376 45.9871 278.618 41.1786 278.618 34.4912H277.118ZM357.556 50.3555L359.021 50.0355L358.479 47.5505L356.566 49.2278L357.556 50.3555ZM360.28 62.8359L361.199 64.0214L361.948 63.4412L361.746 62.516L360.28 62.8359ZM345.251 67.2744V68.7744L345.258 68.7744L345.251 67.2744ZM327.585 59.2764L326.422 60.2235L326.427 60.2304L327.585 59.2764ZM327.585 9.79395L326.425 8.84305L326.422 8.84686L327.585 9.79395ZM359.094 4.69629L360.538 5.10286L360.82 4.0982L359.977 3.48376L359.094 4.69629ZM355.666 16.8691L354.751 18.0575L356.508 19.4115L357.11 17.2757L355.666 16.8691ZM347.492 14.3203L347.506 12.8203H347.492V14.3203ZM347.492 54.75V56.25C351.328 56.25 355.02 54.575 358.545 51.4831L357.556 50.3555L356.566 49.2278C353.412 51.9953 350.395 53.25 347.492 53.25V54.75ZM357.556 50.3555L356.09 50.6754L358.815 63.1559L360.28 62.8359L361.746 62.516L359.021 50.0355L357.556 50.3555ZM360.28 62.8359L359.361 61.6504C355.913 64.3235 351.255 65.7462 345.244 65.7744L345.251 67.2744L345.258 68.7744C351.727 68.744 357.089 67.2078 361.199 64.0214L360.28 62.8359ZM345.251 67.2744V65.7744C338.281 65.7744 332.83 63.2825 328.742 58.3224L327.585 59.2764L326.427 60.2304C331.129 65.9343 337.455 68.7744 345.251 68.7744V67.2744ZM327.585 59.2764L328.748 58.3293C324.698 53.3554 322.537 45.5328 322.537 34.5791H321.037H319.537C319.537 45.8324 321.741 54.4746 326.422 60.2235L327.585 59.2764ZM321.037 34.5791H322.537C322.537 23.5645 324.699 15.7138 328.748 10.741L327.585 9.79395L326.422 8.84686C321.74 14.5968 319.537 23.2695 319.537 34.5791H321.037ZM327.585 9.79395L328.745 10.7448C332.834 5.75619 338.284 3.25195 345.251 3.25195V1.75195V0.251953C337.452 0.251953 331.125 3.10905 326.425 8.84305L327.585 9.79395ZM345.251 1.75195V3.25195C351.723 3.25195 355.922 4.2417 358.211 5.90882L359.094 4.69629L359.977 3.48376C356.875 1.2251 351.845 0.251953 345.251 0.251953V1.75195ZM359.094 4.69629L357.65 4.28972L354.222 16.4626L355.666 16.8691L357.11 17.2757L360.538 5.10286L359.094 4.69629ZM355.666 16.8691L356.581 15.6808C354.106 13.7743 351.046 12.852 347.506 12.8204L347.492 14.3203L347.479 15.8203C350.5 15.8472 352.89 16.6242 354.751 18.0575L355.666 16.8691ZM347.492 14.3203V12.8203C342.781 12.8203 339.107 14.7423 336.696 18.5883C334.359 22.3171 333.292 27.718 333.292 34.5791H334.792H336.292C336.292 27.9344 337.342 23.2059 339.238 20.1817C341.06 17.2747 343.736 15.8203 347.492 15.8203V14.3203ZM334.792 34.5791H333.292C333.292 41.4117 334.359 46.7917 336.698 50.5065C339.11 54.3378 342.784 56.25 347.492 56.25V54.75V53.25C343.733 53.25 341.057 51.8003 339.236 48.9081C337.342 45.8992 336.292 41.1938 336.292 34.5791H334.792ZM385.654 40.9951V39.4951H384.154V40.9951H385.654ZM385.654 53.4756H384.154V54.9756H385.654V53.4756ZM408.066 53.4756H409.566V51.9756H408.066V53.4756ZM408.066 66V67.5H409.566V66H408.066ZM371.987 66H370.487V67.5H371.987V66ZM371.987 2.98242V1.48242H370.487V2.98242H371.987ZM407.539 2.98242H409.039V1.48242H407.539V2.98242ZM407.539 15.5068V17.0068H409.039V15.5068H407.539ZM385.654 15.5068V14.0068H384.154V15.5068H385.654ZM385.654 29.7451H384.154V31.2451H385.654V29.7451ZM405.562 29.7451H407.062V28.2451H405.562V29.7451ZM405.562 40.9951V42.4951H407.062V40.9951H405.562ZM385.654 40.9951H384.154V53.4756H385.654H387.154V40.9951H385.654ZM385.654 53.4756V54.9756H408.066V53.4756V51.9756H385.654V53.4756ZM408.066 53.4756H406.566V66H408.066H409.566V53.4756H408.066ZM408.066 66V64.5H371.987V66V67.5H408.066V66ZM371.987 66H373.487V2.98242H371.987H370.487V66H371.987ZM371.987 2.98242V4.48242H407.539V2.98242V1.48242H371.987V2.98242ZM407.539 2.98242H406.039V15.5068H407.539H409.039V2.98242H407.539ZM407.539 15.5068V14.0068H385.654V15.5068V17.0068H407.539V15.5068ZM385.654 15.5068H384.154V29.7451H385.654H387.154V15.5068H385.654ZM385.654 29.7451V31.2451H405.562V29.7451V28.2451H385.654V29.7451ZM405.562 29.7451H404.062V40.9951H405.562H407.062V29.7451H405.562ZM405.562 40.9951V39.4951H385.654V40.9951V42.4951H405.562V40.9951ZM453.172 38.1826H451.672V39.3211L452.768 39.6273L453.172 38.1826ZM459.28 46.9277L457.801 47.1743L457.803 47.187L457.805 47.1996L459.28 46.9277ZM462.796 66V67.5H464.598L464.271 65.7281L462.796 66ZM448.294 66L446.816 66.2549L447.03 67.5H448.294V66ZM445.218 48.1582L446.696 47.9033L446.693 47.8861L446.69 47.8689L445.218 48.1582ZM439.549 43.0605V44.5605H439.556L439.563 44.5605L439.549 43.0605ZM435.989 43.0605V41.5605H434.489V43.0605H435.989ZM435.989 66V67.5H437.489V66H435.989ZM422.19 66H420.69V67.5H422.19V66ZM422.19 2.98242V1.48242H420.69V2.98242H422.19ZM453.172 37.8311L452.394 36.5484L451.672 36.9864V37.8311H453.172ZM445.745 29.833L446.857 30.84L446.866 30.8296L445.745 29.833ZM445.745 17.8359L444.633 18.8429L444.638 18.8481L444.643 18.8534L445.745 17.8359ZM435.989 15.5068V14.0068H434.489V15.5068H435.989ZM435.989 32.1621H434.489V33.6621H435.989V32.1621ZM453.172 38.1826L452.768 39.6273C455.208 40.3087 457.024 42.5147 457.801 47.1743L459.28 46.9277L460.76 46.6811C459.896 41.497 457.639 37.8729 453.575 36.7379L453.172 38.1826ZM459.28 46.9277L457.805 47.1996L461.321 66.2719L462.796 66L464.271 65.7281L460.755 46.6558L459.28 46.9277ZM462.796 66V64.5H448.294V66V67.5H462.796V66ZM448.294 66L449.772 65.7451L446.696 47.9033L445.218 48.1582L443.74 48.4131L446.816 66.2549L448.294 66ZM445.218 48.1582L446.69 47.8689C446.313 45.9535 445.561 44.3328 444.298 43.1976C443.015 42.0442 441.375 41.5433 439.535 41.5606L439.549 43.0605L439.563 44.5605C440.828 44.5485 441.685 44.8826 442.292 45.4284C442.919 45.9924 443.449 46.9352 443.746 48.4475L445.218 48.1582ZM439.549 43.0605V41.5605H435.989V43.0605V44.5605H439.549V43.0605ZM435.989 43.0605H434.489V66H435.989H437.489V43.0605H435.989ZM435.989 66V64.5H422.19V66V67.5H435.989V66ZM422.19 66H423.69V2.98242H422.19H420.69V66H422.19ZM422.19 2.98242V4.48242H443.24V2.98242V1.48242H422.19V2.98242ZM443.24 2.98242V4.48242C448.282 4.48242 452.258 6.07077 455.31 9.1755L456.38 8.12402L457.45 7.07255C453.763 3.32181 448.98 1.48242 443.24 1.48242V2.98242ZM456.38 8.12402L455.31 9.1755C458.347 12.265 459.934 16.4849 459.934 22.0107H461.434H462.934C462.934 15.8764 461.151 10.8385 457.45 7.07255L456.38 8.12402ZM461.434 22.0107H459.934C459.934 28.7679 457.393 33.517 452.394 36.5484L453.172 37.8311L453.95 39.1137C459.966 35.4654 462.934 29.6677 462.934 22.0107H461.434ZM453.172 37.8311H451.672V38.1826H453.172H454.672V37.8311H453.172ZM440.296 32.1621V33.6621C442.916 33.6621 445.147 32.7282 446.857 30.8399L445.745 29.833L444.633 28.8261C443.531 30.0433 442.129 30.6621 440.296 30.6621V32.1621ZM445.745 29.833L446.866 30.8296C448.553 28.9323 449.354 26.5532 449.354 23.8125H447.854H446.354C446.354 25.935 445.75 27.5696 444.624 28.8365L445.745 29.833ZM447.854 23.8125H449.354C449.354 21.0493 448.556 18.6695 446.847 16.8185L445.745 17.8359L444.643 18.8534C445.747 20.0492 446.354 21.6538 446.354 23.8125H447.854ZM445.745 17.8359L446.857 16.829C445.147 14.9407 442.916 14.0068 440.296 14.0068V15.5068V17.0068C442.129 17.0068 443.531 17.6257 444.633 18.8429L445.745 17.8359ZM440.296 15.5068V14.0068H435.989V15.5068V17.0068H440.296V15.5068ZM435.989 15.5068H434.489V32.1621H435.989H437.489V15.5068H435.989ZM435.989 32.1621V33.6621H440.296V32.1621V30.6621H435.989V32.1621Z" fill="black" mask="url(#path-1-outside-1_0_748)"/>
</svg>
