<svg width="517" height="531" viewBox="0 0 517 531" fill="none" xmlns="http://www.w3.org/2000/svg">
<g clip-path="url(#clip0_3_2)">
<path d="M336.719 275.566C405.134 290.926 473.047 247.916 488.407 179.5C503.767 111.085 460.757 43.1715 392.342 27.8116C323.927 12.4517 256.013 55.4617 240.653 123.877C225.293 192.292 268.303 260.206 336.719 275.566Z" fill="#FFB9CD"/>
<path d="M339.71 262.243C400.767 275.951 461.376 237.567 475.084 176.509C488.792 115.452 450.408 54.8426 389.351 41.1347C328.293 27.4267 267.684 65.811 253.976 126.868C240.268 187.926 278.652 248.535 339.71 262.243Z" fill="#FF6533"/>
<path d="M332.07 110.979C334.351 115.831 328.403 119.603 324.986 115.466C324.945 115.417 324.907 115.357 324.881 115.299C322.601 110.441 328.553 106.677 331.964 110.813C332.006 110.861 332.044 110.922 332.07 110.979ZM329.35 121.384L328.313 131.599C328.313 131.599 328.301 131.649 328.296 131.674L326.552 139.441C326.476 139.781 326.134 139.998 325.794 139.921L319.451 138.497C319.11 138.421 318.894 138.079 318.971 137.739L320.715 129.972C320.715 129.972 320.726 129.922 320.731 129.897L324.16 120.218C324.267 119.917 324.586 119.741 324.896 119.811L328.847 120.698C329.163 120.769 329.37 121.063 329.338 121.381L329.35 121.384Z" fill="#FCF9CA"/>
<path d="M361.44 134.125L363.075 136.873C363.259 137.181 363.15 137.58 362.837 137.757L358.143 140.352C357.845 140.52 357.465 140.415 357.29 140.122L355.427 137.004C355.29 136.771 355.016 136.658 354.75 136.715C352.586 137.166 350.252 137.189 347.923 136.666C339.456 134.765 334.087 126.572 336.035 117.894C337.983 109.217 346.339 104.105 354.806 106.006C363.273 107.907 368.643 116.1 366.694 124.778C365.906 128.29 364.061 131.206 361.575 133.322C361.335 133.522 361.271 133.866 361.433 134.13L361.44 134.125ZM350.888 129.283L348.608 125.441C348.424 125.132 348.533 124.734 348.844 124.563L353.539 121.967C353.837 121.8 354.217 121.905 354.392 122.198L357.202 126.953C357.433 127.344 357.991 127.378 358.261 127.016C359.037 125.967 359.63 124.714 359.957 123.258C361.139 117.994 358.133 113.649 353.332 112.572C348.532 111.494 343.957 114.136 342.775 119.401C341.593 124.666 344.6 129.01 349.4 130.088C349.685 130.152 349.966 130.202 350.25 130.24C350.781 130.313 351.156 129.741 350.882 129.282L350.888 129.283Z" fill="#FCF9CA"/>
<path d="M392.955 124.681L388.505 144.502C388.429 144.842 388.087 145.058 387.747 144.982L382.618 143.831C382.302 143.76 382.105 143.449 382.176 143.133C382.282 142.662 381.793 142.26 381.36 142.481C379.928 143.207 378.045 143.422 375.896 142.939C371.641 141.984 368.705 138.137 369.981 132.451L372.744 120.144C372.821 119.803 373.162 119.587 373.503 119.663L378.582 120.804C378.923 120.88 379.139 121.222 379.062 121.562L376.506 132.946C375.92 135.56 377.287 137.149 379.312 137.604C381.629 138.124 383.53 137.132 384.2 134.147L386.642 123.27C386.719 122.93 387.06 122.714 387.401 122.79L392.48 123.93C392.82 124.007 393.036 124.348 392.96 124.689L392.955 124.681Z" fill="#FCF9CA"/>
<path d="M405.884 143.745C407.426 144.091 408.883 143.859 409.924 143.279C410.155 143.149 410.443 143.201 410.638 143.374L414.15 146.596C414.448 146.865 414.414 147.332 414.098 147.58C411.486 149.596 408.246 150.202 404.53 149.368C397.327 147.751 393.954 141.906 395.363 135.632C396.772 129.357 402.405 125.534 409.064 127.029C415.214 128.41 418.693 134.188 417.265 140.549C417.107 141.249 416.906 141.913 416.65 142.532C416.534 142.818 416.226 142.97 415.923 142.902L402.488 139.886C401.999 139.776 401.572 140.259 401.753 140.729C402.392 142.401 403.945 143.31 405.884 143.745ZM410.597 136.749C411.061 136.853 411.462 136.429 411.352 135.962C410.899 134.012 409.406 132.981 407.771 132.614C405.715 132.152 404.046 132.688 402.936 134.124C402.66 134.485 402.874 135.008 403.314 135.107L410.598 136.742L410.597 136.749ZM411.274 125.268L406.567 124.211C406.09 124.104 405.908 123.523 406.237 123.161L409.946 119.101C410.101 118.934 410.331 118.862 410.554 118.912L416.457 120.238C416.984 120.356 417.131 121.033 416.706 121.361L411.801 125.152C411.652 125.268 411.46 125.31 411.274 125.268Z" fill="#FCF9CA"/>
<path d="M272.349 151.5C273.892 151.847 275.349 151.614 276.39 151.035C276.621 150.904 276.909 150.956 277.104 151.13L280.616 154.352C280.914 154.62 280.88 155.088 280.564 155.335C277.952 157.351 274.712 157.958 270.996 157.123C263.792 155.506 260.42 149.661 261.829 143.387C263.238 137.113 268.871 133.29 275.53 134.785C281.68 136.165 285.158 141.943 283.73 148.304C283.573 149.004 283.366 149.667 283.116 150.287C283 150.573 282.692 150.726 282.389 150.657L268.954 147.641C268.465 147.531 268.038 148.014 268.218 148.484C268.858 150.157 270.411 151.065 272.349 151.5ZM277.062 144.504C277.527 144.608 277.928 144.184 277.818 143.717C277.365 141.768 275.872 140.736 274.237 140.369C272.18 139.908 270.512 140.444 269.402 141.88C269.126 142.241 269.34 142.764 269.78 142.862L277.064 144.498L277.062 144.504Z" fill="#FCF9CA"/>
<path d="M311.988 144.239L305.647 172.483C305.57 172.823 305.229 173.039 304.888 172.963L299.809 171.823C299.469 171.746 299.253 171.405 299.329 171.064L301.204 162.715C301.32 162.195 300.795 161.784 300.315 162.008C298.765 162.74 296.885 162.942 294.673 162.446C289.155 161.207 285.696 155.343 287.104 149.068C288.513 142.794 294.147 138.971 299.666 140.21C301.92 140.716 303.559 141.735 304.645 143.097C304.95 143.478 305.555 143.334 305.66 142.864L305.68 142.777C305.751 142.461 306.062 142.264 306.378 142.335L311.506 143.486C311.847 143.563 312.063 143.904 311.987 144.245L311.988 144.239ZM303.445 152.73C304.154 149.571 302.494 147.117 299.589 146.464C296.684 145.812 294.133 147.321 293.424 150.48C292.714 153.639 294.377 156.088 297.282 156.74C300.187 157.392 302.737 155.883 303.445 152.73Z" fill="#FCF9CA"/>
<path d="M337.593 149.987L333.143 169.808C333.067 170.148 332.726 170.364 332.385 170.288L327.256 169.136C326.941 169.066 326.744 168.755 326.815 168.439C326.92 167.968 326.432 167.565 325.998 167.787C324.566 168.513 322.683 168.728 320.534 168.245C316.279 167.29 313.343 163.443 314.62 157.757L317.383 145.45C317.459 145.109 317.8 144.893 318.141 144.969L323.22 146.11C323.561 146.186 323.777 146.527 323.7 146.868L321.145 158.252C320.558 160.866 321.925 162.455 323.951 162.91C326.267 163.43 328.168 162.438 328.838 159.453L331.28 148.576C331.357 148.236 331.698 148.02 332.039 148.096L337.118 149.236C337.458 149.313 337.675 149.654 337.598 149.995L337.593 149.987Z" fill="#FCF9CA"/>
<path d="M344.465 147.75C342.234 143.196 347.968 139.565 351.133 143.522C351.168 143.569 351.202 143.622 351.229 143.673C353.46 148.227 347.726 151.859 344.561 147.902C344.526 147.855 344.492 147.802 344.465 147.75ZM344.038 150.783L349.117 151.924C349.457 152 349.673 152.341 349.597 152.682L345.147 172.502C345.071 172.843 344.729 173.059 344.389 172.983L339.31 171.843C338.969 171.766 338.753 171.425 338.829 171.084L343.279 151.264C343.356 150.923 343.697 150.707 344.038 150.783Z" fill="#FCF9CA"/>
<path d="M375.715 168.956C374.306 175.23 368.673 179.053 363.154 177.814C360.943 177.317 359.336 176.332 358.241 175.006C357.903 174.599 357.252 174.745 357.135 175.265L355.261 183.615C355.184 183.955 354.843 184.172 354.502 184.095L349.424 182.955C349.083 182.878 348.867 182.537 348.943 182.196L355.284 153.952C355.361 153.612 355.702 153.396 356.043 153.472L361.171 154.624C361.487 154.694 361.684 155.005 361.613 155.321L361.594 155.408C361.487 155.885 361.973 156.267 362.412 156.054C363.982 155.287 365.893 155.066 368.148 155.572C373.666 156.811 377.125 162.675 375.716 168.949L375.715 168.956ZM369.397 167.537C370.107 164.378 368.446 161.923 365.541 161.271C362.636 160.619 360.085 162.128 359.376 165.287C358.666 168.446 360.329 170.895 363.234 171.547C366.139 172.199 368.69 170.69 369.397 167.537Z" fill="#FCF9CA"/>
<path d="M404.177 164.936L399.727 184.756C399.651 185.097 399.31 185.313 398.969 185.237L393.84 184.085C393.525 184.014 393.328 183.703 393.399 183.387L393.418 183.301C393.525 182.824 393.038 182.441 392.6 182.655C391.029 183.421 389.119 183.643 386.864 183.137C381.345 181.898 377.887 176.034 379.295 169.759C380.704 163.485 386.338 159.662 391.856 160.901C394.111 161.407 395.749 162.426 396.836 163.789C397.141 164.169 397.745 164.025 397.851 163.555L397.871 163.468C397.942 163.152 398.253 162.955 398.568 163.026L403.697 164.177C404.038 164.254 404.254 164.595 404.177 164.936ZM395.641 173.429C396.35 170.27 394.689 167.815 391.784 167.163C388.879 166.511 386.328 168.02 385.619 171.179C384.91 174.338 386.572 176.787 389.477 177.439C392.382 178.091 394.933 176.582 395.641 173.429Z" fill="#FCF9CA"/>
<path d="M422.675 185.015L421.629 189.673C421.552 190.014 421.211 190.23 420.871 190.154L405.262 186.649C404.921 186.573 404.705 186.232 404.782 185.891L405.542 182.503C405.572 182.373 405.644 182.252 405.742 182.164L415.072 173.96C415.462 173.617 415.294 172.975 414.792 172.862L409.087 171.581C408.747 171.505 408.531 171.164 408.607 170.823L409.653 166.165C409.729 165.824 410.071 165.608 410.411 165.685L425.177 169C425.518 169.076 425.734 169.418 425.658 169.758L424.897 173.146C424.868 173.276 424.795 173.397 424.697 173.485L415.367 181.69C414.978 182.032 415.146 182.675 415.647 182.787L422.194 184.257C422.535 184.334 422.751 184.675 422.675 185.015Z" fill="#FCF9CA"/>
<path d="M426.387 180.332C427.795 174.057 433.85 170.329 440.044 171.72C446.238 173.11 450.118 179.069 448.709 185.343C447.301 191.618 441.246 195.346 435.052 193.956C428.858 192.565 424.978 186.606 426.387 180.332ZM442.385 183.924C443.057 180.932 441.395 178.483 438.657 177.869C435.919 177.254 433.369 178.763 432.698 181.749C432.028 184.734 433.689 187.189 436.427 187.804C439.164 188.418 441.715 186.909 442.385 183.924Z" fill="#FCF9CA"/>
<path d="M451.735 196.472C449.443 191.611 455.404 187.836 458.819 191.985C458.86 192.034 458.892 192.093 458.92 192.145C461.194 196.995 455.254 200.762 451.836 196.631C451.795 196.583 451.762 196.523 451.735 196.472ZM455.504 175.77L457.248 168.003C457.325 167.662 457.666 167.446 458.007 167.522L464.349 168.946C464.69 169.023 464.906 169.364 464.829 169.705L463.086 177.472C463.086 177.472 463.074 177.521 463.069 177.546L459.64 187.225C459.534 187.526 459.214 187.702 458.905 187.633L454.953 186.745C454.637 186.674 454.43 186.381 454.462 186.063L455.5 175.847C455.5 175.847 455.511 175.797 455.517 175.773L455.504 175.77Z" fill="#FCF9CA"/>
<path d="M405.315 72.122C401.614 69.912 397.621 68.1957 393.473 67.0237C393.016 62.6271 392.557 58.2366 392.094 53.8386C391.966 52.6127 391.634 51.133 390.457 50.7841C389.193 50.4157 388.082 51.6561 387.377 52.7665C384.979 56.5483 382.954 60.5567 381.316 64.7236C377.456 64.267 373.603 63.8117 369.743 63.3551C369.167 63.2843 368.569 63.2217 368.008 63.3754C367.446 63.5291 366.919 63.9638 366.841 64.5448C366.739 65.2572 367.316 65.8747 367.844 66.364C370.345 68.7016 372.845 71.0391 375.341 73.3691C374.037 76.3944 372.87 79.4766 371.837 82.6017C371.432 83.825 371.074 85.2474 371.783 86.3176C372.415 87.2726 373.725 87.5798 374.842 87.3557C375.966 87.133 376.945 86.481 377.895 85.8421C380.102 84.3596 382.31 82.871 384.516 81.3885C385.632 84.5927 387.22 87.6299 389.242 90.3609C389.861 91.1961 390.721 92.0917 391.752 91.9328C392.797 91.7705 393.342 90.6177 393.659 89.609C394.832 85.8907 395.348 81.9726 395.181 78.0772C398.102 77.2104 401.021 76.3499 403.942 75.4832C404.326 75.3677 404.726 75.2364 405.107 75.0747C406.359 74.5424 406.485 72.8207 405.315 72.122Z" fill="#FAB31B"/>
<path d="M313.18 109.718C309.905 106.92 306.252 104.558 302.358 102.715C302.64 98.3018 302.92 93.8951 303.208 89.4835C303.288 88.2588 303.206 86.7376 302.105 86.1975C300.92 85.6193 299.613 86.6596 298.736 87.6402C295.744 90.9697 293.073 94.5794 290.767 98.4144C287.038 97.317 283.314 96.2272 279.586 95.1298C279.024 94.9647 278.45 94.7968 277.871 94.8554C277.292 94.9141 276.701 95.2564 276.525 95.8089C276.306 96.4949 276.766 97.1968 277.204 97.77C279.279 100.494 281.35 103.21 283.425 105.933C281.633 108.699 279.968 111.539 278.429 114.453C277.829 115.587 277.233 116.937 277.758 118.109C278.219 119.156 279.462 119.675 280.601 119.645C281.741 119.608 282.817 119.134 283.86 118.659C286.286 117.564 288.711 116.469 291.13 115.373C291.693 118.719 292.756 121.983 294.289 125.008C294.758 125.933 295.457 126.962 296.502 126.975C297.56 126.985 298.288 125.945 298.766 125.005C300.54 121.538 301.707 117.76 302.197 113.895C305.219 113.533 308.249 113.165 311.271 112.803C311.666 112.755 312.083 112.692 312.489 112.595C313.815 112.281 314.224 110.603 313.186 109.72L313.18 109.718Z" fill="#FAB31B"/>
<path d="M329.368 214.704C326.013 211.999 322.297 209.746 318.354 208.009C318.512 203.594 318.67 199.18 318.824 194.757C318.865 193.53 318.744 192.013 317.621 191.508C316.422 190.965 315.147 192.039 314.296 193.045C311.397 196.454 308.831 200.145 306.635 204.044C302.881 203.058 299.123 202.065 295.369 201.079C294.803 200.932 294.225 200.783 293.649 200.855C293.073 200.928 292.492 201.285 292.327 201.847C292.125 202.543 292.608 203.231 293.062 203.788C295.21 206.45 297.365 209.113 299.514 211.768C297.802 214.585 296.216 217.475 294.759 220.428C294.188 221.581 293.636 222.94 294.187 224.105C294.677 225.139 295.935 225.623 297.075 225.56C298.216 225.491 299.28 224.982 300.309 224.484C302.697 223.322 305.093 222.156 307.482 220.994C308.139 224.323 309.294 227.555 310.909 230.533C311.407 231.445 312.137 232.455 313.176 232.434C314.233 232.418 314.934 231.353 315.389 230.401C317.063 226.886 318.121 223.07 318.504 219.194C321.519 218.745 324.528 218.295 327.544 217.847C327.941 217.786 328.354 217.716 328.756 217.605C330.072 217.25 330.438 215.562 329.373 214.712L329.368 214.704Z" fill="#FAB31B"/>
<path d="M471.155 135.212C467.17 133.575 462.968 132.469 458.692 131.925C457.591 127.644 456.482 123.368 455.381 119.087C455.075 117.9 454.522 116.481 453.304 116.311C451.998 116.129 451.086 117.525 450.549 118.731C448.738 122.827 447.325 127.09 446.326 131.452C442.442 131.569 438.563 131.694 434.678 131.811C434.095 131.829 433.498 131.851 432.963 132.089C432.428 132.327 431.977 132.831 431.982 133.417C431.989 134.141 432.646 134.659 433.243 135.073C436.06 137.013 438.878 138.954 441.695 140.894C440.857 144.076 440.153 147.301 439.6 150.547C439.381 151.812 439.241 153.277 440.1 154.231C440.866 155.08 442.207 155.192 443.283 154.802C444.359 154.413 445.232 153.627 446.076 152.853C448.041 151.056 449.998 149.264 451.963 147.467C453.539 150.475 455.566 153.24 457.962 155.639C458.694 156.376 459.683 157.131 460.676 156.821C461.685 156.501 462.054 155.289 462.219 154.239C462.823 150.387 462.754 146.435 462.018 142.613C464.779 141.327 467.54 140.041 470.303 138.748C470.665 138.582 471.04 138.393 471.395 138.173C472.557 137.459 472.423 135.737 471.166 135.22L471.155 135.212Z" fill="#FAB31B"/>
<path d="M415.406 224.489C411.513 222.646 407.374 221.319 403.128 220.555C402.246 216.225 401.371 211.891 400.489 207.562C400.246 206.356 399.77 204.909 398.559 204.682C397.267 204.438 396.277 205.777 395.681 206.951C393.66 210.941 392.029 215.135 390.803 219.434C386.919 219.349 383.039 219.272 379.155 219.187C378.572 219.173 377.976 219.163 377.428 219.372C376.88 219.58 376.401 220.065 376.374 220.645C376.343 221.366 376.972 221.924 377.545 222.358C380.258 224.444 382.972 226.524 385.685 228.61C384.682 231.748 383.811 234.929 383.091 238.138C382.809 239.395 382.587 240.848 383.398 241.844C384.115 242.733 385.448 242.909 386.543 242.582C387.639 242.249 388.555 241.505 389.434 240.778C391.486 239.086 393.538 237.393 395.595 235.708C397.01 238.791 398.891 241.659 401.16 244.185C401.858 244.96 402.803 245.764 403.812 245.503C404.834 245.238 405.266 244.04 405.484 243.009C406.288 239.195 406.427 235.244 405.889 231.383C408.715 230.241 411.535 229.098 414.361 227.956C414.733 227.806 415.116 227.638 415.479 227.44C416.679 226.792 416.637 225.065 415.402 224.481L415.406 224.489Z" fill="#FAB31B"/>
<path d="M286.455 198.765C286.139 198.694 285.855 198.507 285.668 198.211C279.98 189.38 276.181 179.64 274.366 169.266C274.248 168.575 274.708 167.917 275.398 167.799C276.088 167.681 276.746 168.141 276.864 168.831C278.618 178.873 282.293 188.293 287.797 196.841C288.178 197.434 288.009 198.216 287.416 198.597C287.119 198.79 286.769 198.842 286.453 198.771L286.455 198.765Z" fill="#FAB31B"/>
<path d="M345.18 237.908C339.37 236.604 333.651 234.806 328.135 232.54C327.487 232.271 327.178 231.531 327.447 230.882C327.716 230.234 328.45 229.923 329.104 230.194C343.185 235.984 358.549 238.607 373.545 237.797C374.249 237.76 374.845 238.297 374.883 238.995C374.921 239.693 374.383 240.294 373.685 240.333C364.201 240.845 354.569 240.016 345.192 237.911L345.18 237.908Z" fill="#FAB31B"/>
<path d="M423.051 221.853C422.784 221.793 422.531 221.645 422.349 221.415C421.904 220.873 421.987 220.072 422.529 219.628C428.417 214.814 433.564 209.106 437.822 202.658C438.207 202.074 438.998 201.914 439.581 202.298C440.165 202.683 440.326 203.474 439.941 204.058C435.543 210.721 430.224 216.619 424.137 221.596C423.825 221.851 423.422 221.936 423.051 221.853Z" fill="#FAB31B"/>
<path d="M441.59 111.313C441.237 111.234 440.923 111.007 440.741 110.661C435.02 99.7471 426.778 90.148 416.241 82.1352C415.686 81.7113 415.573 80.9116 415.997 80.3562C416.421 79.8008 417.22 79.6875 417.776 80.1115C428.612 88.3543 437.096 98.2354 442.99 109.48C443.313 110.099 443.076 110.866 442.456 111.195C442.176 111.341 441.87 111.369 441.591 111.307L441.59 111.313Z" fill="#FAB31B"/>
<path d="M308.948 81.3059C308.657 81.2405 308.388 81.0761 308.2 80.8126C307.787 80.2451 307.913 79.4535 308.48 79.041C321.989 69.2373 338.74 63.6815 356.927 62.9761C357.63 62.9452 358.216 63.4932 358.247 64.1963C358.271 64.898 357.73 65.4855 357.026 65.5163C339.345 66.2049 323.074 71.589 309.976 81.1009C309.666 81.324 309.293 81.39 308.952 81.3135L308.948 81.3059Z" fill="#FAB31B"/>
</g>
<g clip-path="url(#clip1_3_2)">
<path d="M128.029 330.189C198.738 334.414 259.483 280.518 263.708 209.81C267.933 139.101 214.037 78.3553 143.328 74.1305C72.6193 69.9058 11.8737 123.802 7.64899 194.51C3.42424 265.219 57.3201 325.965 128.029 330.189Z" fill="#FFB9CD"/>
<path d="M115.317 178.439C108.149 176.27 103.02 172.102 97.4737 167.306C99.3815 161.182 101.289 155.058 103.203 148.934C108.75 153.737 113.872 157.898 121.047 160.067C119.139 166.191 117.231 172.315 115.317 178.439Z" fill="#342E2E"/>
<path d="M135.53 181.953C128.669 181.312 121.89 180.682 115.317 178.439C117.225 172.315 119.132 166.191 121.047 160.067C127.626 162.311 134.398 162.94 141.26 163.581L135.53 181.953Z" fill="#FCF9CA"/>
<path d="M156.537 182.932C149.536 182.578 142.531 182.307 135.53 181.959L141.259 163.588C148.26 163.942 155.266 164.213 162.267 164.56C160.359 170.684 158.451 176.808 156.537 182.932Z" fill="#342E2E"/>
<path d="M176.756 186.446C170.177 184.203 163.405 183.574 156.543 182.932C158.451 176.808 160.359 170.684 162.273 164.561C169.134 165.202 175.913 165.832 182.486 168.075C180.578 174.199 178.67 180.323 176.756 186.446Z" fill="#FCF9CA"/>
<path d="M194.593 197.579C189.047 192.776 183.925 188.616 176.75 186.446C178.658 180.322 180.565 174.198 182.479 168.074C189.231 170.122 194.175 173.932 199.363 178.386C199.944 178.883 200.172 179.687 199.948 180.418C198.168 186.139 196.38 191.865 194.599 197.586L194.593 197.579Z" fill="#342E2E"/>
<path d="M109.587 196.811C102.419 194.641 97.2907 190.474 91.744 185.678C93.6517 179.554 95.5595 173.43 97.4736 167.306C103.02 172.109 108.142 176.269 115.317 178.439C113.409 184.563 111.501 190.687 109.587 196.811Z" fill="#FCF9CA"/>
<path d="M129.807 200.325C122.945 199.684 116.167 199.054 109.594 196.811C111.502 190.687 113.409 184.563 115.323 178.439C121.903 180.683 128.675 181.312 135.536 181.953C133.629 188.077 131.721 194.201 129.807 200.325Z" fill="#342E2E"/>
<path d="M150.814 201.304C143.813 200.95 136.807 200.679 129.806 200.331C131.714 194.207 133.622 188.083 135.536 181.96C142.537 182.314 149.542 182.585 156.543 182.932C154.635 189.056 152.728 195.18 150.814 201.304Z" fill="#FCF9CA"/>
<path d="M171.027 204.818C164.447 202.575 157.675 201.945 150.814 201.304C152.721 195.18 154.629 189.056 156.543 182.932C163.405 183.573 170.183 184.203 176.756 186.446C174.848 192.57 172.941 198.694 171.027 204.818Z" fill="#342E2E"/>
<path d="M188.87 215.951C183.323 211.148 178.201 206.988 171.026 204.818C172.934 198.694 174.842 192.57 176.756 186.446C183.925 188.616 189.053 192.783 194.599 197.579C192.692 203.703 190.784 209.828 188.87 215.951Z" fill="#FCF9CA"/>
<path d="M103.864 215.183C96.6957 213.014 91.5676 208.846 86.0208 204.05C87.9286 197.926 89.8363 191.802 91.7505 185.678C97.2968 190.481 102.419 194.641 109.594 196.811C107.686 202.935 105.778 209.059 103.864 215.183Z" fill="#342E2E"/>
<path d="M124.077 218.697C117.216 218.055 110.437 217.426 103.864 215.183C105.772 209.059 107.68 202.935 109.594 196.811C116.173 199.054 122.945 199.684 129.807 200.325C127.899 206.449 125.991 212.573 124.077 218.697Z" fill="#FCF9CA"/>
<path d="M145.084 219.676C138.083 219.322 131.078 219.051 124.077 218.703C125.985 212.579 127.892 206.455 129.806 200.331C136.807 200.685 143.813 200.956 150.814 201.304C148.906 207.428 146.998 213.552 145.084 219.676Z" fill="#342E2E"/>
<path d="M165.303 223.19C158.724 220.947 151.952 220.318 145.09 219.676C146.998 213.552 148.906 207.428 150.82 201.305C157.681 201.946 164.46 202.576 171.033 204.819C169.125 210.943 167.218 217.067 165.303 223.19Z" fill="#FCF9CA"/>
<path d="M183.14 234.323C177.594 229.52 172.472 225.36 165.297 223.19C167.205 217.066 169.112 210.942 171.027 204.818C178.195 206.988 183.323 211.155 188.87 215.951C186.962 222.075 185.054 228.199 183.14 234.323Z" fill="#342E2E"/>
<path d="M98.1344 233.554C90.966 231.385 85.8378 227.218 80.2911 222.421C82.1989 216.297 84.1066 210.173 86.0207 204.05C91.5671 208.852 96.6892 213.013 103.864 215.183C101.956 221.307 100.049 227.431 98.1344 233.554Z" fill="#FCF9CA"/>
<path d="M118.347 237.069C111.486 236.428 104.707 235.798 98.1344 233.555C100.042 227.431 101.95 221.307 103.864 215.183C110.443 217.426 117.216 218.056 124.077 218.697C122.169 224.821 120.261 230.945 118.347 237.069Z" fill="#342E2E"/>
<path d="M139.361 238.048C132.36 237.694 125.354 237.423 118.353 237.075C120.261 230.951 122.169 224.827 124.083 218.703C131.084 219.057 138.089 219.328 145.09 219.676C143.183 225.8 141.275 231.924 139.361 238.048Z" fill="#FCF9CA"/>
<path d="M159.574 241.562C152.994 239.319 146.222 238.689 139.361 238.048C141.268 231.924 143.176 225.8 145.09 219.676C151.952 220.317 158.73 220.947 165.303 223.19C163.396 229.314 161.488 235.438 159.574 241.562Z" fill="#342E2E"/>
<path d="M175.205 250.803C170.464 246.813 165.783 243.443 159.574 241.562C161.482 235.438 163.389 229.314 165.303 223.19C172.472 225.36 177.6 229.527 183.147 234.323C181.526 239.52 179.905 244.717 178.29 249.908C177.878 251.226 176.263 251.688 175.211 250.803L175.205 250.803Z" fill="#FCF9CA"/>
<path d="M167.05 203.649C162.674 217.527 146.569 224.936 132.884 224.632C118.724 224.32 109.262 211.619 113.565 197.98C117.941 184.101 134.046 176.693 147.731 176.996C161.891 177.309 171.346 190.016 167.05 203.649Z" fill="#FAB31B"/>
<path d="M134.847 194.581C134.41 195.975 132.766 197.039 131.185 196.938C129.598 196.837 128.677 195.593 129.113 194.2C129.55 192.806 131.178 191.786 132.759 191.886C134.34 191.987 135.284 193.181 134.847 194.574L134.847 194.581Z" fill="#342E2E"/>
<path d="M155.211 195.56C154.774 196.954 153.146 197.974 151.565 197.873C149.978 197.772 149.04 196.579 149.477 195.185C149.914 193.792 151.558 192.727 153.138 192.828C154.719 192.929 155.647 194.173 155.21 195.566L155.211 195.56Z" fill="#342E2E"/>
<path d="M125.379 202.405C124.958 203.749 124.802 205.069 124.875 206.32C125.152 211.463 129.425 215.329 135.69 215.626C141.353 215.894 148.627 212.531 151.861 207.752C152.683 206.574 153.337 205.309 153.758 203.96" stroke="#342E2E" stroke-width="3" stroke-miterlimit="10" stroke-linecap="round"/>
<path d="M104.079 145.781C103.348 145.551 102.567 145.62 101.883 145.977C101.2 146.335 100.695 146.941 100.465 147.672L56.2345 274.858C55.7582 276.378 56.6059 277.996 58.1257 278.473C58.2899 278.521 58.4544 278.563 58.6204 278.579C58.6909 278.584 58.7545 278.594 58.8249 278.598C60.1372 278.676 61.349 277.856 61.7468 276.575L105.977 149.389C106.454 147.869 105.6 146.251 104.086 145.775L104.079 145.781Z" fill="#342E2E"/>
<path d="M81.797 261.308C81.5921 261.295 81.3812 261.386 81.2485 261.564L79.1691 264.324C78.953 264.607 79.0126 265.009 79.2952 265.225L82.7012 267.786C82.9838 268.002 83.0433 268.404 82.8273 268.686L73.4903 281.093C73.2742 281.375 73.3337 281.777 73.6163 281.993L76.5305 284.185C76.6352 284.262 76.7545 284.307 76.8761 284.315C77.081 284.327 77.2919 284.237 77.4247 284.058L86.7617 271.652C86.8944 271.473 87.1054 271.383 87.3102 271.396C87.4318 271.403 87.5515 271.442 87.6558 271.525L91.0618 274.087C91.1665 274.164 91.2858 274.209 91.4074 274.217C91.6123 274.229 91.8232 274.139 91.9559 273.96L94.0353 271.2C94.2514 270.917 94.1919 270.515 93.9092 270.299L82.1422 261.444C82.0376 261.367 81.9182 261.321 81.7966 261.314L81.797 261.308Z" fill="#119349"/>
<path d="M95.614 271.23C95.3644 271.215 95.1187 271.348 95.0014 271.592L86.1079 289.8C85.954 290.118 86.085 290.505 86.4035 290.659L97.421 296.039C97.5023 296.076 97.5843 296.101 97.6612 296.105C97.9108 296.12 98.1565 295.987 98.2738 295.743L99.7894 292.635C99.9433 292.316 99.8123 291.929 99.4938 291.775L92.9022 288.555C92.5837 288.401 92.4526 288.014 92.6066 287.696L93.7192 285.417C93.8362 285.18 94.0822 285.041 94.3319 285.056C94.4151 285.061 94.4975 285.078 94.5721 285.121L100.333 287.939C100.415 287.976 100.497 288 100.574 288.005C100.823 288.02 101.069 287.887 101.186 287.643L102.679 284.591C102.833 284.272 102.702 283.885 102.384 283.731L96.6223 280.914C96.3038 280.76 96.1727 280.373 96.3267 280.055L97.3295 278.001C97.4465 277.764 97.6925 277.624 97.9422 277.639C98.0254 277.644 98.1078 277.662 98.1824 277.705L104.637 280.859C104.718 280.896 104.8 280.921 104.877 280.925C105.126 280.94 105.372 280.807 105.489 280.564L107.005 277.455C107.159 277.136 107.028 276.749 106.709 276.596L95.8294 271.281C95.7481 271.244 95.666 271.22 95.5892 271.216L95.614 271.23Z" fill="#119349"/>
<path d="M114.519 278.996C114.289 278.982 114.064 279.091 113.936 279.295L102.512 297.391C102.277 297.762 102.479 298.256 102.904 298.359L106.811 299.299C106.849 299.308 106.887 299.316 106.926 299.319C107.163 299.333 107.388 299.218 107.509 299.013L108.864 296.775C108.985 296.57 109.217 296.455 109.447 296.469C109.486 296.471 109.524 296.474 109.562 296.489L116.433 298.139C116.706 298.207 116.904 298.437 116.926 298.715L117.117 301.322C117.139 301.599 117.337 301.836 117.609 301.897L121.523 302.838C121.561 302.846 121.6 302.855 121.638 302.857C122.022 302.88 122.35 302.553 122.316 302.159L120.338 280.847C120.316 280.576 120.118 280.346 119.852 280.285L114.639 279.035C114.601 279.027 114.563 279.018 114.525 279.016L114.519 278.996ZM115.796 293.212C115.758 293.21 115.719 293.208 115.682 293.193L112.477 292.423C112.053 292.32 111.85 291.839 112.078 291.468L114.88 286.836C115.015 286.606 115.246 286.517 115.463 286.53C115.758 286.548 116.04 286.764 116.07 287.125L116.467 292.526C116.495 292.92 116.168 293.234 115.79 293.212L115.796 293.212Z" fill="#119349"/>
<path d="M148.229 281.447C148.229 281.447 148.191 281.445 148.172 281.444L144.252 281.569C144.026 281.575 143.826 281.698 143.712 281.89L138.866 290.422C138.737 290.651 138.499 290.759 138.268 290.746C138.076 290.734 137.889 290.639 137.772 290.459L132.396 282.255C132.284 282.088 132.098 281.98 131.899 281.968C131.88 281.967 131.861 281.966 131.842 281.965L127.916 282.09C127.562 282.101 127.287 282.4 127.298 282.754L127.938 303.009C127.95 303.344 128.21 303.61 128.537 303.629C128.556 303.631 128.575 303.632 128.594 303.633L132.237 303.517C132.591 303.506 132.866 303.207 132.855 302.853L132.548 293.256C132.535 292.831 132.891 292.576 133.237 292.597C133.422 292.608 133.603 292.696 133.727 292.89L138.336 299.936L138.89 299.918L143.041 292.592C143.177 292.356 143.408 292.254 143.632 292.267C143.939 292.286 144.227 292.515 144.237 292.888L144.544 302.485C144.556 302.82 144.816 303.086 145.143 303.106C145.162 303.107 145.181 303.108 145.2 303.109L148.843 302.993C149.197 302.982 149.479 302.684 149.461 302.329L148.821 282.074C148.809 281.739 148.549 281.473 148.222 281.453L148.229 281.447Z" fill="#119349"/>
<path d="M169.876 274.402C169.786 274.396 169.696 274.41 169.61 274.444L158.574 278.615C158.245 278.743 158.076 279.112 158.204 279.441L165.365 298.397C165.46 298.64 165.682 298.795 165.925 298.809C166.015 298.815 166.105 298.801 166.191 298.767L169.596 297.48C169.924 297.352 170.094 296.983 169.966 296.654L167.625 290.456C167.497 290.128 167.667 289.752 167.996 289.631L174.279 287.256C174.608 287.128 174.778 286.759 174.65 286.431L173.43 283.197C173.335 282.953 173.113 282.799 172.87 282.784C172.78 282.779 172.69 282.793 172.604 282.826L166.32 285.2C166.235 285.234 166.144 285.248 166.055 285.242C165.811 285.228 165.583 285.073 165.495 284.83L164.48 282.142C164.351 281.813 164.522 281.438 164.85 281.316L171.278 278.886C171.607 278.758 171.777 278.389 171.649 278.06L170.429 274.827C170.334 274.583 170.112 274.429 169.869 274.414L169.876 274.402Z" fill="#119349"/>
<path d="M182.944 266.651C182.815 266.643 182.685 266.674 182.572 266.744L172.255 273.079C171.955 273.267 171.86 273.659 172.042 273.959L182.644 291.225C182.755 291.412 182.948 291.52 183.153 291.532C183.281 291.54 183.411 291.509 183.525 291.438L193.975 285.022C194.275 284.834 194.369 284.441 194.188 284.142L192.379 281.194C192.268 281.007 192.076 280.9 191.871 280.887C191.743 280.88 191.612 280.91 191.499 280.981L185.25 284.822C185.136 284.892 185.006 284.923 184.878 284.915C184.673 284.903 184.481 284.795 184.37 284.609L183.047 282.448C182.859 282.148 182.954 281.749 183.26 281.568L188.722 278.213C189.022 278.025 189.116 277.633 188.935 277.333L187.162 274.439C187.051 274.252 186.858 274.144 186.653 274.132C186.525 274.124 186.395 274.155 186.281 274.225L180.819 277.58C180.706 277.65 180.576 277.681 180.448 277.674C180.243 277.661 180.05 277.553 179.939 277.367L178.738 275.419C178.551 275.119 178.645 274.72 178.952 274.539L185.074 270.78C185.374 270.593 185.468 270.2 185.287 269.9L183.478 266.953C183.367 266.766 183.174 266.658 182.969 266.646L182.944 266.651Z" fill="#119349"/>
<path d="M188.098 262.205C187.932 262.195 187.762 262.249 187.632 262.37L184.923 264.81C184.659 265.045 184.641 265.455 184.876 265.713L198.437 280.772C198.551 280.901 198.714 280.975 198.874 280.985C199.034 280.994 199.211 280.941 199.34 280.82L207.766 273.235C208.03 273 208.048 272.59 207.813 272.332L205.5 269.759C205.386 269.63 205.223 269.556 205.063 269.547C204.897 269.537 204.726 269.591 204.597 269.711L199.831 274.001C199.695 274.121 199.531 274.176 199.365 274.166C199.199 274.156 199.042 274.082 198.928 273.953L188.542 262.418C188.427 262.289 188.265 262.215 188.105 262.205L188.098 262.205Z" fill="#119349"/>
<path d="M197.88 252.035C197.681 252.023 197.484 252.101 197.352 252.261L195.008 255.05C194.78 255.319 194.813 255.726 195.082 255.954L210.588 269.003C210.698 269.093 210.83 269.146 210.965 269.154C211.163 269.166 211.36 269.088 211.492 268.928L213.837 266.139C214.065 265.87 214.031 265.463 213.756 265.235L198.256 252.186C198.146 252.096 198.014 252.043 197.88 252.035Z" fill="#119349"/>
<path d="M207.202 238.054C206.971 238.04 206.746 238.148 206.618 238.359L199.709 249.587C199.524 249.891 199.616 250.282 199.92 250.467L202.863 252.281C202.956 252.338 203.057 252.37 203.159 252.376C203.39 252.39 203.615 252.281 203.743 252.07L207.037 246.717C207.172 246.5 207.397 246.398 207.621 246.411C207.839 246.424 208.05 246.546 208.158 246.771L214.304 259.389C214.355 259.501 214.44 259.59 214.545 259.654L217.092 261.22C217.185 261.277 217.286 261.308 217.388 261.314C217.619 261.328 217.844 261.22 217.972 261.009L225.044 249.521C225.229 249.217 225.137 248.826 224.833 248.641L221.89 246.827C221.797 246.77 221.696 246.738 221.594 246.732C221.364 246.718 221.139 246.827 221.01 247.038L217.553 252.651C217.418 252.868 217.193 252.97 216.969 252.957C216.745 252.944 216.54 252.822 216.432 252.597L210.286 239.979C210.235 239.867 210.15 239.778 210.045 239.714L207.498 238.148C207.405 238.091 207.304 238.06 207.202 238.054Z" fill="#119349"/>
<path d="M58.8062 180.96L58.2696 184.564C58.2166 184.914 57.8936 185.158 57.5434 185.105L48.0426 183.696C47.3994 183.6 47.0428 184.407 47.5384 184.822L54.0068 190.213L53.9291 190.761L46.1716 194.043C45.5718 194.296 45.6867 195.171 46.3298 195.267L55.8306 196.676C56.1808 196.729 56.4249 197.052 56.3719 197.402L55.8353 201.006C55.7823 201.357 55.4593 201.601 55.1092 201.548L35.0633 198.57C34.7131 198.517 34.469 198.194 34.522 197.844L35.101 193.96C35.1336 193.737 35.2795 193.553 35.4841 193.462L44.5142 189.633C44.9557 189.448 45.0425 188.856 44.6752 188.551L37.1491 182.262C36.9779 182.116 36.8945 181.899 36.9271 181.677L37.5061 177.792C37.5591 177.442 37.8821 177.198 38.2322 177.251L58.2781 180.228C58.6283 180.281 58.8724 180.604 58.8194 180.954L58.8062 180.96Z" fill="#342E2E"/>
<path d="M61.2675 164.494L64.4657 165.803C64.7916 165.938 64.9491 166.313 64.814 166.639L60.1784 177.991C60.0433 178.316 59.6677 178.474 59.3417 178.339L40.5846 170.672C40.2586 170.537 40.1012 170.161 40.2363 169.835L44.8183 158.629C44.9534 158.303 45.329 158.145 45.655 158.28L48.8532 159.589C49.1792 159.724 49.3366 160.1 49.2015 160.426L46.4851 167.073C46.35 167.399 46.5075 167.775 46.8335 167.91L48.9532 168.775C49.2792 168.911 49.6548 168.753 49.7899 168.427L52.2134 162.488C52.3485 162.162 52.7241 162.005 53.0501 162.14L56.1918 163.426C56.5178 163.561 56.6752 163.937 56.5401 164.263L54.1166 170.202C53.9815 170.528 54.139 170.903 54.4649 171.039L56.8105 171.995C57.1365 172.13 57.5121 171.972 57.6472 171.646L60.4236 164.855C60.5587 164.529 60.9343 164.371 61.2603 164.506L61.2675 164.494Z" fill="#342E2E"/>
<path d="M59.333 143.968L57.0066 147.529C56.8154 147.826 56.8945 148.223 57.1915 148.414L70.188 156.906C70.4849 157.098 70.5704 157.495 70.3728 157.791L68.3791 160.839C68.1879 161.136 67.7909 161.222 67.4943 161.024L54.4978 152.532C54.2008 152.341 53.8042 152.42 53.613 152.717L51.2866 156.278C51.0954 156.575 50.6984 156.661 50.4019 156.463L47.5081 154.575C47.2112 154.384 47.1257 153.987 47.3233 153.69L55.3768 141.368C55.568 141.071 55.965 140.985 56.2616 141.183L59.1553 143.071C59.4523 143.262 59.5378 143.659 59.3402 143.956L59.333 143.968Z" fill="#342E2E"/>
<path d="M79.3792 142.101L74.4207 147.137C74.2224 147.337 74.1788 147.637 74.3115 147.889L75.5288 150.204C75.6618 150.449 75.6115 150.755 75.4196 150.955L72.5953 153.819C72.2873 154.134 71.7591 154.051 71.5643 153.654L61.9661 134.521C61.8458 134.276 61.8894 133.977 62.0809 133.783L65.8422 129.966C66.0337 129.772 66.3324 129.719 66.5759 129.837L85.8447 139.153C86.2381 139.344 86.3287 139.87 86.0212 140.179L83.1968 143.043C82.9986 143.243 82.7003 143.289 82.4507 143.165L80.1189 141.978C79.8694 141.854 79.5647 141.9 79.3728 142.101L79.3792 142.101ZM74.6005 139.182L69.7679 136.735C69.213 136.451 68.6182 137.051 68.913 137.602L71.4339 142.398C71.6358 142.782 72.1516 142.858 72.4592 142.549L74.7709 140.201C75.0785 139.891 74.9938 139.372 74.6073 139.176L74.6005 139.182Z" fill="#342E2E"/>
<path d="M87.3878 126.018C84.6324 120.309 86.7637 113.884 92.618 111.06C95.899 109.476 99.5544 109.586 102.479 111.174C102.821 111.361 102.937 111.786 102.719 112.107L100.852 114.86C100.5 115.373 100.153 115.474 99.8733 115.322C98.3602 114.519 96.4833 114.535 94.7044 115.386C91.2647 117.044 90.1574 120.414 91.8263 123.88C93.4951 127.347 96.8263 128.58 100.26 126.922C102.032 126.071 103.231 124.607 103.536 122.942C103.594 122.618 103.883 122.397 104.209 122.423L107.522 122.679C108.213 122.733 108.468 123.089 108.406 123.471C107.852 126.733 105.659 129.66 102.346 131.255C96.4981 134.072 90.1425 131.74 87.3874 126.024L87.3878 126.018Z" fill="#342E2E"/>
<path d="M109.573 120.18L106.571 106.561C106.495 106.216 106.714 105.876 107.06 105.794L110.614 105.011C110.959 104.935 111.299 105.154 111.382 105.5L114.293 118.702C114.641 120.297 115.694 121.484 118.247 120.917C120.798 120.356 121.256 118.836 120.901 117.24L117.989 104.044C117.913 103.699 118.133 103.359 118.478 103.277L122.033 102.494C122.378 102.418 122.718 102.637 122.8 102.983L125.803 116.602C126.799 121.113 123.906 124.583 119.277 125.604C114.648 126.625 110.562 124.692 109.573 120.18Z" fill="#342E2E"/>
<path d="M149.713 124.031L146.075 123.852C145.723 123.831 145.452 123.532 145.466 123.179L145.936 113.59C145.969 112.943 145.131 112.662 144.765 113.199L140.038 120.17L139.487 120.137L135.464 112.746C135.151 112.175 134.291 112.374 134.259 113.021L133.789 122.61C133.768 122.962 133.469 123.233 133.116 123.219L129.478 123.04C129.126 123.019 128.855 122.72 128.869 122.368L129.86 102.126C129.881 101.774 130.18 101.503 130.533 101.517L134.453 101.707C134.677 101.72 134.875 101.841 134.986 102.04L139.681 110.653C139.913 111.072 140.502 111.101 140.777 110.706L146.292 102.594C146.418 102.409 146.63 102.306 146.854 102.313L150.775 102.502C151.127 102.523 151.398 102.822 151.383 103.174L150.392 123.416C150.371 123.768 150.073 124.039 149.72 124.025L149.713 124.031Z" fill="#342E2E"/>
<path d="M171.281 115.94C170.071 119.851 165.945 122.02 161.89 120.762L159.417 119.998C159.076 119.894 158.718 120.084 158.615 120.419L156.991 125.66C156.887 126.001 156.529 126.185 156.188 126.081L152.706 125.006C152.366 124.902 152.181 124.544 152.285 124.204L158.286 104.846C158.39 104.505 158.748 104.321 159.088 104.425L166.266 106.653C170.322 107.91 172.498 112.029 171.281 115.94ZM166.576 114.483C167.038 112.982 166.336 111.507 164.898 111.061L162.425 110.297C162.084 110.193 161.726 110.384 161.623 110.718L160.364 114.786C160.261 115.127 160.451 115.485 160.786 115.589L163.258 116.353C164.696 116.799 166.113 115.984 166.576 114.483Z" fill="#342E2E"/>
<path d="M181.159 132.539L179.525 135.59C179.359 135.901 178.966 136.019 178.655 135.853L168.657 130.501C168.346 130.335 168.228 129.942 168.395 129.631L177.961 111.765C178.128 111.454 178.52 111.336 178.832 111.502L182.044 113.223C182.355 113.389 182.473 113.782 182.306 114.093L174.974 127.782C174.808 128.093 174.926 128.486 175.237 128.652L180.889 131.682C181.201 131.848 181.319 132.241 181.152 132.552L181.159 132.539Z" fill="#342E2E"/>
<path d="M196.571 123.194L184.639 139.576C184.429 139.866 184.027 139.925 183.744 139.716L180.801 137.574C180.512 137.364 180.452 136.962 180.662 136.679L192.594 120.297C192.804 120.008 193.206 119.948 193.489 120.158L196.432 122.299C196.715 122.509 196.781 122.911 196.571 123.194Z" fill="#342E2E"/>
<path d="M207.572 147.667C203.17 151.881 196.664 151.859 192.552 147.566L187.03 141.807C186.782 141.548 186.794 141.144 187.052 140.903L201.683 126.879C201.942 126.631 202.346 126.642 202.588 126.901L208.109 132.659C212.221 136.952 211.974 143.452 207.572 147.673L207.572 147.667ZM204.295 144.239C206.96 141.681 207.035 138.377 204.688 135.93L202.578 133.729C202.33 133.47 201.925 133.465 201.673 133.707L193.884 141.17C193.626 141.418 193.621 141.822 193.863 142.074L195.973 144.275C198.313 146.721 201.624 146.791 204.289 144.233L204.295 144.239Z" fill="#342E2E"/>
<path d="M208.867 164.261L205.327 158.145C205.187 157.906 204.905 157.78 204.632 157.84L202.08 158.401C201.807 158.462 201.525 158.336 201.385 158.096L199.364 154.615C199.142 154.236 199.364 153.748 199.793 153.665L220.782 149.464C221.049 149.41 221.324 149.535 221.464 149.769L224.155 154.407C224.295 154.647 224.264 154.94 224.085 155.148L210.003 171.273C209.714 171.603 209.183 171.552 208.968 171.173L206.953 167.693C206.814 167.453 206.845 167.147 207.031 166.939L208.791 165.002C208.977 164.794 209.014 164.488 208.868 164.248L208.867 164.261ZM212.945 160.425L216.583 156.409C217.003 155.946 216.577 155.22 215.972 155.351L210.679 156.512C210.256 156.603 210.048 157.085 210.263 157.457L211.918 160.306C212.133 160.678 212.656 160.735 212.946 160.412L212.945 160.425Z" fill="#342E2E"/>
</g>
<g clip-path="url(#clip2_3_2)">
<path d="M281.028 505.484C354.575 519.368 425.453 471.001 439.337 397.453C453.221 323.905 404.854 253.028 331.307 239.143C257.759 225.259 186.881 273.626 172.997 347.174C159.113 420.722 207.48 491.6 281.028 505.484Z" fill="#FCF9CA"/>
<path d="M360.198 368.188C349.82 362.467 338.689 358.122 327.184 355.297C325.506 343.261 323.835 331.226 322.157 319.19C321.693 315.842 320.641 311.795 317.366 310.952C313.862 310.051 310.917 313.576 309.086 316.694C302.856 327.309 297.661 338.52 293.568 350.127C282.924 349.236 272.281 348.345 261.645 347.455C260.051 347.322 258.405 347.192 256.876 347.674C255.348 348.155 253.945 349.393 253.775 350.987C253.569 352.96 255.199 354.596 256.697 355.895C263.786 362.077 270.873 368.265 277.962 374.446C274.671 382.88 271.744 391.461 269.203 400.152C268.207 403.544 267.358 407.501 269.407 410.378C271.233 412.937 274.857 413.665 277.921 412.936C280.983 412.215 283.612 410.33 286.16 408.487C292.082 404.195 298.009 399.912 303.931 395.621C307.291 404.322 311.959 412.522 317.753 419.831C319.53 422.069 321.985 424.45 324.796 423.906C327.652 423.356 329.035 420.146 329.812 417.338C332.676 407.016 333.731 396.193 332.916 385.51C340.86 382.856 348.809 380.211 356.752 377.557C357.791 377.209 358.882 376.812 359.917 376.332C363.316 374.752 363.493 370.008 360.211 368.197L360.198 368.188Z" fill="#FAB31B"/>
<path d="M343.647 334.283C346.176 332.386 348.705 330.489 351.236 328.585C354.366 326.236 350.948 321.183 347.8 323.551C345.271 325.448 342.742 327.345 340.212 329.249C337.081 331.599 340.499 336.651 343.647 334.283Z" fill="#FAB31B"/>
<path d="M354.198 350.855C357.948 350.837 361.698 350.819 365.45 350.794C369.368 350.771 368.86 344.692 364.949 344.716C361.199 344.735 357.448 344.753 353.697 344.778C349.779 344.801 350.287 350.88 354.198 350.855Z" fill="#FAB31B"/>
<path d="M353.125 404.08C356.958 407.011 360.798 409.936 364.631 412.866C367.741 415.24 371.759 410.647 368.629 408.263C364.797 405.332 360.956 402.407 357.124 399.476C354.014 397.103 349.996 401.695 353.125 404.08Z" fill="#FAB31B"/>
<path d="M343.794 412.701C346.51 417.854 349.226 423.006 351.94 428.166C353.769 431.633 358.787 428.166 356.974 424.73C354.258 419.578 351.542 414.425 348.828 409.266C346.999 405.798 341.981 409.266 343.794 412.701Z" fill="#FAB31B"/>
<path d="M295.988 418.968C296.302 423.108 296.61 427.247 296.925 431.387C297.218 435.298 303.3 434.813 303.003 430.886C302.688 426.746 302.38 422.608 302.065 418.467C301.772 414.557 295.69 415.042 295.988 418.968Z" fill="#FAB31B"/>
<path d="M285.665 417.07C283.347 420.154 281.028 423.245 278.711 426.329C276.363 429.459 280.957 433.47 283.315 430.328C285.632 427.244 287.951 424.153 290.269 421.069C292.617 417.94 288.023 413.928 285.665 417.07Z" fill="#FAB31B"/>
<path d="M259.512 379.829C254.556 383.773 249.594 387.715 244.636 391.666C241.578 394.095 244.994 399.155 248.072 396.7C253.028 392.757 257.99 388.814 262.948 384.863C266.006 382.434 262.59 377.375 259.512 379.829Z" fill="#FAB31B"/>
<path d="M254.969 365.858L239.06 362.855C235.204 362.127 234.065 368.12 237.929 368.849L253.837 371.852C257.693 372.58 258.832 366.587 254.969 365.858Z" fill="#FAB31B"/>
<path d="M281.335 333.462C278.782 329.793 276.228 326.13 273.668 322.46C271.423 319.233 266.382 322.667 268.634 325.895C271.187 329.564 273.741 333.227 276.301 336.898C278.545 340.124 283.586 336.69 281.335 333.462Z" fill="#FAB31B"/>
<path d="M293.181 328.329C292.194 323.096 291.207 317.864 290.22 312.631C289.502 308.814 283.412 309.269 284.142 313.132C285.129 318.365 286.116 323.597 287.103 328.83C287.821 332.647 293.911 332.192 293.181 328.329Z" fill="#FAB31B"/>
<path d="M228.469 437.307L230.937 438.005C231.619 438.199 232.032 438.894 231.887 439.585C231.577 441.074 231.915 442.553 233.324 444.01C235.044 445.787 236.178 445.551 236.808 444.944C237.812 443.971 237.306 442.649 235.613 439.541C233.938 436.451 232.8 432.94 235.936 429.908C239.089 426.859 243.493 427.763 246.227 430.588C248.474 432.914 249.337 435.728 248.722 438.719C248.56 439.502 247.791 439.996 247.019 439.777L244.716 439.132C244.034 438.938 243.639 438.261 243.756 437.564C243.954 436.36 243.672 435.239 242.585 434.112C241.455 432.94 240.304 432.926 239.647 433.557C238.901 434.28 238.768 435.177 240.462 438.474C242.108 441.675 243.937 445.295 240.473 448.642C237.32 451.691 233.004 450.978 229.565 447.425C226.667 444.431 225.925 441.168 226.797 438.24C227.013 437.518 227.753 437.099 228.476 437.308L228.469 437.307Z" fill="#FF6533"/>
<path d="M253.988 461.75L252.68 463.638C252.251 464.254 251.409 464.408 250.793 463.979L241.248 457.385C240.632 456.956 240.479 456.114 240.907 455.498L252.307 438.997C252.736 438.38 253.578 438.227 254.194 438.656L263.604 445.159C264.22 445.588 264.373 446.43 263.945 447.046L262.637 448.934C262.208 449.55 261.366 449.703 260.75 449.275L255.618 445.728C255.002 445.3 254.16 445.453 253.73 446.076L253.129 446.95C252.701 447.566 252.854 448.408 253.47 448.837L257.928 451.915C258.544 452.344 258.698 453.186 258.269 453.802L257 455.639C256.572 456.255 255.729 456.408 255.113 455.98L250.655 452.902C250.039 452.473 249.197 452.627 248.768 453.243L248.019 454.328C247.59 454.944 247.743 455.787 248.36 456.215L253.62 459.851C254.236 460.28 254.389 461.122 253.961 461.738L253.988 461.75Z" fill="#FF6533"/>
<path d="M289.813 456.714L283.984 475.901C283.769 476.616 283.009 477.024 282.296 476.802L280.531 476.266C280.113 476.136 279.78 475.819 279.642 475.401L276.402 465.713C275.986 464.458 274.202 464.484 273.818 465.748L271.857 472.211C271.643 472.925 270.883 473.334 270.17 473.112L267.787 472.386C267.072 472.171 266.664 471.412 266.886 470.698L272.715 451.512C272.93 450.797 273.69 450.388 274.403 450.61L276.168 451.147C276.586 451.277 276.918 451.593 277.057 452.012L280.297 461.7C280.713 462.954 282.497 462.928 282.881 461.665L284.841 455.202C285.056 454.487 285.816 454.079 286.529 454.301L288.912 455.027C289.626 455.241 290.035 456.001 289.813 456.714Z" fill="#FF6533"/>
<path d="M290.637 467.311C290.899 460.615 296.397 455.684 302.934 455.945C309.471 456.199 314.561 461.546 314.299 468.242C314.037 474.938 308.539 479.869 302.003 479.608C295.472 479.355 290.375 474.007 290.637 467.311ZM309.096 468.037C309.253 463.971 306.437 461.159 302.731 461.019C299.027 460.871 295.997 463.458 295.832 467.522C295.675 471.588 298.491 474.399 302.197 474.54C305.901 474.687 308.931 472.101 309.096 468.037Z" fill="#FF6533"/>
<path d="M329.304 458.687L326.21 459.265C325.473 459.402 324.991 460.109 325.128 460.847L327.882 475.642C328.019 476.379 327.537 477.087 326.799 477.224L324.345 477.683C323.608 477.819 322.9 477.337 322.764 476.6L320.009 461.805C319.873 461.067 319.165 460.585 318.427 460.722L315.334 461.3C314.597 461.436 313.889 460.954 313.752 460.217L313.329 457.959C313.192 457.221 313.674 456.513 314.412 456.377L328.372 453.777C329.109 453.64 329.817 454.122 329.954 454.86L330.377 457.118C330.514 457.855 330.031 458.563 329.294 458.7L329.304 458.687Z" fill="#FF6533"/>
<path d="M347.642 466.934L341.643 469.367C341.092 469.59 340.757 470.136 340.798 470.725L340.936 472.494C340.985 473.084 340.642 473.629 340.092 473.852L337.489 474.907C336.632 475.253 335.678 474.652 335.628 473.728L334.414 452.58C334.378 451.999 334.72 451.461 335.262 451.244L339.61 449.48C340.145 449.261 340.764 449.407 341.145 449.849L355.001 465.876C355.609 466.579 355.345 467.669 354.488 468.016L351.886 469.071C351.335 469.294 350.712 469.133 350.332 468.684L349.202 467.323C348.824 466.867 348.2 466.713 347.649 466.935L347.642 466.934ZM344.092 461.203L342.38 459.152C341.534 458.135 339.89 458.805 339.99 460.124L340.192 462.783C340.259 463.696 341.202 464.281 342.051 463.933L343.553 463.323C344.403 462.975 344.67 461.907 344.085 461.202L344.092 461.203Z" fill="#FF6533"/>
<path d="M275.189 290.784L276.184 292.86C276.506 293.538 276.224 294.341 275.545 294.671L265.958 299.258C265.28 299.58 264.477 299.298 264.147 298.618L255.487 280.53C255.165 279.852 255.447 279.049 256.127 278.719L258.378 277.641C259.056 277.319 259.859 277.601 260.188 278.281L266.688 291.852C267.01 292.53 267.821 292.813 268.499 292.491L273.391 290.154C274.069 289.832 274.873 290.115 275.202 290.794L275.189 290.784Z" fill="#FF6533"/>
<path d="M272.518 283.084C270.96 276.567 274.925 270.338 281.282 268.815C287.64 267.292 293.993 271.062 295.551 277.579C297.109 284.096 293.145 290.325 286.787 291.848C280.43 293.371 274.076 289.601 272.518 283.084ZM290.487 278.787C289.542 274.833 286.069 272.884 282.463 273.75C278.86 274.609 276.637 277.922 277.582 281.876C278.528 285.83 282.001 287.779 285.606 286.913C289.21 286.053 291.433 282.741 290.487 278.787Z" fill="#FF6533"/>
<path d="M322.86 272.54L319.731 272.232C318.99 272.158 318.32 272.707 318.252 273.449L316.789 288.428C316.715 289.169 316.052 289.72 315.311 289.645L312.83 289.402C312.089 289.327 311.539 288.664 311.613 287.923L313.076 272.944C313.15 272.203 312.602 271.533 311.859 271.465L308.73 271.158C307.989 271.083 307.439 270.42 307.513 269.679L307.735 267.39C307.809 266.649 308.472 266.099 309.213 266.173L323.352 267.55C324.093 267.625 324.643 268.288 324.569 269.029L324.347 271.318C324.272 272.059 323.61 272.609 322.868 272.534L322.86 272.54Z" fill="#FF6533"/>
<path d="M325.301 283.42L329.546 270.012C329.774 269.3 330.531 268.905 331.245 269.127L333.622 269.881C334.334 270.11 334.728 270.867 334.507 271.58L330.396 284.549C329.875 286.193 330.211 287.833 332.841 288.67C335.48 289.502 336.692 288.352 337.211 286.714L341.323 273.745C341.551 273.033 342.308 272.639 343.022 272.861L345.399 273.614C346.111 273.843 346.505 274.6 346.283 275.314L342.039 288.722C340.565 293.374 336.085 295.026 331.31 293.515C326.534 292.003 323.82 288.071 325.294 283.419L325.301 283.42Z" fill="#FF6533"/>
<path d="M355.041 294.771L351.462 300.848C351.078 301.494 350.253 301.709 349.607 301.325L347.456 300.063C346.81 299.679 346.595 298.855 346.979 298.208L350.558 292.131C350.675 291.935 350.739 291.715 350.745 291.491L351.185 278.156C351.219 277.131 352.339 276.507 353.227 277.031L355.639 278.452C356.082 278.717 356.338 279.208 356.3 279.717L355.838 285.896C355.756 287.02 356.992 287.747 357.936 287.127L363.116 283.726C363.547 283.445 364.103 283.426 364.546 283.691L366.957 285.112C367.846 285.636 367.851 286.915 366.967 287.445L355.523 294.295C355.327 294.411 355.165 294.576 355.048 294.772L355.041 294.771Z" fill="#FF6533"/>
<path d="M363.467 296.1C368.117 291.278 375.505 291.257 380.21 295.797C384.915 300.338 385.163 307.718 380.513 312.54C375.863 317.362 368.475 317.383 363.77 312.843C359.065 308.303 358.817 300.922 363.467 296.1ZM376.765 308.928C379.59 306.005 379.354 302.025 376.688 299.453C374.016 296.879 370.039 296.789 367.214 299.712C364.39 302.635 364.626 306.615 367.292 309.188C369.964 311.761 373.941 311.851 376.767 308.921L376.765 308.928Z" fill="#FF6533"/>
<path d="M300.323 356.463C301.885 356.569 303.41 357.881 303.679 359.493C303.773 360.033 304.199 360.47 304.775 360.419C305.284 360.377 305.795 359.863 305.701 359.323C305.278 356.832 303.203 354.669 300.621 354.457C298.14 354.257 295.609 355.777 294.755 358.149C294.57 358.666 294.692 359.249 295.217 359.507C295.669 359.731 296.39 359.562 296.575 359.045C297.128 357.501 298.667 356.347 300.309 356.46L300.323 356.463Z" fill="#342E2E"/>
<path d="M323.861 363.281C323.936 360.5 321.917 357.926 319.26 357.192C316.568 356.451 313.605 357.874 312.268 360.265C311.631 361.408 313.46 362.298 314.096 361.162C315.006 359.533 317.091 358.678 318.881 359.197C320.719 359.733 321.884 361.601 321.831 363.457C321.815 364.006 322.425 364.426 322.927 364.383C323.524 364.336 323.843 363.837 323.853 363.287L323.861 363.281Z" fill="#342E2E"/>
<path d="M319.326 369.032C317.795 367.988 316.271 366.945 314.74 365.901C314.303 365.601 313.676 365.54 313.306 366.001C312.992 366.392 312.936 367.114 313.405 367.435C313.721 367.647 314.035 367.867 314.351 368.079C312.939 370.441 310.118 371.963 307.353 371.608C304.431 371.238 302.079 369.008 301.311 366.227C301.445 366.172 301.579 366.118 301.711 366.07C302.206 365.873 302.541 365.29 302.327 364.77C302.123 364.274 301.561 363.943 301.027 364.155C299.607 364.714 298.187 365.274 296.766 365.841C296.271 366.038 295.936 366.621 296.15 367.141C296.354 367.637 296.916 367.968 297.45 367.756C298.102 367.494 298.76 367.241 299.412 366.979C300.384 370.445 303.58 373.285 307.195 373.64C310.716 373.985 314.193 372.224 316.034 369.239C316.691 369.682 317.34 370.131 317.997 370.575C318.434 370.875 319.061 370.936 319.431 370.475C319.745 370.084 319.801 369.362 319.332 369.041L319.326 369.032Z" fill="#342E2E"/>
</g>
<defs>
<clipPath id="clip0_3_2">
<rect width="253.921" height="253.921" fill="white" transform="translate(268.465) rotate(12.6536)"/>
</clipPath>
<clipPath id="clip1_3_2">
<rect width="256.516" height="256.516" fill="white" transform="translate(15.2986 66.481) rotate(3.41928)"/>
</clipPath>
<clipPath id="clip2_3_2">
<rect width="271.052" height="271.052" fill="white" transform="translate(198.136 214.004) rotate(10.6903)"/>
</clipPath>
</defs>
</svg>
