<svg width="1736" height="852" viewBox="0 0 1736 852" fill="none" xmlns="http://www.w3.org/2000/svg">
<g clip-path="url(#clip0_15_463)">
<rect width="1736" height="852" fill="white"/>
<rect width="1736" height="852" fill="#1A1A1A"/>
<path d="M1820.09 349.16H1461.24L1113.2 0H1472.05L1820.09 349.16Z" stroke="white" stroke-miterlimit="10"/>
<path d="M1299.27 362.75L1312.93 325L1314.26 365.12L1338.92 333.45L1327.79 372.01L1361.03 349.51L1338.53 382.75L1377.09 371.62L1345.42 396.27L1385.54 397.61L1347.79 411.27L1385.54 424.93L1345.42 426.26L1377.09 450.92L1338.53 439.79L1361.03 473.03L1327.79 450.53L1338.92 489.09L1314.26 457.42L1312.93 497.54L1299.27 459.79L1285.61 497.54L1284.27 457.42L1259.62 489.09L1270.75 450.53L1237.51 473.03L1260.01 439.79L1221.45 450.92L1253.12 426.26L1213 424.93L1250.75 411.27L1213 397.61L1253.12 396.27L1221.45 371.62L1260.01 382.75L1237.51 349.51L1270.75 372.01L1259.62 333.45L1284.27 365.12L1285.61 325L1299.27 362.75Z" stroke="white" stroke-width="0.88" stroke-miterlimit="10"/>
<path d="M1152.19 745.15L1158.4 728L1159 746.23L1170.21 731.84L1165.15 749.36L1180.25 739.14L1170.03 754.24L1187.55 749.18L1173.16 760.38L1191.38 760.99L1174.24 767.19L1191.38 773.4L1173.16 774L1187.55 785.21L1170.03 780.15L1180.25 795.25L1165.15 785.03L1170.21 802.55L1159 788.16L1158.4 806.38L1152.19 789.24L1145.99 806.38L1145.38 788.16L1134.18 802.55L1139.24 785.03L1124.14 795.25L1134.36 780.15L1116.84 785.21L1131.23 774L1113 773.4L1130.15 767.19L1113 760.99L1131.23 760.38L1116.84 749.18L1134.36 754.24L1124.14 739.14L1139.24 749.36L1134.18 731.84L1145.38 746.23L1145.99 728L1152.19 745.15Z" stroke="white" stroke-width="0.88" stroke-miterlimit="10"/>
<path d="M156.89 775.66H-201.96L-550 426.5H-191.15L156.89 775.66Z" stroke="white" stroke-miterlimit="10"/>
</g>
<defs>
<clipPath id="clip0_15_463">
<rect width="1736" height="852" fill="white"/>
</clipPath>
</defs>
</svg>
