<svg width="473" height="75" viewBox="0 0 473 75" fill="none" xmlns="http://www.w3.org/2000/svg">
<path d="M417.145 0.429321C397.789 0.429321 382.016 15.8215 382.016 37.6666C382.016 59.5117 397.808 75 417.145 75C436.482 75 452.083 59.5053 452.083 37.6666C452.083 15.8279 436.578 0.429321 417.145 0.429321Z" fill="#1A1A1A"/>
<path d="M462.845 54.1738C465.648 54.1738 468.041 55.1478 470.024 57.1023C472.008 59.0567 473 61.4021 473 64.1383C473 66.8745 471.989 69.3545 469.973 71.3794C467.958 73.398 465.577 74.4104 462.845 74.4104C460.113 74.4104 457.752 73.398 455.768 71.3794C453.784 69.3609 452.792 66.945 452.792 64.1383C452.792 61.3316 453.784 59.0567 455.768 57.1023C457.752 55.1478 460.113 54.1738 462.845 54.1738ZM469.199 49.9637H456.497L453.746 1.02527H472.053L469.199 49.9637Z" fill="#1A1A1A"/>
<path d="M29.5945 30.8356C35.7757 34.5971 39.9606 38.16 42.149 41.5371C44.3438 44.9141 45.438 48.8807 45.438 53.4369C45.438 59.8577 43.2943 64.9906 39.0135 68.829C34.7263 72.6739 28.865 74.5899 21.4232 74.5899C12.7208 74.5899 5.57976 72.5457 0 68.451L3.58973 52.7832C9.10551 56.7434 14.3333 58.7235 19.286 58.7235C24.533 58.7235 27.1565 56.9613 27.1565 53.4369C27.1565 52.0079 26.5231 50.5789 25.2625 49.1435C24.0019 47.7145 21.5064 45.901 17.7887 43.703C11.9402 40.3772 7.74256 36.8784 5.18304 33.2002C2.62351 29.522 1.34375 25.2221 1.34375 20.3008C1.34375 14.181 3.50015 9.26606 7.81935 5.55579C12.1385 1.85193 17.8719 0 25.0129 0C32.154 0 38.3161 1.29443 43.4991 3.8897L41.4579 19.8073C39.9606 18.8397 37.8554 17.9041 35.1295 16.9878C32.4036 16.0714 29.9144 15.6165 27.6557 15.6165C22.4726 15.6165 19.9003 17.3466 19.9323 20.807C19.9323 22.4346 20.7321 24.0238 22.3254 25.5746C23.9188 27.1189 26.3439 28.8747 29.6009 30.842L29.5945 30.8356Z" fill="#1A1A1A"/>
<path d="M66.1319 1.49951H89.1036L104.602 73.052H86.2177L84.522 62.3249H70.8222L69.0753 73.052H50.7363L66.1319 1.49951ZM73.2537 47.7017H82.0265L77.8417 23.2036H77.3426L73.2537 47.7017Z" fill="#1A1A1A"/>
<path d="M124.687 27.3945L132.014 1.49951H149.553L133.658 50.7968V73.052H115.37V50.047L99.5718 1.49951H117.009L124.335 27.3945H124.681H124.687Z" fill="#1A1A1A"/>
<path d="M212.14 29.1888V1.49951H230.229V73.052H212.14V46.9071H202.221V73.052H184.183V1.49951H202.221V29.1952H212.14V29.1888Z" fill="#1A1A1A"/>
<path d="M261.02 45.9587V56.3846H284.491V73.052H242.739V1.49951H283.845V18.1669H261.027V30.9382H281.605V45.9587H261.027H261.02Z" fill="#1A1A1A"/>
<path d="M312.838 1.49951V56.3846H333.615V73.052H294.55V1.49951H312.838Z" fill="#1A1A1A"/>
<path d="M360.272 1.49951V56.3846H381.049V73.052H341.984V1.49951H360.272Z" fill="#1A1A1A"/>
<path d="M429.699 20.5314C433.02 20.5314 435.733 23.1716 435.733 26.4461C435.733 29.7206 433.039 32.3607 429.699 32.3607C426.359 32.3607 423.665 29.7206 423.665 26.4461C423.665 23.1716 426.359 20.5314 429.699 20.5314Z" fill="white"/>
<path d="M404.398 20.5314C407.719 20.5314 410.432 23.1716 410.432 26.4461C410.432 29.7206 407.739 32.3607 404.398 32.3607C401.058 32.3607 398.364 29.7206 398.364 26.4461C398.364 23.1716 401.058 20.5314 404.398 20.5314Z" fill="white"/>
<path d="M417.087 61.3444C407.86 61.3444 400.514 54.7633 399.522 46.0547H406.58C407.489 50.989 411.706 54.4942 417.087 54.4942C422.469 54.4942 426.615 50.989 427.524 46.0547H434.569C433.577 54.7825 426.263 61.3444 417.087 61.3444Z" fill="white"/>
</svg>
