<svg width="951" height="244" viewBox="0 0 951 244" fill="none" xmlns="http://www.w3.org/2000/svg">
<rect width="593" height="140.515" fill="white"/>
<mask id="path-2-outside-1_379_3" maskUnits="userSpaceOnUse" x="2" y="175" width="497" height="55" fill="black">
<rect fill="white" x="2" y="175" width="497" height="55"/>
<path d="M19.5166 177.986C24.6436 177.986 28.859 180.288 32.1631 184.891C35.4899 189.493 37.1533 195.372 37.1533 202.527C37.1533 209.66 35.5013 215.527 32.1973 220.13C28.8932 224.71 24.6663 227 19.5166 227H4.61426V177.986H19.5166ZM17.9785 217.259C20.4622 217.259 22.4902 215.88 24.0625 213.123C25.6576 210.343 26.4551 206.811 26.4551 202.527C26.4551 198.221 25.6576 194.677 24.0625 191.897C22.4902 189.118 20.4622 187.728 17.9785 187.728H15.3467V217.259H17.9785ZM55.3711 207.552V217.259H72.8027V227H44.7412V177.986H72.3926V187.728H55.3711V198.802H70.8545V207.552H55.3711ZM91.0205 177.986V217.259H106.606V227H80.2881V177.986H91.0205ZM134.053 183.216C137.266 179.091 141.595 177.029 147.041 177.029C152.51 177.029 156.851 179.091 160.063 183.216C163.276 187.34 164.883 193.766 164.883 202.493C164.883 211.22 163.276 217.658 160.063 221.805C156.851 225.929 152.51 227.991 147.041 227.991C141.595 227.991 137.266 225.929 134.053 221.805C130.863 217.658 129.268 211.22 129.268 202.493C129.268 193.766 130.863 187.34 134.053 183.216ZM147.041 218.25C151.803 218.25 154.185 212.998 154.185 202.493C154.185 192.034 151.803 186.805 147.041 186.805C142.324 186.805 139.966 192.034 139.966 202.493C139.966 212.998 142.324 218.25 147.041 218.25ZM192.192 201.946V177.986H202.959V227H195.884L183.306 203.211H183.101V227H172.368V177.986H179.375L192.056 201.946H192.192ZM234.917 201.16C237.446 202.14 239.417 203.689 240.83 205.809C242.243 207.905 242.949 210.446 242.949 213.431C242.949 217.35 241.628 220.597 238.984 223.172C236.364 225.724 233.026 227 228.97 227H212.222V177.986H227.842C231.898 177.986 235.179 179.171 237.686 181.541C240.215 183.888 241.479 186.953 241.479 190.735C241.479 195.407 239.292 198.79 234.917 200.887V201.16ZM227.124 217.771C228.56 217.771 229.756 217.225 230.713 216.131C231.693 215.014 232.183 213.602 232.183 211.893C232.183 210.161 231.715 208.759 230.781 207.688C229.847 206.618 228.628 206.082 227.124 206.082H222.852V217.771H227.124ZM222.852 187.317V198.665H226.509C227.808 198.665 228.89 198.141 229.756 197.093C230.622 196.022 231.055 194.655 231.055 192.991C231.055 191.305 230.622 189.938 229.756 188.89C228.89 187.841 227.808 187.317 226.509 187.317H222.852ZM253.613 183.216C256.826 179.091 261.156 177.029 266.602 177.029C272.07 177.029 276.411 179.091 279.624 183.216C282.837 187.34 284.443 193.766 284.443 202.493C284.443 211.22 282.837 217.658 279.624 221.805C276.411 225.929 272.07 227.991 266.602 227.991C261.156 227.991 256.826 225.929 253.613 221.805C250.423 217.658 248.828 211.22 248.828 202.493C248.828 193.766 250.423 187.34 253.613 183.216ZM266.602 218.25C271.364 218.25 273.745 212.998 273.745 202.493C273.745 192.034 271.364 186.805 266.602 186.805C261.885 186.805 259.526 192.034 259.526 202.493C259.526 212.998 261.885 218.25 266.602 218.25ZM297.5 177.986H310.864L322.417 227H311.616L310.078 218.66H298.32L296.782 227H286.016L297.5 177.986ZM300.029 210.115H308.403L304.336 190.462H304.062L300.029 210.115ZM350.957 205.364C353.486 206.071 355.07 208.338 355.708 212.166L358.442 227H347.163L344.771 213.123C344.246 210.457 342.777 209.135 340.361 209.158H337.593V227H326.86V177.986H343.232C347.425 177.986 350.832 179.319 353.452 181.985C356.073 184.651 357.383 188.252 357.383 192.786C357.383 198.392 355.241 202.493 350.957 205.091V205.364ZM340.942 200.682C342.674 200.682 344.087 200.078 345.181 198.87C346.274 197.64 346.821 196.079 346.821 194.188C346.821 192.273 346.274 190.724 345.181 189.539C344.087 188.331 342.674 187.728 340.942 187.728H337.593V200.682H340.942ZM380.317 177.986C385.444 177.986 389.66 180.288 392.964 184.891C396.291 189.493 397.954 195.372 397.954 202.527C397.954 209.66 396.302 215.527 392.998 220.13C389.694 224.71 385.467 227 380.317 227H365.415V177.986H380.317ZM378.779 217.259C381.263 217.259 383.291 215.88 384.863 213.123C386.458 210.343 387.256 206.811 387.256 202.527C387.256 198.221 386.458 194.677 384.863 191.897C383.291 189.118 381.263 187.728 378.779 187.728H376.147V217.259H378.779ZM405.542 227V177.986H416.274V227H405.542ZM445.327 201.946V177.986H456.094V227H449.019L436.44 203.211H436.235V227H425.503V177.986H432.51L445.19 201.946H445.327ZM481.523 207.825V199.212H496.802V222.659C493.11 226.214 488.348 227.991 482.515 227.991C476.727 227.991 472.124 225.929 468.706 221.805C465.311 217.658 463.613 211.243 463.613 202.562C463.613 193.925 465.402 187.511 468.979 183.318C472.58 179.126 477.274 177.029 483.062 177.029C485.295 177.029 487.448 177.291 489.521 177.815C491.618 178.317 493.179 178.921 494.204 179.627L491.538 188.719C489.806 187.465 487.573 186.827 484.839 186.805C481.763 186.805 479.245 188.047 477.285 190.53C475.348 193.014 474.38 197.024 474.38 202.562C474.38 213.021 477.536 218.25 483.848 218.25C484.919 218.25 485.83 217.92 486.582 217.259V207.825H481.523Z"/>
</mask>
<path d="M32.1631 184.891L30.5383 186.057L30.5422 186.062L32.1631 184.891ZM32.1973 220.13L33.8193 221.3L33.822 221.296L32.1973 220.13ZM4.61426 227H2.61426V229H4.61426V227ZM4.61426 177.986V175.986H2.61426V177.986H4.61426ZM24.0625 213.123L22.3278 212.128L22.3251 212.132L24.0625 213.123ZM24.0625 191.897L22.3216 192.882L22.3278 192.893L24.0625 191.897ZM15.3467 187.728V185.728H13.3467V187.728H15.3467ZM15.3467 217.259H13.3467V219.259H15.3467V217.259ZM19.5166 177.986V179.986C23.9244 179.986 27.5641 181.913 30.5383 186.057L32.1631 184.891L33.7878 183.724C30.154 178.662 25.3627 175.986 19.5166 175.986V177.986ZM32.1631 184.891L30.5422 186.062C33.565 190.245 35.1533 195.683 35.1533 202.527H37.1533H39.1533C39.1533 195.062 37.4148 188.742 33.784 183.719L32.1631 184.891ZM37.1533 202.527H35.1533C35.1533 209.35 33.5758 214.78 30.5725 218.964L32.1973 220.13L33.822 221.296C37.4268 216.274 39.1533 209.969 39.1533 202.527H37.1533ZM32.1973 220.13L30.5753 218.96C27.6049 223.077 23.9547 225 19.5166 225V227V229C25.3779 229 30.1816 226.343 33.8193 221.3L32.1973 220.13ZM19.5166 227V225H4.61426V227V229H19.5166V227ZM4.61426 227H6.61426V177.986H4.61426H2.61426V227H4.61426ZM4.61426 177.986V179.986H19.5166V177.986V175.986H4.61426V177.986ZM17.9785 217.259V219.259C21.3853 219.259 23.9863 217.294 25.7999 214.114L24.0625 213.123L22.3251 212.132C20.9941 214.466 19.5392 215.259 17.9785 215.259V217.259ZM24.0625 213.123L25.7972 214.118C27.615 210.95 28.4551 207.047 28.4551 202.527H26.4551H24.4551C24.4551 206.575 23.7001 209.736 22.3278 212.128L24.0625 213.123ZM26.4551 202.527H28.4551C28.4551 197.987 27.6158 194.072 25.7972 190.902L24.0625 191.897L22.3278 192.893C23.6993 195.283 24.4551 198.454 24.4551 202.527H26.4551ZM24.0625 191.897L25.8034 190.913C23.9937 187.713 21.3937 185.728 17.9785 185.728V187.728V189.728C19.5308 189.728 20.9868 190.522 22.3216 192.882L24.0625 191.897ZM17.9785 187.728V185.728H15.3467V187.728V189.728H17.9785V187.728ZM15.3467 187.728H13.3467V217.259H15.3467H17.3467V187.728H15.3467ZM15.3467 217.259V219.259H17.9785V217.259V215.259H15.3467V217.259ZM55.3711 207.552V205.552H53.3711V207.552H55.3711ZM55.3711 217.259H53.3711V219.259H55.3711V217.259ZM72.8027 217.259H74.8027V215.259H72.8027V217.259ZM72.8027 227V229H74.8027V227H72.8027ZM44.7412 227H42.7412V229H44.7412V227ZM44.7412 177.986V175.986H42.7412V177.986H44.7412ZM72.3926 177.986H74.3926V175.986H72.3926V177.986ZM72.3926 187.728V189.728H74.3926V187.728H72.3926ZM55.3711 187.728V185.728H53.3711V187.728H55.3711ZM55.3711 198.802H53.3711V200.802H55.3711V198.802ZM70.8545 198.802H72.8545V196.802H70.8545V198.802ZM70.8545 207.552V209.552H72.8545V207.552H70.8545ZM55.3711 207.552H53.3711V217.259H55.3711H57.3711V207.552H55.3711ZM55.3711 217.259V219.259H72.8027V217.259V215.259H55.3711V217.259ZM72.8027 217.259H70.8027V227H72.8027H74.8027V217.259H72.8027ZM72.8027 227V225H44.7412V227V229H72.8027V227ZM44.7412 227H46.7412V177.986H44.7412H42.7412V227H44.7412ZM44.7412 177.986V179.986H72.3926V177.986V175.986H44.7412V177.986ZM72.3926 177.986H70.3926V187.728H72.3926H74.3926V177.986H72.3926ZM72.3926 187.728V185.728H55.3711V187.728V189.728H72.3926V187.728ZM55.3711 187.728H53.3711V198.802H55.3711H57.3711V187.728H55.3711ZM55.3711 198.802V200.802H70.8545V198.802V196.802H55.3711V198.802ZM70.8545 198.802H68.8545V207.552H70.8545H72.8545V198.802H70.8545ZM70.8545 207.552V205.552H55.3711V207.552V209.552H70.8545V207.552ZM91.0205 177.986H93.0205V175.986H91.0205V177.986ZM91.0205 217.259H89.0205V219.259H91.0205V217.259ZM106.606 217.259H108.606V215.259H106.606V217.259ZM106.606 227V229H108.606V227H106.606ZM80.2881 227H78.2881V229H80.2881V227ZM80.2881 177.986V175.986H78.2881V177.986H80.2881ZM91.0205 177.986H89.0205V217.259H91.0205H93.0205V177.986H91.0205ZM91.0205 217.259V219.259H106.606V217.259V215.259H91.0205V217.259ZM106.606 217.259H104.606V227H106.606H108.606V217.259H106.606ZM106.606 227V225H80.2881V227V229H106.606V227ZM80.2881 227H82.2881V177.986H80.2881H78.2881V227H80.2881ZM80.2881 177.986V179.986H91.0205V177.986V175.986H80.2881V177.986ZM134.053 183.216L132.475 181.987L132.471 181.992L134.053 183.216ZM160.063 221.805L161.641 223.034L161.645 223.03L160.063 221.805ZM134.053 221.805L132.467 223.024L132.475 223.034L134.053 221.805ZM134.053 183.216L135.63 184.445C138.446 180.83 142.182 179.029 147.041 179.029V177.029V175.029C141.008 175.029 136.085 177.353 132.475 181.987L134.053 183.216ZM147.041 177.029V179.029C151.926 179.029 155.672 180.832 158.486 184.445L160.063 183.216L161.641 181.987C158.03 177.35 153.093 175.029 147.041 175.029V177.029ZM160.063 183.216L158.486 184.445C161.295 188.051 162.883 193.939 162.883 202.493H164.883H166.883C166.883 193.593 165.258 186.629 161.641 181.987L160.063 183.216ZM164.883 202.493H162.883C162.883 211.046 161.295 216.949 158.482 220.58L160.063 221.805L161.645 223.03C165.257 218.366 166.883 211.395 166.883 202.493H164.883ZM160.063 221.805L158.486 220.576C155.672 224.188 151.926 225.991 147.041 225.991V227.991V229.991C153.093 229.991 158.03 227.67 161.641 223.034L160.063 221.805ZM147.041 227.991V225.991C142.182 225.991 138.446 224.19 135.63 220.576L134.053 221.805L132.475 223.034C136.085 227.668 141.008 229.991 147.041 229.991V227.991ZM134.053 221.805L135.638 220.585C132.844 216.954 131.268 211.048 131.268 202.493H129.268H127.268C127.268 211.393 128.881 218.362 132.467 223.024L134.053 221.805ZM129.268 202.493H131.268C131.268 193.937 132.845 188.046 135.635 184.439L134.053 183.216L132.471 181.992C128.88 186.634 127.268 193.595 127.268 202.493H129.268ZM147.041 218.25V220.25C148.624 220.25 150.089 219.805 151.351 218.877C152.591 217.965 153.525 216.67 154.22 215.137C155.589 212.118 156.185 207.834 156.185 202.493H154.185H152.185C152.185 207.657 151.59 211.252 150.577 213.485C150.082 214.577 149.528 215.252 148.982 215.654C148.458 216.039 147.839 216.25 147.041 216.25V218.25ZM154.185 202.493H156.185C156.185 197.175 155.589 192.907 154.219 189.898C153.523 188.369 152.588 187.079 151.348 186.171C150.085 185.247 148.622 184.805 147.041 184.805V186.805V188.805C147.841 188.805 148.461 189.016 148.985 189.399C149.531 189.799 150.084 190.47 150.578 191.556C151.59 193.776 152.185 197.353 152.185 202.493H154.185ZM147.041 186.805V184.805C145.467 184.805 144.011 185.25 142.757 186.177C141.526 187.087 140.6 188.377 139.911 189.905C138.556 192.911 137.966 197.176 137.966 202.493H139.966H141.966C141.966 197.352 142.555 193.772 143.558 191.549C144.048 190.461 144.597 189.791 145.134 189.394C145.649 189.013 146.257 188.805 147.041 188.805V186.805ZM139.966 202.493H137.966C137.966 207.833 138.556 212.114 139.91 215.13C140.598 216.662 141.523 217.958 142.753 218.871C144.008 219.802 145.465 220.25 147.041 220.25V218.25V216.25C146.259 216.25 145.652 216.041 145.138 215.659C144.6 215.26 144.05 214.586 143.559 213.492C142.555 211.256 141.966 207.658 141.966 202.493H139.966ZM192.192 201.946V203.946H194.192V201.946H192.192ZM192.192 177.986V175.986H190.192V177.986H192.192ZM202.959 177.986H204.959V175.986H202.959V177.986ZM202.959 227V229H204.959V227H202.959ZM195.884 227L194.116 227.935L194.679 229H195.884V227ZM183.306 203.211L185.074 202.276L184.511 201.211H183.306V203.211ZM183.101 203.211V201.211H181.101V203.211H183.101ZM183.101 227V229H185.101V227H183.101ZM172.368 227H170.368V229H172.368V227ZM172.368 177.986V175.986H170.368V177.986H172.368ZM179.375 177.986L181.143 177.051L180.579 175.986H179.375V177.986ZM192.056 201.946L190.288 202.882L190.851 203.946H192.056V201.946ZM192.192 201.946H194.192V177.986H192.192H190.192V201.946H192.192ZM192.192 177.986V179.986H202.959V177.986V175.986H192.192V177.986ZM202.959 177.986H200.959V227H202.959H204.959V177.986H202.959ZM202.959 227V225H195.884V227V229H202.959V227ZM195.884 227L197.652 226.065L185.074 202.276L183.306 203.211L181.538 204.146L194.116 227.935L195.884 227ZM183.306 203.211V201.211H183.101V203.211V205.211H183.306V203.211ZM183.101 203.211H181.101V227H183.101H185.101V203.211H183.101ZM183.101 227V225H172.368V227V229H183.101V227ZM172.368 227H174.368V177.986H172.368H170.368V227H172.368ZM172.368 177.986V179.986H179.375V177.986V175.986H172.368V177.986ZM179.375 177.986L177.607 178.922L190.288 202.882L192.056 201.946L193.823 201.011L181.143 177.051L179.375 177.986ZM192.056 201.946V203.946H192.192V201.946V199.946H192.056V201.946ZM234.917 201.16H232.917V202.53L234.195 203.025L234.917 201.16ZM240.83 205.809L239.166 206.918L239.172 206.926L240.83 205.809ZM238.984 223.172L240.38 224.605L240.38 224.604L238.984 223.172ZM212.222 227H210.222V229H212.222V227ZM212.222 177.986V175.986H210.222V177.986H212.222ZM237.686 181.541L236.312 182.994L236.318 183.001L236.325 183.007L237.686 181.541ZM234.917 200.887L234.053 199.083L232.917 199.627V200.887H234.917ZM230.713 216.131L229.21 214.812L229.208 214.814L230.713 216.131ZM222.852 206.082V204.082H220.852V206.082H222.852ZM222.852 217.771H220.852V219.771H222.852V217.771ZM222.852 187.317V185.317H220.852V187.317H222.852ZM222.852 198.665H220.852V200.665H222.852V198.665ZM229.756 197.093L231.298 198.367L231.304 198.358L231.311 198.35L229.756 197.093ZM234.917 201.16L234.195 203.025C236.366 203.866 237.997 205.165 239.166 206.918L240.83 205.809L242.494 204.699C240.838 202.214 238.527 200.414 235.639 199.295L234.917 201.16ZM240.83 205.809L239.172 206.926C240.324 208.636 240.949 210.77 240.949 213.431H242.949H244.949C244.949 210.121 244.162 207.174 242.489 204.691L240.83 205.809ZM242.949 213.431H240.949C240.949 216.848 239.82 219.566 237.589 221.739L238.984 223.172L240.38 224.604C243.436 221.628 244.949 217.852 244.949 213.431H242.949ZM238.984 223.172L237.589 221.739C235.384 223.886 232.566 225 228.97 225V227V229C233.485 229 237.344 227.561 240.38 224.605L238.984 223.172ZM228.97 227V225H212.222V227V229H228.97V227ZM212.222 227H214.222V177.986H212.222H210.222V227H212.222ZM212.222 177.986V179.986H227.842V177.986V175.986H212.222V177.986ZM227.842 177.986V179.986C231.483 179.986 234.241 181.036 236.312 182.994L237.686 181.541L239.06 180.088C236.117 177.306 232.313 175.986 227.842 175.986V177.986ZM237.686 181.541L236.325 183.007C238.405 184.937 239.479 187.45 239.479 190.735H241.479H243.479C243.479 186.456 242.025 182.839 239.046 180.075L237.686 181.541ZM241.479 190.735H239.479C239.479 192.748 239.012 194.371 238.159 195.691C237.303 197.015 235.976 198.162 234.053 199.083L234.917 200.887L235.781 202.69C238.233 201.515 240.187 199.922 241.518 197.862C242.853 195.798 243.479 193.393 243.479 190.735H241.479ZM234.917 200.887H232.917V201.16H234.917H236.917V200.887H234.917ZM227.124 217.771V219.771C229.144 219.771 230.887 218.969 232.218 217.448L230.713 216.131L229.208 214.814C228.625 215.48 227.975 215.771 227.124 215.771V217.771ZM230.713 216.131L232.216 217.45C233.564 215.914 234.183 214.009 234.183 211.893H232.183H230.183C230.183 213.194 229.822 214.114 229.21 214.812L230.713 216.131ZM232.183 211.893H234.183C234.183 209.788 233.606 207.884 232.288 206.374L230.781 207.688L229.274 209.003C229.825 209.635 230.183 210.534 230.183 211.893H232.183ZM230.781 207.688L232.288 206.374C230.95 204.839 229.168 204.082 227.124 204.082V206.082V208.082C228.088 208.082 228.744 208.396 229.274 209.003L230.781 207.688ZM227.124 206.082V204.082H222.852V206.082V208.082H227.124V206.082ZM222.852 206.082H220.852V217.771H222.852H224.852V206.082H222.852ZM222.852 217.771V219.771H227.124V217.771V215.771H222.852V217.771ZM222.852 187.317H220.852V198.665H222.852H224.852V187.317H222.852ZM222.852 198.665V200.665H226.509V198.665V196.665H222.852V198.665ZM226.509 198.665V200.665C228.436 200.665 230.072 199.85 231.298 198.367L229.756 197.093L228.214 195.819C227.708 196.432 227.18 196.665 226.509 196.665V198.665ZM229.756 197.093L231.311 198.35C232.521 196.854 233.055 195.014 233.055 192.991H231.055H229.055C229.055 194.295 228.722 195.19 228.201 195.835L229.756 197.093ZM231.055 192.991H233.055C233.055 190.955 232.526 189.102 231.298 187.616L229.756 188.89L228.214 190.163C228.718 190.773 229.055 191.655 229.055 192.991H231.055ZM229.756 188.89L231.298 187.616C230.072 186.133 228.436 185.317 226.509 185.317V187.317V189.317C227.18 189.317 227.708 189.55 228.214 190.163L229.756 188.89ZM226.509 187.317V185.317H222.852V187.317V189.317H226.509V187.317ZM253.613 183.216L252.036 181.987L252.031 181.992L253.613 183.216ZM279.624 221.805L281.202 223.034L281.205 223.03L279.624 221.805ZM253.613 221.805L252.028 223.024L252.036 223.034L253.613 221.805ZM253.613 183.216L255.191 184.445C258.007 180.83 261.742 179.029 266.602 179.029V177.029V175.029C260.569 175.029 255.645 177.353 252.036 181.987L253.613 183.216ZM266.602 177.029V179.029C271.487 179.029 275.232 180.832 278.046 184.445L279.624 183.216L281.202 181.987C277.59 177.35 272.654 175.029 266.602 175.029V177.029ZM279.624 183.216L278.046 184.445C280.855 188.051 282.443 193.939 282.443 202.493H284.443H286.443C286.443 193.593 284.818 186.629 281.202 181.987L279.624 183.216ZM284.443 202.493H282.443C282.443 211.046 280.856 216.949 278.043 220.58L279.624 221.805L281.205 223.03C284.818 218.366 286.443 211.395 286.443 202.493H284.443ZM279.624 221.805L278.046 220.576C275.232 224.188 271.487 225.991 266.602 225.991V227.991V229.991C272.654 229.991 277.59 227.67 281.202 223.034L279.624 221.805ZM266.602 227.991V225.991C261.742 225.991 258.007 224.19 255.191 220.576L253.613 221.805L252.036 223.034C255.645 227.668 260.569 229.991 266.602 229.991V227.991ZM253.613 221.805L255.199 220.585C252.405 216.954 250.828 211.048 250.828 202.493H248.828H246.828C246.828 211.393 248.441 218.362 252.028 223.024L253.613 221.805ZM248.828 202.493H250.828C250.828 193.937 252.405 188.046 255.195 184.439L253.613 183.216L252.031 181.992C248.441 186.634 246.828 193.595 246.828 202.493H248.828ZM266.602 218.25V220.25C268.185 220.25 269.649 219.805 270.912 218.877C272.151 217.965 273.085 216.67 273.781 215.137C275.149 212.118 275.745 207.834 275.745 202.493H273.745H271.745C271.745 207.657 271.15 211.252 270.138 213.485C269.642 214.577 269.088 215.252 268.542 215.654C268.019 216.039 267.399 216.25 266.602 216.25V218.25ZM273.745 202.493H275.745C275.745 197.175 275.149 192.907 273.779 189.898C273.083 188.369 272.148 187.079 270.908 186.171C269.646 185.247 268.183 184.805 266.602 184.805V186.805V188.805C267.401 188.805 268.022 189.016 268.545 189.399C269.091 189.799 269.645 190.47 270.139 191.556C271.15 193.776 271.745 197.353 271.745 202.493H273.745ZM266.602 186.805V184.805C265.027 184.805 263.571 185.25 262.317 186.177C261.086 187.087 260.161 188.377 259.472 189.905C258.116 192.911 257.526 197.176 257.526 202.493H259.526H261.526C261.526 197.352 262.116 193.772 263.118 191.549C263.609 190.461 264.157 189.791 264.695 189.394C265.21 189.013 265.818 188.805 266.602 188.805V186.805ZM259.526 202.493H257.526C257.526 207.833 258.116 212.114 259.471 215.13C260.159 216.662 261.083 217.958 262.314 218.871C263.568 219.802 265.025 220.25 266.602 220.25V218.25V216.25C265.82 216.25 265.213 216.041 264.698 215.659C264.16 215.26 263.611 214.586 263.12 213.492C262.116 211.256 261.526 207.658 261.526 202.493H259.526ZM297.5 177.986V175.986H295.914L295.553 177.53L297.5 177.986ZM310.864 177.986L312.811 177.527L312.448 175.986H310.864V177.986ZM322.417 227V229H324.943L324.364 226.541L322.417 227ZM311.616 227L309.649 227.363L309.951 229H311.616V227ZM310.078 218.66L312.045 218.297L311.743 216.66H310.078V218.66ZM298.32 218.66V216.66H296.655L296.353 218.297L298.32 218.66ZM296.782 227V229H298.447L298.749 227.363L296.782 227ZM286.016 227L284.068 226.544L283.493 229H286.016V227ZM300.029 210.115L298.07 209.713L297.577 212.115H300.029V210.115ZM308.403 210.115V212.115H310.86L310.362 209.71L308.403 210.115ZM304.336 190.462L306.294 190.057L305.964 188.462H304.336V190.462ZM304.062 190.462V188.462H302.431L302.103 190.06L304.062 190.462ZM297.5 177.986V179.986H310.864V177.986V175.986H297.5V177.986ZM310.864 177.986L308.918 178.445L320.47 227.459L322.417 227L324.364 226.541L312.811 177.527L310.864 177.986ZM322.417 227V225H311.616V227V229H322.417V227ZM311.616 227L313.583 226.637L312.045 218.297L310.078 218.66L308.111 219.023L309.649 227.363L311.616 227ZM310.078 218.66V216.66H298.32V218.66V220.66H310.078V218.66ZM298.32 218.66L296.353 218.297L294.815 226.637L296.782 227L298.749 227.363L300.287 219.023L298.32 218.66ZM296.782 227V225H286.016V227V229H296.782V227ZM286.016 227L287.963 227.456L299.447 178.443L297.5 177.986L295.553 177.53L284.068 226.544L286.016 227ZM300.029 210.115V212.115H308.403V210.115V208.115H300.029V210.115ZM308.403 210.115L310.362 209.71L306.294 190.057L304.336 190.462L302.377 190.867L306.445 210.521L308.403 210.115ZM304.336 190.462V188.462H304.062V190.462V192.462H304.336V190.462ZM304.062 190.462L302.103 190.06L298.07 209.713L300.029 210.115L301.988 210.517L306.022 190.864L304.062 190.462ZM350.957 205.364H348.957V206.882L350.419 207.291L350.957 205.364ZM355.708 212.166L353.735 212.495L353.738 212.512L353.741 212.529L355.708 212.166ZM358.442 227V229H360.845L360.409 226.637L358.442 227ZM347.163 227L345.192 227.34L345.478 229H347.163V227ZM344.771 213.123L346.741 212.783L346.737 212.76L346.733 212.737L344.771 213.123ZM340.361 209.158V211.158H340.371L340.38 211.158L340.361 209.158ZM337.593 209.158V207.158H335.593V209.158H337.593ZM337.593 227V229H339.593V227H337.593ZM326.86 227H324.86V229H326.86V227ZM326.86 177.986V175.986H324.86V177.986H326.86ZM350.957 205.091L349.92 203.381L348.957 203.965V205.091H350.957ZM345.181 198.87L346.663 200.213L346.669 200.206L346.675 200.199L345.181 198.87ZM345.181 189.539L343.698 190.882L343.705 190.889L343.711 190.896L345.181 189.539ZM337.593 187.728V185.728H335.593V187.728H337.593ZM337.593 200.682H335.593V202.682H337.593V200.682ZM350.957 205.364L350.419 207.291C351.865 207.694 353.155 209.016 353.735 212.495L355.708 212.166L357.681 211.837C356.984 207.659 355.107 204.447 351.495 203.438L350.957 205.364ZM355.708 212.166L353.741 212.529L356.476 227.363L358.442 227L360.409 226.637L357.675 211.803L355.708 212.166ZM358.442 227V225H347.163V227V229H358.442V227ZM347.163 227L349.134 226.66L346.741 212.783L344.771 213.123L342.8 213.463L345.192 227.34L347.163 227ZM344.771 213.123L346.733 212.737C346.418 211.136 345.771 209.687 344.612 208.645C343.427 207.579 341.934 207.143 340.342 207.158L340.361 209.158L340.38 211.158C341.204 211.15 341.654 211.364 341.938 211.619C342.249 211.9 342.599 212.444 342.808 213.509L344.771 213.123ZM340.361 209.158V207.158H337.593V209.158V211.158H340.361V209.158ZM337.593 209.158H335.593V227H337.593H339.593V209.158H337.593ZM337.593 227V225H326.86V227V229H337.593V227ZM326.86 227H328.86V177.986H326.86H324.86V227H326.86ZM326.86 177.986V179.986H343.232V177.986V175.986H326.86V177.986ZM343.232 177.986V179.986C346.96 179.986 349.829 181.152 352.026 183.387L353.452 181.985L354.879 180.583C351.835 177.487 347.89 175.986 343.232 175.986V177.986ZM353.452 181.985L352.026 183.387C354.203 185.602 355.383 188.657 355.383 192.786H357.383H359.383C359.383 187.846 357.942 183.7 354.879 180.583L353.452 181.985ZM357.383 192.786H355.383C355.383 197.792 353.526 201.194 349.92 203.381L350.957 205.091L351.994 206.801C356.956 203.792 359.383 198.991 359.383 192.786H357.383ZM350.957 205.091H348.957V205.364H350.957H352.957V205.091H350.957ZM340.942 200.682V202.682C343.199 202.682 345.164 201.868 346.663 200.213L345.181 198.87L343.698 197.528C343.01 198.288 342.149 198.682 340.942 198.682V200.682ZM345.181 198.87L346.675 200.199C348.143 198.548 348.821 196.491 348.821 194.188H346.821H344.821C344.821 195.667 344.406 196.731 343.686 197.541L345.181 198.87ZM346.821 194.188H348.821C348.821 191.87 348.147 189.804 346.65 188.183L345.181 189.539L343.711 190.896C344.402 191.644 344.821 192.676 344.821 194.188H346.821ZM345.181 189.539L346.663 188.197C345.164 186.541 343.199 185.728 340.942 185.728V187.728V189.728C342.149 189.728 343.01 190.121 343.698 190.882L345.181 189.539ZM340.942 187.728V185.728H337.593V187.728V189.728H340.942V187.728ZM337.593 187.728H335.593V200.682H337.593H339.593V187.728H337.593ZM337.593 200.682V202.682H340.942V200.682V198.682H337.593V200.682ZM392.964 184.891L391.339 186.057L391.343 186.062L392.964 184.891ZM392.998 220.13L394.62 221.3L394.623 221.296L392.998 220.13ZM365.415 227H363.415V229H365.415V227ZM365.415 177.986V175.986H363.415V177.986H365.415ZM384.863 213.123L383.129 212.128L383.126 212.132L384.863 213.123ZM384.863 191.897L383.122 192.882L383.129 192.893L384.863 191.897ZM376.147 187.728V185.728H374.147V187.728H376.147ZM376.147 217.259H374.147V219.259H376.147V217.259ZM380.317 177.986V179.986C384.725 179.986 388.365 181.913 391.339 186.057L392.964 184.891L394.589 183.724C390.955 178.662 386.163 175.986 380.317 175.986V177.986ZM392.964 184.891L391.343 186.062C394.366 190.245 395.954 195.683 395.954 202.527H397.954H399.954C399.954 195.062 398.216 188.742 394.585 183.719L392.964 184.891ZM397.954 202.527H395.954C395.954 209.35 394.377 214.78 391.373 218.964L392.998 220.13L394.623 221.296C398.228 216.274 399.954 209.969 399.954 202.527H397.954ZM392.998 220.13L391.376 218.96C388.406 223.077 384.756 225 380.317 225V227V229C386.179 229 390.982 226.343 394.62 221.3L392.998 220.13ZM380.317 227V225H365.415V227V229H380.317V227ZM365.415 227H367.415V177.986H365.415H363.415V227H365.415ZM365.415 177.986V179.986H380.317V177.986V175.986H365.415V177.986ZM378.779 217.259V219.259C382.186 219.259 384.787 217.294 386.601 214.114L384.863 213.123L383.126 212.132C381.795 214.466 380.34 215.259 378.779 215.259V217.259ZM384.863 213.123L386.598 214.118C388.416 210.95 389.256 207.047 389.256 202.527H387.256H385.256C385.256 206.575 384.501 209.736 383.129 212.128L384.863 213.123ZM387.256 202.527H389.256C389.256 197.987 388.417 194.072 386.598 190.902L384.863 191.897L383.129 192.893C384.5 195.283 385.256 198.454 385.256 202.527H387.256ZM384.863 191.897L386.604 190.913C384.794 187.713 382.194 185.728 378.779 185.728V187.728V189.728C380.332 189.728 381.788 190.522 383.122 192.882L384.863 191.897ZM378.779 187.728V185.728H376.147V187.728V189.728H378.779V187.728ZM376.147 187.728H374.147V217.259H376.147H378.147V187.728H376.147ZM376.147 217.259V219.259H378.779V217.259V215.259H376.147V217.259ZM405.542 227H403.542V229H405.542V227ZM405.542 177.986V175.986H403.542V177.986H405.542ZM416.274 177.986H418.274V175.986H416.274V177.986ZM416.274 227V229H418.274V227H416.274ZM405.542 227H407.542V177.986H405.542H403.542V227H405.542ZM405.542 177.986V179.986H416.274V177.986V175.986H405.542V177.986ZM416.274 177.986H414.274V227H416.274H418.274V177.986H416.274ZM416.274 227V225H405.542V227V229H416.274V227ZM445.327 201.946V203.946H447.327V201.946H445.327ZM445.327 177.986V175.986H443.327V177.986H445.327ZM456.094 177.986H458.094V175.986H456.094V177.986ZM456.094 227V229H458.094V227H456.094ZM449.019 227L447.25 227.935L447.814 229H449.019V227ZM436.44 203.211L438.208 202.276L437.645 201.211H436.44V203.211ZM436.235 203.211V201.211H434.235V203.211H436.235ZM436.235 227V229H438.235V227H436.235ZM425.503 227H423.503V229H425.503V227ZM425.503 177.986V175.986H423.503V177.986H425.503ZM432.51 177.986L434.277 177.051L433.714 175.986H432.51V177.986ZM445.19 201.946L443.423 202.882L443.986 203.946H445.19V201.946ZM445.327 201.946H447.327V177.986H445.327H443.327V201.946H445.327ZM445.327 177.986V179.986H456.094V177.986V175.986H445.327V177.986ZM456.094 177.986H454.094V227H456.094H458.094V177.986H456.094ZM456.094 227V225H449.019V227V229H456.094V227ZM449.019 227L450.787 226.065L438.208 202.276L436.44 203.211L434.672 204.146L447.25 227.935L449.019 227ZM436.44 203.211V201.211H436.235V203.211V205.211H436.44V203.211ZM436.235 203.211H434.235V227H436.235H438.235V203.211H436.235ZM436.235 227V225H425.503V227V229H436.235V227ZM425.503 227H427.503V177.986H425.503H423.503V227H425.503ZM425.503 177.986V179.986H432.51V177.986V175.986H425.503V177.986ZM432.51 177.986L430.742 178.922L443.423 202.882L445.19 201.946L446.958 201.011L434.277 177.051L432.51 177.986ZM445.19 201.946V203.946H445.327V201.946V199.946H445.19V201.946ZM481.523 207.825H479.523V209.825H481.523V207.825ZM481.523 199.212V197.212H479.523V199.212H481.523ZM496.802 199.212H498.802V197.212H496.802V199.212ZM496.802 222.659L498.189 224.1L498.802 223.51V222.659H496.802ZM468.706 221.805L467.158 223.072L467.166 223.081L468.706 221.805ZM468.979 183.318L467.462 182.015L467.458 182.02L468.979 183.318ZM489.521 177.815L489.031 179.754L489.044 179.758L489.056 179.761L489.521 177.815ZM494.204 179.627L496.123 180.19L496.531 178.801L495.339 177.98L494.204 179.627ZM491.538 188.719L490.366 190.339L492.66 192L493.457 189.282L491.538 188.719ZM484.839 186.805L484.856 184.805L484.847 184.805H484.839V186.805ZM477.285 190.53L475.715 189.291L475.708 189.3L477.285 190.53ZM486.582 217.259L487.902 218.761L488.582 218.164V217.259H486.582ZM486.582 207.825H488.582V205.825H486.582V207.825ZM481.523 207.825H483.523V199.212H481.523H479.523V207.825H481.523ZM481.523 199.212V201.212H496.802V199.212V197.212H481.523V199.212ZM496.802 199.212H494.802V222.659H496.802H498.802V199.212H496.802ZM496.802 222.659L495.414 221.219C492.148 224.364 487.908 225.991 482.515 225.991V227.991V229.991C488.788 229.991 494.073 228.064 498.189 224.1L496.802 222.659ZM482.515 227.991V225.991C477.268 225.991 473.25 224.154 470.246 220.529L468.706 221.805L467.166 223.081C470.998 227.704 476.186 229.991 482.515 229.991V227.991ZM468.706 221.805L470.254 220.538C467.284 216.911 465.613 211.048 465.613 202.562H463.613H461.613C461.613 211.439 463.338 218.404 467.159 223.072L468.706 221.805ZM463.613 202.562H465.613C465.613 194.145 467.366 188.291 470.501 184.617L468.979 183.318L467.458 182.02C463.439 186.731 461.613 193.706 461.613 202.562H463.613ZM468.979 183.318L470.497 184.621C473.697 180.894 477.825 179.029 483.062 179.029V177.029V175.029C476.722 175.029 471.462 177.357 467.462 182.015L468.979 183.318ZM483.062 177.029V179.029C485.137 179.029 487.125 179.273 489.031 179.754L489.521 177.815L490.012 175.876C487.771 175.31 485.453 175.029 483.062 175.029V177.029ZM489.521 177.815L489.056 179.761C491.062 180.24 492.343 180.774 493.069 181.274L494.204 179.627L495.339 177.98C494.014 177.067 492.174 176.393 489.987 175.87L489.521 177.815ZM494.204 179.627L492.285 179.064L489.619 188.156L491.538 188.719L493.457 189.282L496.123 180.19L494.204 179.627ZM491.538 188.719L492.711 187.099C490.559 185.542 487.889 184.83 484.856 184.805L484.839 186.805L484.822 188.805C487.257 188.825 489.053 189.389 490.366 190.339L491.538 188.719ZM484.839 186.805V184.805C481.13 184.805 478.041 186.343 475.715 189.291L477.285 190.53L478.855 191.769C480.448 189.75 482.395 188.805 484.839 188.805V186.805ZM477.285 190.53L475.708 189.3C473.356 192.316 472.38 196.88 472.38 202.562H474.38H476.38C476.38 197.168 477.34 193.712 478.862 191.76L477.285 190.53ZM474.38 202.562H472.38C472.38 207.927 473.178 212.285 475.034 215.361C476.989 218.6 480.02 220.25 483.848 220.25V218.25V216.25C481.364 216.25 479.661 215.285 478.459 213.295C477.16 211.142 476.38 207.655 476.38 202.562H474.38ZM483.848 218.25V220.25C485.368 220.25 486.759 219.766 487.902 218.761L486.582 217.259L485.262 215.756C484.902 216.073 484.47 216.25 483.848 216.25V218.25ZM486.582 217.259H488.582V207.825H486.582H484.582V217.259H486.582ZM486.582 207.825V205.825H481.523V207.825V209.825H486.582V207.825Z" fill="#FFFF7A" mask="url(#path-2-outside-1_379_3)"/>
<mask id="path-4-outside-2_379_3" maskUnits="userSpaceOnUse" x="521" y="176" width="428" height="53" fill="black">
<rect fill="white" x="521" y="176" width="428" height="53"/>
<path d="M523.137 227L535.544 177.986H546.584L558.991 227H550.104L548.054 217.771H534.074L532.023 227H523.137ZM540.91 188.514L535.681 210.628H546.447L541.184 188.514H540.91ZM563.981 177.986H572.8V218.934H589.753V227H563.981V177.986ZM636.545 201.023V201.229C639.097 202.186 641.102 203.735 642.561 205.877C644.019 207.996 644.748 210.537 644.748 213.499C644.748 217.464 643.461 220.7 640.886 223.206C638.288 225.735 634.973 227 630.939 227H614.704V177.986H630.051C633.924 177.986 637.103 179.148 639.587 181.473C642.048 183.842 643.278 186.884 643.278 190.599C643.278 192.968 642.674 195.053 641.467 196.854C640.282 198.631 638.641 200.021 636.545 201.023ZM623.522 219.31H629.401C631.338 219.31 632.899 218.649 634.084 217.327C635.269 216.051 635.861 214.376 635.861 212.303C635.861 210.184 635.269 208.497 634.084 207.244C632.899 205.991 631.338 205.364 629.401 205.364H623.522V219.31ZM628.923 185.711H623.522V199.144H628.923C630.563 199.144 631.919 198.506 632.99 197.229C634.061 195.953 634.597 194.347 634.597 192.41C634.597 190.473 634.061 188.867 632.99 187.591C631.942 186.338 630.586 185.711 628.923 185.711ZM678.552 206.697H661.735V218.934H680.568V227H652.917V177.986H680.021V186.121H661.735V199.417H678.552V206.697ZM688.601 177.986H697.419V218.934H714.372V227H688.601V177.986ZM734.572 177.098C739.95 177.098 744.245 179.194 747.458 183.387C750.671 187.579 752.277 193.948 752.277 202.493C752.277 211.038 750.682 217.418 747.492 221.634C744.302 225.872 740.007 227.991 734.606 227.991C729.183 227.991 724.865 225.872 721.652 221.634C718.417 217.441 716.799 211.061 716.799 202.493C716.799 193.948 718.405 187.579 721.618 183.387C724.831 179.194 729.149 177.098 734.572 177.098ZM734.572 185.13C728.648 185.13 725.686 190.918 725.686 202.493C725.686 214.069 728.648 219.856 734.572 219.856C740.497 219.856 743.459 214.069 743.459 202.493C743.459 190.918 740.497 185.13 734.572 185.13ZM781.467 206.287H781.672V177.986H790.559V227H784.543L769.367 198.802H769.128V227H760.31V177.986H766.257L781.467 206.287ZM823.132 207.039H816.398V199.896H831.54V222.454C827.849 226.146 823.155 227.991 817.458 227.991C811.693 227.991 807.124 225.861 803.752 221.6C800.334 217.361 798.625 211.038 798.625 202.63C798.625 194.29 800.425 187.944 804.025 183.592C807.603 179.262 812.263 177.098 818.005 177.098C820.101 177.098 822.22 177.36 824.362 177.884C826.436 178.431 828.031 179.126 829.147 179.969L826.857 187.454C824.761 185.905 822.255 185.13 819.338 185.13C815.852 185.13 812.992 186.588 810.759 189.505C808.549 192.399 807.443 196.774 807.443 202.63C807.443 208.395 808.412 212.713 810.349 215.584C812.285 218.432 815.031 219.856 818.586 219.856C820.454 219.856 821.97 219.23 823.132 217.977V207.039ZM848.698 227H839.88V177.986H848.698V227ZM879.631 206.287H879.836V177.986H888.723V227H882.707L867.531 198.802H867.292V227H858.474V177.986H864.421L879.631 206.287ZM921.296 207.039H914.562V199.896H929.704V222.454C926.013 226.146 921.319 227.991 915.622 227.991C909.857 227.991 905.288 225.861 901.916 221.6C898.498 217.361 896.789 211.038 896.789 202.63C896.789 194.29 898.589 187.944 902.189 183.592C905.767 179.262 910.427 177.098 916.169 177.098C918.265 177.098 920.384 177.36 922.526 177.884C924.6 178.431 926.195 179.126 927.312 179.969L925.021 187.454C922.925 185.905 920.419 185.13 917.502 185.13C914.016 185.13 911.156 186.588 908.923 189.505C906.713 192.399 905.607 196.774 905.607 202.63C905.607 208.395 906.576 212.713 908.513 215.584C910.45 218.432 913.195 219.856 916.75 219.856C918.618 219.856 920.134 219.23 921.296 217.977V207.039ZM942.043 227.923C940.585 227.923 939.354 227.387 938.352 226.316C937.303 225.268 936.779 224.049 936.779 222.659C936.779 221.246 937.303 220.05 938.352 219.07C939.4 218.068 940.63 217.566 942.043 217.566C943.41 217.566 944.629 218.068 945.7 219.07C946.726 220.073 947.238 221.269 947.238 222.659C947.238 224.049 946.726 225.268 945.7 226.316C944.652 227.387 943.433 227.923 942.043 227.923Z"/>
</mask>
<path d="M523.137 227L535.544 177.986H546.584L558.991 227H550.104L548.054 217.771H534.074L532.023 227H523.137ZM540.91 188.514L535.681 210.628H546.447L541.184 188.514H540.91ZM563.981 177.986H572.8V218.934H589.753V227H563.981V177.986ZM636.545 201.023V201.229C639.097 202.186 641.102 203.735 642.561 205.877C644.019 207.996 644.748 210.537 644.748 213.499C644.748 217.464 643.461 220.7 640.886 223.206C638.288 225.735 634.973 227 630.939 227H614.704V177.986H630.051C633.924 177.986 637.103 179.148 639.587 181.473C642.048 183.842 643.278 186.884 643.278 190.599C643.278 192.968 642.674 195.053 641.467 196.854C640.282 198.631 638.641 200.021 636.545 201.023ZM623.522 219.31H629.401C631.338 219.31 632.899 218.649 634.084 217.327C635.269 216.051 635.861 214.376 635.861 212.303C635.861 210.184 635.269 208.497 634.084 207.244C632.899 205.991 631.338 205.364 629.401 205.364H623.522V219.31ZM628.923 185.711H623.522V199.144H628.923C630.563 199.144 631.919 198.506 632.99 197.229C634.061 195.953 634.597 194.347 634.597 192.41C634.597 190.473 634.061 188.867 632.99 187.591C631.942 186.338 630.586 185.711 628.923 185.711ZM678.552 206.697H661.735V218.934H680.568V227H652.917V177.986H680.021V186.121H661.735V199.417H678.552V206.697ZM688.601 177.986H697.419V218.934H714.372V227H688.601V177.986ZM734.572 177.098C739.95 177.098 744.245 179.194 747.458 183.387C750.671 187.579 752.277 193.948 752.277 202.493C752.277 211.038 750.682 217.418 747.492 221.634C744.302 225.872 740.007 227.991 734.606 227.991C729.183 227.991 724.865 225.872 721.652 221.634C718.417 217.441 716.799 211.061 716.799 202.493C716.799 193.948 718.405 187.579 721.618 183.387C724.831 179.194 729.149 177.098 734.572 177.098ZM734.572 185.13C728.648 185.13 725.686 190.918 725.686 202.493C725.686 214.069 728.648 219.856 734.572 219.856C740.497 219.856 743.459 214.069 743.459 202.493C743.459 190.918 740.497 185.13 734.572 185.13ZM781.467 206.287H781.672V177.986H790.559V227H784.543L769.367 198.802H769.128V227H760.31V177.986H766.257L781.467 206.287ZM823.132 207.039H816.398V199.896H831.54V222.454C827.849 226.146 823.155 227.991 817.458 227.991C811.693 227.991 807.124 225.861 803.752 221.6C800.334 217.361 798.625 211.038 798.625 202.63C798.625 194.29 800.425 187.944 804.025 183.592C807.603 179.262 812.263 177.098 818.005 177.098C820.101 177.098 822.22 177.36 824.362 177.884C826.436 178.431 828.031 179.126 829.147 179.969L826.857 187.454C824.761 185.905 822.255 185.13 819.338 185.13C815.852 185.13 812.992 186.588 810.759 189.505C808.549 192.399 807.443 196.774 807.443 202.63C807.443 208.395 808.412 212.713 810.349 215.584C812.285 218.432 815.031 219.856 818.586 219.856C820.454 219.856 821.97 219.23 823.132 217.977V207.039ZM848.698 227H839.88V177.986H848.698V227ZM879.631 206.287H879.836V177.986H888.723V227H882.707L867.531 198.802H867.292V227H858.474V177.986H864.421L879.631 206.287ZM921.296 207.039H914.562V199.896H929.704V222.454C926.013 226.146 921.319 227.991 915.622 227.991C909.857 227.991 905.288 225.861 901.916 221.6C898.498 217.361 896.789 211.038 896.789 202.63C896.789 194.29 898.589 187.944 902.189 183.592C905.767 179.262 910.427 177.098 916.169 177.098C918.265 177.098 920.384 177.36 922.526 177.884C924.6 178.431 926.195 179.126 927.312 179.969L925.021 187.454C922.925 185.905 920.419 185.13 917.502 185.13C914.016 185.13 911.156 186.588 908.923 189.505C906.713 192.399 905.607 196.774 905.607 202.63C905.607 208.395 906.576 212.713 908.513 215.584C910.45 218.432 913.195 219.856 916.75 219.856C918.618 219.856 920.134 219.23 921.296 217.977V207.039ZM942.043 227.923C940.585 227.923 939.354 227.387 938.352 226.316C937.303 225.268 936.779 224.049 936.779 222.659C936.779 221.246 937.303 220.05 938.352 219.07C939.4 218.068 940.63 217.566 942.043 217.566C943.41 217.566 944.629 218.068 945.7 219.07C946.726 220.073 947.238 221.269 947.238 222.659C947.238 224.049 946.726 225.268 945.7 226.316C944.652 227.387 943.433 227.923 942.043 227.923Z" fill="#FFFF7A"/>
<path d="M523.137 227L522.167 226.755L521.852 228H523.137V227ZM535.544 177.986V176.986H534.766L534.575 177.741L535.544 177.986ZM546.584 177.986L547.553 177.741L547.362 176.986H546.584V177.986ZM558.991 227V228H560.276L559.961 226.755L558.991 227ZM550.104 227L549.128 227.217L549.302 228H550.104V227ZM548.054 217.771L549.03 217.555L548.856 216.771H548.054V217.771ZM534.074 217.771V216.771H533.272L533.098 217.555L534.074 217.771ZM532.023 227V228H532.826L533 227.217L532.023 227ZM540.91 188.514V187.514H540.119L539.937 188.284L540.91 188.514ZM535.681 210.628L534.708 210.398L534.417 211.628H535.681V210.628ZM546.447 210.628V211.628H547.713L547.42 210.396L546.447 210.628ZM541.184 188.514L542.156 188.282L541.974 187.514H541.184V188.514ZM523.137 227L524.106 227.245L536.513 178.232L535.544 177.986L534.575 177.741L522.167 226.755L523.137 227ZM535.544 177.986V178.986H546.584V177.986V176.986H535.544V177.986ZM546.584 177.986L545.615 178.232L558.022 227.245L558.991 227L559.961 226.755L547.553 177.741L546.584 177.986ZM558.991 227V226H550.104V227V228H558.991V227ZM550.104 227L551.081 226.783L549.03 217.555L548.054 217.771L547.078 217.988L549.128 227.217L550.104 227ZM548.054 217.771V216.771H534.074V217.771V218.771H548.054V217.771ZM534.074 217.771L533.098 217.555L531.047 226.783L532.023 227L533 227.217L535.05 217.988L534.074 217.771ZM532.023 227V226H523.137V227V228H532.023V227ZM540.91 188.514L539.937 188.284L534.708 210.398L535.681 210.628L536.654 210.858L541.883 188.744L540.91 188.514ZM535.681 210.628V211.628H546.447V210.628V209.628H535.681V210.628ZM546.447 210.628L547.42 210.396L542.156 188.282L541.184 188.514L540.211 188.745L545.474 210.859L546.447 210.628ZM541.184 188.514V187.514H540.91V188.514V189.514H541.184V188.514ZM563.981 177.986V176.986H562.981V177.986H563.981ZM572.8 177.986H573.8V176.986H572.8V177.986ZM572.8 218.934H571.8V219.934H572.8V218.934ZM589.753 218.934H590.753V217.934H589.753V218.934ZM589.753 227V228H590.753V227H589.753ZM563.981 227H562.981V228H563.981V227ZM563.981 177.986V178.986H572.8V177.986V176.986H563.981V177.986ZM572.8 177.986H571.8V218.934H572.8H573.8V177.986H572.8ZM572.8 218.934V219.934H589.753V218.934V217.934H572.8V218.934ZM589.753 218.934H588.753V227H589.753H590.753V218.934H589.753ZM589.753 227V226H563.981V227V228H589.753V227ZM563.981 227H564.981V177.986H563.981H562.981V227H563.981ZM636.545 201.023L636.113 200.121L635.545 200.393V201.023H636.545ZM636.545 201.229H635.545V201.922L636.194 202.165L636.545 201.229ZM642.561 205.877L641.734 206.44L641.737 206.444L642.561 205.877ZM640.886 223.206L640.188 222.49L640.188 222.49L640.886 223.206ZM614.704 227H613.704V228H614.704V227ZM614.704 177.986V176.986H613.704V177.986H614.704ZM639.587 181.473L640.281 180.752L640.275 180.747L640.27 180.742L639.587 181.473ZM641.467 196.854L640.636 196.296L640.635 196.299L641.467 196.854ZM623.522 219.31H622.522V220.31H623.522V219.31ZM634.084 217.327L633.351 216.647L633.345 216.653L633.339 216.66L634.084 217.327ZM623.522 205.364V204.364H622.522V205.364H623.522ZM623.522 185.711V184.711H622.522V185.711H623.522ZM623.522 199.144H622.522V200.144H623.522V199.144ZM632.99 187.591L632.223 188.232L632.224 188.234L632.99 187.591ZM636.545 201.023H635.545V201.229H636.545H637.545V201.023H636.545ZM636.545 201.229L636.194 202.165C638.563 203.053 640.398 204.478 641.734 206.44L642.561 205.877L643.387 205.314C641.806 202.992 639.631 201.318 636.896 200.292L636.545 201.229ZM642.561 205.877L641.737 206.444C643.064 208.372 643.748 210.708 643.748 213.499H644.748H645.748C645.748 210.366 644.974 207.62 643.384 205.31L642.561 205.877ZM644.748 213.499H643.748C643.748 217.225 642.549 220.192 640.188 222.49L640.886 223.206L641.583 223.923C644.373 221.207 645.748 217.703 645.748 213.499H644.748ZM640.886 223.206L640.188 222.49C637.799 224.816 634.744 226 630.939 226V227V228C635.201 228 638.777 226.655 641.583 223.923L640.886 223.206ZM630.939 227V226H614.704V227V228H630.939V227ZM614.704 227H615.704V177.986H614.704H613.704V227H614.704ZM614.704 177.986V178.986H630.051V177.986V176.986H614.704V177.986ZM630.051 177.986V178.986C633.709 178.986 636.631 180.076 638.904 182.203L639.587 181.473L640.27 180.742C637.575 178.221 634.14 176.986 630.051 176.986V177.986ZM639.587 181.473L638.893 182.193C641.14 184.357 642.278 187.13 642.278 190.599H643.278H644.278C644.278 186.639 642.955 183.328 640.281 180.752L639.587 181.473ZM643.278 190.599H642.278C642.278 192.789 641.723 194.676 640.636 196.296L641.467 196.854L642.297 197.411C643.626 195.43 644.278 193.148 644.278 190.599H643.278ZM641.467 196.854L640.635 196.299C639.558 197.913 638.062 199.189 636.113 200.121L636.545 201.023L636.976 201.926C639.22 200.852 641.005 199.348 642.299 197.408L641.467 196.854ZM623.522 219.31V220.31H629.401V219.31V218.31H623.522V219.31ZM629.401 219.31V220.31C631.593 220.31 633.435 219.549 634.829 217.995L634.084 217.327L633.339 216.66C632.363 217.749 631.083 218.31 629.401 218.31V219.31ZM634.084 217.327L634.817 218.008C636.205 216.512 636.861 214.578 636.861 212.303H635.861H634.861C634.861 214.175 634.332 215.59 633.351 216.647L634.084 217.327ZM635.861 212.303H636.861C636.861 209.99 636.209 208.036 634.811 206.557L634.084 207.244L633.357 207.931C634.329 208.958 634.861 210.378 634.861 212.303H635.861ZM634.084 207.244L634.811 206.557C633.413 205.079 631.576 204.364 629.401 204.364V205.364V206.364C631.101 206.364 632.385 206.903 633.357 207.931L634.084 207.244ZM629.401 205.364V204.364H623.522V205.364V206.364H629.401V205.364ZM623.522 205.364H622.522V219.31H623.522H624.522V205.364H623.522ZM628.923 185.711V184.711H623.522V185.711V186.711H628.923V185.711ZM623.522 185.711H622.522V199.144H623.522H624.522V185.711H623.522ZM623.522 199.144V200.144H628.923V199.144V198.144H623.522V199.144ZM628.923 199.144V200.144C630.864 200.144 632.499 199.371 633.756 197.872L632.99 197.229L632.224 196.587C631.34 197.64 630.263 198.144 628.923 198.144V199.144ZM632.99 197.229L633.756 197.872C635.002 196.388 635.597 194.542 635.597 192.41H634.597H633.597C633.597 194.152 633.12 195.519 632.224 196.587L632.99 197.229ZM634.597 192.41H635.597C635.597 190.278 635.002 188.433 633.756 186.948L632.99 187.591L632.224 188.234C633.12 189.301 633.597 190.668 633.597 192.41H634.597ZM632.99 187.591L633.757 186.949C632.515 185.464 630.876 184.711 628.923 184.711V185.711V186.711C630.296 186.711 631.369 187.211 632.223 188.232L632.99 187.591ZM678.552 206.697V207.697H679.552V206.697H678.552ZM661.735 206.697V205.697H660.735V206.697H661.735ZM661.735 218.934H660.735V219.934H661.735V218.934ZM680.568 218.934H681.568V217.934H680.568V218.934ZM680.568 227V228H681.568V227H680.568ZM652.917 227H651.917V228H652.917V227ZM652.917 177.986V176.986H651.917V177.986H652.917ZM680.021 177.986H681.021V176.986H680.021V177.986ZM680.021 186.121V187.121H681.021V186.121H680.021ZM661.735 186.121V185.121H660.735V186.121H661.735ZM661.735 199.417H660.735V200.417H661.735V199.417ZM678.552 199.417H679.552V198.417H678.552V199.417ZM678.552 206.697V205.697H661.735V206.697V207.697H678.552V206.697ZM661.735 206.697H660.735V218.934H661.735H662.735V206.697H661.735ZM661.735 218.934V219.934H680.568V218.934V217.934H661.735V218.934ZM680.568 218.934H679.568V227H680.568H681.568V218.934H680.568ZM680.568 227V226H652.917V227V228H680.568V227ZM652.917 227H653.917V177.986H652.917H651.917V227H652.917ZM652.917 177.986V178.986H680.021V177.986V176.986H652.917V177.986ZM680.021 177.986H679.021V186.121H680.021H681.021V177.986H680.021ZM680.021 186.121V185.121H661.735V186.121V187.121H680.021V186.121ZM661.735 186.121H660.735V199.417H661.735H662.735V186.121H661.735ZM661.735 199.417V200.417H678.552V199.417V198.417H661.735V199.417ZM678.552 199.417H677.552V206.697H678.552H679.552V199.417H678.552ZM688.601 177.986V176.986H687.601V177.986H688.601ZM697.419 177.986H698.419V176.986H697.419V177.986ZM697.419 218.934H696.419V219.934H697.419V218.934ZM714.372 218.934H715.372V217.934H714.372V218.934ZM714.372 227V228H715.372V227H714.372ZM688.601 227H687.601V228H688.601V227ZM688.601 177.986V178.986H697.419V177.986V176.986H688.601V177.986ZM697.419 177.986H696.419V218.934H697.419H698.419V177.986H697.419ZM697.419 218.934V219.934H714.372V218.934V217.934H697.419V218.934ZM714.372 218.934H713.372V227H714.372H715.372V218.934H714.372ZM714.372 227V226H688.601V227V228H714.372V227ZM688.601 227H689.601V177.986H688.601H687.601V227H688.601ZM747.492 221.634L746.695 221.03L746.693 221.032L747.492 221.634ZM721.652 221.634L722.449 221.03L722.444 221.023L721.652 221.634ZM734.572 177.098V178.098C739.645 178.098 743.645 180.054 746.664 183.995L747.458 183.387L748.252 182.778C744.846 178.334 740.254 176.098 734.572 176.098V177.098ZM747.458 183.387L746.664 183.995C749.683 187.934 751.277 194.043 751.277 202.493H752.277H753.277C753.277 193.854 751.659 187.224 748.252 182.778L747.458 183.387ZM752.277 202.493H751.277C751.277 210.944 749.694 217.067 746.695 221.03L747.492 221.634L748.29 222.237C751.67 217.77 753.277 211.132 753.277 202.493H752.277ZM747.492 221.634L746.693 221.032C743.696 225.014 739.699 226.991 734.606 226.991V227.991V228.991C740.314 228.991 744.908 226.73 748.291 222.235L747.492 221.634ZM734.606 227.991V226.991C729.489 226.991 725.469 225.013 722.449 221.03L721.652 221.634L720.855 222.238C724.262 226.731 728.878 228.991 734.606 228.991V227.991ZM721.652 221.634L722.444 221.023C719.404 217.084 717.799 210.966 717.799 202.493H716.799H715.799C715.799 211.156 717.429 217.798 720.861 222.245L721.652 221.634ZM716.799 202.493H717.799C717.799 194.043 719.393 187.934 722.412 183.995L721.618 183.387L720.824 182.778C717.418 187.224 715.799 193.854 715.799 202.493H716.799ZM721.618 183.387L722.412 183.995C725.43 180.057 729.45 178.098 734.572 178.098V177.098V176.098C728.848 176.098 724.232 178.331 720.824 182.778L721.618 183.387ZM734.572 185.13V184.13C732.921 184.13 731.43 184.536 730.139 185.377C728.852 186.215 727.819 187.448 727.017 189.015C725.427 192.121 724.686 196.653 724.686 202.493H725.686H726.686C726.686 196.758 727.425 192.608 728.797 189.926C729.476 188.6 730.295 187.662 731.23 187.053C732.16 186.447 733.261 186.13 734.572 186.13V185.13ZM725.686 202.493H724.686C724.686 208.334 725.427 212.865 727.017 215.971C727.819 217.539 728.852 218.771 730.139 219.609C731.43 220.451 732.921 220.856 734.572 220.856V219.856V218.856C733.261 218.856 732.16 218.539 731.23 217.933C730.295 217.324 729.476 216.387 728.797 215.06C727.425 212.378 726.686 208.228 726.686 202.493H725.686ZM734.572 219.856V220.856C736.224 220.856 737.714 220.451 739.006 219.609C740.293 218.771 741.325 217.539 742.127 215.971C743.717 212.865 744.459 208.334 744.459 202.493H743.459H742.459C742.459 208.228 741.72 212.378 740.347 215.06C739.668 216.387 738.849 217.324 737.914 217.933C736.985 218.539 735.883 218.856 734.572 218.856V219.856ZM743.459 202.493H744.459C744.459 196.653 743.717 192.121 742.127 189.015C741.325 187.448 740.293 186.215 739.006 185.377C737.714 184.536 736.224 184.13 734.572 184.13V185.13V186.13C735.883 186.13 736.985 186.447 737.914 187.053C738.849 187.662 739.668 188.6 740.347 189.926C741.72 192.608 742.459 196.758 742.459 202.493H743.459ZM781.467 206.287L780.586 206.761L780.869 207.287H781.467V206.287ZM781.672 206.287V207.287H782.672V206.287H781.672ZM781.672 177.986V176.986H780.672V177.986H781.672ZM790.559 177.986H791.559V176.986H790.559V177.986ZM790.559 227V228H791.559V227H790.559ZM784.543 227L783.662 227.474L783.946 228H784.543V227ZM769.367 198.802L770.248 198.328L769.965 197.802H769.367V198.802ZM769.128 198.802V197.802H768.128V198.802H769.128ZM769.128 227V228H770.128V227H769.128ZM760.31 227H759.31V228H760.31V227ZM760.31 177.986V176.986H759.31V177.986H760.31ZM766.257 177.986L767.138 177.513L766.855 176.986H766.257V177.986ZM781.467 206.287V207.287H781.672V206.287V205.287H781.467V206.287ZM781.672 206.287H782.672V177.986H781.672H780.672V206.287H781.672ZM781.672 177.986V178.986H790.559V177.986V176.986H781.672V177.986ZM790.559 177.986H789.559V227H790.559H791.559V177.986H790.559ZM790.559 227V226H784.543V227V228H790.559V227ZM784.543 227L785.424 226.526L770.248 198.328L769.367 198.802L768.487 199.276L783.662 227.474L784.543 227ZM769.367 198.802V197.802H769.128V198.802V199.802H769.367V198.802ZM769.128 198.802H768.128V227H769.128H770.128V198.802H769.128ZM769.128 227V226H760.31V227V228H769.128V227ZM760.31 227H761.31V177.986H760.31H759.31V227H760.31ZM760.31 177.986V178.986H766.257V177.986V176.986H760.31V177.986ZM766.257 177.986L765.376 178.46L780.586 206.761L781.467 206.287L782.348 205.814L767.138 177.513L766.257 177.986ZM823.132 207.039H824.132V206.039H823.132V207.039ZM816.398 207.039H815.398V208.039H816.398V207.039ZM816.398 199.896V198.896H815.398V199.896H816.398ZM831.54 199.896H832.54V198.896H831.54V199.896ZM831.54 222.454L832.247 223.161L832.54 222.868V222.454H831.54ZM803.752 221.6L804.536 220.979L804.53 220.972L803.752 221.6ZM804.025 183.592L804.796 184.229L804.796 184.229L804.025 183.592ZM824.362 177.884L824.617 176.917L824.609 176.915L824.6 176.912L824.362 177.884ZM829.147 179.969L830.104 180.261L830.308 179.592L829.75 179.171L829.147 179.969ZM826.857 187.454L826.263 188.258L827.4 189.099L827.814 187.747L826.857 187.454ZM810.759 189.505L809.965 188.897L809.964 188.898L810.759 189.505ZM810.349 215.584L809.52 216.143L809.522 216.146L810.349 215.584ZM823.132 217.977L823.865 218.657L824.132 218.369V217.977H823.132ZM823.132 207.039V206.039H816.398V207.039V208.039H823.132V207.039ZM816.398 207.039H817.398V199.896H816.398H815.398V207.039H816.398ZM816.398 199.896V200.896H831.54V199.896V198.896H816.398V199.896ZM831.54 199.896H830.54V222.454H831.54H832.54V199.896H831.54ZM831.54 222.454L830.833 221.747C827.347 225.233 822.916 226.991 817.458 226.991V227.991V228.991C823.393 228.991 828.35 227.058 832.247 223.161L831.54 222.454ZM817.458 227.991V226.991C811.977 226.991 807.706 224.984 804.536 220.979L803.752 221.6L802.968 222.22C806.543 226.737 811.409 228.991 817.458 228.991V227.991ZM803.752 221.6L804.53 220.972C801.315 216.985 799.625 210.928 799.625 202.63H798.625H797.625C797.625 211.149 799.352 217.737 802.974 222.227L803.752 221.6ZM798.625 202.63H799.625C799.625 194.415 801.4 188.334 804.796 184.229L804.025 183.592L803.255 182.954C799.45 187.554 797.625 194.165 797.625 202.63H798.625ZM804.025 183.592L804.796 184.229C808.179 180.135 812.553 178.098 818.005 178.098V177.098V176.098C811.972 176.098 807.027 178.39 803.255 182.955L804.025 183.592ZM818.005 177.098V178.098C820.017 178.098 822.056 178.349 824.125 178.855L824.362 177.884L824.6 176.912C822.384 176.37 820.185 176.098 818.005 176.098V177.098ZM824.362 177.884L824.107 178.851C826.115 179.38 827.572 180.032 828.545 180.767L829.147 179.969L829.75 179.171C828.49 178.219 826.757 177.481 824.617 176.917L824.362 177.884ZM829.147 179.969L828.191 179.676L825.901 187.162L826.857 187.454L827.814 187.747L830.104 180.261L829.147 179.969ZM826.857 187.454L827.452 186.65C825.163 184.958 822.442 184.13 819.338 184.13V185.13V186.13C822.067 186.13 824.359 186.851 826.263 188.258L826.857 187.454ZM819.338 185.13V184.13C815.521 184.13 812.375 185.749 809.965 188.897L810.759 189.505L811.553 190.113C813.608 187.428 816.182 186.13 819.338 186.13V185.13ZM810.759 189.505L809.964 188.898C807.561 192.044 806.443 196.678 806.443 202.63H807.443H808.443C808.443 196.87 809.536 192.754 811.553 190.112L810.759 189.505ZM807.443 202.63H806.443C806.443 208.475 807.419 213.03 809.52 216.143L810.349 215.584L811.178 215.025C809.404 212.396 808.443 208.315 808.443 202.63H807.443ZM810.349 215.584L809.522 216.146C811.652 219.279 814.713 220.856 818.586 220.856V219.856V218.856C815.35 218.856 812.919 217.586 811.176 215.022L810.349 215.584ZM818.586 219.856V220.856C820.704 220.856 822.495 220.134 823.865 218.657L823.132 217.977L822.399 217.297C821.444 218.326 820.205 218.856 818.586 218.856V219.856ZM823.132 217.977H824.132V207.039H823.132H822.132V217.977H823.132ZM848.698 227V228H849.698V227H848.698ZM839.88 227H838.88V228H839.88V227ZM839.88 177.986V176.986H838.88V177.986H839.88ZM848.698 177.986H849.698V176.986H848.698V177.986ZM848.698 227V226H839.88V227V228H848.698V227ZM839.88 227H840.88V177.986H839.88H838.88V227H839.88ZM839.88 177.986V178.986H848.698V177.986V176.986H839.88V177.986ZM848.698 177.986H847.698V227H848.698H849.698V177.986H848.698ZM879.631 206.287L878.75 206.761L879.033 207.287H879.631V206.287ZM879.836 206.287V207.287H880.836V206.287H879.836ZM879.836 177.986V176.986H878.836V177.986H879.836ZM888.723 177.986H889.723V176.986H888.723V177.986ZM888.723 227V228H889.723V227H888.723ZM882.707 227L881.826 227.474L882.11 228H882.707V227ZM867.531 198.802L868.412 198.328L868.129 197.802H867.531V198.802ZM867.292 198.802V197.802H866.292V198.802H867.292ZM867.292 227V228H868.292V227H867.292ZM858.474 227H857.474V228H858.474V227ZM858.474 177.986V176.986H857.474V177.986H858.474ZM864.421 177.986L865.302 177.513L865.019 176.986H864.421V177.986ZM879.631 206.287V207.287H879.836V206.287V205.287H879.631V206.287ZM879.836 206.287H880.836V177.986H879.836H878.836V206.287H879.836ZM879.836 177.986V178.986H888.723V177.986V176.986H879.836V177.986ZM888.723 177.986H887.723V227H888.723H889.723V177.986H888.723ZM888.723 227V226H882.707V227V228H888.723V227ZM882.707 227L883.588 226.526L868.412 198.328L867.531 198.802L866.651 199.276L881.826 227.474L882.707 227ZM867.531 198.802V197.802H867.292V198.802V199.802H867.531V198.802ZM867.292 198.802H866.292V227H867.292H868.292V198.802H867.292ZM867.292 227V226H858.474V227V228H867.292V227ZM858.474 227H859.474V177.986H858.474H857.474V227H858.474ZM858.474 177.986V178.986H864.421V177.986V176.986H858.474V177.986ZM864.421 177.986L863.54 178.46L878.75 206.761L879.631 206.287L880.512 205.814L865.302 177.513L864.421 177.986ZM921.296 207.039H922.296V206.039H921.296V207.039ZM914.562 207.039H913.562V208.039H914.562V207.039ZM914.562 199.896V198.896H913.562V199.896H914.562ZM929.704 199.896H930.704V198.896H929.704V199.896ZM929.704 222.454L930.411 223.161L930.704 222.868V222.454H929.704ZM901.916 221.6L902.7 220.979L902.694 220.972L901.916 221.6ZM902.189 183.592L902.96 184.229L902.96 184.229L902.189 183.592ZM922.526 177.884L922.781 176.917L922.773 176.915L922.764 176.912L922.526 177.884ZM927.312 179.969L928.268 180.261L928.472 179.592L927.914 179.171L927.312 179.969ZM925.021 187.454L924.427 188.258L925.564 189.099L925.978 187.747L925.021 187.454ZM908.923 189.505L908.129 188.897L908.128 188.898L908.923 189.505ZM908.513 215.584L907.684 216.143L907.686 216.146L908.513 215.584ZM921.296 217.977L922.029 218.657L922.296 218.369V217.977H921.296ZM921.296 207.039V206.039H914.562V207.039V208.039H921.296V207.039ZM914.562 207.039H915.562V199.896H914.562H913.562V207.039H914.562ZM914.562 199.896V200.896H929.704V199.896V198.896H914.562V199.896ZM929.704 199.896H928.704V222.454H929.704H930.704V199.896H929.704ZM929.704 222.454L928.997 221.747C925.511 225.233 921.08 226.991 915.622 226.991V227.991V228.991C921.557 228.991 926.514 227.058 930.411 223.161L929.704 222.454ZM915.622 227.991V226.991C910.141 226.991 905.87 224.984 902.7 220.979L901.916 221.6L901.132 222.22C904.707 226.737 909.573 228.991 915.622 228.991V227.991ZM901.916 221.6L902.694 220.972C899.48 216.985 897.789 210.928 897.789 202.63H896.789H895.789C895.789 211.149 897.517 217.737 901.138 222.227L901.916 221.6ZM896.789 202.63H897.789C897.789 194.415 899.564 188.334 902.96 184.229L902.189 183.592L901.419 182.954C897.614 187.554 895.789 194.165 895.789 202.63H896.789ZM902.189 183.592L902.96 184.229C906.343 180.135 910.717 178.098 916.169 178.098V177.098V176.098C910.136 176.098 905.191 178.39 901.419 182.955L902.189 183.592ZM916.169 177.098V178.098C918.181 178.098 920.221 178.349 922.289 178.855L922.526 177.884L922.764 176.912C920.548 176.37 918.349 176.098 916.169 176.098V177.098ZM922.526 177.884L922.271 178.851C924.279 179.38 925.736 180.032 926.709 180.767L927.312 179.969L927.914 179.171C926.654 178.219 924.921 177.481 922.781 176.917L922.526 177.884ZM927.312 179.969L926.355 179.676L924.065 187.162L925.021 187.454L925.978 187.747L928.268 180.261L927.312 179.969ZM925.021 187.454L925.616 186.65C923.327 184.958 920.606 184.13 917.502 184.13V185.13V186.13C920.231 186.13 922.523 186.851 924.427 188.258L925.021 187.454ZM917.502 185.13V184.13C913.685 184.13 910.539 185.749 908.129 188.897L908.923 189.505L909.717 190.113C911.773 187.428 914.346 186.13 917.502 186.13V185.13ZM908.923 189.505L908.128 188.898C905.725 192.044 904.607 196.678 904.607 202.63H905.607H906.607C906.607 196.87 907.7 192.754 909.718 190.112L908.923 189.505ZM905.607 202.63H904.607C904.607 208.475 905.583 213.03 907.684 216.143L908.513 215.584L909.342 215.025C907.568 212.396 906.607 208.315 906.607 202.63H905.607ZM908.513 215.584L907.686 216.146C909.816 219.279 912.877 220.856 916.75 220.856V219.856V218.856C913.514 218.856 911.083 217.586 909.34 215.022L908.513 215.584ZM916.75 219.856V220.856C918.868 220.856 920.659 220.134 922.029 218.657L921.296 217.977L920.563 217.297C919.609 218.326 918.369 218.856 916.75 218.856V219.856ZM921.296 217.977H922.296V207.039H921.296H920.296V217.977H921.296ZM938.352 226.316L939.082 225.633L939.07 225.621L939.059 225.609L938.352 226.316ZM938.352 219.07L939.034 219.801L939.043 219.793L938.352 219.07ZM945.7 219.07L946.399 218.355L946.392 218.348L946.384 218.34L945.7 219.07ZM945.7 226.316L946.415 227.016L946.415 227.016L945.7 226.316ZM942.043 227.923V226.923C940.863 226.923 939.896 226.503 939.082 225.633L938.352 226.316L937.622 227C938.812 228.271 940.306 228.923 942.043 228.923V227.923ZM938.352 226.316L939.059 225.609C938.184 224.735 937.779 223.765 937.779 222.659H936.779H935.779C935.779 224.333 936.423 225.802 937.644 227.024L938.352 226.316ZM936.779 222.659H937.779C937.779 221.528 938.185 220.595 939.034 219.801L938.352 219.07L937.669 218.34C936.422 219.505 935.779 220.965 935.779 222.659H936.779ZM938.352 219.07L939.043 219.793C939.91 218.963 940.895 218.566 942.043 218.566V217.566V216.566C940.365 216.566 938.889 217.172 937.66 218.348L938.352 219.07ZM942.043 217.566V218.566C943.137 218.566 944.116 218.957 945.017 219.8L945.7 219.07L946.384 218.34C945.142 217.178 943.684 216.566 942.043 216.566V217.566ZM945.7 219.07L945.001 219.785C945.841 220.606 946.238 221.548 946.238 222.659H947.238H948.238C948.238 220.991 947.61 219.539 946.399 218.355L945.7 219.07ZM947.238 222.659H946.238C946.238 223.772 945.839 224.744 944.985 225.617L945.7 226.316L946.415 227.016C947.612 225.792 948.238 224.326 948.238 222.659H947.238ZM945.7 226.316L944.986 225.617C944.109 226.512 943.142 226.923 942.043 226.923V227.923V228.923C943.724 228.923 945.195 228.262 946.415 227.016L945.7 226.316Z" fill="#FFFF7A" mask="url(#path-4-outside-2_379_3)"/>
<path d="M513.278 25.0242C490.119 25.0242 471.247 44.0257 471.247 70.9933C471.247 97.9609 490.142 117.081 513.278 117.081C536.414 117.081 555.08 97.9529 555.08 70.9933C555.08 44.0336 536.529 25.0242 513.278 25.0242Z" fill="#1A1A1A"/>
<path d="M567.959 91.3709C571.312 91.3709 574.176 92.5733 576.549 94.9861C578.922 97.3989 580.109 100.294 580.109 103.672C580.109 107.05 578.899 110.111 576.488 112.611C574.076 115.103 571.228 116.353 567.959 116.353C564.69 116.353 561.865 115.103 559.492 112.611C557.118 110.119 555.932 107.137 555.932 103.672C555.932 100.207 557.118 97.3989 559.492 94.9861C561.865 92.5733 564.69 91.3709 567.959 91.3709ZM575.561 86.1736H560.364L557.072 25.7595H578.976L575.561 86.1736Z" fill="#1A1A1A"/>
<path d="M49.5884 62.56C56.9841 67.2035 61.991 71.6019 64.6094 75.7708C67.2354 79.9398 68.5445 84.8365 68.5445 90.461C68.5445 98.3875 65.9798 104.724 60.858 109.463C55.7285 114.209 48.7156 116.574 39.8118 116.574C29.3997 116.574 20.8557 114.051 14.1797 108.996L18.4747 89.6541C25.0741 94.5429 31.329 96.9873 37.2547 96.9873C43.5326 96.9873 46.6715 94.8119 46.6715 90.461C46.6715 88.6969 45.9136 86.9328 44.4053 85.1608C42.8971 83.3968 39.9113 81.158 35.4632 78.4447C28.4657 74.339 23.4434 70.0198 20.381 65.479C17.3186 60.9383 15.7874 55.6302 15.7874 49.5548C15.7874 42 18.3675 35.9325 23.5352 31.3522C28.703 26.7798 35.5627 24.4937 44.1068 24.4937C52.6508 24.4937 60.0235 26.0916 66.2248 29.2954L63.7825 48.9456C61.991 47.7511 59.4722 46.5962 56.2108 45.4649C52.9494 44.3337 49.9712 43.772 47.2687 43.772C41.0674 43.772 37.9897 45.9079 38.0279 50.1797C38.0279 52.189 38.9849 54.1509 40.8913 56.0653C42.7976 57.9718 45.6992 60.1393 49.5961 62.5679L49.5884 62.56Z" fill="#1A1A1A"/>
<path d="M93.305 26.3452H120.79L139.332 114.676H117.337L115.308 101.434H98.9168L96.8267 114.676H74.8848L93.305 26.3452ZM101.826 83.3814H112.322L107.315 53.1388H106.718L101.826 83.3814Z" fill="#1A1A1A"/>
<path d="M163.364 58.3124L172.13 26.3452H193.115L174.098 87.2023V114.676H152.217V86.2767L133.314 26.3452H154.177L162.943 58.3124H163.356H163.364Z" fill="#1A1A1A"/>
<path d="M267.998 60.5274V26.3452H289.641V114.676H267.998V82.4005H256.131V114.676H234.549V26.3452H256.131V60.5353H267.998V60.5274Z" fill="#1A1A1A"/>
<path d="M326.481 81.2297V94.1004H354.563V114.676H304.608V26.3452H353.79V46.921H326.489V62.687H351.111V81.2297H326.489H326.481Z" fill="#1A1A1A"/>
<path d="M388.48 26.3452V94.1004H413.339V114.676H366.6V26.3452H388.48Z" fill="#1A1A1A"/>
<path d="M445.232 26.3452V94.1004H470.091V114.676H423.352V26.3452H445.232Z" fill="#1A1A1A"/>
<path d="M528.301 49.8394C532.274 49.8394 535.52 53.0986 535.52 57.1409C535.52 61.1833 532.297 64.4425 528.301 64.4425C524.304 64.4425 521.081 61.1833 521.081 57.1409C521.081 53.0986 524.304 49.8394 528.301 49.8394Z" fill="white"/>
<path d="M498.03 49.8394C502.004 49.8394 505.25 53.0986 505.25 57.1409C505.25 61.1833 502.026 64.4425 498.03 64.4425C494.034 64.4425 490.811 61.1833 490.811 57.1409C490.811 53.0986 494.034 49.8394 498.03 49.8394Z" fill="white"/>
<path d="M513.21 100.223C502.17 100.223 493.381 92.0985 492.194 81.3479H500.639C501.726 87.4391 506.771 91.7663 513.21 91.7663C519.649 91.7663 524.61 87.4391 525.697 81.3479H534.126C532.939 92.1223 524.189 100.223 513.21 100.223Z" fill="white"/>
</svg>
