<svg width="42" height="37" viewBox="0 0 42 37" fill="none" xmlns="http://www.w3.org/2000/svg">
<path d="M12.0665 17.7852C13.4213 21.8817 15.2971 25.7903 17.6853 29.4003C18.1629 30.1257 19.4048 30.2708 19.8477 29.4003C22.9046 23.4008 26.2307 17.5377 29.8087 11.8198C30.6511 10.4714 28.4887 9.23396 27.6463 10.5824C24.0683 16.3003 20.7509 22.1633 17.6853 28.1628H19.8477C17.5724 24.7236 15.7661 21.0368 14.4808 17.1366C13.9858 15.6346 11.5715 16.2832 12.0665 17.7938V17.7852Z" fill="black"/>
<path d="M13.5539 0.0371707C9.8818 1.03292 6.04932 2.39778 3.49152 5.41077C1.07722 8.24349 -0.0877156 12.029 0.00514186 15.7545C0.106441 19.7117 1.59216 23.5488 3.72788 26.8193C5.86361 30.0898 8.65777 33.0599 12.0682 34.9398C19.1085 38.8198 28.1072 36.8283 34.3624 32.2187C40.1365 27.961 43.9183 20.8534 40.9806 13.6858C37.4352 5.03307 27.8117 2.08875 19.3026 3.15317C17.7662 3.34202 17.7494 5.8228 19.3026 5.62537C25.9968 4.78413 33.5942 6.26917 37.5533 12.3638C39.2332 14.9476 40.0352 18.0808 39.3852 21.1453C38.7352 24.2098 36.9455 26.7249 34.7254 28.7679C29.8377 33.2659 22.1052 35.9355 15.6643 33.841C12.4227 32.7852 9.71297 30.4933 7.54348 27.8837C5.37399 25.2742 3.53373 21.9951 2.78243 18.5357C2.03112 15.0764 2.52074 11.1277 4.52139 8.0804C6.71621 4.74121 10.5656 3.41069 14.2039 2.43211C15.7149 2.02866 15.0734 -0.357694 13.5539 0.0457547V0.0371707Z" fill="black"/>
</svg>
