<svg width="433" height="214" viewBox="0 0 433 214" fill="none" xmlns="http://www.w3.org/2000/svg">
<path d="M19.7351 0.804199L13.3145 10.4156L20.7484 24.3218H18.0211L11.4585 12.5346H11.3638L7.80309 17.4727V24.3218H5.35986V0.804199H7.80309V13.9725H7.89779L17.0362 0.804199H19.7256H19.7351Z" fill="black"/>
<path d="M24.2144 0.51084C24.5364 0.17028 24.9436 0 25.436 0C25.9285 0 26.3357 0.17028 26.6671 0.51084C26.9985 0.8514 27.1595 1.25818 27.1595 1.72172C27.1595 2.18526 26.9985 2.59204 26.6671 2.91368C26.3357 3.23532 25.9285 3.39614 25.436 3.39614C24.9436 3.39614 24.5364 3.23532 24.2144 2.91368C23.8924 2.59204 23.7314 2.19472 23.7314 1.72172C23.7314 1.24872 23.8924 0.8514 24.2144 0.51084ZM24.2712 24.3122V7.4261H26.5819V24.3122H24.2712Z" fill="black"/>
<path d="M37.936 22.6094C38.722 22.6094 39.508 22.3824 40.2846 21.9378L40.5308 24.019C39.4796 24.492 38.5421 24.7285 37.7088 24.7285C34.4133 24.7285 32.7655 22.8932 32.7655 19.2228V9.45057H29.6973V7.43559H32.8034L33.3621 1.99609H35.0856V7.43559H40.5024V9.45057H35.0856V18.8444C35.0856 21.3607 36.0421 22.6189 37.9455 22.6189L37.936 22.6094Z" fill="black"/>
<path d="M52.6805 20.0838C52.6805 21.4933 52.207 22.6191 51.2506 23.461C50.3036 24.303 49.0725 24.7192 47.5763 24.7192C45.6066 24.7192 43.9683 24.1138 42.6709 22.9029L43.2296 21.0203C43.7221 21.5312 44.3471 21.9569 45.1141 22.2785C45.8812 22.6002 46.6198 22.7704 47.3301 22.7704C48.296 22.7704 49.0631 22.5339 49.6502 22.0609C50.2373 21.5879 50.5309 20.9541 50.5309 20.1406C50.5309 19.7338 50.4457 19.3554 50.2563 19.0054C50.0763 18.6459 49.7638 18.2864 49.3093 17.9175C48.8547 17.5485 48.5043 17.2553 48.2392 17.0566C47.974 16.8579 47.5289 16.5552 46.9039 16.1484C46.099 15.6092 45.474 15.1741 45.0289 14.843C44.5838 14.5119 44.1577 14.0105 43.7315 13.3483C43.3054 12.6861 43.0876 11.9766 43.0876 11.2103C43.0876 9.95213 43.5516 8.93991 44.4702 8.17365C45.3887 7.40739 46.5725 7.01953 48.0308 7.01953C49.7165 7.01953 51.137 7.43577 52.3017 8.26825L51.6957 10.0184C50.796 9.27101 49.6597 8.90207 48.2865 8.90207C47.4342 8.90207 46.724 9.11965 46.1653 9.54535C45.5971 9.97105 45.3225 10.5197 45.3225 11.1819C45.3225 11.6266 45.4929 12.0712 45.8433 12.5063C46.1937 12.9415 46.5441 13.2915 46.9039 13.5659C47.2638 13.8307 47.8036 14.1997 48.5233 14.6727C49.1483 15.0795 49.6502 15.42 50.029 15.6944C50.4078 15.9687 50.8434 16.3376 51.3074 16.8012C51.7809 17.2647 52.1218 17.7566 52.3491 18.3053C52.5764 18.8445 52.69 19.4405 52.69 20.0838H52.6805Z" fill="black"/>
<path d="M71.7625 7.01953C73.6849 7.01953 75.2569 7.80471 76.4785 9.37507C77.7001 10.9454 78.3062 13.1118 78.3062 15.893C78.3062 18.6743 77.6906 20.8406 76.4596 22.392C75.2285 23.9529 73.6565 24.7287 71.753 24.7287C69.8496 24.7287 68.2776 23.9435 67.0465 22.3731C65.806 20.8028 65.1904 18.6364 65.1904 15.8552C65.1904 13.0739 65.806 10.9076 67.0465 9.35615C68.2871 7.80471 69.8496 7.01953 71.753 7.01953H71.7625ZM71.7625 22.5718C73.022 22.5718 74.0448 21.9663 74.8402 20.7649C75.6357 19.5635 76.0334 17.9364 76.0334 15.8836C76.0334 13.8307 75.6357 12.1752 74.8402 10.9833C74.0448 9.79131 73.0125 9.19533 71.7625 9.19533C70.5125 9.19533 69.4897 9.79131 68.7132 10.9738C67.9272 12.1563 67.539 13.7929 67.539 15.8836C67.539 17.9742 67.9272 19.5635 68.7132 20.7555C69.4992 21.9474 70.5125 22.5529 71.772 22.5718H71.7625Z" fill="black"/>
<path d="M89.9732 7.01953C91.583 7.01953 92.9183 7.65335 93.9884 8.92099C95.0585 10.1886 95.5888 11.8914 95.5888 14.0389V24.3219H93.2781V14.3227C93.2781 12.7996 92.8994 11.5698 92.1323 10.6238C91.3652 9.67779 90.3993 9.20479 89.2345 9.20479C88.0697 9.20479 87.0849 9.67779 86.2799 10.6143C85.475 11.5509 85.0772 12.7901 85.0772 14.3227V24.3219H82.7666V7.42631H84.2723L84.8121 10.6427H84.9447C85.3708 9.48859 86.0242 8.58989 86.9144 7.96553C87.8046 7.34117 88.8273 7.01953 89.9826 7.01953H89.9732Z" fill="black"/>
<path d="M108.118 7.01926C109.803 7.01926 111.205 7.83282 112.322 9.45048C113.44 11.0776 113.998 13.2156 113.998 15.8833C113.998 18.551 113.43 20.6606 112.303 22.2877C111.167 23.9148 109.765 24.7189 108.089 24.7189C107.057 24.7189 106.11 24.3973 105.248 23.7445C104.386 23.0918 103.695 22.1742 103.184 20.9822H103.051L102.473 24.3121H100.968V0.0283203H103.316V10.2451H103.411C104.538 8.08824 106.11 7.01926 108.118 7.01926ZM107.474 22.5242C108.686 22.5431 109.69 21.9282 110.485 20.6795C111.28 19.4308 111.678 17.832 111.678 15.8833C111.678 13.9345 111.28 12.3074 110.485 11.0587C109.69 9.80996 108.686 9.1856 107.474 9.1856C106.261 9.1856 105.258 9.80996 104.481 11.0587C103.695 12.3074 103.307 13.9156 103.307 15.8833C103.307 17.851 103.695 19.4213 104.481 20.6606C105.267 21.8998 106.261 22.5242 107.474 22.5242Z" fill="black"/>
<path d="M124.169 7.01953C126.091 7.01953 127.663 7.80471 128.885 9.37507C130.106 10.9454 130.712 13.1118 130.712 15.893C130.712 18.6743 130.097 20.8406 128.866 22.392C127.635 23.9529 126.063 24.7287 124.159 24.7287C122.256 24.7287 120.684 23.9435 119.453 22.3731C118.212 20.8028 117.597 18.6364 117.597 15.8552C117.597 13.0739 118.212 10.9076 119.453 9.35615C120.693 7.80471 122.256 7.01953 124.159 7.01953H124.169ZM124.169 22.5718C125.428 22.5718 126.451 21.9663 127.246 20.7649C128.042 19.5635 128.44 17.9364 128.44 15.8836C128.44 13.8307 128.042 12.1752 127.246 10.9833C126.451 9.79131 125.419 9.19533 124.169 9.19533C122.919 9.19533 121.896 9.79131 121.119 10.9738C120.333 12.1563 119.945 13.7929 119.945 15.8836C119.945 17.9742 120.333 19.5635 121.119 20.7555C121.905 21.9474 122.919 22.5529 124.178 22.5718H124.169Z" fill="black"/>
<path d="M139.756 7.01953C141.707 7.01953 143.184 7.52091 144.198 8.52367C145.211 9.52643 145.713 11.1914 145.713 13.5186V24.3219H144.207L143.696 21.342H143.563C142.644 23.6029 141.11 24.7381 138.951 24.7381C137.588 24.7381 136.432 24.2178 135.485 23.1772C134.548 22.1366 134.074 20.8406 134.074 19.2986C134.074 17.6147 134.576 16.2525 135.57 15.2024C136.574 14.1524 138.023 13.6321 139.927 13.6321C141.167 13.6321 142.313 13.9348 143.393 14.5308V13.4807C143.393 12.0523 143.09 10.9738 142.483 10.2549C141.877 9.53589 140.893 9.18587 139.519 9.18587C138.894 9.18587 138.269 9.28993 137.644 9.50751C137.019 9.72509 136.546 9.93321 136.224 10.1413L135.769 10.4346L135.031 8.41961C135.949 7.97499 136.508 7.70065 136.707 7.61551C137.739 7.23711 138.752 7.03845 139.756 7.03845V7.01953ZM143.402 16.9525V16.2998C142.531 15.7227 141.489 15.4295 140.296 15.4106C139.017 15.4106 138.033 15.77 137.341 16.4985C136.65 17.2269 136.309 18.154 136.309 19.2797C136.309 20.4054 136.584 21.2285 137.142 21.9096C137.701 22.5907 138.459 22.9313 139.425 22.9313C140.58 22.9313 141.527 22.3447 142.266 21.1717C142.995 19.9987 143.374 18.5891 143.402 16.9525Z" fill="black"/>
<path d="M153.374 11.21C153.848 9.88561 154.52 8.85447 155.391 8.11659C156.262 7.37871 157.266 7.00977 158.374 7.00977V9.19503C157.01 9.19503 155.846 9.83831 154.88 11.1249C153.914 12.4114 153.44 14.1615 153.44 16.3562H153.402V24.3121H151.092V7.42601H152.598L153.241 11.21H153.374Z" fill="black"/>
<path d="M166.404 7.01926C168.412 7.01926 169.984 8.0977 171.101 10.2451H171.215V0.0283203H173.563V24.3121H172.058L171.48 20.9822H171.347C170.836 22.1742 170.145 23.0918 169.283 23.7445C168.421 24.3973 167.474 24.7189 166.442 24.7189C164.756 24.7189 163.345 23.9054 162.219 22.2877C161.082 20.6606 160.523 18.5321 160.523 15.8833C160.523 13.2345 161.082 11.0681 162.209 9.45048C163.327 7.82336 164.738 7.01926 166.423 7.01926H166.404ZM167.048 22.5242C168.26 22.5242 169.264 21.8998 170.041 20.6606C170.827 19.4213 171.215 17.8226 171.215 15.8833C171.215 13.944 170.817 12.3074 170.031 11.0587C169.245 9.80996 168.241 9.1856 167.039 9.1856C165.836 9.1856 164.832 9.80996 164.037 11.0587C163.241 12.3074 162.844 13.9156 162.844 15.8833C162.844 17.851 163.241 19.4308 164.037 20.6795C164.832 21.9282 165.836 22.5431 167.048 22.5242Z" fill="black"/>
<path d="M178.942 0.51084C179.264 0.17028 179.672 0 180.164 0C180.656 0 181.064 0.17028 181.395 0.51084C181.727 0.8514 181.888 1.25818 181.888 1.72172C181.888 2.18526 181.727 2.59204 181.395 2.91368C181.064 3.23532 180.656 3.39614 180.164 3.39614C179.672 3.39614 179.264 3.23532 178.942 2.91368C178.62 2.59204 178.459 2.19472 178.459 1.72172C178.459 1.24872 178.62 0.8514 178.942 0.51084ZM178.999 24.3122V7.4261H181.31V24.3122H178.999Z" fill="black"/>
<path d="M194.009 7.01953C195.619 7.01953 196.954 7.65335 198.024 8.92099C199.094 10.1886 199.624 11.8914 199.624 14.0389V24.3219H197.314V14.3227C197.314 12.7996 196.935 11.5698 196.168 10.6238C195.401 9.67779 194.435 9.20479 193.27 9.20479C192.105 9.20479 191.121 9.67779 190.316 10.6143C189.511 11.5509 189.113 12.7901 189.113 14.3227V24.3219H186.802V7.42631H188.308L188.848 10.6427H188.98C189.406 9.48859 190.06 8.58989 190.95 7.96553C191.84 7.34117 192.863 7.01953 194.018 7.01953H194.009Z" fill="black"/>
<path d="M213.252 7.69122C213.678 7.00064 214.246 6.48034 214.947 6.12086C215.647 5.76138 216.377 5.61948 217.125 5.71408V7.66284C216.055 7.59662 215.202 7.89934 214.568 8.56154V8.7129C215.619 9.81026 216.149 11.2293 216.159 12.9794C216.159 14.7484 215.638 16.1579 214.606 17.208C213.574 18.258 212.2 18.7783 210.496 18.7783C209.037 18.7783 207.806 18.3432 206.803 17.4634C206.358 18.0026 206.13 18.5513 206.13 19.1189C206.13 20.5757 206.983 21.2947 208.687 21.2947H212.788C214.132 21.3136 215.174 21.7109 215.913 22.4867C216.651 23.2529 217.021 24.3503 217.021 25.7598C217.021 27.5099 216.396 29.0235 215.146 30.2912C213.896 31.5683 212.248 32.2021 210.193 32.2021C208.526 32.2021 207.125 31.7575 205.988 30.8777C204.852 29.9884 204.284 28.7397 204.284 27.1031C204.284 25.4666 204.871 24.1043 206.054 23.1016V23.007C204.691 22.4299 204 21.3136 204 19.677C204 18.2486 204.549 17.0566 205.657 16.1201C205.117 15.1835 204.842 14.124 204.833 12.9415C204.833 11.1725 205.354 9.74404 206.405 8.65614C207.447 7.56824 208.81 7.02902 210.486 7.02902C211.49 7.02902 212.409 7.25606 213.242 7.70068L213.252 7.69122ZM207.825 23.3759C206.822 24.18 206.31 25.2963 206.301 26.7247C206.301 27.9356 206.708 28.8438 207.532 29.4398C208.356 30.0357 209.274 30.329 210.306 30.329C211.699 30.329 212.806 29.9128 213.64 29.0708C214.473 28.2289 214.89 27.2261 214.89 26.0531C214.89 24.2651 213.981 23.3664 212.163 23.3854H207.825V23.3759ZM210.496 16.9242C211.566 16.9242 212.428 16.5647 213.072 15.8457C213.716 15.1268 214.038 14.1808 214.038 12.9983C214.038 11.8158 213.716 10.8792 213.062 10.1319C212.409 9.3751 211.556 8.9967 210.496 8.9967C209.435 8.9967 208.564 9.36564 207.93 10.1035C207.286 10.8414 206.973 11.8063 206.973 12.9888C206.973 14.1713 207.295 15.1268 207.948 15.8457C208.602 16.5647 209.454 16.9242 210.505 16.9242H210.496Z" fill="black"/>
<path d="M0 138.182V122.602H41.62V138.182H29.3376V189.512H12.2351V138.182H0Z" fill="black"/>
<path d="M83.5618 160.347C86.8005 161.369 88.8839 164.434 89.8214 169.542L93.42 189.512H75.4367L72.3116 170.989C71.6866 167.877 69.8684 166.307 66.8475 166.278H66.0047V189.512H48.8643V122.602H72.3116C78.1072 122.602 82.8232 124.456 86.4691 128.155C90.115 131.853 91.9332 136.867 91.9332 143.177C91.9332 150.707 89.1491 156.27 83.5713 159.883V160.347H83.5618ZM68.4763 152.836C70.3798 152.836 71.9328 152.155 73.145 150.783C74.3571 149.411 74.9632 147.671 74.9632 145.561C74.9632 143.451 74.3571 141.607 73.145 140.244C71.9328 138.873 70.3703 138.192 68.4763 138.192H66.0047V152.845H68.4763V152.836Z" fill="black"/>
<path d="M119.348 164.178V173.932H141.347V189.512H102.208V122.602H140.741V138.182H119.348V150.13H138.639V164.178H119.348Z" fill="black"/>
<path d="M175.865 149.288V122.602H192.958V189.512H181.888L168.204 162.958H168.014V189.512H150.779V122.602H161.897L175.534 149.288H175.865Z" fill="black"/>
<path d="M225.894 122.602C232.902 122.602 238.65 125.742 243.158 132.024C247.656 138.305 249.91 146.327 249.91 156.081C249.91 165.834 247.656 173.846 243.158 180.109C238.66 186.381 232.902 189.512 225.894 189.512H204.824V122.602H225.894ZM223.366 173.932C226.103 173.932 228.337 172.257 230.07 168.918C231.803 165.578 232.665 161.293 232.665 156.062C232.665 150.83 231.803 146.554 230.07 143.205C228.337 139.866 226.103 138.192 223.366 138.192H221.964V173.932H223.366Z" fill="black"/>
<path d="M316.511 154.141C319.816 155.475 322.411 157.585 324.314 160.46C326.208 163.336 327.165 166.78 327.165 170.8C327.165 176.211 325.328 180.686 321.653 184.215C317.979 187.743 313.339 189.512 307.732 189.512H284.19V122.602H305.914C311.71 122.602 316.378 124.229 319.93 127.473C323.481 130.728 325.252 134.994 325.252 140.282C325.252 146.346 322.335 150.811 316.521 153.678V154.141H316.511ZM301.331 137.529V150.225H303.897C305.232 150.225 306.321 149.619 307.145 148.408C307.969 147.198 308.386 145.674 308.386 143.839C308.386 142.004 307.969 140.5 307.145 139.317C306.321 138.135 305.242 137.548 303.897 137.548H301.331V137.529ZM304.74 174.717C306.265 174.717 307.496 174.13 308.433 172.948C309.371 171.765 309.835 170.242 309.835 168.379C309.835 166.515 309.371 164.945 308.433 163.762C307.496 162.58 306.265 161.993 304.74 161.993H301.331V174.736H304.74V174.717Z" fill="black"/>
<path d="M340.934 129.508C345.29 123.973 351.275 121.202 358.87 121.202C366.465 121.202 372.45 123.973 376.806 129.508C381.162 135.042 383.349 143.896 383.349 156.062C383.349 168.227 381.171 177.158 376.806 182.682C372.45 188.207 366.465 190.969 358.87 190.969C351.275 190.969 345.29 188.207 340.934 182.682C336.578 177.158 334.39 168.284 334.39 156.062C334.39 143.839 336.568 135.051 340.934 129.508ZM353.453 171.226C354.703 173.998 356.502 175.379 358.87 175.379C361.237 175.379 363.046 173.998 364.286 171.226C365.537 168.454 366.152 163.403 366.152 156.062C366.152 148.721 365.527 143.792 364.286 140.992C363.046 138.192 361.237 136.792 358.87 136.792C356.502 136.792 354.694 138.192 353.453 140.992C352.212 143.792 351.587 148.815 351.587 156.062C351.587 163.308 352.212 168.454 353.453 171.226Z" fill="black"/>
<path d="M431.646 122.602L419.685 155.589L433 189.512H416.324L408.293 167.906H408.009L399.979 189.512H383.444L396.759 155.03L384.799 122.602H401.333L408.009 142.808H408.293L415.017 122.602H431.646Z" fill="black"/>
<path d="M45.0197 91.6198L48.694 57.2705H62.3306L55.4366 111.524H38.0499L34.0347 82.9922H33.7695L29.83 111.524H12.3676L5.54932 57.2705H19.1102L22.8602 91.6198H23.0117L27.4815 57.2705H40.2848L44.7924 91.6198H45.0197Z" stroke="black"/>
<path d="M80.8444 90.9765V98.885H98.6857V111.524H66.9521V57.2705H98.2027V69.9091H80.8539V79.5961H96.4981V90.9859H80.8539L80.8444 90.9765Z" stroke="black"/>
<path d="M120.229 57.2612V98.8758H136.025V111.514H106.337V57.2612H120.239H120.229Z" stroke="black"/>
<path d="M160.685 100.058C162.957 100.058 165.543 98.9514 168.45 96.7283L171.102 109.443C167.948 111.609 163.706 112.697 158.374 112.697C151.906 112.697 146.811 110.445 143.09 105.942C139.368 101.439 137.502 94.2592 137.502 84.3925C137.502 74.5257 139.368 67.3645 143.09 62.8993C146.811 58.4342 151.906 56.2017 158.374 56.2017C164.151 56.2017 168.128 56.8922 170.306 58.2829L166.973 70.6187C165.382 69.4362 163.289 68.8402 160.685 68.8402C157.777 68.8402 155.514 69.9754 153.885 72.2458C152.256 74.5162 151.442 78.5651 151.442 84.3925C151.442 90.2198 152.256 94.3538 153.885 96.6337C155.514 98.9136 157.777 100.058 160.685 100.058Z" stroke="black"/>
<path d="M177.721 62.8615C181.253 58.368 186.102 56.126 192.267 56.126C198.432 56.126 203.271 58.368 206.813 62.8615C210.345 67.355 212.116 74.5257 212.116 84.3925C212.116 94.2592 210.345 101.496 206.813 105.98C203.28 110.455 198.432 112.697 192.267 112.697C186.102 112.697 181.263 110.455 177.721 105.98C174.189 101.506 172.418 94.3065 172.418 84.3925C172.418 74.4784 174.189 67.355 177.721 62.8615ZM187.873 96.6905C188.886 98.9325 190.344 100.058 192.267 100.058C194.189 100.058 195.648 98.9325 196.661 96.6905C197.674 94.4484 198.176 90.3428 198.176 84.3925C198.176 78.4421 197.674 74.4405 196.661 72.1701C195.648 69.8997 194.189 68.7645 192.267 68.7645C190.344 68.7645 188.886 69.8997 187.873 72.1701C186.86 74.4405 186.358 78.5178 186.358 84.3925C186.358 90.2671 186.86 94.439 187.873 96.6905Z" stroke="black"/>
<path d="M242.372 83.7871L250.743 57.2612H265.024V111.514H251.539V88.7347H251.198L243.925 111.514H240.591L233.356 88.7347H233.053V111.514H219.568V57.2612H233.849L242.22 83.7871H242.372Z" stroke="black"/>
<path d="M288.272 90.9765V98.885H306.113V111.524H274.38V57.2705H305.63V69.9091H288.282V79.5961H303.926V90.9859H288.282L288.272 90.9765Z" stroke="black"/>
<path d="M12.8886 213.995C32.9079 213.711 52.9366 213.465 72.9559 213.257C92.8995 213.049 112.852 212.879 132.796 212.746C152.74 212.614 172.693 212.519 192.636 212.472C212.58 212.424 232.533 212.396 252.486 212.424C272.439 212.443 292.382 212.51 312.335 212.604C314.854 212.614 317.383 212.633 319.902 212.642C322.951 212.661 322.951 207.931 319.902 207.912C299.873 207.808 279.844 207.732 259.815 207.704C239.786 207.676 219.919 207.676 199.966 207.723C180.013 207.77 160.069 207.855 140.126 207.969C120.182 208.092 100.229 208.253 80.2856 208.451C60.3421 208.65 40.3985 208.886 20.4455 209.161C17.9266 209.199 15.3981 209.227 12.8791 209.265C9.8393 209.312 9.82983 214.042 12.8791 213.995H12.8886Z" fill="white"/>
</svg>
