<svg width="582" height="147" viewBox="0 0 582 147" fill="none" xmlns="http://www.w3.org/2000/svg">
<path d="M23.9868 41.1318V3.48535H37.4268V40.4727C37.4268 45.5264 35.8887 49.5669 32.8125 52.5942C29.7363 55.6216 25.7935 57.1353 20.9839 57.1353C16.1987 57.1353 12.2803 55.6216 9.22852 52.5942C6.17676 49.5669 4.65088 45.5264 4.65088 40.4727V3.48535H18.0908V41.1318C18.0908 42.2305 18.3594 43.1338 18.8965 43.8418C19.458 44.5498 20.1538 44.9038 20.9839 44.9038C21.8384 44.9038 22.5464 44.5498 23.1079 43.8418C23.6938 43.1338 23.9868 42.2305 23.9868 41.1318ZM67.1074 24.4326V3.48535H80.5107V56H71.8315L61.1016 35.1626H60.9551V56H47.4419V3.48535H56.1577L66.8511 24.4326H67.1074ZM128.153 36.2612V25.458H144.596V51.5688C140.592 55.2798 135.417 57.1353 129.069 57.1353C122.819 57.1353 117.887 54.9624 114.274 50.6167C110.685 46.2466 108.891 39.2886 108.891 29.7427C108.891 20.2456 110.795 13.312 114.604 8.94189C118.437 4.57178 123.502 2.38672 129.801 2.38672C132.145 2.38672 134.464 2.63086 136.759 3.11914C139.079 3.58301 140.714 4.13232 141.667 4.76709L138.444 16.3394C137.785 15.8511 136.796 15.4482 135.478 15.1309C134.159 14.7891 133.024 14.6182 132.072 14.6182C125.626 14.6182 122.392 19.6597 122.367 29.7427C122.367 35.5044 123.087 39.4717 124.528 41.6445C125.993 43.8174 128.104 44.9038 130.863 44.9038C130.961 44.9038 131.107 44.8916 131.303 44.8672C131.498 44.8428 131.645 44.8306 131.742 44.8306V36.2612H128.153ZM166.477 36.1147V43.7686H183.725V56H153.037V3.48535H183.249V15.7168H166.477V25.0918H181.601V36.1147H166.477ZM210.842 25.0186C215.383 27.7773 218.459 30.4019 220.071 32.8921C221.682 35.3579 222.488 38.2632 222.488 41.6079C222.488 46.3198 220.913 50.0918 217.764 52.9238C214.614 55.7314 210.305 57.1353 204.836 57.1353C198.44 57.1353 193.191 55.6338 189.089 52.6309L191.726 41.1318C195.779 44.0371 199.624 45.4897 203.262 45.4897C207.119 45.4897 209.048 44.1958 209.048 41.6079C209.048 40.5581 208.584 39.5083 207.656 38.4585C206.729 37.4087 204.897 36.0781 202.163 34.4668C197.866 32.0254 194.778 29.4619 192.898 26.7764C191.018 24.0664 190.078 20.9048 190.078 17.2915C190.078 12.7993 191.665 9.19824 194.839 6.48828C198.013 3.75391 202.224 2.38672 207.473 2.38672C212.722 2.38672 217.251 3.33887 221.06 5.24316L219.558 16.9253C218.459 16.2173 216.909 15.5337 214.907 14.8745C212.905 14.1909 211.074 13.8491 209.414 13.8491C205.605 13.8491 203.713 15.1187 203.738 17.6577C203.738 18.854 204.324 20.0259 205.496 21.1733C206.667 22.2964 208.45 23.5781 210.842 25.0186ZM226.753 15.7168V3.48535H259.383V15.7168H249.751V56H236.348V15.7168H226.753ZM266.871 8.90527C270.289 4.55957 274.977 2.38672 280.934 2.38672C286.891 2.38672 291.578 4.55957 294.996 8.90527C298.414 13.251 300.123 20.1968 300.123 29.7427C300.123 39.3374 298.414 46.3076 294.996 50.6533C291.578 54.9746 286.891 57.1353 280.934 57.1353C274.977 57.1353 270.289 54.9746 266.871 50.6533C263.453 46.3076 261.744 39.3374 261.744 29.7427C261.744 20.1968 263.453 13.251 266.871 8.90527ZM276.686 41.6445C277.662 43.8174 279.078 44.9038 280.934 44.9038C282.789 44.9038 284.205 43.8174 285.182 41.6445C286.158 39.4717 286.646 35.5044 286.646 29.7427C286.646 24.0542 286.158 20.1113 285.182 17.9141C284.205 15.7168 282.789 14.6182 280.934 14.6182C279.078 14.6182 277.662 15.7168 276.686 17.9141C275.709 20.1113 275.221 24.0542 275.221 29.7427C275.221 35.5044 275.709 39.4717 276.686 41.6445ZM316.583 54.938C315.119 56.4028 313.385 57.1353 311.383 57.1353C309.381 57.1353 307.636 56.3906 306.146 54.9014C304.682 53.3877 303.949 51.6299 303.949 49.6279C303.949 47.626 304.682 45.9048 306.146 44.4644C307.636 42.9995 309.381 42.2671 311.383 42.2671C313.434 42.2671 315.18 42.9995 316.62 44.4644C318.085 45.9048 318.817 47.626 318.817 49.6279C318.817 51.6787 318.073 53.4487 316.583 54.938Z" fill="black"/>
<mask id="path-2-outside-1_68_813" maskUnits="userSpaceOnUse" x="5" y="72" width="315" height="59" fill="black">
<rect fill="white" x="5" y="72" width="315" height="59"/>
<path d="M25.9868 113.132V75.4854H39.4268V112.473C39.4268 117.526 37.8887 121.567 34.8125 124.594C31.7363 127.622 27.7935 129.135 22.9839 129.135C18.1987 129.135 14.2803 127.622 11.2285 124.594C8.17676 121.567 6.65088 117.526 6.65088 112.473V75.4854H20.0908V113.132C20.0908 114.23 20.3594 115.134 20.8965 115.842C21.458 116.55 22.1538 116.904 22.9839 116.904C23.8384 116.904 24.5464 116.55 25.1079 115.842C25.6938 115.134 25.9868 114.23 25.9868 113.132ZM69.1074 96.4326V75.4854H82.5107V128H73.8315L63.1016 107.163H62.9551V128H49.4419V75.4854H58.1577L68.8511 96.4326H69.1074ZM123.781 114.633L129.165 75.4854H142.458L134.035 128H113.271L104.885 75.4854H118.142L123.562 114.633H123.781ZM151.082 75.4854H167.964L179.353 128H165.84L164.595 120.126H154.524L153.242 128H139.766L151.082 75.4854ZM156.318 109.396H162.764L159.688 91.4155H159.321L156.318 109.396ZM197.718 75.4854V115.769H212.989V128H184.278V75.4854H197.718ZM220.294 80.9053C223.712 76.5596 228.399 74.3867 234.356 74.3867C240.313 74.3867 245.001 76.5596 248.419 80.9053C251.837 85.251 253.546 92.1968 253.546 101.743C253.546 111.337 251.837 118.308 248.419 122.653C245.001 126.975 240.313 129.135 234.356 129.135C228.399 129.135 223.712 126.975 220.294 122.653C216.876 118.308 215.167 111.337 215.167 101.743C215.167 92.1968 216.876 85.251 220.294 80.9053ZM230.108 113.645C231.085 115.817 232.501 116.904 234.356 116.904C236.212 116.904 237.628 115.817 238.604 113.645C239.581 111.472 240.069 107.504 240.069 101.743C240.069 96.0542 239.581 92.1113 238.604 89.9141C237.628 87.7168 236.212 86.6182 234.356 86.6182C232.501 86.6182 231.085 87.7168 230.108 89.9141C229.132 92.1113 228.644 96.0542 228.644 101.743C228.644 107.504 229.132 111.472 230.108 113.645ZM288.939 105.112C291.479 105.917 293.114 108.322 293.847 112.326L296.667 128H282.567L280.114 113.461C279.625 111.02 278.197 109.787 275.829 109.763H275.17V128H261.73V75.4854H280.114C284.655 75.4854 288.354 76.938 291.21 79.8433C294.066 82.7485 295.495 86.6792 295.495 91.6353C295.495 97.5435 293.31 101.914 288.939 104.746V105.112ZM277.111 99.2158C278.6 99.2158 279.821 98.6787 280.773 97.6045C281.725 96.5303 282.201 95.1631 282.201 93.5029C282.201 91.7939 281.725 90.4023 280.773 89.3281C279.821 88.2539 278.6 87.7168 277.111 87.7168H275.17V99.2158H277.111ZM315.581 126.938C314.116 128.403 312.382 129.135 310.38 129.135C308.378 129.135 306.633 128.391 305.144 126.901C303.679 125.388 302.946 123.63 302.946 121.628C302.946 119.626 303.679 117.905 305.144 116.464C306.633 115 308.378 114.267 310.38 114.267C312.431 114.267 314.177 115 315.617 116.464C317.082 117.905 317.814 119.626 317.814 121.628C317.814 123.679 317.07 125.449 315.581 126.938Z"/>
</mask>
<path d="M25.9868 75.4854V73.9854H24.4868V75.4854H25.9868ZM39.4268 75.4854H40.9268V73.9854H39.4268V75.4854ZM11.2285 124.594L10.1721 125.659L11.2285 124.594ZM6.65088 75.4854V73.9854H5.15088V75.4854H6.65088ZM20.0908 75.4854H21.5908V73.9854H20.0908V75.4854ZM20.8965 115.842L19.7014 116.748L19.7112 116.761L19.7212 116.774L20.8965 115.842ZM25.1079 115.842L23.9523 114.885L23.9424 114.897L23.9327 114.91L25.1079 115.842ZM25.9868 113.132H27.4868V75.4854H25.9868H24.4868V113.132H25.9868ZM25.9868 75.4854V76.9854H39.4268V75.4854V73.9854H25.9868V75.4854ZM39.4268 75.4854H37.9268V112.473H39.4268H40.9268V75.4854H39.4268ZM39.4268 112.473H37.9268C37.9268 117.199 36.5011 120.828 33.7604 123.525L34.8125 124.594L35.8646 125.663C39.2763 122.306 40.9268 117.854 40.9268 112.473H39.4268ZM34.8125 124.594L33.7604 123.525C30.998 126.244 27.4489 127.635 22.9839 127.635V129.135V130.635C28.138 130.635 32.4747 128.999 35.8646 125.663L34.8125 124.594ZM22.9839 129.135V127.635C18.5455 127.635 15.0228 126.245 12.2849 123.529L11.2285 124.594L10.1721 125.659C13.5378 128.998 17.852 130.635 22.9839 130.635V129.135ZM11.2285 124.594L12.2849 123.529C9.56668 120.833 8.15088 117.202 8.15088 112.473H6.65088H5.15088C5.15088 117.851 6.78683 122.301 10.1721 125.659L11.2285 124.594ZM6.65088 112.473H8.15088V75.4854H6.65088H5.15088V112.473H6.65088ZM6.65088 75.4854V76.9854H20.0908V75.4854V73.9854H6.65088V75.4854ZM20.0908 75.4854H18.5908V113.132H20.0908H21.5908V75.4854H20.0908ZM20.0908 113.132H18.5908C18.5908 114.479 18.9236 115.723 19.7014 116.748L20.8965 115.842L22.0915 114.935C21.7952 114.545 21.5908 113.982 21.5908 113.132H20.0908ZM20.8965 115.842L19.7212 116.774C20.5384 117.804 21.6513 118.404 22.9839 118.404V116.904V115.404C22.6563 115.404 22.3776 115.295 22.0717 114.91L20.8965 115.842ZM22.9839 116.904V118.404C24.3259 118.404 25.456 117.817 26.2832 116.774L25.1079 115.842L23.9327 114.91C23.6368 115.283 23.3509 115.404 22.9839 115.404V116.904ZM25.1079 115.842L26.2635 116.798C27.1135 115.771 27.4868 114.508 27.4868 113.132H25.9868H24.4868C24.4868 113.952 24.2742 114.497 23.9523 114.885L25.1079 115.842ZM69.1074 96.4326V97.9326H70.6074V96.4326H69.1074ZM69.1074 75.4854V73.9854H67.6074V75.4854H69.1074ZM82.5107 75.4854H84.0107V73.9854H82.5107V75.4854ZM82.5107 128V129.5H84.0107V128H82.5107ZM73.8315 128L72.498 128.687L72.9168 129.5H73.8315V128ZM63.1016 107.163L64.4351 106.476L64.0163 105.663H63.1016V107.163ZM62.9551 107.163V105.663H61.4551V107.163H62.9551ZM62.9551 128V129.5H64.4551V128H62.9551ZM49.4419 128H47.9419V129.5H49.4419V128ZM49.4419 75.4854V73.9854H47.9419V75.4854H49.4419ZM58.1577 75.4854L59.4937 74.8033L59.0761 73.9854H58.1577V75.4854ZM68.8511 96.4326L67.5151 97.1146L67.9327 97.9326H68.8511V96.4326ZM69.1074 96.4326H70.6074V75.4854H69.1074H67.6074V96.4326H69.1074ZM69.1074 75.4854V76.9854H82.5107V75.4854V73.9854H69.1074V75.4854ZM82.5107 75.4854H81.0107V128H82.5107H84.0107V75.4854H82.5107ZM82.5107 128V126.5H73.8315V128V129.5H82.5107V128ZM73.8315 128L75.1651 127.313L64.4351 106.476L63.1016 107.163L61.768 107.849L72.498 128.687L73.8315 128ZM63.1016 107.163V105.663H62.9551V107.163V108.663H63.1016V107.163ZM62.9551 107.163H61.4551V128H62.9551H64.4551V107.163H62.9551ZM62.9551 128V126.5H49.4419V128V129.5H62.9551V128ZM49.4419 128H50.9419V75.4854H49.4419H47.9419V128H49.4419ZM49.4419 75.4854V76.9854H58.1577V75.4854V73.9854H49.4419V75.4854ZM58.1577 75.4854L56.8217 76.1674L67.5151 97.1146L68.8511 96.4326L70.1871 95.7506L59.4937 74.8033L58.1577 75.4854ZM68.8511 96.4326V97.9326H69.1074V96.4326V94.9326H68.8511V96.4326ZM123.781 114.633V116.133H125.089L125.267 114.838L123.781 114.633ZM129.165 75.4854V73.9854H127.857L127.679 75.281L129.165 75.4854ZM142.458 75.4854L143.939 75.7229L144.218 73.9854H142.458V75.4854ZM134.035 128V129.5H135.314L135.516 128.238L134.035 128ZM113.271 128L111.79 128.237L111.992 129.5H113.271V128ZM104.885 75.4854V73.9854H103.126L103.404 75.7219L104.885 75.4854ZM118.142 75.4854L119.627 75.2796L119.448 73.9854H118.142V75.4854ZM123.562 114.633L122.076 114.839L122.255 116.133H123.562V114.633ZM123.781 114.633L125.267 114.838L130.651 75.6897L129.165 75.4854L127.679 75.281L122.295 114.429L123.781 114.633ZM129.165 75.4854V76.9854H142.458V75.4854V73.9854H129.165V75.4854ZM142.458 75.4854L140.977 75.2478L132.554 127.762L134.035 128L135.516 128.238L143.939 75.7229L142.458 75.4854ZM134.035 128V126.5H113.271V128V129.5H134.035V128ZM113.271 128L114.752 127.763L106.366 75.2488L104.885 75.4854L103.404 75.7219L111.79 128.237L113.271 128ZM104.885 75.4854V76.9854H118.142V75.4854V73.9854H104.885V75.4854ZM118.142 75.4854L116.656 75.6911L122.076 114.839L123.562 114.633L125.047 114.428L119.627 75.2796L118.142 75.4854ZM123.562 114.633V116.133H123.781V114.633V113.133H123.562V114.633ZM151.082 75.4854V73.9854H149.87L149.615 75.1694L151.082 75.4854ZM167.964 75.4854L169.43 75.1674L169.173 73.9854H167.964V75.4854ZM179.353 128V129.5H181.213L180.819 127.682L179.353 128ZM165.84 128L164.358 128.234L164.558 129.5H165.84V128ZM164.595 120.126L166.076 119.892L165.876 118.626H164.595V120.126ZM154.524 120.126V118.626H153.248L153.043 119.885L154.524 120.126ZM153.242 128V129.5H154.518L154.723 128.241L153.242 128ZM139.766 128L138.299 127.684L137.908 129.5H139.766V128ZM156.318 109.396L154.839 109.149L154.547 110.896H156.318V109.396ZM162.764 109.396V110.896H164.542L164.242 109.144L162.764 109.396ZM159.688 91.4155L161.166 91.1626L160.953 89.9155H159.688V91.4155ZM159.321 91.4155V89.9155H158.051L157.842 91.1684L159.321 91.4155ZM151.082 75.4854V76.9854H167.964V75.4854V73.9854H151.082V75.4854ZM167.964 75.4854L166.498 75.8033L177.887 128.318L179.353 128L180.819 127.682L169.43 75.1674L167.964 75.4854ZM179.353 128V126.5H165.84V128V129.5H179.353V128ZM165.84 128L167.321 127.766L166.076 119.892L164.595 120.126L163.113 120.361L164.358 128.234L165.84 128ZM164.595 120.126V118.626H154.524V120.126V121.626H164.595V120.126ZM154.524 120.126L153.043 119.885L151.762 127.759L153.242 128L154.723 128.241L156.004 120.367L154.524 120.126ZM153.242 128V126.5H139.766V128V129.5H153.242V128ZM139.766 128L141.232 128.316L152.548 75.8013L151.082 75.4854L149.615 75.1694L138.299 127.684L139.766 128ZM156.318 109.396V110.896H162.764V109.396V107.896H156.318V109.396ZM162.764 109.396L164.242 109.144L161.166 91.1626L159.688 91.4155L158.209 91.6685L161.285 109.649L162.764 109.396ZM159.688 91.4155V89.9155H159.321V91.4155V92.9155H159.688V91.4155ZM159.321 91.4155L157.842 91.1684L154.839 109.149L156.318 109.396L157.798 109.644L160.801 91.6626L159.321 91.4155ZM197.718 75.4854H199.218V73.9854H197.718V75.4854ZM197.718 115.769H196.218V117.269H197.718V115.769ZM212.989 115.769H214.489V114.269H212.989V115.769ZM212.989 128V129.5H214.489V128H212.989ZM184.278 128H182.778V129.5H184.278V128ZM184.278 75.4854V73.9854H182.778V75.4854H184.278ZM197.718 75.4854H196.218V115.769H197.718H199.218V75.4854H197.718ZM197.718 115.769V117.269H212.989V115.769V114.269H197.718V115.769ZM212.989 115.769H211.489V128H212.989H214.489V115.769H212.989ZM212.989 128V126.5H184.278V128V129.5H212.989V128ZM184.278 128H185.778V75.4854H184.278H182.778V128H184.278ZM184.278 75.4854V76.9854H197.718V75.4854V73.9854H184.278V75.4854ZM248.419 122.653L249.595 123.584L249.598 123.581L248.419 122.653ZM220.294 122.653L219.115 123.581L219.117 123.584L220.294 122.653ZM220.294 80.9053L221.473 81.8326C224.582 77.8795 228.818 75.8867 234.356 75.8867V74.3867V72.8867C227.98 72.8867 222.842 75.2396 219.115 79.978L220.294 80.9053ZM234.356 74.3867V75.8867C239.894 75.8867 244.131 77.8795 247.24 81.8326L248.419 80.9053L249.598 79.978C245.871 75.2396 240.732 72.8867 234.356 72.8867V74.3867ZM248.419 80.9053L247.24 81.8326C250.346 85.7814 252.046 92.3129 252.046 101.743H253.546H255.046C255.046 92.0807 253.328 84.7205 249.598 79.978L248.419 80.9053ZM253.546 101.743H252.046C252.046 111.223 250.345 117.778 247.24 121.726L248.419 122.653L249.598 123.581C253.329 118.837 255.046 111.451 255.046 101.743H253.546ZM248.419 122.653L247.242 121.723C244.135 125.652 239.898 127.635 234.356 127.635V129.135V130.635C240.729 130.635 245.867 128.297 249.595 123.584L248.419 122.653ZM234.356 129.135V127.635C228.815 127.635 224.578 125.652 221.47 121.723L220.294 122.653L219.117 123.584C222.845 128.297 227.984 130.635 234.356 130.635V129.135ZM220.294 122.653L221.473 121.726C218.368 117.778 216.667 111.223 216.667 101.743H215.167H213.667C213.667 111.451 215.384 118.837 219.115 123.581L220.294 122.653ZM215.167 101.743H216.667C216.667 92.3129 218.367 85.7814 221.473 81.8326L220.294 80.9053L219.115 79.978C215.385 84.7205 213.667 92.0807 213.667 101.743H215.167ZM230.108 113.645L228.74 114.259C229.298 115.499 230.03 116.543 230.99 117.279C231.971 118.032 233.113 118.404 234.356 118.404V116.904V115.404C233.745 115.404 233.251 115.233 232.816 114.899C232.36 114.549 231.896 113.962 231.477 113.03L230.108 113.645ZM234.356 116.904V118.404C235.6 118.404 236.742 118.032 237.723 117.279C238.683 116.543 239.415 115.499 239.973 114.259L238.604 113.645L237.236 113.03C236.817 113.962 236.353 114.549 235.897 114.899C235.462 115.233 234.968 115.404 234.356 115.404V116.904ZM238.604 113.645L239.973 114.259C241.095 111.762 241.569 107.498 241.569 101.743H240.069H238.569C238.569 107.511 238.067 111.181 237.236 113.03L238.604 113.645ZM240.069 101.743H241.569C241.569 96.0553 241.094 91.8217 239.975 89.3049L238.604 89.9141L237.234 90.5233C238.068 92.4009 238.569 96.0531 238.569 101.743H240.069ZM238.604 89.9141L239.975 89.3049C239.419 88.0541 238.689 87.0011 237.73 86.257C236.749 85.496 235.604 85.1182 234.356 85.1182V86.6182V88.1182C234.964 88.1182 235.455 88.2897 235.891 88.6273C236.348 88.9818 236.813 89.5768 237.234 90.5233L238.604 89.9141ZM234.356 86.6182V85.1182C233.108 85.1182 231.964 85.496 230.983 86.257C230.024 87.0011 229.294 88.0541 228.738 89.3049L230.108 89.9141L231.479 90.5233C231.9 89.5768 232.365 88.9818 232.822 88.6273C233.257 88.2897 233.749 88.1182 234.356 88.1182V86.6182ZM230.108 89.9141L228.738 89.3049C227.619 91.8217 227.144 96.0553 227.144 101.743H228.644H230.144C230.144 96.0531 230.645 92.4009 231.479 90.5233L230.108 89.9141ZM228.644 101.743H227.144C227.144 107.498 227.618 111.762 228.74 114.259L230.108 113.645L231.477 113.03C230.646 111.181 230.144 107.511 230.144 101.743H228.644ZM288.939 105.112H287.439V106.21L288.486 106.542L288.939 105.112ZM293.847 112.326L295.323 112.061L295.322 112.056L293.847 112.326ZM296.667 128V129.5H298.46L298.143 127.734L296.667 128ZM282.567 128L281.088 128.25L281.299 129.5H282.567V128ZM280.114 113.461L281.593 113.212L281.589 113.189L281.585 113.167L280.114 113.461ZM275.829 109.763L275.845 108.263L275.837 108.263H275.829V109.763ZM275.17 109.763V108.263H273.67V109.763H275.17ZM275.17 128V129.5H276.67V128H275.17ZM261.73 128H260.23V129.5H261.73V128ZM261.73 75.4854V73.9854H260.23V75.4854H261.73ZM288.939 104.746L288.124 103.487L287.439 103.93V104.746H288.939ZM275.17 87.7168V86.2168H273.67V87.7168H275.17ZM275.17 99.2158H273.67V100.716H275.17V99.2158ZM288.939 105.112L288.486 106.542C290.248 107.101 291.681 108.822 292.371 112.596L293.847 112.326L295.322 112.056C294.548 107.822 292.709 104.734 289.393 103.682L288.939 105.112ZM293.847 112.326L292.37 112.592L295.19 128.266L296.667 128L298.143 127.734L295.323 112.061L293.847 112.326ZM296.667 128V126.5H282.567V128V129.5H296.667V128ZM282.567 128L284.046 127.75L281.593 113.212L280.114 113.461L278.635 113.711L281.088 128.25L282.567 128ZM280.114 113.461L281.585 113.167C281.296 111.724 280.694 110.466 279.657 109.57C278.611 108.668 277.29 108.278 275.845 108.263L275.829 109.763L275.814 111.263C276.736 111.272 277.313 111.511 277.696 111.841C278.087 112.179 278.443 112.757 278.643 113.756L280.114 113.461ZM275.829 109.763V108.263H275.17V109.763V111.263H275.829V109.763ZM275.17 109.763H273.67V128H275.17H276.67V109.763H275.17ZM275.17 128V126.5H261.73V128V129.5H275.17V128ZM261.73 128H263.23V75.4854H261.73H260.23V128H261.73ZM261.73 75.4854V76.9854H280.114V75.4854V73.9854H261.73V75.4854ZM280.114 75.4854V76.9854C284.303 76.9854 287.599 78.3106 290.14 80.8949L291.21 79.8433L292.28 78.7916C289.108 75.5654 285.006 73.9854 280.114 73.9854V75.4854ZM291.21 79.8433L290.14 80.8949C292.663 83.4611 293.995 86.9821 293.995 91.6353H295.495H296.995C296.995 86.3763 295.469 82.036 292.28 78.7916L291.21 79.8433ZM295.495 91.6353H293.995C293.995 97.1154 292.004 100.972 288.124 103.487L288.939 104.746L289.755 106.004C294.615 102.855 296.995 97.9715 296.995 91.6353H295.495ZM288.939 104.746H287.439V105.112H288.939H290.439V104.746H288.939ZM277.111 99.2158V100.716C279.011 100.716 280.647 100.008 281.895 98.5995L280.773 97.6045L279.65 96.6095C278.995 97.3491 278.189 97.7158 277.111 97.7158V99.2158ZM280.773 97.6045L281.895 98.5995C283.128 97.2084 283.701 95.4687 283.701 93.5029H282.201H280.701C280.701 94.8575 280.322 95.8522 279.65 96.6095L280.773 97.6045ZM282.201 93.5029H283.701C283.701 91.5009 283.136 89.7323 281.895 88.3332L280.773 89.3281L279.65 90.3231C280.315 91.0724 280.701 92.087 280.701 93.5029H282.201ZM280.773 89.3281L281.895 88.3332C280.647 86.9243 279.011 86.2168 277.111 86.2168V87.7168V89.2168C278.189 89.2168 278.995 89.5835 279.65 90.3231L280.773 89.3281ZM277.111 87.7168V86.2168H275.17V87.7168V89.2168H277.111V87.7168ZM275.17 87.7168H273.67V99.2158H275.17H276.67V87.7168H275.17ZM275.17 99.2158V100.716H277.111V99.2158V97.7158H275.17V99.2158ZM305.144 126.901L304.066 127.944L304.074 127.953L304.083 127.962L305.144 126.901ZM305.144 116.464L306.195 117.534L306.195 117.534L305.144 116.464ZM315.617 116.464L314.548 117.516L314.556 117.525L314.565 117.534L315.617 116.464ZM315.581 126.938L314.52 125.877C313.325 127.072 311.969 127.635 310.38 127.635V129.135V130.635C312.795 130.635 314.906 129.734 316.641 127.999L315.581 126.938ZM310.38 129.135V127.635C308.799 127.635 307.428 127.065 306.204 125.841L305.144 126.901L304.083 127.962C305.837 129.716 307.958 130.635 310.38 130.635V129.135ZM305.144 126.901L306.221 125.858C305.012 124.608 304.446 123.219 304.446 121.628H302.946H301.446C301.446 124.041 302.346 126.167 304.066 127.944L305.144 126.901ZM302.946 121.628H304.446C304.446 120.04 305.009 118.701 306.195 117.534L305.144 116.464L304.092 115.395C302.349 117.109 301.446 119.212 301.446 121.628H302.946ZM305.144 116.464L306.195 117.534C307.418 116.332 308.791 115.767 310.38 115.767V114.267V112.767C307.966 112.767 305.848 113.667 304.092 115.395L305.144 116.464ZM310.38 114.267V115.767C312.028 115.767 313.389 116.337 314.548 117.516L315.617 116.464L316.687 115.413C314.965 113.662 312.834 112.767 310.38 112.767V114.267ZM315.617 116.464L314.565 117.534C315.752 118.701 316.314 120.04 316.314 121.628H317.814H319.314C319.314 119.212 318.412 117.109 316.669 115.395L315.617 116.464ZM317.814 121.628H316.314C316.314 123.269 315.736 124.661 314.52 125.877L315.581 126.938L316.641 127.999C318.403 126.237 319.314 124.088 319.314 121.628H317.814Z" fill="black" mask="url(#path-2-outside-1_68_813)"/>
<path d="M355.987 113.132V75.4854H369.427V112.473C369.427 117.526 367.889 121.567 364.812 124.594C361.736 127.622 357.793 129.135 352.984 129.135C348.199 129.135 344.28 127.622 341.229 124.594C338.177 121.567 336.651 117.526 336.651 112.473V75.4854H350.091V113.132C350.091 114.23 350.359 115.134 350.896 115.842C351.458 116.55 352.154 116.904 352.984 116.904C353.838 116.904 354.546 116.55 355.108 115.842C355.694 115.134 355.987 114.23 355.987 113.132ZM399.107 96.4326V75.4854H412.511V128H403.832L393.102 107.163H392.955V128H379.442V75.4854H388.158L398.851 96.4326H399.107ZM463.156 75.4854C467.453 75.4854 471.042 77.3286 473.923 81.0151C476.804 84.6772 478.244 89.1938 478.244 94.5649C478.244 100.058 476.828 104.514 473.996 107.932C471.164 111.35 467.551 113.059 463.156 113.059H456.198V128H442.758V75.4854H463.156ZM459.165 101.083C460.874 101.083 462.216 100.437 463.193 99.1426C464.169 97.8242 464.658 96.2739 464.658 94.4917C464.658 92.6362 464.169 91.0615 463.193 89.7676C462.216 88.4492 460.874 87.79 459.165 87.79H456.198V101.083H459.165ZM484.817 128V75.4854H498.257V128H484.817ZM527.938 96.4326V75.4854H541.341V128H532.662L521.932 107.163H521.785V128H508.272V75.4854H516.988L527.681 96.4326H527.938ZM562.708 126.938C561.244 128.403 559.51 129.135 557.508 129.135C555.506 129.135 553.761 128.391 552.271 126.901C550.807 125.388 550.074 123.63 550.074 121.628C550.074 119.626 550.807 117.905 552.271 116.464C553.761 115 555.506 114.267 557.508 114.267C559.559 114.267 561.305 115 562.745 116.464C564.21 117.905 564.942 119.626 564.942 121.628C564.942 123.679 564.198 125.449 562.708 126.938Z" fill="#FEB9CD"/>
</svg>
