<svg width="344" height="10" viewBox="0 0 344 10" fill="none" xmlns="http://www.w3.org/2000/svg">
<path d="M1.52735 8.40629C23.6958 6.90913 45.8856 5.72556 68.086 4.85558C90.2864 3.98561 112.508 3.42923 134.73 3.17633C156.952 2.93355 179.173 2.99425 201.395 3.37865C223.521 3.75294 245.647 4.44083 267.762 5.44231C289.962 6.44379 312.142 7.75887 334.299 9.37742C337.026 9.57974 339.754 9.78206 342.47 9.9945C344.515 10.1462 344.505 7.11144 342.47 6.95971C320.323 5.26022 298.144 3.86422 275.954 2.79193C253.764 1.70952 231.553 0.950819 209.331 0.495601C187.11 0.0403823 164.888 -0.101241 142.666 0.0707302C120.53 0.242702 98.4039 0.728268 76.2887 1.51731C54.0776 2.31648 31.8878 3.41912 9.71935 4.83535C6.99223 5.00732 4.26511 5.18941 1.538 5.3715C-0.507337 5.51312 -0.517989 8.54791 1.538 8.40629" fill="black"/>
</svg>
