<svg width="161" height="6" viewBox="0 0 161 6" fill="none" xmlns="http://www.w3.org/2000/svg">
<path d="M0.682778 1.4851C11.0513 1.81183 21.4198 2.10886 31.7884 2.38807C42.202 2.66728 52.6214 2.92272 63.035 3.15441C73.4035 3.38609 83.7777 3.58807 94.1463 3.77223C104.515 3.95639 114.889 4.11678 125.258 4.24748C135.626 4.37817 146 4.49698 156.374 4.58609C157.689 4.59797 159.003 4.60985 160.318 4.61579C161.226 4.62173 161.226 3.16035 160.318 3.13064C141.651 2.55441 122.973 2.39401 104.3 2.50688C85.6224 2.61975 66.95 3.01183 48.2776 3.5346C37.7681 3.82569 27.2641 4.16431 16.7546 4.5148C15.852 4.54451 15.8463 6.02965 16.7546 5.99995C35.4213 5.37619 54.0937 4.79995 72.7661 4.41975C91.4385 4.03956 110.117 3.8554 128.789 4.00985C139.298 4.09896 149.808 4.28906 160.312 4.61579V3.13064C149.938 3.04748 139.569 2.94055 129.195 2.80985C118.776 2.67916 108.356 2.5247 97.9428 2.34649C87.5291 2.16827 77.2001 1.96629 66.8316 1.74649C56.463 1.52074 46.0945 1.27718 35.7203 1.00391C25.3461 0.730644 14.9889 0.439555 4.62034 0.124704C3.30594 0.0831197 1.99154 0.0415355 0.682778 -4.86327e-05C-0.225456 -0.0297516 -0.225456 1.4554 0.682778 1.4851Z" fill="black"/>
</svg>
