<svg width="323" height="11" viewBox="0 0 323 11" fill="none" xmlns="http://www.w3.org/2000/svg">
<path d="M1.4307 9.24692C22.1963 7.60004 42.9819 6.29811 63.7775 5.34114C84.5731 4.38417 105.389 3.77216 126.204 3.49397C147.02 3.2269 167.835 3.29367 188.651 3.71652C209.376 4.12824 230.102 4.88491 250.818 5.98654C271.614 7.08817 292.389 8.53475 313.145 10.3152C315.699 10.5377 318.254 10.7603 320.798 10.9939C322.714 11.1609 322.704 7.82259 320.798 7.65568C300.053 5.78624 279.277 4.25064 258.492 3.07112C237.706 1.88047 216.9 1.0459 196.085 0.545161C175.269 0.0444206 154.454 -0.111365 133.638 0.0778032C112.903 0.266972 92.1768 0.801095 71.4611 1.66905C50.6555 2.54812 29.8699 3.76103 9.1043 5.31889C6.54976 5.50806 3.99522 5.70835 1.44067 5.90865C-0.475232 6.06443 -0.485211 9.4027 1.44067 9.24692" fill="#F7E86B"/>
</svg>
