<svg width="323" height="11" viewBox="0 0 323 11" fill="none" xmlns="http://www.w3.org/2000/svg">
<path d="M2.19901 9.24692C22.9646 7.60004 43.7502 6.29811 64.5458 5.34114C85.3414 4.38417 106.157 3.77216 126.972 3.49397C147.788 3.2269 168.604 3.29367 189.419 3.71652C210.145 4.12824 230.871 4.88491 251.586 5.98654C272.382 7.08817 293.157 8.53475 313.913 10.3152C316.468 10.5377 319.022 10.7603 321.567 10.9939C323.483 11.1609 323.473 7.82259 321.567 7.65568C300.821 5.78624 280.045 4.25064 259.26 3.07112C238.474 1.88047 217.669 1.0459 196.853 0.545161C176.038 0.0444206 155.222 -0.111365 134.407 0.0778032C113.671 0.266972 92.9452 0.801095 72.2294 1.66905C51.4239 2.54812 30.6383 3.76103 9.87261 5.31889C7.31807 5.50806 4.76353 5.70835 2.20899 5.90865C0.293078 6.06443 0.2831 9.4027 2.20899 9.24692" fill="#FFFF7A"/>
</svg>
