<svg width="529" height="128" viewBox="0 0 529 128" fill="none" xmlns="http://www.w3.org/2000/svg">
<path d="M13.2118 1.37109V40.6365H28.1008V52.5587H0.103027V1.37109H13.2118Z" fill="white"/>
<path d="M39.4294 1.37109H55.8862L66.9923 52.5587H53.8127L52.5989 44.8836H42.7774L41.5232 52.5587H28.384L39.4294 1.37109ZM44.5273 34.4276H50.8086L47.8146 16.9033H47.4606L44.5374 34.4276H44.5273Z" fill="white"/>
<path d="M98.3888 39.5342L103.638 1.37109H116.595L108.382 52.5587H88.1324L79.9697 1.37109H92.8965L98.1764 39.5342H98.3888Z" fill="white"/>
<path d="M138.352 38.068V1.37109H151.461V37.4208C151.461 42.3454 149.964 46.2892 146.96 49.2318C143.956 52.1845 140.122 53.6609 135.449 53.6609C130.776 53.6609 126.943 52.1845 123.969 49.2318C120.995 46.279 119.508 42.3454 119.508 37.4208V1.37109H132.617V38.068C132.617 39.1399 132.88 40.0196 133.416 40.7073C133.952 41.3949 134.63 41.7387 135.449 41.7387C136.269 41.7387 136.956 41.3949 137.523 40.7073C138.089 40.0196 138.362 39.1399 138.362 38.068H138.352Z" fill="white"/>
<path d="M172.429 33.1737V40.6365H189.25V52.5587H159.331V1.37109H188.785V13.2933H172.429V22.4346H187.177V33.1838H172.429V33.1737Z" fill="white"/>
<path d="M208.387 1.37109V40.6365H223.276V52.5587H195.278V1.37109H208.387Z" fill="white"/>
<path d="M217.005 13.2933V1.37109H248.816V13.2933H239.429V52.5587H226.361V13.2933H217.005Z" fill="white"/>
<path d="M256.18 1.37109H272.636L283.743 52.5587H270.563L269.349 44.8836H259.528L258.273 52.5587H245.134L256.17 1.37109H256.18ZM261.288 34.4276H267.569L264.575 16.9033H264.221L261.298 34.4276H261.288Z" fill="white"/>
<path d="M310.476 1.37109H326.933L338.039 52.5587H324.859L323.646 44.8836H313.824L312.57 52.5587H299.431L310.466 1.37109H310.476ZM315.584 34.4276H321.865L318.871 16.9033H318.517L315.594 34.4276H315.584Z" fill="white"/>
<path d="M354.04 1.37109V40.6365H368.929V52.5587H340.932V1.37109H354.04Z" fill="white"/>
<path d="M411.543 41.7388C413.688 41.7388 416.125 40.6872 418.866 38.594L421.365 50.5869C418.391 52.6296 414.386 53.661 409.369 53.661C403.269 53.661 398.475 51.5375 394.965 47.2904C391.455 43.0433 389.695 36.2682 389.695 26.965C389.695 17.6619 391.455 10.8968 394.965 6.6902C398.475 2.47344 403.28 0.370117 409.369 0.370117C414.821 0.370117 418.573 1.02741 420.616 2.33187L417.471 13.9709C415.974 12.8485 413.991 12.2923 411.543 12.2923C408.802 12.2923 406.668 13.3642 405.131 15.508C403.593 17.6517 402.824 21.4741 402.824 26.965C402.824 32.4559 403.593 36.3592 405.131 38.5131C406.668 40.6669 408.802 41.7388 411.543 41.7388Z" fill="white"/>
<path d="M426.443 6.64973C429.77 2.41275 434.342 0.299316 440.158 0.299316C445.974 0.299316 450.536 2.41275 453.874 6.64973C457.202 10.8867 458.871 17.6517 458.871 26.965C458.871 36.2783 457.202 43.1039 453.874 47.3308C450.536 51.5577 445.974 53.6711 440.158 53.6711C434.342 53.6711 429.78 51.5577 426.443 47.3308C423.115 43.1039 421.446 36.3187 421.446 26.965C421.446 17.6113 423.115 10.8867 426.443 6.64973ZM436.011 38.5636C436.962 40.677 438.348 41.7388 440.148 41.7388C441.949 41.7388 443.334 40.677 444.285 38.5636C445.236 36.4502 445.711 32.5772 445.711 26.965C445.711 21.3528 445.236 17.5809 444.285 15.4372C443.334 13.2934 441.949 12.2215 440.148 12.2215C438.348 12.2215 436.962 13.2934 436.011 15.4372C435.06 17.5809 434.585 21.4235 434.585 26.965C434.585 32.5064 435.06 36.4502 436.011 38.5636Z" fill="white"/>
<path d="M478.048 1.37109V40.6365H492.937V52.5587H464.939V1.37109H478.048Z" fill="white"/>
<path d="M510.871 33.1737V40.6365H527.692V52.5587H497.772V1.37109H527.226V13.2933H510.871V22.4346H525.618V33.1838H510.871V33.1737Z" fill="white"/>
<g clip-path="url(#clip0_26_537)">
<path d="M16.1537 74.3091V113.58H30.9642V125.504H3.11401V74.3091H16.1537Z" stroke="white" stroke-width="2" stroke-miterlimit="10"/>
<path d="M42.223 74.3091H58.593L69.6405 125.504H56.5304L55.323 117.828H45.5533L44.3057 125.504H31.2358L42.223 74.3091ZM47.304 107.371H53.5522L50.574 89.8436H50.2219L47.3141 107.371H47.304Z" stroke="white" stroke-width="2" stroke-miterlimit="10"/>
<path d="M100.882 112.478L106.103 74.3091H118.992L110.822 125.504H90.6792L82.5596 74.3091H95.4181L100.67 112.478H100.882Z" stroke="white" stroke-width="2" stroke-miterlimit="10"/>
<path d="M140.635 111.011V74.3091H153.674V110.364C153.674 115.29 152.185 119.234 149.197 122.177C146.209 125.13 142.395 126.607 137.747 126.607C133.099 126.607 129.285 125.13 126.327 122.177C123.369 119.224 121.89 115.29 121.89 110.364V74.3091H134.93V111.011C134.93 112.083 135.191 112.963 135.725 113.651C136.258 114.339 136.932 114.683 137.747 114.683C138.562 114.683 139.246 114.339 139.81 113.651C140.373 112.963 140.645 112.083 140.645 111.011H140.635Z" stroke="white" stroke-width="2" stroke-miterlimit="10"/>
<path d="M174.532 106.116V113.58H191.264V125.504H161.502V74.3091H190.801V86.2331H174.532V95.3758H189.201V106.127H174.532V106.116Z" stroke="white" stroke-width="2" stroke-miterlimit="10"/>
<path d="M210.3 74.3091V113.58H225.111V125.504H197.261V74.3091H210.3Z" stroke="white" stroke-width="2" stroke-miterlimit="10"/>
<path d="M218.873 86.2331V74.3091H250.516V86.2331H241.179V125.504H228.179V86.2331H218.873Z" stroke="white" stroke-width="2" stroke-miterlimit="10"/>
<path d="M257.841 74.3091H274.211L285.258 125.504H272.148L270.941 117.828H261.171L259.923 125.504H246.854L257.831 74.3091H257.841ZM262.922 107.371H269.17L266.192 89.8436H265.84L262.932 107.371H262.922Z" stroke="white" stroke-width="2" stroke-miterlimit="10"/>
<path d="M311.851 74.3091H328.221L339.268 125.504H326.158L324.951 117.828H315.181L313.934 125.504H300.864L311.841 74.3091H311.851ZM316.922 107.371H323.17L320.192 89.8436H319.84L316.932 107.371H316.922Z" stroke="white" stroke-width="2" stroke-miterlimit="10"/>
<path d="M355.186 74.3091V113.58H369.996V125.504H342.146V74.3091H355.186Z" stroke="white" stroke-width="2" stroke-miterlimit="10"/>
<path d="M412.385 114.682C414.518 114.682 416.943 113.631 419.67 111.537L422.155 123.532C419.197 125.575 415.212 126.606 410.222 126.606C404.155 126.606 399.386 124.483 395.894 120.235C392.403 115.987 390.652 109.211 390.652 99.9065C390.652 90.6019 392.403 83.8359 395.894 79.6286C399.386 75.4113 404.165 73.3076 410.222 73.3076C415.645 73.3076 419.378 73.965 421.41 75.2697L418.281 86.9105C416.792 85.7878 414.82 85.2316 412.385 85.2316C409.658 85.2316 407.535 86.3036 406.006 88.4477C404.477 90.5918 403.712 94.4148 403.712 99.9065C403.712 105.398 404.477 109.302 406.006 111.456C407.535 113.61 409.658 114.682 412.385 114.682Z" stroke="white" stroke-width="2" stroke-miterlimit="10"/>
<path d="M427.206 79.5882C430.516 75.3506 435.064 73.2368 440.849 73.2368C446.634 73.2368 451.172 75.3506 454.492 79.5882C457.803 83.8258 459.463 90.5918 459.463 99.9065C459.463 109.221 457.803 116.048 454.492 120.275C451.172 124.503 446.634 126.617 440.849 126.617C435.064 126.617 430.526 124.503 427.206 120.275C423.895 116.048 422.235 109.262 422.235 99.9065C422.235 90.5514 423.895 83.8258 427.206 79.5882ZM436.724 111.507C437.67 113.621 439.048 114.682 440.839 114.682C442.63 114.682 444.008 113.621 444.954 111.507C445.9 109.393 446.373 105.52 446.373 99.9065C446.373 94.2934 445.9 90.521 444.954 88.3769C444.008 86.2328 442.63 85.1608 440.839 85.1608C439.048 85.1608 437.67 86.2328 436.724 88.3769C435.778 90.521 435.305 94.3642 435.305 99.9065C435.305 105.449 435.778 109.393 436.724 111.507Z" stroke="white" stroke-width="2" stroke-miterlimit="10"/>
<path d="M478.539 74.3091V113.58H493.35V125.504H465.5V74.3091H478.539Z" stroke="white" stroke-width="2" stroke-miterlimit="10"/>
<path d="M511.189 106.116V113.58H527.921V125.504H498.159V74.3091H527.458V86.2331H511.189V95.3758H525.858V106.127H511.189V106.116Z" stroke="white" stroke-width="2" stroke-miterlimit="10"/>
</g>
<defs>
<clipPath id="clip0_26_537">
<rect width="526.809" height="55.4025" fill="white" transform="translate(2.10791 72.2256)"/>
</clipPath>
</defs>
</svg>
