<svg width="421" height="118" viewBox="0 0 421 118" fill="none" xmlns="http://www.w3.org/2000/svg">
<path d="M15.543 3.58984V31.5195H26.1309V40H6.22461V3.58984H15.543ZM35.0176 3.58984H46.7227L54.6191 40H45.25L44.3867 34.541H37.4043L36.5156 40H27.1719L35.0176 3.58984ZM38.6484 27.1016H43.1172L40.9844 14.6348H40.7305L38.6484 27.1016ZM78.6133 30.7324L82.3457 3.58984H91.5625L85.7227 40H71.3262L65.5117 3.58984H74.7031L78.4609 30.7324H78.6133ZM107.889 29.6914V3.58984H117.207V29.2344C117.207 32.7383 116.141 35.5397 114.008 37.6387C111.875 39.7376 109.141 40.7871 105.807 40.7871C102.489 40.7871 99.7721 39.7376 97.6562 37.6387C95.5404 35.5397 94.4824 32.7383 94.4824 29.2344V3.58984H103.801V29.6914C103.801 30.4531 103.987 31.0794 104.359 31.5703C104.749 32.0612 105.231 32.3066 105.807 32.3066C106.399 32.3066 106.89 32.0612 107.279 31.5703C107.686 31.0794 107.889 30.4531 107.889 29.6914ZM132.949 26.2129V31.5195H144.908V40H123.631V3.58984H144.578V12.0703H132.949V18.5703H143.436V26.2129H132.949ZM159.355 3.58984V31.5195H169.943V40H150.037V3.58984H159.355ZM166.287 12.0703V3.58984H188.91V12.0703H182.232V40H172.939V12.0703H166.287ZM194.979 3.58984H206.684L214.58 40H205.211L204.348 34.541H197.365L196.477 40H187.133L194.979 3.58984ZM198.609 27.1016H203.078L200.945 14.6348H200.691L198.609 27.1016ZM235.248 3.58984H246.953L254.85 40H245.48L244.617 34.541H237.635L236.746 40H227.402L235.248 3.58984ZM238.879 27.1016H243.348L241.215 14.6348H240.961L238.879 27.1016ZM267.062 3.58984V31.5195H277.65V40H257.744V3.58984H267.062ZM309.617 32.3066C311.141 32.3066 312.876 31.5618 314.822 30.0723L316.6 38.6035C314.484 40.0592 311.64 40.7871 308.068 40.7871C303.735 40.7871 300.316 39.2806 297.811 36.2676C295.322 33.2376 294.078 28.4134 294.078 21.7949C294.078 15.1764 295.322 10.3691 297.811 7.37305C300.316 4.37695 303.735 2.87891 308.068 2.87891C311.945 2.87891 314.611 3.3444 316.066 4.27539L313.832 12.5527C312.766 11.7572 311.361 11.3594 309.617 11.3594C307.671 11.3594 306.147 12.1211 305.047 13.6445C303.964 15.168 303.422 17.8848 303.422 21.7949C303.422 25.7389 303.964 28.4811 305.047 30.0215C306.147 31.5449 307.671 32.3066 309.617 32.3066ZM321.043 7.34766C323.413 4.33464 326.663 2.82812 330.793 2.82812C334.923 2.82812 338.173 4.33464 340.543 7.34766C342.913 10.3607 344.098 15.1764 344.098 21.7949C344.098 28.4473 342.913 33.2799 340.543 36.293C338.173 39.2891 334.923 40.7871 330.793 40.7871C326.663 40.7871 323.413 39.2891 321.043 36.293C318.673 33.2799 317.488 28.4473 317.488 21.7949C317.488 15.1764 318.673 10.3607 321.043 7.34766ZM327.848 30.0469C328.525 31.5534 329.507 32.3066 330.793 32.3066C332.079 32.3066 333.061 31.5534 333.738 30.0469C334.415 28.5404 334.754 25.7897 334.754 21.7949C334.754 17.8509 334.415 15.1172 333.738 13.5938C333.061 12.0703 332.079 11.3086 330.793 11.3086C329.507 11.3086 328.525 12.0703 327.848 13.5938C327.171 15.1172 326.832 17.8509 326.832 21.7949C326.832 25.7897 327.171 28.5404 327.848 30.0469ZM358.57 3.58984V31.5195H369.158V40H349.252V3.58984H358.57ZM382.742 26.2129V31.5195H394.701V40H373.424V3.58984H394.371V12.0703H382.742V18.5703H393.229V26.2129H382.742Z" fill="black"/>
<mask id="path-2-outside-1_13_958" maskUnits="userSpaceOnUse" x="4" y="51" width="393" height="42" fill="black">
<rect fill="white" x="4" y="51" width="393" height="42"/>
<path d="M15.543 53.5898V81.5195H26.1309V90H6.22461V53.5898H15.543ZM35.0176 53.5898H46.7227L54.6191 90H45.25L44.3867 84.541H37.4043L36.5156 90H27.1719L35.0176 53.5898ZM38.6484 77.1016H43.1172L40.9844 64.6348H40.7305L38.6484 77.1016ZM78.6133 80.7324L82.3457 53.5898H91.5625L85.7227 90H71.3262L65.5117 53.5898H74.7031L78.4609 80.7324H78.6133ZM107.889 79.6914V53.5898H117.207V79.2344C117.207 82.7383 116.141 85.5397 114.008 87.6387C111.875 89.7376 109.141 90.7871 105.807 90.7871C102.489 90.7871 99.7721 89.7376 97.6562 87.6387C95.5404 85.5397 94.4824 82.7383 94.4824 79.2344V53.5898H103.801V79.6914C103.801 80.4531 103.987 81.0794 104.359 81.5703C104.749 82.0612 105.231 82.3066 105.807 82.3066C106.399 82.3066 106.89 82.0612 107.279 81.5703C107.686 81.0794 107.889 80.4531 107.889 79.6914ZM132.949 76.2129V81.5195H144.908V90H123.631V53.5898H144.578V62.0703H132.949V68.5703H143.436V76.2129H132.949ZM159.355 53.5898V81.5195H169.943V90H150.037V53.5898H159.355ZM166.287 62.0703V53.5898H188.91V62.0703H182.232V90H172.939V62.0703H166.287ZM194.979 53.5898H206.684L214.58 90H205.211L204.348 84.541H197.365L196.477 90H187.133L194.979 53.5898ZM198.609 77.1016H203.078L200.945 64.6348H200.691L198.609 77.1016ZM235.248 53.5898H246.953L254.85 90H245.48L244.617 84.541H237.635L236.746 90H227.402L235.248 53.5898ZM238.879 77.1016H243.348L241.215 64.6348H240.961L238.879 77.1016ZM267.062 53.5898V81.5195H277.65V90H257.744V53.5898H267.062ZM309.617 82.3066C311.141 82.3066 312.876 81.5618 314.822 80.0723L316.6 88.6035C314.484 90.0592 311.64 90.7871 308.068 90.7871C303.735 90.7871 300.316 89.2806 297.811 86.2676C295.322 83.2376 294.078 78.4134 294.078 71.7949C294.078 65.1764 295.322 60.3691 297.811 57.373C300.316 54.377 303.735 52.8789 308.068 52.8789C311.945 52.8789 314.611 53.3444 316.066 54.2754L313.832 62.5527C312.766 61.7572 311.361 61.3594 309.617 61.3594C307.671 61.3594 306.147 62.1211 305.047 63.6445C303.964 65.168 303.422 67.8848 303.422 71.7949C303.422 75.7389 303.964 78.4811 305.047 80.0215C306.147 81.5449 307.671 82.3066 309.617 82.3066ZM321.043 57.3477C323.413 54.3346 326.663 52.8281 330.793 52.8281C334.923 52.8281 338.173 54.3346 340.543 57.3477C342.913 60.3607 344.098 65.1764 344.098 71.7949C344.098 78.4473 342.913 83.2799 340.543 86.293C338.173 89.2891 334.923 90.7871 330.793 90.7871C326.663 90.7871 323.413 89.2891 321.043 86.293C318.673 83.2799 317.488 78.4473 317.488 71.7949C317.488 65.1764 318.673 60.3607 321.043 57.3477ZM327.848 80.0469C328.525 81.5534 329.507 82.3066 330.793 82.3066C332.079 82.3066 333.061 81.5534 333.738 80.0469C334.415 78.5404 334.754 75.7897 334.754 71.7949C334.754 67.8509 334.415 65.1172 333.738 63.5938C333.061 62.0703 332.079 61.3086 330.793 61.3086C329.507 61.3086 328.525 62.0703 327.848 63.5938C327.171 65.1172 326.832 67.8509 326.832 71.7949C326.832 75.7897 327.171 78.5404 327.848 80.0469ZM358.57 53.5898V81.5195H369.158V90H349.252V53.5898H358.57ZM382.742 76.2129V81.5195H394.701V90H373.424V53.5898H394.371V62.0703H382.742V68.5703H393.229V76.2129H382.742Z"/>
</mask>
<path d="M15.543 53.5898H17.043V52.0898H15.543V53.5898ZM15.543 81.5195H14.043V83.0195H15.543V81.5195ZM26.1309 81.5195H27.6309V80.0195H26.1309V81.5195ZM26.1309 90V91.5H27.6309V90H26.1309ZM6.22461 90H4.72461V91.5H6.22461V90ZM6.22461 53.5898V52.0898H4.72461V53.5898H6.22461ZM14.043 53.5898V81.5195H17.043V53.5898H14.043ZM15.543 83.0195H26.1309V80.0195H15.543V83.0195ZM24.6309 81.5195V90H27.6309V81.5195H24.6309ZM26.1309 88.5H6.22461V91.5H26.1309V88.5ZM7.72461 90V53.5898H4.72461V90H7.72461ZM6.22461 55.0898H15.543V52.0898H6.22461V55.0898ZM35.0176 53.5898V52.0898H33.8064L33.5512 53.2739L35.0176 53.5898ZM46.7227 53.5898L48.1886 53.2719L47.9322 52.0898H46.7227V53.5898ZM54.6191 90V91.5H56.4793L56.0851 89.6821L54.6191 90ZM45.25 90L43.7684 90.2343L43.9686 91.5H45.25V90ZM44.3867 84.541L45.8683 84.3067L45.6681 83.041H44.3867V84.541ZM37.4043 84.541V83.041H36.1287L35.9238 84.3L37.4043 84.541ZM36.5156 90V91.5H37.7912L37.9961 90.241L36.5156 90ZM27.1719 90L25.7055 89.684L25.3142 91.5H27.1719V90ZM38.6484 77.1016L37.1689 76.8545L36.8772 78.6016H38.6484V77.1016ZM43.1172 77.1016V78.6016H44.8956L44.5957 76.8486L43.1172 77.1016ZM40.9844 64.6348L42.4629 64.3818L42.2495 63.1348H40.9844V64.6348ZM40.7305 64.6348V63.1348H39.4602L39.251 64.3877L40.7305 64.6348ZM35.0176 55.0898H46.7227V52.0898H35.0176V55.0898ZM45.2567 53.9078L53.1532 90.3179L56.0851 89.6821L48.1886 53.2719L45.2567 53.9078ZM54.6191 88.5H45.25V91.5H54.6191V88.5ZM46.7316 89.7657L45.8683 84.3067L42.9051 84.7753L43.7684 90.2343L46.7316 89.7657ZM44.3867 83.041H37.4043V86.041H44.3867V83.041ZM35.9238 84.3L35.0351 89.759L37.9961 90.241L38.8848 84.782L35.9238 84.3ZM36.5156 88.5H27.1719V91.5H36.5156V88.5ZM28.6382 90.316L36.4839 53.9058L33.5512 53.2739L25.7055 89.684L28.6382 90.316ZM38.6484 78.6016H43.1172V75.6016H38.6484V78.6016ZM44.5957 76.8486L42.4629 64.3818L39.5059 64.8877L41.6387 77.3545L44.5957 76.8486ZM40.9844 63.1348H40.7305V66.1348H40.9844V63.1348ZM39.251 64.3877L37.1689 76.8545L40.1279 77.3486L42.21 64.8819L39.251 64.3877ZM78.6133 80.7324V82.2324H79.9211L80.0993 80.9368L78.6133 80.7324ZM82.3457 53.5898V52.0898H81.0379L80.8597 53.3855L82.3457 53.5898ZM91.5625 53.5898L93.0436 53.8274L93.3223 52.0898H91.5625V53.5898ZM85.7227 90V91.5H87.0012L87.2037 90.2375L85.7227 90ZM71.3262 90L69.8449 90.2365L70.0467 91.5H71.3262V90ZM65.5117 53.5898V52.0898H63.7532L64.0305 53.8264L65.5117 53.5898ZM74.7031 53.5898L76.189 53.3841L76.0098 52.0898H74.7031V53.5898ZM78.4609 80.7324L76.9751 80.9381L77.1543 82.2324H78.4609V80.7324ZM80.0993 80.9368L83.8317 53.7942L80.8597 53.3855L77.1273 80.5281L80.0993 80.9368ZM82.3457 55.0898H91.5625V52.0898H82.3457V55.0898ZM90.0814 53.3523L84.2416 89.7625L87.2037 90.2375L93.0436 53.8274L90.0814 53.3523ZM85.7227 88.5H71.3262V91.5H85.7227V88.5ZM72.8074 89.7635L66.993 53.3533L64.0305 53.8264L69.8449 90.2365L72.8074 89.7635ZM65.5117 55.0898H74.7031V52.0898H65.5117V55.0898ZM73.2173 53.7956L76.9751 80.9381L79.9468 80.5267L76.189 53.3841L73.2173 53.7956ZM78.4609 82.2324H78.6133V79.2324H78.4609V82.2324ZM107.889 53.5898V52.0898H106.389V53.5898H107.889ZM117.207 53.5898H118.707V52.0898H117.207V53.5898ZM94.4824 53.5898V52.0898H92.9824V53.5898H94.4824ZM103.801 53.5898H105.301V52.0898H103.801V53.5898ZM104.359 81.5703L103.164 82.4769L103.174 82.4898L103.184 82.5024L104.359 81.5703ZM107.279 81.5703L106.124 80.614L106.114 80.626L106.104 80.6382L107.279 81.5703ZM109.389 79.6914V53.5898H106.389V79.6914H109.389ZM107.889 55.0898H117.207V52.0898H107.889V55.0898ZM115.707 53.5898V79.2344H118.707V53.5898H115.707ZM115.707 79.2344C115.707 82.4106 114.753 84.8007 112.956 86.5696L115.06 88.7078C117.528 86.2787 118.707 83.066 118.707 79.2344H115.707ZM112.956 86.5696C111.137 88.3597 108.797 89.2871 105.807 89.2871V92.2871C109.486 92.2871 112.613 91.1155 115.06 88.7078L112.956 86.5696ZM105.807 89.2871C102.836 89.2871 100.515 88.3613 98.7126 86.5738L96.5999 88.7036C99.0297 91.1139 102.142 92.2871 105.807 92.2871V89.2871ZM98.7126 86.5738C96.9303 84.8057 95.9824 82.4141 95.9824 79.2344H92.9824C92.9824 83.0624 94.1504 86.2738 96.5999 88.7036L98.7126 86.5738ZM95.9824 79.2344V53.5898H92.9824V79.2344H95.9824ZM94.4824 55.0898H103.801V52.0898H94.4824V55.0898ZM102.301 53.5898V79.6914H105.301V53.5898H102.301ZM102.301 79.6914C102.301 80.7016 102.551 81.6686 103.164 82.4769L105.554 80.6637C105.423 80.4902 105.301 80.2046 105.301 79.6914H102.301ZM103.184 82.5024C103.829 83.3156 104.729 83.8066 105.807 83.8066V80.8066C105.74 80.8066 105.711 80.7944 105.693 80.7856C105.672 80.775 105.616 80.7412 105.535 80.6382L103.184 82.5024ZM105.807 83.8066C106.887 83.8066 107.8 83.3282 108.455 82.5024L106.104 80.6382C105.98 80.7942 105.912 80.8066 105.807 80.8066V83.8066ZM108.435 82.5267C109.105 81.7167 109.389 80.7311 109.389 79.6914H106.389C106.389 80.1751 106.266 80.4422 106.124 80.614L108.435 82.5267ZM132.949 76.2129V74.7129H131.449V76.2129H132.949ZM132.949 81.5195H131.449V83.0195H132.949V81.5195ZM144.908 81.5195H146.408V80.0195H144.908V81.5195ZM144.908 90V91.5H146.408V90H144.908ZM123.631 90H122.131V91.5H123.631V90ZM123.631 53.5898V52.0898H122.131V53.5898H123.631ZM144.578 53.5898H146.078V52.0898H144.578V53.5898ZM144.578 62.0703V63.5703H146.078V62.0703H144.578ZM132.949 62.0703V60.5703H131.449V62.0703H132.949ZM132.949 68.5703H131.449V70.0703H132.949V68.5703ZM143.436 68.5703H144.936V67.0703H143.436V68.5703ZM143.436 76.2129V77.7129H144.936V76.2129H143.436ZM131.449 76.2129V81.5195H134.449V76.2129H131.449ZM132.949 83.0195H144.908V80.0195H132.949V83.0195ZM143.408 81.5195V90H146.408V81.5195H143.408ZM144.908 88.5H123.631V91.5H144.908V88.5ZM125.131 90V53.5898H122.131V90H125.131ZM123.631 55.0898H144.578V52.0898H123.631V55.0898ZM143.078 53.5898V62.0703H146.078V53.5898H143.078ZM144.578 60.5703H132.949V63.5703H144.578V60.5703ZM131.449 62.0703V68.5703H134.449V62.0703H131.449ZM132.949 70.0703H143.436V67.0703H132.949V70.0703ZM141.936 68.5703V76.2129H144.936V68.5703H141.936ZM143.436 74.7129H132.949V77.7129H143.436V74.7129ZM159.355 53.5898H160.855V52.0898H159.355V53.5898ZM159.355 81.5195H157.855V83.0195H159.355V81.5195ZM169.943 81.5195H171.443V80.0195H169.943V81.5195ZM169.943 90V91.5H171.443V90H169.943ZM150.037 90H148.537V91.5H150.037V90ZM150.037 53.5898V52.0898H148.537V53.5898H150.037ZM157.855 53.5898V81.5195H160.855V53.5898H157.855ZM159.355 83.0195H169.943V80.0195H159.355V83.0195ZM168.443 81.5195V90H171.443V81.5195H168.443ZM169.943 88.5H150.037V91.5H169.943V88.5ZM151.537 90V53.5898H148.537V90H151.537ZM150.037 55.0898H159.355V52.0898H150.037V55.0898ZM166.287 62.0703H164.787V63.5703H166.287V62.0703ZM166.287 53.5898V52.0898H164.787V53.5898H166.287ZM188.91 53.5898H190.41V52.0898H188.91V53.5898ZM188.91 62.0703V63.5703H190.41V62.0703H188.91ZM182.232 62.0703V60.5703H180.732V62.0703H182.232ZM182.232 90V91.5H183.732V90H182.232ZM172.939 90H171.439V91.5H172.939V90ZM172.939 62.0703H174.439V60.5703H172.939V62.0703ZM167.787 62.0703V53.5898H164.787V62.0703H167.787ZM166.287 55.0898H188.91V52.0898H166.287V55.0898ZM187.41 53.5898V62.0703H190.41V53.5898H187.41ZM188.91 60.5703H182.232V63.5703H188.91V60.5703ZM180.732 62.0703V90H183.732V62.0703H180.732ZM182.232 88.5H172.939V91.5H182.232V88.5ZM174.439 90V62.0703H171.439V90H174.439ZM172.939 60.5703H166.287V63.5703H172.939V60.5703ZM194.979 53.5898V52.0898H193.767L193.512 53.2739L194.979 53.5898ZM206.684 53.5898L208.15 53.2719L207.893 52.0898H206.684V53.5898ZM214.58 90V91.5H216.44L216.046 89.6821L214.58 90ZM205.211 90L203.729 90.2343L203.93 91.5H205.211V90ZM204.348 84.541L205.829 84.3067L205.629 83.041H204.348V84.541ZM197.365 84.541V83.041H196.09L195.885 84.3L197.365 84.541ZM196.477 90V91.5H197.752L197.957 90.241L196.477 90ZM187.133 90L185.666 89.684L185.275 91.5H187.133V90ZM198.609 77.1016L197.13 76.8545L196.838 78.6016H198.609V77.1016ZM203.078 77.1016V78.6016H204.857L204.557 76.8486L203.078 77.1016ZM200.945 64.6348L202.424 64.3818L202.21 63.1348H200.945V64.6348ZM200.691 64.6348V63.1348H199.421L199.212 64.3877L200.691 64.6348ZM194.979 55.0898H206.684V52.0898H194.979V55.0898ZM205.218 53.9078L213.114 90.3179L216.046 89.6821L208.15 53.2719L205.218 53.9078ZM214.58 88.5H205.211V91.5H214.58V88.5ZM206.693 89.7657L205.829 84.3067L202.866 84.7753L203.729 90.2343L206.693 89.7657ZM204.348 83.041H197.365V86.041H204.348V83.041ZM195.885 84.3L194.996 89.759L197.957 90.241L198.846 84.782L195.885 84.3ZM196.477 88.5H187.133V91.5H196.477V88.5ZM188.599 90.316L196.445 53.9058L193.512 53.2739L185.666 89.684L188.599 90.316ZM198.609 78.6016H203.078V75.6016H198.609V78.6016ZM204.557 76.8486L202.424 64.3818L199.467 64.8877L201.6 77.3545L204.557 76.8486ZM200.945 63.1348H200.691V66.1348H200.945V63.1348ZM199.212 64.3877L197.13 76.8545L200.089 77.3486L202.171 64.8819L199.212 64.3877ZM235.248 53.5898V52.0898H234.037L233.782 53.2739L235.248 53.5898ZM246.953 53.5898L248.419 53.2719L248.163 52.0898H246.953V53.5898ZM254.85 90V91.5H256.71L256.316 89.6821L254.85 90ZM245.48 90L243.999 90.2343L244.199 91.5H245.48V90ZM244.617 84.541L246.099 84.3067L245.899 83.041H244.617V84.541ZM237.635 84.541V83.041H236.359L236.154 84.3L237.635 84.541ZM236.746 90V91.5H238.022L238.227 90.241L236.746 90ZM227.402 90L225.936 89.684L225.545 91.5H227.402V90ZM238.879 77.1016L237.399 76.8545L237.108 78.6016H238.879V77.1016ZM243.348 77.1016V78.6016H245.126L244.826 76.8486L243.348 77.1016ZM241.215 64.6348L242.693 64.3818L242.48 63.1348H241.215V64.6348ZM240.961 64.6348V63.1348H239.691L239.481 64.3877L240.961 64.6348ZM235.248 55.0898H246.953V52.0898H235.248V55.0898ZM245.487 53.9078L253.384 90.3179L256.316 89.6821L248.419 53.2719L245.487 53.9078ZM254.85 88.5H245.48V91.5H254.85V88.5ZM246.962 89.7657L246.099 84.3067L243.136 84.7753L243.999 90.2343L246.962 89.7657ZM244.617 83.041H237.635V86.041H244.617V83.041ZM236.154 84.3L235.266 89.759L238.227 90.241L239.115 84.782L236.154 84.3ZM236.746 88.5H227.402V91.5H236.746V88.5ZM228.869 90.316L236.714 53.9058L233.782 53.2739L225.936 89.684L228.869 90.316ZM238.879 78.6016H243.348V75.6016H238.879V78.6016ZM244.826 76.8486L242.693 64.3818L239.736 64.8877L241.869 77.3545L244.826 76.8486ZM241.215 63.1348H240.961V66.1348H241.215V63.1348ZM239.481 64.3877L237.399 76.8545L240.358 77.3486L242.44 64.8819L239.481 64.3877ZM267.062 53.5898H268.562V52.0898H267.062V53.5898ZM267.062 81.5195H265.562V83.0195H267.062V81.5195ZM277.65 81.5195H279.15V80.0195H277.65V81.5195ZM277.65 90V91.5H279.15V90H277.65ZM257.744 90H256.244V91.5H257.744V90ZM257.744 53.5898V52.0898H256.244V53.5898H257.744ZM265.562 53.5898V81.5195H268.562V53.5898H265.562ZM267.062 83.0195H277.65V80.0195H267.062V83.0195ZM276.15 81.5195V90H279.15V81.5195H276.15ZM277.65 88.5H257.744V91.5H277.65V88.5ZM259.244 90V53.5898H256.244V90H259.244ZM257.744 55.0898H267.062V52.0898H257.744V55.0898ZM314.822 80.0723L316.291 79.7663L315.804 77.4319L313.911 78.881L314.822 80.0723ZM316.6 88.6035L317.45 89.8393L318.271 89.274L318.068 88.2976L316.6 88.6035ZM297.811 86.2676L296.651 87.2196L296.657 87.2266L297.811 86.2676ZM297.811 57.373L296.66 56.4108L296.657 56.4147L297.811 57.373ZM316.066 54.2754L317.515 54.6663L317.801 53.6044L316.875 53.0117L316.066 54.2754ZM313.832 62.5527L312.935 63.755L314.705 65.0753L315.28 62.9437L313.832 62.5527ZM305.047 63.6445L303.831 62.7663L303.824 62.7752L305.047 63.6445ZM305.047 80.0215L303.82 80.8844L303.825 80.8921L303.831 80.8997L305.047 80.0215ZM309.617 83.8066C311.617 83.8066 313.673 82.8404 315.734 81.2635L313.911 78.881C312.078 80.2833 310.664 80.8066 309.617 80.8066V83.8066ZM313.354 80.3782L315.131 88.9094L318.068 88.2976L316.291 79.7663L313.354 80.3782ZM315.749 87.3677C313.964 88.5961 311.451 89.2871 308.068 89.2871V92.2871C311.829 92.2871 315.003 91.5224 317.45 89.8393L315.749 87.3677ZM308.068 89.2871C304.127 89.2871 301.152 87.9398 298.964 85.3086L296.657 87.2266C299.48 90.6214 303.343 92.2871 308.068 92.2871V89.2871ZM298.97 85.3156C296.809 82.6847 295.578 78.2848 295.578 71.7949H292.578C292.578 78.542 293.835 83.7906 296.651 87.2195L298.97 85.3156ZM295.578 71.7949C295.578 65.3028 296.81 60.9255 298.964 58.3314L296.657 56.4147C293.834 59.8128 292.578 65.0501 292.578 71.7949H295.578ZM298.961 58.3352C301.148 55.72 304.124 54.3789 308.068 54.3789V51.3789C303.346 51.3789 299.483 53.0339 296.66 56.4109L298.961 58.3352ZM308.068 54.3789C309.954 54.3789 311.497 54.4926 312.717 54.7057C313.953 54.9215 314.765 55.2239 315.258 55.5391L316.875 53.0117C315.912 52.3959 314.663 52.0001 313.233 51.7504C311.787 51.4979 310.059 51.3789 308.068 51.3789V54.3789ZM314.618 53.8845L312.384 62.1618L315.28 62.9437L317.515 54.6663L314.618 53.8845ZM314.729 61.3504C313.333 60.3092 311.584 59.8594 309.617 59.8594V62.8594C311.138 62.8594 312.198 63.2051 312.935 63.755L314.729 61.3504ZM309.617 59.8594C307.209 59.8594 305.225 60.8361 303.831 62.7663L306.263 64.5228C307.069 63.4061 308.132 62.8594 309.617 62.8594V59.8594ZM303.824 62.7752C302.448 64.7105 301.922 67.8498 301.922 71.7949H304.922C304.922 67.9197 305.479 65.6254 306.269 64.5138L303.824 62.7752ZM301.922 71.7949C301.922 75.7734 302.448 78.9342 303.82 80.8844L306.274 79.1586C305.479 78.0281 304.922 75.7045 304.922 71.7949H301.922ZM303.831 80.8997C305.225 82.8299 307.209 83.8066 309.617 83.8066V80.8066C308.132 80.8066 307.069 80.26 306.263 79.1432L303.831 80.8997ZM340.543 86.293L341.719 87.2235L341.722 87.2203L340.543 86.293ZM321.043 86.293L319.864 87.2203L319.866 87.2235L321.043 86.293ZM322.222 58.275C324.283 55.6546 327.082 54.3281 330.793 54.3281V51.3281C326.244 51.3281 322.543 53.0147 319.864 56.4203L322.222 58.275ZM330.793 54.3281C334.504 54.3281 337.303 55.6546 339.364 58.275L341.722 56.4203C339.043 53.0147 335.342 51.3281 330.793 51.3281V54.3281ZM339.364 58.275C341.422 60.8911 342.598 65.2925 342.598 71.7949H345.598C345.598 65.0603 344.404 59.8302 341.722 56.4203L339.364 58.275ZM342.598 71.7949C342.598 78.3333 341.421 82.7505 339.364 85.3657L341.722 87.2203C344.405 83.8094 345.598 78.5612 345.598 71.7949H342.598ZM339.366 85.3624C337.307 87.9666 334.507 89.2871 330.793 89.2871V92.2871C335.339 92.2871 339.04 90.6115 341.719 87.2235L339.366 85.3624ZM330.793 89.2871C327.079 89.2871 324.279 87.9666 322.219 85.3624L319.866 87.2235C322.546 90.6115 326.247 92.2871 330.793 92.2871V89.2871ZM322.222 85.3657C320.165 82.7505 318.988 78.3333 318.988 71.7949H315.988C315.988 78.5612 317.181 83.8094 319.864 87.2203L322.222 85.3657ZM318.988 71.7949C318.988 65.2925 320.164 60.8911 322.222 58.275L319.864 56.4203C317.182 59.8302 315.988 65.0603 315.988 71.7949H318.988ZM326.479 80.6618C326.887 81.5686 327.436 82.3619 328.179 82.9318C328.942 83.5178 329.834 83.8066 330.793 83.8066V80.8066C330.466 80.8066 330.223 80.7189 330.005 80.5516C329.766 80.3682 329.485 80.0316 329.216 79.432L326.479 80.6618ZM330.793 83.8066C331.752 83.8066 332.643 83.5178 333.407 82.9318C334.15 82.3619 334.699 81.5686 335.106 80.6618L332.37 79.432C332.101 80.0316 331.82 80.3682 331.581 80.5516C331.363 80.7189 331.12 80.8066 330.793 80.8066V83.8066ZM335.106 80.6618C335.929 78.8308 336.254 75.7829 336.254 71.7949H333.254C333.254 75.7965 332.901 78.2499 332.37 79.432L335.106 80.6618ZM336.254 71.7949C336.254 67.852 335.928 64.8276 335.109 62.9845L332.368 64.203C332.903 65.4068 333.254 67.8499 333.254 71.7949H336.254ZM335.109 62.9845C334.703 62.0707 334.156 61.2704 333.414 60.6948C332.65 60.1022 331.756 59.8086 330.793 59.8086V62.8086C331.116 62.8086 331.357 62.8959 331.575 63.065C331.815 63.2511 332.097 63.5934 332.368 64.203L335.109 62.9845ZM330.793 59.8086C329.829 59.8086 328.936 60.1022 328.172 60.6948C327.43 61.2704 326.883 62.0707 326.477 62.9845L329.218 64.203C329.489 63.5934 329.771 63.2511 330.011 63.065C330.229 62.8959 330.47 62.8086 330.793 62.8086V59.8086ZM326.477 62.9845C325.658 64.8276 325.332 67.852 325.332 71.7949H328.332C328.332 67.8499 328.683 65.4068 329.218 64.203L326.477 62.9845ZM325.332 71.7949C325.332 75.7829 325.657 78.8308 326.479 80.6618L329.216 79.432C328.685 78.2499 328.332 75.7965 328.332 71.7949H325.332ZM358.57 53.5898H360.07V52.0898H358.57V53.5898ZM358.57 81.5195H357.07V83.0195H358.57V81.5195ZM369.158 81.5195H370.658V80.0195H369.158V81.5195ZM369.158 90V91.5H370.658V90H369.158ZM349.252 90H347.752V91.5H349.252V90ZM349.252 53.5898V52.0898H347.752V53.5898H349.252ZM357.07 53.5898V81.5195H360.07V53.5898H357.07ZM358.57 83.0195H369.158V80.0195H358.57V83.0195ZM367.658 81.5195V90H370.658V81.5195H367.658ZM369.158 88.5H349.252V91.5H369.158V88.5ZM350.752 90V53.5898H347.752V90H350.752ZM349.252 55.0898H358.57V52.0898H349.252V55.0898ZM382.742 76.2129V74.7129H381.242V76.2129H382.742ZM382.742 81.5195H381.242V83.0195H382.742V81.5195ZM394.701 81.5195H396.201V80.0195H394.701V81.5195ZM394.701 90V91.5H396.201V90H394.701ZM373.424 90H371.924V91.5H373.424V90ZM373.424 53.5898V52.0898H371.924V53.5898H373.424ZM394.371 53.5898H395.871V52.0898H394.371V53.5898ZM394.371 62.0703V63.5703H395.871V62.0703H394.371ZM382.742 62.0703V60.5703H381.242V62.0703H382.742ZM382.742 68.5703H381.242V70.0703H382.742V68.5703ZM393.229 68.5703H394.729V67.0703H393.229V68.5703ZM393.229 76.2129V77.7129H394.729V76.2129H393.229ZM381.242 76.2129V81.5195H384.242V76.2129H381.242ZM382.742 83.0195H394.701V80.0195H382.742V83.0195ZM393.201 81.5195V90H396.201V81.5195H393.201ZM394.701 88.5H373.424V91.5H394.701V88.5ZM374.924 90V53.5898H371.924V90H374.924ZM373.424 55.0898H394.371V52.0898H373.424V55.0898ZM392.871 53.5898V62.0703H395.871V53.5898H392.871ZM394.371 60.5703H382.742V63.5703H394.371V60.5703ZM381.242 62.0703V68.5703H384.242V62.0703H381.242ZM382.742 70.0703H393.229V67.0703H382.742V70.0703ZM391.729 68.5703V76.2129H394.729V68.5703H391.729ZM393.229 74.7129H382.742V77.7129H393.229V74.7129Z" fill="black" mask="url(#path-2-outside-1_13_958)"/>
<path d="M0.902324 117.993C55.2732 113.111 109.769 109.698 164.309 107.782C218.856 105.865 273.446 105.444 328.011 106.512C358.715 107.115 389.413 108.196 420.091 109.731C421.301 109.789 421.295 107.846 420.091 107.788C365.583 105.055 311.005 103.793 256.427 104.026C201.85 104.259 147.285 105.988 92.7946 109.206C62.1346 111.019 31.4997 113.305 0.902324 116.051C-0.2945 116.161 -0.307032 118.104 0.902324 117.993Z" fill="white"/>
</svg>
